<svg width="833" height="146" viewBox="0 0 833 146" fill="none" xmlns="http://www.w3.org/2000/svg">
<mask id="path-1-outside-1_736_10344" maskUnits="userSpaceOnUse" x="0.757812" y="0.576538" width="831" height="144" fill="black">
<rect fill="white" x="0.757812" y="0.576538" width="831" height="144"/>
<path d="M186.99 142.897C183.404 142.958 180.03 142.715 176.869 142.168C173.77 141.621 171.217 140.922 169.211 140.071L175.593 119.009L176.505 119.192C181.246 120.59 185.288 120.894 188.631 120.103C192.035 119.374 194.618 116.7 196.381 112.08L198.022 107.704L161.552 2.85298H191.184L212.245 77.7072H213.339L234.674 2.85298H264.488L224.918 115.818C223.034 121.289 220.451 126.06 217.169 130.133C213.947 134.205 209.875 137.335 204.951 139.524C200.028 141.773 194.041 142.897 186.99 142.897ZM322.019 83.9983C326.639 83.9983 330.529 82.7218 333.69 80.169C336.85 77.6161 339.251 74.0907 340.892 69.5927C342.534 65.034 343.354 59.8067 343.354 53.9107C343.354 48.0147 342.534 42.8482 340.892 38.411C339.312 33.9131 336.941 30.3877 333.781 27.8348C330.62 25.2819 326.7 24.0055 322.019 24.0055C317.461 24.0055 313.57 25.2515 310.349 27.7436C307.188 30.1749 304.757 33.6396 303.055 38.1375C301.414 42.5747 300.593 47.8324 300.593 53.9107C300.593 59.9282 301.444 65.1859 303.146 69.6839C304.848 74.1818 307.279 77.7072 310.44 80.2601C313.662 82.7522 317.521 83.9983 322.019 83.9983ZM455.408 42.6051V64.6693H402.253V42.6051H455.408ZM411.553 2.85298V104.786H384.656V2.85298H411.553ZM473.095 2.85298V104.786H446.381V2.85298H473.095ZM526.797 87.1894C530.93 87.1894 534.577 86.3688 537.738 84.7277C540.96 83.0258 543.452 80.7768 545.214 77.9808C547.038 75.124 547.95 71.9329 547.95 68.4074V57.5577C547.099 58.1047 545.883 58.6214 544.303 59.1076C542.783 59.5939 541.081 60.0194 539.197 60.3841C537.313 60.7488 535.428 61.0831 533.544 61.387C531.66 61.6301 529.958 61.8733 528.438 62.1164C525.095 62.6027 522.178 63.3928 519.686 64.4869C517.193 65.5203 515.248 66.9487 513.85 68.7721C512.513 70.5349 511.845 72.7534 511.845 75.4279C511.845 79.2572 513.243 82.1748 516.039 84.1806C518.835 86.1865 522.421 87.1894 526.797 87.1894ZM717.717 34.3082H748.26C761.754 34.2474 772.239 37.4385 779.715 43.8815C787.252 50.3245 791.051 58.9253 791.112 69.6839C791.112 76.6739 789.41 82.813 786.006 88.1011C782.602 93.3285 777.709 97.4313 771.327 100.41C764.945 103.327 757.256 104.786 748.26 104.786H700.12V2.85298H727.016V82.5395H748.26C752.94 82.5395 756.8 81.3542 759.839 78.9837C762.878 76.6132 764.428 73.574 764.489 69.8662C764.428 65.9153 762.878 62.6938 759.839 60.2017C756.8 57.7096 752.94 56.494 748.26 56.5548H717.717V34.3082Z"/>
</mask>
<path d="M40.746 51.8137L41.293 52.2164L41.5871 51.8169L41.2961 51.4152L40.746 51.8137ZM5.27907 2.85298V2.17367H3.94817L4.72894 3.25149L5.27907 2.85298ZM37.4637 2.85298L38.0295 2.47706L37.8279 2.17367H37.4637V2.85298ZM63.9954 42.7874L63.4296 43.1633L63.6312 43.4667H63.9954V42.7874ZM68.3718 42.7874V43.4667H69.0511V42.7874H68.3718ZM68.3718 2.85298V2.17367H67.6925V2.85298H68.3718ZM96.4536 2.85298H97.1329V2.17367H96.4536V2.85298ZM96.4536 42.7874H95.7743V43.4667H96.4536V42.7874ZM100.739 42.7874V43.4667H101.103L101.305 43.1633L100.739 42.7874ZM127.271 2.85298V2.17367H126.906L126.705 2.47706L127.271 2.85298ZM159.546 2.85298L160.096 3.25149L160.877 2.17367H159.546V2.85298ZM124.079 51.8137L123.529 51.4152L123.251 51.7994L123.516 52.193L124.079 51.8137ZM100.556 64.9428L101.121 64.5645L100.919 64.2635H100.556V64.9428ZM96.4536 64.9428V64.2635H95.7743V64.9428H96.4536ZM96.4536 104.786V105.465H97.1329V104.786H96.4536ZM68.3718 104.786H67.6925V105.465H68.3718V104.786ZM68.3718 64.9428H69.0511V64.2635H68.3718V64.9428ZM64.269 64.9428V64.2635H63.9031L63.7018 64.569L64.269 64.9428ZM273.059 2.85298V2.17367H272.379V2.85298H273.059ZM300.776 2.85298H301.455V2.17367H300.776V2.85298ZM300.776 20.085H300.096V20.7643H300.776V20.085ZM302.052 20.085V20.7643H302.489L302.67 20.3671L302.052 20.085ZM316.822 4.49412L317.122 5.10369L317.13 5.09978L316.822 4.49412ZM351.56 7.41171L351.199 7.98716L351.205 7.99121L351.56 7.41171ZM366.786 82.7218L367.401 83.0102L367.402 83.0083L366.786 82.7218ZM351.924 100.41L351.558 99.8377L351.555 99.8394L351.924 100.41ZM307.614 96.8539L307.096 97.2932L307.101 97.2993L307.106 97.3052L307.614 96.8539ZM302.052 88.4658L302.665 88.1727L302.48 87.7865H302.052V88.4658ZM301.231 88.4658V87.7865H300.552V88.4658H301.231ZM501.268 103.327L500.988 103.946L500.997 103.95L501.268 103.327ZM487.957 62.1164L488.552 62.443L488.555 62.439L487.957 62.1164ZM523.15 44.8844L523.087 44.208L523.086 44.2082L523.15 44.8844ZM545.214 40.7816L545.591 41.3468L545.596 41.3437L545.214 40.7816ZM543.756 25.6466L543.306 26.1557L543.312 26.1607L543.756 25.6466ZM520.506 25.5554L520.908 26.1029L520.91 26.1015L520.506 25.5554ZM514.58 33.9435L514.526 34.6206L515.08 34.6651L515.233 34.1301L514.58 33.9435ZM488.413 31.8465L487.749 31.7032L487.585 32.4616L488.358 32.5236L488.413 31.8465ZM496.254 15.7998L496.768 16.2441L496.77 16.2407L496.254 15.7998ZM511.298 5.31469L511.548 5.94628L511.551 5.94499L511.298 5.31469ZM562.811 9.78224L562.423 10.3396L562.432 10.3462L562.811 9.78224ZM549.135 90.5629H549.814V89.8835H549.135V90.5629ZM548.406 90.5629V89.8835H547.989L547.8 90.2545L548.406 90.5629ZM541.841 99.0421L542.286 99.5555L542.292 99.5498L541.841 99.0421ZM531.994 104.695L532.218 105.336L532.227 105.333L531.994 104.695ZM586.425 104.786L585.746 104.789L585.749 105.465H586.425V104.786ZM586.334 82.4483V81.769H585.652L585.655 82.4511L586.334 82.4483ZM589.708 82.4483V83.1277L589.72 83.1275L589.708 82.4483ZM597.549 79.166L597.061 78.6926L597.054 78.7L597.549 79.166ZM602.198 68.4986L601.535 68.3546L601.533 68.3607L602.198 68.4986ZM604.295 48.0755L603.617 48.0495L603.617 48.0515L604.295 48.0755ZM606.028 2.85298V2.17367H605.374L605.349 2.82698L606.028 2.85298ZM683.435 2.85298H684.114V2.17367H683.435V2.85298ZM656.539 25.0996H657.218V24.4202H656.539V25.0996ZM631.374 25.0996V24.4202H630.73L630.696 25.0639L631.374 25.0996ZM629.733 56.2812L629.055 56.2455L629.055 56.2473L629.733 56.2812ZM619.795 93.3893L619.249 92.9857L619.248 92.9872L619.795 93.3893ZM609.219 102.051L609.493 102.672L609.497 102.67L609.219 102.051ZM802.053 2.85298V2.17367H801.374V2.85298H802.053ZM830.226 2.85298H830.905V2.17367H830.226V2.85298ZM41.2961 51.4152L5.8292 2.45447L4.72894 3.25149L40.1958 52.2122L41.2961 51.4152ZM5.27907 3.53229H37.4637V2.17367H5.27907V3.53229ZM36.8979 3.2289L63.4296 43.1633L64.5613 42.4115L38.0295 2.47706L36.8979 3.2289ZM63.9954 43.4667H68.3718V42.1081H63.9954V43.4667ZM69.0511 42.7874V2.85298H67.6925V42.7874H69.0511ZM68.3718 3.53229H96.4536V2.17367H68.3718V3.53229ZM95.7743 2.85298V42.7874H97.1329V2.85298H95.7743ZM96.4536 43.4667H100.739V42.1081H96.4536V43.4667ZM101.305 43.1633L127.836 3.2289L126.705 2.47706L100.173 42.4115L101.305 43.1633ZM127.271 3.53229H159.546V2.17367H127.271V3.53229ZM158.996 2.45447L123.529 51.4152L124.63 52.2122L160.096 3.25149L158.996 2.45447ZM123.516 52.193L159.165 105.165L160.292 104.407L124.643 51.4344L123.516 52.193ZM100.556 64.2635H96.4536V65.6221H100.556V64.2635ZM95.7743 64.9428V104.786H97.1329V64.9428H95.7743ZM96.4536 104.107H68.3718V105.465H96.4536V104.107ZM69.0511 104.786V64.9428H67.6925V104.786H69.0511ZM68.3718 64.2635H64.269V65.6221H68.3718V64.2635ZM63.7018 64.569L37.4435 104.412L38.5779 105.16L64.8362 65.3166L63.7018 64.569ZM273.059 3.53229H300.776V2.17367H273.059V3.53229ZM300.096 2.85298V20.085H301.455V2.85298H300.096ZM300.776 20.7643H302.052V19.4057H300.776V20.7643ZM302.67 20.3671C303.917 17.6355 305.705 14.8594 308.045 12.0395L307 11.1719C304.599 14.0657 302.74 16.9424 301.434 19.8028L302.67 20.3671ZM308.045 12.0395C310.346 9.26656 313.366 6.95197 317.122 5.10364L316.522 3.88461C312.62 5.80482 309.44 8.2313 307 11.1719L308.045 12.0395ZM317.13 5.09978C320.839 3.21598 325.467 2.25585 331.046 2.25585V0.89723C325.318 0.89723 320.465 1.88216 316.515 3.88847L317.13 5.09978ZM331.046 2.25585C338.397 2.25585 345.11 4.16642 351.199 7.98712L351.921 6.83629C345.61 2.87677 338.647 0.89723 331.046 0.89723V2.25585ZM351.205 7.99121C357.336 11.7413 362.27 17.4379 365.992 25.1222L367.215 24.5299C363.4 16.6538 358.304 10.7408 351.914 6.8322L351.205 7.99121ZM365.992 25.1222C369.703 32.7836 371.577 42.4 371.577 54.0019H372.936C372.936 42.2631 371.041 32.4289 367.215 24.5299L365.992 25.1222ZM371.577 54.0019C371.577 65.2377 369.764 74.7072 366.17 82.4354L367.402 83.0083C371.101 75.0545 372.936 65.3773 372.936 54.0019H371.577ZM366.171 82.4335C362.57 90.1161 357.695 95.9055 351.558 99.8377L352.291 100.982C358.676 96.8906 363.708 90.8881 367.401 83.0102L366.171 82.4335ZM351.555 99.8394C345.472 103.776 338.611 105.748 330.954 105.748V107.107C338.858 107.107 345.978 105.067 352.294 100.98L351.555 99.8394ZM330.954 105.748C325.557 105.748 321.012 104.848 317.297 103.079L316.713 104.305C320.656 106.183 325.411 107.107 330.954 107.107V105.748ZM317.297 103.079C313.536 101.288 310.484 99.06 308.121 96.4026L307.106 97.3052C309.606 100.118 312.814 102.449 316.713 104.305L317.297 103.079ZM308.132 96.4146C305.792 93.6552 303.973 90.9076 302.665 88.1727L301.439 88.7589C302.806 91.6161 304.694 94.4606 307.096 97.2932L308.132 96.4146ZM302.052 87.7865H301.231V89.1451H302.052V87.7865ZM300.552 88.4658V142.897H301.911V88.4658H300.552ZM518.683 106.021C512.32 106.021 506.609 104.911 501.539 102.704L500.997 103.95C506.261 106.241 512.16 107.38 518.683 107.38V106.021ZM501.548 102.708C496.555 100.45 492.647 97.1298 489.803 92.7461L488.663 93.4854C491.655 98.0976 495.77 101.585 500.988 103.946L501.548 102.708ZM489.803 92.7461C486.973 88.3825 485.536 82.927 485.536 76.3396H484.178C484.178 83.1245 485.659 88.853 488.663 93.4854L489.803 92.7461ZM485.536 76.3396C485.536 70.704 486.556 66.0839 488.552 62.443L487.361 61.7898C485.225 65.686 484.178 70.5481 484.178 76.3396H485.536ZM488.555 62.439C490.569 58.707 493.319 55.6913 496.811 53.3833L496.061 52.2499C492.381 54.683 489.478 57.8672 487.359 61.7938L488.555 62.439ZM496.811 53.3833C500.33 51.057 504.334 49.2923 508.829 48.0937L508.478 46.7809C503.856 48.0137 499.715 49.8352 496.061 52.2499L496.811 53.3833ZM508.829 48.0937C513.348 46.8885 518.143 46.0437 523.215 45.5607L523.086 44.2082C517.946 44.6977 513.076 45.5548 508.478 46.7809L508.829 48.0937ZM523.213 45.5608C529.115 45.0132 533.871 44.4647 537.476 43.9148L537.271 42.5717C533.704 43.1159 528.977 43.6615 523.087 44.208L523.213 45.5608ZM537.476 43.9148C541.091 43.3633 543.824 42.5247 545.591 41.3468L544.838 40.2164C543.322 41.2267 540.828 42.0292 537.271 42.5717L537.476 43.9148ZM545.596 41.3437C547.492 40.0573 548.447 38.2015 548.447 35.8582H547.088C547.088 37.7696 546.341 39.1961 544.833 40.2195L545.596 41.3437ZM548.447 35.8582V35.4023H547.088V35.8582H548.447ZM548.447 35.4023C548.447 31.0514 547.052 27.5956 544.2 25.1325L543.312 26.1607C545.808 28.3171 547.088 31.3651 547.088 35.4023H548.447ZM544.206 25.1376C541.428 22.6827 537.537 21.5027 532.632 21.5027V22.8613C537.331 22.8613 540.856 23.991 543.306 26.1556L544.206 25.1376ZM532.632 21.5027C527.49 21.5027 523.292 22.649 520.102 25.0094L520.91 26.1015C523.799 23.9639 527.685 22.8613 532.632 22.8613V21.5027ZM520.104 25.008C517.01 27.2811 514.942 30.2016 513.927 33.7569L515.233 34.1301C516.162 30.8777 518.046 28.2061 520.908 26.1029L520.104 25.008ZM514.634 33.2663L488.467 31.1693L488.358 32.5236L514.526 34.6206L514.634 33.2663ZM489.077 31.9897C490.392 25.8936 492.957 20.6502 496.768 16.2441L495.74 15.3554C491.77 19.9452 489.108 25.3996 487.749 31.7032L489.077 31.9897ZM496.77 16.2407C500.581 11.7747 505.501 8.341 511.548 5.94627L511.047 4.68311C504.816 7.15102 499.706 10.7074 495.737 15.3588L496.77 16.2407ZM511.551 5.94499C517.655 3.4915 524.738 2.25585 532.815 2.25585V0.89723C524.601 0.89723 517.34 2.15368 511.044 4.6844L511.551 5.94499ZM532.815 2.25585C538.413 2.25585 543.766 2.918 548.874 4.24001L549.214 2.92474C543.989 1.5723 538.522 0.89723 532.815 0.89723V2.25585ZM548.874 4.24001C553.969 5.55887 558.483 7.59371 562.423 10.3395L563.2 9.22494C559.116 6.37874 554.452 4.28034 549.214 2.92474L548.874 4.24001ZM562.432 10.3462C566.412 13.0192 569.559 16.492 571.878 20.7732L573.073 20.1261C570.651 15.6546 567.355 12.0157 563.19 9.21832L562.432 10.3462ZM571.878 20.7732C574.185 25.0315 575.352 30.1125 575.352 36.0405H576.711C576.711 29.9335 575.507 24.6206 573.073 20.1261L571.878 20.7732ZM549.814 104.786V90.5629H548.456V104.786H549.814ZM549.135 89.8835H548.406V91.2422H549.135V89.8835ZM547.8 90.2545C546.198 93.3996 544.062 96.1586 541.39 98.5344L542.292 99.5498C545.09 97.0629 547.331 94.1691 549.011 90.8712L547.8 90.2545ZM541.396 98.5287C538.731 100.839 535.523 102.684 531.761 104.057L532.227 105.333C536.124 103.91 539.481 101.986 542.286 99.5554L541.396 98.5287ZM531.77 104.054C528.028 105.36 523.669 106.021 518.683 106.021V107.38C523.786 107.38 528.302 106.704 532.218 105.336L531.77 104.054ZM587.105 104.783L587.013 82.4455L585.655 82.4511L585.746 104.789L587.105 104.783ZM586.334 83.1276H589.708V81.769H586.334V83.1276ZM589.72 83.1275C593.104 83.0637 595.898 81.9066 598.043 79.632L597.054 78.7C595.187 80.6803 592.754 81.7114 589.695 81.7691L589.72 83.1275ZM598.036 79.6394C600.236 77.3744 601.821 73.6672 602.864 68.6365L601.533 68.3607C600.51 73.2985 598.994 76.7029 597.061 78.6927L598.036 79.6394ZM602.862 68.6426C603.969 63.5409 604.67 56.6877 604.974 48.0996L603.617 48.0515C603.313 56.6042 602.616 63.3664 601.535 68.3546L602.862 68.6426ZM604.974 48.1015L606.707 2.87898L605.349 2.82698L603.617 48.0495L604.974 48.1015ZM606.028 3.53229H683.435V2.17367H606.028V3.53229ZM682.756 2.85298V104.786H684.114V2.85298H682.756ZM656.539 24.4202H631.374V25.7789H656.539V24.4202ZM630.696 25.0639L629.055 56.2455L630.412 56.3169L632.053 25.1353L630.696 25.0639ZM629.055 56.2473C628.631 64.7242 627.602 71.9986 625.977 78.0789L627.29 78.4297C628.946 72.2318 629.985 64.8575 630.412 56.3152L629.055 56.2473ZM625.977 78.0789C624.352 84.1587 622.103 89.1202 619.249 92.9857L620.342 93.7928C623.322 89.7566 625.633 84.628 627.29 78.4297L625.977 78.0789ZM619.248 92.9872C616.457 96.7876 613.022 99.5974 608.941 101.431L609.497 102.67C613.804 100.736 617.42 97.7711 620.343 93.7914L619.248 92.9872ZM608.945 101.429C604.913 103.208 600.238 104.107 594.905 104.107V105.465C600.39 105.465 605.258 104.541 609.493 102.672L608.945 101.429ZM594.905 104.107H586.425V105.465H594.905V104.107ZM802.732 104.786V2.85298H801.374V104.786H802.732ZM802.053 3.53229H830.226V2.17367H802.053V3.53229ZM272.379 2.85298V142.897H273.738V2.85298H272.379ZM655.859 25.0996V104.786H657.218V25.0996H655.859ZM829.547 2.85298V104.786H830.905V2.85298H829.547ZM40.1989 51.411L1.21071 104.383L2.30491 105.189L41.293 52.2164L40.1989 51.411ZM575.352 36.0405V104.695H576.711V36.0405H575.352ZM99.9922 65.3211L126.706 105.164L127.835 104.408L101.121 64.5645L99.9922 65.3211ZM186.99 142.897V141.538H186.978L186.967 141.539L186.99 142.897ZM176.869 142.168L176.633 143.506L176.638 143.506L176.869 142.168ZM169.211 140.071L167.911 139.677L167.557 140.845L168.68 141.321L169.211 140.071ZM175.593 119.009L175.859 117.677L174.65 117.435L174.293 118.615L175.593 119.009ZM176.505 119.192L176.889 117.889L176.831 117.871L176.771 117.859L176.505 119.192ZM188.631 120.103L188.346 118.775L188.332 118.778L188.318 118.781L188.631 120.103ZM196.381 112.08L197.65 112.564L197.653 112.557L196.381 112.08ZM198.022 107.704L199.294 108.181L199.466 107.721L199.305 107.257L198.022 107.704ZM161.552 2.85298V1.49436H159.641L160.269 3.29931L161.552 2.85298ZM191.184 2.85298L192.492 2.485L192.213 1.49436H191.184V2.85298ZM212.245 77.7072L210.937 78.0752L211.216 79.0659H212.245V77.7072ZM213.339 77.7072V79.0659H214.365L214.646 78.0796L213.339 77.7072ZM234.674 2.85298V1.49436H233.649L233.368 2.48058L234.674 2.85298ZM264.488 2.85298L265.77 3.30212L266.404 1.49436H264.488V2.85298ZM224.918 115.818L223.636 115.369L223.634 115.376L224.918 115.818ZM217.169 130.133L216.111 129.28L216.103 129.29L217.169 130.133ZM204.951 139.524L204.399 138.282L204.387 138.288L204.951 139.524ZM340.892 69.5927L342.169 70.0584L342.171 70.0529L340.892 69.5927ZM340.892 38.411L339.611 38.8614L339.614 38.8719L339.618 38.8823L340.892 38.411ZM310.349 27.7436L311.177 28.8205L311.18 28.8182L310.349 27.7436ZM303.055 38.1375L301.784 37.6567L301.781 37.6662L303.055 38.1375ZM310.44 80.2601L309.586 81.3171L309.598 81.326L309.609 81.3347L310.44 80.2601ZM455.408 42.6051H456.766V41.2464H455.408V42.6051ZM455.408 64.6693V66.0279H456.766V64.6693H455.408ZM402.253 64.6693H400.894V66.0279H402.253V64.6693ZM402.253 42.6051V41.2464H400.894V42.6051H402.253ZM411.553 2.85298H412.911V1.49436H411.553V2.85298ZM411.553 104.786V106.145H412.911V104.786H411.553ZM384.656 104.786H383.298V106.145H384.656V104.786ZM384.656 2.85298V1.49436H383.298V2.85298H384.656ZM473.095 2.85298H474.454V1.49436H473.095V2.85298ZM473.095 104.786V106.145H474.454V104.786H473.095ZM446.381 104.786H445.023V106.145H446.381V104.786ZM446.381 2.85298V1.49436H445.023V2.85298H446.381ZM537.738 84.7277L538.364 85.9335L538.373 85.929L537.738 84.7277ZM545.214 77.9808L544.069 77.2498L544.065 77.2562L545.214 77.9808ZM547.95 57.5577H549.308V55.0691L547.215 56.4148L547.95 57.5577ZM544.303 59.1076L543.903 57.8091L543.896 57.8113L543.889 57.8137L544.303 59.1076ZM533.544 61.387L533.718 62.7345L533.739 62.7317L533.76 62.7283L533.544 61.387ZM528.438 62.1164L528.634 63.4609L528.643 63.4595L528.653 63.458L528.438 62.1164ZM519.686 64.4869L520.206 65.742L520.219 65.7366L520.232 65.7309L519.686 64.4869ZM513.85 68.7721L512.772 67.9455L512.768 67.951L513.85 68.7721ZM717.717 34.3082V32.9496H716.358V34.3082H717.717ZM748.26 34.3082V35.6668L748.266 35.6668L748.26 34.3082ZM779.715 43.8815L778.828 44.9107L778.832 44.9142L779.715 43.8815ZM791.112 69.6839H792.471L792.471 69.6762L791.112 69.6839ZM786.006 88.1011L787.145 88.8425L787.149 88.8365L786.006 88.1011ZM771.327 100.41L771.892 101.645L771.902 101.641L771.327 100.41ZM700.12 104.786H698.761V106.145H700.12V104.786ZM700.12 2.85298V1.49436H698.761V2.85298H700.12ZM727.016 2.85298H728.375V1.49436H727.016V2.85298ZM727.016 82.5395H725.658V83.8981H727.016V82.5395ZM764.489 69.8662L765.847 69.8885L765.848 69.8669L765.847 69.8453L764.489 69.8662ZM748.26 56.5548V57.9134H748.269L748.278 57.9133L748.26 56.5548ZM717.717 56.5548H716.358V57.9134H717.717V56.5548ZM186.967 141.539C183.456 141.598 180.169 141.36 177.101 140.829L176.638 143.506C179.892 144.07 183.351 144.317 187.013 144.255L186.967 141.539ZM177.106 140.83C174.066 140.293 171.621 139.617 169.741 138.82L168.68 141.321C170.812 142.226 173.473 142.948 176.633 143.506L177.106 140.83ZM170.511 140.465L176.893 119.403L174.293 118.615L167.911 139.677L170.511 140.465ZM175.327 120.342L176.238 120.524L176.771 117.859L175.859 117.677L175.327 120.342ZM176.121 120.495C180.995 121.932 185.291 122.289 188.944 121.426L188.318 118.781C185.285 119.498 181.497 119.247 176.889 117.889L176.121 120.495ZM188.916 121.432C192.942 120.569 195.798 117.417 197.65 112.564L195.111 111.596C193.438 115.982 191.127 118.179 188.346 118.775L188.916 121.432ZM197.653 112.557L199.294 108.181L196.75 107.227L195.109 111.603L197.653 112.557ZM199.305 107.257L162.835 2.40665L160.269 3.29931L196.739 108.15L199.305 107.257ZM161.552 4.2116H191.184V1.49436H161.552V4.2116ZM189.876 3.22096L210.937 78.0752L213.553 77.3393L192.492 2.485L189.876 3.22096ZM212.245 79.0659H213.339V76.3486H212.245V79.0659ZM214.646 78.0796L235.981 3.22538L233.368 2.48058L212.033 77.3348L214.646 78.0796ZM234.674 4.2116H264.488V1.49436H234.674V4.2116ZM263.206 2.40384L223.636 115.369L226.201 116.267L265.77 3.30212L263.206 2.40384ZM223.634 115.376C221.795 120.713 219.284 125.342 216.111 129.28L218.226 130.985C221.617 126.778 224.273 121.864 226.203 116.261L223.634 115.376ZM216.103 129.29C213.023 133.183 209.13 136.18 204.399 138.282L205.503 140.765C210.62 138.491 214.871 135.227 218.234 130.975L216.103 129.29ZM204.387 138.288C199.686 140.435 193.902 141.538 186.99 141.538V144.256C194.179 144.256 200.37 143.11 205.516 140.759L204.387 138.288ZM322.019 85.3569C326.905 85.3569 331.108 84.0004 334.543 81.2259L332.836 79.112C329.95 81.4432 326.373 82.6397 322.019 82.6397V85.3569ZM334.543 81.2259C337.928 78.4922 340.458 74.7464 342.169 70.0584L339.616 69.127C338.044 73.435 335.773 76.7399 332.836 79.112L334.543 81.2259ZM342.171 70.0529C343.875 65.3185 344.713 59.9306 344.713 53.9107H341.995C341.995 59.6827 341.192 64.7495 339.614 69.1325L342.171 70.0529ZM344.713 53.9107C344.713 47.892 343.875 42.5598 342.167 37.9397L339.618 38.8823C341.192 43.1366 341.995 48.1375 341.995 53.9107H344.713ZM342.174 37.9607C340.525 33.2666 338.023 29.515 334.634 26.7779L332.927 28.8917C335.86 31.2603 338.099 34.5596 339.611 38.8614L342.174 37.9607ZM334.634 26.7779C331.196 24.0007 326.961 22.6468 322.019 22.6468V25.3641C326.439 25.3641 330.044 26.5631 332.927 28.8917L334.634 26.7779ZM322.019 22.6468C317.197 22.6468 313.005 23.9709 309.518 26.669L311.18 28.8182C314.135 26.5321 317.724 25.3641 322.019 25.3641V22.6468ZM309.521 26.6667C306.122 29.2809 303.557 32.9717 301.784 37.6567L304.326 38.6183C305.957 34.3074 308.254 31.069 311.177 28.8205L309.521 26.6667ZM301.781 37.6662C300.07 42.2903 299.235 47.7152 299.235 53.9107H301.952C301.952 47.9496 302.757 42.859 304.329 38.6088L301.781 37.6662ZM299.235 53.9107C299.235 60.0528 300.103 65.4799 301.875 70.1647L304.417 69.2031C302.786 64.892 301.952 59.8036 301.952 53.9107H299.235ZM301.875 70.1647C303.647 74.8466 306.206 78.5868 309.586 81.3171L311.294 79.2032C308.353 76.8277 306.049 73.5171 304.417 69.2031L301.875 70.1647ZM309.609 81.3347C313.093 84.0303 317.254 85.3569 322.019 85.3569V82.6397C317.789 82.6397 314.23 81.4742 311.271 79.1855L309.609 81.3347ZM454.049 42.6051V64.6693H456.766V42.6051H454.049ZM455.408 63.3107H402.253V66.0279H455.408V63.3107ZM403.611 64.6693V42.6051H400.894V64.6693H403.611ZM402.253 43.9637H455.408V41.2464H402.253V43.9637ZM410.194 2.85298V104.786H412.911V2.85298H410.194ZM411.553 103.427H384.656V106.145H411.553V103.427ZM386.015 104.786V2.85298H383.298V104.786H386.015ZM384.656 4.2116H411.553V1.49436H384.656V4.2116ZM471.737 2.85298V104.786H474.454V2.85298H471.737ZM473.095 103.427H446.381V106.145H473.095V103.427ZM447.74 104.786V2.85298H445.023V104.786H447.74ZM446.381 4.2116H473.095V1.49436H446.381V4.2116ZM526.797 88.548C531.113 88.548 534.981 87.69 538.364 85.9334L537.112 83.5219C534.174 85.0476 530.748 85.8308 526.797 85.8308V88.548ZM538.373 85.929C541.783 84.1276 544.461 81.7227 546.364 78.7053L544.065 77.2562C542.442 79.8309 540.137 81.9239 537.104 83.5264L538.373 85.929ZM546.36 78.7118C548.328 75.6276 549.308 72.1809 549.308 68.4074H546.591C546.591 71.6848 545.748 74.6204 544.069 77.2498L546.36 78.7118ZM549.308 68.4074V57.5577H546.591V68.4074H549.308ZM547.215 56.4148C546.513 56.8662 545.43 57.3393 543.903 57.8091L544.702 60.4062C546.336 59.9034 547.685 59.3432 548.684 58.7005L547.215 56.4148ZM543.889 57.8137C542.429 58.2807 540.781 58.6938 538.939 59.0502L539.455 61.718C541.382 61.345 543.137 60.9071 544.717 60.4016L543.889 57.8137ZM538.939 59.0502C537.068 59.4123 535.198 59.7441 533.328 60.0457L533.76 62.7283C535.659 62.4221 537.557 62.0853 539.455 61.718L538.939 59.0502ZM533.37 60.0396C531.475 60.2841 529.76 60.5291 528.224 60.7749L528.653 63.458C530.156 63.2174 531.844 62.9762 533.718 62.7345L533.37 60.0396ZM528.243 60.7719C524.807 61.2717 521.766 62.0896 519.139 63.2429L520.232 65.7309C522.589 64.6961 525.384 63.9336 528.634 63.4609L528.243 60.7719ZM519.165 63.2319C516.491 64.3406 514.339 65.9021 512.772 67.9455L514.929 69.5988C516.158 67.9952 517.896 66.6999 520.206 65.742L519.165 63.2319ZM512.768 67.951C511.217 69.9961 510.486 72.5205 510.486 75.4279H513.203C513.203 72.9863 513.81 71.0736 514.933 69.5933L512.768 67.951ZM510.486 75.4279C510.486 79.6377 512.051 82.9919 515.247 85.2846L516.831 83.0767C514.434 81.3577 513.203 78.8767 513.203 75.4279H510.486ZM515.247 85.2846C518.329 87.4961 522.214 88.548 526.797 88.548V85.8308C522.627 85.8308 519.34 84.8768 516.831 83.0767L515.247 85.2846ZM717.717 35.6668H748.26V32.9496H717.717V35.6668ZM748.266 35.6668C761.553 35.6069 771.679 38.7491 778.828 44.9107L780.602 42.8523C772.799 36.128 761.955 32.8879 748.254 32.9496L748.266 35.6668ZM778.832 44.9142C786.042 51.0772 789.695 59.2896 789.753 69.6916L792.471 69.6762C792.408 58.561 788.463 49.5718 780.598 42.8488L778.832 44.9142ZM789.753 69.6839C789.753 76.4432 788.111 82.321 784.864 87.3658L787.149 88.8365C790.709 83.3051 792.471 76.9046 792.471 69.6839H789.753ZM784.868 87.3598C781.62 92.3478 776.935 96.2933 770.753 99.1785L771.902 101.641C778.483 98.5694 783.585 94.3091 787.145 88.8425L784.868 87.3598ZM770.762 99.1741C764.6 101.991 757.114 103.427 748.26 103.427V106.145C757.398 106.145 765.29 104.663 771.892 101.645L770.762 99.1741ZM748.26 103.427H700.12V106.145H748.26V103.427ZM701.479 104.786V2.85298H698.761V104.786H701.479ZM700.12 4.2116H727.016V1.49436H700.12V4.2116ZM725.658 2.85298V82.5395H728.375V2.85298H725.658ZM727.016 83.8981H748.26V81.1809H727.016V83.8981ZM748.26 83.8981C753.176 83.8981 757.349 82.649 760.675 80.055L759.004 77.9124C756.251 80.0594 752.704 81.1809 748.26 81.1809V83.8981ZM760.675 80.055C764.023 77.4433 765.78 74.0253 765.847 69.8885L763.131 69.844C763.077 73.1227 761.734 75.783 759.004 77.9124L760.675 80.055ZM765.847 69.8453C765.781 65.4973 764.051 61.8983 760.701 59.1512L758.978 61.2523C761.706 63.4894 763.076 66.3334 763.131 69.8871L765.847 69.8453ZM760.701 59.1512C757.369 56.4189 753.179 55.1322 748.242 55.1963L748.278 57.9133C752.702 57.8558 756.232 59.0004 758.978 61.2523L760.701 59.1512ZM748.26 55.1961H717.717V57.9134H748.26V55.1961ZM719.075 56.5548V34.3082H716.358V56.5548H719.075Z" fill="black" mask="url(#path-1-outside-1_736_10344)"/>
<circle cx="126.429" cy="104.802" r="2.7332" fill="#131313"/>
<circle cx="548.958" cy="104.802" r="2.7332" fill="#131313"/>
<circle cx="273.159" cy="142.843" r="2.7332" fill="#131313"/>
<circle cx="301.011" cy="142.843" r="2.7332" fill="#131313"/>
<circle cx="576.13" cy="104.802" r="2.7332" fill="#131313"/>
<circle cx="656.968" cy="104.802" r="2.7332" fill="#131313"/>
<circle cx="802.341" cy="104.802" r="2.7332" fill="#131313"/>
<circle cx="683.46" cy="104.802" r="2.7332" fill="#131313"/>
<circle cx="830.19" cy="104.802" r="2.7332" fill="#131313"/>
<circle cx="2.79375" cy="104.802" r="2.7332" fill="#131313"/>
<circle cx="159.034" cy="104.802" r="2.7332" fill="#131313"/>
<circle cx="38.118" cy="104.802" r="2.7332" fill="#131313"/>
</svg>
