<svg width="419" height="199" viewBox="0 0 419 199" fill="none" xmlns="http://www.w3.org/2000/svg">
<path d="M12.8636 83.6931C2.0441 96.8285 -2.01213 115.225 3.36401 131.693C10.7958 154.459 38.4288 159.193 62.3633 159.193C67.43 159.193 91.4126 157.231 99.8633 152.193C109.777 144.555 120.363 135.693 123.863 111.193M125.363 92.1931C129.363 63.1931 153.363 33.9092 184.752 13.5809C216.141 -6.74747 217.042 3.66763 230.093 3.66763C240.006 5.61778 246.685 9.71942 253.661 17.4811V17.4811C265.871 31.0654 255.472 51.1391 244.463 65.7134C241.121 70.1373 238.329 73.7273 237.363 74.6934M222.863 103.193C211.325 123.182 214.492 128.152 203.604 141.478C199.777 153.059 199.018 170.008 210.917 182.106C224.542 191.733 226.518 193.482 244.232 197.057C262.921 198.032 264.924 199.904 286.863 195.972C304.09 192.884 321.351 183.833 326.948 178.823C335.476 171.19 346.994 157.194 349.863 144.193C353.994 125.477 350.945 119.52 341.363 99.6934M418.12 28.8058C413.569 6.86666 368.957 1.66204 353.863 6.69319C341.863 10.6932 333.134 15.1931 329.363 24.1931C325.593 33.1931 321.205 47.9731 328.363 68.6931C328.681 69.3179 338.541 92.56 338.863 93.1934" stroke="#131313" stroke-width="0.487537" stroke-linecap="round"/>
<ellipse cx="195.553" cy="7.45622" rx="1.55334" ry="1.45622" fill="#131313"/>
<ellipse cx="235.483" cy="195.294" rx="1.48256" ry="1.29442" fill="#131313"/>
<ellipse cx="345.483" cy="156.294" rx="1.48256" ry="1.29442" fill="#131313"/>
</svg>
