<svg width="1111" height="146" viewBox="0 0 1111 146" fill="none" xmlns="http://www.w3.org/2000/svg">
<mask id="path-1-outside-1_1089_5702" maskUnits="userSpaceOnUse" x="0" y="0" width="1111" height="145" fill="black">
<rect fill="white" width="1111" height="145"/>
<path d="M89.5397 3L98.1043 21.3013C95.2795 23.6453 92.1241 25.3883 88.6382 26.5302C85.2123 27.6121 81.0953 28.3333 76.287 28.6939C71.5389 29.0546 65.7089 29.295 58.7971 29.4152C51.0439 29.4753 44.703 30.7374 39.7746 33.2016C34.9063 35.6058 31.21 39.3622 28.6856 44.4709C26.1613 49.5797 24.4784 56.2511 23.637 64.4851H24.7189C27.6639 58.3547 31.8711 53.6366 37.3404 50.3309C42.8699 46.9652 49.6615 45.2823 57.7153 45.2823C66.31 45.2823 73.8228 47.1755 80.2538 50.962C86.6848 54.6884 91.7034 60.0676 95.3096 67.0996C98.9157 74.1316 100.689 82.546 100.629 92.3428C100.689 102.56 98.7354 111.455 94.7686 119.028C90.8019 126.601 85.1221 132.431 77.7295 136.518C70.397 140.605 61.652 142.679 51.4946 142.739C36.2285 142.679 24.1779 137.871 15.3428 128.314C6.50771 118.698 2.0601 104.754 2 86.4828V78.2787C2.0601 53.9972 6.80822 35.9964 16.2444 24.2764C25.6805 12.5563 39.5943 6.60617 57.9857 6.42586C62.9142 6.36576 67.3918 6.36576 71.4187 6.42586C75.4456 6.42586 78.9616 6.2155 81.9668 5.79478C85.032 5.37406 87.5563 4.44247 89.5397 3ZM51.5848 121.102C55.9122 121.102 59.6085 119.99 62.6738 117.766C65.739 115.482 68.1131 112.267 69.7959 108.12C71.4788 103.973 72.2902 99.0442 72.2301 93.3345C72.2902 87.5646 71.4788 82.6963 69.7959 78.7295C68.1131 74.7026 65.7089 71.6374 62.5836 69.5338C59.5184 67.4302 55.822 66.3784 51.4946 66.3784C48.2491 66.3784 45.3341 66.9794 42.7497 68.1815C40.1653 69.3835 37.9715 71.1566 36.1684 73.5006C34.3653 75.7845 32.983 78.5792 32.0213 81.8849C31.0597 85.1906 30.5488 89.0071 30.4887 93.3345C30.4887 101.869 32.3519 108.631 36.0783 113.619C39.8648 118.608 45.0336 121.102 51.5848 121.102ZM130.289 71.0664H160.491C173.834 71.0063 184.202 74.1617 191.594 80.5326C199.047 86.9035 202.803 95.408 202.863 106.046C202.863 112.958 201.181 119.028 197.815 124.257C194.449 129.426 189.611 133.483 183.3 136.428C176.989 139.313 169.386 140.756 160.491 140.756H112.89V39.9632H139.485V118.758H160.491C165.119 118.758 168.935 117.586 171.941 115.242C174.946 112.898 176.478 109.893 176.538 106.227C176.478 102.32 174.946 99.1344 171.941 96.6702C168.935 94.206 165.119 93.0039 160.491 93.064H130.289V71.0664ZM443.485 142.559C436.633 142.559 429.992 141.417 423.561 139.133C417.13 136.849 411.39 133.153 406.341 128.044C401.293 122.935 397.266 116.174 394.261 107.759C391.316 99.2847 389.843 88.9169 389.843 76.656C389.843 65.3566 391.105 55.2594 393.63 46.3642C396.214 37.4689 399.88 29.926 404.629 23.7355C409.437 17.4848 415.207 12.7367 421.938 9.4911C428.67 6.24555 436.182 4.62278 444.477 4.62278C453.432 4.62278 461.335 6.36576 468.187 9.85172C475.039 13.3377 480.538 18.0557 484.685 24.0059C488.893 29.9561 491.417 36.5975 492.258 43.93H464.401C463.319 39.242 461.005 35.5757 457.459 32.9312C453.913 30.2867 449.585 28.9644 444.477 28.9644C435.702 28.9644 429.03 32.7809 424.462 40.414C419.955 47.9869 417.701 58.2946 417.701 71.3369H418.602C420.646 67.3701 423.351 63.9743 426.716 61.1494C430.142 58.3246 434.049 56.1609 438.436 54.6583C442.824 53.1558 447.452 52.4045 452.32 52.4045C460.314 52.4045 467.406 54.2677 473.596 57.994C479.847 61.7204 484.746 66.8592 488.292 73.4104C491.898 79.9015 493.701 87.3542 493.701 95.7686C493.701 104.844 491.567 112.928 487.3 120.02C483.093 127.052 477.233 132.582 469.72 136.608C462.207 140.575 453.462 142.559 443.485 142.559ZM443.305 120.2C447.692 120.2 451.599 119.179 455.025 117.135C458.451 115.032 461.155 112.177 463.139 108.571C465.182 104.964 466.204 100.937 466.204 96.4899C466.204 92.0423 465.212 88.0454 463.229 84.4994C461.245 80.9533 458.541 78.1585 455.115 76.115C451.749 74.0114 447.872 72.9596 443.485 72.9596C439.158 72.9596 435.251 74.0415 431.765 76.2052C428.279 78.3088 425.514 81.1637 423.471 84.7698C421.487 88.3159 420.496 92.2526 420.496 96.58C420.496 100.907 421.487 104.874 423.471 108.48C425.454 112.087 428.159 114.941 431.585 117.045C435.071 119.149 438.977 120.2 443.305 120.2ZM560.415 142.559C548.995 142.559 539.229 139.854 531.115 134.445C523.061 128.975 516.87 121.132 512.543 110.915C508.276 100.637 506.142 88.2257 506.142 73.6809C506.142 59.1961 508.306 46.8149 512.633 36.5374C516.961 26.1997 523.151 18.2962 531.205 12.8268C539.319 7.35745 549.055 4.62278 560.415 4.62278C571.834 4.62278 581.571 7.35745 589.625 12.8268C597.739 18.2962 603.929 26.1696 608.197 36.4472C612.524 46.7248 614.688 59.136 614.688 73.6809C614.688 88.2257 612.554 100.637 608.287 110.915C604.02 121.132 597.829 128.975 589.715 134.445C581.661 139.854 571.895 142.559 560.415 142.559ZM560.415 119.119C565.884 119.119 570.482 117.376 574.208 113.89C577.995 110.344 580.85 105.175 582.773 98.3831C584.757 91.5915 585.748 83.3574 585.748 73.6809C585.748 63.9442 584.757 55.6801 582.773 48.8885C580.85 42.0969 577.995 36.928 574.208 33.382C570.482 29.7758 565.884 27.9727 560.415 27.9727C552.301 27.9727 546.05 31.9695 541.663 39.9632C537.275 47.8968 535.082 59.136 535.082 73.6809C535.082 83.3574 536.043 91.5915 537.967 98.3831C539.95 105.175 542.835 110.344 546.621 113.89C550.408 117.376 555.006 119.119 560.415 119.119ZM691.77 74.5824V96.7603H630.465V74.5824H691.77ZM868.382 142.559C856.962 142.559 847.195 139.854 839.081 134.445C831.028 128.975 824.837 121.132 820.51 110.915C816.242 100.637 814.109 88.2257 814.109 73.6809C814.109 59.1961 816.272 46.8149 820.6 36.5374C824.927 26.1997 831.118 18.2962 839.172 12.8268C847.286 7.35745 857.022 4.62278 868.382 4.62278C879.801 4.62278 889.538 7.35745 897.592 12.8268C905.705 18.2962 911.896 26.1696 916.163 36.4472C920.491 46.7248 922.654 59.136 922.654 73.6809C922.654 88.2257 920.521 100.637 916.253 110.915C911.986 121.132 905.796 128.975 897.682 134.445C889.628 139.854 879.861 142.559 868.382 142.559ZM868.382 119.119C873.851 119.119 878.449 117.376 882.175 113.89C885.962 110.344 888.817 105.175 890.74 98.3831C892.723 91.5915 893.715 83.3574 893.715 73.6809C893.715 63.9442 892.723 55.6801 890.74 48.8885C888.817 42.0969 885.962 36.928 882.175 33.382C878.449 29.7758 873.851 27.9727 868.382 27.9727C860.268 27.9727 854.017 31.9695 849.63 39.9632C845.242 47.8968 843.048 59.136 843.048 73.6809C843.048 83.3574 844.01 91.5915 845.933 98.3831C847.917 105.175 850.802 110.344 854.588 113.89C858.375 117.376 862.972 119.119 868.382 119.119ZM999.736 74.5824V96.7603H938.431V74.5824H999.736ZM1063.39 142.739C1053.05 142.739 1044.12 140.635 1036.61 136.428C1029.1 132.221 1023.33 126.241 1019.3 118.487C1015.33 110.674 1013.35 101.448 1013.35 90.8102C1013.35 80.4725 1015.33 71.397 1019.3 63.5836C1023.33 55.7702 1028.98 49.6698 1036.25 45.2823C1043.58 40.8948 1052.18 38.701 1062.03 38.701C1068.7 38.701 1074.92 39.7829 1080.69 41.9466C1086.46 44.0502 1091.51 47.2356 1095.84 51.5029C1100.17 55.7101 1103.53 61.0292 1105.94 67.4602C1108.34 73.8311 1109.54 81.3139 1109.54 89.9086V97.4816H1024.44V80.2621H1096.02L1083.04 84.7698C1083.04 79.6611 1082.26 75.2135 1080.69 71.427C1079.13 67.6405 1076.79 64.7256 1073.66 62.6821C1070.6 60.5785 1066.78 59.5267 1062.21 59.5267C1057.65 59.5267 1053.77 60.5785 1050.58 62.6821C1047.46 64.7857 1045.05 67.6405 1043.37 71.2467C1041.69 74.8529 1040.85 79 1040.85 83.688V95.8588C1040.85 101.328 1041.81 106.016 1043.73 109.923C1045.65 113.769 1048.33 116.745 1051.76 118.848C1055.24 120.892 1059.24 121.913 1063.75 121.913C1066.87 121.913 1069.7 121.463 1072.22 120.561C1074.74 119.659 1076.91 118.337 1078.71 116.594C1080.57 114.851 1081.96 112.748 1082.86 110.283L1108.64 111.996C1107.38 118.187 1104.74 123.596 1100.71 128.224C1096.74 132.792 1091.6 136.368 1085.29 138.952C1078.98 141.477 1071.68 142.739 1063.39 142.739Z"/>
</mask>
<path d="M213.682 39.9632V39.2915H213.01V39.9632H213.682ZM241.54 39.9632H242.211V39.2915H241.54V39.9632ZM252.719 61.9608H252.047V62.6325H252.719V61.9608ZM252.719 39.9632V39.2915H252.047V39.9632H252.719ZM343.865 39.9632H344.536V39.2915H343.865V39.9632ZM343.865 61.9608V62.6325H344.536V61.9608H343.865ZM311.499 61.9608V61.2891H310.828V61.9608H311.499ZM284.904 61.9608H285.575V61.2891H284.904V61.9608ZM705.383 120.381L704.926 119.888L704.711 120.088V120.381H705.383ZM753.165 76.0249L753.622 76.5172L753.629 76.5104L753.165 76.0249ZM763.442 65.4768L763.945 65.9219L763.949 65.9171L763.442 65.4768ZM769.753 56.191L770.359 56.4816L770.361 56.477L769.753 56.191ZM740.633 29.6856L740.947 30.2793L740.956 30.2744L740.633 29.6856ZM733.511 36.8078L732.919 36.4894L732.917 36.4935L733.511 36.8078ZM731.077 47.8968V48.5685H731.748V47.8968H731.077ZM704.031 47.8968H703.359V48.5685H704.031V47.8968ZM709.981 24.9976L709.41 24.6435L709.409 24.645L709.981 24.9976ZM726.749 9.94187L726.453 9.33908L726.451 9.34007L726.749 9.94187ZM776.695 9.76156L776.405 10.3674L776.409 10.3693L776.695 9.76156ZM793.373 23.8256L792.813 24.1956L792.814 24.1982L793.373 23.8256ZM796.348 59.4365L796.97 59.6899L796.971 59.6873L796.348 59.4365ZM785.8 75.8446L786.315 76.2766L786.317 76.2741L785.8 75.8446ZM764.344 97.3914L763.894 96.8928L763.884 96.9017L763.874 96.911L764.344 97.3914ZM744.69 116.594L744.221 116.114L744.018 116.311V116.594H744.69ZM744.69 117.586H744.018V118.258H744.69V117.586ZM801.127 117.586H801.798V116.914H801.127V117.586ZM213.682 40.6349H241.54V39.2915H213.682V40.6349ZM240.868 39.9632V140.756H242.211V39.9632H240.868ZM253.39 61.9608V39.9632H252.047V61.9608H253.39ZM252.719 40.6349H343.865V39.2915H252.719V40.6349ZM343.193 39.9632V61.9608H344.536V39.9632H343.193ZM343.865 61.2891H311.499V62.6325H343.865V61.2891ZM310.828 61.9608V140.756H312.171V61.9608H310.828ZM284.904 61.2891H252.719V62.6325H284.904V61.2891ZM705.84 120.873L753.622 76.5172L752.708 75.5326L704.926 119.888L705.84 120.873ZM753.629 76.5104C757.725 72.595 761.165 69.0652 763.945 65.9219L762.939 65.0318C760.19 68.1392 756.778 71.6414 752.7 75.5393L753.629 76.5104ZM763.949 65.9171C766.744 62.6978 768.884 59.5529 770.358 56.4816L769.147 55.9003C767.737 58.8393 765.67 61.885 762.935 65.0366L763.949 65.9171ZM770.361 56.477C771.847 53.3181 772.588 49.9142 772.588 46.274H771.245C771.245 49.7259 770.544 52.9334 769.145 55.9049L770.361 56.477ZM772.588 46.274C772.588 42.203 771.662 38.6764 769.778 35.7252L768.646 36.448C770.368 39.1464 771.245 42.4114 771.245 46.274H772.588ZM769.778 35.7252C767.909 32.7967 765.383 30.5224 762.215 28.9069L761.604 30.1038C764.566 31.6136 766.909 33.7268 768.646 36.448L769.778 35.7252ZM762.215 28.9069C759.041 27.2892 755.418 26.4896 751.361 26.4896V27.833C755.238 27.833 758.647 28.5961 761.604 30.1038L762.215 28.9069ZM751.361 26.4896C747.181 26.4896 743.49 27.351 740.31 29.0968L740.956 30.2744C743.907 28.6545 747.368 27.833 751.361 27.833V26.4896ZM740.319 29.092C737.133 30.7786 734.664 33.2498 732.919 36.4894L734.102 37.1263C735.724 34.1152 738.003 31.8383 740.947 30.2793L740.319 29.092ZM732.917 36.4935C731.232 39.6767 730.405 43.4865 730.405 47.8968H731.748C731.748 43.6523 732.544 40.0694 734.105 37.1221L732.917 36.4935ZM731.077 47.2251H704.031V48.5685H731.077V47.2251ZM704.702 47.8968C704.702 39.1648 706.661 31.6584 710.552 25.3503L709.409 24.645C705.366 31.1988 703.359 38.9585 703.359 47.8968H704.702ZM710.552 25.3517C714.509 18.9719 720.002 14.0368 727.048 10.5437L726.451 9.34007C719.192 12.9391 713.506 18.0412 709.41 24.6435L710.552 25.3517ZM727.046 10.5447C734.152 7.05091 742.342 5.29448 751.632 5.29448V3.95107C742.17 3.95107 733.772 5.7407 726.453 9.33908L727.046 10.5447ZM751.632 5.29448C761.108 5.29448 769.36 6.99288 776.405 10.3674L776.985 9.15577C769.726 5.67853 761.268 3.95107 751.632 3.95107V5.29448ZM776.409 10.3693C783.461 13.6879 788.92 18.2982 792.813 24.1956L793.934 23.4556C789.893 17.3324 784.233 12.5668 776.981 9.15379L776.409 10.3693ZM792.814 24.1982C796.701 30.0278 798.652 36.7774 798.652 44.4709H799.995C799.995 36.5378 797.979 29.5237 793.932 23.453L792.814 24.1982ZM798.652 44.4709C798.652 49.4292 797.678 54.3328 795.725 59.1857L796.971 59.6873C798.985 54.6834 799.995 49.6099 799.995 44.4709H798.652ZM795.726 59.1831C793.778 63.9642 790.308 69.3738 785.284 75.4151L786.317 76.2741C791.39 70.1745 794.952 64.6454 796.97 59.6899L795.726 59.1831ZM785.286 75.4125C780.265 81.3896 773.138 88.5487 763.894 96.8928L764.794 97.8901C774.061 89.5256 781.238 82.3201 786.315 76.2766L785.286 75.4125ZM763.874 96.911L744.221 116.114L745.159 117.075L764.813 97.8719L763.874 96.911ZM744.018 116.594V117.586H745.362V116.594H744.018ZM744.69 118.258H801.127V116.914H744.69V118.258ZM800.455 117.586V140.756H801.798V117.586H800.455ZM284.232 61.9608V142.559H285.575V61.9608H284.232ZM704.711 120.381V140.756H706.055V120.381H704.711ZM213.01 39.9632V140.756H214.354V39.9632H213.01ZM89.5397 3L90.7565 2.43058L90.0663 0.955871L88.7495 1.91353L89.5397 3ZM98.1043 21.3013L98.9622 22.3351L99.7612 21.6722L99.3211 20.7319L98.1043 21.3013ZM88.6382 26.5302L89.0427 27.8113L89.0496 27.8091L89.0564 27.8069L88.6382 26.5302ZM76.287 28.6939L76.1866 27.3543L76.1853 27.3544L76.287 28.6939ZM58.7971 29.4152L58.8075 30.7586L58.8205 30.7584L58.7971 29.4152ZM39.7746 33.2016L40.3694 34.4062L40.3754 34.4032L39.7746 33.2016ZM23.637 64.4851L22.3005 64.3486L22.1493 65.8286H23.637V64.4851ZM24.7189 64.4851V65.8286H25.5639L25.9298 65.0669L24.7189 64.4851ZM37.3404 50.3309L38.0353 51.4807L38.0389 51.4785L37.3404 50.3309ZM80.2538 50.962L79.5722 52.1197L79.5803 52.1244L80.2538 50.962ZM100.629 92.3428L99.2853 92.3345L99.2852 92.3426L99.2853 92.3507L100.629 92.3428ZM77.7295 136.518L77.0795 135.343L77.0755 135.345L77.7295 136.518ZM51.4946 142.739L51.4893 144.082L51.5026 144.082L51.4946 142.739ZM15.3428 128.314L14.3535 129.223L14.3564 129.226L15.3428 128.314ZM2 86.4828H0.656581L0.656595 86.4872L2 86.4828ZM2 78.2787L0.656588 78.2754V78.2787H2ZM57.9857 6.42586L57.9989 7.76921L58.0021 7.76917L57.9857 6.42586ZM71.4187 6.42586L71.3987 7.76912L71.4087 7.76927H71.4187V6.42586ZM81.9668 5.79478L81.7841 4.46384L81.7805 4.46434L81.9668 5.79478ZM62.6738 117.766L63.4626 118.854L63.4696 118.849L63.4764 118.844L62.6738 117.766ZM72.2301 93.3345L70.8868 93.3205L70.8866 93.3346L70.8868 93.3486L72.2301 93.3345ZM69.7959 78.7295L68.5564 79.2475L68.5592 79.2542L69.7959 78.7295ZM62.5836 69.5338L61.8234 70.6415L61.8335 70.6483L62.5836 69.5338ZM36.1684 73.5006L37.2229 74.333L37.2281 74.3264L37.2332 74.3197L36.1684 73.5006ZM30.4887 93.3345L29.1454 93.3158L29.1453 93.3251V93.3345H30.4887ZM36.0783 113.619L35.002 114.423L35.0082 114.431L36.0783 113.619ZM130.289 71.0664V69.723H128.946V71.0664H130.289ZM160.491 71.0664V72.4098L160.497 72.4098L160.491 71.0664ZM191.594 80.5326L190.717 81.5502L190.721 81.5537L191.594 80.5326ZM202.863 106.046H204.207L204.207 106.039L202.863 106.046ZM197.815 124.257L198.941 124.99L198.944 124.984L197.815 124.257ZM183.3 136.428L183.859 137.65L183.868 137.646L183.3 136.428ZM112.89 140.756H111.546V142.099H112.89V140.756ZM112.89 39.9632V38.6198H111.546V39.9632H112.89ZM139.485 39.9632H140.829V38.6198H139.485V39.9632ZM139.485 118.758H138.142V120.101H139.485V118.758ZM176.538 106.227L177.882 106.249L177.882 106.227L177.882 106.206L176.538 106.227ZM160.491 93.064V94.4074H160.5L160.508 94.4073L160.491 93.064ZM130.289 93.064H128.946V94.4074H130.289V93.064ZM394.261 107.759L392.992 108.2L392.996 108.211L394.261 107.759ZM393.63 46.3642L392.34 45.9893L392.337 45.9974L393.63 46.3642ZM404.629 23.7355L403.564 22.9164L403.563 22.9179L404.629 23.7355ZM484.685 24.0059L483.583 24.7741L483.589 24.7815L484.685 24.0059ZM492.258 43.93V45.2734H493.765L493.593 43.7768L492.258 43.93ZM464.401 43.93L463.092 44.2321L463.332 45.2734H464.401V43.93ZM424.462 40.414L423.31 39.7241L423.308 39.7268L424.462 40.414ZM417.701 71.3369H416.357V72.6803H417.701V71.3369ZM418.602 71.3369V72.6803H419.422L419.797 71.9521L418.602 71.3369ZM426.716 61.1494L425.862 60.1129L425.853 60.1204L426.716 61.1494ZM473.596 57.994L472.904 59.145L472.909 59.148L473.596 57.994ZM488.292 73.4104L487.11 74.0499L487.114 74.0564L487.117 74.0628L488.292 73.4104ZM487.3 120.02L486.149 119.327L486.147 119.33L487.3 120.02ZM469.72 136.608L470.347 137.796L470.354 137.793L469.72 136.608ZM455.025 117.135L455.713 118.289L455.72 118.285L455.728 118.28L455.025 117.135ZM463.139 108.571L461.97 107.908L461.966 107.916L461.961 107.923L463.139 108.571ZM455.115 76.115L454.403 77.2542L454.415 77.2616L454.427 77.2688L455.115 76.115ZM431.765 76.2052L432.459 77.3554L432.466 77.351L432.473 77.3466L431.765 76.2052ZM423.471 84.7698L422.302 84.1075L422.298 84.114L423.471 84.7698ZM431.585 117.045L430.882 118.19L430.891 118.195L431.585 117.045ZM531.115 134.445L530.36 135.556L530.37 135.563L531.115 134.445ZM512.543 110.915L511.302 111.43L511.306 111.438L512.543 110.915ZM512.633 36.5374L513.871 37.0587L513.872 37.0561L512.633 36.5374ZM531.205 12.8268L530.454 11.7128L530.45 11.7154L531.205 12.8268ZM589.625 12.8268L588.87 13.9382L588.874 13.9408L589.625 12.8268ZM608.197 36.4472L606.956 36.9624L606.958 36.9685L608.197 36.4472ZM608.287 110.915L609.526 111.432L609.528 111.43L608.287 110.915ZM589.715 134.445L590.464 135.56L590.466 135.559L589.715 134.445ZM574.208 113.89L575.126 114.871L575.127 114.87L574.208 113.89ZM582.773 98.3831L581.484 98.0065L581.481 98.0171L582.773 98.3831ZM582.773 48.8885L581.481 49.2545L581.484 49.2651L582.773 48.8885ZM574.208 33.382L573.274 34.3473L573.282 34.355L573.29 34.3625L574.208 33.382ZM541.663 39.9632L542.838 40.6134L542.841 40.6096L541.663 39.9632ZM537.967 98.3831L536.674 98.7492L536.677 98.7597L537.967 98.3831ZM546.621 113.89L545.703 114.87L545.711 114.878L546.621 113.89ZM691.77 74.5824H693.113V73.239H691.77V74.5824ZM691.77 96.7603V98.1038H693.113V96.7603H691.77ZM630.465 96.7603H629.121V98.1038H630.465V96.7603ZM630.465 74.5824V73.239H629.121V74.5824H630.465ZM839.081 134.445L838.327 135.556L838.336 135.563L839.081 134.445ZM820.51 110.915L819.269 111.43L819.273 111.438L820.51 110.915ZM820.6 36.5374L821.838 37.0587L821.839 37.0561L820.6 36.5374ZM839.172 12.8268L838.421 11.7128L838.417 11.7154L839.172 12.8268ZM897.592 12.8268L896.837 13.9382L896.841 13.9408L897.592 12.8268ZM916.163 36.4472L914.923 36.9624L914.925 36.9685L916.163 36.4472ZM916.253 110.915L917.493 111.432L917.494 111.43L916.253 110.915ZM897.682 134.445L898.431 135.56L898.433 135.559L897.682 134.445ZM882.175 113.89L883.093 114.871L883.093 114.87L882.175 113.89ZM890.74 98.3831L889.45 98.0065L889.447 98.0171L890.74 98.3831ZM890.74 48.8885L889.447 49.2545L889.45 49.2651L890.74 48.8885ZM882.175 33.382L881.241 34.3473L881.249 34.355L881.257 34.3625L882.175 33.382ZM849.63 39.9632L850.805 40.6134L850.807 40.6096L849.63 39.9632ZM845.933 98.3831L844.641 98.7492L844.644 98.7597L845.933 98.3831ZM854.588 113.89L853.67 114.87L853.678 114.878L854.588 113.89ZM999.736 74.5824H1001.08V73.239H999.736V74.5824ZM999.736 96.7603V98.1038H1001.08V96.7603H999.736ZM938.431 96.7603H937.088V98.1038H938.431V96.7603ZM938.431 74.5824V73.239H937.088V74.5824H938.431ZM1019.3 118.487L1018.1 119.096L1018.11 119.107L1019.3 118.487ZM1019.3 63.5836L1018.11 62.9681L1018.1 62.9755L1019.3 63.5836ZM1036.25 45.2823L1035.56 44.1295L1035.55 44.132L1036.25 45.2823ZM1080.69 41.9466L1080.22 43.2045L1080.23 43.2087L1080.69 41.9466ZM1095.84 51.5029L1094.9 52.4595L1094.9 52.4662L1095.84 51.5029ZM1105.94 67.4602L1104.68 67.9306L1104.68 67.9345L1105.94 67.4602ZM1109.54 97.4816V98.825H1110.89V97.4816H1109.54ZM1024.44 97.4816H1023.1V98.825H1024.44V97.4816ZM1024.44 80.2621V78.9187H1023.1V80.2621H1024.44ZM1096.02 80.2621L1096.46 81.5312L1096.02 78.9187V80.2621ZM1083.04 84.7698H1081.7V86.6584L1083.48 86.0389L1083.04 84.7698ZM1073.66 62.6821L1072.9 63.7897L1072.91 63.7982L1072.93 63.8065L1073.66 62.6821ZM1050.58 62.6821L1049.84 61.561L1049.83 61.5676L1050.58 62.6821ZM1043.73 109.923L1042.53 110.516L1042.53 110.524L1043.73 109.923ZM1051.76 118.848L1051.05 119.993L1051.06 120L1051.08 120.007L1051.76 118.848ZM1078.71 116.594L1077.79 115.613L1077.79 115.621L1077.78 115.628L1078.71 116.594ZM1082.86 110.283L1082.95 108.943L1081.94 108.876L1081.6 109.822L1082.86 110.283ZM1108.64 111.996L1109.96 112.265L1110.27 110.758L1108.73 110.656L1108.64 111.996ZM1100.71 128.224L1099.7 127.342L1099.69 127.343L1100.71 128.224ZM1085.29 138.952L1085.79 140.2L1085.8 140.196L1085.29 138.952ZM88.3229 3.56942L96.8876 21.8707L99.3211 20.7319L90.7565 2.43058L88.3229 3.56942ZM97.2465 20.2675C94.5515 22.5037 91.5453 24.1642 88.2199 25.2536L89.0564 27.8069C92.703 26.6123 96.0075 24.7869 98.9622 22.3351L97.2465 20.2675ZM88.2336 25.2492C84.9335 26.2913 80.9242 26.999 76.1866 27.3543L76.3875 30.0336C81.2663 29.6677 85.4911 28.9329 89.0427 27.8113L88.2336 25.2492ZM76.1853 27.3544C71.472 27.7124 65.67 27.952 58.7738 28.072L58.8205 30.7584C65.7479 30.6379 71.6058 30.3968 76.3888 30.0335L76.1853 27.3544ZM58.7867 28.0718C50.9066 28.1329 44.3447 29.4146 39.1738 32.0001L40.3754 34.4032C45.0614 32.0602 51.1811 30.8177 58.8075 30.7585L58.7867 28.0718ZM39.1798 31.9971C34.0331 34.5387 30.1293 38.5165 27.4812 43.8758L29.89 45.066C32.2906 40.2078 35.7794 36.6729 40.3694 34.4062L39.1798 31.9971ZM27.4812 43.8758C24.8615 49.1776 23.1516 56.0208 22.3005 64.3486L24.9735 64.6217C25.8053 56.4813 27.4611 49.9817 29.89 45.066L27.4812 43.8758ZM23.637 65.8286H24.7189V63.1417H23.637V65.8286ZM25.9298 65.0669C28.7693 59.156 32.8042 54.6424 38.0353 51.4807L36.6455 49.1812C30.938 52.6308 26.5585 57.5533 23.5079 63.9034L25.9298 65.0669ZM38.0389 51.4785C43.3121 48.2687 49.8481 46.6257 57.7153 46.6257V43.9389C49.4749 43.9389 42.4277 45.6616 36.6419 49.1834L38.0389 51.4785ZM57.7153 46.6257C66.1072 46.6257 73.3774 48.4723 79.5722 52.1197L80.9354 49.8044C74.2682 45.8788 66.5128 43.9389 57.7153 43.9389V46.6257ZM79.5803 52.1244C85.7739 55.7132 90.6179 60.8948 94.1142 67.7126L96.505 66.4866C92.7889 59.2404 87.5957 53.6636 80.9273 49.7996L79.5803 52.1244ZM94.1142 67.7126C97.6009 74.5118 99.3444 82.7029 99.2853 92.3345L101.972 92.351C102.033 82.3892 100.231 73.7515 96.505 66.4866L94.1142 67.7126ZM99.2853 92.3507C99.3443 102.391 97.4253 111.061 93.5786 118.405L95.9587 119.652C100.046 111.85 102.033 102.729 101.972 92.3349L99.2853 92.3507ZM93.5786 118.405C89.7323 125.748 84.239 131.385 77.0795 135.343L78.3795 137.694C86.0053 133.478 91.8714 127.455 95.9587 119.652L93.5786 118.405ZM77.0755 135.345C69.9781 139.301 61.4651 141.337 51.4867 141.396L51.5026 144.082C61.839 144.021 70.8159 141.91 78.3836 137.692L77.0755 135.345ZM51.4999 141.396C36.5363 141.337 24.8673 136.637 16.3292 127.402L14.3564 129.226C23.4886 139.104 35.9208 144.021 51.4894 144.082L51.4999 141.396ZM16.3321 127.405C7.80042 118.119 3.40285 104.548 3.3434 86.4783L0.656595 86.4872C0.71736 104.96 5.21499 119.276 14.3535 129.223L16.3321 127.405ZM3.34341 86.4828V78.2787H0.656588V86.4828H3.34341ZM3.34341 78.2821C3.40319 54.1316 8.13249 36.4938 17.2908 25.1189L15.198 23.4339C5.48396 35.4991 0.717019 53.8628 0.656592 78.2754L3.34341 78.2821ZM17.2908 25.1189C26.419 13.7812 39.9112 7.94654 57.9989 7.76921L57.9726 5.08251C39.2774 5.2658 24.942 11.3314 15.198 23.4339L17.2908 25.1189ZM58.0021 7.76917C62.921 7.70918 67.3862 7.70923 71.3987 7.76912L71.4388 5.0826C67.3974 5.02228 62.9074 5.02233 57.9694 5.08255L58.0021 7.76917ZM71.4187 7.76927C75.4891 7.76927 79.07 7.55684 82.153 7.12522L81.7805 4.46434C78.8532 4.87416 75.4021 5.08245 71.4187 5.08245V7.76927ZM82.1494 7.12571C85.378 6.68258 88.1264 5.68902 90.3299 4.08647L88.7495 1.91353C86.9863 3.19592 84.686 4.06554 81.7841 4.46385L82.1494 7.12571ZM51.5848 122.445C56.1535 122.445 60.1362 121.267 63.4626 118.854L61.8849 116.679C59.0808 118.713 55.6709 119.759 51.5848 119.759V122.445ZM63.4764 118.844C66.7701 116.389 69.2815 112.96 71.0408 108.625L68.5511 107.615C66.9446 111.574 64.7079 114.575 61.8711 116.689L63.4764 118.844ZM71.0408 108.625C72.8062 104.274 73.6349 99.1609 73.5734 93.3203L70.8868 93.3486C70.9455 98.9276 70.1514 103.671 68.5511 107.615L71.0408 108.625ZM73.5734 93.3485C73.6348 87.453 72.8078 82.3892 71.0327 78.2048L68.5592 79.2542C70.1498 83.0034 70.9456 87.6762 70.8868 93.3205L73.5734 93.3485ZM71.0355 78.2115C69.2677 73.9816 66.7099 70.6917 63.3337 68.4193L61.8335 70.6483C64.708 72.583 66.9584 75.4237 68.5564 79.2475L71.0355 78.2115ZM63.3438 68.4261C60.0198 66.145 56.0477 65.035 51.4946 65.035V67.7218C55.5964 67.7218 59.0169 68.7154 61.8234 70.6414L63.3438 68.4261ZM51.4946 65.035C48.0805 65.035 44.9681 65.668 42.1831 66.9634L43.3162 69.3996C45.7001 68.2908 48.4177 67.7218 51.4946 67.7218V65.035ZM42.1831 66.9634C39.3955 68.2599 37.0332 70.173 35.1036 72.6815L37.2332 74.3197C38.9098 72.1401 40.935 70.5071 43.3162 69.3996L42.1831 66.9634ZM35.114 72.6681C33.186 75.1103 31.7327 78.0677 30.7314 81.5097L33.3113 82.2602C34.2333 79.0908 35.5447 76.4587 37.2229 74.333L35.114 72.6681ZM30.7314 81.5097C29.7287 84.9565 29.2068 88.8972 29.1454 93.3158L31.832 93.3531C31.8908 89.117 32.3907 85.4246 33.3113 82.2602L30.7314 81.5097ZM29.1453 93.3345C29.1453 102.053 31.0482 109.13 35.002 114.423L37.1546 112.815C33.6556 108.131 31.8321 101.685 31.8321 93.3345H29.1453ZM35.0082 114.431C39.062 119.772 44.6361 122.445 51.5848 122.445V119.759C45.4311 119.759 40.6675 117.443 37.1483 112.807L35.0082 114.431ZM130.289 72.4098H160.491V69.723H130.289V72.4098ZM160.497 72.4098C173.635 72.3506 183.647 75.4576 190.717 81.5502L192.471 79.5149C184.756 72.8658 174.032 69.662 160.485 69.723L160.497 72.4098ZM190.721 81.5537C197.85 87.6477 201.462 95.7683 201.52 106.054L204.207 106.039C204.145 95.0478 200.244 86.1592 192.467 79.5114L190.721 81.5537ZM201.52 106.046C201.52 112.73 199.896 118.542 196.685 123.53L198.944 124.984C202.465 119.515 204.207 113.186 204.207 106.046H201.52ZM196.689 123.524C193.477 128.457 188.845 132.358 182.732 135.211L183.868 137.646C190.376 134.608 195.421 130.396 198.941 124.99L196.689 123.524ZM182.742 135.206C176.648 137.992 169.246 139.412 160.491 139.412V142.099C169.527 142.099 177.33 140.634 183.859 137.65L182.742 135.206ZM160.491 139.412H112.89V142.099H160.491V139.412ZM114.233 140.756V39.9632H111.546V140.756H114.233ZM112.89 41.3066H139.485V38.6198H112.89V41.3066ZM138.142 39.9632V118.758H140.829V39.9632H138.142ZM139.485 120.101H160.491V117.415H139.485V120.101ZM160.491 120.101C165.352 120.101 169.478 118.866 172.767 116.301L171.114 114.183C168.393 116.306 164.886 117.415 160.491 117.415V120.101ZM172.767 116.301C176.078 113.719 177.815 110.339 177.882 106.249L175.195 106.205C175.142 109.446 173.814 112.077 171.114 114.183L172.767 116.301ZM177.882 106.206C177.816 101.906 176.105 98.3477 172.792 95.6314L171.089 97.709C173.786 99.9211 175.141 102.733 175.195 106.247L177.882 106.206ZM172.792 95.6314C169.498 92.9296 165.355 91.6573 160.474 91.7207L160.508 94.4073C164.883 94.3505 168.373 95.4823 171.089 97.709L172.792 95.6314ZM160.491 91.7206H130.289V94.4074H160.491V91.7206ZM131.633 93.064V71.0664H128.946V93.064H131.633ZM443.485 141.215C436.786 141.215 430.297 140.099 424.01 137.867L423.111 140.399C429.687 142.734 436.481 143.902 443.485 143.902V141.215ZM424.01 137.867C417.78 135.654 412.211 132.072 407.297 127.1L405.386 128.988C410.569 134.233 416.48 138.044 423.111 140.399L424.01 137.867ZM407.297 127.1C402.416 122.16 398.481 115.581 395.526 107.307L392.996 108.211C396.051 116.766 400.17 123.71 405.386 128.988L407.297 127.1ZM395.53 107.318C392.648 99.0269 391.187 88.818 391.187 76.656H388.5C388.5 89.0159 389.983 99.5425 392.992 108.2L395.53 107.318ZM391.187 76.656C391.187 65.4543 392.438 55.4838 394.922 46.7309L392.337 45.9974C389.773 55.0349 388.5 65.259 388.5 76.656H391.187ZM394.92 46.739C397.466 37.9746 401.065 30.589 405.694 24.553L403.563 22.9179C398.696 29.2631 394.962 36.9633 392.34 45.9893L394.92 46.739ZM405.693 24.5546C410.381 18.4605 415.989 13.8507 422.522 10.7012L421.355 8.281C414.424 11.6226 408.492 16.509 403.564 22.9164L405.693 24.5546ZM422.522 10.7012C429.052 7.55264 436.362 5.96619 444.477 5.96619V3.27936C436.003 3.27936 428.287 4.93846 421.355 8.281L422.522 10.7012ZM444.477 5.96619C453.255 5.96619 460.944 7.67379 467.578 11.0491L468.796 8.65436C461.727 5.05772 453.609 3.27936 444.477 3.27936V5.96619ZM467.578 11.0491C474.245 14.4409 479.57 19.0163 483.583 24.7741L485.788 23.2378C481.506 17.0952 475.833 12.2344 468.796 8.65436L467.578 11.0491ZM483.589 24.7815C487.664 30.545 490.108 36.9718 490.924 44.0831L493.593 43.7768C492.726 36.2231 490.122 29.3672 485.782 23.2303L483.589 24.7815ZM492.258 42.5866H464.401V45.2734H492.258V42.5866ZM465.71 43.6279C464.563 38.6591 462.086 34.7062 458.262 31.8543L456.656 34.0081C459.924 36.4452 462.075 39.8249 463.092 44.2321L465.71 43.6279ZM458.262 31.8543C454.449 29.0108 449.828 27.621 444.477 27.621V30.3078C449.343 30.3078 453.376 31.5625 456.656 34.0081L458.262 31.8543ZM444.477 27.621C435.221 27.621 428.116 31.6925 423.31 39.7241L425.615 41.1038C429.945 33.8693 436.182 30.3078 444.477 30.3078V27.621ZM423.308 39.7268C418.631 47.5843 416.357 58.161 416.357 71.3369H419.044C419.044 58.4281 421.278 48.3896 425.617 41.1011L423.308 39.7268ZM417.701 72.6803H418.602V69.9934H417.701V72.6803ZM419.797 71.9521C421.76 68.1413 424.353 64.8869 427.58 62.1785L425.853 60.1204C422.348 63.0617 419.532 66.5989 417.408 70.7216L419.797 71.9521ZM427.571 62.1859C430.867 59.4684 434.63 57.3819 438.872 55.9293L438.001 53.3874C433.468 54.9399 429.418 57.1809 425.862 60.1129L427.571 62.1859ZM438.872 55.9293C443.112 54.477 447.592 53.7479 452.32 53.7479V51.0611C447.311 51.0611 442.536 51.8345 438.001 53.3874L438.872 55.9293ZM452.32 53.7479C460.096 53.7479 466.944 55.5577 472.904 59.145L474.289 56.8431C467.868 52.9777 460.531 51.0611 452.32 51.0611V53.7479ZM472.909 59.148C478.946 62.7474 483.676 67.7062 487.11 74.0499L489.473 72.7709C485.815 66.0122 480.748 60.6934 474.284 56.8401L472.909 59.148ZM487.117 74.0628C490.598 80.329 492.357 87.5517 492.357 95.7686H495.044C495.044 87.1568 493.197 79.474 489.466 72.758L487.117 74.0628ZM492.357 95.7686C492.357 104.624 490.278 112.464 486.149 119.327L488.451 120.713C492.856 113.392 495.044 105.064 495.044 95.7686H492.357ZM486.147 119.33C482.07 126.145 476.393 131.508 469.085 135.424L470.354 137.793C478.073 133.656 484.116 127.959 488.453 120.71L486.147 119.33ZM469.093 135.42C461.804 139.269 453.282 141.215 443.485 141.215V143.902C453.643 143.902 462.61 141.882 470.347 137.796L469.093 135.42ZM443.305 121.544C447.91 121.544 452.059 120.469 455.713 118.289L454.336 115.981C451.139 117.889 447.475 118.857 443.305 118.857V121.544ZM455.728 118.28C459.357 116.052 462.223 113.023 464.316 109.218L461.961 107.923C460.088 111.33 457.544 114.012 454.322 115.99L455.728 118.28ZM464.307 109.233C466.474 105.41 467.547 101.152 467.547 96.4899H464.86C464.86 100.723 463.891 104.519 461.97 107.908L464.307 109.233ZM467.547 96.4899C467.547 91.8349 466.507 87.6086 464.401 83.8436L462.056 85.1552C463.917 88.4822 464.86 92.2496 464.86 96.4899H467.547ZM464.401 83.8436C462.305 80.096 459.435 77.1278 455.803 74.9613L454.427 77.2688C457.646 79.1893 460.186 81.8107 462.056 85.1552L464.401 83.8436ZM455.827 74.9758C452.225 72.725 448.097 71.6162 443.485 71.6162V74.3031C447.648 74.3031 451.273 75.2979 454.403 77.2542L455.827 74.9758ZM443.485 71.6162C438.922 71.6162 434.767 72.7607 431.056 75.0638L432.473 77.3466C435.735 75.3223 439.394 74.3031 443.485 74.3031V71.6162ZM431.071 75.055C427.384 77.28 424.457 80.3045 422.302 84.1075L424.64 85.4322C426.571 82.0229 429.174 79.3376 432.459 77.3554L431.071 75.055ZM422.298 84.114C420.195 87.8736 419.152 92.0385 419.152 96.58H421.839C421.839 92.4668 422.779 88.7582 424.643 85.4256L422.298 84.114ZM419.152 96.58C419.152 101.122 420.195 105.313 422.294 109.128L424.648 107.833C422.779 104.435 421.839 100.693 421.839 96.58H419.152ZM422.294 109.128C424.386 112.933 427.252 115.961 430.882 118.19L432.288 115.9C429.065 113.921 426.522 111.24 424.648 107.833L422.294 109.128ZM430.891 118.195C434.599 120.433 438.749 121.544 443.305 121.544V118.857C439.206 118.857 435.542 117.864 432.279 115.895L430.891 118.195ZM560.415 141.215C549.214 141.215 539.718 138.565 531.86 133.327L530.37 135.563C538.74 141.143 548.777 143.902 560.415 143.902V141.215ZM531.87 133.333C524.059 128.029 518.021 120.404 513.78 110.391L511.306 111.438C515.72 121.86 522.064 129.922 530.36 135.556L531.87 133.333ZM513.784 110.399C509.602 100.327 507.486 88.1006 507.486 73.6809H504.799C504.799 88.3509 506.95 100.947 511.302 111.43L513.784 110.399ZM507.486 73.6809C507.486 59.3241 509.631 47.1299 513.871 37.0587L511.395 36.016C506.981 46.5 504.799 59.0681 504.799 73.6809H507.486ZM513.872 37.0561C518.115 26.9215 524.153 19.24 531.96 13.9382L530.45 11.7154C522.15 17.3523 515.806 25.4778 511.394 36.0186L513.872 37.0561ZM531.956 13.9408C539.814 8.64389 549.279 5.96619 560.415 5.96619V3.27936C548.832 3.27936 538.824 6.07101 530.454 11.7128L531.956 13.9408ZM560.415 5.96619C571.613 5.96619 581.075 8.64476 588.87 13.9382L590.38 11.7154C582.067 6.07014 572.056 3.27936 560.415 3.27936V5.96619ZM588.874 13.9408C596.74 19.2433 602.775 26.8937 606.956 36.9623L609.437 35.932C605.083 25.4456 598.737 17.349 590.376 11.7128L588.874 13.9408ZM606.958 36.9685C611.199 47.0391 613.344 59.2631 613.344 73.6809H616.031C616.031 59.0089 613.849 46.4104 609.435 35.9259L606.958 36.9685ZM613.344 73.6809C613.344 88.1006 611.228 100.327 607.046 110.399L609.528 111.43C613.88 100.947 616.031 88.3509 616.031 73.6809H613.344ZM607.047 110.397C602.867 120.405 596.833 128.027 588.964 133.331L590.466 135.559C598.825 129.924 605.172 121.859 609.526 111.432L607.047 110.397ZM588.966 133.33C581.172 138.564 571.678 141.215 560.415 141.215V143.902C572.111 143.902 582.151 141.144 590.464 135.56L588.966 133.33ZM560.415 120.462C566.198 120.462 571.132 118.607 575.126 114.871L573.291 112.909C569.832 116.144 565.57 117.775 560.415 117.775V120.462ZM575.127 114.87C579.145 111.107 582.099 105.694 584.066 98.7492L581.481 98.0171C579.601 104.655 576.845 109.58 573.29 112.909L575.127 114.87ZM584.063 98.7597C586.092 91.8102 587.092 83.4416 587.092 73.6809H584.405C584.405 83.2733 583.421 91.3728 581.484 98.0065L584.063 98.7597ZM587.092 73.6809C587.092 63.861 586.092 55.462 584.063 48.5119L581.484 49.2651C583.421 55.8981 584.405 64.0275 584.405 73.6809H587.092ZM584.066 48.5224C582.099 41.5774 579.145 36.1643 575.127 32.4014L573.29 34.3625C576.845 37.6918 579.601 42.6163 581.481 49.2545L584.066 48.5224ZM575.143 32.4166C571.151 28.5536 566.212 26.6293 560.415 26.6293V29.3161C565.557 29.3161 569.813 30.9979 573.274 34.3473L575.143 32.4166ZM560.415 26.6293C551.741 26.6293 545.073 30.9581 540.485 39.3168L542.841 40.6096C547.028 32.981 552.861 29.3161 560.415 29.3161V26.6293ZM540.487 39.3131C535.942 47.5312 533.738 59.032 533.738 73.6809H536.425C536.425 59.24 538.608 48.2623 542.838 40.6134L540.487 39.3131ZM533.738 73.6809C533.738 83.4389 534.707 91.8036 536.674 98.7492L539.259 98.0171C537.379 91.3794 536.425 83.276 536.425 73.6809H533.738ZM536.677 98.7597C538.704 105.701 541.688 111.11 545.703 114.87L547.54 112.909C543.981 109.577 541.196 104.648 539.256 98.0065L536.677 98.7597ZM545.711 114.878C549.759 118.605 554.687 120.462 560.415 120.462V117.775C555.324 117.775 551.056 116.146 547.531 112.901L545.711 114.878ZM690.426 74.5824V96.7603H693.113V74.5824H690.426ZM691.77 95.4169H630.465V98.1038H691.77V95.4169ZM631.808 96.7603V74.5824H629.121V96.7603H631.808ZM630.465 75.9258H691.77V73.239H630.465V75.9258ZM868.382 141.215C857.181 141.215 847.684 138.565 839.827 133.327L838.336 135.563C846.707 141.143 856.743 143.902 868.382 143.902V141.215ZM839.836 133.333C832.025 128.029 825.988 120.404 821.747 110.391L819.273 111.438C823.686 121.86 830.03 129.922 838.327 135.556L839.836 133.333ZM821.75 110.399C817.568 100.327 815.452 88.1006 815.452 73.6809H812.765C812.765 88.3509 814.917 100.947 819.269 111.43L821.75 110.399ZM815.452 73.6809C815.452 59.3241 817.597 47.1299 821.838 37.0587L819.362 36.016C814.947 46.5 812.765 59.0681 812.765 73.6809H815.452ZM821.839 37.0561C826.081 26.9215 832.119 19.24 839.926 13.9382L838.417 11.7154C830.116 17.3523 823.773 25.4778 819.361 36.0186L821.839 37.0561ZM839.923 13.9408C847.781 8.64389 857.246 5.96619 868.382 5.96619V3.27936C856.799 3.27936 846.79 6.07101 838.421 11.7128L839.923 13.9408ZM868.382 5.96619C879.58 5.96619 889.042 8.64476 896.837 13.9382L898.346 11.7154C890.033 6.07014 880.023 3.27936 868.382 3.27936V5.96619ZM896.841 13.9408C904.707 19.2433 910.742 26.8937 914.923 36.9623L917.404 35.932C913.05 25.4456 906.704 17.349 898.342 11.7128L896.841 13.9408ZM914.925 36.9685C919.165 47.0391 921.311 59.2631 921.311 73.6809H923.998C923.998 59.0089 921.816 46.4104 917.401 35.9259L914.925 36.9685ZM921.311 73.6809C921.311 88.1006 919.195 100.327 915.013 110.399L917.494 111.43C921.847 100.947 923.998 88.3509 923.998 73.6809H921.311ZM915.014 110.397C910.834 120.405 904.799 128.027 896.931 133.331L898.433 135.559C906.792 129.924 913.138 121.859 917.493 111.432L915.014 110.397ZM896.933 133.33C889.138 138.564 879.644 141.215 868.382 141.215V143.902C880.078 143.902 890.117 141.144 898.431 135.56L896.933 133.33ZM868.382 120.462C874.165 120.462 879.099 118.607 883.093 114.871L881.257 112.909C877.799 116.144 873.537 117.775 868.382 117.775V120.462ZM883.093 114.87C887.111 111.107 890.066 105.694 892.032 98.7492L889.447 98.0171C887.567 104.655 884.812 109.58 881.257 112.909L883.093 114.87ZM892.029 98.7597C894.059 91.8102 895.058 83.4416 895.058 73.6809H892.372C892.372 83.2733 891.388 91.3728 889.45 98.0065L892.029 98.7597ZM895.058 73.6809C895.058 63.861 894.059 55.462 892.029 48.5119L889.45 49.2651C891.387 55.8981 892.372 64.0275 892.372 73.6809H895.058ZM892.032 48.5224C890.066 41.5774 887.111 36.1643 883.093 32.4014L881.257 34.3625C884.812 37.6918 887.567 42.6163 889.447 49.2545L892.032 48.5224ZM883.109 32.4166C879.118 28.5536 874.179 26.6293 868.382 26.6293V29.3161C873.523 29.3161 877.78 30.9979 881.241 34.3473L883.109 32.4166ZM868.382 26.6293C859.708 26.6293 853.04 30.9581 848.452 39.3168L850.807 40.6096C854.994 32.981 860.828 29.3161 868.382 29.3161V26.6293ZM848.454 39.3131C843.909 47.5312 841.705 59.032 841.705 73.6809H844.392C844.392 59.24 846.575 48.2623 850.805 40.6134L848.454 39.3131ZM841.705 73.6809C841.705 83.4388 842.674 91.8036 844.641 98.7492L847.226 98.0171C845.346 91.3794 844.392 83.276 844.392 73.6809H841.705ZM844.644 98.7597C846.671 105.701 849.655 111.11 853.67 114.87L855.506 112.909C851.948 109.577 849.162 104.648 847.223 98.0065L844.644 98.7597ZM853.678 114.878C857.726 118.605 862.654 120.462 868.382 120.462V117.775C863.291 117.775 859.023 116.146 855.498 112.901L853.678 114.878ZM998.393 74.5824V96.7603H1001.08V74.5824H998.393ZM999.736 95.4169H938.431V98.1038H999.736V95.4169ZM939.775 96.7603V74.5824H937.088V96.7603H939.775ZM938.431 75.9258H999.736V73.239H938.431V75.9258ZM1063.39 141.396C1053.23 141.396 1044.54 139.33 1037.27 135.256L1035.95 137.6C1043.7 141.94 1052.86 144.082 1063.39 144.082V141.396ZM1037.27 135.256C1029.99 131.179 1024.4 125.393 1020.49 117.868L1018.11 119.107C1022.25 127.089 1028.21 133.263 1035.95 137.6L1037.27 135.256ZM1020.5 117.879C1016.64 110.291 1014.69 101.282 1014.69 90.8102H1012.01C1012.01 101.615 1014.02 111.058 1018.1 119.096L1020.5 117.879ZM1014.69 90.8102C1014.69 80.646 1016.64 71.7856 1020.5 64.1918L1018.1 62.9755C1014.02 71.0083 1012.01 80.299 1012.01 90.8102H1014.69ZM1020.49 64.199C1024.41 56.5987 1029.89 50.6869 1036.94 46.4326L1035.55 44.132C1028.06 48.6527 1022.24 54.9418 1018.11 62.9682L1020.49 64.199ZM1036.94 46.4351C1044.03 42.1905 1052.38 40.0445 1062.03 40.0445V37.3576C1051.97 37.3576 1043.13 39.5991 1035.56 44.1295L1036.94 46.4351ZM1062.03 40.0445C1068.56 40.0445 1074.62 41.1018 1080.22 43.2045L1081.17 40.6887C1075.23 38.464 1068.85 37.3576 1062.03 37.3576V40.0445ZM1080.23 43.2087C1085.83 45.247 1090.71 48.329 1094.9 52.4595L1096.78 50.5464C1092.32 46.1423 1087.1 42.8534 1081.15 40.6845L1080.23 43.2087ZM1094.9 52.4662C1099.07 56.517 1102.34 61.6601 1104.68 67.9306L1107.2 66.9898C1104.73 60.3984 1101.27 54.9033 1096.78 50.5397L1094.9 52.4662ZM1104.68 67.9345C1107.02 74.1199 1108.2 81.4352 1108.2 89.9086H1110.89C1110.89 81.1926 1109.67 73.5423 1107.19 66.9859L1104.68 67.9345ZM1108.2 89.9086V97.4816H1110.89V89.9086H1108.2ZM1109.54 96.1382H1024.44V98.825H1109.54V96.1382ZM1025.78 97.4816V80.2621H1023.1V97.4816H1025.78ZM1024.44 81.6055H1096.02V78.9187H1024.44V81.6055ZM1095.58 78.993L1082.6 83.5007L1083.48 86.0389L1096.46 81.5312L1095.58 78.993ZM1084.38 84.7698C1084.38 79.5273 1083.58 74.8983 1081.94 70.9145L1079.45 71.9395C1080.93 75.5287 1081.7 79.7949 1081.7 84.7698H1084.38ZM1081.94 70.9145C1080.28 66.903 1077.77 63.7637 1074.4 61.5577L1072.93 63.8065C1075.8 65.6874 1077.98 68.378 1079.45 71.9395L1081.94 70.9145ZM1074.42 61.5744C1071.09 59.2852 1066.99 58.1833 1062.21 58.1833V60.8701C1066.57 60.8701 1070.11 61.8717 1072.9 63.7897L1074.42 61.5744ZM1062.21 58.1833C1057.43 58.1833 1053.29 59.2859 1049.84 61.561L1051.32 63.8031C1054.25 61.871 1057.86 60.8701 1062.21 60.8701V58.1833ZM1049.83 61.5676C1046.49 63.8153 1043.93 66.8642 1042.15 70.6786L1044.59 71.8148C1046.17 68.4168 1048.42 65.7561 1051.33 63.7965L1049.83 61.5676ZM1042.15 70.6786C1040.37 74.4916 1039.5 78.8383 1039.5 83.688H1042.19C1042.19 79.1616 1043 75.2142 1044.59 71.8148L1042.15 70.6786ZM1039.5 83.688V95.8588H1042.19V83.688H1039.5ZM1039.5 95.8588C1039.5 101.483 1040.49 106.384 1042.53 110.516L1044.94 109.329C1043.12 105.649 1042.19 101.174 1042.19 95.8588H1039.5ZM1042.53 110.524C1044.56 114.578 1047.4 117.749 1051.05 119.993L1052.46 117.703C1049.26 115.74 1046.75 112.961 1044.93 109.322L1042.53 110.524ZM1051.08 120.007C1054.79 122.185 1059.03 123.257 1063.75 123.257V120.57C1059.45 120.57 1055.69 119.598 1052.43 117.689L1051.08 120.007ZM1063.75 123.257C1067 123.257 1069.98 122.787 1072.67 121.826L1071.77 119.296C1069.41 120.138 1066.74 120.57 1063.75 120.57V123.257ZM1072.67 121.826C1075.36 120.865 1077.7 119.445 1079.65 117.56L1077.78 115.628C1076.12 117.229 1074.13 118.454 1071.77 119.296L1072.67 121.826ZM1079.63 117.575C1081.65 115.684 1083.15 113.401 1084.12 110.745L1081.6 109.822C1080.77 112.094 1079.5 114.018 1077.79 115.613L1079.63 117.575ZM1082.77 111.624L1108.55 113.337L1108.73 110.656L1082.95 108.943L1082.77 111.624ZM1107.33 111.728C1106.11 117.698 1103.57 122.895 1099.7 127.342L1101.72 129.106C1105.91 124.298 1108.65 118.675 1109.96 112.265L1107.33 111.728ZM1099.69 127.343C1095.88 131.733 1090.92 135.194 1084.78 137.709L1085.8 140.196C1092.28 137.542 1097.6 133.851 1101.72 129.105L1099.69 127.343ZM1084.79 137.705C1078.67 140.154 1071.54 141.396 1063.39 141.396V144.082C1071.81 144.082 1079.29 142.8 1085.79 140.2L1084.79 137.705Z" fill="black" mask="url(#path-1-outside-1_1089_5702)"/>
<circle cx="284.677" cy="142.489" r="2.7332" fill="#131313"/>
<circle cx="213.677" cy="142.489" r="2.7332" fill="#131313"/>
<circle cx="705.677" cy="140.489" r="2.7332" fill="#131313"/>
<circle cx="311.677" cy="142.489" r="2.7332" fill="#131313"/>
<circle cx="241.677" cy="142.489" r="2.7332" fill="#131313"/>
<circle cx="801.677" cy="140.489" r="2.7332" fill="#131313"/>
</svg>
