<svg width="324" height="189" viewBox="0 0 324 189" fill="none" xmlns="http://www.w3.org/2000/svg">
<ellipse cx="4.87131" cy="98.9958" rx="0.87131" ry="0.995783" fill="#131313"/>
<path d="M9.43339 22.3027C21.5031 9.83933 38.5669 0.3125 58.0969 0.3125C66.3246 0.3125 73.6617 1.03349 79.0692 6.66061C82.2531 9.97378 84.2972 21.5974 74.6134 29.5636L37.5003 56.5M25.5003 68.5C7.99902 86.5 -2.70934 108.604 1.85993 132.796C7.5522 150.233 32.0705 153.633 50.4026 153.633C54.2833 153.633 58.164 153.633 62.0447 153.633C66.4278 153.633 70.5826 151.801 74.6134 150.443C97 141 118.992 132.095 117 95.5M117.5 57.5C110.5 37.5 123.116 21.4203 129 18C137.617 12.9912 153.565 13.1401 163.561 13.1401C172.6 13.1401 183.157 21.5551 188.5 27.5C198.004 39.5 188 58 188 58M137.074 123.914C125.622 137.855 121.172 159.638 130.286 168.904C140.723 176.277 154.244 176.145 167.106 175.589C178.6 175.093 188.639 168.618 198.004 163.746C203.244 161.019 207.097 155.26 211.384 151.423C217.916 145.576 217.478 146.93 220.595 139.473C234.909 119.309 231 103.43 231 87M323.41 154.244C323.41 158.412 318.964 162.199 314.95 164.153C304.689 169.147 291.46 171.318 287.154 159.605C281.762 144.942 300.956 129.017 307.371 119.309C315.524 108.853 315.433 105.617 318.865 96.779C322.781 86.6967 322.352 69.5194 321.169 61.5531C318.654 44.6248 311.027 33.3603 295.154 23.5889C286.333 18.1586 280.591 15.9961 268.268 15.9961C247.861 19.3896 230.5 33.5 229.5 51M144.915 114.33C154.69 103.911 170.405 83.9515 177.5 72.5" stroke="#131313" stroke-width="0.373419" stroke-linecap="round"/>
<ellipse cx="9.4629" cy="22.4684" rx="0.935557" ry="0.995783" fill="#131313"/>
<ellipse cx="37.6942" cy="153.165" rx="1.06921" ry="0.995783" fill="#131313"/>
<circle cx="122.996" cy="23.9958" r="0.995783" fill="#131313"/>
<ellipse cx="184.679" cy="170.591" rx="1.06921" ry="0.995783" fill="#131313"/>
<ellipse cx="268.468" cy="16.2448" rx="1.06921" ry="0.995783" fill="#131313"/>
<ellipse cx="318.866" cy="96.9035" rx="1.06921" ry="0.995783" fill="#131313"/>
<ellipse cx="319.936" cy="161.132" rx="1.06921" ry="0.995783" fill="#131313"/>
</svg>
