<svg width="1298" height="758" viewBox="0 0 1298 758" fill="none" xmlns="http://www.w3.org/2000/svg">
<ellipse cx="66.2891" cy="336.385" rx="3.5" ry="4" fill="#131313"/>
<path d="M35.5666 89.7184C84.0497 39.654 152.594 1.38525 231.045 1.38525C264.095 1.38525 293.568 4.28142 315.29 26.8852C328.079 40.194 336.29 86.8853 297.391 118.885L79.29 319.885C46.0016 360.299 -13.21 436.385 5.14447 533.565C28.0099 603.608 126.498 617.264 200.137 617.264C215.726 617.264 231.315 617.264 246.903 617.264C264.51 617.264 281.199 609.906 297.391 604.45C409.969 559.404 433.289 475.385 437.789 343.385M430.789 247.885C430.789 181.385 483.196 102.762 537.531 71.1794C572.146 51.0594 614.535 52.9129 654.689 52.9129C690.996 52.9129 707.339 62.2938 728.802 86.1742C759.354 120.167 730.289 222.385 717.289 248.885M688.789 278.385C642.289 366.885 565.557 487.368 555.789 589.385C548.177 668.885 611.289 704.564 673.289 701.885C728.789 699.488 746.67 680.459 784.289 660.885C812.289 641.885 830.29 627.885 846.79 608.385C855.506 598.083 880.29 567.385 883.79 560.385C941.29 479.385 970.789 379.385 970.789 313.385M1296.79 619.717C1296.79 636.462 1278.93 651.673 1262.81 659.522C1221.59 679.583 1168.45 688.305 1151.15 641.255C1129.49 582.352 1206.6 518.385 1232.37 479.385C1265.11 437.385 1264.75 424.385 1278.54 388.885C1294.26 348.385 1292.54 279.385 1287.79 247.385C1277.69 179.385 1247.05 134.136 1183.29 94.8852C1147.86 73.0719 1124.79 64.3852 1075.29 64.3852C993.314 78.0169 974.289 175.885 970.789 281.885" stroke="#131313" stroke-width="1.5" stroke-linecap="round"/>
<ellipse cx="35.6878" cy="90.3853" rx="3.75808" ry="4" fill="#131313"/>
<ellipse cx="149.084" cy="615.385" rx="4.29495" ry="4" fill="#131313"/>
<circle cx="514.789" cy="86.3853" r="4" fill="#131313"/>
<ellipse cx="739.521" cy="685.385" rx="4.29495" ry="4" fill="#131313"/>
<ellipse cx="1076.08" cy="65.3853" rx="4.29495" ry="4" fill="#131313"/>
<ellipse cx="1278.54" cy="389.385" rx="4.29495" ry="4" fill="#131313"/>
<ellipse cx="1282.83" cy="647.385" rx="4.29495" ry="4" fill="#131313"/>
</svg>
