<svg width="750" height="141" viewBox="0 0 750 141" fill="none" xmlns="http://www.w3.org/2000/svg">
<circle cx="188.835" cy="137.718" r="2.7332" fill="#131313"/>
<circle cx="310.835" cy="137.718" r="2.7332" fill="#131313"/>
<circle cx="416.835" cy="137.718" r="2.7332" fill="#131313"/>
<circle cx="651.835" cy="137.718" r="2.7332" fill="#131313"/>
<circle cx="717.835" cy="137.718" r="2.7332" fill="#131313"/>
<circle cx="223.835" cy="137.718" r="2.7332" fill="#131313"/>
<circle cx="342.835" cy="137.718" r="2.7332" fill="#131313"/>
<circle cx="445.835" cy="137.718" r="2.7332" fill="#131313"/>
<circle cx="679.835" cy="137.718" r="2.7332" fill="#131313"/>
<circle cx="746.835" cy="137.718" r="2.7332" fill="#131313"/>
<mask id="path-11-outside-1_1076_21120" maskUnits="userSpaceOnUse" x="0" y="0" width="748" height="141" fill="black">
<rect fill="white" width="748" height="141"/>
<path d="M2 108.647H28.8181C28.9969 111.984 30.4868 114.606 33.2878 116.513C36.1484 118.421 39.8136 119.374 44.2833 119.374C48.753 119.374 52.5075 118.331 55.5469 116.245C58.5863 114.1 60.1358 111.031 60.1954 107.038C60.1954 104.654 59.5696 102.568 58.3181 100.78C57.1262 98.9923 55.4575 97.5918 53.3121 96.5787C51.2262 95.5059 48.7232 94.9994 45.803 95.059H31.5V76.912H45.803C50.0343 76.8524 53.3121 75.8393 55.6363 73.8726C57.9605 71.906 59.1525 69.4029 59.212 66.3636C59.1525 63.0262 57.9307 60.3146 55.5469 58.2287C53.1631 56.1429 49.9151 55.1297 45.803 55.1893C41.7505 55.1297 38.3535 56.0535 35.6121 57.9605C32.9303 59.808 31.5298 62.162 31.4106 65.0226H4.68181C4.74141 59.0035 6.52929 53.8186 10.0454 49.4681C13.6212 45.1176 18.4187 41.7505 24.4378 39.3666C30.457 36.9828 37.1616 35.7909 44.5515 35.7909C52.7161 35.7909 59.7484 36.953 65.6484 39.2772C71.5484 41.5419 76.1075 44.7898 79.3257 49.0212C82.5438 53.1929 84.1231 58.1989 84.0635 64.0393C84.1231 69.2838 82.3949 73.6938 78.8787 77.2696C75.4221 80.8454 70.5949 83.3782 64.3969 84.8681V85.8514C68.4494 86.1494 72.1443 87.2817 75.4817 89.2484C78.8787 91.1554 81.5605 93.8075 83.5272 97.2044C85.5534 100.601 86.5666 104.624 86.5666 109.273C86.5666 115.471 84.7489 120.775 81.1135 125.185C77.4782 129.595 72.5019 132.992 66.1848 135.376C59.8676 137.7 52.5969 138.892 44.3727 138.951C36.3868 138.892 29.2353 137.7 22.9182 135.376C16.601 133.051 11.5949 129.654 7.89999 125.185C4.26464 120.655 2.29798 115.143 2 108.647ZM139.666 138.951C129.595 138.951 120.864 136.806 113.474 132.515C106.144 128.164 100.482 122.145 96.4893 114.457C92.5559 106.71 90.5893 97.711 90.5893 87.4605C90.5893 77.0908 92.5559 68.062 96.4893 60.3742C100.482 52.6267 106.144 46.6075 113.474 42.3166C120.864 37.9661 129.595 35.7909 139.666 35.7909C149.798 35.7909 158.529 37.9661 165.859 42.3166C173.249 46.6075 178.91 52.6267 182.844 60.3742C186.837 68.062 188.833 77.0908 188.833 87.4605C188.833 97.711 186.837 106.71 182.844 114.457C178.91 122.145 173.249 128.164 165.859 132.515C158.529 136.806 149.798 138.951 139.666 138.951ZM139.845 117.318C144.434 117.318 148.278 116.037 151.377 113.474C154.476 110.852 156.8 107.276 158.35 102.747C159.959 98.2176 160.763 93.0625 160.763 87.2817C160.763 81.4413 159.959 76.2863 158.35 71.8166C156.8 67.3469 154.476 63.8307 151.377 61.2681C148.278 58.7055 144.434 57.4242 139.845 57.4242C135.197 57.4242 131.293 58.7055 128.135 61.2681C125.036 63.8307 122.682 67.3469 121.073 71.8166C119.523 76.2863 118.748 81.4413 118.748 87.2817C118.748 93.0625 119.523 98.2176 121.073 102.747C122.682 107.276 125.036 110.852 128.135 113.474C131.293 116.037 135.197 117.318 139.845 117.318ZM513.78 138.773C502.456 138.773 492.772 136.091 484.727 130.727C476.741 125.304 470.602 117.527 466.312 107.395C462.08 97.2044 459.965 84.8979 459.965 70.4757C459.965 56.1131 462.11 43.8363 466.401 33.6454C470.692 23.3949 476.83 15.5581 484.816 10.1348C492.861 4.71161 502.516 2 513.78 2C525.103 2 534.757 4.71161 542.743 10.1348C550.789 15.5581 556.927 23.3651 561.158 33.556C565.449 43.7469 567.595 56.0535 567.595 70.4757C567.595 84.8979 565.479 97.2044 561.248 107.395C557.016 117.527 550.878 125.304 542.833 130.727C534.847 136.091 525.162 138.773 513.78 138.773ZM513.78 115.53C519.203 115.53 523.762 113.802 527.457 110.345C531.211 106.829 534.042 101.704 535.949 94.9696C537.916 88.2352 538.899 80.0706 538.899 70.4757C538.899 60.8211 537.916 52.6267 535.949 45.8924C534.042 39.158 531.211 34.0328 527.457 30.5166C523.762 26.9409 519.203 25.153 513.78 25.153C505.734 25.153 499.536 29.1161 495.186 37.0424C490.835 44.909 488.66 56.0535 488.66 70.4757C488.66 80.0706 489.613 88.2352 491.521 94.9696C493.487 101.704 496.348 106.829 500.102 110.345C503.857 113.802 508.416 115.53 513.78 115.53ZM644.026 71.3696V93.3605H583.239V71.3696H644.026Z"/>
</mask>
<path d="M225.932 85.0469L226.473 85.434L226.752 85.0441L226.471 84.6561L225.932 85.0469ZM191.157 37.0424V36.3763H189.852L190.618 37.4331L191.157 37.0424ZM222.713 37.0424L223.268 36.6738L223.07 36.3763H222.713V37.0424ZM248.727 76.1969L248.172 76.5655L248.37 76.8629H248.727V76.1969ZM253.018 76.1969V76.8629H253.684V76.1969H253.018ZM253.018 37.0424V36.3763H252.352V37.0424H253.018ZM280.551 37.0424H281.217V36.3763H280.551V37.0424ZM280.551 76.1969H279.885V76.8629H280.551V76.1969ZM284.753 76.1969V76.8629H285.11L285.307 76.5655L284.753 76.1969ZM310.766 37.0424V36.3763H310.409L310.212 36.6738L310.766 37.0424ZM342.412 37.0424L342.951 37.4331L343.717 36.3763H342.412V37.0424ZM307.637 85.0469L307.098 84.6561L306.825 85.0328L307.085 85.4187L307.637 85.0469ZM284.574 97.9196L285.127 97.5487L284.929 97.2535H284.574V97.9196ZM280.551 97.9196V97.2535H279.885V97.9196H280.551ZM280.551 136.985V137.651H281.217V136.985H280.551ZM253.018 136.985H252.352V137.651H253.018V136.985ZM253.018 97.9196H253.684V97.2535H253.018V97.9196ZM248.995 97.9196V97.2535H248.636L248.439 97.5531L248.995 97.9196ZM445.215 3.78788H445.881V3.12184H445.215V3.78788ZM417.145 30.5166H417.811V29.8506H417.145V30.5166ZM416.34 30.5166V29.8506H416.147L415.984 29.9537L416.34 30.5166ZM385.946 49.7363H385.28V50.9455L386.302 50.2992L385.946 49.7363ZM385.946 24.706L385.589 24.144L385.28 24.3403V24.706H385.946ZM418.843 3.78788V3.12184H418.65L418.486 3.22584L418.843 3.78788ZM680.678 37.0424L681.269 36.7361L681.083 36.3763H680.678V37.0424ZM698.825 72.0848L698.233 72.391L698.813 73.5111L699.411 72.4004L698.825 72.0848ZM717.687 37.0424V36.3763H717.289L717.1 36.7267L717.687 37.0424ZM746.204 37.0424L746.78 37.3759L747.358 36.3763H746.204V37.0424ZM717.24 87.1029L716.663 86.7694L716.468 87.1076L716.668 87.4435L717.24 87.1029ZM698.825 102.479L699.409 102.159L698.83 101.1L698.243 102.155L698.825 102.479ZM680.678 87.1029L681.255 87.435L681.446 87.1035L681.256 86.7717L680.678 87.1029ZM651.982 37.0424V36.3763H650.833L651.405 37.3736L651.982 37.0424ZM226.471 84.6561L191.697 36.6516L190.618 37.4331L225.392 85.4376L226.471 84.6561ZM191.157 37.7084H222.713V36.3763H191.157V37.7084ZM222.159 37.411L248.172 76.5655L249.282 75.8283L223.268 36.6738L222.159 37.411ZM248.727 76.8629H253.018V75.5308H248.727V76.8629ZM253.684 76.1969V37.0424H252.352V76.1969H253.684ZM253.018 37.7084H280.551V36.3763H253.018V37.7084ZM279.885 37.0424V76.1969H281.217V37.0424H279.885ZM280.551 76.8629H284.753V75.5308H280.551V76.8629ZM285.307 76.5655L311.321 37.411L310.212 36.6738L284.198 75.8283L285.307 76.5655ZM310.766 37.7084H342.412V36.3763H310.766V37.7084ZM341.872 36.6516L307.098 84.6561L308.177 85.4376L342.951 37.4331L341.872 36.6516ZM307.085 85.4187L342.038 137.357L343.143 136.613L308.19 84.675L307.085 85.4187ZM284.574 97.2535H280.551V98.5856H284.574V97.2535ZM279.885 97.9196V136.985H281.217V97.9196H279.885ZM280.551 136.319H253.018V137.651H280.551V136.319ZM253.684 136.985V97.9196H252.352V136.985H253.684ZM253.018 97.2535H248.995V98.5856H253.018V97.2535ZM248.439 97.5531L222.694 136.618L223.806 137.351L249.551 98.2861L248.439 97.5531ZM417.811 136.985V30.5166H416.479V136.985H417.811ZM417.145 29.8506H416.34V31.1827H417.145V29.8506ZM415.984 29.9537L385.59 49.1734L386.302 50.2992L416.696 31.0796L415.984 29.9537ZM386.613 49.7363V24.706H385.28V49.7363H386.613ZM386.304 25.2681L419.201 4.34992L418.486 3.22584L385.589 24.144L386.304 25.2681ZM418.843 4.45392H445.215V3.12184H418.843V4.45392ZM680.086 37.3487L698.233 72.391L699.416 71.7785L681.269 36.7361L680.086 37.3487ZM699.411 72.4004L718.273 37.3581L717.1 36.7267L698.238 71.7691L699.411 72.4004ZM717.687 37.7084H746.204V36.3763H717.687V37.7084ZM745.627 36.7088L716.663 86.7694L717.816 87.4365L746.78 37.3759L745.627 36.7088ZM716.668 87.4435L746.346 137.325L747.491 136.644L717.812 86.7624L716.668 87.4435ZM698.243 102.155L679.023 136.661L680.187 137.309L699.407 102.803L698.243 102.155ZM681.256 86.7717L652.56 36.7112L651.405 37.3736L680.1 87.4341L681.256 86.7717ZM651.982 37.7084H680.678V36.3763H651.982V37.7084ZM225.39 84.6597L188.291 136.598L189.375 137.372L226.473 85.434L225.39 84.6597ZM284.021 98.2905L310.213 137.356L311.319 136.614L285.127 97.5487L284.021 98.2905ZM444.549 3.78788V136.985H445.881V3.78788H444.549ZM680.101 86.7708L651.405 136.653L652.56 137.317L681.255 87.435L680.101 86.7708ZM698.24 102.798L717.103 137.304L718.271 136.665L699.409 102.159L698.24 102.798ZM2 108.647V107.315H0.605412L0.669317 108.708L2 108.647ZM28.8181 108.647L30.1483 108.576L30.0808 107.315H28.8181V108.647ZM33.2878 116.513L32.5381 117.615L32.5489 117.622L33.2878 116.513ZM55.5469 116.245L56.3007 117.344L56.3079 117.339L56.3151 117.334L55.5469 116.245ZM60.1954 107.038L61.5273 107.058L61.5275 107.048V107.038H60.1954ZM58.3181 100.78L57.2097 101.519L57.2181 101.532L57.2268 101.544L58.3181 100.78ZM53.3121 96.5787L52.7028 97.7633L52.7229 97.7736L52.7432 97.7832L53.3121 96.5787ZM45.803 95.059V96.3911H45.8166L45.8302 96.3908L45.803 95.059ZM31.5 95.059H30.1679V96.3911H31.5V95.059ZM31.5 76.912V75.5799H30.1679V76.912H31.5ZM45.803 76.912V78.2441H45.8124L45.8217 78.244L45.803 76.912ZM59.212 66.3636L60.5439 66.3897L60.5444 66.3647L60.5439 66.3398L59.212 66.3636ZM45.803 55.1893L45.7834 56.5213L45.8028 56.5216L45.8223 56.5213L45.803 55.1893ZM35.6121 57.9605L36.3678 59.0575L36.3728 59.054L35.6121 57.9605ZM31.4106 65.0226V66.3547H32.6883L32.7415 65.0781L31.4106 65.0226ZM4.68181 65.0226L3.3498 65.0095L3.33648 66.3547H4.68181V65.0226ZM10.0454 49.4681L9.01632 48.6223L9.00943 48.6308L10.0454 49.4681ZM65.6484 39.2772L65.1601 40.5167L65.1711 40.5208L65.6484 39.2772ZM79.3257 49.0212L78.2654 49.8276L78.2709 49.8348L79.3257 49.0212ZM84.0635 64.0393L82.7315 64.0257L82.7314 64.0401L82.7315 64.0545L84.0635 64.0393ZM78.8787 77.2696L77.9288 76.3356L77.9209 76.3438L78.8787 77.2696ZM64.3969 84.8681L64.0855 83.5729L63.0648 83.8183V84.8681H64.3969ZM64.3969 85.8514H63.0648V87.0891L64.2992 87.1799L64.3969 85.8514ZM75.4817 89.2484L74.8054 90.396L74.8175 90.4031L74.8296 90.4099L75.4817 89.2484ZM83.5272 97.2044L82.3744 97.8718L82.3787 97.8794L82.3831 97.8868L83.5272 97.2044ZM66.1848 135.376L66.6447 136.626L66.6551 136.622L66.1848 135.376ZM44.3727 138.951L44.3627 140.283L44.3725 140.283L44.3823 140.283L44.3727 138.951ZM7.89999 125.185L6.86115 126.019L6.86717 126.026L6.8733 126.033L7.89999 125.185ZM113.474 132.515L112.794 133.661L112.805 133.667L113.474 132.515ZM96.4893 114.457L95.3015 115.06L95.3071 115.071L96.4893 114.457ZM96.4893 60.3742L95.3052 59.7639L95.3034 59.7674L96.4893 60.3742ZM113.474 42.3166L114.147 43.4662L114.15 43.4645L113.474 42.3166ZM165.859 42.3166L165.179 43.4622L165.19 43.4686L165.859 42.3166ZM182.844 60.3742L181.656 60.9772L181.662 60.9882L182.844 60.3742ZM182.844 114.457L181.66 113.847L181.658 113.851L182.844 114.457ZM165.859 132.515L166.532 133.665L166.535 133.663L165.859 132.515ZM151.377 113.474L152.226 114.501L152.232 114.496L152.238 114.491L151.377 113.474ZM158.35 102.747L157.095 102.301L157.092 102.308L157.089 102.316L158.35 102.747ZM158.35 71.8166L157.091 72.2529L157.094 72.2603L157.096 72.2678L158.35 71.8166ZM128.135 61.2681L127.295 60.2336L127.286 60.2415L128.135 61.2681ZM121.073 71.8166L119.819 71.3654L119.817 71.3728L119.814 71.3803L121.073 71.8166ZM121.073 102.747L119.812 103.178L119.815 103.185L119.817 103.193L121.073 102.747ZM128.135 113.474L127.274 114.491L127.285 114.5L127.295 114.509L128.135 113.474ZM484.727 130.727L483.978 131.829L483.988 131.835L484.727 130.727ZM466.312 107.395L465.081 107.906L465.085 107.915L466.312 107.395ZM466.401 33.6454L467.629 34.1623L467.63 34.1598L466.401 33.6454ZM484.816 10.1348L484.071 9.03026L484.068 9.03285L484.816 10.1348ZM542.743 10.1348L541.995 11.2368L541.999 11.2394L542.743 10.1348ZM561.158 33.556L559.928 34.0668L559.931 34.0729L561.158 33.556ZM561.248 107.395L562.477 107.909L562.478 107.906L561.248 107.395ZM542.833 130.727L543.575 131.833L543.577 131.832L542.833 130.727ZM527.457 110.345L528.367 111.318L528.367 111.318L527.457 110.345ZM535.949 94.9696L534.671 94.5961L534.668 94.6066L535.949 94.9696ZM535.949 45.8924L534.668 46.2553L534.671 46.2658L535.949 45.8924ZM527.457 30.5166L526.531 31.4739L526.538 31.4815L526.546 31.4889L527.457 30.5166ZM495.186 37.0424L496.351 37.687L496.353 37.6833L495.186 37.0424ZM491.521 94.9696L490.239 95.3325L490.242 95.343L491.521 94.9696ZM500.102 110.345L499.192 111.318L499.2 111.325L500.102 110.345ZM644.026 71.3696H645.359V70.0375H644.026V71.3696ZM644.026 93.3605V94.6926H645.359V93.3605H644.026ZM583.239 93.3605H581.907V94.6926H583.239V93.3605ZM583.239 71.3696V70.0375H581.907V71.3696H583.239ZM2 109.979H28.8181V107.315H2V109.979ZM27.488 108.718C27.6894 112.477 29.3992 115.477 32.5382 117.615L34.0375 115.412C31.5745 113.735 30.3045 111.491 30.1483 108.576L27.488 108.718ZM32.5489 117.622C35.6853 119.713 39.6286 120.706 44.2833 120.706V118.042C39.9986 118.042 36.6116 117.128 34.0267 115.405L32.5489 117.622ZM44.2833 120.706C48.964 120.706 52.9959 119.612 56.3007 117.344L54.7932 115.147C52.0191 117.051 48.5419 118.042 44.2833 118.042V120.706ZM56.3151 117.334C59.7311 114.922 61.4619 111.44 61.5273 107.058L58.8634 107.018C58.8097 110.622 57.4414 113.277 54.7787 115.157L56.3151 117.334ZM61.5275 107.038C61.5275 104.407 60.8322 102.049 59.4094 100.016L57.2268 101.544C58.3071 103.087 58.8633 104.901 58.8633 107.038H61.5275ZM59.4265 100.041C58.0866 98.0315 56.2216 96.4795 53.8809 95.3741L52.7432 97.7832C54.6934 98.7041 56.1658 99.9531 57.2097 101.519L59.4265 100.041ZM53.9213 95.3941C51.5963 94.1983 48.8637 93.6641 45.7758 93.7272L45.8302 96.3908C48.5826 96.3346 50.8561 96.8135 52.7028 97.7633L53.9213 95.3941ZM45.803 93.7269H31.5V96.3911H45.803V93.7269ZM32.832 95.059V76.912H30.1679V95.059H32.832ZM31.5 78.2441H45.803V75.5799H31.5V78.2441ZM45.8217 78.244C50.2426 78.1817 53.8597 77.1209 56.4967 74.8895L54.7758 72.8557C52.7644 74.5577 49.826 75.5231 45.7842 75.5801L45.8217 78.244ZM56.4967 74.8895C59.1126 72.6761 60.4768 69.8124 60.5439 66.3897L57.8802 66.3374C57.8281 68.9935 56.8084 71.1358 54.7758 72.8557L56.4967 74.8895ZM60.5439 66.3398C60.478 62.6495 59.1075 59.5742 56.4241 57.2262L54.6697 59.2312C56.754 61.0549 57.8269 63.4029 57.8802 66.3873L60.5439 66.3398ZM56.4241 57.2262C53.7258 54.8652 50.1242 53.7945 45.7837 53.8574L45.8223 56.5213C49.706 56.465 52.6004 57.4205 54.6697 59.2312L56.4241 57.2262ZM45.8226 53.8574C41.5521 53.7946 37.8668 54.7693 34.8514 56.867L36.3728 59.054C38.8402 57.3376 41.9488 56.4649 45.7834 56.5213L45.8226 53.8574ZM34.8564 56.8636C31.8839 58.9112 30.2188 61.6267 30.0796 64.9672L32.7415 65.0781C32.8407 62.6974 33.9766 60.7048 36.3678 59.0575L34.8564 56.8636ZM31.4106 63.6906H4.68181V66.3547H31.4106V63.6906ZM6.01383 65.0358C6.0707 59.2924 7.76883 54.4041 11.0815 50.3054L9.00943 48.6308C5.28975 53.2331 3.41212 58.7145 3.3498 65.0095L6.01383 65.0358ZM11.0745 50.3139C14.4867 46.1625 19.0873 42.9184 24.9283 40.6051L23.9474 38.1281C17.75 40.5825 12.7557 44.0728 9.01636 48.6223L11.0745 50.3139ZM24.9283 40.6051C30.7709 38.2912 37.306 37.1229 44.5515 37.1229V34.4588C37.0172 34.4588 30.1432 35.6743 23.9474 38.1281L24.9283 40.6051ZM44.5515 37.1229C52.5948 37.1229 59.4533 38.2684 65.1602 40.5166L66.1366 38.0378C60.0436 35.6375 52.8374 34.4588 44.5515 34.4588V37.1229ZM65.1711 40.5208C70.884 42.7137 75.2233 45.8278 78.2654 49.8276L80.3859 48.2148C76.9916 43.7519 72.2128 40.3701 66.1257 38.0336L65.1711 40.5208ZM78.2709 49.8348C81.2865 53.7438 82.7884 58.45 82.7315 64.0257L85.3955 64.0529C85.4578 57.9479 83.8012 52.6419 80.3804 48.2075L78.2709 49.8348ZM82.7315 64.0545C82.7873 68.9624 81.184 73.0254 77.9289 76.3356L79.8285 78.2036C83.6058 74.3623 85.4589 69.6051 85.3955 64.0242L82.7315 64.0545ZM77.9209 76.3438C74.6837 79.6927 70.1059 82.1257 64.0855 83.5729L64.7082 86.1633C71.0838 84.6307 76.1606 81.9981 79.8364 78.1954L77.9209 76.3438ZM63.0648 84.8681V85.8514H65.729V84.8681H63.0648ZM64.2992 87.1799C68.1578 87.4636 71.6531 88.5384 74.8054 90.396L76.158 88.1007C72.6356 86.025 68.741 84.8352 64.4946 84.5229L64.2992 87.1799ZM74.8296 90.4099C78.0168 92.1992 80.5263 94.6798 82.3744 97.8718L84.68 96.537C82.5947 92.9351 79.7406 90.1117 76.1338 88.0868L74.8296 90.4099ZM82.3831 97.8868C84.2662 101.044 85.2345 104.822 85.2345 109.273H87.8986C87.8986 104.426 86.8406 100.159 84.6712 96.522L82.3831 97.8868ZM85.2345 109.273C85.2345 115.189 83.5072 120.187 80.0857 124.337L82.1414 126.032C85.9905 121.363 87.8986 115.752 87.8986 109.273H85.2345ZM80.0857 124.337C76.623 128.538 71.8538 131.813 65.7145 134.129L66.6551 136.622C73.1501 134.171 78.3334 130.652 82.1414 126.032L80.0857 124.337ZM65.7248 134.125C59.5799 136.386 52.4665 137.561 44.363 137.619L44.3823 140.283C52.7273 140.223 60.1553 139.013 66.6447 136.626L65.7248 134.125ZM44.3826 137.619C36.5224 137.561 29.5271 136.388 23.3781 134.125L22.4582 136.626C28.9436 139.012 36.2512 140.223 44.3627 140.283L44.3826 137.619ZM23.3781 134.125C17.2461 131.869 12.4489 128.597 8.92668 124.336L6.8733 126.033C10.741 130.712 15.9559 134.233 22.4582 136.626L23.3781 134.125ZM8.93884 124.351C5.50112 120.068 3.61735 114.835 3.33068 108.586L0.669317 108.708C0.978612 115.451 3.02817 121.243 6.86115 126.019L8.93884 124.351ZM139.666 137.619C129.787 137.619 121.296 135.516 114.143 131.363L112.805 133.667C120.432 138.095 129.402 140.283 139.666 140.283V137.619ZM114.154 131.369C107.041 127.148 101.552 121.315 97.6714 113.843L95.3071 115.071C99.4126 122.976 105.247 129.181 112.794 133.661L114.154 131.369ZM97.677 113.854C93.8542 106.325 91.9214 97.5389 91.9214 87.4605H89.2572C89.2572 97.883 91.2577 107.095 95.3015 115.06L97.677 113.854ZM91.9214 87.4605C91.9214 77.2598 93.8554 68.4468 97.6752 60.9809L95.3034 59.7674C91.2565 67.6772 89.2572 76.9218 89.2572 87.4605H91.9214ZM97.6733 60.9844C101.554 53.4554 107.041 47.626 114.147 43.4662L112.801 41.167C105.247 45.5891 99.4107 51.798 95.3052 59.7639L97.6733 60.9844ZM114.15 43.4645C121.302 39.2542 129.791 37.1229 139.666 37.1229V34.4588C129.399 34.4588 120.426 36.678 112.798 41.1687L114.15 43.4645ZM139.666 37.1229C149.604 37.1229 158.09 39.255 165.179 43.4621L166.539 41.1711C158.967 36.6772 149.992 34.4588 139.666 34.4588V37.1229ZM165.19 43.4686C172.354 47.6281 177.837 53.4549 181.656 60.9772L184.031 59.7711C179.984 51.7985 174.144 45.5869 166.528 41.1646L165.19 43.4686ZM181.662 60.9882C185.538 68.4524 187.501 77.2627 187.501 87.4605H190.165C190.165 76.9189 188.135 67.6717 184.026 59.7602L181.662 60.9882ZM187.501 87.4605C187.501 97.536 185.54 106.319 181.66 113.847L184.028 115.068C188.134 107.101 190.165 97.886 190.165 87.4605H187.501ZM181.658 113.851C177.839 121.315 172.353 127.146 165.183 131.367L166.535 133.663C174.144 129.183 179.982 122.976 184.03 115.064L181.658 113.851ZM165.186 131.365C158.096 135.516 149.607 137.619 139.666 137.619V140.283C149.989 140.283 158.961 138.096 166.532 133.665L165.186 131.365ZM139.845 118.65C144.698 118.65 148.855 117.288 152.226 114.501L150.528 112.448C147.701 114.785 144.171 115.986 139.845 115.986V118.65ZM152.238 114.491C155.551 111.687 157.997 107.894 159.61 103.178L157.089 102.316C155.604 106.658 153.401 110.016 150.517 112.457L152.238 114.491ZM159.605 103.193C161.274 98.4946 162.096 93.1846 162.096 87.2817H159.431C159.431 92.9405 158.644 97.9405 157.095 102.301L159.605 103.193ZM162.096 87.2817C162.096 81.3215 161.275 76.0087 159.603 71.3654L157.096 72.2678C158.643 76.5638 159.431 81.5611 159.431 87.2817H162.096ZM159.608 71.3803C157.993 66.7212 155.544 62.9853 152.226 60.2415L150.528 62.2947C153.408 64.6762 155.607 67.9726 157.091 72.2529L159.608 71.3803ZM152.226 60.2415C148.855 57.4538 144.698 56.0921 139.845 56.0921V58.7563C144.171 58.7563 147.701 59.9571 150.528 62.2947L152.226 60.2415ZM139.845 56.0921C134.937 56.0921 130.725 57.4514 127.295 60.2337L128.974 62.3025C131.862 59.9596 135.456 58.7563 139.845 58.7563V56.0921ZM127.286 60.2415C123.972 62.9818 121.494 66.7122 119.819 71.3654L122.326 72.2678C123.869 67.9816 126.099 64.6796 128.984 62.2947L127.286 60.2415ZM119.814 71.3803C118.206 76.0188 117.416 81.3263 117.416 87.2817H120.08C120.08 81.5563 120.84 76.5537 122.331 72.2529L119.814 71.3803ZM117.416 87.2817C117.416 93.1797 118.207 98.4845 119.812 103.178L122.333 102.316C120.84 97.9506 120.08 92.9453 120.08 87.2817H117.416ZM119.817 103.193C121.491 107.903 123.965 111.691 127.274 114.491L128.995 112.457C126.106 110.013 123.873 106.649 122.328 102.301L119.817 103.193ZM127.295 114.509C130.725 117.291 134.937 118.65 139.845 118.65V115.986C135.456 115.986 131.862 114.783 128.974 112.44L127.295 114.509ZM513.78 137.44C502.673 137.44 493.257 134.813 485.466 129.619L483.988 131.835C492.287 137.369 502.239 140.105 513.78 140.105V137.44ZM485.475 129.625C477.73 124.365 471.743 116.805 467.538 106.876L465.085 107.915C469.461 118.248 475.752 126.242 483.978 131.829L485.475 129.625ZM467.542 106.885C463.395 96.8969 461.297 84.7738 461.297 70.4757H458.632C458.632 85.022 460.766 97.5119 465.081 107.906L467.542 106.885ZM461.297 70.4757C461.297 56.24 463.424 44.1486 467.629 34.1623L465.173 33.1285C460.796 43.524 458.632 55.9862 458.632 70.4757H461.297ZM467.63 34.1598C471.836 24.1107 477.823 16.4939 485.564 11.2368L484.068 9.03285C475.837 14.6222 469.547 22.6792 465.172 33.131L467.63 34.1598ZM485.561 11.2394C493.352 5.9872 502.737 3.33208 513.78 3.33208V0.667918C502.295 0.667918 492.371 3.43602 484.071 9.03027L485.561 11.2394ZM513.78 3.33208C524.883 3.33208 534.266 5.98806 541.995 11.2368L543.492 9.03285C535.249 3.43516 525.322 0.667918 513.78 0.667918V3.33208ZM541.999 11.2394C549.799 16.4972 555.783 24.0831 559.928 34.0668L562.389 33.0452C558.071 22.6472 551.779 14.6189 543.488 9.03027L541.999 11.2394ZM559.931 34.0729C564.135 44.0586 566.263 56.1795 566.263 70.4757H568.927C568.927 55.9274 566.763 43.4352 562.386 33.0391L559.931 34.0729ZM566.263 70.4757C566.263 84.7738 564.164 96.8969 560.018 106.885L562.478 107.906C566.794 97.5119 568.927 85.022 568.927 70.4757H566.263ZM560.019 106.882C555.874 116.806 549.89 124.363 542.088 129.623L543.577 131.832C551.866 126.244 558.159 118.248 562.477 107.909L560.019 106.882ZM542.09 129.621C534.361 134.812 524.947 137.44 513.78 137.44V140.105C525.378 140.105 535.332 137.369 543.575 131.833L542.09 129.621ZM513.78 116.862C519.514 116.862 524.406 115.023 528.367 111.318L526.547 109.373C523.117 112.581 518.892 114.198 513.78 114.198V116.862ZM528.367 111.318C532.352 107.586 535.281 102.219 537.231 95.3325L534.668 94.6066C532.804 101.189 530.071 106.072 526.546 109.373L528.367 111.318ZM537.228 95.343C539.24 88.4521 540.231 80.154 540.231 70.4757H537.567C537.567 79.9872 536.592 88.0184 534.671 94.5962L537.228 95.343ZM540.231 70.4757C540.231 60.7386 539.241 52.4105 537.228 45.519L534.671 46.2658C536.591 52.8429 537.567 60.9037 537.567 70.4757H540.231ZM537.231 45.5294C535.281 38.643 532.352 33.2755 528.367 29.5443L526.546 31.4889C530.071 34.7901 532.804 39.6731 534.668 46.2553L537.231 45.5294ZM528.383 29.5594C524.425 25.729 519.528 23.8209 513.78 23.8209V26.4851C518.878 26.4851 523.099 28.1527 526.531 31.4739L528.383 29.5594ZM513.78 23.8209C505.179 23.8209 498.567 28.1132 494.018 36.4014L496.353 37.6833C500.505 30.1191 506.289 26.4851 513.78 26.4851V23.8209ZM494.02 36.3977C489.513 44.5466 487.328 55.9503 487.328 70.4757H489.992C489.992 56.1566 492.157 45.2715 496.351 37.687L494.02 36.3977ZM487.328 70.4757C487.328 80.1513 488.289 88.4456 490.239 95.3325L492.802 94.6066C490.938 88.0249 489.992 79.9899 489.992 70.4757H487.328ZM490.242 95.343C492.252 102.226 495.211 107.59 499.192 111.318L501.013 109.373C497.485 106.069 494.722 101.182 492.799 94.5962L490.242 95.343ZM499.2 111.325C503.214 115.021 508.1 116.862 513.78 116.862V114.198C508.732 114.198 504.5 112.583 501.005 109.365L499.2 111.325ZM642.694 71.3696V93.3605H645.359V71.3696H642.694ZM644.026 92.0284H583.239V94.6926H644.026V92.0284ZM584.571 93.3605V71.3696H581.907V93.3605H584.571ZM583.239 72.7017H644.026V70.0375H583.239V72.7017Z" fill="black" mask="url(#path-11-outside-1_1076_21120)"/>
</svg>
