<svg width="902" height="142" viewBox="0 0 902 142" fill="none" xmlns="http://www.w3.org/2000/svg">
<circle cx="171.847" cy="137.429" r="2.79581" fill="#131313"/>
<circle cx="422.799" cy="137.429" r="2.79581" fill="#131313"/>
<circle cx="198.016" cy="137.429" r="2.79581" fill="#131313"/>
<circle cx="449.639" cy="137.429" r="2.79581" fill="#131313"/>
<circle cx="567.733" cy="137.429" r="2.79581" fill="#131313"/>
<circle cx="804.595" cy="137.429" r="2.79581" fill="#131313"/>
<circle cx="869.681" cy="137.429" r="2.79581" fill="#131313"/>
<circle cx="595.915" cy="137.429" r="2.79581" fill="#131313"/>
<circle cx="834.118" cy="137.429" r="2.79581" fill="#131313"/>
<circle cx="899.204" cy="137.429" r="2.79581" fill="#131313"/>
<mask id="path-11-outside-1_501_5042" maskUnits="userSpaceOnUse" x="0" y="0" width="901" height="142" fill="black">
<rect fill="white" width="901" height="142"/>
<path d="M51.4422 139.97C41.1755 139.97 32.3497 137.778 24.9649 133.395C17.5801 128.953 11.9064 122.859 7.94387 115.114C3.98129 107.309 2 98.3027 2 88.096C2 77.7693 3.98129 68.7034 7.94387 60.8983C11.9665 53.0932 17.6702 46.9993 25.055 42.6164C32.4398 38.2336 41.2355 36.0421 51.4422 36.0421C60.2079 36.0421 67.8628 37.6332 74.4071 40.8153C81.0114 43.9973 86.2348 48.4702 90.0773 54.234C93.9198 59.9977 96.0212 66.7821 96.3814 74.5872H70.0843C69.604 71.225 68.5833 68.2831 67.0223 65.7615C65.4613 63.2398 63.3899 61.2886 60.8083 59.9077C58.2266 58.5268 55.2246 57.8363 51.8024 57.8363C47.4796 57.8363 43.6971 59.0071 40.455 61.3486C37.2729 63.6301 34.7813 67.0223 32.9802 71.5252C31.239 75.9681 30.3685 81.3716 30.3685 87.7358C30.3685 94.0999 31.239 99.5635 32.9802 104.126C34.7813 108.689 37.2729 112.172 40.455 114.573C43.6971 116.975 47.4796 118.176 51.8024 118.176C56.6055 118.176 60.6582 116.675 63.9603 113.673C67.2625 110.611 69.3038 106.408 70.0843 101.064H96.3814C95.9611 108.749 93.8898 115.534 90.1674 121.418C86.4449 127.241 81.3116 131.804 74.7673 135.107C68.2231 138.349 60.448 139.97 51.4422 139.97ZM260.558 139.97C250.231 139.97 241.316 137.868 233.811 133.666C226.306 129.463 220.542 123.489 216.52 115.744C212.557 107.939 210.576 98.7229 210.576 88.096C210.576 77.7693 212.557 68.7034 216.52 60.8983C220.542 53.0932 226.186 46.9993 233.451 42.6164C240.775 38.2336 249.361 36.0421 259.207 36.0421C265.872 36.0421 272.086 37.1228 277.849 39.2843C283.613 41.3856 288.656 44.5677 292.979 48.8305C297.302 53.0332 300.664 58.3467 303.066 64.7708C305.467 71.135 306.668 78.6098 306.668 87.1954V94.7603H221.653V77.5592H293.159L280.191 82.0621C280.191 76.9588 279.41 72.5159 277.849 68.7334C276.288 64.951 273.947 62.0391 270.825 59.9977C267.763 57.8964 263.95 56.8457 259.387 56.8457C254.824 56.8457 250.952 57.8964 247.77 59.9977C244.648 62.0991 242.246 64.951 240.565 68.5533C238.884 72.1556 238.044 76.2983 238.044 80.9814V93.1393C238.044 98.6029 239.004 103.286 240.925 107.188C242.847 111.031 245.518 114.003 248.941 116.104C252.423 118.146 256.416 119.166 260.918 119.166C264.04 119.166 266.862 118.716 269.384 117.815C271.906 116.915 274.067 115.594 275.868 113.853C277.729 112.112 279.11 110.01 280.011 107.549L305.768 109.26C304.507 115.444 301.865 120.847 297.842 125.47C293.88 130.033 288.747 133.606 282.442 136.187C276.138 138.709 268.844 139.97 260.558 139.97ZM388.531 76.5685V98.3627H336.027V76.5685H388.531ZM345.213 37.303V137.988H318.646V37.303H345.213ZM406.003 37.303V137.988H379.616V37.303H406.003ZM665.011 139.79C653.604 139.79 643.848 137.088 635.742 131.684C627.697 126.221 621.513 118.386 617.19 108.179C612.927 97.9124 610.796 85.5143 610.796 70.9849C610.796 56.5155 612.957 44.1474 617.28 33.8807C621.603 23.554 627.787 15.6589 635.832 10.1953C643.938 4.73178 653.664 2 665.011 2C676.419 2 686.145 4.73178 694.19 10.1953C702.296 15.6589 708.48 23.524 712.742 33.7907C717.065 44.0574 719.227 56.4554 719.227 70.9849C719.227 85.5143 717.095 97.9124 712.832 108.179C708.57 118.386 702.386 126.221 694.28 131.684C686.235 137.088 676.479 139.79 665.011 139.79ZM665.011 116.374C670.475 116.374 675.068 114.633 678.79 111.151C682.573 107.609 685.425 102.445 687.346 95.6609C689.327 88.8765 690.318 80.6512 690.318 70.9849C690.318 61.2586 689.327 53.0032 687.346 46.2188C685.425 39.4344 682.573 34.271 678.79 30.7287C675.068 27.1263 670.475 25.3252 665.011 25.3252C656.906 25.3252 650.662 29.3178 646.279 37.303C641.896 45.2281 639.705 56.4554 639.705 70.9849C639.705 80.6512 640.665 88.8765 642.587 95.6609C644.568 102.445 647.45 107.609 651.232 111.151C655.015 114.633 659.608 116.374 665.011 116.374ZM796.227 71.8855V94.0399H734.987V71.8855H796.227Z"/>
</mask>
<path d="M102.415 137.988L101.744 137.991L101.747 138.659H102.415V137.988ZM102.325 115.924V115.253H101.652L101.654 115.927L102.325 115.924ZM105.657 115.924V116.595L105.67 116.595L105.657 115.924ZM113.402 112.682L112.921 112.214L112.914 112.222L113.402 112.682ZM117.995 102.145L117.34 102.003L117.338 102.009L117.995 102.145ZM120.067 81.972L119.396 81.9463L119.396 81.9482L120.067 81.972ZM121.778 37.303V36.632H121.132L121.107 37.2773L121.778 37.303ZM198.238 37.303H198.909V36.632H198.238V37.303ZM171.67 59.2773H172.341V58.6063H171.67V59.2773ZM146.814 59.2773V58.6063H146.178L146.144 59.242L146.814 59.2773ZM145.193 90.0773L144.523 90.042L144.523 90.0438L145.193 90.0773ZM135.377 126.731L134.837 126.333L134.836 126.334L135.377 126.731ZM124.93 135.287L125.201 135.901L125.205 135.899L124.93 135.287ZM491.108 37.303H491.779V36.632H491.108V37.303ZM491.108 59.2773V59.9483H491.779V59.2773H491.108ZM449.321 59.2773V58.6063H448.65V59.2773H449.321ZM422.393 37.303V36.632H421.722V37.303H422.393ZM595.936 3.80117H596.607V3.13018H595.936V3.80117ZM567.658 30.7287H568.329V30.0577H567.658V30.7287ZM566.847 30.7287V30.0577H566.653L566.489 30.1616L566.847 30.7287ZM536.228 50.0913H535.557V51.3095L536.586 50.6584L536.228 50.0913ZM536.228 24.8749L535.867 24.3087L535.557 24.5064V24.8749H536.228ZM569.369 3.80117V3.13018H569.174L569.009 3.23495L569.369 3.80117ZM833.151 37.303L833.746 36.9944L833.559 36.632H833.151V37.303ZM851.433 72.6059L850.837 72.9145L851.421 74.0429L852.023 72.924L851.433 72.6059ZM870.435 37.303V36.632H870.034L869.844 36.9849L870.435 37.303ZM899.164 37.303L899.744 37.639L900.327 36.632H899.164V37.303ZM869.985 87.7358L869.404 87.3997L869.207 87.7405L869.408 88.0789L869.985 87.7358ZM851.433 103.226L852.025 102.91L851.428 101.793L850.839 102.914L851.433 103.226ZM833.151 87.7358L833.727 88.0796L833.928 87.7426L833.733 87.4021L833.151 87.7358ZM804.242 37.303V36.632H803.084L803.66 37.6367L804.242 37.303ZM103.086 137.986L102.996 115.921L101.654 115.927L101.744 137.991L103.086 137.986ZM102.325 116.595H105.657V115.253H102.325V116.595ZM105.67 116.595C109.012 116.532 111.772 115.389 113.891 113.142L112.914 112.222C111.07 114.178 108.667 115.196 105.645 115.253L105.67 116.595ZM113.884 113.15C116.057 110.912 117.622 107.25 118.652 102.281L117.338 102.009C116.327 106.886 114.83 110.249 112.921 112.214L113.884 113.15ZM118.651 102.287C119.744 97.2481 120.437 90.4788 120.737 81.9958L119.396 81.9482C119.097 90.3963 118.408 97.0757 117.34 102.003L118.651 102.287ZM120.737 81.9977L122.448 37.3287L121.107 37.2773L119.396 81.9463L120.737 81.9977ZM121.778 37.974H198.238V36.632H121.778V37.974ZM197.567 37.303V137.988H198.909V37.303H197.567ZM171.67 58.6063H146.814V59.9483H171.67V58.6063ZM146.144 59.242L144.523 90.042L145.863 90.1126L147.484 59.3125L146.144 59.242ZM144.523 90.0438C144.104 98.4169 143.088 105.602 141.483 111.608L142.779 111.955C144.416 105.833 145.441 98.5486 145.863 90.1108L144.523 90.0438ZM141.483 111.608C139.878 117.614 137.657 122.514 134.837 126.333L135.917 127.13C138.861 123.143 141.143 118.077 142.779 111.955L141.483 111.608ZM134.836 126.334C132.079 130.088 128.687 132.863 124.655 134.675L125.205 135.899C129.459 133.988 133.031 131.059 135.918 127.128L134.836 126.334ZM124.659 134.673C120.677 136.43 116.059 137.317 110.791 137.317V138.659C116.209 138.659 121.018 137.746 125.201 135.901L124.659 134.673ZM110.791 137.317H102.415V138.659H110.791V137.317ZM490.437 37.303V59.2773H491.779V37.303H490.437ZM491.108 58.6063H449.321V59.9483H491.108V58.6063ZM448.65 59.2773V137.988H449.992V59.2773H448.65ZM422.393 37.974H491.108V36.632H422.393V37.974ZM568.329 137.988V30.7287H566.987V137.988H568.329ZM567.658 30.0577H566.847V31.3997H567.658V30.0577ZM566.489 30.1616L535.869 49.5242L536.586 50.6584L567.206 31.2958L566.489 30.1616ZM536.898 50.0913V24.8749H535.557V50.0913H536.898ZM536.588 25.4411L569.729 4.36739L569.009 3.23495L535.867 24.3087L536.588 25.4411ZM569.369 4.47217H595.936V3.13018H569.369V4.47217ZM832.555 37.6115L850.837 72.9145L852.028 72.2974L833.746 36.9944L832.555 37.6115ZM852.023 72.924L871.026 37.621L869.844 36.9849L850.842 72.2879L852.023 72.924ZM870.435 37.974H899.164V36.632H870.435V37.974ZM898.583 36.9669L869.404 87.3997L870.565 88.0718L899.744 37.639L898.583 36.9669ZM869.408 88.0789L899.307 138.332L900.461 137.645L870.561 87.3927L869.408 88.0789ZM803.737 138.332L833.727 88.0796L832.574 87.3919L802.585 137.645L803.737 138.332ZM833.733 87.4021L804.824 36.9693L803.66 37.6367L832.568 88.0695L833.733 87.4021ZM804.242 37.974H833.151V36.632H804.242V37.974ZM170.999 59.2773V137.988H172.341V59.2773H170.999ZM421.722 37.303V137.988H423.064V37.303H421.722ZM595.265 3.80117V137.988H596.607V3.80117H595.265ZM850.839 102.914L832.557 137.676L833.745 138.301L852.026 103.538L850.839 102.914ZM850.841 103.542L869.393 138.304L870.577 137.673L852.025 102.91L850.841 103.542ZM24.9649 133.395L24.2731 134.545L24.28 134.55L24.9649 133.395ZM7.94387 115.114L6.74726 115.721L6.74916 115.725L7.94387 115.114ZM7.94387 60.8983L6.75097 60.2835L6.74726 60.2908L7.94387 60.8983ZM74.4071 40.8153L73.8203 42.0221L73.8246 42.0242L74.4071 40.8153ZM96.3814 74.5872V75.9292H97.7868L97.722 74.5254L96.3814 74.5872ZM70.0843 74.5872L68.7558 74.777L68.9204 75.9292H70.0843V74.5872ZM40.455 61.3486L41.237 62.4392L41.2407 62.4365L40.455 61.3486ZM32.9802 71.5252L31.7341 71.0268L31.7307 71.0356L32.9802 71.5252ZM32.9802 104.126L31.7263 104.605L31.7291 104.612L31.7319 104.619L32.9802 104.126ZM40.455 114.573L39.6466 115.644L39.6562 115.652L40.455 114.573ZM63.9603 113.673L64.8631 114.666L64.8728 114.657L63.9603 113.673ZM70.0843 101.064V99.7225H68.9241L68.7564 100.87L70.0843 101.064ZM96.3814 101.064L97.7214 101.138L97.7988 99.7225H96.3814V101.064ZM90.1674 121.418L91.2981 122.14L91.3014 122.135L90.1674 121.418ZM74.7673 135.107L75.3631 136.309L75.3719 136.305L74.7673 135.107ZM216.52 115.744L215.323 116.352L215.329 116.363L216.52 115.744ZM216.52 60.8983L215.327 60.2835L215.323 60.2908L216.52 60.8983ZM233.451 42.6164L232.762 41.4648L232.757 41.4674L233.451 42.6164ZM277.849 39.2843L277.378 40.5409L277.39 40.5451L277.849 39.2843ZM292.979 48.8305L292.037 49.786L292.044 49.7927L292.979 48.8305ZM303.066 64.7708L301.809 65.2408L301.81 65.2446L303.066 64.7708ZM306.668 94.7603V96.1023H308.01V94.7603H306.668ZM221.653 94.7603H220.311V96.1023H221.653V94.7603ZM221.653 77.5592V76.2172H220.311V77.5592H221.653ZM293.159 77.5592L293.6 78.8269L293.159 76.2172V77.5592ZM280.191 82.0621H278.849V83.9486L280.631 83.3298L280.191 82.0621ZM270.825 59.9977L270.066 61.1042L270.078 61.1127L270.09 61.1209L270.825 59.9977ZM247.77 59.9977L247.03 58.8778L247.021 58.8844L247.77 59.9977ZM240.925 107.188L239.721 107.781L239.725 107.789L240.925 107.188ZM248.941 116.104L248.238 117.248L248.25 117.255L248.262 117.262L248.941 116.104ZM275.868 113.853L274.951 112.873L274.943 112.88L274.935 112.888L275.868 113.853ZM280.011 107.549L280.1 106.21L279.096 106.143L278.751 107.088L280.011 107.549ZM305.768 109.26L307.083 109.528L307.389 108.023L305.857 107.921L305.768 109.26ZM297.842 125.47L296.83 124.589L296.829 124.59L297.842 125.47ZM282.442 136.187L282.941 137.433L282.951 137.429L282.442 136.187ZM388.531 76.5685H389.873V75.2265H388.531V76.5685ZM388.531 98.3627V99.7047H389.873V98.3627H388.531ZM336.027 98.3627H334.685V99.7047H336.027V98.3627ZM336.027 76.5685V75.2265H334.685V76.5685H336.027ZM345.213 37.303H346.555V35.961H345.213V37.303ZM345.213 137.988V139.33H346.555V137.988H345.213ZM318.646 137.988H317.304V139.33H318.646V137.988ZM318.646 37.303V35.961H317.304V37.303H318.646ZM406.003 37.303H407.345V35.961H406.003V37.303ZM406.003 137.988V139.33H407.345V137.988H406.003ZM379.616 137.988H378.274V139.33H379.616V137.988ZM379.616 37.303V35.961H378.274V37.303H379.616ZM635.742 131.684L634.988 132.795L634.998 132.801L635.742 131.684ZM617.19 108.179L615.951 108.694L615.955 108.702L617.19 108.179ZM617.28 33.8807L618.517 34.4015L618.518 34.3989L617.28 33.8807ZM635.832 10.1953L635.082 9.08254L635.078 9.08514L635.832 10.1953ZM694.19 10.1953L693.436 11.3055L693.44 11.3081L694.19 10.1953ZM712.742 33.7907L711.503 34.3053L711.506 34.3115L712.742 33.7907ZM712.832 108.179L714.071 108.696L714.072 108.694L712.832 108.179ZM694.28 131.684L695.029 132.798L695.03 132.797L694.28 131.684ZM678.79 111.151L679.707 112.131L679.708 112.131L678.79 111.151ZM687.346 95.6609L686.058 95.2847L686.055 95.2953L687.346 95.6609ZM687.346 46.2188L686.055 46.5844L686.058 46.595L687.346 46.2188ZM678.79 30.7287L677.857 31.693L677.865 31.7007L677.873 31.7082L678.79 30.7287ZM646.279 37.303L647.454 37.9524L647.456 37.9487L646.279 37.303ZM642.587 95.6609L641.295 96.0266L641.299 96.0371L642.587 95.6609ZM651.232 111.151L650.315 112.131L650.323 112.138L651.232 111.151ZM796.227 71.8855H797.569V70.5435H796.227V71.8855ZM796.227 94.0399V95.3819H797.569V94.0399H796.227ZM734.987 94.0399H733.645V95.3819H734.987V94.0399ZM734.987 71.8855V70.5435H733.645V71.8855H734.987ZM51.4422 138.628C41.3692 138.628 32.7901 136.479 25.6499 132.241L24.28 134.55C31.9094 139.077 40.9818 141.312 51.4422 141.312V138.628ZM25.6568 132.246C18.4887 127.933 12.9882 122.027 9.13857 114.502L6.74916 115.725C10.8247 123.691 16.6716 129.972 24.2731 134.545L25.6568 132.246ZM9.14047 114.506C5.28816 106.918 3.34199 98.1266 3.34199 88.096H0.658012C0.658012 98.4787 2.67442 107.699 6.74726 115.721L9.14047 114.506ZM3.34199 88.096C3.34199 77.9426 5.28922 69.0916 9.14047 61.5058L6.74726 60.2908C2.67336 68.3152 0.658012 77.596 0.658012 88.096H3.34199ZM9.13675 61.5131C13.0467 53.9266 18.5768 48.0218 25.7399 43.7705L24.3701 41.4624C16.7636 45.9768 10.8862 52.2599 6.75099 60.2835L9.13675 61.5131ZM25.7399 43.7705C32.8814 39.5321 41.4308 37.3841 51.4422 37.3841V34.7002C41.0402 34.7002 31.9983 36.9351 24.3701 41.4624L25.7399 43.7705ZM51.4422 37.3841C60.0456 37.3841 67.4925 38.9453 73.8203 42.0221L74.9939 39.6084C68.2332 36.321 60.3701 34.7002 51.4422 34.7002V37.3841ZM73.8246 42.0242C80.2256 45.1084 85.2593 49.4263 88.9607 54.9784L91.1939 53.4896C87.2103 47.5142 81.7972 42.8863 74.9896 39.6063L73.8246 42.0242ZM88.9607 54.9784C92.6512 60.5142 94.6904 67.0557 95.0408 74.6491L97.722 74.5254C97.352 66.5085 95.1884 59.4813 91.1939 53.4896L88.9607 54.9784ZM96.3814 73.2452H70.0843V75.9292H96.3814V73.2452ZM71.4128 74.3974C70.9101 70.8785 69.835 67.7554 68.1633 65.0551L65.8813 66.4678C67.3317 68.8108 68.2979 71.5716 68.7558 74.777L71.4128 74.3974ZM68.1633 65.0551C66.4796 62.3352 64.2341 60.2182 61.4412 58.7243L60.1753 61.091C62.5458 62.3589 64.443 64.1444 65.8813 66.4678L68.1633 65.0551ZM61.4412 58.7243C58.6343 57.223 55.4081 56.4943 51.8024 56.4943V59.1783C55.0412 59.1783 57.8188 59.8306 60.1753 61.091L61.4412 58.7243ZM51.8024 56.4943C47.2216 56.4943 43.1589 57.7404 39.6693 60.2607L41.2407 62.4365C44.2354 60.2737 47.7376 59.1783 51.8024 59.1783V56.4943ZM39.6731 60.258C36.2384 62.7206 33.6077 66.343 31.7341 71.0268L34.2262 72.0236C35.955 67.7016 38.3075 64.5396 41.237 62.4392L39.6731 60.258ZM31.7307 71.0356C29.9118 75.677 29.0265 81.2568 29.0265 87.7358H31.7104C31.7104 81.4865 32.5663 76.2592 34.2296 72.0149L31.7307 71.0356ZM29.0265 87.7358C29.0265 94.2164 29.9122 99.8506 31.7263 104.605L34.234 103.648C32.5658 99.2763 31.7104 93.9834 31.7104 87.7358H29.0265ZM31.7319 104.619C33.6028 109.359 36.2266 113.063 39.6466 115.644L41.2634 113.502C38.3193 111.28 35.9598 108.02 34.2284 103.634L31.7319 104.619ZM39.6562 115.652C43.1464 118.237 47.2138 119.518 51.8024 119.518V116.834C47.7454 116.834 44.2479 115.713 41.2538 113.495L39.6562 115.652ZM51.8024 119.518C56.9116 119.518 61.2941 117.91 64.863 114.666L63.0576 112.68C60.0223 115.439 56.2994 116.834 51.8024 116.834V119.518ZM64.8728 114.657C68.4419 111.347 70.5966 106.842 71.4122 101.258L68.7564 100.87C68.011 105.974 66.083 109.874 63.0478 112.689L64.8728 114.657ZM70.0843 102.406H96.3814V99.7225H70.0843V102.406ZM95.0414 100.991C94.6323 108.472 92.6206 115.03 89.0333 120.7L91.3014 122.135C95.1589 116.038 97.29 109.027 97.7214 101.138L95.0414 100.991ZM89.0366 120.695C85.4517 126.304 80.5057 130.708 74.1628 133.908L75.3719 136.305C82.1175 132.901 87.4381 128.179 91.2981 122.14L89.0366 120.695ZM74.1716 133.904C67.8507 137.036 60.2886 138.628 51.4422 138.628V141.312C60.6074 141.312 68.5955 139.662 75.3631 136.309L74.1716 133.904ZM260.558 138.628C250.415 138.628 241.734 136.565 234.467 132.495L233.155 134.837C240.897 139.172 250.048 141.312 260.558 141.312V138.628ZM234.467 132.495C227.194 128.422 221.614 122.642 217.711 115.125L215.329 116.363C219.47 124.336 225.418 130.504 233.155 134.837L234.467 132.495ZM217.716 115.136C213.868 107.556 211.918 98.5564 211.918 88.096H209.234C209.234 98.8894 211.246 108.322 215.323 116.352L217.716 115.136ZM211.918 88.096C211.918 77.9426 213.865 69.0916 217.716 61.5058L215.323 60.2908C211.249 68.3152 209.234 77.596 209.234 88.096H211.918ZM217.712 61.5131C221.625 53.9208 227.1 48.0153 234.144 43.7655L232.757 41.4674C225.272 45.9832 219.459 52.2656 215.327 60.2835L217.712 61.5131ZM234.14 43.768C241.226 39.5279 249.566 37.3841 259.207 37.3841V34.7002C249.156 34.7002 240.325 36.9393 232.762 41.4648L234.14 43.768ZM259.207 37.3841C265.724 37.3841 271.777 38.4404 277.378 40.5408L278.321 38.0277C272.394 35.8053 266.019 34.7002 259.207 34.7002V37.3841ZM277.39 40.5451C282.975 42.5812 287.853 45.6599 292.037 49.786L293.922 47.8749C289.46 43.4755 284.252 40.1901 278.309 38.0234L277.39 40.5451ZM292.044 49.7927C296.206 53.8392 299.467 58.9768 301.809 65.2407L304.323 64.3009C301.861 57.7165 298.398 52.2272 293.915 47.8683L292.044 49.7927ZM301.81 65.2446C304.142 71.4235 305.326 78.731 305.326 87.1954H308.01C308.01 78.4887 306.793 70.8465 304.321 64.297L301.81 65.2446ZM305.326 87.1954V94.7603H308.01V87.1954H305.326ZM306.668 93.4184H221.653V96.1023H306.668V93.4184ZM222.995 94.7603V77.5592H220.311V94.7603H222.995ZM221.653 78.9011H293.159V76.2172H221.653V78.9011ZM292.719 76.2914L279.751 80.7943L280.631 83.3298L293.6 78.8269L292.719 76.2914ZM281.533 82.0621C281.533 76.8251 280.732 72.201 279.09 68.2215L276.609 69.2454C278.089 72.8307 278.849 77.0925 278.849 82.0621H281.533ZM279.09 68.2215C277.436 64.2142 274.93 61.0783 271.559 58.8745L270.09 61.1209C272.964 62.9999 275.141 65.6877 276.609 69.2454L279.09 68.2215ZM271.584 58.8912C268.252 56.6045 264.159 55.5037 259.387 55.5037V58.1877C263.742 58.1877 267.274 59.1882 270.066 61.1042L271.584 58.8912ZM259.387 55.5037C254.614 55.5037 250.472 56.6052 247.03 58.8779L248.509 61.1176C251.432 59.1875 255.035 58.1877 259.387 58.1877V55.5037ZM247.021 58.8844C243.685 61.1297 241.127 64.1755 239.349 67.9858L241.781 69.1208C243.365 65.7264 245.611 63.0685 248.519 61.111L247.021 58.8844ZM239.349 67.9858C237.572 71.7947 236.702 76.1368 236.702 80.9814H239.386C239.386 76.4598 240.197 72.5166 241.781 69.1208L239.349 67.9858ZM236.702 80.9814V93.1393H239.386V80.9814H236.702ZM236.702 93.1393C236.702 98.7571 237.689 103.653 239.721 107.781L242.129 106.596C240.319 102.919 239.386 98.4486 239.386 93.1393H236.702ZM239.725 107.789C241.75 111.839 244.588 115.006 248.238 117.248L249.643 114.961C246.449 113 243.943 110.223 242.126 106.588L239.725 107.789ZM248.262 117.262C251.973 119.437 256.205 120.508 260.918 120.508V117.824C256.626 117.824 252.873 116.854 249.619 114.946L248.262 117.262ZM260.918 120.508C264.169 120.508 267.147 120.039 269.835 119.079L268.933 116.552C266.578 117.393 263.912 117.824 260.918 117.824V120.508ZM269.835 119.079C272.524 118.119 274.853 116.701 276.801 114.818L274.935 112.888C273.281 114.487 271.287 115.711 268.933 116.552L269.835 119.079ZM276.785 114.833C278.804 112.944 280.3 110.663 281.271 108.01L278.751 107.088C277.92 109.357 276.655 111.279 274.951 112.873L276.785 114.833ZM279.922 108.888L305.679 110.599L305.857 107.921L280.1 106.21L279.922 108.888ZM304.453 108.992C303.237 114.956 300.696 120.147 296.83 124.589L298.855 126.351C303.034 121.548 305.777 115.932 307.083 109.528L304.453 108.992ZM296.829 124.59C293.021 128.976 288.069 132.433 281.934 134.945L282.951 137.429C289.424 134.778 294.739 131.091 298.856 126.35L296.829 124.59ZM281.944 134.941C275.829 137.387 268.709 138.628 260.558 138.628V141.312C268.978 141.312 276.448 140.031 282.941 137.433L281.944 134.941ZM387.189 76.5685V98.3627H389.873V76.5685H387.189ZM388.531 97.0207H336.027V99.7047H388.531V97.0207ZM337.369 98.3627V76.5685H334.685V98.3627H337.369ZM336.027 77.9105H388.531V75.2265H336.027V77.9105ZM343.871 37.303V137.988H346.555V37.303H343.871ZM345.213 136.646H318.646V139.33H345.213V136.646ZM319.988 137.988V37.303H317.304V137.988H319.988ZM318.646 38.645H345.213V35.961H318.646V38.645ZM404.661 37.303V137.988H407.345V37.303H404.661ZM406.003 136.646H379.616V139.33H406.003V136.646ZM380.958 137.988V37.303H378.274V137.988H380.958ZM379.616 38.645H406.003V35.961H379.616V38.645ZM665.011 138.448C653.823 138.448 644.336 135.801 636.487 130.568L634.998 132.801C643.359 138.375 653.385 141.132 665.011 141.132V138.448ZM636.496 130.574C628.693 125.275 622.662 117.659 618.426 107.656L615.955 108.702C620.364 119.113 626.701 127.166 634.988 132.795L636.496 130.574ZM618.43 107.664C614.252 97.6026 612.138 85.3893 612.138 70.9849H609.454C609.454 85.6393 611.603 98.2222 615.951 108.694L618.43 107.664ZM612.138 70.9849C612.138 56.6433 614.281 44.4621 618.517 34.4015L616.043 33.36C611.634 43.8328 609.454 56.3876 609.454 70.9849H612.138ZM618.518 34.3989C622.756 24.2751 628.787 16.6017 636.586 11.3055L635.078 9.08514C626.787 14.716 620.45 22.833 616.042 33.3625L618.518 34.3989ZM636.582 11.3081C644.432 6.01685 653.887 3.34199 665.011 3.34199V0.658012C653.441 0.658012 643.443 3.4467 635.082 9.08255L636.582 11.3081ZM665.011 3.34199C676.198 3.34199 685.65 6.01772 693.436 11.3055L694.944 9.08514C686.64 3.44583 676.64 0.658012 665.011 0.658012V3.34199ZM693.44 11.3081C701.298 16.6051 707.327 24.2473 711.503 34.3053L713.982 33.2761C709.632 22.8007 703.293 14.7127 694.94 9.08255L693.44 11.3081ZM711.506 34.3115C715.741 44.3714 717.885 56.5824 717.885 70.9849H720.569C720.569 56.3284 718.389 43.7433 713.979 33.2699L711.506 34.3115ZM717.885 70.9849C717.885 85.3893 715.771 97.6026 711.593 107.664L714.072 108.694C718.42 98.2222 720.569 85.6393 720.569 70.9849H717.885ZM711.594 107.662C707.419 117.659 701.39 125.273 693.53 130.572L695.03 132.797C703.381 127.168 709.721 119.112 714.071 108.696L711.594 107.662ZM693.532 130.57C685.746 135.8 676.262 138.448 665.011 138.448V141.132C676.695 141.132 686.724 138.376 695.029 132.798L693.532 130.57ZM665.011 117.716C670.789 117.716 675.717 115.864 679.707 112.131L677.874 110.171C674.419 113.403 670.161 115.032 665.011 115.032V117.716ZM679.708 112.131C683.721 108.372 686.672 102.964 688.637 96.0266L686.055 95.2953C684.177 101.926 681.424 106.846 677.873 110.171L679.708 112.131ZM688.634 96.0371C690.661 89.095 691.66 80.7352 691.66 70.9849H688.976C688.976 80.5671 687.993 88.6581 686.058 95.2847L688.634 96.0371ZM691.66 70.9849C691.66 61.1754 690.662 52.7854 688.634 45.8426L686.058 46.595C687.993 53.221 688.976 61.3417 688.976 70.9849H691.66ZM688.637 45.8531C686.672 38.9155 683.721 33.508 679.708 29.7492L677.873 31.7082C681.424 35.0339 684.177 39.9532 686.055 46.5844L688.637 45.8531ZM679.724 29.7643C675.736 25.9055 670.802 23.9832 665.011 23.9832V26.6672C670.148 26.6672 674.4 28.3472 677.857 31.693L679.724 29.7643ZM665.011 23.9832C656.347 23.9832 649.686 28.3074 645.103 36.6573L647.456 37.9487C651.638 30.3282 657.466 26.6672 665.011 26.6672V23.9832ZM645.105 36.6535C640.565 44.8629 638.363 56.3515 638.363 70.9849H641.047C641.047 56.5593 643.228 45.5933 647.454 37.9524L645.105 36.6535ZM638.363 70.9849C638.363 80.7325 639.331 89.0884 641.296 96.0266L643.878 95.2953C642 88.6646 641.047 80.5698 641.047 70.9849H638.363ZM641.299 96.0371C643.324 102.972 646.305 108.375 650.315 112.131L652.15 110.171C648.595 106.843 645.812 101.919 643.875 95.2847L641.299 96.0371ZM650.323 112.138C654.367 115.861 659.29 117.716 665.011 117.716V115.032C659.926 115.032 655.662 113.405 652.141 110.164L650.323 112.138ZM794.885 71.8855V94.0399H797.569V71.8855H794.885ZM796.227 92.6979H734.987V95.3819H796.227V92.6979ZM736.329 94.0399V71.8855H733.645V94.0399H736.329ZM734.987 73.2274H796.227V70.5435H734.987V73.2274Z" fill="#131313" mask="url(#path-11-outside-1_501_5042)"/>
</svg>
