<svg width="360" height="200" viewBox="0 0 360 200" fill="none" xmlns="http://www.w3.org/2000/svg">
<path d="M-39.4996 84.4999C-50.3192 97.6353 -54.3754 116.031 -48.9993 132.5C-41.5674 155.266 -13.9345 160 10 160C15.0667 160 32.0494 156.538 40.5 151.5C50.4132 143.862 77.5 126 76 102M93.5 70.9999C104.028 43.5734 115.325 25.4385 132.389 14.3877C149.453 3.33685 164.679 4.47444 177.73 4.47444C187.643 6.42459 194.322 10.5262 201.298 18.288V18.288C213.453 31.8112 201.799 51.0668 191.442 66.0113C189.933 68.1882 188.842 69.9726 188.5 70.9999M181.5 104C169.962 123.989 162.129 128.959 151.24 142.285C147.414 153.866 146.654 170.815 158.553 182.913C172.179 192.54 174.155 194.289 191.868 197.864C210.557 198.839 212.561 200.711 234.5 196.779C251.726 193.691 268.987 184.64 274.585 179.629C283.113 171.997 294.631 158.001 297.5 145C302.7 121.436 292.701 91.4957 281 68.4999C273.842 47.78 277.229 34.4999 281 25.4999C284.771 16.4999 289.5 11.5 301.5 7.5C316.593 2.46886 361.206 7.67347 365.756 29.6126" stroke="#131313" stroke-width="0.487537" stroke-linecap="round"/>
<circle cx="156.603" cy="5.28695" r="1.46261" fill="#131313"/>
<ellipse cx="191.314" cy="197.701" rx="1.39596" ry="1.3001" fill="#131313"/>
<ellipse cx="293.948" cy="154.635" rx="1.39596" ry="1.3001" fill="#131313"/>
</svg>
