<svg width="1310" height="758" viewBox="0 0 1310 758" fill="none" xmlns="http://www.w3.org/2000/svg">
<circle cx="34.3086" cy="347.421" r="4" fill="#131313"/>
<path d="M47.0859 89.7541C95.5691 39.6896 164.114 1.4209 242.564 1.4209C275.615 1.4209 305.087 4.31706 326.809 26.9209C339.598 40.2297 357.809 89.7541 308.91 118.921C308.91 118.921 128.809 210.921 63.8085 299.921C-1.19221 388.921 -12.3441 451.741 14.81 534.921C34.8866 596.421 138.018 617.299 211.657 617.299C227.245 617.299 242.834 617.299 258.423 617.299C276.029 617.299 292.719 609.942 308.91 604.486C421.488 559.439 437.808 479.921 442.308 347.921M442.308 246.921C442.308 180.421 494.716 102.798 549.051 71.215C583.666 51.095 626.055 52.9486 666.209 52.9486C702.516 52.9486 718.858 62.3294 740.322 86.2099C770.874 120.202 738.309 273.421 725.309 299.921M703.309 348.421C656.809 436.921 577.076 487.404 567.309 589.421C559.697 668.921 622.809 704.599 684.809 701.921C740.309 699.523 758.189 680.494 795.809 660.921C823.809 641.921 841.81 627.921 858.309 608.421C867.026 598.119 891.81 567.421 895.309 560.421C952.809 479.421 971.809 412.921 976.309 347.921M1308.31 619.753C1308.31 636.497 1290.45 651.709 1274.33 659.558C1233.11 679.618 1179.97 688.341 1162.67 641.291C1141.01 582.387 1218.12 518.421 1243.89 479.421C1276.63 437.421 1276.27 424.421 1290.06 388.921C1305.78 348.421 1304.06 279.421 1299.31 247.421C1289.21 179.421 1258.57 134.172 1194.81 94.9209C1159.38 73.1076 1136.31 64.4209 1086.81 64.4209C1004.83 78.0526 966.309 153.421 979.809 247.421" stroke="#131313" stroke-width="1.5" stroke-linecap="round"/>
<ellipse cx="47.2053" cy="90.4209" rx="3.75808" ry="4" fill="#131313"/>
<circle cx="161.309" cy="614.421" r="4" fill="#131313"/>
<circle cx="526.309" cy="86.4209" r="4" fill="#131313"/>
<ellipse cx="751.039" cy="685.421" rx="4.29495" ry="4" fill="#131313"/>
<ellipse cx="1087.61" cy="65.4209" rx="4.29495" ry="4" fill="#131313"/>
<ellipse cx="1290.06" cy="389.421" rx="4.29495" ry="4" fill="#131313"/>
<ellipse cx="1294.35" cy="647.421" rx="4.29495" ry="4" fill="#131313"/>
</svg>
