<svg width="1028" height="170" viewBox="0 0 1028 170" fill="none" xmlns="http://www.w3.org/2000/svg">
<mask id="path-1-outside-1_1089_29240" maskUnits="userSpaceOnUse" x="0" y="0" width="1026" height="170" fill="black">
<rect fill="white" width="1026" height="170"/>
<path d="M60.6464 104.164L87.5223 35.1054H108.614L69.9017 134.6H51.5691L13.6581 35.1054H34.5714L60.6464 104.164ZM28.2529 35.1054V134.6H2V35.1054H28.2529ZM94.4638 134.6V35.1054H120.361V134.6H94.4638ZM181.321 136.557C171.294 136.557 162.603 134.422 155.246 130.15C147.949 125.819 142.312 119.827 138.337 112.173C134.422 104.461 132.464 95.502 132.464 85.2975C132.464 74.9743 134.422 65.986 138.337 58.3326C142.312 50.6199 147.949 44.6277 155.246 40.356C162.603 36.025 171.294 33.8595 181.321 33.8595C191.407 33.8595 200.098 36.025 207.396 40.356C214.753 44.6277 220.389 50.6199 224.305 58.3326C228.28 65.986 230.267 74.9743 230.267 85.2975C230.267 95.502 228.28 104.461 224.305 112.173C220.389 119.827 214.753 125.819 207.396 130.15C200.098 134.422 191.407 136.557 181.321 136.557ZM181.499 115.021C186.067 115.021 189.894 113.746 192.979 111.194C196.064 108.584 198.378 105.024 199.921 100.515C201.522 96.0063 202.323 90.8744 202.323 85.1195C202.323 79.3053 201.522 74.1733 199.921 69.7237C198.378 65.274 196.064 61.7736 192.979 59.2225C189.894 56.6714 186.067 55.3958 181.499 55.3958C176.871 55.3958 172.985 56.6714 169.841 59.2225C166.756 61.7736 164.412 65.274 162.81 69.7237C161.268 74.1733 160.497 79.3053 160.497 85.1195C160.497 90.8744 161.268 96.0063 162.81 100.515C164.412 105.024 166.756 108.584 169.841 111.194C172.985 113.746 176.871 115.021 181.499 115.021ZM269.691 112.796H307.157V56.3747H280.37L279.302 67.7658C278.59 78.3857 277.552 87.4036 276.188 94.8197C274.823 102.176 272.657 108.169 269.691 112.796ZM395.082 117.424C399.117 117.424 402.676 116.623 405.761 115.021C408.906 113.36 411.338 111.165 413.059 108.436C414.839 105.647 415.729 102.532 415.729 99.0914V88.5012C414.898 89.0352 413.711 89.5395 412.169 90.0141C410.686 90.4887 409.024 90.904 407.185 91.26C405.346 91.616 403.507 91.9423 401.668 92.2389C399.828 92.4762 398.167 92.7136 396.684 92.9509C393.421 93.4255 390.573 94.1968 388.141 95.2647C385.708 96.2733 383.81 97.6675 382.445 99.4474C381.14 101.168 380.487 103.333 380.487 105.944C380.487 109.682 381.852 112.529 384.581 114.487C387.31 116.445 390.811 117.424 395.082 117.424ZM523.855 136.468C517.566 136.468 511.9 135.371 506.857 133.176C501.874 130.921 497.958 127.599 495.11 123.209C492.263 118.818 490.839 113.36 490.839 106.834C490.839 101.257 491.847 96.6292 493.864 92.9509C495.882 89.2132 498.64 86.1874 502.141 83.8736C505.641 81.5598 509.616 79.8096 514.066 78.623C518.516 77.4364 523.232 76.6058 528.216 76.1312C533.971 75.5972 538.598 75.0633 542.099 74.5293C545.599 73.9954 548.15 73.1944 549.752 72.1265C551.413 70.9993 552.244 69.3974 552.244 67.3209V66.8759C552.244 62.7822 550.939 59.6082 548.328 57.3537C545.777 55.0992 542.158 53.9719 537.471 53.9719C532.547 53.9719 528.601 55.0695 525.635 57.2647C522.728 59.4005 520.8 62.1296 519.85 65.452L494.309 63.4052C495.615 57.3537 498.166 52.1327 501.963 47.7424C505.76 43.2928 510.654 39.8814 516.647 37.5082C522.698 35.0757 529.699 33.8595 537.649 33.8595C543.167 33.8595 548.447 34.5121 553.49 35.8174C558.533 37.1226 563.012 39.1398 566.928 41.8689C570.903 44.5387 574.047 48.0094 576.361 52.2811C578.675 56.5527 579.832 61.6253 579.832 67.4989V134.6H553.579V120.717H552.867C551.265 123.861 549.129 126.62 546.459 128.993C543.79 131.307 540.586 133.146 536.848 134.511C533.11 135.816 528.779 136.468 523.855 136.468ZM531.776 117.424C535.81 117.424 539.37 116.623 542.455 115.021C545.599 113.36 548.032 111.165 549.752 108.436C551.532 105.647 552.422 102.532 552.422 99.0914V88.5012C551.591 89.0352 550.405 89.5395 548.862 90.0141C547.379 90.4887 545.718 90.904 543.879 91.26C542.039 91.616 540.2 91.9423 538.361 92.2389C536.522 92.4762 534.861 92.7136 533.377 92.9509C530.114 93.4255 527.267 94.1968 524.834 95.2647C522.402 96.2733 520.503 97.6675 519.138 99.4474C517.833 101.168 517.181 103.333 517.181 105.944C517.181 109.682 518.545 112.529 521.274 114.487C524.003 116.445 527.504 117.424 531.776 117.424ZM718.127 65.808H747.94C761.111 65.7487 771.345 68.8634 778.642 75.1523C785.999 81.4411 789.707 89.8361 789.766 100.337C789.766 107.16 788.105 113.152 784.783 118.314C781.46 123.416 776.684 127.421 770.455 130.328C764.225 133.176 756.72 134.6 747.94 134.6H700.951V35.1054H727.204V112.885H747.94C752.508 112.885 756.275 111.728 759.242 109.415C762.208 107.101 763.721 104.134 763.78 100.515C763.721 96.6589 762.208 93.5145 759.242 91.082C756.275 88.6496 752.508 87.463 747.94 87.5223H718.127V65.808ZM849.303 168.417V2H876.801V168.417H849.303ZM849.303 136.557C841.709 136.557 834.737 135.312 828.389 132.82C822.1 130.328 816.672 126.828 812.104 122.319C807.535 117.75 804.005 112.322 801.513 106.033C799.022 99.744 797.776 92.8322 797.776 85.2975C797.776 77.7034 799.022 70.7619 801.513 64.4731C804.005 58.1249 807.535 52.6667 812.104 48.0984C816.672 43.5301 822.1 40.0297 828.389 37.5972C834.737 35.1054 841.709 33.8595 849.303 33.8595H854.464V136.557H849.303ZM849.303 115.021H852.417V55.3958H849.303C844.438 55.3958 840.255 56.7307 836.755 59.4005C833.314 62.0703 830.673 65.6597 828.834 70.1687C827.054 74.6776 826.164 79.7206 826.164 85.2975C826.164 89.4505 826.669 93.3365 827.677 96.9556C828.686 100.515 830.199 103.66 832.216 106.389C834.233 109.059 836.666 111.165 839.513 112.707C842.361 114.25 845.624 115.021 849.303 115.021ZM876.801 136.557H871.729V33.8595H876.801C884.455 33.8595 891.426 35.1054 897.715 37.5972C904.063 40.0297 909.521 43.5301 914.09 48.0984C918.658 52.6667 922.188 58.1249 924.68 64.4731C927.231 70.7619 928.506 77.7034 928.506 85.2975C928.506 92.8322 927.231 99.744 924.68 106.033C922.188 112.322 918.658 117.75 914.09 122.319C909.521 126.828 904.063 130.328 897.715 132.82C891.426 135.312 884.455 136.557 876.801 136.557ZM876.801 115.021C880.539 115.021 883.832 114.25 886.68 112.707C889.587 111.165 892.019 109.059 893.977 106.389C895.994 103.66 897.537 100.515 898.605 96.9556C899.673 93.3365 900.207 89.4505 900.207 85.2975C900.207 79.7206 899.287 74.6776 897.448 70.1687C895.609 65.6597 892.939 62.0703 889.438 59.4005C885.997 56.7307 881.785 55.3958 876.801 55.3958H873.865V115.021H876.801ZM976.919 117.424C980.953 117.424 984.513 116.623 987.598 115.021C990.742 113.36 993.175 111.165 994.895 108.436C996.675 105.647 997.565 102.532 997.565 99.0914V88.5012C996.734 89.0352 995.548 89.5395 994.005 90.0141C992.522 90.4887 990.861 90.904 989.022 91.26C987.182 91.616 985.343 91.9423 983.504 92.2389C981.665 92.4762 980.004 92.7136 978.52 92.9509C975.257 93.4255 972.41 94.1968 969.977 95.2647C967.545 96.2733 965.646 97.6675 964.282 99.4474C962.976 101.168 962.324 103.333 962.324 105.944C962.324 109.682 963.688 112.529 966.417 114.487C969.147 116.445 972.647 117.424 976.919 117.424Z"/>
</mask>
<path d="M234.539 112.796V112.133H233.876V112.796H234.539ZM242.192 112.796V113.459H242.393L242.56 113.348L242.192 112.796ZM247.532 106.211L248.13 106.498L248.132 106.493L247.532 106.211ZM250.913 95.5317L250.265 95.3927L250.264 95.3998L250.913 95.5317ZM252.96 82.1827L252.301 82.1086L252.301 82.1167L252.96 82.1827ZM254.295 67.7658L253.634 67.7118L253.634 67.7175L254.295 67.7658ZM256.965 35.1054V34.4424H256.354L256.304 35.0514L256.965 35.1054ZM333.143 35.1054H333.806V34.4424H333.143V35.1054ZM333.143 112.796H332.48V113.459H333.143V112.796ZM348.628 112.796H349.291V112.133H348.628V112.796ZM322.286 134.6H322.949V133.937H322.286V134.6ZM261.504 134.6V133.937H260.841V134.6H261.504ZM370.164 133.176L369.891 133.78L369.9 133.784L370.164 133.176ZM357.171 92.9509L357.753 93.2697L357.755 93.2658L357.171 92.9509ZM391.522 76.1312L391.461 75.471L391.46 75.4711L391.522 76.1312ZM413.059 72.1265L413.427 72.6782L413.431 72.6752L413.059 72.1265ZM411.635 57.3537L411.196 57.8505L411.202 57.8555L411.635 57.3537ZM388.942 57.2647L389.334 57.799L389.336 57.7977L388.942 57.2647ZM383.157 65.452L383.104 66.113L383.646 66.1563L383.795 65.6342L383.157 65.452ZM357.616 63.4052L356.968 63.2654L356.808 64.0056L357.563 64.0661L357.616 63.4052ZM365.27 47.7424L365.771 48.1762L365.774 48.1728L365.27 47.7424ZM379.953 37.5082L380.198 38.1247L380.201 38.1234L379.953 37.5082ZM430.234 41.8689L429.855 42.4129L429.865 42.4193L430.234 41.8689ZM416.886 120.717H417.549V120.054H416.886V120.717ZM416.174 120.717V120.054H415.767L415.583 120.416L416.174 120.717ZM409.766 128.993L410.2 129.494L410.207 129.489L409.766 128.993ZM400.155 134.511L400.373 135.137L400.382 135.133L400.155 134.511ZM589.977 134.6L589.314 134.602L589.317 135.263H589.977V134.6ZM589.888 112.796V112.133H589.222L589.225 112.799L589.888 112.796ZM593.181 112.796V113.459L593.193 113.459L593.181 112.796ZM600.834 109.593L600.358 109.131L600.352 109.138L600.834 109.593ZM605.373 99.1804L604.725 99.0399L604.724 99.0458L605.373 99.1804ZM607.42 79.2459L606.757 79.2206L606.757 79.2225L607.42 79.2459ZM609.11 35.1054V34.4424H608.472L608.448 35.08L609.11 35.1054ZM684.666 35.1054H685.329V34.4424H684.666V35.1054ZM658.413 56.8197H659.076V56.1567H658.413V56.8197ZM633.85 56.8197V56.1567H633.221L633.188 56.7849L633.85 56.8197ZM632.249 87.2553L631.586 87.2205L631.586 87.2222L632.249 87.2553ZM622.548 123.475L622.015 123.082L622.014 123.083L622.548 123.475ZM612.225 131.93L612.493 132.536L612.497 132.535L612.225 131.93ZM952.001 133.176L951.727 133.78L951.736 133.784L952.001 133.176ZM939.008 92.9509L939.589 93.2697L939.591 93.2658L939.008 92.9509ZM973.359 76.1312L973.298 75.471L973.296 75.4711L973.359 76.1312ZM994.895 72.1265L995.263 72.6782L995.268 72.6752L994.895 72.1265ZM993.471 57.3537L993.032 57.8505L993.038 57.8555L993.471 57.3537ZM970.778 57.2647L971.171 57.799L971.172 57.7977L970.778 57.2647ZM964.994 65.452L964.941 66.113L965.482 66.1563L965.631 65.6342L964.994 65.452ZM939.453 63.4052L938.804 63.2654L938.645 64.0056L939.4 64.0661L939.453 63.4052ZM947.106 47.7424L947.607 48.1762L947.61 48.1728L947.106 47.7424ZM961.79 37.5082L962.034 38.1247L962.037 38.1234L961.79 37.5082ZM1012.07 41.8689L1011.69 42.4129L1011.7 42.4193L1012.07 41.8689ZM998.722 120.717H999.385V120.054H998.722V120.717ZM998.01 120.717V120.054H997.604L997.419 120.416L998.01 120.717ZM991.602 128.993L992.037 129.494L992.043 129.489L991.602 128.993ZM981.991 134.511L982.21 135.137L982.219 135.133L981.991 134.511ZM234.539 113.459H242.192V112.133H234.539V113.459ZM242.56 113.348C244.819 111.842 246.668 109.542 248.13 106.498L246.934 105.924C245.547 108.813 243.837 110.903 241.824 112.245L242.56 113.348ZM248.132 106.493C249.583 103.409 250.725 99.7969 251.563 95.6635L250.264 95.3998C249.441 99.4538 248.328 102.961 246.932 105.929L248.132 106.493ZM251.562 95.6706C252.458 91.4908 253.143 87.0166 253.62 82.2487L252.301 82.1167C251.828 86.8415 251.149 91.2665 250.265 95.3927L251.562 95.6706ZM253.619 82.2568C254.154 77.5018 254.6 72.6876 254.957 67.8142L253.634 67.7175C253.279 72.574 252.834 77.371 252.301 82.1086L253.619 82.2568ZM254.956 67.8199L257.626 35.1594L256.304 35.0514L253.634 67.7118L254.956 67.8199ZM256.965 35.7685H333.143V34.4424H256.965V35.7685ZM332.48 35.1054V112.796H333.806V35.1054H332.48ZM333.143 113.459H348.628V112.133H333.143V113.459ZM347.965 112.796V163.7H349.291V112.796H347.965ZM322.286 133.937H261.504V135.263H322.286V133.937ZM260.841 134.6V163.7H262.167V134.6H260.841ZM387.162 135.805C380.951 135.805 375.377 134.722 370.429 132.568L369.9 133.784C375.037 136.02 380.795 137.132 387.162 137.132V135.805ZM370.437 132.572C365.564 130.367 361.749 127.127 358.973 122.848L357.861 123.569C360.781 128.071 364.797 131.476 369.891 133.78L370.437 132.572ZM358.973 122.848C356.211 118.589 354.808 113.264 354.808 106.834H353.482C353.482 113.456 354.928 119.048 357.861 123.569L358.973 122.848ZM354.808 106.834C354.808 101.333 355.804 96.8234 357.753 93.2697L356.59 92.6321C354.504 96.4351 353.482 101.181 353.482 106.834H354.808ZM357.755 93.2658C359.721 89.623 362.405 86.6795 365.813 84.4267L365.082 83.3205C361.489 85.6953 358.656 88.8033 356.588 92.636L357.755 93.2658ZM365.813 84.4267C369.248 82.1561 373.156 80.4336 377.543 79.2637L377.202 77.9823C372.69 79.1856 368.648 80.9635 365.082 83.3205L365.813 84.4267ZM377.543 79.2637C381.955 78.0873 386.635 77.2627 391.585 76.7913L391.46 75.4711C386.443 75.9489 381.69 76.7855 377.202 77.9823L377.543 79.2637ZM391.584 76.7914C397.345 76.2569 401.987 75.7215 405.505 75.1848L405.305 73.8738C401.823 74.405 397.21 74.9376 391.461 75.471L391.584 76.7914ZM405.505 75.1848C409.034 74.6465 411.702 73.8279 413.427 72.6782L412.691 71.5748C411.212 72.561 408.777 73.3442 405.305 73.8738L405.505 75.1848ZM413.431 72.6752C415.282 71.4195 416.214 69.6081 416.214 67.3209H414.888C414.888 69.1866 414.159 70.579 412.686 71.5778L413.431 72.6752ZM416.214 67.3209V66.8759H414.888V67.3209H416.214ZM416.214 66.8759C416.214 62.6291 414.852 59.2561 412.068 56.8518L411.202 57.8555C413.639 59.9603 414.888 62.9353 414.888 66.8759H416.214ZM412.074 56.8568C409.363 54.4607 405.565 53.3089 400.778 53.3089V54.635C405.364 54.635 408.805 55.7376 411.196 57.8505L412.074 56.8568ZM400.778 53.3089C395.759 53.3089 391.661 54.4278 388.547 56.7317L389.336 57.7977C392.156 55.7112 395.948 54.635 400.778 54.635V53.3089ZM388.549 56.7303C385.529 58.9491 383.511 61.7996 382.52 65.2699L383.795 65.6342C384.702 62.4596 386.54 59.852 389.334 57.799L388.549 56.7303ZM383.21 64.7911L357.669 62.7443L357.563 64.0661L383.104 66.113L383.21 64.7911ZM358.264 63.545C359.548 57.5947 362.052 52.4768 365.771 48.1762L364.768 47.3087C360.893 51.7887 358.295 57.1126 356.968 63.2654L358.264 63.545ZM365.774 48.1728C369.494 43.8136 374.296 40.4621 380.198 38.1247L379.709 36.8917C373.627 39.3006 368.639 42.7719 364.765 47.312L365.774 48.1728ZM380.201 38.1234C386.158 35.7286 393.072 34.5226 400.956 34.5226V33.1964C392.939 33.1964 385.851 34.4228 379.706 36.893L380.201 38.1234ZM400.956 34.5226C406.421 34.5226 411.645 35.1689 416.63 36.4593L416.963 35.1754C411.862 33.8554 406.526 33.1964 400.956 33.1964V34.5226ZM416.63 36.4593C421.604 37.7466 426.01 39.7327 429.855 42.4128L430.614 41.3249C426.628 38.5468 422.075 36.4986 416.963 35.1754L416.63 36.4593ZM429.865 42.4193C433.749 45.0284 436.821 48.4181 439.085 52.5969L440.251 51.9653C437.887 47.6007 434.67 44.0489 430.604 41.3185L429.865 42.4193ZM439.085 52.5969C441.336 56.7532 442.475 61.7127 442.475 67.4989H443.802C443.802 61.5379 442.627 56.3522 440.251 51.9653L439.085 52.5969ZM417.549 134.6V120.717H416.222V134.6H417.549ZM416.886 120.054H416.174V121.38H416.886V120.054ZM415.583 120.416C414.019 123.486 411.934 126.179 409.326 128.497L410.207 129.489C412.937 127.061 415.125 124.237 416.764 121.018L415.583 120.416ZM409.332 128.492C406.73 130.747 403.599 132.547 399.927 133.888L400.382 135.133C404.186 133.745 407.462 131.867 410.2 129.494L409.332 128.492ZM399.936 133.885C396.284 135.16 392.029 135.805 387.162 135.805V137.132C392.143 137.132 396.551 136.472 400.373 135.137L399.936 133.885ZM590.64 134.597L590.551 112.794L589.225 112.799L589.314 134.602L590.64 134.597ZM589.888 113.459H593.181V112.133H589.888V113.459ZM593.193 113.459C596.496 113.397 599.223 112.268 601.316 110.047L600.352 109.138C598.529 111.071 596.154 112.077 593.168 112.133L593.193 113.459ZM601.31 110.055C603.457 107.844 605.004 104.225 606.022 99.315L604.724 99.0458C603.724 103.865 602.245 107.188 600.358 109.131L601.31 110.055ZM606.021 99.3209C607.101 94.3413 607.785 87.652 608.082 79.2694L606.757 79.2225C606.461 87.5705 605.781 94.1709 604.725 99.0399L606.021 99.3209ZM608.082 79.2713L609.773 35.1308L608.448 35.08L606.757 79.2206L608.082 79.2713ZM609.11 35.7685H684.666V34.4424H609.11V35.7685ZM684.003 35.1054V134.6H685.329V35.1054H684.003ZM658.413 56.1567H633.85V57.4828H658.413V56.1567ZM633.188 56.7849L631.586 87.2205L632.911 87.2902L634.513 56.8546L633.188 56.7849ZM631.586 87.2222C631.173 95.4962 630.169 102.597 628.582 108.531L629.863 108.874C631.481 102.824 632.494 95.6264 632.911 87.2884L631.586 87.2222ZM628.582 108.531C626.996 114.466 624.801 119.309 622.015 123.082L623.082 123.869C625.991 119.93 628.246 114.924 629.863 108.874L628.582 108.531ZM622.014 123.083C619.29 126.793 615.937 129.535 611.953 131.325L612.497 132.535C616.7 130.646 620.23 127.753 623.083 123.868L622.014 123.083ZM611.958 131.323C608.022 133.059 603.459 133.937 598.253 133.937V135.263C603.608 135.263 608.359 134.36 612.493 132.536L611.958 131.323ZM598.253 133.937H589.977V135.263H598.253V133.937ZM968.998 135.805C962.787 135.805 957.214 134.722 952.265 132.568L951.736 133.784C956.873 136.02 962.631 137.132 968.998 137.132V135.805ZM952.274 132.572C947.4 130.367 943.585 127.127 940.81 122.848L939.697 123.569C942.617 128.071 946.633 131.476 951.727 133.78L952.274 132.572ZM940.81 122.848C938.047 118.589 936.645 113.264 936.645 106.834H935.319C935.319 113.456 936.764 119.048 939.697 123.569L940.81 122.848ZM936.645 106.834C936.645 101.333 937.64 96.8234 939.589 93.2697L938.426 92.6321C936.341 96.4351 935.319 101.181 935.319 106.834H936.645ZM939.591 93.2658C941.557 89.623 944.241 86.6795 947.65 84.4267L946.918 83.3205C943.326 85.6953 940.492 88.8033 938.424 92.636L939.591 93.2658ZM947.65 84.4267C951.085 82.1561 954.993 80.4336 959.38 79.2637L959.038 77.9823C954.526 79.1856 950.484 80.9635 946.918 83.3205L947.65 84.4267ZM959.38 79.2637C963.791 78.0873 968.471 77.2627 973.422 76.7913L973.296 75.4711C968.279 75.9489 963.526 76.7855 959.038 77.9823L959.38 79.2637ZM973.42 76.7914C979.181 76.2569 983.823 75.7215 987.342 75.1848L987.142 73.8738C983.66 74.405 979.047 74.9376 973.298 75.471L973.42 76.7914ZM987.342 75.1848C990.871 74.6465 993.539 73.8279 995.263 72.6782L994.527 71.5748C993.048 72.561 990.614 73.3442 987.142 73.8738L987.342 75.1848ZM995.268 72.6752C997.118 71.4195 998.05 69.6081 998.05 67.3209H996.724C996.724 69.1867 995.995 70.579 994.523 71.5778L995.268 72.6752ZM998.05 67.3209V66.8759H996.724V67.3209H998.05ZM998.05 66.8759C998.05 62.6292 996.689 59.2561 993.905 56.8518L993.038 57.8555C995.475 59.9602 996.724 62.9353 996.724 66.8759H998.05ZM993.91 56.8568C991.199 54.4607 987.402 53.3089 982.614 53.3089V54.635C987.2 54.635 990.641 55.7376 993.032 57.8505L993.91 56.8568ZM982.614 53.3089C977.595 53.3089 973.497 54.4278 970.384 56.7317L971.172 57.7977C973.992 55.7112 977.785 54.635 982.614 54.635V53.3089ZM970.385 56.7303C967.366 58.9491 965.347 61.7996 964.356 65.2699L965.631 65.6342C966.538 62.4596 968.376 59.852 971.171 57.799L970.385 56.7303ZM965.047 64.7911L939.505 62.7443L939.4 64.0661L964.941 66.113L965.047 64.7911ZM940.101 63.545C941.384 57.5947 943.888 52.4768 947.607 48.1762L946.604 47.3087C942.73 51.7887 940.131 57.1126 938.804 63.2654L940.101 63.545ZM947.61 48.1728C951.33 43.8136 956.132 40.4621 962.034 38.1247L961.546 36.8917C955.463 39.3006 950.476 42.7719 946.602 47.312L947.61 48.1728ZM962.037 38.1234C967.995 35.7286 974.909 34.5226 982.792 34.5226V33.1964C974.775 33.1964 967.688 34.4228 961.542 36.893L962.037 38.1234ZM982.792 34.5226C988.257 34.5226 993.481 35.1689 998.467 36.4593L998.799 35.1754C993.699 33.8554 988.362 33.1964 982.792 33.1964V34.5226ZM998.467 36.4593C1003.44 37.7466 1007.85 39.7327 1011.69 42.4128L1012.45 41.3249C1008.46 38.5468 1003.91 36.4986 998.799 35.1754L998.467 36.4593ZM1011.7 42.4193C1015.59 45.0284 1018.66 48.4181 1020.92 52.5969L1022.09 51.9653C1019.72 47.6007 1016.51 44.0489 1012.44 41.3185L1011.7 42.4193ZM1020.92 52.5969C1023.17 56.7532 1024.31 61.7127 1024.31 67.4989H1025.64C1025.64 61.5379 1024.46 56.3522 1022.09 51.9653L1020.92 52.5969ZM999.385 134.6V120.717H998.059V134.6H999.385ZM998.722 120.054H998.01V121.38H998.722V120.054ZM997.419 120.416C995.855 123.486 993.771 126.179 991.162 128.497L992.043 129.489C994.774 127.061 996.961 124.237 998.601 121.018L997.419 120.416ZM991.168 128.492C988.567 130.747 985.435 132.547 981.764 133.888L982.219 135.133C986.023 133.745 989.299 131.867 992.037 129.494L991.168 128.492ZM981.773 133.885C978.12 135.16 973.865 135.805 968.998 135.805V137.132C973.98 137.132 978.387 136.472 982.21 135.137L981.773 133.885ZM233.876 112.796V163.7H235.202V112.796H233.876ZM442.475 67.4989V134.6H443.802V67.4989H442.475ZM657.75 56.8197V134.6H659.076V56.8197H657.75ZM1024.31 67.4989V134.6H1025.64V67.4989H1024.31ZM321.623 134.6V163.7H322.949V134.6H321.623ZM60.6464 104.164L59.4058 104.632L60.6277 107.869L61.8822 104.645L60.6464 104.164ZM87.5223 35.1054V33.7793H86.6154L86.2865 34.6245L87.5223 35.1054ZM108.614 35.1054L109.85 35.5863L110.553 33.7793H108.614V35.1054ZM69.9017 134.6V135.926H70.8087L71.1375 135.08L69.9017 134.6ZM51.5691 134.6L50.3299 135.072L50.6553 135.926H51.5691V134.6ZM13.6581 35.1054V33.7793H11.7337L12.4189 35.5776L13.6581 35.1054ZM34.5714 35.1054L35.8121 34.637L35.4882 33.7793H34.5714V35.1054ZM28.2529 35.1054H29.5791V33.7793H28.2529V35.1054ZM28.2529 134.6V135.926H29.5791V134.6H28.2529ZM2 134.6H0.67389V135.926H2V134.6ZM2 35.1054V33.7793H0.67389V35.1054H2ZM94.4638 134.6H93.1376V135.926H94.4638V134.6ZM94.4638 35.1054V33.7793H93.1376V35.1054H94.4638ZM120.361 35.1054H121.687V33.7793H120.361V35.1054ZM120.361 134.6V135.926H121.687V134.6H120.361ZM155.246 130.15L154.569 131.29L154.58 131.297L155.246 130.15ZM138.337 112.173L137.155 112.774L137.16 112.785L138.337 112.173ZM138.337 58.3326L137.159 57.7251L137.157 57.7286L138.337 58.3326ZM155.246 40.356L155.916 41.5005L155.919 41.4988L155.246 40.356ZM207.396 40.356L206.719 41.4964L206.73 41.5028L207.396 40.356ZM224.305 58.3326L223.122 58.9329L223.128 58.9438L224.305 58.3326ZM224.305 112.173L223.126 111.566L223.124 111.569L224.305 112.173ZM207.396 130.15L208.066 131.294L208.069 131.293L207.396 130.15ZM192.979 111.194L193.824 112.216L193.83 112.212L193.836 112.207L192.979 111.194ZM199.921 100.515L198.671 100.071L198.668 100.079L198.666 100.086L199.921 100.515ZM199.921 69.7237L198.668 70.1581L198.67 70.1655L198.673 70.1729L199.921 69.7237ZM169.841 59.2225L169.005 58.1927L168.996 58.2006L169.841 59.2225ZM162.81 69.7237L161.563 69.2745L161.56 69.2819L161.557 69.2893L162.81 69.7237ZM162.81 100.515L161.556 100.945L161.558 100.952L161.561 100.959L162.81 100.515ZM169.841 111.194L168.984 112.207L168.995 112.216L169.005 112.224L169.841 111.194ZM269.691 112.796L268.575 112.081L267.266 114.122H269.691V112.796ZM307.157 112.796V114.122H308.483V112.796H307.157ZM307.157 56.3747H308.483V55.0486H307.157V56.3747ZM280.37 56.3747V55.0486H279.163L279.05 56.251L280.37 56.3747ZM279.302 67.7658L277.982 67.6421L277.98 67.6596L277.979 67.6771L279.302 67.7658ZM276.188 94.8197L277.491 95.0616L277.492 95.0597L276.188 94.8197ZM405.761 115.021L406.372 116.198L406.381 116.194L405.761 115.021ZM413.059 108.436L411.941 107.722L411.937 107.728L413.059 108.436ZM415.729 88.5012H417.055V86.0722L415.012 87.3857L415.729 88.5012ZM412.169 90.0141L411.779 88.7466L411.772 88.7488L411.765 88.7511L412.169 90.0141ZM401.668 92.2389L401.837 93.5541L401.858 93.5515L401.879 93.5481L401.668 92.2389ZM396.684 92.9509L396.875 94.2632L396.884 94.2618L396.894 94.2603L396.684 92.9509ZM388.141 95.2647L388.649 96.4897L388.661 96.4844L388.674 96.4789L388.141 95.2647ZM382.445 99.4474L381.393 98.6405L381.389 98.6459L382.445 99.4474ZM506.857 133.176L506.311 134.384L506.319 134.388L506.328 134.392L506.857 133.176ZM493.864 92.9509L495.027 93.5885L495.031 93.5807L493.864 92.9509ZM528.216 76.1312L528.093 74.8108L528.09 74.8111L528.216 76.1312ZM549.752 72.1265L550.488 73.2299L550.497 73.2238L549.752 72.1265ZM548.328 57.3537L547.45 58.3474L547.456 58.3524L547.461 58.3573L548.328 57.3537ZM525.635 57.2647L526.42 58.3334L526.424 58.3307L525.635 57.2647ZM519.85 65.452L519.744 66.7739L520.827 66.8607L521.125 65.8163L519.85 65.452ZM494.309 63.4052L493.013 63.1256L492.694 64.6061L494.203 64.7271L494.309 63.4052ZM501.963 47.7424L502.966 48.6099L502.972 48.6032L501.963 47.7424ZM516.647 37.5082L517.135 38.7412L517.141 38.7386L516.647 37.5082ZM566.928 41.8689L566.169 42.9568L566.179 42.9634L566.188 42.9697L566.928 41.8689ZM579.832 134.6V135.926H581.158V134.6H579.832ZM553.579 134.6H552.253V135.926H553.579V134.6ZM553.579 120.717H554.905V119.391H553.579V120.717ZM552.867 120.717V119.391H552.054L551.685 120.115L552.867 120.717ZM546.459 128.993L547.328 129.995L547.334 129.99L547.34 129.984L546.459 128.993ZM536.848 134.511L537.285 135.763L537.294 135.76L537.303 135.756L536.848 134.511ZM542.455 115.021L543.066 116.198L543.074 116.194L542.455 115.021ZM549.752 108.436L548.634 107.722L548.63 107.728L549.752 108.436ZM552.422 88.5012H553.748V86.0722L551.705 87.3857L552.422 88.5012ZM548.862 90.0141L548.472 88.7466L548.465 88.7488L548.458 88.7511L548.862 90.0141ZM538.361 92.2389L538.531 93.5541L538.551 93.5515L538.572 93.5481L538.361 92.2389ZM533.377 92.9509L533.568 94.2632L533.578 94.2618L533.587 94.2603L533.377 92.9509ZM524.834 95.2647L525.342 96.4897L525.355 96.4844L525.367 96.4789L524.834 95.2647ZM519.138 99.4474L518.086 98.6405L518.082 98.6459L519.138 99.4474ZM718.127 65.808V64.4819H716.801V65.808H718.127ZM747.94 65.808V67.1341L747.946 67.1341L747.94 65.808ZM778.642 75.1523L777.776 76.1568L777.78 76.1603L778.642 75.1523ZM789.766 100.337H791.092V100.33L789.766 100.337ZM784.783 118.314L785.894 119.038L785.898 119.032L784.783 118.314ZM770.455 130.328L771.006 131.534L771.016 131.53L770.455 130.328ZM700.951 134.6H699.625V135.926H700.951V134.6ZM700.951 35.1054V33.7793H699.625V35.1054H700.951ZM727.204 35.1054H728.53V33.7793H727.204V35.1054ZM727.204 112.885H725.878V114.211H727.204V112.885ZM763.78 100.515L765.106 100.537L765.107 100.516L765.106 100.495L763.78 100.515ZM747.94 87.5223V88.8484H747.948L747.957 88.8483L747.94 87.5223ZM718.127 87.5223H716.801V88.8484H718.127V87.5223ZM849.303 168.417H847.977V169.743H849.303V168.417ZM849.303 2V0.67389H847.977V2H849.303ZM876.801 2H878.128V0.67389H876.801V2ZM876.801 168.417V169.743H878.128V168.417H876.801ZM828.389 132.82L827.901 134.053L827.905 134.054L828.389 132.82ZM812.104 122.319L811.166 123.256L811.172 123.262L812.104 122.319ZM801.513 64.4731L802.746 64.9616L802.748 64.9576L801.513 64.4731ZM828.389 37.5972L828.868 38.834L828.874 38.8316L828.389 37.5972ZM854.464 33.8595H855.79V32.5334H854.464V33.8595ZM854.464 136.557V137.884H855.79V136.557H854.464ZM852.417 115.021V116.347H853.743V115.021H852.417ZM852.417 55.3958H853.743V54.0697H852.417V55.3958ZM836.755 59.4005L835.95 58.346L835.942 58.3528L836.755 59.4005ZM828.834 70.1687L827.606 69.6678L827.604 69.6748L827.601 69.6818L828.834 70.1687ZM827.677 96.9556L826.4 97.3116L826.401 97.3171L827.677 96.9556ZM832.216 106.389L831.149 107.177L831.158 107.188L832.216 106.389ZM871.729 136.557H870.403V137.884H871.729V136.557ZM871.729 33.8595V32.5334H870.403V33.8595H871.729ZM897.715 37.5972L897.226 38.8301L897.233 38.8328L897.24 38.8355L897.715 37.5972ZM924.68 64.4731L923.445 64.9576L923.448 64.9646L923.451 64.9716L924.68 64.4731ZM924.68 106.033L923.451 105.534L923.447 105.544L924.68 106.033ZM914.09 122.319L915.021 123.262L915.027 123.256L914.09 122.319ZM897.715 132.82L897.23 131.585L897.226 131.587L897.715 132.82ZM886.68 112.707L886.058 111.536L886.048 111.541L886.68 112.707ZM893.977 106.389L892.911 105.601L892.908 105.605L893.977 106.389ZM898.605 96.9556L899.875 97.3366L899.877 97.3309L898.605 96.9556ZM889.438 59.4005L888.626 60.4483L888.634 60.4549L889.438 59.4005ZM873.865 55.3958V54.0697H872.539V55.3958H873.865ZM873.865 115.021H872.539V116.347H873.865V115.021ZM987.598 115.021L988.209 116.198L988.217 116.194L987.598 115.021ZM994.895 108.436L993.777 107.722L993.773 107.728L994.895 108.436ZM997.565 88.5012H998.891V86.0722L996.848 87.3857L997.565 88.5012ZM994.005 90.0141L993.615 88.7466L993.608 88.7488L993.601 88.7511L994.005 90.0141ZM983.504 92.2389L983.674 93.5541L983.695 93.5515L983.715 93.5481L983.504 92.2389ZM978.52 92.9509L978.711 94.2632L978.721 94.2618L978.73 94.2603L978.52 92.9509ZM969.977 95.2647L970.485 96.4897L970.498 96.4844L970.51 96.4789L969.977 95.2647ZM964.282 99.4474L963.229 98.6405L963.225 98.6459L964.282 99.4474ZM61.8822 104.645L88.7581 35.5864L86.2865 34.6245L59.4106 103.683L61.8822 104.645ZM87.5223 36.4315H108.614V33.7793H87.5223V36.4315ZM107.378 34.6245L68.6658 134.119L71.1375 135.08L109.85 35.5863L107.378 34.6245ZM69.9017 133.273H51.5691V135.926H69.9017V133.273ZM52.8083 134.127L14.8973 34.6332L12.4189 35.5776L50.3299 135.072L52.8083 134.127ZM13.6581 36.4315H34.5714V33.7793H13.6581V36.4315ZM33.3308 35.5738L59.4058 104.632L61.887 103.696L35.8121 34.637L33.3308 35.5738ZM26.9268 35.1054V134.6H29.5791V35.1054H26.9268ZM28.2529 133.273H2V135.926H28.2529V133.273ZM3.32611 134.6V35.1054H0.67389V134.6H3.32611ZM2 36.4315H28.2529V33.7793H2V36.4315ZM95.7899 134.6V35.1054H93.1376V134.6H95.7899ZM94.4638 36.4315H120.361V33.7793H94.4638V36.4315ZM119.035 35.1054V134.6H121.687V35.1054H119.035ZM120.361 133.273H94.4638V135.926H120.361V133.273ZM181.321 135.231C171.486 135.231 163.033 133.138 155.912 129.003L154.58 131.297C162.173 135.705 171.103 137.884 181.321 137.884V135.231ZM155.923 129.01C148.842 124.807 143.377 119 139.514 111.562L137.16 112.785C141.248 120.654 147.055 126.831 154.569 131.29L155.923 129.01ZM139.52 111.573C135.714 104.077 133.79 95.3307 133.79 85.2975H131.138C131.138 95.6733 133.129 104.844 137.155 112.774L139.52 111.573ZM133.79 85.2975C133.79 75.1425 135.715 66.3691 139.518 58.9366L137.157 57.7286C133.128 65.6029 131.138 74.8061 131.138 85.2975H133.79ZM139.516 58.9401C143.379 51.4448 148.842 45.6416 155.916 41.5004L154.576 39.2115C147.056 43.6138 141.246 49.7949 137.159 57.7251L139.516 58.9401ZM155.919 41.4988C163.038 37.3073 171.489 35.1856 181.321 35.1856V32.5334C171.099 32.5334 162.167 34.7427 154.573 39.2132L155.919 41.4988ZM181.321 35.1856C191.214 35.1856 199.662 37.3081 206.719 41.4964L208.073 39.2156C200.535 34.7419 191.6 32.5334 181.321 32.5334V35.1856ZM206.73 41.5028C213.862 45.6437 219.32 51.4443 223.122 58.9329L225.487 57.7323C221.458 49.7954 215.644 43.6116 208.062 39.2092L206.73 41.5028ZM223.128 58.9438C226.987 66.3746 228.941 75.1454 228.941 85.2975H231.593C231.593 74.8032 229.572 65.5974 225.481 57.7214L223.128 58.9438ZM228.941 85.2975C228.941 95.3278 226.988 104.071 223.126 111.566L225.483 112.781C229.571 104.85 231.593 95.6762 231.593 85.2975H228.941ZM223.124 111.569C219.322 119 213.861 124.805 206.723 129.007L208.069 131.293C215.644 126.833 221.456 120.653 225.485 112.777L223.124 111.569ZM206.726 129.006C199.668 133.137 191.217 135.231 181.321 135.231V137.884C191.597 137.884 200.529 135.706 208.066 131.294L206.726 129.006ZM181.499 116.347C186.33 116.347 190.468 114.992 193.824 112.216L192.134 110.172C189.32 112.5 185.805 113.695 181.499 113.695V116.347ZM193.836 112.207C197.134 109.416 199.569 105.639 201.175 100.945L198.666 100.086C197.187 104.409 194.994 107.752 192.122 110.182L193.836 112.207ZM201.17 100.959C202.832 96.2821 203.649 90.9959 203.649 85.1195H200.997C200.997 90.7529 200.213 95.7305 198.671 100.071L201.17 100.959ZM203.649 85.1195C203.649 79.186 202.832 73.897 201.168 69.2745L198.673 70.1729C200.212 74.4497 200.997 79.4245 200.997 85.1195H203.649ZM201.173 69.2893C199.566 64.6511 197.127 60.932 193.824 58.2006L192.134 60.2445C195.001 62.6153 197.19 65.897 198.668 70.1581L201.173 69.2893ZM193.824 58.2006C190.468 55.4254 186.33 54.0697 181.499 54.0697V56.7219C185.805 56.7219 189.32 57.9174 192.134 60.2445L193.824 58.2006ZM181.499 54.0697C176.613 54.0697 172.419 55.4229 169.005 58.1927L170.676 60.2523C173.551 57.9199 177.13 56.7219 181.499 56.7219V54.0697ZM168.996 58.2006C165.697 60.9286 163.23 64.6422 161.563 69.2745L164.058 70.1729C165.594 65.9059 167.815 62.6187 170.686 60.2445L168.996 58.2006ZM161.557 69.2893C159.957 73.9071 159.17 79.1908 159.17 85.1195H161.823C161.823 79.4198 162.579 74.4396 164.063 70.1581L161.557 69.2893ZM159.17 85.1195C159.17 90.9911 159.957 96.2721 161.556 100.945L164.065 100.086C162.578 95.7405 161.823 90.7577 161.823 85.1195H159.17ZM161.561 100.959C163.227 105.648 165.69 109.419 168.984 112.207L170.697 110.182C167.822 107.749 165.598 104.4 164.06 100.071L161.561 100.959ZM169.005 112.224C172.419 114.994 176.613 116.347 181.499 116.347V113.695C177.13 113.695 173.551 112.497 170.676 110.165L169.005 112.224ZM269.691 114.122H307.157V111.47H269.691V114.122ZM308.483 112.796V56.3747H305.831V112.796H308.483ZM307.157 55.0486H280.37V57.7009H307.157V55.0486ZM279.05 56.251L277.982 67.6421L280.623 67.8896L281.691 56.4985L279.05 56.251ZM277.979 67.6771C277.269 78.2651 276.236 87.2293 274.883 94.5798L277.492 95.0597C278.868 87.5779 279.911 78.5063 280.625 67.8545L277.979 67.6771ZM274.884 94.5779C273.54 101.823 271.422 107.639 268.575 112.081L270.807 113.512C273.893 108.698 276.106 102.53 277.491 95.0616L274.884 94.5779ZM395.082 118.75C399.295 118.75 403.07 117.913 406.372 116.198L405.15 113.844C402.282 115.333 398.938 116.098 395.082 116.098V118.75ZM406.381 116.194C409.709 114.435 412.324 112.088 414.181 109.143L411.937 107.728C410.353 110.242 408.103 112.284 405.142 113.849L406.381 116.194ZM414.177 109.149C416.098 106.139 417.055 102.775 417.055 99.0914H414.402C414.402 102.29 413.579 105.156 411.941 107.722L414.177 109.149ZM417.055 99.0914V88.5012H414.402V99.0914H417.055ZM415.012 87.3857C414.326 87.8263 413.269 88.2881 411.779 88.7466L412.559 91.2816C414.154 90.7908 415.47 90.244 416.446 89.6167L415.012 87.3857ZM411.765 88.7511C410.34 89.2069 408.731 89.6101 406.933 89.9581L407.437 92.562C409.318 92.198 411.031 91.7705 412.573 91.2771L411.765 88.7511ZM406.933 89.9581C405.108 90.3114 403.282 90.6353 401.457 90.9297L401.879 93.5481C403.732 93.2493 405.585 92.9205 407.437 92.562L406.933 89.9581ZM401.498 90.9237C399.648 91.1624 397.974 91.4016 396.475 91.6414L396.894 94.2603C398.361 94.0256 400.009 93.7901 401.837 93.5541L401.498 90.9237ZM396.493 91.6386C393.139 92.1264 390.172 92.9247 387.608 94.0505L388.674 96.4789C390.975 95.4688 393.703 94.7246 396.875 94.2632L396.493 91.6386ZM387.633 94.0397C385.023 95.1218 382.922 96.646 381.393 98.6405L383.498 100.254C384.698 98.689 386.394 97.4247 388.649 96.4897L387.633 94.0397ZM381.389 98.6459C379.874 100.642 379.161 103.106 379.161 105.944H381.813C381.813 103.561 382.406 101.694 383.502 100.249L381.389 98.6459ZM379.161 105.944C379.161 110.053 380.689 113.327 383.808 115.565L385.354 113.41C383.015 111.732 381.813 109.31 381.813 105.944H379.161ZM383.808 115.565C386.817 117.723 390.609 118.75 395.082 118.75V116.098C391.012 116.098 387.803 115.167 385.354 113.41L383.808 115.565ZM523.855 135.142C517.722 135.142 512.24 134.073 507.387 131.96L506.328 134.392C511.56 136.669 517.41 137.795 523.855 137.795V135.142ZM507.404 131.967C502.641 129.813 498.926 126.654 496.223 122.487L493.998 123.93C496.99 128.543 501.107 132.03 506.311 134.384L507.404 131.967ZM496.223 122.487C493.545 118.359 492.165 113.167 492.165 106.834H489.513C489.513 113.553 490.98 119.277 493.998 123.93L496.223 122.487ZM492.165 106.834C492.165 101.409 493.147 97.0176 495.027 93.5885L492.702 92.3132C490.548 96.2409 489.513 101.105 489.513 106.834H492.165ZM495.031 93.5807C496.946 90.0328 499.556 87.1717 502.872 84.9799L501.41 82.7673C497.725 85.2032 494.817 88.3935 492.697 92.3211L495.031 93.5807ZM502.872 84.9799C506.242 82.7524 510.083 81.0576 514.408 79.9043L513.724 77.3417C509.149 78.5616 505.041 80.3672 501.41 82.7673L502.872 84.9799ZM514.408 79.9043C518.781 78.7382 523.425 77.9196 528.341 77.4513L528.09 74.8111C523.04 75.292 518.25 76.1347 513.724 77.3417L514.408 79.9043ZM528.338 77.4516C534.105 76.9166 538.762 76.3798 542.299 75.8403L541.899 73.2184C538.435 73.7467 533.836 74.2779 528.093 74.8108L528.338 77.4516ZM542.299 75.8403C545.856 75.2976 548.641 74.4613 550.488 73.2299L549.016 71.0231C547.66 71.9275 545.342 72.6931 541.899 73.2184L542.299 75.8403ZM550.497 73.2238C552.536 71.8398 553.57 69.8189 553.57 67.3209H550.918C550.918 68.9759 550.29 70.1587 549.007 71.0292L550.497 73.2238ZM553.57 67.3209V66.8759H550.918V67.3209H553.57ZM553.57 66.8759C553.57 62.4761 552.152 58.904 549.195 56.35L547.461 58.3573C549.725 60.3123 550.918 63.0884 550.918 66.8759H553.57ZM549.206 56.36C546.335 53.8223 542.359 52.6458 537.471 52.6458V55.298C541.957 55.298 545.219 56.3761 547.45 58.3474L549.206 56.36ZM537.471 52.6458C532.357 52.6458 528.106 53.7861 524.846 56.1987L526.424 58.3307C529.096 56.353 532.737 55.298 537.471 55.298V52.6458ZM524.85 56.196C521.717 58.4976 519.609 61.4696 518.575 65.0877L521.125 65.8163C521.99 62.7896 523.739 60.3034 526.42 58.3334L524.85 56.196ZM519.956 64.1302L494.415 62.0833L494.203 64.7271L519.744 66.7739L519.956 64.1302ZM495.606 63.6848C496.867 57.8358 499.324 52.8208 502.966 48.6099L500.96 46.8749C497.008 51.4447 494.362 56.8715 493.013 63.1256L495.606 63.6848ZM502.972 48.6032C506.614 44.3345 511.323 41.0429 517.135 38.7412L516.158 36.2753C509.986 38.7199 504.906 42.251 500.954 46.8816L502.972 48.6032ZM517.141 38.7386C523.005 36.3816 529.832 35.1856 537.649 35.1856V32.5334C529.566 32.5334 522.391 33.7699 516.152 36.2778L517.141 38.7386ZM537.649 35.1856C543.061 35.1856 548.229 35.8256 553.158 37.1012L553.822 34.5335C548.664 33.1986 543.272 32.5334 537.649 32.5334V35.1856ZM553.158 37.1012C558.062 38.3705 562.394 40.3257 566.169 42.9568L567.686 40.7809C563.63 37.9539 559.004 35.8746 553.822 34.5335L553.158 37.1012ZM566.188 42.9697C569.983 45.5181 572.982 48.8268 575.195 52.9127L577.527 51.6495C575.113 47.192 571.823 43.5592 567.667 40.768L566.188 42.9697ZM575.195 52.9127C577.384 56.9537 578.506 61.8001 578.506 67.4989H581.158C581.158 61.4506 579.966 56.1517 577.527 51.6495L575.195 52.9127ZM578.506 67.4989V134.6H581.158V67.4989H578.506ZM579.832 133.273H553.579V135.926H579.832V133.273ZM554.905 134.6V120.717H552.253V134.6H554.905ZM553.579 119.391H552.867V122.043H553.579V119.391ZM551.685 120.115C550.159 123.11 548.126 125.737 545.578 128.002L547.34 129.984C550.132 127.503 552.371 124.612 554.048 121.319L551.685 120.115ZM545.591 127.991C543.057 130.187 539.998 131.949 536.393 133.265L537.303 135.756C541.173 134.343 544.522 132.427 547.328 129.995L545.591 127.991ZM536.411 133.259C532.843 134.505 528.665 135.142 523.855 135.142V137.795C528.893 137.795 533.378 137.127 537.285 135.763L536.411 133.259ZM531.776 118.75C535.988 118.75 539.764 117.913 543.066 116.198L541.844 113.844C538.975 115.333 535.631 116.098 531.776 116.098V118.75ZM543.074 116.194C546.402 114.435 549.017 112.088 550.874 109.143L548.63 107.728C547.046 110.242 544.796 112.284 541.835 113.849L543.074 116.194ZM550.87 109.149C552.791 106.139 553.748 102.775 553.748 99.0914H551.096C551.096 102.29 550.272 105.156 548.634 107.722L550.87 109.149ZM553.748 99.0914V88.5012H551.096V99.0914H553.748ZM551.705 87.3857C551.019 87.8263 549.962 88.2881 548.472 88.7466L549.252 91.2816C550.847 90.7909 552.163 90.244 553.139 89.6167L551.705 87.3857ZM548.458 88.7511C547.033 89.2069 545.424 89.6101 543.627 89.9581L544.131 92.562C546.011 92.198 547.724 91.7705 549.266 91.2771L548.458 88.7511ZM543.627 89.9581C541.801 90.3114 539.975 90.6353 538.15 90.9297L538.572 93.5481C540.425 93.2493 542.278 92.9205 544.131 92.562L543.627 89.9581ZM538.191 90.9237C536.342 91.1624 534.667 91.4016 533.168 91.6414L533.587 94.2603C535.054 94.0256 536.702 93.7901 538.531 93.5541L538.191 90.9237ZM533.187 91.6386C529.833 92.1264 526.865 92.9247 524.301 94.0505L525.367 96.4789C527.668 95.4688 530.396 94.7246 533.568 94.2632L533.187 91.6386ZM524.326 94.0397C521.716 95.1218 519.615 96.646 518.086 98.6405L520.191 100.254C521.391 98.689 523.087 97.4247 525.342 96.4897L524.326 94.0397ZM518.082 98.6459C516.568 100.642 515.855 103.106 515.855 105.944H518.507C518.507 103.561 519.099 101.694 520.195 100.249L518.082 98.6459ZM515.855 105.944C515.855 110.053 517.382 113.327 520.501 115.565L522.047 113.41C519.708 111.732 518.507 109.31 518.507 105.944H515.855ZM520.501 115.565C523.51 117.723 527.302 118.75 531.776 118.75V116.098C527.706 116.098 524.497 115.167 522.047 113.41L520.501 115.565ZM718.127 67.1341H747.94V64.4819H718.127V67.1341ZM747.946 67.1341C760.914 67.0757 770.798 70.1426 777.776 76.1568L779.508 74.1477C771.892 67.5842 761.307 64.4217 747.934 64.4819L747.946 67.1341ZM777.78 76.1603C784.818 82.1758 788.383 90.1917 788.44 100.345L791.092 100.33C791.031 89.4805 787.18 80.7064 779.504 74.1443L777.78 76.1603ZM788.44 100.337C788.44 106.935 786.837 112.672 783.668 117.596L785.898 119.032C789.373 113.633 791.092 107.385 791.092 100.337H788.44ZM783.671 117.59C780.501 122.459 775.929 126.31 769.894 129.126L771.016 131.53C777.44 128.532 782.419 124.373 785.894 119.038L783.671 117.59ZM769.903 129.122C763.888 131.872 756.582 133.273 747.94 133.273V135.926C756.859 135.926 764.562 134.48 771.006 131.534L769.903 129.122ZM747.94 133.273H700.951V135.926H747.94V133.273ZM702.277 134.6V35.1054H699.625V134.6H702.277ZM700.951 36.4315H727.204V33.7793H700.951V36.4315ZM725.878 35.1054V112.885H728.53V35.1054H725.878ZM727.204 114.211H747.94V111.559H727.204V114.211ZM747.94 114.211C752.738 114.211 756.811 112.992 760.057 110.46L758.426 108.369C755.739 110.465 752.278 111.559 747.94 111.559V114.211ZM760.057 110.46C763.325 107.911 765.04 104.575 765.106 100.537L762.454 100.494C762.402 103.694 761.091 106.29 758.426 108.369L760.057 110.46ZM765.106 100.495C765.041 96.2509 763.352 92.7379 760.083 90.0566L758.401 92.1075C761.064 94.2911 762.401 97.067 762.454 100.536L765.106 100.495ZM760.083 90.0566C756.83 87.3897 752.741 86.1337 747.922 86.1963L747.957 88.8483C752.275 88.7922 755.72 89.9094 758.401 92.1075L760.083 90.0566ZM747.94 86.1962H718.127V88.8484H747.94V86.1962ZM719.453 87.5223V65.808H716.801V87.5223H719.453ZM850.629 168.417V2H847.977V168.417H850.629ZM849.303 3.32611H876.801V0.67389H849.303V3.32611ZM875.475 2V168.417H878.128V2H875.475ZM876.801 167.091H849.303V169.743H876.801V167.091ZM849.303 135.231C841.856 135.231 835.051 134.01 828.874 131.585L827.905 134.054C834.424 136.613 841.562 137.884 849.303 137.884V135.231ZM828.878 131.587C822.745 129.157 817.47 125.752 813.035 121.375L811.172 123.262C815.874 127.903 821.455 131.499 827.901 134.053L828.878 131.587ZM813.041 121.381C808.607 116.947 805.175 111.673 802.746 105.544L800.281 106.521C802.836 112.97 806.464 118.554 811.166 123.256L813.041 121.381ZM802.746 105.544C800.323 99.4278 799.102 92.684 799.102 85.2975H796.45C796.45 92.9805 797.72 100.06 800.281 106.521L802.746 105.544ZM799.102 85.2975C799.102 77.8502 800.323 71.077 802.746 64.9616L800.281 63.9846C797.72 70.4469 796.45 77.5566 796.45 85.2975H799.102ZM802.748 64.9576C805.177 58.7697 808.609 53.4683 813.041 49.0361L811.166 47.1607C806.461 51.8651 802.834 57.4802 800.279 63.9886L802.748 64.9576ZM813.041 49.0361C817.473 44.6041 822.743 41.2028 828.868 38.834L827.911 36.3604C821.457 38.8565 815.87 42.4561 811.166 47.1607L813.041 49.0361ZM828.874 38.8316C835.051 36.4069 841.856 35.1856 849.303 35.1856V32.5334C841.562 32.5334 834.424 33.8039 827.905 36.3628L828.874 38.8316ZM849.303 35.1856H854.464V32.5334H849.303V35.1856ZM853.138 33.8595V136.557H855.79V33.8595H853.138ZM854.464 135.231H849.303V137.884H854.464V135.231ZM849.303 116.347H852.417V113.695H849.303V116.347ZM853.743 115.021V55.3958H851.091V115.021H853.743ZM852.417 54.0697H849.303V56.7219H852.417V54.0697ZM849.303 54.0697C844.179 54.0697 839.706 55.4814 835.95 58.3461L837.559 60.4549C840.804 57.98 844.696 56.7219 849.303 56.7219V54.0697ZM835.942 58.3528C832.296 61.1816 829.523 64.9693 827.606 69.6678L830.062 70.6695C831.824 66.3501 834.331 62.959 837.568 60.4482L835.942 58.3528ZM827.601 69.6818C825.751 74.3673 824.838 79.5787 824.838 85.2975H827.491C827.491 79.8625 828.358 74.988 830.068 70.6556L827.601 69.6818ZM824.838 85.2975C824.838 89.5583 825.356 93.5651 826.4 97.3116L828.955 96.5996C827.982 93.1079 827.491 89.3427 827.491 85.2975H824.838ZM826.401 97.3171C827.45 101.017 829.029 104.308 831.15 107.177L833.282 105.601C831.368 103.011 829.922 100.014 828.953 96.5941L826.401 97.3171ZM831.158 107.188C833.285 110.004 835.862 112.237 838.882 113.873L840.145 111.541C837.469 110.092 835.181 108.113 833.274 105.589L831.158 107.188ZM838.882 113.873C841.948 115.535 845.434 116.347 849.303 116.347V113.695C845.815 113.695 842.774 112.965 840.145 111.541L838.882 113.873ZM876.801 135.231H871.729V137.884H876.801V135.231ZM873.055 136.557V33.8595H870.403V136.557H873.055ZM871.729 35.1856H876.801V32.5334H871.729V35.1856ZM876.801 35.1856C884.309 35.1856 891.112 36.4074 897.226 38.8301L898.203 36.3643C891.74 33.8034 884.6 32.5334 876.801 32.5334V35.1856ZM897.24 38.8355C903.424 41.205 908.722 44.6062 913.152 49.0361L915.027 47.1607C910.32 42.4539 904.702 38.8544 898.189 36.3589L897.24 38.8355ZM913.152 49.0361C917.584 53.4683 921.016 58.7697 923.445 64.9576L925.914 63.9886C923.359 57.4802 919.732 51.8651 915.027 47.1607L913.152 49.0361ZM923.451 64.9716C925.931 71.0843 927.18 77.854 927.18 85.2975H929.833C929.833 77.5528 928.531 70.4396 925.909 63.9746L923.451 64.9716ZM927.18 85.2975C927.18 92.6802 925.931 99.4204 923.451 105.534L925.909 106.531C928.531 100.068 929.833 92.9843 929.833 85.2975H927.18ZM923.447 105.544C921.018 111.673 917.586 116.947 913.152 121.381L915.027 123.256C919.73 118.554 923.357 112.97 925.913 106.521L923.447 105.544ZM913.158 121.375C908.725 125.75 903.422 129.155 897.23 131.585L898.199 134.054C904.704 131.501 910.317 127.905 915.021 123.262L913.158 121.375ZM897.226 131.587C891.112 134.01 884.309 135.231 876.801 135.231V137.884C884.6 137.884 891.74 136.614 898.203 134.053L897.226 131.587ZM876.801 116.347C880.725 116.347 884.242 115.536 887.311 113.873L886.048 111.541C883.422 112.964 880.353 113.695 876.801 113.695V116.347ZM887.301 113.879C890.386 112.242 892.971 110.003 895.047 107.173L892.908 105.605C891.067 108.114 888.788 110.088 886.058 111.536L887.301 113.879ZM895.044 107.177C897.16 104.314 898.767 101.029 899.875 97.3366L897.335 96.5745C896.306 100.002 894.829 103.006 892.911 105.601L895.044 107.177ZM899.877 97.3309C900.984 93.5784 901.533 89.5649 901.533 85.2975H898.88C898.88 89.3361 898.361 93.0946 897.333 96.5802L899.877 97.3309ZM901.533 85.2975C901.533 79.5736 900.589 74.3572 898.676 69.6678L896.22 70.6695C897.986 74.9981 898.88 79.8676 898.88 85.2975H901.533ZM898.676 69.6678C896.757 64.9637 893.951 61.1742 890.243 58.3461L888.634 60.4549C891.927 62.9664 894.46 66.3557 896.22 70.6695L898.676 69.6678ZM890.251 58.3528C886.545 55.477 882.035 54.0697 876.801 54.0697V56.7219C881.535 56.7219 885.45 57.9844 888.626 60.4482L890.251 58.3528ZM876.801 54.0697H873.865V56.7219H876.801V54.0697ZM872.539 55.3958V115.021H875.191V55.3958H872.539ZM873.865 116.347H876.801V113.695H873.865V116.347ZM976.919 118.75C981.131 118.75 984.907 117.913 988.209 116.198L986.987 113.844C984.119 115.333 980.774 116.098 976.919 116.098V118.75ZM988.217 116.194C991.545 114.435 994.16 112.088 996.017 109.143L993.773 107.728C992.189 110.242 989.939 112.284 986.978 113.849L988.217 116.194ZM996.013 109.149C997.935 106.139 998.891 102.775 998.891 99.0914H996.239C996.239 102.29 995.416 105.156 993.777 107.722L996.013 109.149ZM998.891 99.0914V88.5012H996.239V99.0914H998.891ZM996.848 87.3857C996.162 87.8263 995.105 88.2881 993.615 88.7466L994.395 91.2816C995.99 90.7908 997.306 90.244 998.282 89.6167L996.848 87.3857ZM993.601 88.7511C992.177 89.2069 990.567 89.6101 988.77 89.9581L989.274 92.562C991.154 92.198 992.867 91.7705 994.409 91.2771L993.601 88.7511ZM988.77 89.9581C986.944 90.3114 985.118 90.6353 983.293 90.9297L983.715 93.5481C985.568 93.2493 987.421 92.9205 989.274 92.562L988.77 89.9581ZM983.334 90.9237C981.485 91.1624 979.81 91.4016 978.311 91.6414L978.73 94.2603C980.197 94.0256 981.845 93.7901 983.674 93.5541L983.334 90.9237ZM978.33 91.6386C974.976 92.1264 972.008 92.9247 969.444 94.0505L970.51 96.4789C972.811 95.4688 975.539 94.7246 978.711 94.2632L978.33 91.6386ZM969.469 94.0397C966.859 95.1218 964.758 96.646 963.229 98.6405L965.334 100.254C966.534 98.689 968.23 97.4247 970.485 96.4897L969.469 94.0397ZM963.225 98.6459C961.711 100.642 960.998 103.106 960.998 105.944H963.65C963.65 103.561 964.242 101.694 965.338 100.249L963.225 98.6459ZM960.998 105.944C960.998 110.053 962.525 113.327 965.644 115.565L967.19 113.41C964.852 111.732 963.65 109.31 963.65 105.944H960.998ZM965.644 115.565C968.653 117.723 972.445 118.75 976.919 118.75V116.098C972.849 116.098 969.64 115.167 967.19 113.41L965.644 115.565Z" fill="black" mask="url(#path-1-outside-1_1089_29240)"/>
<circle cx="234.636" cy="164.333" r="2.7332" fill="#131313"/>
<circle cx="322.636" cy="164.333" r="2.7332" fill="#131313"/>
<circle cx="416.636" cy="135.333" r="2.7332" fill="#131313"/>
<circle cx="658.636" cy="135.333" r="2.7332" fill="#131313"/>
<circle cx="998.636" cy="135.333" r="2.7332" fill="#131313"/>
<circle cx="261.636" cy="164.333" r="2.7332" fill="#131313"/>
<circle cx="348.636" cy="164.333" r="2.7332" fill="#131313"/>
<circle cx="443.636" cy="135.333" r="2.7332" fill="#131313"/>
<circle cx="684.636" cy="135.333" r="2.7332" fill="#131313"/>
<circle cx="1024.64" cy="135.333" r="2.7332" fill="#131313"/>
</svg>
