<svg width="290" height="113" viewBox="0 0 290 113" fill="none" xmlns="http://www.w3.org/2000/svg">
<path d="M1 37.1033C1 33.0408 1 28.9782 1 24.9157C1 14.1562 7.6545 7.68466 17.3251 3.66496C26.5798 -0.181889 37.0938 -0.138728 44.8244 6.73295C51.8524 12.9801 50.1442 26.4602 50.1442 35.0767C50.1442 43.5803 47.1173 50.9873 45.5844 59.2266C44.6105 64.4612 43.0196 69.5123 41.5594 74.6228C40.1102 79.695 39.6139 85.3668 38.7166 90.582C38.1399 93.9344 38.1693 97.7327 39.2795 100.94C40.3452 104.019 44.2545 105.781 47.1888 106.738C50.2035 107.721 53.0711 108.033 56.1957 108.033C58.9884 108.033 61.7413 102.169 62.7539 100.377C65.2463 95.9674 67.2455 91.228 69.1151 86.5289C70.549 82.9248 72.6331 79.0187 72.9149 75.0732C73.4088 68.1589 72.7231 61.1451 72.943 54.2165C73.1855 46.5793 76.2939 38.8963 77.5309 31.4739C78.586 25.1435 81.2914 16.3456 86.2283 12.0527C89.6326 9.09236 92.0407 5.71367 96.4737 4.00272C101.573 2.03439 108.364 2.36427 113.756 2.22947C116.224 2.16778 118.37 3.29419 120.314 4.76268C124.924 8.24604 128.491 15.0205 130.081 20.4967C132.007 27.1328 130.037 34.2381 129.068 40.8186C127.38 52.2698 123.692 63.2488 121.806 74.5666C121.12 78.6779 120.567 82.6853 120.567 86.8667C120.567 91.4798 119.902 96.6924 121.13 101.165C123.11 108.378 125.848 112.2 134.021 112.086C139.178 112.015 141.719 109.441 144.492 105.387C149.233 98.4584 152.471 91.235 154.203 82.9824C155.332 77.5996 155.318 72.4216 155.554 66.9951C155.783 61.7123 156.743 56.5156 157.439 51.2892C158.414 43.9774 160.822 36.76 162.872 29.7007C164.271 24.8809 166.312 17.707 171.231 15.3177C172.815 14.5483 174.963 14.6876 176.692 14.8111C179.33 14.9995 178.831 20.593 178.831 22.1855C178.831 34.792 178.332 46.6876 176.185 59.1703C174.375 69.6951 169.565 79.761 168.248 90.3006C167.677 94.8653 169.19 100.737 173.371 102.967C176.274 104.515 180.558 104.454 183.785 104.487C188.704 104.536 193.785 104.928 198.59 103.727C202.869 102.657 206.333 100.333 210.243 98.3787C214.778 96.111 220.268 92.7289 223.809 89.1184C228.447 84.3898 232.419 76.4594 231.803 69.7535C231.117 62.2841 229.903 52.4802 224.569 46.842C222.226 44.3643 220.025 41.7491 217.842 39.1298C216.44 37.4475 214.454 35.609 213.817 33.4442C211.928 27.0196 212.611 21.1131 217.73 16.5562C222.288 12.4984 228.72 9.82448 234.28 7.49291C240.279 4.97722 246.379 3.64675 252.913 4.28418C261.785 5.14969 268.132 10.9898 273.32 17.7946C277.898 23.8007 281.274 30.91 284.212 37.8351C286.6 43.4621 286.372 47.5272 283.368 52.8654C277.628 63.0633 266.391 71.5549 254.32 71.5549" stroke="black" stroke-width="0.925242" stroke-linecap="round"/>
<mask id="path-2-outside-1_758_14223" maskUnits="userSpaceOnUse" x="14.0396" y="10" width="239" height="89" fill="black">
<rect fill="white" x="14.0396" y="10" width="239" height="89"/>
<path d="M15.048 80V30.7539H28.6589V49.8709H32.5352L45.8818 30.7539H61.9155L44.5163 55.2448L62.0916 80H45.8818L33.7245 62.5568H28.6589V80H15.048ZM66.8559 98.4122C65.1234 98.4416 63.4936 98.3241 61.9665 98.0598C60.4689 97.7956 59.2355 97.4578 58.2665 97.0467L61.3499 86.8716L61.7904 86.9596C64.0809 87.6351 66.0337 87.7819 67.6488 87.4001C69.2933 87.0477 70.5413 85.7557 71.3929 83.5239L72.1858 81.4095L54.5664 30.7539H68.8821L79.0573 66.9176H79.5859L89.8932 30.7539H104.297L85.1801 85.3299C84.2697 87.9728 83.0217 90.278 81.4359 92.2455C79.8796 94.2129 77.9121 95.7253 75.5335 96.7824C73.1548 97.869 70.2623 98.4122 66.8559 98.4122ZM99.7178 80L99.6737 69.2081H101.304C102.86 69.1788 104.123 68.6502 105.092 67.6224C106.09 66.5946 106.839 64.8767 107.338 62.4687C107.867 60.0314 108.204 56.7424 108.351 52.6019L109.188 30.7539H146.585V80H133.591V41.5017H121.434L120.641 56.5663C120.435 60.6774 119.936 64.216 119.143 67.1819C118.35 70.1478 117.249 72.5852 115.839 74.494C114.459 76.3733 112.756 77.7682 110.73 78.6785C108.733 79.5595 106.428 80 103.814 80H99.7178ZM177.067 80.9691C172.016 80.9691 167.655 79.9413 163.984 77.8857C160.314 75.8301 157.495 72.9082 155.527 69.12C153.589 65.3025 152.62 60.7949 152.62 55.5972C152.62 50.5463 153.589 46.1121 155.527 42.2946C157.495 38.477 160.255 35.4964 163.808 33.3527C167.391 31.2091 171.59 30.1372 176.406 30.1372C179.666 30.1372 182.705 30.6658 185.524 31.723C188.343 32.7508 190.81 34.3071 192.924 36.3921C195.039 38.4477 196.683 41.0465 197.858 44.1887C199.032 47.3014 199.62 50.9574 199.62 55.1567V58.8568H158.038V50.4435H193.012L186.669 52.6459C186.669 50.1499 186.288 47.9768 185.524 46.1268C184.761 44.2767 183.615 42.8525 182.088 41.8541C180.591 40.8263 178.726 40.3124 176.494 40.3124C174.262 40.3124 172.368 40.8263 170.812 41.8541C169.285 42.8819 168.11 44.2767 167.288 46.0387C166.466 47.8006 166.055 49.8268 166.055 52.1174V58.0639C166.055 60.7362 166.525 63.0267 167.464 64.9354C168.404 66.8148 169.711 68.2684 171.385 69.2962C173.088 70.2947 175.041 70.7939 177.243 70.7939C178.77 70.7939 180.15 70.5736 181.384 70.1332C182.617 69.6927 183.674 69.0466 184.555 68.195C185.465 67.3434 186.141 66.3156 186.581 65.1116L199.179 65.9486C198.562 68.9732 197.27 71.6161 195.303 73.8773C193.365 76.1091 190.854 77.8563 187.771 79.119C184.687 80.3524 181.119 80.9691 177.067 80.9691ZM166.407 24.0585C164.528 24.0585 162.927 23.4125 161.606 22.1204C160.284 20.8283 159.638 19.3013 159.668 17.5394C159.638 15.7187 160.284 14.1917 161.606 12.9583C162.927 11.6956 164.528 11.0496 166.407 11.0202C168.228 11.0496 169.784 11.6956 171.076 12.9583C172.398 14.1917 173.058 15.7187 173.058 17.5394C173.058 19.3013 172.398 20.8283 171.076 22.1204C169.784 23.4125 168.228 24.0585 166.407 24.0585ZM185.965 24.0585C184.115 24.0585 182.529 23.4125 181.207 22.1204C179.886 20.8283 179.225 19.3013 179.225 17.5394C179.225 15.7187 179.886 14.1917 181.207 12.9583C182.529 11.6956 184.115 11.0496 185.965 11.0202C187.815 11.0496 189.386 11.6956 190.678 12.9583C191.97 14.1917 192.616 15.7187 192.616 17.5394C192.616 19.3013 191.97 20.8283 190.678 22.1204C189.386 23.4125 187.815 24.0585 185.965 24.0585ZM204.576 80V30.7539H218.187V49.8709H222.063L235.41 30.7539H251.443L234.044 55.2448L251.62 80H235.41L223.252 62.5568H218.187V80H204.576Z"/>
</mask>
<path d="M15.048 80V30.7539H28.6589V49.8709H32.5352L45.8818 30.7539H61.9155L44.5163 55.2448L62.0916 80H45.8818L33.7245 62.5568H28.6589V80H15.048ZM66.8559 98.4122C65.1234 98.4416 63.4936 98.3241 61.9665 98.0598C60.4689 97.7956 59.2355 97.4578 58.2665 97.0467L61.3499 86.8716L61.7904 86.9596C64.0809 87.6351 66.0337 87.7819 67.6488 87.4001C69.2933 87.0477 70.5413 85.7557 71.3929 83.5239L72.1858 81.4095L54.5664 30.7539H68.8821L79.0573 66.9176H79.5859L89.8932 30.7539H104.297L85.1801 85.3299C84.2697 87.9728 83.0217 90.278 81.4359 92.2455C79.8796 94.2129 77.9121 95.7253 75.5335 96.7824C73.1548 97.869 70.2623 98.4122 66.8559 98.4122ZM99.7178 80L99.6737 69.2081H101.304C102.86 69.1788 104.123 68.6502 105.092 67.6224C106.09 66.5946 106.839 64.8767 107.338 62.4687C107.867 60.0314 108.204 56.7424 108.351 52.6019L109.188 30.7539H146.585V80H133.591V41.5017H121.434L120.641 56.5663C120.435 60.6774 119.936 64.216 119.143 67.1819C118.35 70.1478 117.249 72.5852 115.839 74.494C114.459 76.3733 112.756 77.7682 110.73 78.6785C108.733 79.5595 106.428 80 103.814 80H99.7178ZM177.067 80.9691C172.016 80.9691 167.655 79.9413 163.984 77.8857C160.314 75.8301 157.495 72.9082 155.527 69.12C153.589 65.3025 152.62 60.7949 152.62 55.5972C152.62 50.5463 153.589 46.1121 155.527 42.2946C157.495 38.477 160.255 35.4964 163.808 33.3527C167.391 31.2091 171.59 30.1372 176.406 30.1372C179.666 30.1372 182.705 30.6658 185.524 31.723C188.343 32.7508 190.81 34.3071 192.924 36.3921C195.039 38.4477 196.683 41.0465 197.858 44.1887C199.032 47.3014 199.62 50.9574 199.62 55.1567V58.8568H158.038V50.4435H193.012L186.669 52.6459C186.669 50.1499 186.288 47.9768 185.524 46.1268C184.761 44.2767 183.615 42.8525 182.088 41.8541C180.591 40.8263 178.726 40.3124 176.494 40.3124C174.262 40.3124 172.368 40.8263 170.812 41.8541C169.285 42.8819 168.11 44.2767 167.288 46.0387C166.466 47.8006 166.055 49.8268 166.055 52.1174V58.0639C166.055 60.7362 166.525 63.0267 167.464 64.9354C168.404 66.8148 169.711 68.2684 171.385 69.2962C173.088 70.2947 175.041 70.7939 177.243 70.7939C178.77 70.7939 180.15 70.5736 181.384 70.1332C182.617 69.6927 183.674 69.0466 184.555 68.195C185.465 67.3434 186.141 66.3156 186.581 65.1116L199.179 65.9486C198.562 68.9732 197.27 71.6161 195.303 73.8773C193.365 76.1091 190.854 77.8563 187.771 79.119C184.687 80.3524 181.119 80.9691 177.067 80.9691ZM166.407 24.0585C164.528 24.0585 162.927 23.4125 161.606 22.1204C160.284 20.8283 159.638 19.3013 159.668 17.5394C159.638 15.7187 160.284 14.1917 161.606 12.9583C162.927 11.6956 164.528 11.0496 166.407 11.0202C168.228 11.0496 169.784 11.6956 171.076 12.9583C172.398 14.1917 173.058 15.7187 173.058 17.5394C173.058 19.3013 172.398 20.8283 171.076 22.1204C169.784 23.4125 168.228 24.0585 166.407 24.0585ZM185.965 24.0585C184.115 24.0585 182.529 23.4125 181.207 22.1204C179.886 20.8283 179.225 19.3013 179.225 17.5394C179.225 15.7187 179.886 14.1917 181.207 12.9583C182.529 11.6956 184.115 11.0496 185.965 11.0202C187.815 11.0496 189.386 11.6956 190.678 12.9583C191.97 14.1917 192.616 15.7187 192.616 17.5394C192.616 19.3013 191.97 20.8283 190.678 22.1204C189.386 23.4125 187.815 24.0585 185.965 24.0585ZM204.576 80V30.7539H218.187V49.8709H222.063L235.41 30.7539H251.443L234.044 55.2448L251.62 80H235.41L223.252 62.5568H218.187V80H204.576Z" fill="#E7E6E0"/>
<path d="M15.048 80H14.5921V80.4558H15.048V80ZM15.048 30.7539V30.2981H14.5921V30.7539H15.048ZM28.6589 30.7539H29.1147V30.2981H28.6589V30.7539ZM28.6589 49.8709H28.2031V50.3267H28.6589V49.8709ZM32.5352 49.8709V50.3267H32.7729L32.9089 50.1318L32.5352 49.8709ZM45.8818 30.7539V30.2981H45.6442L45.5081 30.493L45.8818 30.7539ZM61.9155 30.7539L62.287 31.0179L62.7984 30.2981H61.9155V30.7539ZM44.5163 55.2448L44.1447 54.9808L43.9573 55.2447L44.1447 55.5087L44.5163 55.2448ZM62.0916 80V80.4558H62.9743L62.4633 79.7361L62.0916 80ZM45.8818 80L45.5079 80.2606L45.6439 80.4558H45.8818V80ZM33.7245 62.5568L34.0984 62.2962L33.9624 62.101H33.7245V62.5568ZM28.6589 62.5568V62.101H28.2031V62.5568H28.6589ZM28.6589 80V80.4558H29.1147V80H28.6589ZM15.5038 80V30.7539H14.5921V80H15.5038ZM15.048 31.2097H28.6589V30.2981H15.048V31.2097ZM28.2031 30.7539V49.8709H29.1147V30.7539H28.2031ZM28.6589 50.3267H32.5352V49.4151H28.6589V50.3267ZM32.9089 50.1318L46.2556 31.0148L45.5081 30.493L32.1614 49.61L32.9089 50.1318ZM45.8818 31.2097H61.9155V30.2981H45.8818V31.2097ZM61.5439 30.4899L44.1447 54.9808L44.8879 55.5088L62.287 31.0179L61.5439 30.4899ZM44.1447 55.5087L61.72 80.2639L62.4633 79.7361L44.888 54.9809L44.1447 55.5087ZM62.0916 79.5442H45.8818V80.4558H62.0916V79.5442ZM46.2558 79.7394L34.0984 62.2962L33.3505 62.8175L45.5079 80.2606L46.2558 79.7394ZM33.7245 62.101H28.6589V63.0127H33.7245V62.101ZM28.2031 62.5568V80H29.1147V62.5568H28.2031ZM28.6589 79.5442H15.048V80.4558H28.6589V79.5442ZM66.8559 98.4122V97.9563L66.8482 97.9565L66.8559 98.4122ZM61.9665 98.0598L61.8873 98.5087L61.8888 98.509L61.9665 98.0598ZM58.2665 97.0467L57.8303 96.9145L57.7115 97.3064L58.0885 97.4663L58.2665 97.0467ZM61.3499 86.8716L61.4393 86.4246L61.0336 86.3435L60.9136 86.7394L61.3499 86.8716ZM61.7904 86.9596L61.9193 86.5224L61.8997 86.5167L61.8797 86.5127L61.7904 86.9596ZM67.6488 87.4001L67.5533 86.9543L67.5439 86.9565L67.6488 87.4001ZM71.3929 83.5239L71.8188 83.6864L71.8197 83.6839L71.3929 83.5239ZM72.1858 81.4095L72.6126 81.5696L72.6704 81.4154L72.6163 81.2598L72.1858 81.4095ZM54.5664 30.7539V30.2981H53.9253L54.1359 30.9036L54.5664 30.7539ZM68.8821 30.7539L69.3209 30.6304L69.2274 30.2981H68.8821V30.7539ZM79.0573 66.9176L78.6185 67.0411L78.7121 67.3734H79.0573V66.9176ZM79.5859 66.9176V67.3734H79.93L80.0243 67.0426L79.5859 66.9176ZM89.8932 30.7539V30.2981H89.5492L89.4549 30.6289L89.8932 30.7539ZM104.297 30.7539L104.727 30.9046L104.94 30.2981H104.297V30.7539ZM85.1801 85.3299L84.7499 85.1792L84.7491 85.1814L85.1801 85.3299ZM81.4359 92.2455L81.081 91.9594L81.0785 91.9627L81.4359 92.2455ZM75.5335 96.7824L75.3483 96.3659L75.3441 96.3678L75.5335 96.7824ZM66.8482 97.9565C65.141 97.9854 63.54 97.8696 62.0443 97.6107L61.8888 98.509C63.4471 98.7787 65.1057 98.8978 66.8636 98.868L66.8482 97.9565ZM62.0458 97.611C60.5685 97.3503 59.3713 97.0203 58.4445 96.6271L58.0885 97.4663C59.0998 97.8954 60.3693 98.2408 61.8873 98.5087L62.0458 97.611ZM58.7027 97.1789L61.7861 87.0037L60.9136 86.7394L57.8303 96.9145L58.7027 97.1789ZM61.2605 87.3185L61.701 87.4066L61.8797 86.5127L61.4393 86.4246L61.2605 87.3185ZM61.6614 87.3969C63.9966 88.0854 66.0348 88.25 67.7536 87.8437L67.5439 86.9565C66.0326 87.3138 64.1651 87.1847 61.9193 86.5224L61.6614 87.3969ZM67.7443 87.8458C69.5978 87.4487 70.9373 85.9965 71.8188 83.6864L70.967 83.3614C70.1453 85.5148 68.9888 86.6468 67.5533 86.9544L67.7443 87.8458ZM71.8197 83.6839L72.6126 81.5696L71.759 81.2495L70.9661 83.3638L71.8197 83.6839ZM72.6163 81.2598L54.9969 30.6041L54.1359 30.9036L71.7553 81.5593L72.6163 81.2598ZM54.5664 31.2097H68.8821V30.2981H54.5664V31.2097ZM68.4434 30.8773L78.6185 67.0411L79.4961 66.7942L69.3209 30.6304L68.4434 30.8773ZM79.0573 67.3734H79.5859V66.4618H79.0573V67.3734ZM80.0243 67.0426L90.3316 30.8788L89.4549 30.6289L79.1475 66.7927L80.0243 67.0426ZM89.8932 31.2097H104.297V30.2981H89.8932V31.2097ZM103.867 30.6032L84.7499 85.1792L85.6102 85.4805L104.727 30.9046L103.867 30.6032ZM84.7491 85.1814C83.8541 87.7797 82.6303 90.0372 81.081 91.9594L81.7908 92.5315C83.413 90.5188 84.6853 88.1659 85.611 85.4783L84.7491 85.1814ZM81.0785 91.9627C79.5696 93.8701 77.6621 95.3376 75.3483 96.3659L75.7186 97.199C78.162 96.113 80.1895 94.5558 81.7934 92.5282L81.0785 91.9627ZM75.3441 96.3678C73.04 97.4203 70.2159 97.9564 66.8559 97.9564V98.868C70.3087 98.868 73.2697 98.3176 75.7228 97.197L75.3441 96.3678ZM99.7178 80L99.262 80.0019L99.2638 80.4558H99.7178V80ZM99.6737 69.2081V68.7523H99.2161L99.2179 69.21L99.6737 69.2081ZM101.304 69.2081V69.664L101.312 69.6639L101.304 69.2081ZM105.092 67.6224L104.765 67.3048L104.76 67.3097L105.092 67.6224ZM107.338 62.4687L106.893 62.3721L106.892 62.3762L107.338 62.4687ZM108.351 52.6019L107.896 52.5844L107.896 52.5857L108.351 52.6019ZM109.188 30.7539V30.2981H108.749L108.733 30.7364L109.188 30.7539ZM146.585 30.7539H147.041V30.2981H146.585V30.7539ZM146.585 80V80.4558H147.041V80H146.585ZM133.591 80H133.135V80.4558H133.591V80ZM133.591 41.5017H134.047V41.0459H133.591V41.5017ZM121.434 41.5017V41.0459H121.001L120.978 41.4777L121.434 41.5017ZM120.641 56.5663L120.186 56.5423L120.186 56.5435L120.641 56.5663ZM115.839 74.494L115.473 74.2232L115.472 74.2241L115.839 74.494ZM110.73 78.6785L110.914 79.0956L110.917 79.0943L110.73 78.6785ZM100.174 79.9981L100.13 69.2063L99.2179 69.21L99.262 80.0019L100.174 79.9981ZM99.6737 69.664H101.304V68.7523H99.6737V69.664ZM101.312 69.6639C102.977 69.6325 104.361 69.0616 105.423 67.9351L104.76 67.3097C103.884 68.2388 102.743 68.7251 101.295 68.7524L101.312 69.6639ZM105.419 67.94C106.507 66.8199 107.279 65.0004 107.784 62.5613L106.892 62.3762C106.399 64.753 105.673 66.3693 104.765 67.3048L105.419 67.94ZM107.784 62.5653C108.32 60.0899 108.66 56.7705 108.807 52.618L107.896 52.5857C107.749 56.7144 107.413 59.9728 106.893 62.3721L107.784 62.5653ZM108.807 52.6193L109.644 30.7713L108.733 30.7364L107.896 52.5844L108.807 52.6193ZM109.188 31.2097H146.585V30.2981H109.188V31.2097ZM146.129 30.7539V80H147.041V30.7539H146.129ZM146.585 79.5442H133.591V80.4558H146.585V79.5442ZM134.047 80V41.5017H133.135V80H134.047ZM133.591 41.0459H121.434V41.9575H133.591V41.0459ZM120.978 41.4777L120.186 56.5423L121.096 56.5902L121.889 41.5257L120.978 41.4777ZM120.186 56.5435C119.981 60.6327 119.485 64.1378 118.703 67.0642L119.583 67.2996C120.387 64.2942 120.889 60.7222 121.096 56.589L120.186 56.5435ZM118.703 67.0642C117.921 69.9904 116.84 72.3717 115.473 74.2232L116.206 74.7647C117.658 72.7987 118.78 70.3053 119.583 67.2996L118.703 67.0642ZM115.472 74.2241C114.136 76.0434 112.494 77.3863 110.543 78.2628L110.917 79.0943C113.018 78.1501 114.783 76.7033 116.207 74.7638L115.472 74.2241ZM110.546 78.2615C108.617 79.1124 106.377 79.5442 103.814 79.5442V80.4558C106.479 80.4558 108.849 80.0067 110.914 79.0956L110.546 78.2615ZM103.814 79.5442H99.7178V80.4558H103.814V79.5442ZM155.527 69.12L155.121 69.3264L155.123 69.3301L155.527 69.12ZM155.527 42.2946L155.122 42.0857L155.121 42.0882L155.527 42.2946ZM163.808 33.3527L163.574 32.9616L163.573 32.9625L163.808 33.3527ZM185.524 31.723L185.364 32.1498L185.368 32.1512L185.524 31.723ZM192.924 36.3921L192.604 36.7167L192.606 36.7189L192.924 36.3921ZM197.858 44.1887L197.431 44.3483L197.431 44.3496L197.858 44.1887ZM199.62 58.8568V59.3126H200.075V58.8568H199.62ZM158.038 58.8568H157.582V59.3126H158.038V58.8568ZM158.038 50.4435V49.9877H157.582V50.4435H158.038ZM193.012 50.4435L193.162 50.8741L193.012 49.9877V50.4435ZM186.669 52.6459H186.214V53.2867L186.819 53.0765L186.669 52.6459ZM182.088 41.8541L181.83 42.23L181.839 42.2356L182.088 41.8541ZM170.812 41.8541L170.561 41.4737L170.557 41.4759L170.812 41.8541ZM167.464 64.9354L167.055 65.1368L167.057 65.1393L167.464 64.9354ZM171.385 69.2962L171.146 69.6848L171.154 69.6895L171.385 69.2962ZM184.555 68.195L184.244 67.8621L184.238 67.8673L184.555 68.195ZM186.581 65.1116L186.611 64.6568L186.271 64.6342L186.153 64.955L186.581 65.1116ZM199.179 65.9486L199.626 66.0396L199.73 65.5283L199.209 65.4937L199.179 65.9486ZM195.303 73.8773L194.959 73.5781L194.959 73.5784L195.303 73.8773ZM187.771 79.119L187.94 79.5423L187.943 79.5408L187.771 79.119ZM159.668 17.5394L160.123 17.547L160.124 17.5395L160.123 17.532L159.668 17.5394ZM161.606 12.9583L161.917 13.2916L161.921 13.2879L161.606 12.9583ZM166.407 11.0202L166.414 10.5644L166.407 10.5643L166.4 10.5644L166.407 11.0202ZM171.076 12.9583L170.758 13.2844L170.765 13.2916L171.076 12.9583ZM171.076 22.1204L170.758 21.7945L170.754 21.7981L171.076 22.1204ZM181.207 12.9583L181.518 13.2916L181.522 13.2879L181.207 12.9583ZM185.965 11.0202L185.972 10.5644L185.965 10.5643L185.957 10.5644L185.965 11.0202ZM190.678 12.9583L190.359 13.2844L190.363 13.2881L190.678 12.9583ZM177.067 80.5132C172.078 80.5132 167.797 79.4985 164.207 77.488L163.762 78.2834C167.513 80.384 171.954 81.4249 177.067 81.4249V80.5132ZM164.207 77.488C160.615 75.4765 157.859 72.6204 155.932 68.91L155.123 69.3301C157.13 73.196 160.012 76.1837 163.762 78.2834L164.207 77.488ZM155.934 68.9137C154.034 65.1724 153.076 60.7383 153.076 55.5972H152.164C152.164 60.8515 153.144 65.4327 155.121 69.3264L155.934 68.9137ZM153.076 55.5972C153.076 50.6052 154.033 46.244 155.934 42.5009L155.121 42.0882C153.145 45.9802 152.164 50.4874 152.164 55.5972H153.076ZM155.932 42.5034C157.863 38.7581 160.565 35.8415 164.044 33.743L163.573 32.9625C159.945 35.1513 157.127 38.1959 155.122 42.0858L155.932 42.5034ZM164.042 33.7439C167.544 31.6487 171.66 30.593 176.406 30.593V29.6814C171.521 29.6814 167.238 30.7694 163.574 32.9616L164.042 33.7439ZM176.406 30.593C179.616 30.593 182.6 31.1133 185.364 32.1498L185.684 31.2962C182.81 30.2183 179.716 29.6814 176.406 29.6814V30.593ZM185.368 32.1512C188.126 33.1568 190.537 34.6781 192.604 36.7166L193.244 36.0675C191.083 33.9362 188.56 32.3447 185.68 31.2947L185.368 32.1512ZM192.606 36.7189C194.666 38.7214 196.276 41.2606 197.431 44.3483L198.285 44.029C197.09 40.8325 195.411 38.1739 193.242 36.0653L192.606 36.7189ZM197.431 44.3496C198.582 47.3994 199.164 50.9986 199.164 55.1567H200.075C200.075 50.9163 199.482 47.2034 198.284 44.0277L197.431 44.3496ZM199.164 55.1567V58.8568H200.075V55.1567H199.164ZM199.62 58.401H158.038V59.3126H199.62V58.401ZM158.494 58.8568V50.4435H157.582V58.8568H158.494ZM158.038 50.8993H193.012V49.9877H158.038V50.8993ZM192.863 50.0129L186.52 52.2153L186.819 53.0765L193.162 50.8741L192.863 50.0129ZM187.125 52.6459C187.125 50.1045 186.737 47.8699 185.945 45.9529L185.103 46.3007C185.839 48.0838 186.214 50.1953 186.214 52.6459H187.125ZM185.945 45.9529C185.15 44.0265 183.949 42.5262 182.338 41.4726L181.839 42.2356C183.281 43.1789 184.371 44.527 185.103 46.3007L185.945 45.9529ZM182.346 41.4783C180.757 40.3875 178.797 39.8566 176.494 39.8566V40.7682C178.655 40.7682 180.424 41.2651 181.83 42.2299L182.346 41.4783ZM176.494 39.8566C174.191 39.8566 172.205 40.3877 170.561 41.4737L171.063 42.2345C172.531 41.2648 174.334 40.7682 176.494 40.7682V39.8566ZM170.557 41.4759C168.958 42.5526 167.73 44.0133 166.875 45.8459L167.701 46.2314C168.49 44.5401 169.612 43.2111 171.066 42.2322L170.557 41.4759ZM166.875 45.8459C166.02 47.678 165.599 49.772 165.599 52.1174H166.51C166.51 49.8817 166.912 47.9232 167.701 46.2314L166.875 45.8459ZM165.599 52.1174V58.0639H166.51V52.1174H165.599ZM165.599 58.0639C165.599 60.7886 166.078 63.1514 167.055 65.1368L167.873 64.7341C166.971 62.9019 166.51 60.6838 166.51 58.0639H165.599ZM167.057 65.1393C168.032 67.0893 169.395 68.6092 171.146 69.6847L171.623 68.9078C170.027 67.9277 168.776 66.5404 167.872 64.7316L167.057 65.1393ZM171.154 69.6895C172.935 70.7335 174.969 71.2497 177.243 71.2497V70.3381C175.112 70.3381 173.241 69.8559 171.615 68.903L171.154 69.6895ZM177.243 71.2497C178.814 71.2497 180.247 71.0231 181.537 70.5624L181.23 69.7039C180.053 70.1242 178.726 70.3381 177.243 70.3381V71.2497ZM181.537 70.5624C182.827 70.1016 183.941 69.4225 184.872 68.5228L184.238 67.8673C183.407 68.6708 182.407 69.2837 181.23 69.7039L181.537 70.5624ZM184.866 68.5279C185.83 67.6261 186.545 66.5373 187.009 65.2683L186.153 64.955C185.737 66.0939 185.1 67.0608 184.244 67.8622L184.866 68.5279ZM186.551 65.5665L199.149 66.4034L199.209 65.4937L186.611 64.6568L186.551 65.5665ZM198.732 65.8575C198.131 68.8075 196.873 71.3781 194.959 73.5781L195.647 74.1765C197.667 71.8542 198.994 69.139 199.626 66.0396L198.732 65.8575ZM194.959 73.5784C193.073 75.7499 190.624 77.458 187.598 78.6972L187.943 79.5408C191.084 78.2546 193.656 76.4683 195.647 74.1761L194.959 73.5784ZM187.601 78.6958C184.582 79.9035 181.074 80.5132 177.067 80.5132V81.4249C181.165 81.4249 184.792 80.8013 187.94 79.5422L187.601 78.6958ZM166.407 23.6027C164.645 23.6027 163.159 23.0017 161.924 21.7945L161.287 22.4463C162.695 23.8232 164.411 24.5144 166.407 24.5144V23.6027ZM161.924 21.7945C160.688 20.5852 160.096 19.1769 160.123 17.547L159.212 17.5318C159.18 19.4257 159.881 21.0714 161.287 22.4463L161.924 21.7945ZM160.123 17.532C160.096 15.8392 160.69 14.4362 161.917 13.2916L161.295 12.6251C159.878 13.9472 159.18 15.5983 159.212 17.5467L160.123 17.532ZM161.921 13.2879C163.157 12.107 164.646 11.5036 166.414 11.476L166.4 10.5644C164.409 10.5955 162.698 11.2843 161.291 12.6288L161.921 13.2879ZM166.4 11.476C168.105 11.5035 169.55 12.1038 170.758 13.2843L171.395 12.6323C170.019 11.2875 168.351 10.5957 166.414 10.5644L166.4 11.476ZM170.765 13.2916C171.994 14.438 172.603 15.844 172.603 17.5394H173.514C173.514 15.5934 172.802 13.9454 171.387 12.6251L170.765 13.2916ZM172.603 17.5394C172.603 19.1721 171.996 20.5835 170.758 21.7945L171.395 22.4463C172.799 21.0732 173.514 19.4305 173.514 17.5394H172.603ZM170.754 21.7981C169.547 23.005 168.106 23.6027 166.407 23.6027V24.5144C168.349 24.5144 170.021 23.8199 171.399 22.4427L170.754 21.7981ZM185.965 23.6027C184.234 23.6027 182.762 23.0032 181.526 21.7945L180.889 22.4463C182.295 23.8218 183.996 24.5144 185.965 24.5144V23.6027ZM181.526 21.7945C180.287 20.5835 179.681 19.1721 179.681 17.5394H178.769C178.769 19.4305 179.484 21.0732 180.889 22.4463L181.526 21.7945ZM179.681 17.5394C179.681 15.844 180.29 14.438 181.518 13.2916L180.896 12.6251C179.482 13.9454 178.769 15.5934 178.769 17.5394H179.681ZM181.522 13.2879C182.76 12.1056 184.235 11.5035 185.972 11.476L185.957 10.5644C183.994 10.5956 182.298 11.2857 180.892 12.6288L181.522 13.2879ZM185.957 11.476C187.694 11.5035 189.153 12.1052 190.359 13.2843L190.996 12.6323C189.619 11.286 187.935 10.5956 185.972 10.5644L185.957 11.476ZM190.363 13.2881C191.563 14.4335 192.16 15.8406 192.16 17.5394H193.072C193.072 15.5968 192.377 13.9498 190.992 12.6286L190.363 13.2881ZM192.16 17.5394C192.16 19.1755 191.566 20.5879 190.355 21.7981L191 22.4427C192.374 21.0687 193.072 19.4271 193.072 17.5394H192.16ZM190.355 21.7981C189.15 23.0035 187.695 23.6027 185.965 23.6027V24.5144C187.934 24.5144 189.621 23.8215 191 22.4427L190.355 21.7981ZM204.576 80H204.12V80.4558H204.576V80ZM204.576 30.7539V30.2981H204.12V30.7539H204.576ZM218.187 30.7539H218.643V30.2981H218.187V30.7539ZM218.187 49.8709H217.731V50.3267H218.187V49.8709ZM222.063 49.8709V50.3267H222.301L222.437 50.1318L222.063 49.8709ZM235.41 30.7539V30.2981H235.172L235.036 30.493L235.41 30.7539ZM251.443 30.7539L251.815 31.0179L252.326 30.2981H251.443V30.7539ZM234.044 55.2448L233.673 54.9808L233.485 55.2447L233.673 55.5087L234.044 55.2448ZM251.62 80V80.4558H252.502L251.991 79.7361L251.62 80ZM235.41 80L235.036 80.2606L235.172 80.4558H235.41V80ZM223.252 62.5568L223.626 62.2962L223.49 62.101H223.252V62.5568ZM218.187 62.5568V62.101H217.731V62.5568H218.187ZM218.187 80V80.4558H218.643V80H218.187ZM205.032 80V30.7539H204.12V80H205.032ZM204.576 31.2097H218.187V30.2981H204.576V31.2097ZM217.731 30.7539V49.8709H218.643V30.7539H217.731ZM218.187 50.3267H222.063V49.4151H218.187V50.3267ZM222.437 50.1318L235.784 31.0148L235.036 30.493L221.689 49.61L222.437 50.1318ZM235.41 31.2097H251.443V30.2981H235.41V31.2097ZM251.072 30.4899L233.673 54.9808L234.416 55.5088L251.815 31.0179L251.072 30.4899ZM233.673 55.5087L251.248 80.2639L251.991 79.7361L234.416 54.9809L233.673 55.5087ZM251.62 79.5442H235.41V80.4558H251.62V79.5442ZM235.784 79.7394L223.626 62.2962L222.878 62.8175L235.036 80.2606L235.784 79.7394ZM223.252 62.101H218.187V63.0127H223.252V62.101ZM217.731 62.5568V80H218.643V62.5568H217.731ZM218.187 79.5442H204.576V80.4558H218.187V79.5442Z" fill="#E7E6E0" mask="url(#path-2-outside-1_758_14223)"/>
<path fill-rule="evenodd" clip-rule="evenodd" d="M204.665 79.3653H218.002V62.2739H222.965L234.877 79.3653H250.76L233.539 55.1093L250.588 31.1123H234.877L221.8 49.8438H218.002V31.1123H204.665V79.3653ZM218.927 48.9185V30.1871H203.74V80.2905H218.927V63.1991H222.482L234.394 80.2905H252.552L234.674 55.1095L251.827 31.1123H233.785L221.317 48.9185H218.927Z" fill="black"/>
<path fill-rule="evenodd" clip-rule="evenodd" d="M154.898 69.126L154.896 69.1222C152.918 65.227 151.947 60.6609 151.947 55.4532C151.947 50.3847 152.92 45.8917 154.896 42L154.898 41.995C156.902 38.1077 159.723 35.0573 163.357 32.8651L163.36 32.8634C167.035 30.6646 171.319 29.5814 176.179 29.5814C179.473 29.5814 182.561 30.1158 185.434 31.1928C188.317 32.2445 190.845 33.8394 193.011 35.9744C195.192 38.0958 196.872 40.7627 198.064 43.9508C199.263 47.1279 199.849 50.8246 199.849 55.0216V59.5723H167.034C167.191 61.3455 167.601 62.8807 168.246 64.1922C169.093 65.8859 170.257 67.173 171.734 68.0825C173.244 68.9652 174.989 69.4182 176.999 69.4182C178.406 69.4182 179.651 69.2152 180.744 68.8247C181.838 68.4343 182.758 67.8684 183.52 67.1317L183.526 67.1265L183.531 67.1213C184.314 66.3888 184.896 65.5054 185.28 64.4579L185.169 64.7428L199.399 65.6536V65.7807C198.764 68.8956 197.428 71.6317 195.393 73.9713C193.387 76.2805 190.802 78.0718 187.664 79.3569L187.661 79.3583L187.657 79.3597C184.506 80.6204 180.889 81.2386 176.826 81.2386C171.75 81.2386 167.315 80.2051 163.555 78.0995C159.799 75.9957 156.909 72.9993 154.9 69.1298L154.898 69.126ZM167.417 64.6031C166.702 63.1515 166.265 61.4746 166.105 59.5723C166.08 59.2696 166.061 58.9612 166.05 58.647H198.924V55.0216C198.924 50.907 198.348 47.3247 197.198 44.2747C196.047 41.196 194.435 38.6495 192.364 36.6354C190.292 34.5925 187.875 33.0675 185.113 32.0604C182.35 31.0246 179.372 30.5067 176.179 30.5067C171.46 30.5067 167.345 31.5569 163.835 33.6574C160.353 35.7578 157.649 38.6783 155.721 42.4189C153.822 46.1594 152.872 50.5042 152.872 55.4532C152.872 60.5461 153.822 64.9628 155.721 68.7033C157.649 72.4151 160.411 75.278 164.007 77.2922C167.604 79.3063 171.877 80.3134 176.826 80.3134C180.797 80.3134 184.293 79.7091 187.314 78.5007C190.335 77.2634 192.795 75.5514 194.694 73.3646C196.421 71.3797 197.617 69.0945 198.282 66.5091C198.359 66.2087 198.429 65.9043 198.492 65.5958L186.135 64.8046C185.703 65.9843 185.055 66.9625 184.163 67.797C183.3 68.6314 182.264 69.2644 181.056 69.696C179.847 70.1276 178.495 70.3434 176.999 70.3434C174.841 70.3434 172.927 69.8543 171.258 68.876C169.618 67.8689 168.338 66.4446 167.417 64.6031ZM186.13 50.4035C186.098 50.0889 186.058 49.7805 186.012 49.4782C185.827 48.2796 185.527 47.1781 185.113 46.1738C184.365 44.3611 183.242 42.9656 181.746 41.9873C180.279 40.9802 178.452 40.4767 176.265 40.4767C174.078 40.4767 172.222 40.9802 170.697 41.9873C169.201 42.9943 168.05 44.3611 167.244 46.0875C166.761 47.1243 166.422 48.2546 166.229 49.4782C166.181 49.7809 166.142 50.0893 166.112 50.4035H186.13ZM167.166 49.4782H185.075C184.899 48.3999 184.625 47.4171 184.257 46.5267C183.573 44.869 182.565 43.628 181.24 42.7617L181.231 42.756L181.223 42.7501C179.941 41.8709 178.308 41.4019 176.265 41.4019C174.225 41.4019 172.556 41.8697 171.21 42.7574C169.863 43.665 168.821 44.8972 168.083 46.4787C167.658 47.3899 167.35 48.3884 167.166 49.4782ZM166.381 10.8499L166.396 10.8501C168.411 10.8826 170.16 11.6059 171.595 13.0049C173.074 14.3886 173.824 16.128 173.824 18.1629C173.824 20.1501 173.067 21.8799 171.606 23.3099C170.168 24.746 168.41 25.4758 166.381 25.4758C164.303 25.4758 162.501 24.7513 161.03 23.3131C159.567 21.8827 158.823 20.1507 158.852 18.1629C158.823 16.1278 159.56 14.3863 161.041 13.0018C162.509 11.6008 164.301 10.8824 166.367 10.8501L166.381 10.8499ZM161.677 13.6743C160.382 14.8827 159.749 16.379 159.778 18.1629C159.749 19.8893 160.382 21.3855 161.677 22.6515C162.972 23.9176 164.54 24.5506 166.381 24.5506C168.165 24.5506 169.69 23.9176 170.956 22.6515C172.251 21.3855 172.898 19.8893 172.898 18.1629C172.898 16.379 172.251 14.8827 170.956 13.6743C169.69 12.437 168.165 11.804 166.381 11.7752C164.54 11.804 162.972 12.437 161.677 13.6743ZM185.544 10.8499L185.559 10.8501C187.6 10.8825 189.366 11.6042 190.805 13.0086C192.255 14.3948 192.987 16.1334 192.987 18.1629C192.987 20.1447 192.249 21.8734 190.817 23.3058C189.375 24.7477 187.599 25.4758 185.544 25.4758C183.49 25.4758 181.704 24.7484 180.236 23.3131C178.773 21.8825 178.016 20.1516 178.016 18.1629C178.016 16.1262 178.767 14.3855 180.248 13.0012C181.713 11.6034 183.489 10.8825 185.53 10.8501L185.544 10.8499ZM190.162 13.6743C188.896 12.437 187.357 11.804 185.544 11.7752C183.732 11.804 182.178 12.437 180.883 13.6743C179.588 14.8827 178.941 16.379 178.941 18.1629C178.941 19.8893 179.588 21.3855 180.883 22.6515C182.178 23.9176 183.732 24.5506 185.544 24.5506C187.357 24.5506 188.896 23.9176 190.162 22.6515C191.428 21.3855 192.061 19.8893 192.061 18.1629C192.061 16.379 191.428 14.8827 190.162 13.6743Z" fill="black"/>
<path fill-rule="evenodd" clip-rule="evenodd" d="M101.043 79.3653H105.057C107.617 79.3653 109.876 78.9337 111.833 78.0705C113.818 77.1785 115.487 75.8118 116.839 73.9703C118.22 72.1 119.299 69.7118 120.076 66.8057C120.853 63.8996 121.342 60.4324 121.544 56.4041L122.321 41.6434H134.233V79.3653H146.965V31.1123H110.322L109.502 52.5197C109.358 56.5768 109.027 59.7994 108.509 62.1876C108.02 64.547 107.286 66.2302 106.308 67.2373C105.359 68.2444 104.121 68.7623 102.596 68.7911H101L101.043 79.3653ZM102.587 67.8658H101L100.999 80.2905H105.057C107.721 80.2905 110.111 79.8413 112.206 78.917L112.212 78.9144C114.35 77.9537 116.143 76.4815 117.585 74.5179C119.051 72.5317 120.172 70.0304 120.97 67.0446C121.768 64.059 122.264 60.5246 122.468 56.4527M122.468 56.4503L123.198 42.5686H133.308V80.2905H147.89V30.1871H109.432L108.577 52.4843L108.577 52.4869C108.434 56.5199 108.106 59.6805 107.605 61.9915L107.604 61.9956L107.603 61.9997C107.127 64.2959 106.441 65.7729 105.645 66.5926L105.64 66.5975L105.635 66.6026C104.876 67.4075 103.887 67.8395 102.587 67.8658" fill="black"/>
<path fill-rule="evenodd" clip-rule="evenodd" d="M56.449 38.0072L71.3107 80.7346L70.6531 82.4882C70.6528 82.4891 70.6524 82.49 70.6521 82.491C69.8784 84.5169 68.8417 85.4572 67.6551 85.7114L67.6456 85.7135L67.6361 85.7157C66.2642 86.04 64.524 85.9321 62.3704 85.2971L62.3307 85.2854L61.0351 85.0263L57.5294 96.5953L58.2945 96.92C59.3299 97.3592 60.6118 97.7058 62.1205 97.972L62.1235 97.9726C63.6809 98.2421 65.3338 98.3606 67.0799 98.3314C70.5066 98.3306 73.4757 97.7843 75.955 96.6527C78.4139 95.559 80.4611 93.9879 82.0812 91.941C83.7072 89.9227 84.9781 87.5691 85.9007 84.8913L85.9015 84.8889L105.063 30.1871H89.6448L89.6358 31.144L79.6497 66.1805L69.7583 30.1871H53.729L54.0508 31.1123H69.0575L79.0274 66.5467H79.5454L89.6448 31.1123H103.758L85.0267 84.5876C84.1347 87.1772 82.9118 89.4359 81.3581 91.3638C79.8331 93.2916 77.9053 94.7734 75.5746 95.8092C73.244 96.8739 70.4098 97.4062 67.0721 97.4062C65.3745 97.4349 63.7775 97.3198 62.2813 97.0609C60.8139 96.8019 59.6054 96.471 58.6559 96.0682L61.6771 86.0982L62.1087 86.1845C64.353 86.8463 66.2664 86.9902 67.849 86.6161C69.4603 86.2709 70.6832 85.0048 71.5176 82.8181L72.2945 80.7464L57.1067 37.0815L56.449 38.0072Z" fill="black"/>
<path d="M45.6381 79.3653L33.7259 62.2739H28.7625V79.3653H15.426V80.2905H29.6877V63.1991H33.243L45.1551 80.2905H63.3126L45.4349 55.1095L57.4807 38.154L57.1077 37.0815L44.3001 55.1093L61.521 79.3653H45.6381Z" fill="black"/>
<path d="M32.0781 48.9185H29.6877V30.1871H15.426V31.1123H28.7625V49.8438H32.5606L45.6381 31.1123H62.4833L63.1406 30.1871H45.1556L32.0781 48.9185Z" fill="black"/>
<path d="M7.83551 83.1132C7.48542 83.1132 7.18519 83.0216 6.93484 82.8384C6.68651 82.6552 6.4962 82.3906 6.3639 82.0446C6.23363 81.6965 6.1685 81.2752 6.1685 80.7806C6.1685 80.288 6.23465 79.8677 6.36695 79.5196C6.49925 79.1695 6.68957 78.9029 6.93789 78.7197C7.18825 78.5345 7.48745 78.4419 7.83551 78.4419C8.18561 78.4419 8.48482 78.5345 8.73314 78.7197C8.9835 78.9029 9.17381 79.1695 9.30408 79.5196C9.43638 79.8677 9.50253 80.288 9.50253 80.7806C9.50253 81.2752 9.4374 81.6965 9.30713 82.0446C9.17686 82.3906 8.98757 82.6552 8.73924 82.8384C8.49092 83.0216 8.18968 83.1132 7.83551 83.1132ZM7.83551 82.527C8.04923 82.527 8.22937 82.4588 8.37592 82.3224C8.52247 82.186 8.63442 81.9876 8.71177 81.7271C8.78911 81.4645 8.82778 81.149 8.82778 80.7806C8.82778 80.4101 8.78911 80.0946 8.71177 79.8341C8.63442 79.5715 8.52247 79.3721 8.37592 79.2357C8.22937 79.0973 8.04923 79.0281 7.83551 79.0281C7.52002 79.0281 7.27577 79.1818 7.10276 79.4891C6.93178 79.7944 6.84629 80.2249 6.84629 80.7806C6.84629 81.149 6.88497 81.4645 6.96231 81.7271C7.03966 81.9876 7.15161 82.186 7.29816 82.3224C7.44675 82.4588 7.62586 82.527 7.83551 82.527ZM10.0338 83.0521V82.5575L11.5726 80.9577C11.7354 80.7867 11.8697 80.6361 11.9756 80.5058C12.0835 80.3735 12.1639 80.2483 12.2168 80.1303C12.2717 80.0122 12.2992 79.887 12.2992 79.7547C12.2992 79.6021 12.2636 79.4708 12.1924 79.3609C12.1211 79.251 12.0244 79.1665 11.9023 79.1075C11.7802 79.0484 11.6418 79.0189 11.4871 79.0189C11.3242 79.0189 11.1828 79.0525 11.0627 79.1197C10.9426 79.1848 10.849 79.2784 10.7818 79.4006C10.7167 79.5207 10.6841 79.6621 10.6841 79.8249H10.0307C10.0307 79.5481 10.0938 79.3059 10.22 79.0983C10.3483 78.8907 10.5233 78.7299 10.7452 78.6159C10.9691 78.4999 11.2215 78.4419 11.5023 78.4419C11.7893 78.4419 12.0417 78.4989 12.2595 78.6129C12.4773 78.7268 12.6473 78.8815 12.7694 79.0769C12.8915 79.2703 12.9526 79.4891 12.9526 79.7334C12.9526 79.9023 12.921 80.0672 12.8579 80.228C12.7969 80.3888 12.688 80.5689 12.5312 80.7684C12.3766 80.9658 12.1608 81.204 11.884 81.4828L10.9803 82.4293V82.4659H13.0259V83.0521H10.0338Z" fill="black"/>
<path d="M78.1563 75.7101C77.8062 75.7101 77.506 75.6185 77.2556 75.4353C77.0073 75.2521 76.817 74.9875 76.6847 74.6415C76.5544 74.2935 76.4893 73.8721 76.4893 73.3775C76.4893 72.8849 76.5554 72.4646 76.6878 72.1166C76.8201 71.7665 77.0104 71.4998 77.2587 71.3166C77.509 71.1314 77.8083 71.0388 78.1563 71.0388C78.5064 71.0388 78.8056 71.1314 79.0539 71.3166C79.3043 71.4998 79.4946 71.7665 79.6249 72.1166C79.7572 72.4646 79.8233 72.8849 79.8233 73.3775C79.8233 73.8721 79.7582 74.2935 79.6279 74.6415C79.4977 74.9875 79.3084 75.2521 79.06 75.4353C78.8117 75.6185 78.5105 75.7101 78.1563 75.7101ZM78.1563 75.1239C78.37 75.1239 78.5502 75.0557 78.6967 74.9193C78.8433 74.783 78.9552 74.5845 79.0326 74.324C79.1099 74.0614 79.1486 73.7459 79.1486 73.3775C79.1486 73.0071 79.1099 72.6916 79.0326 72.431C78.9552 72.1685 78.8433 71.969 78.6967 71.8326C78.5502 71.6942 78.37 71.625 78.1563 71.625C77.8408 71.625 77.5966 71.7787 77.4236 72.086C77.2526 72.3913 77.1671 72.8218 77.1671 73.3775C77.1671 73.7459 77.2058 74.0614 77.2831 74.324C77.3605 74.5845 77.4724 74.783 77.619 74.9193C77.7675 75.0557 77.9467 75.1239 78.1563 75.1239ZM81.9392 75.7101C81.6318 75.7101 81.3591 75.6582 81.1209 75.5544C80.8828 75.4486 80.6945 75.302 80.5561 75.1147C80.4177 74.9275 80.3444 74.7107 80.3363 74.4644H81.0263C81.0364 74.5988 81.0822 74.7148 81.1637 74.8125C81.2451 74.9102 81.3519 74.9865 81.4842 75.0415C81.6186 75.0944 81.7682 75.1209 81.9331 75.1209C82.1122 75.1209 82.2709 75.0893 82.4093 75.0262C82.5478 74.9631 82.6556 74.8766 82.733 74.7667C82.8124 74.6547 82.8521 74.5255 82.8521 74.3789C82.8521 74.2263 82.8134 74.0919 82.736 73.9759C82.6587 73.8579 82.5457 73.7663 82.3971 73.7011C82.2485 73.636 82.0694 73.6034 81.8598 73.6034H81.472V73.0417H81.8598C82.0267 73.0417 82.1743 73.0111 82.3025 72.9501C82.4307 72.889 82.5305 72.8045 82.6017 72.6967C82.675 72.5888 82.7116 72.4616 82.7116 72.315C82.7116 72.1746 82.6801 72.0524 82.617 71.9486C82.5539 71.8428 82.4653 71.7614 82.3513 71.7044C82.2374 71.6454 82.103 71.6158 81.9483 71.6158C81.7997 71.6158 81.6613 71.6423 81.5331 71.6952C81.4049 71.7481 81.3 71.8245 81.2186 71.9242C81.1392 72.0219 81.0975 72.141 81.0934 72.2814H80.4309C80.437 72.0351 80.5083 71.8194 80.6446 71.6342C80.783 71.4469 80.9662 71.3014 81.1942 71.1976C81.4242 71.0917 81.6786 71.0388 81.9575 71.0388C82.2485 71.0388 82.4999 71.0958 82.7116 71.2098C82.9253 71.3217 83.0902 71.4723 83.2062 71.6616C83.3222 71.8489 83.3802 72.0535 83.3802 72.2753C83.3802 72.5338 83.309 72.7516 83.1665 72.9287C83.024 73.1037 82.8337 73.2228 82.5956 73.2859V73.3195C82.8968 73.3663 83.1299 73.4864 83.2948 73.6798C83.4617 73.8731 83.5451 74.1133 83.5451 74.4003C83.5451 74.6507 83.4749 74.8746 83.3344 75.072C83.196 75.2694 83.0057 75.4252 82.7635 75.5391C82.5233 75.6531 82.2485 75.7101 81.9392 75.7101Z" fill="black"/>
<path d="M81.3882 33.1494C81.0381 33.1494 80.7379 33.0578 80.4875 32.8746C80.2392 32.6914 80.0489 32.4268 79.9166 32.0808C79.7863 31.7327 79.7212 31.3114 79.7212 30.8168C79.7212 30.3242 79.7873 29.9039 79.9196 29.5558C80.0519 29.2057 80.2422 28.9391 80.4906 28.7559C80.7409 28.5707 81.0401 28.4781 81.3882 28.4781C81.7383 28.4781 82.0375 28.5707 82.2858 28.7559C82.5362 28.9391 82.7265 29.2057 82.8567 29.5558C82.9891 29.9039 83.0552 30.3242 83.0552 30.8168C83.0552 31.3114 82.9901 31.7327 82.8598 32.0808C82.7295 32.4268 82.5402 32.6914 82.2919 32.8746C82.0436 33.0578 81.7424 33.1494 81.3882 33.1494ZM81.3882 32.5632C81.6019 32.5632 81.782 32.495 81.9286 32.3586C82.0751 32.2222 82.1871 32.0238 82.2644 31.7633C82.3418 31.5007 82.3805 31.1852 82.3805 30.8168C82.3805 30.4463 82.3418 30.1308 82.2644 29.8703C82.1871 29.6077 82.0751 29.4083 81.9286 29.2719C81.782 29.1335 81.6019 29.0643 81.3882 29.0643C81.0727 29.0643 80.8284 29.2179 80.6554 29.5253C80.4845 29.8306 80.399 30.2611 80.399 30.8168C80.399 31.1852 80.4376 31.5007 80.515 31.7633C80.5923 32.0238 80.7043 32.2222 80.8508 32.3586C80.9994 32.495 81.1785 32.5632 81.3882 32.5632ZM83.4949 32.1999V31.6472L85.458 28.5391H85.8946V29.3574H85.6137L84.2093 31.5801V31.6167H86.9052V32.1999H83.4949ZM85.6443 33.0883V32.0319L85.6504 31.7785V28.5391H86.3037V33.0883H85.6443Z" fill="black"/>
<path d="M98.5104 63.6815C98.1603 63.6815 97.8601 63.59 97.6098 63.4068C97.3614 63.2236 97.1711 62.959 97.0388 62.6129C96.9086 62.2649 96.8434 61.8436 96.8434 61.3489C96.8434 60.8564 96.9096 60.4361 97.0419 60.088C97.1742 59.7379 97.3645 59.4713 97.6128 59.2881C97.8632 59.1028 98.1624 59.0102 98.5104 59.0102C98.8605 59.0102 99.1597 59.1028 99.4081 59.2881C99.6584 59.4713 99.8487 59.7379 99.979 60.088C100.111 60.4361 100.177 60.8564 100.177 61.3489C100.177 61.8436 100.112 62.2649 99.9821 62.6129C99.8518 62.959 99.6625 63.2236 99.4142 63.4068C99.1658 63.59 98.8646 63.6815 98.5104 63.6815ZM98.5104 63.0953C98.7242 63.0953 98.9043 63.0272 99.0508 62.8908C99.1974 62.7544 99.3093 62.556 99.3867 62.2954C99.464 62.0328 99.5027 61.7174 99.5027 61.3489C99.5027 60.9785 99.464 60.663 99.3867 60.4025C99.3093 60.1399 99.1974 59.9404 99.0508 59.8041C98.9043 59.6656 98.7242 59.5964 98.5104 59.5964C98.1949 59.5964 97.9507 59.7501 97.7777 60.0575C97.6067 60.3628 97.5212 60.7933 97.5212 61.3489C97.5212 61.7174 97.5599 62.0328 97.6372 62.2954C97.7146 62.556 97.8265 62.7544 97.9731 62.8908C98.1217 63.0272 98.3008 63.0953 98.5104 63.0953ZM102.211 63.6815C101.932 63.6815 101.682 63.6286 101.46 63.5228C101.24 63.4149 101.064 63.2673 100.932 63.0801C100.799 62.8908 100.729 62.676 100.721 62.4359H101.387C101.403 62.6292 101.489 62.789 101.646 62.9152C101.803 63.0414 101.991 63.1045 102.211 63.1045C102.386 63.1045 102.541 63.0638 102.675 62.9824C102.809 62.901 102.915 62.79 102.992 62.6496C103.07 62.5071 103.108 62.3443 103.108 62.1611C103.108 61.9779 103.069 61.814 102.989 61.6695C102.91 61.523 102.8 61.408 102.66 61.3245C102.521 61.2411 102.361 61.1993 102.18 61.1993C102.042 61.1993 101.904 61.2238 101.765 61.2726C101.627 61.3194 101.515 61.3805 101.429 61.4558L100.797 61.3642L101.054 59.0713H103.554V59.6606H101.628L101.484 60.9337H101.509C101.596 60.8462 101.713 60.775 101.86 60.72C102.008 60.663 102.168 60.6345 102.339 60.6345C102.616 60.6345 102.862 60.7007 103.078 60.833C103.296 60.9632 103.467 61.1423 103.591 61.3703C103.715 61.5962 103.777 61.8558 103.777 62.1489C103.777 62.444 103.71 62.7076 103.576 62.9396C103.441 63.1696 103.256 63.3508 103.02 63.4831C102.786 63.6154 102.516 63.6815 102.211 63.6815Z" fill="black"/>
<path d="M98.5104 90.0523C98.1603 90.0523 97.8601 89.9607 97.6098 89.7775C97.3614 89.5943 97.1711 89.3297 97.0388 88.9837C96.9086 88.6356 96.8434 88.2143 96.8434 87.7197C96.8434 87.2271 96.9096 86.8068 97.0419 86.4587C97.1742 86.1086 97.3645 85.842 97.6128 85.6588C97.8632 85.4736 98.1624 85.381 98.5104 85.381C98.8605 85.381 99.1597 85.4736 99.4081 85.6588C99.6584 85.842 99.8487 86.1086 99.979 86.4587C100.111 86.8068 100.177 87.2271 100.177 87.7197C100.177 88.2143 100.112 88.6356 99.9821 88.9837C99.8518 89.3297 99.6625 89.5943 99.4142 89.7775C99.1658 89.9607 98.8646 90.0523 98.5104 90.0523ZM98.5104 89.4661C98.7242 89.4661 98.9043 89.3979 99.0508 89.2615C99.1974 89.1251 99.3093 88.9267 99.3867 88.6661C99.464 88.4036 99.5027 88.0881 99.5027 87.7197C99.5027 87.3492 99.464 87.0337 99.3867 86.7732C99.3093 86.5106 99.1974 86.3112 99.0508 86.1748C98.9043 86.0364 98.7242 85.9672 98.5104 85.9672C98.1949 85.9672 97.9507 86.1208 97.7777 86.4282C97.6067 86.7335 97.5212 87.164 97.5212 87.7197C97.5212 88.0881 97.5599 88.4036 97.6372 88.6661C97.7146 88.9267 97.8265 89.1251 97.9731 89.2615C98.1217 89.3979 98.3008 89.4661 98.5104 89.4661ZM102.284 90.0523C102.083 90.0523 101.883 90.0167 101.686 89.9454C101.488 89.8742 101.31 89.7561 101.151 89.5912C100.993 89.4243 100.864 89.2004 100.767 88.9196C100.671 88.6387 100.623 88.2896 100.623 87.8723C100.623 87.4754 100.663 87.1233 100.742 86.8159C100.824 86.5066 100.939 86.246 101.087 86.0343C101.238 85.8206 101.419 85.6588 101.631 85.5489C101.842 85.4369 102.081 85.381 102.345 85.381C102.616 85.381 102.856 85.4349 103.066 85.5428C103.275 85.6486 103.445 85.7952 103.576 85.9824C103.708 86.1697 103.79 86.3834 103.823 86.6236H103.151C103.104 86.4343 103.013 86.2806 102.876 86.1626C102.74 86.0425 102.563 85.9824 102.345 85.9824C102.011 85.9824 101.751 86.128 101.564 86.419C101.378 86.7081 101.286 87.1111 101.286 87.6281H101.319C101.399 87.4998 101.495 87.3899 101.609 87.2983C101.723 87.2047 101.851 87.1335 101.991 87.0846C102.134 87.0358 102.285 87.0113 102.446 87.0113C102.709 87.0113 102.947 87.0755 103.16 87.2037C103.376 87.3319 103.547 87.509 103.673 87.7349C103.802 87.9588 103.866 88.2163 103.866 88.5074C103.866 88.7964 103.8 89.058 103.667 89.292C103.537 89.5261 103.353 89.7113 103.115 89.8477C102.878 89.9841 102.602 90.0523 102.284 90.0523ZM102.281 89.4752C102.456 89.4752 102.612 89.4325 102.748 89.347C102.887 89.2615 102.997 89.1465 103.078 89.002C103.159 88.8554 103.2 88.6926 103.2 88.5135C103.2 88.3384 103.16 88.1797 103.081 88.0372C103.004 87.8947 102.897 87.7818 102.76 87.6983C102.626 87.6128 102.471 87.5701 102.296 87.5701C102.123 87.5701 101.967 87.6138 101.826 87.7014C101.686 87.7889 101.574 87.9049 101.49 88.0494C101.409 88.1939 101.368 88.3507 101.368 88.5196C101.368 88.6885 101.408 88.8463 101.487 88.9928C101.567 89.1394 101.675 89.2564 101.811 89.3439C101.949 89.4315 102.106 89.4752 102.281 89.4752Z" fill="black"/>
<path d="M183.633 89.5893C183.283 89.5893 182.983 89.4977 182.732 89.3145C182.484 89.1313 182.294 88.8667 182.161 88.5207C182.031 88.1726 181.966 87.7513 181.966 87.2567C181.966 86.7641 182.032 86.3438 182.164 85.9957C182.297 85.6456 182.487 85.379 182.735 85.1958C182.986 85.0106 183.285 84.9179 183.633 84.9179C183.983 84.9179 184.282 85.0106 184.531 85.1958C184.781 85.379 184.971 85.6456 185.102 85.9957C185.234 86.3438 185.3 86.7641 185.3 87.2567C185.3 87.7513 185.235 88.1726 185.105 88.5207C184.974 88.8667 184.785 89.1313 184.537 89.3145C184.288 89.4977 183.987 89.5893 183.633 89.5893ZM183.633 89.0031C183.847 89.0031 184.027 88.9349 184.173 88.7985C184.32 88.6621 184.432 88.4637 184.509 88.2031C184.587 87.9406 184.625 87.6251 184.625 87.2567C184.625 86.8862 184.587 86.5707 184.509 86.3102C184.432 86.0476 184.32 85.8481 184.173 85.7118C184.027 85.5734 183.847 85.5042 183.633 85.5042C183.318 85.5042 183.073 85.6578 182.9 85.9652C182.729 86.2705 182.644 86.701 182.644 87.2567C182.644 87.6251 182.682 87.9406 182.76 88.2031C182.837 88.4637 182.949 88.6621 183.096 88.7985C183.244 88.9349 183.423 89.0031 183.633 89.0031ZM185.862 89.5282L187.846 85.6019V85.5683H185.55V84.979H188.561V85.5927L186.579 89.5282H185.862Z" fill="black"/>
<path d="M196.581 89.5893C196.231 89.5893 195.931 89.4977 195.681 89.3145C195.432 89.1313 195.242 88.8667 195.11 88.5207C194.979 88.1726 194.914 87.7513 194.914 87.2567C194.914 86.7641 194.98 86.3438 195.113 85.9957C195.245 85.6456 195.435 85.379 195.684 85.1958C195.934 85.0106 196.233 84.9179 196.581 84.9179C196.931 84.9179 197.231 85.0106 197.479 85.1958C197.729 85.379 197.92 85.6456 198.05 85.9957C198.182 86.3438 198.248 86.7641 198.248 87.2567C198.248 87.7513 198.183 88.1726 198.053 88.5207C197.923 88.8667 197.733 89.1313 197.485 89.3145C197.237 89.4977 196.935 89.5893 196.581 89.5893ZM196.581 89.0031C196.795 89.0031 196.975 88.9349 197.122 88.7985C197.268 88.6621 197.38 88.4637 197.457 88.2031C197.535 87.9406 197.574 87.6251 197.574 87.2567C197.574 86.8862 197.535 86.5707 197.457 86.3102C197.38 86.0476 197.268 85.8481 197.122 85.7118C196.975 85.5734 196.795 85.5042 196.581 85.5042C196.266 85.5042 196.021 85.6578 195.848 85.9652C195.678 86.2705 195.592 86.701 195.592 87.2567C195.592 87.6251 195.631 87.9406 195.708 88.2031C195.785 88.4637 195.897 88.6621 196.044 88.7985C196.192 88.9349 196.372 89.0031 196.581 89.0031ZM200.312 89.5893C199.995 89.5893 199.714 89.5343 199.47 89.4244C199.227 89.3145 199.037 89.1639 198.899 88.9725C198.762 88.7792 198.694 88.5593 198.694 88.313C198.694 88.1238 198.734 87.9477 198.813 87.7849C198.895 87.622 199.004 87.4867 199.143 87.3788C199.281 87.2709 199.437 87.2017 199.61 87.1712V87.1437C199.384 87.0887 199.202 86.9676 199.063 86.7804C198.927 86.5911 198.859 86.3753 198.859 86.1331C198.859 85.899 198.921 85.6904 199.045 85.5072C199.171 85.324 199.343 85.1805 199.561 85.0767C199.781 84.9709 200.031 84.9179 200.312 84.9179C200.589 84.9179 200.836 84.9709 201.054 85.0767C201.274 85.1805 201.446 85.324 201.57 85.5072C201.696 85.6904 201.759 85.899 201.759 86.1331C201.759 86.3753 201.69 86.5911 201.552 86.7804C201.415 86.9676 201.236 87.0887 201.014 87.1437V87.1712C201.185 87.2017 201.34 87.2709 201.478 87.3788C201.617 87.4867 201.727 87.622 201.808 87.7849C201.89 87.9477 201.93 88.1238 201.93 88.313C201.93 88.5593 201.861 88.7792 201.723 88.9725C201.584 89.1639 201.393 89.3145 201.149 89.4244C200.907 89.5343 200.628 89.5893 200.312 89.5893ZM200.312 89.0275C200.499 89.0275 200.662 88.997 200.801 88.9359C200.939 88.8728 201.046 88.7842 201.121 88.6703C201.197 88.5563 201.234 88.424 201.234 88.2734C201.234 88.1146 201.194 87.9752 201.112 87.8551C201.033 87.7329 200.924 87.6373 200.785 87.5681C200.647 87.4968 200.489 87.4612 200.312 87.4612C200.133 87.4612 199.973 87.4958 199.833 87.565C199.694 87.6342 199.586 87.7299 199.506 87.852C199.427 87.9741 199.387 88.1146 199.387 88.2734C199.387 88.424 199.425 88.5563 199.5 88.6703C199.575 88.7842 199.682 88.8728 199.821 88.9359C199.959 88.997 200.123 89.0275 200.312 89.0275ZM200.312 86.9147C200.463 86.9147 200.596 86.8842 200.712 86.8231C200.83 86.762 200.923 86.6776 200.99 86.5697C201.059 86.4618 201.094 86.3356 201.094 86.1911C201.094 86.0486 201.06 85.9245 200.993 85.8186C200.928 85.7128 200.836 85.6304 200.718 85.5713C200.602 85.5123 200.467 85.4828 200.312 85.4828C200.155 85.4828 200.018 85.5123 199.9 85.5713C199.782 85.6304 199.69 85.7128 199.625 85.8186C199.56 85.9245 199.528 86.0486 199.528 86.1911C199.528 86.3356 199.561 86.4618 199.628 86.5697C199.695 86.6776 199.787 86.762 199.903 86.8231C200.021 86.8842 200.157 86.9147 200.312 86.9147Z" fill="black"/>
<path d="M232.666 26.6734C232.316 26.6734 232.016 26.5818 231.765 26.3986C231.517 26.2155 231.327 25.9509 231.194 25.6048C231.064 25.2568 230.999 24.8354 230.999 24.3408C230.999 23.8483 231.065 23.4279 231.197 23.0799C231.33 22.7298 231.52 22.4631 231.768 22.28C232.019 22.0947 232.318 22.0021 232.666 22.0021C233.016 22.0021 233.315 22.0947 233.564 22.28C233.814 22.4631 234.004 22.7298 234.135 23.0799C234.267 23.4279 234.333 23.8483 234.333 24.3408C234.333 24.8354 234.268 25.2568 234.138 25.6048C234.007 25.9509 233.818 26.2155 233.57 26.3986C233.321 26.5818 233.02 26.6734 232.666 26.6734ZM232.666 26.0872C232.88 26.0872 233.06 26.019 233.206 25.8827C233.353 25.7463 233.465 25.5478 233.542 25.2873C233.62 25.0247 233.658 24.7092 233.658 24.3408C233.658 23.9704 233.62 23.6549 233.542 23.3944C233.465 23.1318 233.353 22.9323 233.206 22.7959C233.06 22.6575 232.88 22.5883 232.666 22.5883C232.35 22.5883 232.106 22.742 231.933 23.0493C231.762 23.3547 231.677 23.7852 231.677 24.3408C231.677 24.7092 231.715 25.0247 231.793 25.2873C231.87 25.5478 231.982 25.7463 232.129 25.8827C232.277 26.019 232.456 26.0872 232.666 26.0872ZM236.36 21.9991C236.564 22.0011 236.763 22.0388 236.959 22.112C237.156 22.1833 237.334 22.3013 237.493 22.4662C237.654 22.6311 237.782 22.8539 237.878 23.1348C237.973 23.4137 238.021 23.7617 238.021 24.179C238.021 24.5759 237.981 24.9291 237.902 25.2385C237.823 25.5478 237.708 25.8094 237.557 26.0231C237.409 26.2368 237.228 26.3997 237.017 26.5116C236.805 26.6215 236.568 26.6765 236.305 26.6765C236.035 26.6765 235.793 26.6225 235.582 26.5147C235.37 26.4068 235.199 26.2592 235.069 26.072C234.939 25.8827 234.856 25.6659 234.821 25.4216H235.499C235.544 25.615 235.635 25.7728 235.771 25.8949C235.909 26.015 236.088 26.075 236.305 26.075C236.637 26.075 236.896 25.9295 237.081 25.6384C237.268 25.3473 237.363 24.9413 237.365 24.4202H237.331C237.252 24.5484 237.155 24.6594 237.041 24.753C236.927 24.8446 236.799 24.9148 236.656 24.9637C236.514 25.0125 236.363 25.0369 236.205 25.0369C235.94 25.0369 235.7 24.9728 235.484 24.8446C235.268 24.7164 235.097 24.5403 234.971 24.3164C234.845 24.0905 234.781 23.833 234.779 23.544C234.781 23.2549 234.847 22.9934 234.977 22.7593C235.109 22.5252 235.294 22.34 235.53 22.2036C235.766 22.0652 236.043 21.997 236.36 21.9991ZM236.363 22.5792C236.19 22.5792 236.035 22.6219 235.896 22.7074C235.758 22.7929 235.649 22.9079 235.569 23.0524C235.49 23.1969 235.45 23.3577 235.45 23.5348C235.45 23.7119 235.488 23.8717 235.563 24.0141C235.641 24.1566 235.748 24.2706 235.884 24.3561C236.02 24.4395 236.175 24.4813 236.348 24.4813C236.523 24.4813 236.68 24.4375 236.818 24.35C236.959 24.2604 237.071 24.1434 237.154 23.9989C237.238 23.8523 237.279 23.6946 237.279 23.5256C237.279 23.3587 237.24 23.203 237.16 23.0585C237.081 22.914 236.972 22.798 236.833 22.7104C236.697 22.6229 236.54 22.5792 236.363 22.5792Z" fill="black"/>
<path d="M249.845 22.0632V26.6124H249.167V22.7532H249.137L248.056 23.4646V22.8051L249.186 22.0632H249.845ZM252.098 26.6734C251.748 26.6734 251.448 26.5818 251.198 26.3986C250.949 26.2155 250.759 25.9509 250.627 25.6048C250.496 25.2568 250.431 24.8354 250.431 24.3408C250.431 23.8483 250.497 23.4279 250.63 23.0799C250.762 22.7298 250.952 22.4631 251.201 22.28C251.451 22.0947 251.75 22.0021 252.098 22.0021C252.448 22.0021 252.748 22.0947 252.996 22.28C253.246 22.4631 253.437 22.7298 253.567 23.0799C253.699 23.4279 253.765 23.8483 253.765 24.3408C253.765 24.8354 253.7 25.2568 253.57 25.6048C253.44 25.9509 253.25 26.2155 253.002 26.3986C252.754 26.5818 252.452 26.6734 252.098 26.6734ZM252.098 26.0872C252.312 26.0872 252.492 26.019 252.639 25.8827C252.785 25.7463 252.897 25.5478 252.975 25.2873C253.052 25.0247 253.091 24.7092 253.091 24.3408C253.091 23.9704 253.052 23.6549 252.975 23.3944C252.897 23.1318 252.785 22.9323 252.639 22.7959C252.492 22.6575 252.312 22.5883 252.098 22.5883C251.783 22.5883 251.539 22.742 251.366 23.0493C251.195 23.3547 251.109 23.7852 251.109 24.3408C251.109 24.7092 251.148 25.0247 251.225 25.2873C251.302 25.5478 251.414 25.7463 251.561 25.8827C251.71 26.019 251.889 26.0872 252.098 26.0872Z" fill="black"/>
<path d="M8.7638 33.1494C8.4137 33.1494 8.11348 33.0578 7.86312 32.8746C7.6148 32.6914 7.42448 32.4268 7.29218 32.0808C7.16191 31.7327 7.09678 31.3114 7.09678 30.8168C7.09678 30.3242 7.16293 29.9039 7.29523 29.5558C7.42754 29.2057 7.61785 28.9391 7.86617 28.7559C8.11653 28.5707 8.41574 28.4781 8.7638 28.4781C9.11389 28.4781 9.4131 28.5707 9.66142 28.7559C9.91178 28.9391 10.1021 29.2057 10.2324 29.5558C10.3647 29.9039 10.4308 30.3242 10.4308 30.8168C10.4308 31.3114 10.3657 31.7327 10.2354 32.0808C10.1051 32.4268 9.91585 32.6914 9.66753 32.8746C9.41921 33.0578 9.11796 33.1494 8.7638 33.1494ZM8.7638 32.5632C8.97752 32.5632 9.15765 32.495 9.3042 32.3586C9.45075 32.2222 9.5627 32.0238 9.64005 31.7633C9.7174 31.5007 9.75607 31.1852 9.75607 30.8168C9.75607 30.4463 9.7174 30.1308 9.64005 29.8703C9.5627 29.6077 9.45075 29.4083 9.3042 29.2719C9.15765 29.1335 8.97752 29.0643 8.7638 29.0643C8.4483 29.0643 8.20405 29.2179 8.03104 29.5253C7.86007 29.8306 7.77458 30.2611 7.77458 30.8168C7.77458 31.1852 7.81325 31.5007 7.8906 31.7633C7.96794 32.0238 8.07989 32.2222 8.22644 32.3586C8.37503 32.495 8.55415 32.5632 8.7638 32.5632ZM12.6047 28.5391V33.0883H11.9269V29.2291H11.8963L10.8155 29.9405V29.281L11.9452 28.5391H12.6047Z" fill="black"/>
<circle cx="16.5874" cy="30.7889" r="1.38786" fill="black"/>
<circle cx="16.5874" cy="79.8256" r="1.38786" fill="black"/>
<circle cx="79.9667" cy="66.8737" r="1.38786" fill="black"/>
<circle cx="89.681" cy="30.7889" r="1.38786" fill="black"/>
<circle cx="100.784" cy="68.2602" r="1.38786" fill="black"/>
<circle cx="100.784" cy="79.8256" r="1.38786" fill="black"/>
<circle cx="185.448" cy="65.4853" r="1.38786" fill="black"/>
<circle cx="198.857" cy="65.4853" r="1.38786" fill="black"/>
<circle cx="234.018" cy="31.7151" r="1.38786" fill="black"/>
<circle cx="251.135" cy="30.7889" r="1.38786" fill="black"/>
</svg>
