<svg width="15" height="19" viewBox="0 0 15 19" fill="none" xmlns="http://www.w3.org/2000/svg">
<path d="M7.49995 9.18943C9.72453 9.18943 11.5279 7.37174 11.5279 5.1295C11.5279 2.88727 9.72453 1.06958 7.49995 1.06958C5.27537 1.06958 3.47198 2.88727 3.47198 5.1295C3.47198 7.37174 5.27537 9.18943 7.49995 9.18943Z" stroke="black" stroke-width="0.732357" stroke-miterlimit="10"/>
<path d="M11.2423 9.43423C10.1586 10.2507 8.84193 10.6919 7.48895 10.6919C6.13598 10.6919 4.81931 10.2507 3.73562 9.43423C3.57753 9.3108 3.38845 9.2342 3.18959 9.213C2.99072 9.19181 2.78993 9.22686 2.60972 9.31423C2.42951 9.4016 2.27701 9.53784 2.1693 9.70767C2.0616 9.8775 2.00295 10.0742 1.99994 10.2757C2.00209 10.5423 2.07019 10.8041 2.19807 11.0374C2.32595 11.2707 2.50957 11.4681 2.7323 11.6118C3.41177 12.066 4.15141 12.4214 4.92937 12.6674C5.29443 12.7798 5.66625 12.8686 6.04255 12.9331L3.09847 15.7825C2.88093 16.0096 2.76181 16.3145 2.7673 16.6301C2.77279 16.9457 2.90246 17.2462 3.12777 17.4655C3.35308 17.6848 3.65558 17.8048 3.96872 17.7993C4.28187 17.7938 4.58 17.6631 4.79754 17.436L7.49262 14.6383L10.1877 17.436C10.4052 17.6631 10.7034 17.7938 11.0165 17.7993C11.3297 17.8048 11.6322 17.6848 11.8575 17.4655C12.0828 17.2462 12.2124 16.9457 12.2179 16.6301C12.2234 16.3145 12.1043 16.0096 11.8868 15.7825L8.95733 12.9258C9.33363 12.8612 9.70545 12.7724 10.0705 12.66C10.8485 12.414 11.5881 12.0587 12.2676 11.6044C12.4903 11.4607 12.6739 11.2633 12.8018 11.03C12.9297 10.7967 12.9978 10.5349 12.9999 10.2684C12.9988 10.0635 12.9401 9.86325 12.8308 9.69062C12.7214 9.51799 12.5658 9.38008 12.382 9.29283C12.1981 9.20558 11.9935 9.17256 11.7919 9.19758C11.5902 9.2226 11.3996 9.30465 11.2423 9.43423Z" stroke="black" stroke-width="0.732357" stroke-linecap="round" stroke-linejoin="round"/>
<path d="M7.49294 6.61702C8.50411 6.61702 9.32383 5.84083 9.32383 4.88334C9.32383 3.92585 8.50411 3.14966 7.49294 3.14966C6.48177 3.14966 5.66205 3.92585 5.66205 4.88334C5.66205 5.84083 6.48177 6.61702 7.49294 6.61702Z" stroke="black" stroke-width="0.732357" stroke-miterlimit="10"/>
</svg>
