<svg width="285" height="250" viewBox="0 0 285 250" fill="none" xmlns="http://www.w3.org/2000/svg">
<path d="M1.37305 56.8182C3.01283 53.5387 5.07474 50.7163 7.06288 47.6513C11.1763 41.3097 14.2278 34.5114 18.7587 28.4086C25.2235 19.7008 32.2045 10.4968 41.9131 5.2541C49.3358 1.24586 58.4233 0.126076 66.8062 1.65844C75.9003 3.3208 87.0139 7.06072 94.228 13.0381C116.271 31.3027 113.162 60.8942 104.146 85.1094C98.1681 101.164 88.0657 114.669 75.3014 125.887C62.8389 136.838 51.4537 150.833 42.3083 164.649C33.4701 178 33.2297 192.062 33.3784 207.52C33.4993 220.097 42.0316 232.925 51.4752 240.632C55.8662 244.215 61.6498 248.318 67.5569 248.811C71.781 249.163 76.1582 248.85 80.3986 248.85C85.9826 248.85 89.5267 245.604 94.149 243.16C103.045 238.458 109.244 230.745 114.063 221.982C119.799 211.554 122.858 199.656 126.391 188.317C129.951 176.894 132.893 165.244 135.4 153.545C139.926 132.427 145.79 111.721 151.522 90.8782C157.755 68.2101 165.582 47.9535 180.287 29.2383C191.874 14.4916 209.037 2.76479 228.137 2.76479C236.748 2.76479 241.08 4.61838 245.562 12.3269C251.526 22.5845 252.437 34.6055 252.437 46.2288C252.437 61.0961 250.602 74.0541 246.036 88.2704C241.918 101.091 235.932 113.693 229.915 125.729C223.772 138.014 216.768 150.248 208.696 161.369C200.181 173.102 194.936 185.751 190.244 199.38C187.233 208.126 185.127 218.187 186.293 227.513C188.085 241.852 212.806 243.819 223.751 243.872C238.494 243.942 251.033 244.909 262.631 234.626C270.301 227.826 276.988 219.573 283.731 211.866" stroke="black" stroke-width="0.5" stroke-linecap="round"/>
<circle cx="1.27468" cy="57.0051" r="1.27468" fill="#131313"/>
<circle cx="283.275" cy="212.005" r="1.27468" fill="#131313"/>
<circle cx="94.2747" cy="243.005" r="1.27468" fill="#131313"/>
<circle cx="165.275" cy="54.0051" r="1.27468" fill="#131313"/>
</svg>
