<svg width="724" height="351" viewBox="0 0 724 351" fill="none" xmlns="http://www.w3.org/2000/svg">
<circle cx="524.424" cy="324.38" r="2.40859" fill="#131313"/>
<circle cx="709.409" cy="168.409" r="2.40859" fill="#131313"/>
<circle cx="41.4413" cy="56.3695" r="2.40859" fill="#131313"/>
<circle cx="3.40847" cy="337.481" r="2.40859" fill="#131313"/>
<circle cx="392.831" cy="51.4083" r="2.40859" fill="#131313"/>
<circle cx="55.4086" cy="196.409" r="2.40859" fill="#131313"/>
<path d="M41.2011 56.0786C59.3376 37.9421 74.3932 18.3694 98.029 6.55149C110.592 0.270055 130.799 -2.33505 142.031 7.73541C147.914 13.0099 152.933 18.669 158.409 24.3102C164.489 30.5749 164.399 39.1104 167.288 47.1992C176.522 73.0551 158.796 97.8829 146.076 118.234C139.468 128.808 132.274 137.828 121.707 144.872C105.402 155.742 92.0606 167.824 77.5078 180.982C53.7453 202.465 26.8975 232.24 14.4644 262.08C7.56879 278.629 3.07071 292.557 2.23057 310.62C1.94431 316.775 -0.726989 332.503 3.90778 337.653C19.0774 354.508 42.9638 349.097 63.8928 349.097C124.73 349.097 166.024 301.529 188.993 249.254C194.207 237.387 200.962 226.565 205.963 214.526C211.088 202.186 214.062 188.971 219.578 176.937C229.015 156.346 241.322 131.97 258.153 116.261C277.133 98.5464 294.088 77.0944 317.053 63.9714C324.71 59.5959 333.449 54.5962 341.718 51.5402C349.351 48.7193 361.302 48 369.405 48C376.804 48 383.648 50.751 391.048 50.751C398.217 50.751 403.609 55.1103 410.188 57.4598C427.486 63.6377 442.111 85.92 445.705 103.238C447.481 111.794 452.432 119.627 453.203 128.495C453.598 133.035 456.126 136.28 457.446 140.531C459.212 146.222 458.35 152.451 459.518 158.29C465.216 186.78 461.728 217.495 463.464 246.492C465.317 277.432 476.944 316.19 512.103 320.585C523.15 321.966 547.109 324.145 556.796 318.513C570.472 310.562 583.852 299.961 593.793 287.534C602.171 277.062 616.033 260.81 616.584 246.492C617.116 232.641 617.351 218.275 616.584 204.463C616.385 200.887 613.977 193.627 612.243 190.256C606.391 178.877 599.7 167.898 595.273 155.725C593.795 151.66 590.259 147.704 587.084 144.774C578.316 136.68 572.161 130.7 567.648 119.418C560.358 101.192 567.249 84.5439 575.936 68.411C590.064 42.1728 617.768 43.6475 643.32 43.6475C655.513 43.6475 662.333 43.7883 672.622 49.9617C683.468 56.469 695.499 66.2936 703.996 75.6132C714.78 87.4404 723.136 97.3704 723.136 113.893C723.136 124.849 723.722 135.249 720.965 145.661C719.767 150.19 716.964 155.289 714.257 159.079C712.477 161.57 708.929 165.223 708.929 167.959" stroke="#131313" stroke-width="1.2402" stroke-linecap="round"/>
</svg>
