<svg width="565" height="244" viewBox="0 0 565 244" fill="none" xmlns="http://www.w3.org/2000/svg">
<mask id="path-1-outside-1_764_15727" maskUnits="userSpaceOnUse" x="8" y="25" width="558" height="210" fill="black">
<rect fill="white" x="8" y="25" width="558" height="210"/>
<path d="M9.49091 190V73.3973H41.7183V118.662H50.8963L82.498 73.3973H120.462L79.2648 131.386L120.879 190H82.498L53.7123 148.699H41.7183V190H9.49091ZM130.023 233.596C125.921 233.665 122.062 233.387 118.447 232.761C114.901 232.135 111.98 231.336 109.686 230.362L116.986 206.27L118.029 206.479C123.453 208.078 128.077 208.426 131.901 207.522C135.794 206.687 138.75 203.628 140.766 198.344L142.643 193.337L100.925 73.3973H134.821L158.913 159.024H160.165L184.57 73.3973H218.675L173.41 202.62C171.255 208.878 168.3 214.336 164.545 218.994C160.86 223.653 156.202 227.234 150.57 229.737C144.938 232.309 138.089 233.596 130.023 233.596ZM207.832 190L207.728 164.448H211.587C215.272 164.378 218.262 163.126 220.556 160.693C222.92 158.259 224.693 154.192 225.875 148.49C227.127 142.719 227.927 134.932 228.274 125.128L230.256 73.3973H318.803V190H288.036V98.8455H259.25L257.373 134.515C256.886 144.249 255.704 152.627 253.827 159.65C251.949 166.673 249.342 172.444 246.005 176.963C242.737 181.413 238.704 184.716 233.906 186.871C229.178 188.957 223.72 190 217.532 190H207.832ZM388.84 192.295C376.88 192.295 366.555 189.861 357.864 184.994C349.173 180.127 342.498 173.208 337.839 164.239C333.25 155.2 330.956 144.527 330.956 132.22C330.956 120.261 333.25 109.762 337.839 100.723C342.498 91.6839 349.033 84.6265 357.447 79.5508C365.929 74.4751 375.872 71.9372 387.275 71.9372C394.993 71.9372 402.19 73.1887 408.864 75.6918C415.539 78.1254 421.38 81.8105 426.386 86.7472C431.392 91.6143 435.286 97.7678 438.067 105.208C440.848 112.578 442.239 121.234 442.239 131.177V139.938H343.784V120.018H426.595L411.576 125.232C411.576 119.322 410.672 114.177 408.864 109.797C407.057 105.416 404.345 102.044 400.729 99.6799C397.183 97.2463 392.768 96.0295 387.484 96.0295C382.2 96.0295 377.715 97.2463 374.03 99.6799C370.414 102.113 367.633 105.416 365.686 109.588C363.739 113.76 362.766 118.557 362.766 123.981V138.061C362.766 144.388 363.878 149.811 366.103 154.331C368.328 158.781 371.422 162.223 375.386 164.656C379.418 167.02 384.042 168.202 389.257 168.202C392.872 168.202 396.14 167.681 399.061 166.638C401.981 165.595 404.484 164.065 406.57 162.049C408.725 160.032 410.325 157.599 411.368 154.748L441.196 156.73C439.736 163.891 436.677 170.149 432.018 175.503C427.429 180.787 421.484 184.924 414.184 187.914C406.883 190.834 398.435 192.295 388.84 192.295ZM363.6 57.5444C359.15 57.5444 355.361 56.0147 352.232 52.9554C349.103 49.896 347.573 46.2804 347.643 42.1086C347.573 37.7977 349.103 34.1821 352.232 31.2618C355.361 28.272 359.15 26.7424 363.6 26.6728C367.911 26.7424 371.596 28.272 374.655 31.2618C377.784 34.1821 379.349 37.7977 379.349 42.1086C379.349 46.2804 377.784 49.896 374.655 52.9554C371.596 56.0147 367.911 57.5444 363.6 57.5444ZM409.907 57.5444C405.527 57.5444 401.772 56.0147 398.643 52.9554C395.515 49.896 393.95 46.2804 393.95 42.1086C393.95 37.7977 395.515 34.1821 398.643 31.2618C401.772 28.272 405.527 26.7424 409.907 26.6728C414.288 26.7424 418.008 28.272 421.067 31.2618C424.126 34.1821 425.656 37.7977 425.656 42.1086C425.656 46.2804 424.126 49.896 421.067 52.9554C418.008 56.0147 414.288 57.5444 409.907 57.5444ZM451.838 190V73.3973H484.066V118.662H493.244L524.846 73.3973H562.809L521.612 131.386L563.226 190H524.846L496.06 148.699H484.066V190H451.838Z"/>
</mask>
<path d="M9.49091 190V73.3973H41.7183V118.662H50.8963L82.498 73.3973H120.462L79.2648 131.386L120.879 190H82.498L53.7123 148.699H41.7183V190H9.49091ZM130.023 233.596C125.921 233.665 122.062 233.387 118.447 232.761C114.901 232.135 111.98 231.336 109.686 230.362L116.986 206.27L118.029 206.479C123.453 208.078 128.077 208.426 131.901 207.522C135.794 206.687 138.75 203.628 140.766 198.344L142.643 193.337L100.925 73.3973H134.821L158.913 159.024H160.165L184.57 73.3973H218.675L173.41 202.62C171.255 208.878 168.3 214.336 164.545 218.994C160.86 223.653 156.202 227.234 150.57 229.737C144.938 232.309 138.089 233.596 130.023 233.596ZM207.832 190L207.728 164.448H211.587C215.272 164.378 218.262 163.126 220.556 160.693C222.92 158.259 224.693 154.192 225.875 148.49C227.127 142.719 227.927 134.932 228.274 125.128L230.256 73.3973H318.803V190H288.036V98.8455H259.25L257.373 134.515C256.886 144.249 255.704 152.627 253.827 159.65C251.949 166.673 249.342 172.444 246.005 176.963C242.737 181.413 238.704 184.716 233.906 186.871C229.178 188.957 223.72 190 217.532 190H207.832ZM388.84 192.295C376.88 192.295 366.555 189.861 357.864 184.994C349.173 180.127 342.498 173.208 337.839 164.239C333.25 155.2 330.956 144.527 330.956 132.22C330.956 120.261 333.25 109.762 337.839 100.723C342.498 91.6839 349.033 84.6265 357.447 79.5508C365.929 74.4751 375.872 71.9372 387.275 71.9372C394.993 71.9372 402.19 73.1887 408.864 75.6918C415.539 78.1254 421.38 81.8105 426.386 86.7472C431.392 91.6143 435.286 97.7678 438.067 105.208C440.848 112.578 442.239 121.234 442.239 131.177V139.938H343.784V120.018H426.595L411.576 125.232C411.576 119.322 410.672 114.177 408.864 109.797C407.057 105.416 404.345 102.044 400.729 99.6799C397.183 97.2463 392.768 96.0295 387.484 96.0295C382.2 96.0295 377.715 97.2463 374.03 99.6799C370.414 102.113 367.633 105.416 365.686 109.588C363.739 113.76 362.766 118.557 362.766 123.981V138.061C362.766 144.388 363.878 149.811 366.103 154.331C368.328 158.781 371.422 162.223 375.386 164.656C379.418 167.02 384.042 168.202 389.257 168.202C392.872 168.202 396.14 167.681 399.061 166.638C401.981 165.595 404.484 164.065 406.57 162.049C408.725 160.032 410.325 157.599 411.368 154.748L441.196 156.73C439.736 163.891 436.677 170.149 432.018 175.503C427.429 180.787 421.484 184.924 414.184 187.914C406.883 190.834 398.435 192.295 388.84 192.295ZM363.6 57.5444C359.15 57.5444 355.361 56.0147 352.232 52.9554C349.103 49.896 347.573 46.2804 347.643 42.1086C347.573 37.7977 349.103 34.1821 352.232 31.2618C355.361 28.272 359.15 26.7424 363.6 26.6728C367.911 26.7424 371.596 28.272 374.655 31.2618C377.784 34.1821 379.349 37.7977 379.349 42.1086C379.349 46.2804 377.784 49.896 374.655 52.9554C371.596 56.0147 367.911 57.5444 363.6 57.5444ZM409.907 57.5444C405.527 57.5444 401.772 56.0147 398.643 52.9554C395.515 49.896 393.95 46.2804 393.95 42.1086C393.95 37.7977 395.515 34.1821 398.643 31.2618C401.772 28.272 405.527 26.7424 409.907 26.6728C414.288 26.7424 418.008 28.272 421.067 31.2618C424.126 34.1821 425.656 37.7977 425.656 42.1086C425.656 46.2804 424.126 49.896 421.067 52.9554C418.008 56.0147 414.288 57.5444 409.907 57.5444ZM451.838 190V73.3973H484.066V118.662H493.244L524.846 73.3973H562.809L521.612 131.386L563.226 190H524.846L496.06 148.699H484.066V190H451.838Z" fill="#F4F3EF"/>
<path d="M9.49091 190H8.41165V191.079H9.49091V190ZM9.49091 73.3973V72.3181H8.41165V73.3973H9.49091ZM41.7183 73.3973H42.7976V72.3181H41.7183V73.3973ZM41.7183 118.662H40.639V119.741H41.7183V118.662ZM50.8963 118.662V119.741H51.4591L51.7813 119.28L50.8963 118.662ZM82.498 73.3973V72.3181H81.9352L81.613 72.7795L82.498 73.3973ZM120.462 73.3973L121.341 74.0224L122.552 72.3181H120.462V73.3973ZM79.2648 131.386L78.3849 130.761L77.941 131.386L78.3848 132.011L79.2648 131.386ZM120.879 190V191.079H122.969L121.759 189.375L120.879 190ZM82.498 190L81.6125 190.617L81.9346 191.079H82.498V190ZM53.7123 148.699L54.5977 148.082L54.2756 147.62H53.7123V148.699ZM41.7183 148.699V147.62H40.639V148.699H41.7183ZM41.7183 190V191.079H42.7976V190H41.7183ZM10.5702 190V73.3973H8.41165V190H10.5702ZM9.49091 74.4766H41.7183V72.3181H9.49091V74.4766ZM40.639 73.3973V118.662H42.7976V73.3973H40.639ZM41.7183 119.741H50.8963V117.582H41.7183V119.741ZM51.7813 119.28L83.3829 74.0152L81.613 72.7795L50.0114 118.044L51.7813 119.28ZM82.498 74.4766H120.462V72.3181H82.498V74.4766ZM119.582 72.7723L78.3849 130.761L80.1446 132.011L121.341 74.0224L119.582 72.7723ZM78.3848 132.011L119.999 190.625L121.759 189.375L80.1448 130.761L78.3848 132.011ZM120.879 188.921H82.498V191.079H120.879V188.921ZM83.3834 189.383L54.5977 148.082L52.8269 149.316L81.6125 190.617L83.3834 189.383ZM53.7123 147.62H41.7183V149.778H53.7123V147.62ZM40.639 148.699V190H42.7976V148.699H40.639ZM41.7183 188.921H9.49091V191.079H41.7183V188.921ZM130.023 233.596V232.516H130.014L130.005 232.517L130.023 233.596ZM118.447 232.761L118.259 233.824L118.263 233.825L118.447 232.761ZM109.686 230.362L108.653 230.049L108.372 230.977L109.264 231.356L109.686 230.362ZM116.986 206.27L117.198 205.212L116.238 205.02L115.954 205.957L116.986 206.27ZM118.029 206.479L118.335 205.444L118.288 205.43L118.241 205.42L118.029 206.479ZM131.901 207.522L131.675 206.466L131.664 206.469L131.653 206.471L131.901 207.522ZM140.766 198.344L141.774 198.728L141.776 198.723L140.766 198.344ZM142.643 193.337L143.654 193.716L143.791 193.351L143.663 192.983L142.643 193.337ZM100.925 73.3973V72.3181H99.4068L99.9056 73.7519L100.925 73.3973ZM134.821 73.3973L135.86 73.105L135.639 72.3181H134.821V73.3973ZM158.913 159.024L157.874 159.316L158.096 160.103H158.913V159.024ZM160.165 159.024V160.103H160.98L161.203 159.32L160.165 159.024ZM184.57 73.3973V72.3181H183.756L183.532 73.1015L184.57 73.3973ZM218.675 73.3973L219.693 73.7541L220.196 72.3181H218.675V73.3973ZM173.41 202.62L172.392 202.263L172.39 202.268L173.41 202.62ZM164.545 218.994L163.705 218.317L163.699 218.325L164.545 218.994ZM150.57 229.737L150.131 228.75L150.121 228.755L150.57 229.737ZM130.005 232.517C125.963 232.585 122.172 232.311 118.631 231.698L118.263 233.825C121.952 234.463 125.879 234.745 130.042 234.675L130.005 232.517ZM118.634 231.698C115.136 231.081 112.302 230.3 110.107 229.369L109.264 231.356C111.659 232.372 114.665 233.19 118.259 233.824L118.634 231.698ZM110.719 230.675L118.019 206.583L115.954 205.957L108.653 230.049L110.719 230.675ZM116.775 207.328L117.818 207.537L118.241 205.42L117.198 205.212L116.775 207.328ZM117.724 207.514C123.253 209.144 128.079 209.534 132.149 208.572L131.653 206.471C128.074 207.317 123.652 207.012 118.335 205.444L117.724 207.514ZM132.127 208.577C136.515 207.637 139.687 204.198 141.774 198.728L139.758 197.959C137.812 203.058 135.074 205.738 131.675 206.466L132.127 208.577ZM141.776 198.723L143.654 193.716L141.633 192.959L139.755 197.965L141.776 198.723ZM143.663 192.983L101.944 73.0428L99.9056 73.7519L141.624 193.692L143.663 192.983ZM100.925 74.4766H134.821V72.3181H100.925V74.4766ZM133.782 73.6896L157.874 159.316L159.952 158.732L135.86 73.105L133.782 73.6896ZM158.913 160.103H160.165V157.945H158.913V160.103ZM161.203 159.32L185.608 73.6932L183.532 73.1015L159.127 158.728L161.203 159.32ZM184.57 74.4766H218.675V72.3181H184.57V74.4766ZM217.656 73.0405L172.392 202.263L174.429 202.977L219.693 73.7541L217.656 73.0405ZM172.39 202.268C170.271 208.42 167.373 213.766 163.705 218.317L165.386 219.671C169.227 214.906 172.239 209.335 174.431 202.971L172.39 202.268ZM163.699 218.325C160.126 222.841 155.61 226.316 150.131 228.75L151.008 230.723C156.793 228.152 161.594 224.465 165.392 219.664L163.699 218.325ZM150.121 228.755C144.666 231.247 137.979 232.516 130.023 232.516V234.675C138.199 234.675 145.21 233.372 151.018 230.718L150.121 228.755ZM207.832 190L206.753 190.004L206.757 191.079H207.832V190ZM207.728 164.448V163.368H206.644L206.649 164.452L207.728 164.448ZM211.587 164.448V165.527H211.597L211.607 165.527L211.587 164.448ZM220.556 160.693L219.782 159.941L219.777 159.947L219.771 159.953L220.556 160.693ZM225.875 148.49L224.821 148.262L224.819 148.271L225.875 148.49ZM228.274 125.128L227.196 125.087L227.196 125.09L228.274 125.128ZM230.256 73.3973V72.3181H229.217L229.177 73.356L230.256 73.3973ZM318.803 73.3973H319.882V72.3181H318.803V73.3973ZM318.803 190V191.079H319.882V190H318.803ZM288.036 190H286.956V191.079H288.036V190ZM288.036 98.8455H289.115V97.7662H288.036V98.8455ZM259.25 98.8455V97.7662H258.226L258.172 98.7888L259.25 98.8455ZM257.373 134.515L256.295 134.458L256.295 134.461L257.373 134.515ZM253.827 159.65L252.784 159.371L253.827 159.65ZM246.005 176.963L245.136 176.322L245.135 176.324L246.005 176.963ZM233.906 186.871L234.342 187.859L234.349 187.856L233.906 186.871ZM208.912 189.996L208.807 164.443L206.649 164.452L206.753 190.004L208.912 189.996ZM207.728 165.527H211.587V163.368H207.728V165.527ZM211.607 165.527C215.55 165.452 218.827 164.101 221.342 161.433L219.771 159.953C217.697 162.152 214.994 163.304 211.567 163.368L211.607 165.527ZM221.33 161.445C223.907 158.793 225.735 154.485 226.932 148.709L224.819 148.271C223.652 153.899 221.934 157.726 219.782 159.941L221.33 161.445ZM226.93 148.719C228.201 142.858 229.004 134.998 229.353 125.166L227.196 125.09C226.849 134.866 226.053 142.581 224.821 148.262L226.93 148.719ZM229.353 125.169L231.334 73.4386L229.177 73.356L227.196 125.087L229.353 125.169ZM230.256 74.4766H318.803V72.3181H230.256V74.4766ZM317.724 73.3973V190H319.882V73.3973H317.724ZM318.803 188.921H288.036V191.079H318.803V188.921ZM289.115 190V98.8455H286.956V190H289.115ZM288.036 97.7662H259.25V99.9248H288.036V97.7662ZM258.172 98.7888L256.295 134.458L258.451 134.571L260.328 98.9022L258.172 98.7888ZM256.295 134.461C255.811 144.143 254.636 152.442 252.784 159.371L254.869 159.929C256.772 152.813 257.961 144.355 258.451 134.569L256.295 134.461ZM252.784 159.371C250.932 166.3 248.374 171.938 245.136 176.322L246.873 177.604C250.31 172.949 252.967 167.045 254.869 159.929L252.784 159.371ZM245.135 176.324C241.971 180.632 238.083 183.811 233.464 185.887L234.349 187.856C239.325 185.62 243.502 182.194 246.874 177.602L245.135 176.324ZM233.471 185.884C228.904 187.898 223.599 188.921 217.532 188.921V191.079C223.841 191.079 229.452 190.016 234.342 187.859L233.471 185.884ZM217.532 188.921H207.832V191.079H217.532V188.921ZM337.839 164.239L336.877 164.728L336.881 164.736L337.839 164.239ZM337.839 100.723L336.88 100.228L336.877 100.234L337.839 100.723ZM357.447 79.5508L356.892 78.6246L356.889 78.6267L357.447 79.5508ZM408.864 75.6918L408.485 76.7024L408.495 76.7058L408.864 75.6918ZM426.386 86.7472L425.628 87.5157L425.634 87.521L426.386 86.7472ZM438.067 105.208L437.056 105.585L437.058 105.589L438.067 105.208ZM442.239 139.938V141.017H443.318V139.938H442.239ZM343.784 139.938H342.705V141.017H343.784V139.938ZM343.784 120.018V118.938H342.705V120.018H343.784ZM426.595 120.018L426.949 121.037L426.595 118.938V120.018ZM411.576 125.232H410.497V126.75L411.93 126.252L411.576 125.232ZM400.729 99.6799L400.119 100.57L400.129 100.577L400.139 100.583L400.729 99.6799ZM374.03 99.6799L373.435 98.7792L373.427 98.7845L374.03 99.6799ZM366.103 154.331L365.135 154.808L365.138 154.814L366.103 154.331ZM375.386 164.656L374.821 165.576L374.83 165.582L374.84 165.587L375.386 164.656ZM406.57 162.049L405.833 161.261L405.826 161.267L405.82 161.273L406.57 162.049ZM411.368 154.748L411.439 153.671L410.632 153.618L410.354 154.377L411.368 154.748ZM441.196 156.73L442.254 156.945L442.5 155.735L441.268 155.653L441.196 156.73ZM432.018 175.503L431.204 174.794L431.203 174.795L432.018 175.503ZM414.184 187.914L414.584 188.916L414.593 188.913L414.184 187.914ZM347.643 42.1086L348.722 42.1266L348.722 42.1089L348.722 42.0912L347.643 42.1086ZM352.232 31.2618L352.968 32.0509L352.977 32.0421L352.232 31.2618ZM363.6 26.6728L363.617 25.5937L363.6 25.5934L363.583 25.5937L363.6 26.6728ZM374.655 31.2618L373.901 32.0337L373.91 32.0424L373.919 32.0508L374.655 31.2618ZM374.655 52.9554L373.901 52.1836L373.892 52.1922L374.655 52.9554ZM398.643 31.2618L399.38 32.0509L399.389 32.0421L398.643 31.2618ZM409.907 26.6728L409.925 25.5937L409.907 25.5934L409.89 25.5937L409.907 26.6728ZM421.067 31.2618L420.313 32.0338L420.322 32.0425L421.067 31.2618ZM388.84 191.215C377.028 191.215 366.892 188.813 358.391 184.052L357.336 185.935C366.218 190.909 376.733 193.374 388.84 193.374V191.215ZM358.391 184.052C349.886 179.289 343.36 172.527 338.797 163.741L336.881 164.736C341.635 173.89 348.459 180.964 357.336 185.935L358.391 184.052ZM338.801 163.75C334.304 154.892 332.035 144.393 332.035 132.22H329.876C329.876 144.661 332.196 155.508 336.877 164.728L338.801 163.75ZM332.035 132.22C332.035 120.4 334.302 110.074 338.801 101.211L336.877 100.234C332.198 109.45 329.876 120.122 329.876 132.22H332.035ZM338.798 101.217C343.369 92.3494 349.768 85.4436 358.004 80.4749L356.889 78.6267C348.299 83.8094 341.626 91.0183 336.88 100.228L338.798 101.217ZM358.001 80.4769C366.292 75.516 376.037 73.0165 387.275 73.0165V70.8579C375.708 70.8579 365.567 73.4342 356.892 78.6247L358.001 80.4769ZM387.275 73.0165C394.874 73.0165 401.941 74.2483 408.486 76.7024L409.243 74.6813C402.438 72.1291 395.112 70.8579 387.275 70.8579V73.0165ZM408.495 76.7058C415.026 79.0869 420.734 82.6889 425.628 87.5157L427.144 85.9787C422.026 80.9321 416.053 77.1639 409.234 74.6779L408.495 76.7058ZM425.634 87.521C430.511 92.2625 434.323 98.2746 437.056 105.585L439.078 104.83C436.249 97.261 432.274 90.9661 427.138 85.9734L425.634 87.521ZM437.058 105.589C439.782 112.81 441.16 121.332 441.16 131.177H443.318C443.318 121.137 441.914 112.346 439.077 104.826L437.058 105.589ZM441.16 131.177V139.938H443.318V131.177H441.16ZM442.239 138.859H343.784V141.017H442.239V138.859ZM344.863 139.938V120.018H342.705V139.938H344.863ZM343.784 121.097H426.595V118.938H343.784V121.097ZM426.241 118.998L411.222 124.213L411.93 126.252L426.949 121.037L426.241 118.998ZM412.655 125.232C412.655 119.215 411.735 113.924 409.862 109.385L407.867 110.208C409.609 114.43 410.497 119.43 410.497 125.232H412.655ZM409.862 109.385C407.98 104.824 405.135 101.271 401.32 98.7766L400.139 100.583C403.555 102.817 406.134 106.009 407.867 110.208L409.862 109.385ZM401.34 98.79C397.577 96.2073 392.936 94.9502 387.484 94.9502V97.1088C392.6 97.1088 396.79 98.2853 400.119 100.57L401.34 98.79ZM387.484 94.9502C382.03 94.9502 377.329 96.2079 373.435 98.7793L374.624 100.58C378.101 98.2847 382.369 97.1088 387.484 97.1088V94.9502ZM373.427 98.7845C369.639 101.334 366.733 104.792 364.708 109.132L366.664 110.044C368.533 106.04 371.189 102.893 374.632 100.575L373.427 98.7845ZM364.708 109.132C362.684 113.47 361.686 118.428 361.686 123.981H363.845C363.845 118.687 364.795 114.05 366.664 110.044L364.708 109.132ZM361.686 123.981V138.061H363.845V123.981H361.686ZM361.686 138.061C361.686 144.512 362.821 150.107 365.135 154.808L367.071 153.854C364.936 149.516 363.845 144.264 363.845 138.061H361.686ZM365.138 154.814C367.446 159.431 370.674 163.029 374.821 165.576L375.95 163.736C372.171 161.416 369.21 158.131 367.069 153.848L365.138 154.814ZM374.84 165.587C379.057 168.059 383.873 169.281 389.257 169.281V167.123C384.211 167.123 379.78 165.981 375.931 163.725L374.84 165.587ZM389.257 169.281C392.976 169.281 396.369 168.745 399.424 167.654L398.698 165.621C395.911 166.616 392.769 167.123 389.257 167.123V169.281ZM399.424 167.654C402.478 166.563 405.116 164.955 407.32 162.825L405.82 161.273C403.852 163.175 401.483 164.626 398.698 165.621L399.424 167.654ZM407.307 162.837C409.59 160.702 411.282 158.124 412.381 155.119L410.354 154.377C409.367 157.074 407.861 159.363 405.833 161.261L407.307 162.837ZM411.296 155.825L441.125 157.807L441.268 155.653L411.439 153.671L411.296 155.825ZM440.139 156.514C438.715 163.499 435.736 169.585 431.204 174.794L432.832 176.211C437.617 170.713 440.757 164.284 442.254 156.945L440.139 156.514ZM431.203 174.795C426.738 179.937 420.939 183.981 413.775 186.915L414.593 188.913C422.029 185.867 428.12 181.638 432.833 176.211L431.203 174.795ZM413.783 186.912C406.634 189.771 398.327 191.215 388.84 191.215V193.374C398.543 193.374 407.131 191.897 414.584 188.916L413.783 186.912ZM363.6 56.4651C359.427 56.4651 355.91 55.0421 352.986 52.1837L351.477 53.727C354.812 56.9873 358.873 58.6236 363.6 58.6236V56.4651ZM352.986 52.1837C350.058 49.3204 348.658 45.9859 348.722 42.1266L346.564 42.0906C346.489 46.575 348.148 50.4716 351.477 53.727L352.986 52.1837ZM348.722 42.0912C348.657 38.0829 350.064 34.7611 352.968 32.0508L351.495 30.4728C348.142 33.6031 346.489 37.5125 346.564 42.126L348.722 42.0912ZM352.977 32.0421C355.904 29.246 359.43 27.8174 363.617 27.752L363.583 25.5937C358.87 25.6673 354.818 27.2981 351.486 30.4815L352.977 32.0421ZM363.583 27.752C367.62 27.8171 371.041 29.2384 373.901 32.0337L375.41 30.49C372.151 27.3056 368.202 25.6676 363.617 25.5937L363.583 27.752ZM373.919 32.0508C376.827 34.7653 378.269 38.0944 378.269 42.1086H380.428C380.428 37.501 378.741 33.5989 375.392 30.4728L373.919 32.0508ZM378.269 42.1086C378.269 45.9745 376.833 49.3163 373.901 52.1837L375.41 53.727C378.735 50.4757 380.428 46.5864 380.428 42.1086H378.269ZM373.892 52.1922C371.035 55.05 367.624 56.4651 363.6 56.4651V58.6236C368.198 58.6236 372.158 56.9794 375.419 53.7185L373.892 52.1922ZM409.907 56.4651C405.809 56.4651 402.325 55.0456 399.398 52.1837L397.889 53.727C401.22 56.9838 405.245 58.6236 409.907 58.6236V56.4651ZM399.398 52.1837C396.465 49.3163 395.029 45.9745 395.029 42.1086H392.871C392.871 46.5864 394.564 50.4757 397.889 53.727L399.398 52.1837ZM395.029 42.1086C395.029 38.0944 396.471 34.7653 399.38 32.0508L397.907 30.4728C394.558 33.5989 392.871 37.501 392.871 42.1086H395.029ZM399.389 32.0421C402.319 29.2427 405.812 27.8172 409.925 27.752L409.89 25.5937C405.242 25.6675 401.226 27.3014 397.898 30.4815L399.389 32.0421ZM409.89 27.752C414.002 27.8172 417.456 29.2419 420.313 32.0337L421.821 30.49C418.559 27.3021 414.574 25.6675 409.925 25.5937L409.89 27.752ZM420.322 32.0425C423.163 34.7548 424.577 38.0862 424.577 42.1086H426.735C426.735 37.5092 425.09 33.6095 421.812 30.4811L420.322 32.0425ZM424.577 42.1086C424.577 45.9826 423.169 49.3269 420.304 52.1922L421.83 53.7185C425.084 50.4652 426.735 46.5783 426.735 42.1086H424.577ZM420.304 52.1922C417.45 55.0463 414.006 56.4651 409.907 56.4651V58.6236C414.57 58.6236 418.566 56.9831 421.83 53.7185L420.304 52.1922ZM451.838 190H450.759V191.079H451.838V190ZM451.838 73.3973V72.3181H450.759V73.3973H451.838ZM484.066 73.3973H485.145V72.3181H484.066V73.3973ZM484.066 118.662H482.987V119.741H484.066V118.662ZM493.244 118.662V119.741H493.807L494.129 119.28L493.244 118.662ZM524.846 73.3973V72.3181H524.283L523.961 72.7795L524.846 73.3973ZM562.809 73.3973L563.689 74.0224L564.9 72.3181H562.809V73.3973ZM521.612 131.386L520.733 130.761L520.289 131.386L520.732 132.011L521.612 131.386ZM563.226 190V191.079H565.316L564.106 189.375L563.226 190ZM524.846 190L523.96 190.617L524.282 191.079H524.846V190ZM496.06 148.699L496.945 148.082L496.623 147.62H496.06V148.699ZM484.066 148.699V147.62H482.987V148.699H484.066ZM484.066 190V191.079H485.145V190H484.066ZM452.918 190V73.3973H450.759V190H452.918ZM451.838 74.4766H484.066V72.3181H451.838V74.4766ZM482.987 73.3973V118.662H485.145V73.3973H482.987ZM484.066 119.741H493.244V117.582H484.066V119.741ZM494.129 119.28L525.73 74.0152L523.961 72.7795L492.359 118.044L494.129 119.28ZM524.846 74.4766H562.809V72.3181H524.846V74.4766ZM561.929 72.7723L520.733 130.761L522.492 132.011L563.689 74.0224L561.929 72.7723ZM520.732 132.011L562.346 190.625L564.106 189.375L522.492 130.761L520.732 132.011ZM563.226 188.921H524.846V191.079H563.226V188.921ZM525.731 189.383L496.945 148.082L495.174 149.316L523.96 190.617L525.731 189.383ZM496.06 147.62H484.066V149.778H496.06V147.62ZM482.987 148.699V190H485.145V148.699H482.987ZM484.066 188.921H451.838V191.079H484.066V188.921Z" fill="#F4F3EF" mask="url(#path-1-outside-1_764_15727)"/>
<path fill-rule="evenodd" clip-rule="evenodd" d="M452.808 187.661H483.921V147.788H495.501L523.291 187.661H560.345L520.17 131.073L559.942 75.0897H523.291L492.782 118.789H483.921V75.0897H452.808V187.661ZM486.08 116.63V72.9312H450.65V189.819H486.08V149.946H494.374L522.164 189.819H564.525L522.817 131.073L562.834 75.0897H520.743L491.657 116.63H486.08Z" fill="#131313"/>
<path fill-rule="evenodd" clip-rule="evenodd" d="M336.706 163.776L336.701 163.768C332.088 154.68 329.822 144.028 329.822 131.879C329.822 120.054 332.092 109.572 336.701 100.493L336.707 100.482C341.381 91.4128 347.963 84.2964 356.44 79.1822L356.447 79.1782C365.02 74.0484 375.015 71.5216 386.353 71.5216C394.038 71.5216 401.242 72.7681 407.945 75.2808C414.671 77.7343 420.569 81.4552 425.622 86.4359C430.71 91.3851 434.63 97.6068 437.41 105.044C440.206 112.456 441.575 121.081 441.575 130.872V141.488H365.019C365.385 145.625 366.341 149.207 367.847 152.266C369.824 156.217 372.537 159.22 375.985 161.342C379.505 163.401 383.578 164.458 388.266 164.458C391.549 164.458 394.453 163.985 397.005 163.073C399.555 162.163 401.702 160.843 403.48 159.124L403.493 159.112L403.506 159.1C405.332 157.391 406.691 155.33 407.585 152.886L407.326 153.551L440.524 155.676V155.972C439.043 163.239 435.927 169.622 431.178 175.08C426.5 180.467 420.469 184.646 413.149 187.644L413.14 187.648L413.132 187.651C405.78 190.592 397.342 192.034 387.863 192.034C376.022 192.034 365.675 189.623 356.904 184.711C348.14 179.803 341.399 172.813 336.71 163.785L336.706 163.776ZM365.913 153.225C364.245 149.838 363.225 145.926 362.852 141.488C362.793 140.782 362.75 140.063 362.723 139.33H439.416V130.872C439.416 121.273 438.074 112.915 435.388 105.8C432.703 98.6176 428.944 92.6769 424.111 87.978C419.278 83.2121 413.64 79.6543 407.195 77.3049C400.751 74.8884 393.804 73.6801 386.353 73.6801C375.344 73.6801 365.745 76.1302 357.555 81.0304C349.433 85.9307 343.123 92.744 338.626 101.47C334.195 110.197 331.98 120.333 331.98 131.879C331.98 143.76 334.195 154.064 338.626 162.79C343.123 171.45 349.567 178.129 357.958 182.828C366.349 187.526 376.317 189.876 387.863 189.876C397.126 189.876 405.282 188.466 412.331 185.647C419.379 182.76 425.118 178.766 429.548 173.665C433.578 169.034 436.368 163.703 437.919 157.671C438.099 156.971 438.262 156.26 438.409 155.541L409.58 153.695C408.573 156.447 407.061 158.729 404.98 160.676C402.966 162.623 400.55 164.099 397.731 165.106C394.911 166.113 391.756 166.617 388.266 166.617C383.231 166.617 378.767 165.475 374.874 163.193C371.048 160.844 368.061 157.521 365.913 153.225ZM409.568 120.098C409.493 119.364 409.401 118.645 409.293 117.939C408.861 115.143 408.162 112.573 407.195 110.23C405.45 106.001 402.832 102.746 399.342 100.464C395.918 98.1141 391.656 96.9394 386.554 96.9394C381.452 96.9394 377.123 98.1141 373.565 100.464C370.075 102.813 367.389 106.001 365.51 110.029C364.381 112.448 363.591 115.085 363.14 117.939C363.029 118.646 362.938 119.365 362.868 120.098H409.568ZM365.328 117.939H407.107C406.696 115.424 406.057 113.131 405.2 111.054C403.604 107.186 401.251 104.291 398.16 102.27L398.14 102.257L398.12 102.243C395.131 100.192 391.32 99.0979 386.554 99.0979C381.795 99.0979 377.901 100.189 374.762 102.26C371.619 104.378 369.188 107.252 367.466 110.942C366.474 113.068 365.757 115.397 365.328 117.939ZM363.497 27.822L363.531 27.8226C368.231 27.8984 372.311 29.5857 375.66 32.8495C379.11 36.0777 380.859 40.1356 380.859 44.8829C380.859 49.5189 379.094 53.5545 375.686 56.8905C372.331 60.2409 368.228 61.9435 363.496 61.9435C358.647 61.9435 354.443 60.2533 351.012 56.898C347.599 53.5609 345.864 49.5204 345.932 44.8828C345.864 40.1352 347.583 36.0723 351.038 32.8424C354.463 29.5739 358.644 27.8979 363.462 27.8226L363.497 27.822ZM352.521 34.4112C349.5 37.2305 348.023 40.721 348.091 44.8829C348.023 48.9105 349.5 52.401 352.521 55.3546C355.542 58.3082 359.2 59.7849 363.496 59.7849C367.658 59.7849 371.216 58.3082 374.169 55.3546C377.19 52.401 378.7 48.9105 378.7 44.8829C378.7 40.721 377.19 37.2305 374.169 34.4112C371.216 31.5247 367.658 30.0479 363.496 29.9808C359.2 30.0479 355.542 31.5247 352.521 34.4112ZM408.202 27.822L408.237 27.8226C412.998 27.8981 417.118 29.5818 420.475 32.8582C423.859 36.0922 425.565 40.1481 425.565 44.8829C425.565 49.5062 423.844 53.5393 420.502 56.8809C417.138 60.2449 412.996 61.9435 408.202 61.9435C403.41 61.9435 399.243 60.2463 395.819 56.898C392.405 53.5605 390.638 49.5224 390.638 44.8829C390.638 40.1315 392.391 36.0705 395.847 32.8409C399.264 29.5801 403.408 27.8981 408.168 27.8226L408.202 27.822ZM418.976 34.4112C416.023 31.5247 412.431 30.0479 408.202 29.9808C403.973 30.0479 400.349 31.5247 397.328 34.4112C394.307 37.2305 392.797 40.721 392.797 44.8829C392.797 48.9105 394.307 52.401 397.328 55.3546C400.349 58.3082 403.973 59.7849 408.202 59.7849C412.431 59.7849 416.023 58.3082 418.976 55.3546C421.93 52.401 423.406 48.9105 423.406 44.8829C423.406 40.721 421.93 37.2305 418.976 34.4112Z" fill="#131313"/>
<path fill-rule="evenodd" clip-rule="evenodd" d="M211.053 187.661H220.417C226.391 187.661 231.661 186.654 236.225 184.64C240.857 182.559 244.75 179.371 247.905 175.074C251.127 170.711 253.644 165.14 255.457 158.36C257.269 151.58 258.41 143.491 258.88 134.094L260.693 99.6579H288.483V187.661H318.186V75.0897H232.701L230.788 125.032C230.452 134.497 229.68 142.015 228.472 147.586C227.331 153.091 225.619 157.017 223.337 159.367C221.122 161.716 218.235 162.925 214.678 162.992H210.952L211.053 187.661ZM214.656 160.833H210.952L210.95 189.819H220.417C226.633 189.819 232.209 188.771 237.096 186.615L237.11 186.609C242.099 184.368 246.281 180.933 249.645 176.352C253.066 171.718 255.68 165.883 257.542 158.917C259.404 151.952 260.561 143.707 261.036 134.207M261.036 134.202L262.741 101.816H286.325V189.819H320.345V72.9312H230.624L228.631 124.949L228.631 124.955C228.297 134.364 227.532 141.737 226.363 147.129L226.36 147.138L226.358 147.148C225.248 152.505 223.646 155.951 221.789 157.863L221.777 157.874L221.766 157.886C219.996 159.764 217.689 160.772 214.656 160.833" fill="#131313"/>
<path fill-rule="evenodd" clip-rule="evenodd" d="M107.027 91.1749L141.699 190.855L140.164 194.946C140.164 194.948 140.163 194.951 140.162 194.953C138.357 199.679 135.938 201.873 133.17 202.466L133.148 202.471L133.126 202.476C129.925 203.232 125.866 202.981 120.841 201.499L120.749 201.472L117.726 200.867L109.547 227.857L111.333 228.615C113.748 229.639 116.739 230.448 120.258 231.069L120.265 231.07C123.899 231.699 127.755 231.975 131.828 231.907C139.823 231.906 146.749 230.631 152.533 227.991C158.27 225.44 163.046 221.774 166.825 216.999C170.619 212.29 173.584 206.8 175.736 200.553L175.738 200.547L220.439 72.9312H184.471L184.45 75.1637L161.153 156.901L138.077 72.9312H100.682L101.432 75.0897H136.442L159.701 157.756H160.909L184.471 75.0897H217.396L173.697 199.844C171.616 205.885 168.763 211.155 165.138 215.652C161.581 220.15 157.083 223.607 151.646 226.023C146.209 228.507 139.597 229.749 131.81 229.749C127.85 229.816 124.124 229.548 120.634 228.943C117.21 228.339 114.391 227.567 112.176 226.628L119.224 203.368L120.231 203.57C125.467 205.114 129.931 205.449 133.622 204.576C137.382 203.771 140.234 200.817 142.181 195.716L143.994 190.883L108.561 89.0153L107.027 91.1749Z" fill="#131313"/>
<path d="M81.8035 187.661L54.0132 147.788H42.4339V187.661H11.3208V189.819H44.5924V149.946H52.8865L80.6769 189.819H123.037L81.3296 131.073L109.432 91.5174L108.561 89.0153L78.6821 131.073L118.857 187.661H81.8035Z" fill="#131313"/>
<path d="M50.169 116.63H44.5924V72.9312H11.3208V75.0897H42.4339V118.789H51.2946L81.8035 75.0897H121.102L122.636 72.9312H80.678L50.169 116.63Z" fill="#131313"/>
<circle cx="14.0304" cy="74.3381" r="3.23779" fill="#131313"/>
<circle cx="14.0304" cy="188.741" r="3.23779" fill="#131313"/>
<circle cx="161.889" cy="158.521" r="3.23779" fill="#131313"/>
<circle cx="184.554" cy="74.3381" r="3.23779" fill="#131313"/>
<circle cx="210.456" cy="161.758" r="3.23779" fill="#131313"/>
<circle cx="210.456" cy="188.741" r="3.23779" fill="#131313"/>
<circle cx="407.962" cy="155.283" r="3.23779" fill="#131313"/>
<circle cx="521.238" cy="76.2378" r="3.23779" fill="#131313"/>
<circle cx="439.26" cy="155.283" r="3.23779" fill="#131313"/>
<circle cx="560.238" cy="76.2378" r="3.23779" fill="#131313"/>
</svg>
