<svg width="88" height="38" viewBox="0 0 88 38" fill="none" xmlns="http://www.w3.org/2000/svg">
<path fill-rule="evenodd" clip-rule="evenodd" d="M54.4565 19.346C53.9917 19.346 53.6296 19.7608 53.7691 20.2042V20.2042C54.0768 21.1824 54.6455 21.9527 55.3776 22.507C56.2381 23.1584 57.3242 23.5113 58.4777 23.5527C58.5541 23.5554 58.6308 23.5568 58.7077 23.5568C59.4292 23.5568 60.2266 23.4239 61.0249 23.1858C61.5347 23.0338 62.045 22.839 62.5361 22.6085C62.6548 22.5527 62.7724 22.4949 62.8886 22.4351C63.2094 22.2701 63.5196 22.0899 63.8134 21.8968V21.8968C63.8744 21.8567 63.9573 21.8882 63.9752 21.9589L64.4365 23.7834C64.5738 24.3261 64.3846 24.9078 63.9069 25.1996C63.5317 25.4289 63.126 25.6363 62.6986 25.8188C61.477 26.3408 60.0783 26.6601 58.7077 26.7085C58.6235 26.7114 58.5394 26.7134 58.4555 26.7143L58.4214 26.7146L58.3827 26.7148L58.3459 26.7149C55.3231 26.7149 52.9079 25.6082 51.3994 23.6503C50.2812 22.199 49.6612 20.2799 49.6612 17.9972C49.6612 15.6818 50.2959 13.6903 51.3994 12.1977C52.0575 11.3075 52.8824 10.5946 53.8389 10.0964C54.0518 9.98544 54.2713 9.88515 54.4969 9.7959C55.2452 9.49992 56.0609 9.32545 56.9299 9.28745C56.9813 9.2852 57.0329 9.28343 57.0846 9.28214C57.1538 9.28042 57.2233 9.27955 57.2932 9.27955L57.3261 9.27961C57.6045 9.28069 57.8765 9.29535 58.1415 9.32299C58.776 9.38917 59.3715 9.52977 59.9249 9.73664C60.1915 9.83628 60.4483 9.95129 60.695 10.0808C61.3918 10.4464 62.0081 10.9275 62.5361 11.5033C63.6429 12.7104 64.3616 14.3342 64.6208 16.185C64.6237 16.2053 64.6264 16.2255 64.6292 16.2458C64.682 16.6389 64.7141 17.0421 64.7249 17.4536C64.729 17.6117 64.73 17.771 64.7279 17.9314C64.7279 18.2654 64.6977 18.5843 64.668 18.8984V18.8984C64.6442 19.1504 64.433 19.346 64.1799 19.346H54.4565ZM49.5266 5.06876C49.5266 5.86492 48.9532 6.64492 48.1571 6.64492H38.0404C38.0319 6.64492 38.026 6.63642 38.029 6.62848V6.62848C38.032 6.62055 38.0262 6.61205 38.0177 6.61205H28.707C27.9014 6.61205 27.1836 7.12102 26.9172 7.88132L26.5269 8.99472C25.9876 10.5336 23.8112 10.5336 23.2719 8.99472V8.99472L22.8816 7.88132C22.6152 7.12102 21.8975 6.61205 21.0918 6.61205H12.7591C12.4344 6.61205 12.1249 6.74971 11.9075 6.99086V6.99086L11.1486 7.83247C10.7002 8.32973 9.87482 8.01254 9.87482 7.34299V7.34299C9.87482 6.9393 9.54757 6.61205 9.14388 6.61205H1.89659C0.849132 6.61205 0 7.46118 0 8.50864V27.4858C0 28.5333 0.849133 29.3824 1.89659 29.3824H8.94615C9.45904 29.3824 9.87482 28.9667 9.87482 28.4538V28.4538C9.87482 27.5684 10.9961 27.1852 11.5379 27.8854L12.2913 28.8589C12.5468 29.1891 12.9409 29.3824 13.3584 29.3824H15.9834C17.3445 29.3824 18.2626 30.7739 17.727 32.0253L16.4693 34.9638C15.9337 36.2152 16.8517 37.6066 18.2129 37.6066H24.9491C25.7367 37.6066 26.4423 37.1199 26.722 36.3838L28.9178 30.6053C29.1976 29.8691 29.9032 29.3824 30.6907 29.3824H31.0992C33.3919 29.3824 35.6396 28.8686 37.4109 27.453C38.439 26.6313 38.8776 26.1016 39.1326 25.6381C39.3458 25.2504 39.7198 24.9659 40.1623 24.9659V24.9659C40.7511 24.9659 41.2285 25.4432 41.2285 26.0321V27.4858C41.2285 28.5333 42.0776 29.3824 43.1251 29.3824L49.6318 29.3824C50.0346 29.3824 50.4147 29.1953 50.6603 28.876V28.876C51.0764 28.3352 51.8372 28.2166 52.4438 28.5291C54.1977 29.4326 56.2127 29.8759 58.3459 29.8759C59.6389 29.8759 60.9791 29.8104 62.2634 29.4612C62.445 29.4118 62.6317 29.3824 62.8199 29.3824H71.4822C71.9951 29.3824 72.4109 28.9667 72.4109 28.4538V28.4538C72.4109 27.5684 73.5321 27.1852 74.074 27.8854L74.8274 28.8589C75.0829 29.1891 75.4769 29.3824 75.8945 29.3824H83.6824C85.2791 29.3824 86.1612 27.5299 85.1547 26.2903L79.0347 18.7533C78.4412 18.0224 78.4738 16.9667 79.1113 16.2737L85.0738 9.79273C86.1922 8.57708 85.3299 6.61205 83.678 6.61205H75.3027C74.9732 6.61205 74.6592 6.75172 74.4385 6.99641L73.6847 7.83247C73.2363 8.32973 72.4109 8.01254 72.4109 7.34299V7.34299C72.4109 6.9393 72.0836 6.61205 71.6799 6.61205H66.2103C65.4281 6.61205 64.8623 5.851 64.8623 5.06876V5.06876C64.8623 3.82786 64.4633 2.5328 63.5131 1.5201C62.548 0.491504 61.2407 -0.000244141 59.9249 -0.000244141C59.376 -0.000244141 58.8251 0.0834455 58.298 0.25721C57.5949 0.489008 56.8122 0.489093 56.1093 0.256602C55.5892 0.0845629 55.0439 -0.000244141 54.4969 -0.000244141C53.188 -0.000244141 51.8882 0.48555 50.9206 1.49039C49.9585 2.48947 49.5266 3.78888 49.5266 5.06876V5.06876ZM13.1694 10.3116L10.019 13.8055C8.85553 15.0957 6.71384 14.2727 6.71384 12.5354V11.5495C6.71384 10.5684 5.91851 9.77303 4.93741 9.77303V9.77303C3.95632 9.77303 3.16098 10.5684 3.16098 11.5495V24.445C3.16098 25.4261 3.95632 26.2214 4.93741 26.2214V26.2214C5.91851 26.2214 6.71384 25.4261 6.71384 24.445V23.0828C6.71384 22.605 6.89417 22.1449 7.21879 21.7943L7.65987 21.3179C8.45617 20.4579 9.83412 20.5188 10.5514 21.4457L13.7554 25.5859C14.0656 25.9868 14.5439 26.2214 15.0508 26.2214V26.2214C16.4299 26.2214 17.1917 24.6214 16.3224 23.5509L11.9347 18.1473C11.8576 18.0524 11.7418 17.9972 11.6195 17.9972V17.9972C11.2659 17.9972 11.0813 17.5766 11.3208 17.3164L14.8275 13.5047C15.7822 12.4669 17.4953 12.7969 17.9962 14.1151L22.4797 25.9137C22.5501 26.099 22.7277 26.2214 22.9259 26.2214V26.2214C23.2684 26.2214 23.4995 26.5716 23.3647 26.8866L21.1969 31.9515C20.6914 33.1325 21.5578 34.4457 22.8424 34.4457V34.4457C23.5856 34.4457 24.2515 33.9863 24.5155 33.2916L28.1455 23.739L29.8159 19.3431L31.4279 15.1011L32.5345 12.1891C32.9778 11.0224 32.116 9.77303 30.8679 9.77303V9.77303C30.1106 9.77303 29.436 10.2515 29.1855 10.9661L26.6892 18.0883C26.0961 19.7806 23.7027 19.7806 23.1096 18.0883L20.8464 11.6311L20.64 11.0423C20.3735 10.282 19.6558 9.77303 18.8502 9.77303H14.3804C13.9187 9.77303 13.4786 9.96876 13.1694 10.3116V10.3116ZM15.872 17.4237C15.8243 17.2984 15.6614 17.267 15.5706 17.3657V17.3657C15.51 17.4316 15.5069 17.532 15.5633 17.6015V17.6015C15.6925 17.7606 15.9448 17.6153 15.872 17.4237V17.4237ZM48.2383 11.2515C48.2384 10.4531 47.5912 9.80591 46.7928 9.80591H36.8216L34.9836 9.80592C34.7639 9.80593 34.5854 9.98354 34.5849 10.2033V10.2033C34.5836 10.9018 34.587 11.5866 34.5904 12.2533V12.2538C34.5916 12.4939 34.5927 12.7317 34.5937 12.9669C34.5975 13.9057 34.5975 14.8036 34.5792 15.6468L34.5778 15.7106C34.4934 19.4055 34.0492 22.0379 32.0176 22.4481V22.4481C31.6885 22.5146 31.4055 22.7605 31.3759 23.0948L31.2557 24.4531V24.4531C31.1716 25.4034 31.9271 26.244 32.866 26.0746C33.3993 25.9784 33.8854 25.8352 34.3234 25.6458C35.9663 24.9352 36.9314 23.5742 37.1601 21.6047C37.1795 21.438 37.2153 21.274 37.2655 21.1139C37.8609 19.2163 37.9396 15.896 38.0012 12.9669L38.0043 12.8223V12.8223C38.0061 12.7365 38.0761 12.6679 38.1619 12.6679H42.4929C43.5404 12.6679 44.3895 13.5171 44.3895 14.5645V24.3248C44.3895 25.3723 45.2386 26.2214 46.2861 26.2214H46.6415C47.5235 26.2214 48.2384 25.5065 48.2384 24.6245V24.6245L48.2383 11.2515V11.2515ZM69.2499 24.7731C69.2499 25.573 68.6015 26.2214 67.8016 26.2214V26.2214L67.5936 26.2214C66.5461 26.2214 65.697 25.3723 65.697 24.3249L65.697 11.5495C65.697 10.5684 66.4924 9.77303 67.4735 9.77303V9.77303C68.4546 9.77303 69.2499 10.5684 69.2499 11.5495V12.5354C69.2499 14.2727 71.3916 15.0957 72.555 13.8055L75.6874 10.3316C76.0081 9.97602 76.4645 9.77303 76.9433 9.77303V9.77303C78.416 9.77303 79.1849 11.525 78.1877 12.6089L73.8568 17.3164C73.6174 17.5766 73.802 17.9972 74.1556 17.9972V17.9972C74.2779 17.9972 74.3937 18.0524 74.4708 18.1473L78.8585 23.5509C79.7278 24.6214 78.9659 26.2214 77.5869 26.2214V26.2214C77.08 26.2214 76.6017 25.9868 76.2915 25.5859L73.0875 21.4457C72.3702 20.5188 70.9922 20.4579 70.1959 21.3179L69.7548 21.7943C69.4302 22.1449 69.2499 22.605 69.2499 23.0828V24.7731ZM60.8815 6.72102C61.3911 6.40716 61.7013 5.82256 61.7013 5.06876C61.7013 3.91737 60.9776 3.16074 59.9249 3.16074C59.6503 3.16074 59.3988 3.20917 59.1763 3.30017C58.5194 3.56886 58.1156 4.20867 58.1156 5.06876C58.1156 5.4974 58.2159 5.87132 58.3978 6.17187C58.581 6.47439 58.8468 6.70256 59.1763 6.83734C59.3988 6.92834 59.6503 6.97677 59.9249 6.97677C60.2884 6.97677 60.6127 6.88655 60.8815 6.72102ZM56.0028 6.19201C56.1966 5.88809 56.3063 5.50702 56.3063 5.06876C56.3063 4.21243 55.8878 3.57446 55.2402 3.30372C55.017 3.21043 54.7667 3.16074 54.4969 3.16074C53.4442 3.16074 52.6876 3.91737 52.6876 5.06876C52.6876 5.85288 53.0385 6.45392 53.5949 6.75757C53.8555 6.89979 54.1612 6.97677 54.4969 6.97677C54.7667 6.97677 55.017 6.92708 55.2402 6.83379C55.5563 6.70162 55.8179 6.48191 56.0028 6.19201ZM54.2751 17.0432C53.8061 17.0432 53.4281 16.6476 53.5053 16.185V16.185C53.6606 15.2537 53.9782 14.48 54.4229 13.8822C55.074 13.0069 55.9978 12.5087 57.0844 12.4447C57.1533 12.4406 57.2229 12.4383 57.2932 12.4378C57.3041 12.4377 57.3151 12.4376 57.3261 12.4376C57.4862 12.4376 57.6408 12.4467 57.7898 12.4644C58.8045 12.5848 59.5644 13.1046 60.088 13.8822C60.509 14.5076 60.7771 15.2997 60.9021 16.185V16.185C60.9678 16.6509 60.5863 17.0432 60.1157 17.0432H54.2751Z" fill="black"/>
<path d="M13.1694 10.3116L10.019 13.8055C8.85553 15.0957 6.71384 14.2727 6.71384 12.5354V11.5495C6.71384 10.5684 5.91851 9.77303 4.93741 9.77303V9.77303C3.95632 9.77303 3.16098 10.5684 3.16098 11.5495V24.445C3.16098 25.4261 3.95632 26.2214 4.93741 26.2214V26.2214C5.91851 26.2214 6.71384 25.4261 6.71384 24.445V23.0828C6.71384 22.605 6.89417 22.1449 7.21879 21.7943L7.65987 21.3179C8.45617 20.4579 9.83412 20.5188 10.5514 21.4457L13.7554 25.5859C14.0656 25.9868 14.5439 26.2214 15.0508 26.2214V26.2214C16.4299 26.2214 17.1917 24.6214 16.3224 23.5509L11.9347 18.1473C11.8576 18.0524 11.7418 17.9972 11.6195 17.9972V17.9972C11.2659 17.9972 11.0813 17.5766 11.3208 17.3164L14.8275 13.5047C15.7822 12.4669 17.4953 12.7969 17.9962 14.1151L22.4797 25.9137C22.5501 26.099 22.7277 26.2214 22.9259 26.2214V26.2214C23.2684 26.2214 23.4995 26.5716 23.3647 26.8866L21.1969 31.9515C20.6914 33.1325 21.5578 34.4457 22.8424 34.4457V34.4457C23.5856 34.4457 24.2515 33.9863 24.5155 33.2916L28.1455 23.739L29.8159 19.3431L31.4279 15.1011L32.5345 12.1891C32.9778 11.0224 32.116 9.77303 30.8679 9.77303V9.77303C30.1106 9.77303 29.436 10.2515 29.1855 10.9661L26.6892 18.0883C26.0961 19.7806 23.7027 19.7806 23.1096 18.0883L20.8464 11.6311L20.64 11.0423C20.3735 10.282 19.6558 9.77303 18.8502 9.77303H14.3804C13.9187 9.77303 13.4786 9.96876 13.1694 10.3116V10.3116Z" fill="black"/>
<path d="M36.8216 9.80591H46.7928C47.5912 9.80591 48.2384 10.4531 48.2383 11.2515V11.2515L48.2384 24.6245V24.6245C48.2384 25.5065 47.5235 26.2214 46.6415 26.2214H46.2861C45.2386 26.2214 44.3895 25.3723 44.3895 24.3248V14.5645C44.3895 13.5171 43.5404 12.6679 42.4929 12.6679H38.1619C38.0761 12.6679 38.0061 12.7365 38.0043 12.8223V12.8223L38.0012 12.9669C37.9396 15.896 37.8609 19.2163 37.2655 21.1139C37.2153 21.274 37.1795 21.438 37.1601 21.6047C36.9314 23.5742 35.9663 24.9352 34.3234 25.6458C33.8854 25.8352 33.3993 25.9784 32.866 26.0746C31.9271 26.244 31.1716 25.4034 31.2557 24.4531V24.4531L31.3759 23.0948C31.4055 22.7605 31.6885 22.5146 32.0176 22.4481V22.4481C34.0492 22.0379 34.4934 19.4055 34.5778 15.7106L34.5792 15.6468C34.5975 14.8036 34.5975 13.9057 34.5937 12.9669C34.5927 12.7317 34.5916 12.4939 34.5904 12.2538V12.2533C34.587 11.5866 34.5836 10.9018 34.5849 10.2033V10.2033C34.5854 9.98354 34.7639 9.80593 34.9836 9.80592L36.8216 9.80591Z" fill="black"/>
<path fill-rule="evenodd" clip-rule="evenodd" d="M53.7691 20.2042V20.2042C53.6296 19.7608 53.9917 19.346 54.4565 19.346H64.1799C64.433 19.346 64.6442 19.1504 64.668 18.8984V18.8984C64.6977 18.5843 64.7279 18.2654 64.7279 17.9314C64.73 17.771 64.729 17.6117 64.7249 17.4536C64.7141 17.0421 64.682 16.6389 64.6292 16.2458C64.6264 16.2255 64.6237 16.2053 64.6208 16.185C64.3616 14.3342 63.6429 12.7104 62.5361 11.5033C62.0081 10.9275 61.3918 10.4464 60.695 10.0808C60.4483 9.95129 60.1915 9.83628 59.9249 9.73664C59.3715 9.52977 58.776 9.38917 58.1415 9.32299C57.8765 9.29535 57.6045 9.28069 57.3261 9.27961L57.2932 9.27955C57.2233 9.27955 57.1538 9.28042 57.0846 9.28214C57.0329 9.28343 56.9813 9.2852 56.9299 9.28745C56.0609 9.32545 55.2452 9.49992 54.4969 9.7959C54.2713 9.88515 54.0518 9.98544 53.8389 10.0964C52.8824 10.5946 52.0575 11.3075 51.3994 12.1977C50.2959 13.6903 49.6612 15.6818 49.6612 17.9972C49.6612 20.2799 50.2812 22.199 51.3994 23.6503C52.9079 25.6082 55.3231 26.7149 58.3459 26.7149L58.3827 26.7148L58.4214 26.7146L58.4555 26.7143C58.5394 26.7134 58.6235 26.7114 58.7077 26.7085C60.0783 26.6601 61.477 26.3408 62.6986 25.8188C63.126 25.6363 63.5317 25.4289 63.9069 25.1996C64.3846 24.9078 64.5738 24.3261 64.4365 23.7834L63.9752 21.9589C63.9573 21.8882 63.8744 21.8567 63.8134 21.8968V21.8968C63.5196 22.0899 63.2094 22.2701 62.8886 22.4351C62.7724 22.4949 62.6548 22.5527 62.5361 22.6085C62.045 22.839 61.5347 23.0338 61.0249 23.1858C60.2266 23.4239 59.4292 23.5568 58.7077 23.5568C58.6308 23.5568 58.5541 23.5554 58.4777 23.5527C57.3242 23.5113 56.2381 23.1584 55.3776 22.507C54.6455 21.9527 54.0768 21.1824 53.7691 20.2042ZM54.2751 17.0432C53.8061 17.0432 53.4281 16.6476 53.5053 16.185V16.185C53.6606 15.2537 53.9782 14.48 54.4229 13.8822C55.074 13.0069 55.9978 12.5087 57.0844 12.4447C57.1533 12.4406 57.2229 12.4383 57.2932 12.4378C57.3041 12.4377 57.3151 12.4376 57.3261 12.4376C57.4862 12.4376 57.6408 12.4467 57.7898 12.4644C58.8045 12.5848 59.5644 13.1046 60.088 13.8822C60.509 14.5076 60.7771 15.2997 60.9021 16.185V16.185C60.9678 16.6509 60.5863 17.0432 60.1157 17.0432H54.2751Z" fill="black"/>
<path d="M67.8016 26.2214V26.2214C68.6015 26.2214 69.2499 25.573 69.2499 24.7731V23.0828C69.2499 22.605 69.4302 22.1449 69.7548 21.7943L70.1959 21.3179C70.9922 20.4579 72.3702 20.5188 73.0875 21.4457L76.2915 25.5859C76.6017 25.9868 77.08 26.2214 77.5869 26.2214V26.2214C78.9659 26.2214 79.7278 24.6214 78.8585 23.5509L74.4708 18.1473C74.3937 18.0524 74.2779 17.9972 74.1556 17.9972V17.9972C73.802 17.9972 73.6174 17.5766 73.8568 17.3164L78.1877 12.6089C79.1849 11.525 78.416 9.77303 76.9433 9.77303V9.77303C76.4645 9.77303 76.0081 9.97602 75.6874 10.3316L72.555 13.8055C71.3916 15.0957 69.2499 14.2727 69.2499 12.5354V11.5495C69.2499 10.5684 68.4546 9.77303 67.4735 9.77303V9.77303C66.4924 9.77303 65.697 10.5684 65.697 11.5495L65.697 24.3249C65.697 25.3723 66.5461 26.2214 67.5936 26.2214L67.8016 26.2214Z" fill="black"/>
<path d="M56.3063 5.06876C56.3063 5.50702 56.1966 5.88809 56.0028 6.19201C55.8179 6.48191 55.5563 6.70162 55.2402 6.83379C55.017 6.92708 54.7667 6.97677 54.4969 6.97677C54.1612 6.97677 53.8555 6.89979 53.5949 6.75757C53.0385 6.45392 52.6876 5.85288 52.6876 5.06876C52.6876 3.91737 53.4442 3.16074 54.4969 3.16074C54.7667 3.16074 55.017 3.21043 55.2402 3.30372C55.8878 3.57446 56.3063 4.21243 56.3063 5.06876Z" fill="black"/>
<path d="M61.7013 5.06876C61.7013 5.82256 61.3911 6.40716 60.8815 6.72102C60.6127 6.88655 60.2884 6.97677 59.9249 6.97677C59.6503 6.97677 59.3988 6.92834 59.1763 6.83734C58.8468 6.70256 58.581 6.47439 58.3978 6.17187C58.2159 5.87132 58.1156 5.4974 58.1156 5.06876C58.1156 4.20867 58.5194 3.56886 59.1763 3.30017C59.3988 3.20917 59.6503 3.16074 59.9249 3.16074C60.9776 3.16074 61.7013 3.91737 61.7013 5.06876Z" fill="black"/>
<path d="M15.872 17.4237C15.8243 17.2984 15.6614 17.267 15.5706 17.3657V17.3657C15.51 17.4316 15.5069 17.532 15.5633 17.6015V17.6015C15.6925 17.7606 15.9448 17.6153 15.872 17.4237V17.4237Z" fill="black"/>
<path d="M6.75353 26.2043H3.20068V9.75594H6.75353V17.4538L13.6948 9.75594H18.3003L10.734 17.9801H11.8525L18.5306 26.2043H14.2869L9.2208 19.6579L6.75353 22.3225V26.2043ZM22.6363 26.2043L16.3859 9.75594H20.2348L24.939 23.1778L29.6433 9.75594H33.4922L24.1166 34.4285H20.169L23.689 26.2043H22.6363ZM31.1388 26.2043L31.4678 22.487C35.1193 22.487 34.593 16.763 34.6259 9.78884H48.2781V26.2043H44.4291V12.6509H38.0471C37.9813 15.7761 37.9156 19.4276 37.2247 21.3356C36.9615 24.5266 34.8562 26.2043 31.1388 26.2043ZM58.1553 5.0517C58.1553 3.90031 58.879 3.14368 59.9646 3.14368C61.0173 3.14368 61.7411 3.90031 61.7411 5.0517C61.7411 6.20308 61.0173 6.95971 59.9646 6.95971C58.879 6.95971 58.1553 6.20308 58.1553 5.0517ZM52.7273 5.0517C52.7273 3.90031 53.484 3.14368 54.5367 3.14368C55.5894 3.14368 56.346 3.90031 56.346 5.0517C56.346 6.20308 55.5894 6.95971 54.5367 6.95971C53.484 6.95971 52.7273 6.20308 52.7273 5.0517ZM49.7008 17.9801C49.7008 12.8153 52.8589 9.26249 57.3329 9.26249C62.0042 9.26249 64.8334 13.0785 64.7676 17.9143C64.7676 18.4078 64.7018 18.8684 64.6689 19.3289H53.6156C54.0103 22.0922 56.2473 23.5397 58.7475 23.5397C60.3923 23.5397 62.4319 22.8489 63.9781 21.7962L64.7018 24.6582C63.1227 25.9083 60.6884 26.6978 58.3856 26.6978C53.1221 26.6978 49.7008 23.3423 49.7008 17.9801ZM53.4511 17.0261H61.0173C60.9187 14.4602 59.7673 12.4206 57.3658 12.4206C55.1946 12.4206 53.6156 14.0983 53.4511 17.0261ZM69.2896 26.2043H65.7367V9.75594H69.2896V17.4538L76.2308 9.75594H80.8364L73.2701 17.9801H74.3886L81.0667 26.2043H76.823L71.7569 19.6579L69.2896 22.3225V26.2043Z" fill="white"/>
</svg>
