<svg width="311" height="203" viewBox="0 0 311 203" fill="none" xmlns="http://www.w3.org/2000/svg">
<path d="M9.01884 25.1083C20.6077 11.4445 36.9917 1 55.7436 1C63.6435 1 67.9186 1.60202 73.1107 7.77116C76.1677 11.4035 80.7305 15.3734 80.7305 20.4206C80.7305 34.8059 75.593 47 67.2238 54M47.7234 93.5C9.02009 99 -2.20658 132.416 1.74711 146.245C7.2126 165.361 30.7541 169.088 48.3558 169.088C52.0819 169.088 55.8081 169.088 59.5342 169.088C63.7426 169.088 67.7319 167.08 71.6022 165.591C78.8094 162.227 94.4238 150.8 99.2238 132C104.024 113.2 102.224 96.3333 100.224 93M99.2238 55.5C103.724 40.5 116.015 28.6682 129.002 20.0485C137.276 14.5573 147.408 15.0632 157.006 15.0632C165.685 15.0632 169.591 17.6234 174.722 24.141C182.024 33.4184 177.725 53.5 177.725 53.5M165.225 89.5C162.225 99 158.62 106.587 149.781 117.129C140.847 127.785 126.952 141.26 123.115 154.52C120.301 164.245 117.05 184.555 125.801 194.714C135.821 202.798 148.804 202.652 161.154 202.043C172.189 201.499 181.829 194.401 190.821 189.059C195.852 186.07 199.971 183.407 204.088 179.2C210.359 172.79 211.723 156.02 214.716 147.845C221.35 129.724 223.041 112.901 225.225 94M231.225 55.5C233.725 44.5 239.591 26.6473 252.158 20.4206C262.891 15.1022 274.864 21.536 283.333 27.4894C298.574 38.2019 305.921 49.5806 308.335 68.1395C309.471 76.873 309.883 95.7048 306.123 106.758C302.828 116.447 302.915 119.995 295.087 131.458C288.928 142.102 270.498 159.56 275.675 175.636C279.81 188.477 292.512 186.097 302.364 180.622C306.218 178.48 310.486 174.328 310.486 169.758" stroke="#131313" stroke-width="0.358542" stroke-linecap="round"/>
<ellipse cx="9.04868" cy="25.2904" rx="0.898285" ry="1.0917" fill="#131313"/>
<ellipse cx="36.1516" cy="168.576" rx="1.02661" ry="1.0917" fill="#131313"/>
<ellipse cx="123.644" cy="23.7892" rx="1.02661" ry="0.955236" fill="#131313"/>
<ellipse cx="172.173" cy="199.665" rx="1.02661" ry="1.0917" fill="#131313"/>
<ellipse cx="257.73" cy="18.4672" rx="1.02661" ry="1.0917" fill="#131313"/>
<ellipse cx="306.124" cy="106.894" rx="1.02661" ry="1.0917" fill="#131313"/>
<ellipse cx="307.15" cy="177.309" rx="1.02661" ry="1.0917" fill="#131313"/>
</svg>
