<svg width="574" height="224" viewBox="0 0 574 224" fill="none" xmlns="http://www.w3.org/2000/svg">
<path d="M1 74.1914C1 66.1391 1 58.0868 1 50.0345C1 28.7081 14.1899 15.8808 33.358 7.91331C51.7018 0.28847 72.5416 0.374021 87.8645 13.9944C101.795 26.3768 98.4087 53.0958 98.4087 70.1746C98.4087 87.0295 92.4092 101.711 89.3708 118.042C87.4405 128.418 84.2871 138.429 81.3929 148.559C78.5205 158.613 77.5366 169.855 75.7581 180.192C74.615 186.836 74.6734 194.365 76.8739 200.722C78.9861 206.824 86.7348 210.319 92.5508 212.215C98.5262 214.164 104.21 214.781 110.404 214.781C115.939 214.781 121.395 203.158 123.403 199.607C128.343 190.866 132.305 181.472 136.011 172.158C138.853 165.014 142.984 157.272 143.543 149.452C144.521 135.747 143.162 121.845 143.598 108.112C144.079 92.9739 150.24 77.7454 152.692 63.0335C154.783 50.486 160.146 33.0476 169.931 24.5386C176.679 18.671 181.452 11.9741 190.239 8.58278C200.347 4.68136 213.806 5.33522 224.493 5.06804C229.385 4.94575 233.64 7.17841 237.492 10.0891C246.631 16.9935 253.7 30.4212 256.851 41.2755C260.67 54.429 256.765 68.5125 254.843 81.5557C251.498 104.253 244.188 126.014 240.449 148.447C239.091 156.597 237.994 164.54 237.994 172.828C237.994 181.971 236.677 192.303 239.11 201.169C243.035 215.465 248.461 223.04 264.662 222.815C274.883 222.673 279.918 217.572 285.416 209.537C294.812 195.804 301.23 181.486 304.663 165.129C306.902 154.459 306.873 144.196 307.341 133.44C307.796 122.969 309.698 112.669 311.079 102.309C313.011 87.8166 317.784 73.5111 321.846 59.5187C324.62 49.9655 328.666 35.746 338.416 31.0102C341.555 29.4853 345.813 29.7613 349.239 30.006C354.468 30.3795 353.479 41.4664 353.479 44.6229C353.479 69.6103 352.49 93.1885 348.235 117.931C344.647 138.792 335.113 158.743 332.502 179.634C331.371 188.682 334.37 200.32 342.656 204.739C348.41 207.808 356.902 207.688 363.298 207.752C373.049 207.849 383.12 208.626 392.643 206.246C401.126 204.125 407.992 199.52 415.74 195.646C424.73 191.151 435.612 184.447 442.631 177.291C451.823 167.918 459.697 152.199 458.475 138.907C457.115 124.102 454.709 104.67 444.137 93.4946C439.492 88.5836 435.13 83.3999 430.804 78.2083C428.025 74.8737 424.088 71.2296 422.826 66.9388C419.08 54.2046 420.434 42.4973 430.58 33.465C439.615 25.4221 452.364 20.1221 463.385 15.5007C475.275 10.5144 487.367 7.87722 500.317 9.14068C517.901 10.8562 530.482 22.4318 540.765 35.9197C549.841 47.8243 556.532 61.9158 562.356 75.642C567.087 86.7953 566.637 94.8526 560.682 105.434C549.306 125.647 527.032 142.478 503.107 142.478" stroke="black" stroke-width="1.83392" stroke-linecap="round"/>
<mask id="path-2-outside-1_1052_1653" maskUnits="userSpaceOnUse" x="27.8984" y="21.6519" width="472" height="176" fill="black">
<rect fill="white" x="27.8984" y="21.6519" width="472" height="176"/>
<path d="M28.8435 159.652V62.0411H55.8218V99.9329H63.5049L89.9594 62.0411H121.74L87.2528 110.585L122.089 159.652H89.9594L65.8623 125.078H55.8218V159.652H28.8435ZM131.532 196.147C128.098 196.205 124.868 195.972 121.841 195.448C118.872 194.924 116.428 194.255 114.507 193.44L120.619 173.272L121.492 173.447C126.032 174.785 129.902 175.076 133.104 174.32C136.363 173.621 138.837 171.06 140.525 166.637L142.096 162.446L107.173 62.0411H135.548L155.717 133.721H156.764L177.194 62.0411H205.744L167.852 170.216C166.048 175.455 163.574 180.024 160.431 183.924C157.346 187.823 153.447 190.821 148.732 192.916C144.017 195.07 138.284 196.147 131.532 196.147ZM196.668 159.652L196.58 138.261H199.811C202.896 138.203 205.399 137.155 207.319 135.118C209.298 133.081 210.783 129.676 211.772 124.903C212.82 120.072 213.489 113.553 213.78 105.346L215.439 62.0411H289.564V159.652H263.808V83.3443H239.711L238.139 113.204C237.732 121.353 236.742 128.366 235.171 134.245C233.599 140.124 231.416 144.955 228.623 148.738C225.887 152.463 222.511 155.228 218.495 157.033C214.537 158.779 209.968 159.652 204.787 159.652H196.668ZM349.981 161.573C339.97 161.573 331.326 159.535 324.051 155.461C316.775 151.387 311.187 145.595 307.287 138.087C303.446 130.52 301.525 121.585 301.525 111.283C301.525 101.272 303.446 92.4826 307.287 84.9159C311.187 77.3491 316.659 71.4413 323.701 67.1923C330.802 62.9433 339.126 60.8188 348.672 60.8188C355.132 60.8188 361.157 61.8665 366.744 63.9619C372.332 65.9991 377.221 69.084 381.412 73.2165C385.603 77.2909 388.863 82.4421 391.191 88.6701C393.519 94.8399 394.683 102.087 394.683 110.41V117.744H312.264V101.068H381.587L369.014 105.433C369.014 100.486 368.258 96.1787 366.744 92.5117C365.231 88.8447 362.961 86.0218 359.934 84.0428C356.966 82.0056 353.27 80.987 348.846 80.987C344.423 80.987 340.668 82.0056 337.583 84.0428C334.557 86.08 332.229 88.8447 330.599 92.3371C328.969 95.8294 328.154 99.8456 328.154 104.386V116.172C328.154 121.469 329.085 126.009 330.948 129.792C332.811 133.518 335.401 136.399 338.718 138.436C342.094 140.415 345.965 141.404 350.33 141.404C353.357 141.404 356.093 140.968 358.537 140.095C360.982 139.222 363.077 137.941 364.824 136.253C366.628 134.565 367.967 132.528 368.84 130.142L393.81 131.8C392.588 137.796 390.027 143.034 386.127 147.516C382.285 151.94 377.309 155.403 371.197 157.906C365.086 160.35 358.014 161.573 349.981 161.573ZM328.853 48.7702C325.127 48.7702 321.955 47.4897 319.336 44.9286C316.717 42.3676 315.436 39.3409 315.494 35.8486C315.436 32.2398 316.717 29.2131 319.336 26.7685C321.955 24.2656 325.127 22.9851 328.853 22.9269C332.461 22.9851 335.546 24.2656 338.107 26.7685C340.727 29.2131 342.036 32.2398 342.036 35.8486C342.036 39.3409 340.727 42.3676 338.107 44.9286C335.546 47.4897 332.461 48.7702 328.853 48.7702ZM367.618 48.7702C363.951 48.7702 360.807 47.4897 358.188 44.9286C355.569 42.3676 354.259 39.3409 354.259 35.8486C354.259 32.2398 355.569 29.2131 358.188 26.7685C360.807 24.2656 363.951 22.9851 367.618 22.9269C371.284 22.9851 374.398 24.2656 376.96 26.7685C379.521 29.2131 380.801 32.2398 380.801 35.8486C380.801 39.3409 379.521 42.3676 376.96 44.9286C374.398 47.4897 371.284 48.7702 367.618 48.7702ZM404.507 159.652V62.0411H431.485V99.9329H439.169L465.623 62.0411H497.403L462.916 110.585L497.752 159.652H465.623L441.526 125.078H431.485V159.652H404.507Z"/>
</mask>
<path d="M28.8435 159.652V62.0411H55.8218V99.9329H63.5049L89.9594 62.0411H121.74L87.2528 110.585L122.089 159.652H89.9594L65.8623 125.078H55.8218V159.652H28.8435ZM131.532 196.147C128.098 196.205 124.868 195.972 121.841 195.448C118.872 194.924 116.428 194.255 114.507 193.44L120.619 173.272L121.492 173.447C126.032 174.785 129.902 175.076 133.104 174.32C136.363 173.621 138.837 171.06 140.525 166.637L142.096 162.446L107.173 62.0411H135.548L155.717 133.721H156.764L177.194 62.0411H205.744L167.852 170.216C166.048 175.455 163.574 180.024 160.431 183.924C157.346 187.823 153.447 190.821 148.732 192.916C144.017 195.07 138.284 196.147 131.532 196.147ZM196.668 159.652L196.58 138.261H199.811C202.896 138.203 205.399 137.155 207.319 135.118C209.298 133.081 210.783 129.676 211.772 124.903C212.82 120.072 213.489 113.553 213.78 105.346L215.439 62.0411H289.564V159.652H263.808V83.3443H239.711L238.139 113.204C237.732 121.353 236.742 128.366 235.171 134.245C233.599 140.124 231.416 144.955 228.623 148.738C225.887 152.463 222.511 155.228 218.495 157.033C214.537 158.779 209.968 159.652 204.787 159.652H196.668ZM349.981 161.573C339.97 161.573 331.326 159.535 324.051 155.461C316.775 151.387 311.187 145.595 307.287 138.087C303.446 130.52 301.525 121.585 301.525 111.283C301.525 101.272 303.446 92.4826 307.287 84.9159C311.187 77.3491 316.659 71.4413 323.701 67.1923C330.802 62.9433 339.126 60.8188 348.672 60.8188C355.132 60.8188 361.157 61.8665 366.744 63.9619C372.332 65.9991 377.221 69.084 381.412 73.2165C385.603 77.2909 388.863 82.4421 391.191 88.6701C393.519 94.8399 394.683 102.087 394.683 110.41V117.744H312.264V101.068H381.587L369.014 105.433C369.014 100.486 368.258 96.1787 366.744 92.5117C365.231 88.8447 362.961 86.0218 359.934 84.0428C356.966 82.0056 353.27 80.987 348.846 80.987C344.423 80.987 340.668 82.0056 337.583 84.0428C334.557 86.08 332.229 88.8447 330.599 92.3371C328.969 95.8294 328.154 99.8456 328.154 104.386V116.172C328.154 121.469 329.085 126.009 330.948 129.792C332.811 133.518 335.401 136.399 338.718 138.436C342.094 140.415 345.965 141.404 350.33 141.404C353.357 141.404 356.093 140.968 358.537 140.095C360.982 139.222 363.077 137.941 364.824 136.253C366.628 134.565 367.967 132.528 368.84 130.142L393.81 131.8C392.588 137.796 390.027 143.034 386.127 147.516C382.285 151.94 377.309 155.403 371.197 157.906C365.086 160.35 358.014 161.573 349.981 161.573ZM328.853 48.7702C325.127 48.7702 321.955 47.4897 319.336 44.9286C316.717 42.3676 315.436 39.3409 315.494 35.8486C315.436 32.2398 316.717 29.2131 319.336 26.7685C321.955 24.2656 325.127 22.9851 328.853 22.9269C332.461 22.9851 335.546 24.2656 338.107 26.7685C340.727 29.2131 342.036 32.2398 342.036 35.8486C342.036 39.3409 340.727 42.3676 338.107 44.9286C335.546 47.4897 332.461 48.7702 328.853 48.7702ZM367.618 48.7702C363.951 48.7702 360.807 47.4897 358.188 44.9286C355.569 42.3676 354.259 39.3409 354.259 35.8486C354.259 32.2398 355.569 29.2131 358.188 26.7685C360.807 24.2656 363.951 22.9851 367.618 22.9269C371.284 22.9851 374.398 24.2656 376.96 26.7685C379.521 29.2131 380.801 32.2398 380.801 35.8486C380.801 39.3409 379.521 42.3676 376.96 44.9286C374.398 47.4897 371.284 48.7702 367.618 48.7702ZM404.507 159.652V62.0411H431.485V99.9329H439.169L465.623 62.0411H497.403L462.916 110.585L497.752 159.652H465.623L441.526 125.078H431.485V159.652H404.507Z" fill="#F4F3EF"/>
<path d="M28.8435 159.652H27.94V160.555H28.8435V159.652ZM28.8435 62.0411V61.1376H27.94V62.0411H28.8435ZM55.8218 62.0411H56.7253V61.1376H55.8218V62.0411ZM55.8218 99.9329H54.9183V100.836H55.8218V99.9329ZM63.5049 99.9329V100.836H63.976L64.2457 100.45L63.5049 99.9329ZM89.9594 62.0411V61.1376H89.4883L89.2186 61.5239L89.9594 62.0411ZM121.74 62.0411L122.476 62.5643L123.49 61.1376H121.74V62.0411ZM87.2528 110.585L86.5163 110.061L86.1447 110.584L86.5161 111.108L87.2528 110.585ZM122.089 159.652V160.555H123.838L122.826 159.129L122.089 159.652ZM89.9594 159.652L89.2182 160.168L89.4878 160.555H89.9594V159.652ZM65.8623 125.078L66.6035 124.561L66.3338 124.174H65.8623V125.078ZM55.8218 125.078V124.174H54.9183V125.078H55.8218ZM55.8218 159.652V160.555H56.7253V159.652H55.8218ZM29.747 159.652V62.0411H27.94V159.652H29.747ZM28.8435 62.9445H55.8218V61.1376H28.8435V62.9445ZM54.9183 62.0411V99.9329H56.7253V62.0411H54.9183ZM55.8218 100.836H63.5049V99.0294H55.8218V100.836ZM64.2457 100.45L90.7002 62.5583L89.2186 61.5239L62.7641 99.4157L64.2457 100.45ZM89.9594 62.9445H121.74V61.1376H89.9594V62.9445ZM121.003 61.5178L86.5163 110.061L87.9893 111.108L122.476 62.5643L121.003 61.5178ZM86.5161 111.108L121.352 160.175L122.826 159.129L87.9895 110.062L86.5161 111.108ZM122.089 158.748H89.9594V160.555H122.089V158.748ZM90.7006 159.135L66.6035 124.561L65.121 125.594L89.2182 160.168L90.7006 159.135ZM65.8623 124.174H55.8218V125.981H65.8623V124.174ZM54.9183 125.078V159.652H56.7253V125.078H54.9183ZM55.8218 158.748H28.8435V160.555H55.8218V158.748ZM131.532 196.147V195.243H131.524L131.517 195.243L131.532 196.147ZM121.841 195.448L121.684 196.338L121.687 196.339L121.841 195.448ZM114.507 193.44L113.642 193.178L113.407 193.955L114.154 194.272L114.507 193.44ZM120.619 173.272L120.796 172.386L119.992 172.225L119.754 173.01L120.619 173.272ZM121.492 173.447L121.747 172.58L121.708 172.569L121.669 172.561L121.492 173.447ZM133.104 174.32L132.914 173.436L132.905 173.438L132.896 173.44L133.104 174.32ZM140.525 166.637L141.369 166.959L141.371 166.954L140.525 166.637ZM142.096 162.446L142.942 162.763L143.057 162.457L142.95 162.149L142.096 162.446ZM107.173 62.0411V61.1376H105.902L106.32 62.3379L107.173 62.0411ZM135.548 62.0411L136.418 61.7964L136.233 61.1376H135.548V62.0411ZM155.717 133.721L154.847 133.966L155.032 134.625H155.717V133.721ZM156.764 133.721V134.625H157.446L157.633 133.969L156.764 133.721ZM177.194 62.0411V61.1376H176.512L176.326 61.7934L177.194 62.0411ZM205.744 62.0411L206.597 62.3398L207.018 61.1376H205.744V62.0411ZM167.852 170.216L167 169.917L166.998 169.922L167.852 170.216ZM160.431 183.924L159.728 183.357L159.723 183.363L160.431 183.924ZM148.732 192.916L148.365 192.091L148.356 192.095L148.732 192.916ZM131.517 195.243C128.133 195.301 124.96 195.071 121.995 194.558L121.687 196.339C124.776 196.873 128.063 197.109 131.547 197.05L131.517 195.243ZM121.998 194.559C119.07 194.042 116.697 193.388 114.86 192.608L114.154 194.272C116.159 195.122 118.675 195.807 121.684 196.338L121.998 194.559ZM115.372 193.702L121.483 173.534L119.754 173.01L113.642 193.178L115.372 193.702ZM120.441 174.158L121.314 174.333L121.669 172.561L120.796 172.386L120.441 174.158ZM121.236 174.313C125.865 175.678 129.905 176.004 133.312 175.199L132.896 173.44C129.9 174.148 126.199 173.893 121.747 172.58L121.236 174.313ZM133.293 175.203C136.967 174.416 139.622 171.537 141.369 166.959L139.681 166.314C138.052 170.583 135.76 172.827 132.914 173.436L133.293 175.203ZM141.371 166.954L142.942 162.763L141.25 162.128L139.679 166.319L141.371 166.954ZM142.95 162.149L108.026 61.7443L106.32 62.3379L141.243 162.743L142.95 162.149ZM107.173 62.9445H135.548V61.1376H107.173V62.9445ZM134.679 62.2858L154.847 133.966L156.586 133.477L136.418 61.7964L134.679 62.2858ZM155.717 134.625H156.764V132.818H155.717V134.625ZM157.633 133.969L178.063 62.2887L176.326 61.7934L155.895 133.474L157.633 133.969ZM177.194 62.9445H205.744V61.1376H177.194V62.9445ZM204.892 61.7424L167 169.917L168.705 170.515L206.597 62.3398L204.892 61.7424ZM166.998 169.922C165.224 175.072 162.799 179.547 159.728 183.357L161.135 184.491C164.35 180.501 166.872 175.837 168.707 170.51L166.998 169.922ZM159.723 183.363C156.732 187.144 152.951 190.052 148.365 192.091L149.099 193.742C153.942 191.589 157.961 188.503 161.14 184.484L159.723 183.363ZM148.356 192.095C143.79 194.181 138.192 195.243 131.532 195.243V197.05C138.376 197.05 144.245 195.959 149.107 193.738L148.356 192.095ZM196.668 159.652L195.764 159.656L195.768 160.555H196.668V159.652ZM196.58 138.261V137.358H195.673L195.677 138.265L196.58 138.261ZM199.811 138.261V139.165H199.819L199.828 139.165L199.811 138.261ZM207.319 135.118L206.671 134.489L206.662 134.498L207.319 135.118ZM211.772 124.903L210.889 124.712L210.887 124.72L211.772 124.903ZM213.78 105.346L212.877 105.311L212.877 105.314L213.78 105.346ZM215.439 62.0411V61.1376H214.569L214.536 62.0065L215.439 62.0411ZM289.564 62.0411H290.467V61.1376H289.564V62.0411ZM289.564 159.652V160.555H290.467V159.652H289.564ZM263.808 159.652H262.904V160.555H263.808V159.652ZM263.808 83.3443H264.711V82.4408H263.808V83.3443ZM239.711 83.3443V82.4408H238.854L238.809 83.2968L239.711 83.3443ZM238.139 113.204L237.237 113.156L237.237 113.159L238.139 113.204ZM235.171 134.245L234.298 134.012L235.171 134.245ZM228.623 148.738L227.896 148.202L227.894 148.204L228.623 148.738ZM218.495 157.033L218.859 157.859L218.865 157.857L218.495 157.033ZM197.571 159.648L197.484 138.258L195.677 138.265L195.764 159.656L197.571 159.648ZM196.58 139.165H199.811V137.358H196.58V139.165ZM199.828 139.165C203.128 139.102 205.871 137.971 207.977 135.738L206.662 134.498C204.926 136.34 202.663 137.304 199.794 137.358L199.828 139.165ZM207.967 135.748C210.124 133.528 211.654 129.921 212.657 125.087L210.887 124.72C209.911 129.431 208.473 132.634 206.671 134.489L207.967 135.748ZM212.655 125.095C213.719 120.188 214.391 113.609 214.683 105.378L212.877 105.314C212.587 113.498 211.92 119.956 210.889 124.712L212.655 125.095ZM214.683 105.381L216.342 62.0757L214.536 62.0065L212.877 105.311L214.683 105.381ZM215.439 62.9445H289.564V61.1376H215.439V62.9445ZM288.66 62.0411V159.652H290.467V62.0411H288.66ZM289.564 158.748H263.808V160.555H289.564V158.748ZM264.711 159.652V83.3443H262.904V159.652H264.711ZM263.808 82.4408H239.711V84.2478H263.808V82.4408ZM238.809 83.2968L237.237 113.156L239.041 113.251L240.613 83.3918L238.809 83.2968ZM237.237 113.159C236.832 121.264 235.848 128.211 234.298 134.012L236.044 134.478C237.636 128.521 238.632 121.441 239.042 113.249L237.237 113.159ZM234.298 134.012C232.747 139.812 230.606 144.532 227.896 148.202L229.349 149.275C232.227 145.378 234.451 140.436 236.044 134.478L234.298 134.012ZM227.894 148.204C225.246 151.809 221.991 154.471 218.125 156.208L218.865 157.857C223.031 155.985 226.528 153.117 229.351 149.273L227.894 148.204ZM218.13 156.206C214.307 157.892 209.866 158.748 204.787 158.748V160.555C210.069 160.555 214.766 159.665 218.859 157.859L218.13 156.206ZM204.787 158.748H196.668V160.555H204.787V158.748ZM307.287 138.087L306.482 138.496L306.486 138.503L307.287 138.087ZM307.287 84.9159L306.484 84.502L306.482 84.5069L307.287 84.9159ZM323.701 67.1923L323.237 66.417L323.235 66.4187L323.701 67.1923ZM366.744 63.9619L366.427 64.8078L366.435 64.8107L366.744 63.9619ZM381.412 73.2165L380.778 73.8599L380.782 73.8643L381.412 73.2165ZM391.191 88.6701L390.345 88.9865L390.345 88.9891L391.191 88.6701ZM394.683 117.744V118.647H395.587V117.744H394.683ZM312.264 117.744H311.361V118.647H312.264V117.744ZM312.264 101.068V100.164H311.361V101.068H312.264ZM381.587 101.068L381.883 101.921L381.587 100.164V101.068ZM369.014 105.433H368.111V106.703L369.311 106.287L369.014 105.433ZM359.934 84.0428L359.423 84.7877L359.431 84.7934L359.44 84.799L359.934 84.0428ZM337.583 84.0428L337.086 83.2888L337.079 83.2933L337.583 84.0428ZM330.948 129.792L330.137 130.191L330.14 130.196L330.948 129.792ZM338.718 138.436L338.246 139.206L338.254 139.211L338.262 139.215L338.718 138.436ZM364.824 136.253L364.206 135.593L364.201 135.598L364.196 135.604L364.824 136.253ZM368.84 130.142L368.9 129.24L368.224 129.195L367.991 129.831L368.84 130.142ZM393.81 131.8L394.695 131.981L394.902 130.968L393.87 130.899L393.81 131.8ZM386.127 147.516L385.445 146.923L385.445 146.924L386.127 147.516ZM371.197 157.906L371.533 158.745L371.54 158.742L371.197 157.906ZM315.494 35.8486L316.398 35.8636L316.398 35.8488L316.398 35.834L315.494 35.8486ZM319.336 26.7685L319.952 27.429L319.96 27.4217L319.336 26.7685ZM328.853 22.9269L328.867 22.0236L328.853 22.0233L328.838 22.0235L328.853 22.9269ZM338.107 26.7685L337.476 27.4146L337.483 27.4219L337.491 27.429L338.107 26.7685ZM338.107 44.9286L337.476 44.2826L337.468 44.2898L338.107 44.9286ZM358.188 26.7685L358.805 27.429L358.812 27.4217L358.188 26.7685ZM367.618 22.9269L367.632 22.0236L367.618 22.0233L367.603 22.0236L367.618 22.9269ZM376.96 26.7685L376.328 27.4147L376.336 27.422L376.96 26.7685ZM349.981 160.669C340.094 160.669 331.608 158.658 324.492 154.673L323.609 156.249C331.044 160.413 339.846 162.476 349.981 162.476V160.669ZM324.492 154.673C317.373 150.686 311.909 145.025 308.089 137.67L306.486 138.503C310.465 146.166 316.177 152.087 323.609 156.249L324.492 154.673ZM308.093 137.678C304.328 130.262 302.429 121.473 302.429 111.283H300.622C300.622 121.697 302.564 130.778 306.482 138.496L308.093 137.678ZM302.429 111.283C302.429 101.388 304.326 92.744 308.093 85.3249L306.482 84.5069C302.565 92.2212 300.622 101.155 300.622 111.283H302.429ZM308.091 85.3298C311.916 77.9063 317.274 72.1253 324.168 67.9659L323.235 66.4187C316.043 70.7572 310.458 76.792 306.484 84.502L308.091 85.3298ZM324.165 67.9676C331.106 63.8146 339.264 61.7222 348.672 61.7222V59.9153C338.988 59.9153 330.499 62.0719 323.237 66.417L324.165 67.9676ZM348.672 61.7222C355.033 61.7222 360.949 62.7535 366.427 64.8078L367.062 63.1159C361.364 60.9794 355.232 59.9153 348.672 59.9153V61.7222ZM366.435 64.8107C371.902 66.804 376.68 69.8193 380.778 73.8599L382.047 72.5732C377.763 68.3486 372.762 65.1942 367.054 63.113L366.435 64.8107ZM380.782 73.8643C384.865 77.8336 388.057 82.8664 390.345 88.9865L392.037 88.3538C389.669 82.0179 386.341 76.7483 382.042 72.5688L380.782 73.8643ZM390.345 88.9891C392.627 95.0341 393.78 102.168 393.78 110.41H395.587C395.587 102.005 394.411 94.6457 392.036 88.3512L390.345 88.9891ZM393.78 110.41V117.744H395.587V110.41H393.78ZM394.683 116.84H312.264V118.647H394.683V116.84ZM313.167 117.744V101.068H311.361V117.744H313.167ZM312.264 101.971H381.587V100.164H312.264V101.971ZM381.291 100.214L368.718 104.58L369.311 106.287L381.883 101.921L381.291 100.214ZM369.918 105.433C369.918 100.396 369.148 95.9667 367.58 92.167L365.909 92.8564C367.368 96.3906 368.111 100.576 368.111 105.433H369.918ZM367.58 92.167C366.004 88.3488 363.623 85.3749 360.429 83.2866L359.44 84.799C362.299 86.6686 364.458 89.3407 365.909 92.8564L367.58 92.167ZM360.446 83.2979C357.295 81.1359 353.41 80.0835 348.846 80.0835V81.8905C353.13 81.8905 356.637 82.8753 359.423 84.7877L360.446 83.2979ZM348.846 80.0835C344.281 80.0835 340.345 81.1363 337.086 83.2889L338.081 84.7967C340.992 82.8749 344.564 81.8905 348.846 81.8905V80.0835ZM337.079 83.2933C333.908 85.4274 331.475 88.3227 329.78 91.955L331.417 92.7192C332.982 89.3668 335.205 86.7326 338.088 84.7923L337.079 83.2933ZM329.78 91.955C328.085 95.5864 327.251 99.7369 327.251 104.386H329.058C329.058 99.9543 329.853 96.0724 331.417 92.7192L329.78 91.955ZM327.251 104.386V116.172H329.058V104.386H327.251ZM327.251 116.172C327.251 121.573 328.2 126.256 330.137 130.191L331.759 129.393C329.971 125.762 329.058 121.365 329.058 116.172H327.251ZM330.14 130.196C332.072 134.061 334.774 137.074 338.246 139.206L339.191 137.666C336.027 135.723 333.549 132.974 331.756 129.388L330.14 130.196ZM338.262 139.215C341.792 141.285 345.823 142.308 350.33 142.308V140.501C346.107 140.501 342.397 139.545 339.175 137.656L338.262 139.215ZM350.33 142.308C353.444 142.308 356.284 141.859 358.841 140.946L358.234 139.244C355.901 140.077 353.27 140.501 350.33 140.501V142.308ZM358.841 140.946C361.399 140.032 363.607 138.686 365.452 136.903L364.196 135.604C362.548 137.196 360.566 138.411 358.234 139.244L358.841 140.946ZM365.441 136.913C367.352 135.125 368.768 132.968 369.688 130.452L367.991 129.831C367.165 132.089 365.904 134.005 364.206 135.593L365.441 136.913ZM368.78 131.043L393.75 132.702L393.87 130.899L368.9 129.24L368.78 131.043ZM392.925 131.62C391.733 137.467 389.24 142.562 385.445 146.923L386.808 148.109C390.814 143.506 393.443 138.124 394.695 131.981L392.925 131.62ZM385.445 146.924C381.707 151.228 376.852 154.613 370.855 157.07L371.54 158.742C377.765 156.192 382.864 152.652 386.809 148.108L385.445 146.924ZM370.862 157.067C364.877 159.461 357.923 160.669 349.981 160.669V162.476C358.104 162.476 365.294 161.24 371.533 158.745L370.862 157.067ZM328.853 47.8667C325.359 47.8667 322.415 46.6755 319.968 44.2826L318.704 45.5746C321.496 48.3038 324.896 49.6737 328.853 49.6737V47.8667ZM319.968 44.2826C317.516 41.8857 316.344 39.0943 316.398 35.8636L314.591 35.8335C314.529 39.5875 315.917 42.8495 318.704 45.5746L319.968 44.2826ZM316.398 35.834C316.344 32.4786 317.522 29.6978 319.952 27.429L318.72 26.108C315.912 28.7284 314.529 32.0011 314.591 35.8631L316.398 35.834ZM319.96 27.4217C322.41 25.081 325.362 23.885 328.867 23.8303L328.838 22.0235C324.893 22.0852 321.501 23.4503 318.712 26.1153L319.96 27.4217ZM328.838 23.8303C332.218 23.8848 335.081 25.0747 337.476 27.4146L338.739 26.1223C336.011 23.4566 332.705 22.0855 328.867 22.0236L328.838 23.8303ZM337.491 27.429C339.926 29.7013 341.133 32.4882 341.133 35.8486H342.94C342.94 31.9914 341.528 28.7249 338.724 26.108L337.491 27.429ZM341.133 35.8486C341.133 39.0848 339.931 41.8823 337.476 44.2826L338.739 45.5746C341.523 42.8529 342.94 39.597 342.94 35.8486H341.133ZM337.468 44.2898C335.076 46.6821 332.221 47.8667 328.853 47.8667V49.6737C332.702 49.6737 336.016 48.2973 338.746 45.5675L337.468 44.2898ZM367.618 47.8667C364.186 47.8667 361.27 46.6784 358.82 44.2826L357.557 45.5746C360.345 48.3009 363.715 49.6737 367.618 49.6737V47.8667ZM358.82 44.2826C356.365 41.8823 355.163 39.0848 355.163 35.8486H353.356C353.356 39.597 354.773 42.8529 357.557 45.5746L358.82 44.2826ZM355.163 35.8486C355.163 32.4882 356.37 29.7013 358.805 27.429L357.572 26.108C354.768 28.7249 353.356 31.9914 353.356 35.8486H355.163ZM358.812 27.4217C361.265 25.0782 364.189 23.8849 367.632 23.8303L367.603 22.0236C363.712 22.0853 360.35 23.4531 357.564 26.1153L358.812 27.4217ZM367.603 23.8303C371.045 23.8849 373.937 25.0776 376.328 27.4146L377.591 26.1223C374.86 23.4537 371.524 22.0853 367.632 22.0236L367.603 23.8303ZM376.336 27.422C378.714 29.6925 379.898 32.4813 379.898 35.8486H381.705C381.705 31.9983 380.327 28.7337 377.583 26.1149L376.336 27.422ZM379.898 35.8486C379.898 39.0915 378.719 41.8911 376.321 44.2898L377.598 45.5675C380.322 42.844 381.705 39.5903 381.705 35.8486H379.898ZM376.321 44.2898C373.931 46.679 371.048 47.8667 367.618 47.8667V49.6737C371.521 49.6737 374.866 48.3003 377.598 45.5675L376.321 44.2898ZM404.507 159.652H403.604V160.555H404.507V159.652ZM404.507 62.0411V61.1376H403.604V62.0411H404.507ZM431.485 62.0411H432.389V61.1376H431.485V62.0411ZM431.485 99.9329H430.582V100.836H431.485V99.9329ZM439.169 99.9329V100.836H439.64L439.909 100.45L439.169 99.9329ZM465.623 62.0411V61.1376H465.152L464.882 61.5239L465.623 62.0411ZM497.403 62.0411L498.14 62.5643L499.153 61.1376H497.403V62.0411ZM462.916 110.585L462.18 110.061L461.808 110.584L462.18 111.108L462.916 110.585ZM497.752 159.652V160.555H499.502L498.489 159.129L497.752 159.652ZM465.623 159.652L464.882 160.168L465.151 160.555H465.623V159.652ZM441.526 125.078L442.267 124.561L441.997 124.174H441.526V125.078ZM431.485 125.078V124.174H430.582V125.078H431.485ZM431.485 159.652V160.555H432.389V159.652H431.485ZM405.411 159.652V62.0411H403.604V159.652H405.411ZM404.507 62.9445H431.485V61.1376H404.507V62.9445ZM430.582 62.0411V99.9329H432.389V62.0411H430.582ZM431.485 100.836H439.169V99.0294H431.485V100.836ZM439.909 100.45L466.364 62.5583L464.882 61.5239L438.428 99.4157L439.909 100.45ZM465.623 62.9445H497.403V61.1376H465.623V62.9445ZM496.667 61.5178L462.18 110.061L463.653 111.108L498.14 62.5643L496.667 61.5178ZM462.18 111.108L497.016 160.175L498.489 159.129L463.653 110.062L462.18 111.108ZM497.752 158.748H465.623V160.555H497.752V158.748ZM466.364 159.135L442.267 124.561L440.785 125.594L464.882 160.168L466.364 159.135ZM441.526 124.174H431.485V125.981H441.526V124.174ZM430.582 125.078V159.652H432.389V125.078H430.582ZM431.485 158.748H404.507V160.555H431.485V158.748Z" fill="#F4F3EF" mask="url(#path-2-outside-1_1052_1653)"/>
<path fill-rule="evenodd" clip-rule="evenodd" d="M404.686 157.96H431.12V124.083H440.958L464.569 157.96H496.051L461.917 109.882L495.708 62.3178H464.569L438.648 99.4455H431.12V62.3178H404.686V157.96ZM432.954 97.6116V60.4839H402.852V159.794H432.954V125.917H440.001L463.612 159.794H499.602L464.166 109.883L498.166 62.3178H462.404L437.692 97.6116H432.954Z" fill="black"/>
<path fill-rule="evenodd" clip-rule="evenodd" d="M306.04 137.667L306.036 137.66C302.117 129.939 300.192 120.889 300.192 110.567C300.192 100.52 302.12 91.6148 306.036 83.901L306.042 83.891C310.013 76.1861 315.605 70.1399 322.807 65.7948L322.813 65.7913C330.097 61.433 338.588 59.2861 348.221 59.2861C354.751 59.2861 360.871 60.3452 366.567 62.48C372.281 64.5646 377.292 67.7259 381.585 71.9576C385.908 76.1625 389.239 81.4486 391.601 87.7676C393.976 94.065 395.139 101.392 395.139 109.711V118.731H330.095C330.407 122.246 331.219 125.289 332.498 127.888C334.178 131.245 336.483 133.796 339.412 135.599C342.404 137.349 345.864 138.247 349.847 138.247C352.636 138.247 355.104 137.844 357.271 137.07C359.438 136.296 361.262 135.175 362.773 133.715L362.784 133.704L362.795 133.694C364.347 132.242 365.501 130.491 366.26 128.415L366.041 128.98L394.246 130.785V131.037C392.988 137.211 390.34 142.634 386.306 147.271C382.331 151.848 377.207 155.399 370.988 157.946L370.981 157.949L370.974 157.952C364.727 160.451 357.558 161.676 349.504 161.676C339.444 161.676 330.654 159.627 323.201 155.454C315.755 151.284 310.028 145.345 306.044 137.675L306.04 137.667ZM330.855 128.703C329.439 125.825 328.572 122.502 328.255 118.731C328.204 118.131 328.168 117.52 328.145 116.897H393.305V109.711C393.305 101.556 392.164 94.4551 389.883 88.4098C387.602 82.3074 384.408 77.26 380.302 73.2678C376.195 69.2186 371.405 66.1959 365.93 64.1998C360.455 62.1466 354.552 61.1201 348.221 61.1201C338.868 61.1201 330.713 63.2017 323.755 67.365C316.854 71.5284 311.493 77.3171 307.672 84.7312C303.908 92.1453 302.026 100.757 302.026 110.567C302.026 120.661 303.908 129.416 307.672 136.83C311.493 144.187 316.968 149.861 324.097 153.854C331.226 157.846 339.695 159.842 349.504 159.842C357.375 159.842 364.304 158.644 370.293 156.249C376.281 153.797 381.157 150.403 384.921 146.069C388.345 142.135 390.715 137.605 392.033 132.481C392.186 131.885 392.325 131.282 392.449 130.67L367.955 129.102C367.1 131.44 365.816 133.379 364.048 135.033C362.337 136.687 360.283 137.942 357.888 138.797C355.493 139.653 352.812 140.081 349.847 140.081C345.569 140.081 341.777 139.111 338.469 137.172C335.218 135.176 332.68 132.353 330.855 128.703ZM367.945 100.558C367.882 99.934 367.804 99.3227 367.712 98.7236C367.345 96.3478 366.751 94.1645 365.93 92.1739C364.447 88.5808 362.223 85.8148 359.257 83.8757C356.348 81.8796 352.727 80.8816 348.392 80.8816C344.058 80.8816 340.379 81.8796 337.357 83.8757C334.391 85.8718 332.11 88.5808 330.513 92.0028C329.554 94.0579 328.883 96.2982 328.5 98.7236C328.405 99.3236 328.328 99.9349 328.268 100.558H367.945ZM330.358 98.7236H365.855C365.506 96.5862 364.963 94.6383 364.234 92.8735C362.878 89.5876 360.88 87.1278 358.253 85.4107L358.236 85.3994L358.219 85.3878C355.68 83.6451 352.442 82.7155 348.392 82.7155C344.349 82.7155 341.04 83.6427 338.373 85.4022C335.703 87.2011 333.638 89.6435 332.175 92.7783C331.332 94.5843 330.723 96.5634 330.358 98.7236ZM328.802 22.1582L328.832 22.1587C332.825 22.2231 336.291 23.6567 339.136 26.4297C342.067 29.1724 343.554 32.6201 343.554 36.6534C343.554 40.5923 342.054 44.021 339.159 46.8553C336.308 49.7019 332.822 51.1484 328.802 51.1484C324.682 51.1484 321.111 49.7124 318.195 46.8617C315.295 44.0264 313.821 40.5935 313.879 36.6534C313.821 32.6197 315.282 29.1678 318.218 26.4236C321.127 23.6467 324.679 22.2227 328.773 22.1587L328.802 22.1582ZM319.477 27.7565C316.911 30.1518 315.656 33.1175 315.713 36.6534C315.656 40.0753 316.911 43.041 319.477 45.5504C322.044 48.0598 325.152 49.3145 328.802 49.3145C332.338 49.3145 335.361 48.0598 337.87 45.5504C340.436 43.041 341.72 40.0753 341.72 36.6534C341.72 33.1175 340.436 30.1518 337.87 27.7565C335.361 25.3041 332.338 24.0494 328.802 23.9924C325.152 24.0494 322.044 25.3041 319.477 27.7565ZM366.785 22.1582L366.814 22.1587C370.86 22.2229 374.36 23.6533 377.212 26.4371C380.087 29.1848 381.537 32.6307 381.537 36.6534C381.537 40.5815 380.075 44.0081 377.235 46.8472C374.377 49.7053 370.858 51.1484 366.785 51.1484C362.713 51.1484 359.173 49.7065 356.264 46.8617C353.364 44.0261 351.862 40.5952 351.862 36.6534C351.862 32.6166 353.351 29.1663 356.288 26.4224C359.191 23.6519 362.711 22.2229 366.756 22.1587L366.785 22.1582ZM375.939 27.7565C373.429 25.3041 370.378 24.0494 366.785 23.9924C363.192 24.0494 360.112 25.3041 357.546 27.7565C354.98 30.1518 353.696 33.1175 353.696 36.6534C353.696 40.0753 354.98 43.041 357.546 45.5504C360.112 48.0598 363.192 49.3145 366.785 49.3145C370.378 49.3145 373.429 48.0598 375.939 45.5504C378.448 43.041 379.703 40.0753 379.703 36.6534C379.703 33.1175 378.448 30.1518 375.939 27.7565Z" fill="black"/>
<path fill-rule="evenodd" clip-rule="evenodd" d="M199.294 157.96H207.25C212.326 157.96 216.803 157.105 220.681 155.394C224.617 153.626 227.924 150.917 230.605 147.267C233.342 143.56 235.481 138.826 237.021 133.066C238.561 127.306 239.53 120.433 239.93 112.449L241.469 83.1915H265.081V157.96H290.317V62.3178H217.687L216.062 104.749C215.777 112.791 215.121 119.178 214.094 123.912C213.125 128.589 211.67 131.925 209.731 133.921C207.849 135.917 205.397 136.944 202.374 137.001H199.209L199.294 157.96ZM202.356 135.167H199.209L199.207 159.794H207.25C212.532 159.794 217.269 158.904 221.422 157.072L221.433 157.066C225.672 155.162 229.225 152.244 232.083 148.352C234.989 144.415 237.211 139.457 238.793 133.539C240.375 127.621 241.357 120.616 241.761 112.545M241.761 112.54L243.209 85.0254H263.247V159.794H292.151V60.4839H215.922L214.229 104.679L214.229 104.684C213.946 112.678 213.295 118.943 212.302 123.523L212.3 123.532L212.299 123.54C211.355 128.091 209.994 131.019 208.416 132.643L208.406 132.653L208.397 132.663C206.893 134.259 204.933 135.115 202.356 135.167" fill="black"/>
<path fill-rule="evenodd" clip-rule="evenodd" d="M110.907 75.9841L140.365 160.674L139.061 164.15C139.061 164.152 139.06 164.154 139.059 164.156C137.526 168.171 135.471 170.035 133.119 170.539L133.1 170.543L133.081 170.547C130.362 171.19 126.913 170.976 122.644 169.718L122.565 169.694L119.997 169.181L113.049 192.112L114.565 192.755C116.618 193.626 119.158 194.313 122.149 194.841L122.155 194.842C125.242 195.376 128.518 195.611 131.979 195.553C138.771 195.551 144.656 194.469 149.57 192.226C154.444 190.058 158.502 186.944 161.713 182.886C164.936 178.886 167.455 174.221 169.283 168.913L169.285 168.909L207.264 60.4839H176.705L176.687 62.3807L156.893 131.826L137.288 60.4839H105.516L106.154 62.3178H135.898L155.66 132.552H156.686L176.705 62.3178H204.679L167.551 168.311C165.783 173.444 163.359 177.921 160.279 181.742C157.257 185.563 153.436 188.501 148.816 190.554C144.197 192.664 138.579 193.719 131.963 193.719C128.598 193.776 125.433 193.548 122.467 193.035C119.559 192.521 117.163 191.865 115.281 191.067L121.27 171.306L122.125 171.477C126.574 172.788 130.366 173.073 133.503 172.332C136.697 171.648 139.121 169.138 140.775 164.804L142.314 160.698L112.211 74.1493L110.907 75.9841Z" fill="black"/>
<path d="M89.4776 157.96L65.8664 124.083H56.0285V157.96H29.5942V159.794H57.8624V125.917H64.9092L88.5204 159.794H124.51L89.075 109.883L112.951 76.2752L112.211 74.1494L86.8256 109.882L120.959 157.96H89.4776Z" fill="black"/>
<path d="M62.6004 97.6117H57.8624V60.484H29.5942V62.318H56.0285V99.4456H63.5566L89.4776 62.318H122.867L124.169 60.484H88.5213L62.6004 97.6117Z" fill="black"/>
<path d="M14.5485 164.497C13.8546 164.497 13.2595 164.315 12.7633 163.952C12.2711 163.589 11.8939 163.065 11.6316 162.379C11.3734 161.689 11.2443 160.854 11.2443 159.874C11.2443 158.897 11.3754 158.064 11.6377 157.374C11.8999 156.68 12.2771 156.152 12.7693 155.789C13.2656 155.422 13.8586 155.238 14.5485 155.238C15.2424 155.238 15.8355 155.422 16.3277 155.789C16.8239 156.152 17.2011 156.68 17.4593 157.374C17.7216 158.064 17.8527 158.897 17.8527 159.874C17.8527 160.854 17.7236 161.689 17.4654 162.379C17.2072 163.065 16.832 163.589 16.3398 163.952C15.8476 164.315 15.2505 164.497 14.5485 164.497ZM14.5485 163.335C14.9721 163.335 15.3292 163.2 15.6197 162.93C15.9101 162.659 16.132 162.266 16.2853 161.75C16.4386 161.229 16.5153 160.604 16.5153 159.874C16.5153 159.139 16.4386 158.514 16.2853 157.998C16.132 157.477 15.9101 157.082 15.6197 156.811C15.3292 156.537 14.9721 156.4 14.5485 156.4C13.9232 156.4 13.439 156.705 13.0961 157.314C12.7572 157.919 12.5878 158.772 12.5878 159.874C12.5878 160.604 12.6644 161.229 12.8177 161.75C12.971 162.266 13.1929 162.659 13.4834 162.93C13.7779 163.2 14.133 163.335 14.5485 163.335ZM18.9057 164.376V163.396L21.9557 160.225C22.2785 159.886 22.5447 159.587 22.7545 159.329C22.9684 159.067 23.1277 158.819 23.2326 158.585C23.3415 158.351 23.396 158.102 23.396 157.84C23.396 157.538 23.3254 157.277 23.1842 157.06C23.043 156.842 22.8514 156.674 22.6093 156.557C22.3672 156.44 22.0929 156.382 21.7863 156.382C21.4635 156.382 21.1831 156.448 20.9451 156.581C20.7071 156.711 20.5215 156.896 20.3883 157.138C20.2592 157.376 20.1947 157.657 20.1947 157.979H18.8996C18.8996 157.431 19.0247 156.951 19.2748 156.539C19.529 156.128 19.876 155.809 20.3157 155.583C20.7595 155.353 21.2598 155.238 21.8165 155.238C22.3854 155.238 22.8857 155.351 23.3173 155.577C23.749 155.803 24.0859 156.109 24.328 156.497C24.57 156.88 24.6911 157.314 24.6911 157.798C24.6911 158.133 24.6285 158.459 24.5035 158.778C24.3824 159.097 24.1666 159.454 23.8559 159.849C23.5493 160.241 23.1217 160.713 22.573 161.265L20.7817 163.141V163.214H24.8363V164.376H18.9057Z" fill="black"/>
<path d="M153.931 149.825C153.237 149.825 152.642 149.643 152.146 149.28C151.654 148.917 151.277 148.392 151.014 147.707C150.756 147.017 150.627 146.182 150.627 145.201C150.627 144.225 150.758 143.392 151.02 142.702C151.283 142.008 151.66 141.479 152.152 141.116C152.648 140.749 153.241 140.566 153.931 140.566C154.625 140.566 155.218 140.749 155.711 141.116C156.207 141.479 156.584 142.008 156.842 142.702C157.104 143.392 157.236 144.225 157.236 145.201C157.236 146.182 157.106 147.017 156.848 147.707C156.59 148.392 156.215 148.917 155.723 149.28C155.23 149.643 154.633 149.825 153.931 149.825ZM153.931 148.663C154.355 148.663 154.712 148.528 155.002 148.257C155.293 147.987 155.515 147.594 155.668 147.077C155.821 146.557 155.898 145.931 155.898 145.201C155.898 144.467 155.821 143.842 155.668 143.325C155.515 142.805 155.293 142.409 155.002 142.139C154.712 141.865 154.355 141.728 153.931 141.728C153.306 141.728 152.822 142.032 152.479 142.641C152.14 143.247 151.971 144.1 151.971 145.201C151.971 145.931 152.047 146.557 152.201 147.077C152.354 147.594 152.576 147.987 152.866 148.257C153.161 148.528 153.516 148.663 153.931 148.663ZM161.429 149.825C160.82 149.825 160.279 149.722 159.807 149.516C159.335 149.306 158.962 149.016 158.688 148.645C158.414 148.273 158.268 147.844 158.252 147.356H159.62C159.64 147.622 159.731 147.852 159.892 148.045C160.054 148.239 160.265 148.39 160.528 148.499C160.794 148.604 161.09 148.657 161.417 148.657C161.772 148.657 162.087 148.594 162.361 148.469C162.636 148.344 162.849 148.173 163.003 147.955C163.16 147.733 163.239 147.477 163.239 147.186C163.239 146.884 163.162 146.617 163.009 146.387C162.855 146.153 162.632 145.972 162.337 145.843C162.043 145.714 161.688 145.649 161.272 145.649H160.503V144.536H161.272C161.603 144.536 161.895 144.475 162.149 144.354C162.404 144.233 162.601 144.065 162.743 143.852C162.888 143.638 162.96 143.386 162.96 143.095C162.96 142.817 162.898 142.575 162.773 142.369C162.648 142.159 162.472 141.998 162.246 141.885C162.02 141.768 161.754 141.709 161.447 141.709C161.153 141.709 160.879 141.762 160.624 141.867C160.37 141.972 160.162 142.123 160.001 142.321C159.844 142.514 159.761 142.75 159.753 143.029H158.44C158.452 142.54 158.593 142.113 158.863 141.746C159.138 141.375 159.501 141.086 159.953 140.88C160.409 140.671 160.913 140.566 161.466 140.566C162.043 140.566 162.541 140.679 162.96 140.905C163.384 141.126 163.711 141.425 163.941 141.8C164.171 142.171 164.286 142.577 164.286 143.017C164.286 143.529 164.144 143.961 163.862 144.312C163.58 144.659 163.202 144.895 162.73 145.02V145.086C163.328 145.179 163.789 145.417 164.116 145.8C164.447 146.184 164.612 146.66 164.612 147.228C164.612 147.725 164.473 148.169 164.195 148.56C163.921 148.951 163.543 149.26 163.063 149.486C162.587 149.712 162.043 149.825 161.429 149.825Z" fill="black"/>
<path d="M160.337 65.465C159.644 65.465 159.048 65.2834 158.552 64.9203C158.06 64.5572 157.683 64.0328 157.421 63.3469C157.162 62.657 157.033 61.8219 157.033 60.8415C157.033 59.8652 157.164 59.0321 157.427 58.3422C157.689 57.6483 158.066 57.1198 158.558 56.7567C159.055 56.3895 159.648 56.206 160.337 56.206C161.031 56.206 161.624 56.3895 162.117 56.7567C162.613 57.1198 162.99 57.6483 163.248 58.3422C163.511 59.0321 163.642 59.8652 163.642 60.8415C163.642 61.8219 163.513 62.657 163.254 63.3469C162.996 64.0328 162.621 64.5572 162.129 64.9203C161.637 65.2834 161.039 65.465 160.337 65.465ZM160.337 64.3031C160.761 64.3031 161.118 64.1679 161.409 63.8976C161.699 63.6273 161.921 63.2339 162.074 62.7175C162.228 62.1971 162.304 61.5718 162.304 60.8415C162.304 60.1073 162.228 59.4819 162.074 58.9655C161.921 58.4451 161.699 58.0497 161.409 57.7794C161.118 57.5051 160.761 57.3679 160.337 57.3679C159.712 57.3679 159.228 57.6725 158.885 58.2817C158.546 58.8869 158.377 59.7401 158.377 60.8415C158.377 61.5718 158.453 62.1971 158.607 62.7175C158.76 63.2339 158.982 63.6273 159.272 63.8976C159.567 64.1679 159.922 64.3031 160.337 64.3031ZM164.513 63.5829V62.4876L168.404 56.327H169.27V57.9488H168.713L165.929 62.3544V62.4271H171.273V63.5829H164.513ZM168.773 65.344V63.2501L168.786 62.7478V56.327H170.081V65.344H168.773Z" fill="black"/>
<path d="M194.275 125.984C193.581 125.984 192.986 125.802 192.49 125.439C191.998 125.076 191.62 124.551 191.358 123.866C191.1 123.176 190.971 122.341 190.971 121.36C190.971 120.384 191.102 119.551 191.364 118.861C191.626 118.167 192.004 117.638 192.496 117.275C192.992 116.908 193.585 116.725 194.275 116.725C194.969 116.725 195.562 116.908 196.054 117.275C196.55 117.638 196.928 118.167 197.186 118.861C197.448 119.551 197.579 120.384 197.579 121.36C197.579 122.341 197.45 123.176 197.192 123.866C196.934 124.551 196.559 125.076 196.066 125.439C195.574 125.802 194.977 125.984 194.275 125.984ZM194.275 124.822C194.699 124.822 195.056 124.687 195.346 124.416C195.637 124.146 195.859 123.753 196.012 123.236C196.165 122.716 196.242 122.09 196.242 121.36C196.242 120.626 196.165 120.001 196.012 119.484C195.859 118.964 195.637 118.568 195.346 118.298C195.056 118.024 194.699 117.887 194.275 117.887C193.65 117.887 193.166 118.191 192.823 118.8C192.484 119.406 192.314 120.259 192.314 121.36C192.314 122.09 192.391 122.716 192.544 123.236C192.698 123.753 192.92 124.146 193.21 124.416C193.504 124.687 193.86 124.822 194.275 124.822ZM201.61 125.984C201.057 125.984 200.561 125.879 200.121 125.669C199.685 125.455 199.336 125.163 199.074 124.791C198.812 124.416 198.673 123.991 198.656 123.515H199.976C200.008 123.898 200.179 124.215 200.49 124.465C200.801 124.715 201.174 124.84 201.61 124.84C201.957 124.84 202.263 124.759 202.53 124.598C202.796 124.436 203.006 124.217 203.159 123.938C203.312 123.656 203.389 123.333 203.389 122.97C203.389 122.607 203.31 122.282 203.153 121.996C202.995 121.705 202.778 121.477 202.499 121.312C202.225 121.146 201.908 121.064 201.549 121.064C201.275 121.064 201 121.112 200.726 121.209C200.452 121.302 200.23 121.423 200.06 121.572L198.808 121.39L199.316 116.846H204.272V118.014H200.454L200.169 120.537H200.218C200.391 120.364 200.623 120.223 200.914 120.114C201.208 120.001 201.525 119.944 201.864 119.944C202.413 119.944 202.901 120.075 203.328 120.337C203.76 120.596 204.099 120.951 204.345 121.403C204.591 121.85 204.714 122.365 204.714 122.946C204.714 123.531 204.581 124.053 204.315 124.513C204.048 124.969 203.681 125.328 203.213 125.59C202.749 125.853 202.215 125.984 201.61 125.984Z" fill="black"/>
<path d="M194.275 178.25C193.581 178.25 192.986 178.069 192.49 177.706C191.998 177.342 191.62 176.818 191.358 176.132C191.1 175.442 190.971 174.607 190.971 173.627C190.971 172.65 191.102 171.817 191.364 171.127C191.626 170.434 192.004 169.905 192.496 169.542C192.992 169.175 193.585 168.991 194.275 168.991C194.969 168.991 195.562 169.175 196.054 169.542C196.55 169.905 196.928 170.434 197.186 171.127C197.448 171.817 197.579 172.65 197.579 173.627C197.579 174.607 197.45 175.442 197.192 176.132C196.934 176.818 196.559 177.342 196.066 177.706C195.574 178.069 194.977 178.25 194.275 178.25ZM194.275 177.088C194.699 177.088 195.056 176.953 195.346 176.683C195.637 176.413 195.859 176.019 196.012 175.503C196.165 174.982 196.242 174.357 196.242 173.627C196.242 172.892 196.165 172.267 196.012 171.751C195.859 171.23 195.637 170.835 195.346 170.565C195.056 170.29 194.699 170.153 194.275 170.153C193.65 170.153 193.166 170.458 192.823 171.067C192.484 171.672 192.314 172.525 192.314 173.627C192.314 174.357 192.391 174.982 192.544 175.503C192.698 176.019 192.92 176.413 193.21 176.683C193.504 176.953 193.86 177.088 194.275 177.088ZM201.755 178.25C201.355 178.25 200.96 178.18 200.569 178.038C200.177 177.897 199.824 177.663 199.51 177.336C199.195 177.006 198.941 176.562 198.747 176.005C198.558 175.448 198.463 174.756 198.463 173.929C198.463 173.143 198.541 172.445 198.699 171.835C198.86 171.222 199.088 170.706 199.383 170.286C199.681 169.863 200.04 169.542 200.46 169.324C200.879 169.102 201.351 168.991 201.876 168.991C202.413 168.991 202.889 169.098 203.304 169.312C203.72 169.522 204.057 169.812 204.315 170.183C204.577 170.555 204.74 170.978 204.805 171.454H203.474C203.381 171.079 203.199 170.774 202.929 170.54C202.659 170.302 202.308 170.183 201.876 170.183C201.214 170.183 200.698 170.472 200.327 171.049C199.96 171.622 199.776 172.42 199.776 173.445H199.843C200 173.191 200.192 172.973 200.417 172.792C200.643 172.606 200.896 172.465 201.174 172.368C201.456 172.271 201.757 172.223 202.076 172.223C202.596 172.223 203.068 172.35 203.492 172.604C203.919 172.858 204.258 173.209 204.508 173.657C204.763 174.101 204.89 174.611 204.89 175.188C204.89 175.761 204.759 176.279 204.496 176.743C204.238 177.207 203.873 177.574 203.401 177.845C202.933 178.115 202.384 178.25 201.755 178.25ZM201.749 177.106C202.096 177.106 202.404 177.022 202.675 176.852C202.949 176.683 203.167 176.455 203.328 176.168C203.49 175.878 203.57 175.555 203.57 175.2C203.57 174.853 203.492 174.539 203.334 174.256C203.181 173.974 202.969 173.75 202.699 173.584C202.433 173.415 202.126 173.33 201.779 173.33C201.436 173.33 201.126 173.417 200.847 173.59C200.569 173.764 200.347 173.994 200.181 174.28C200.02 174.567 199.939 174.877 199.939 175.212C199.939 175.547 200.018 175.86 200.175 176.15C200.333 176.441 200.547 176.673 200.817 176.846C201.091 177.02 201.402 177.106 201.749 177.106Z" fill="black"/>
<path d="M362.998 177.334C362.304 177.334 361.709 177.152 361.212 176.789C360.72 176.426 360.343 175.902 360.081 175.216C359.823 174.526 359.694 173.691 359.694 172.71C359.694 171.734 359.825 170.901 360.087 170.211C360.349 169.517 360.726 168.989 361.219 168.626C361.715 168.258 362.308 168.075 362.998 168.075C363.692 168.075 364.285 168.258 364.777 168.626C365.273 168.989 365.65 169.517 365.909 170.211C366.171 170.901 366.302 171.734 366.302 172.71C366.302 173.691 366.173 174.526 365.915 175.216C365.656 175.902 365.281 176.426 364.789 176.789C364.297 177.152 363.7 177.334 362.998 177.334ZM362.998 176.172C363.421 176.172 363.778 176.037 364.069 175.767C364.359 175.496 364.581 175.103 364.735 174.586C364.888 174.066 364.965 173.441 364.965 172.71C364.965 171.976 364.888 171.351 364.735 170.834C364.581 170.314 364.359 169.919 364.069 169.648C363.778 169.374 363.421 169.237 362.998 169.237C362.372 169.237 361.888 169.541 361.545 170.151C361.206 170.756 361.037 171.609 361.037 172.71C361.037 173.441 361.114 174.066 361.267 174.586C361.42 175.103 361.642 175.496 361.933 175.767C362.227 176.037 362.582 176.172 362.998 176.172ZM367.415 177.213L371.349 169.43V169.364H366.798V168.196H372.765V169.412L368.838 177.213H367.415Z" fill="black"/>
<path d="M388.662 177.334C387.968 177.334 387.373 177.152 386.877 176.789C386.384 176.426 386.007 175.902 385.745 175.216C385.487 174.526 385.358 173.691 385.358 172.71C385.358 171.734 385.489 170.901 385.751 170.211C386.013 169.517 386.39 168.989 386.883 168.626C387.379 168.258 387.972 168.075 388.662 168.075C389.356 168.075 389.949 168.258 390.441 168.626C390.937 168.989 391.314 169.517 391.573 170.211C391.835 170.901 391.966 171.734 391.966 172.71C391.966 173.691 391.837 174.526 391.579 175.216C391.32 175.902 390.945 176.426 390.453 176.789C389.961 177.152 389.364 177.334 388.662 177.334ZM388.662 176.172C389.085 176.172 389.442 176.037 389.733 175.767C390.023 175.496 390.245 175.103 390.399 174.586C390.552 174.066 390.629 173.441 390.629 172.71C390.629 171.976 390.552 171.351 390.399 170.834C390.245 170.314 390.023 169.919 389.733 169.648C389.442 169.374 389.085 169.237 388.662 169.237C388.036 169.237 387.552 169.541 387.209 170.151C386.871 170.756 386.701 171.609 386.701 172.71C386.701 173.441 386.778 174.066 386.931 174.586C387.084 175.103 387.306 175.496 387.597 175.767C387.891 176.037 388.246 176.172 388.662 176.172ZM396.057 177.334C395.428 177.334 394.871 177.225 394.387 177.007C393.907 176.789 393.529 176.491 393.255 176.111C392.985 175.728 392.85 175.293 392.85 174.804C392.85 174.429 392.928 174.08 393.086 173.757C393.247 173.435 393.465 173.166 393.739 172.953C394.013 172.739 394.322 172.602 394.665 172.541V172.487C394.217 172.378 393.856 172.138 393.582 171.766C393.311 171.391 393.176 170.964 393.176 170.483C393.176 170.02 393.299 169.606 393.545 169.243C393.796 168.88 394.137 168.595 394.568 168.39C395.004 168.18 395.5 168.075 396.057 168.075C396.606 168.075 397.096 168.18 397.527 168.39C397.963 168.595 398.304 168.88 398.55 169.243C398.8 169.606 398.925 170.02 398.925 170.483C398.925 170.964 398.788 171.391 398.514 171.766C398.244 172.138 397.889 172.378 397.449 172.487V172.541C397.788 172.602 398.094 172.739 398.369 172.953C398.643 173.166 398.861 173.435 399.022 173.757C399.184 174.08 399.264 174.429 399.264 174.804C399.264 175.293 399.127 175.728 398.853 176.111C398.578 176.491 398.199 176.789 397.715 177.007C397.235 177.225 396.682 177.334 396.057 177.334ZM396.057 176.22C396.428 176.22 396.751 176.16 397.025 176.039C397.3 175.914 397.511 175.738 397.661 175.512C397.81 175.286 397.884 175.024 397.884 174.726C397.884 174.411 397.804 174.135 397.642 173.897C397.485 173.655 397.269 173.465 396.995 173.328C396.721 173.187 396.408 173.116 396.057 173.116C395.702 173.116 395.385 173.185 395.107 173.322C394.832 173.459 394.617 173.648 394.459 173.891C394.302 174.133 394.223 174.411 394.223 174.726C394.223 175.024 394.298 175.286 394.447 175.512C394.596 175.738 394.808 175.914 395.083 176.039C395.357 176.16 395.682 176.22 396.057 176.22ZM396.057 172.033C396.355 172.033 396.62 171.972 396.85 171.851C397.084 171.73 397.267 171.563 397.4 171.349C397.538 171.135 397.606 170.885 397.606 170.598C397.606 170.316 397.54 170.07 397.406 169.86C397.277 169.65 397.096 169.487 396.862 169.37C396.632 169.253 396.364 169.194 396.057 169.194C395.746 169.194 395.474 169.253 395.24 169.37C395.006 169.487 394.824 169.65 394.695 169.86C394.566 170.07 394.502 170.316 394.502 170.598C394.502 170.885 394.568 171.135 394.701 171.349C394.834 171.563 395.016 171.73 395.246 171.851C395.48 171.972 395.75 172.033 396.057 172.033Z" fill="black"/>
<path d="M460.185 52.6274C459.491 52.6274 458.896 52.4458 458.4 52.0827C457.908 51.7196 457.531 51.1952 457.268 50.5093C457.01 49.8194 456.881 48.9843 456.881 48.0039C456.881 47.0276 457.012 46.1945 457.274 45.5046C457.537 44.8107 457.914 44.2822 458.406 43.9191C458.902 43.5519 459.495 43.3684 460.185 43.3684C460.879 43.3684 461.472 43.5519 461.964 43.9191C462.461 44.2822 462.838 44.8107 463.096 45.5046C463.358 46.1945 463.489 47.0276 463.489 48.0039C463.489 48.9843 463.36 49.8194 463.102 50.5093C462.844 51.1952 462.469 51.7196 461.977 52.0827C461.484 52.4458 460.887 52.6274 460.185 52.6274ZM460.185 51.4655C460.609 51.4655 460.966 51.3303 461.256 51.06C461.547 50.7897 461.769 50.3963 461.922 49.8799C462.075 49.3595 462.152 48.7342 462.152 48.0039C462.152 47.2697 462.075 46.6443 461.922 46.1279C461.769 45.6075 461.547 45.2121 461.256 44.9418C460.966 44.6675 460.609 44.5303 460.185 44.5303C459.56 44.5303 459.076 44.8349 458.733 45.4441C458.394 46.0492 458.224 46.9025 458.224 48.0039C458.224 48.7342 458.301 49.3595 458.454 49.8799C458.608 50.3963 458.83 50.7897 459.12 51.06C459.415 51.3303 459.77 51.4655 460.185 51.4655ZM467.508 43.3623C467.911 43.3663 468.307 43.441 468.694 43.5862C469.085 43.7274 469.438 43.9614 469.753 44.2882C470.072 44.615 470.326 45.0568 470.515 45.6135C470.705 46.1662 470.8 46.8561 470.8 47.6832C470.8 48.4699 470.721 49.1699 470.564 49.7831C470.406 50.3963 470.179 50.9148 469.88 51.3384C469.585 51.762 469.228 52.0847 468.809 52.3066C468.389 52.5245 467.919 52.6334 467.399 52.6334C466.862 52.6334 466.384 52.5265 465.965 52.3127C465.545 52.0989 465.206 51.8064 464.948 51.4352C464.69 51.06 464.526 50.6303 464.458 50.1462H465.801C465.89 50.5295 466.069 50.8421 466.34 51.0842C466.614 51.3222 466.967 51.4413 467.399 51.4413C468.056 51.4413 468.569 51.1528 468.936 50.5759C469.307 49.999 469.495 49.1941 469.499 48.1613H469.432C469.275 48.4154 469.083 48.6353 468.857 48.8209C468.631 49.0024 468.377 49.1416 468.095 49.2385C467.812 49.3353 467.514 49.3837 467.199 49.3837C466.675 49.3837 466.199 49.2566 465.771 49.0024C465.343 48.7483 465.004 48.3993 464.754 47.9555C464.504 47.5077 464.377 46.9973 464.373 46.4244C464.377 45.8516 464.508 45.3331 464.766 44.8692C465.029 44.4052 465.394 44.0381 465.862 43.7678C466.33 43.4934 466.878 43.3583 467.508 43.3623ZM467.514 44.5121C467.171 44.5121 466.862 44.5968 466.588 44.7663C466.314 44.9357 466.098 45.1637 465.94 45.4501C465.783 45.7366 465.704 46.0553 465.704 46.4063C465.704 46.7573 465.779 47.074 465.928 47.3564C466.082 47.6388 466.293 47.8647 466.564 48.0342C466.834 48.1996 467.141 48.2823 467.484 48.2823C467.83 48.2823 468.141 48.1956 468.415 48.0221C468.694 47.8446 468.916 47.6126 469.081 47.3261C469.247 47.0357 469.329 46.723 469.329 46.3881C469.329 46.0573 469.251 45.7487 469.093 45.4622C468.936 45.1758 468.72 44.9458 468.446 44.7723C468.175 44.5989 467.865 44.5121 467.514 44.5121Z" fill="black"/>
<path d="M494.236 43.4894V52.5063H492.892V44.8571H492.832L490.69 46.2671V44.9599L492.929 43.4894H494.236ZM498.702 52.6274C498.008 52.6274 497.413 52.4458 496.917 52.0827C496.425 51.7196 496.047 51.1952 495.785 50.5093C495.527 49.8194 495.398 48.9843 495.398 48.0039C495.398 47.0276 495.529 46.1945 495.791 45.5046C496.053 44.8107 496.431 44.2822 496.923 43.9191C497.419 43.5519 498.012 43.3684 498.702 43.3684C499.396 43.3684 499.989 43.5519 500.481 43.9191C500.977 44.2822 501.355 44.8107 501.613 45.5046C501.875 46.1945 502.006 47.0276 502.006 48.0039C502.006 48.9843 501.877 49.8194 501.619 50.5093C501.361 51.1952 500.986 51.7196 500.493 52.0827C500.001 52.4458 499.404 52.6274 498.702 52.6274ZM498.702 51.4655C499.126 51.4655 499.483 51.3303 499.773 51.06C500.064 50.7897 500.286 50.3963 500.439 49.8799C500.592 49.3595 500.669 48.7342 500.669 48.0039C500.669 47.2697 500.592 46.6443 500.439 46.1279C500.286 45.6075 500.064 45.2121 499.773 44.9418C499.483 44.6675 499.126 44.5303 498.702 44.5303C498.077 44.5303 497.593 44.8349 497.25 45.4441C496.911 46.0492 496.741 46.9025 496.741 48.0039C496.741 48.7342 496.818 49.3595 496.971 49.8799C497.125 50.3963 497.346 50.7897 497.637 51.06C497.931 51.3303 498.287 51.4655 498.702 51.4655Z" fill="black"/>
<path d="M16.3884 65.4648C15.6944 65.4648 15.0994 65.2832 14.6031 64.9201C14.1109 64.557 13.7337 64.0326 13.4715 63.3467C13.2133 62.6568 13.0842 61.8217 13.0842 60.8413C13.0842 59.865 13.2153 59.0319 13.4775 58.342C13.7398 57.6481 14.117 57.1196 14.6092 56.7565C15.1054 56.3893 15.6985 56.2058 16.3884 56.2058C17.0823 56.2058 17.6753 56.3893 18.1675 56.7565C18.6638 57.1196 19.041 57.6481 19.2992 58.342C19.5614 59.0319 19.6926 59.865 19.6926 60.8413C19.6926 61.8217 19.5634 62.6568 19.3052 63.3467C19.047 64.0326 18.6718 64.557 18.1796 64.9201C17.6874 65.2832 17.0903 65.4648 16.3884 65.4648ZM16.3884 64.3029C16.812 64.3029 17.169 64.1677 17.4595 63.8974C17.75 63.6271 17.9719 63.2337 18.1252 62.7173C18.2785 62.1969 18.3551 61.5716 18.3551 60.8413C18.3551 60.1071 18.2785 59.4817 18.1252 58.9653C17.9719 58.4449 17.75 58.0495 17.4595 57.7792C17.169 57.5049 16.812 57.3677 16.3884 57.3677C15.763 57.3677 15.2789 57.6723 14.936 58.2815C14.5971 58.8866 14.4276 59.7399 14.4276 60.8413C14.4276 61.5716 14.5043 62.1969 14.6576 62.7173C14.8109 63.2337 15.0328 63.6271 15.3233 63.8974C15.6178 64.1677 15.9728 64.3029 16.3884 64.3029ZM24.0013 56.3268V65.3438H22.6579V57.6945H22.5973L20.4551 59.1045V57.7974L22.6942 56.3268H24.0013Z" fill="black"/>
<circle cx="31.8957" cy="61.6784" r="2.75088" fill="black"/>
<circle cx="31.8957" cy="158.876" r="2.75088" fill="black"/>
<circle cx="157.52" cy="133.203" r="2.75088" fill="black"/>
<circle cx="176.774" cy="61.6786" r="2.75088" fill="black"/>
<circle cx="198.782" cy="135.953" r="2.75088" fill="black"/>
<circle cx="198.782" cy="158.876" r="2.75088" fill="black"/>
<circle cx="366.595" cy="130.451" r="2.75088" fill="black"/>
<circle cx="393.173" cy="130.451" r="2.75088" fill="black"/>
<circle cx="462.864" cy="63.5134" r="2.75088" fill="black"/>
<circle cx="496.794" cy="61.6786" r="2.75088" fill="black"/>
</svg>
