<svg width="146" height="138" viewBox="0 0 146 138" fill="none" xmlns="http://www.w3.org/2000/svg">
<path d="M10.8139 46.3368C14.1672 42.2834 17.0639 37.8813 20.6629 34.0596C24.8572 29.6058 28.8948 25.4286 34 22.4923C40.499 18.7543 48.4732 15.2342 54.8608 11.3241C61.1004 7.5047 68.4864 5.10268 75.3796 3.21515C81.9649 1.41192 88.1445 1.32052 94.8724 1.32052C102.534 1.32052 110.265 1.2713 117.717 3.51829C127.188 6.37443 140.626 10.6849 143.434 22.8435C145.574 32.1156 142.784 42.3557 135.089 47.3599C130.194 50.5439 124.504 52.775 118.982 54.1806C111.197 56.1622 103.096 58.3265 95.2144 59.675M30 80.4923C26.0569 82.0164 23.3272 83.8288 19.4659 85.5177C16.4072 86.8555 12.654 88.273 10.1983 90.7847C4.02901 97.0947 0.964844 105.684 0.964844 114.884C0.964844 119.736 1.08425 124.496 5.0344 127.54C12.4631 133.267 22.9329 134.501 31.6746 136.066C50.215 139.386 69.8989 132.85 84.6472 120.379C88.322 117.271 92.5351 114.68 96.0352 111.398C99.509 108.141 101.771 104.547 105.918 102.19C109.07 100.399 112.22 97.4672 115.118 95.1424C116.766 93.8197 119.041 92.8417 120.384 91.3531" stroke="black" stroke-width="1.76437" stroke-linecap="round"/>
<path d="M90.1214 115.247L67.1449 82.281H57.5714V115.247H31.8477V117.032H59.356V84.0656H66.2134L89.1899 117.032H124.212L89.7297 68.4621L124.6 22.4597L123.881 20.3911L87.5407 68.4617L120.757 115.247H90.1214Z" fill="black"/>
<path d="M63.9666 56.5208H59.356V20.3911H31.8477V22.1757H57.5714V58.3055H64.8972L90.1214 22.1757H122.613L123.881 20.3911H89.1909L63.9666 56.5208Z" fill="black"/>
<path d="M17.2058 121.903C16.5305 121.903 15.9514 121.726 15.4685 121.373C14.9896 121.02 14.6225 120.509 14.3673 119.842C14.116 119.171 13.9904 118.358 13.9904 117.404C13.9904 116.454 14.118 115.643 14.3732 114.972C14.6284 114.296 14.9955 113.782 15.4744 113.429C15.9573 113.071 16.5345 112.893 17.2058 112.893C17.8811 112.893 18.4582 113.071 18.9372 113.429C19.4201 113.782 19.7871 114.296 20.0384 114.972C20.2936 115.643 20.4212 116.454 20.4212 117.404C20.4212 118.358 20.2956 119.171 20.0443 119.842C19.793 120.509 19.4279 121.02 18.9489 121.373C18.47 121.726 17.8889 121.903 17.2058 121.903ZM17.2058 120.772C17.618 120.772 17.9655 120.641 18.2482 120.378C18.5308 120.115 18.7468 119.732 18.8959 119.229C19.0451 118.723 19.1197 118.114 19.1197 117.404C19.1197 116.689 19.0451 116.081 18.8959 115.578C18.7468 115.072 18.5308 114.687 18.2482 114.424C17.9655 114.157 17.618 114.024 17.2058 114.024C16.5973 114.024 16.1262 114.32 15.7924 114.913C15.4627 115.502 15.2978 116.332 15.2978 117.404C15.2978 118.114 15.3724 118.723 15.5215 119.229C15.6707 119.732 15.8867 120.115 16.1693 120.378C16.4559 120.641 16.8014 120.772 17.2058 120.772ZM21.4459 121.785V120.831L24.4139 117.745C24.728 117.416 24.9871 117.125 25.1913 116.874C25.3993 116.619 25.5544 116.377 25.6565 116.149C25.7625 115.922 25.8155 115.68 25.8155 115.425C25.8155 115.131 25.7468 114.877 25.6094 114.665C25.472 114.453 25.2855 114.291 25.0499 114.177C24.8144 114.063 24.5474 114.006 24.249 114.006C23.9349 114.006 23.6621 114.071 23.4305 114.2C23.1988 114.326 23.0182 114.506 22.8887 114.742C22.763 114.974 22.7002 115.246 22.7002 115.561H21.44C21.44 115.027 21.5617 114.559 21.8051 114.159C22.0524 113.759 22.3901 113.448 22.818 113.229C23.2499 113.005 23.7367 112.893 24.2785 112.893C24.832 112.893 25.3189 113.003 25.7389 113.223C26.159 113.442 26.4868 113.741 26.7224 114.118C26.958 114.491 27.0757 114.913 27.0757 115.384C27.0757 115.71 27.0149 116.028 26.8932 116.338C26.7754 116.648 26.5654 116.996 26.2631 117.38C25.9647 117.761 25.5485 118.22 25.0146 118.758L23.2715 120.584V120.655H27.2171V121.785H21.4459Z" fill="black"/>
<path d="M18.987 25.5333C18.3118 25.5333 17.7327 25.3566 17.2498 25.0033C16.7708 24.6499 16.4037 24.1395 16.1486 23.4721C15.8973 22.8008 15.7717 21.9881 15.7717 21.0341C15.7717 20.084 15.8993 19.2733 16.1544 18.6019C16.4096 17.9267 16.7767 17.4124 17.2557 17.059C17.7386 16.7018 18.3157 16.5231 18.987 16.5231C19.6623 16.5231 20.2394 16.7018 20.7184 17.059C21.2013 17.4124 21.5684 17.9267 21.8197 18.6019C22.0748 19.2733 22.2024 20.084 22.2024 21.0341C22.2024 21.9881 22.0768 22.8008 21.8255 23.4721C21.5743 24.1395 21.2092 24.6499 20.7302 25.0033C20.2512 25.3566 19.6702 25.5333 18.987 25.5333ZM18.987 24.4026C19.3993 24.4026 19.7467 24.2711 20.0294 24.008C20.3121 23.745 20.528 23.3622 20.6772 22.8597C20.8264 22.3532 20.901 21.7447 20.901 21.0341C20.901 20.3196 20.8264 19.711 20.6772 19.2085C20.528 18.7021 20.3121 18.3173 20.0294 18.0543C19.7467 17.7873 19.3993 17.6538 18.987 17.6538C18.3785 17.6538 17.9074 17.9502 17.5737 18.543C17.2439 19.1319 17.079 19.9623 17.079 21.0341C17.079 21.7447 17.1536 22.3532 17.3028 22.8597C17.452 23.3622 17.6679 23.745 17.9506 24.008C18.2372 24.2711 18.5827 24.4026 18.987 24.4026ZM26.3954 16.6409V25.4155H25.088V17.9718H25.0291L22.9444 19.344V18.0719L25.1234 16.6409H26.3954Z" fill="black"/>
<circle cx="34.091" cy="21.5539" r="2.67695" fill="black"/>
<circle cx="34.091" cy="116.139" r="2.67695" fill="black"/>
</svg>
