<svg width="94" height="102" viewBox="0 0 94 102" fill="none" xmlns="http://www.w3.org/2000/svg">
<path fill-rule="evenodd" clip-rule="evenodd" d="M3.04548 6.32925C4.31605 6.32925 5.38088 5.44836 5.66257 4.26399H26.644V40.5701H34.0057L59.353 4.26399H91.9215L56.7597 50.776L90.1379 97.7899H59.353L36.2643 64.6627H26.644V97.7899H5.58247C5.21322 96.7451 4.21677 95.9965 3.04548 95.9965C1.55983 95.9965 0.355469 97.2008 0.355469 98.6865C0.355469 100.172 1.55983 101.376 3.04548 101.376C4.21669 101.376 5.21308 100.628 5.58239 99.5832H28.4374V66.456H35.3283L58.417 99.5832H93.6105L58.9593 50.7763L94.0002 4.54938L93.2772 2.47065H58.4179L33.0705 38.7768H28.4374V2.47065H5.4691C5.03419 1.57031 4.11237 0.949219 3.04548 0.949219C1.55983 0.949219 0.355469 2.15358 0.355469 3.63923C0.355469 5.12489 1.55983 6.32925 3.04548 6.32925Z" fill="black"/>
</svg>
