<svg width="412" height="338" viewBox="0 0 412 338" fill="none" xmlns="http://www.w3.org/2000/svg">
<path d="M56.1913 40.7295C63.2341 28.3561 81.998 5.57287 100.712 13.4273C124.104 23.2453 142.404 39.3345 111.553 75.6343C80.7019 111.934 43.7332 138.688 55.4082 153.255C67.0832 167.822 88.786 164.077 106.052 142.708C115.502 131.011 160.958 51.4119 201.665 77.0773C242.372 102.743 206.807 135.691 201.515 141.077C196.223 146.464 139.926 198.838 147.382 217.311C154.783 235.649 178.314 229.608 193.607 214.977C208.899 200.346 235.851 143.763 263.444 140.301C277.069 138.591 286.105 145.865 264.883 172.307C243.66 198.749 214.413 214.46 206.402 238.594C199.445 259.554 230.493 276.177 246.54 277.193C262.587 278.208 294.254 270.09 303.098 243.43C311.943 216.769 304.415 211.264 316.726 191.738C322.907 181.934 337.676 169.337 354.812 177.048C373.72 185.556 389.277 198.778 388.615 228.701C387.953 258.625 373.066 272.012 350.051 270.017" stroke="#131313" stroke-width="0.917366"/>
<path d="M157.911 244.769C157.404 244.769 156.97 244.636 156.607 244.371C156.248 244.106 155.973 243.723 155.781 243.223C155.593 242.719 155.498 242.109 155.498 241.393C155.498 240.681 155.594 240.072 155.785 239.569C155.977 239.062 156.252 238.676 156.612 238.411C156.974 238.143 157.407 238.009 157.911 238.009C158.417 238.009 158.85 238.143 159.21 238.411C159.572 238.676 159.847 239.062 160.036 239.569C160.227 240.072 160.323 240.681 160.323 241.393C160.323 242.109 160.229 242.719 160.04 243.223C159.852 243.723 159.578 244.106 159.219 244.371C158.859 244.636 158.423 244.769 157.911 244.769ZM157.911 243.921C158.22 243.921 158.481 243.822 158.693 243.625C158.905 243.427 159.067 243.14 159.179 242.763C159.291 242.383 159.347 241.927 159.347 241.393C159.347 240.857 159.291 240.401 159.179 240.024C159.067 239.644 158.905 239.355 158.693 239.158C158.481 238.957 158.22 238.857 157.911 238.857C157.454 238.857 157.101 239.08 156.85 239.524C156.603 239.966 156.479 240.589 156.479 241.393C156.479 241.927 156.535 242.383 156.647 242.763C156.759 243.14 156.921 243.427 157.133 243.625C157.348 243.822 157.607 243.921 157.911 243.921ZM161.092 244.681V243.965L163.319 241.65C163.554 241.402 163.749 241.184 163.902 240.996C164.058 240.804 164.174 240.623 164.251 240.452C164.331 240.281 164.37 240.1 164.37 239.909C164.37 239.688 164.319 239.498 164.216 239.339C164.113 239.18 163.973 239.058 163.796 238.972C163.619 238.887 163.419 238.844 163.195 238.844C162.959 238.844 162.755 238.893 162.581 238.99C162.407 239.084 162.272 239.22 162.174 239.396C162.08 239.57 162.033 239.775 162.033 240.01H161.087C161.087 239.61 161.179 239.259 161.361 238.959C161.547 238.658 161.8 238.426 162.121 238.261C162.445 238.093 162.811 238.009 163.217 238.009C163.632 238.009 163.998 238.091 164.313 238.256C164.628 238.421 164.874 238.645 165.051 238.928C165.227 239.208 165.316 239.524 165.316 239.878C165.316 240.122 165.27 240.361 165.179 240.594C165.091 240.826 164.933 241.087 164.706 241.376C164.482 241.661 164.17 242.006 163.769 242.41L162.462 243.779V243.832H165.422V244.681H161.092Z" fill="#131313"/>
<path d="M335.878 272.902C335.371 272.902 334.936 272.769 334.574 272.504C334.215 272.239 333.939 271.856 333.748 271.355C333.559 270.852 333.465 270.242 333.465 269.526C333.465 268.813 333.561 268.205 333.752 267.701C333.944 267.195 334.219 266.809 334.579 266.544C334.941 266.276 335.374 266.142 335.878 266.142C336.384 266.142 336.817 266.276 337.176 266.544C337.539 266.809 337.814 267.195 338.003 267.701C338.194 268.205 338.29 268.813 338.29 269.526C338.29 270.242 338.196 270.852 338.007 271.355C337.819 271.856 337.545 272.239 337.185 272.504C336.826 272.769 336.39 272.902 335.878 272.902ZM335.878 272.054C336.187 272.054 336.447 271.955 336.66 271.757C336.872 271.56 337.034 271.273 337.146 270.896C337.257 270.516 337.313 270.059 337.313 269.526C337.313 268.99 337.257 268.534 337.146 268.157C337.034 267.777 336.872 267.488 336.66 267.291C336.447 267.09 336.187 266.99 335.878 266.99C335.421 266.99 335.067 267.212 334.817 267.657C334.57 268.099 334.446 268.722 334.446 269.526C334.446 270.059 334.502 270.516 334.614 270.896C334.726 271.273 334.888 271.56 335.1 271.757C335.315 271.955 335.574 272.054 335.878 272.054ZM341.352 272.902C340.907 272.902 340.512 272.827 340.168 272.677C339.823 272.523 339.551 272.311 339.35 272.04C339.15 271.769 339.044 271.456 339.032 271.099H340.031C340.045 271.294 340.112 271.461 340.23 271.603C340.347 271.744 340.502 271.855 340.693 271.934C340.888 272.011 341.104 272.049 341.343 272.049C341.602 272.049 341.832 272.003 342.032 271.912C342.233 271.821 342.389 271.696 342.501 271.537C342.615 271.375 342.673 271.188 342.673 270.975C342.673 270.755 342.617 270.56 342.505 270.392C342.393 270.221 342.23 270.089 342.015 269.995C341.8 269.9 341.54 269.853 341.237 269.853H340.676V269.04H341.237C341.478 269.04 341.692 268.996 341.878 268.908C342.063 268.819 342.208 268.697 342.311 268.541C342.417 268.385 342.47 268.201 342.47 267.989C342.47 267.785 342.424 267.609 342.333 267.458C342.241 267.305 342.113 267.187 341.948 267.105C341.783 267.02 341.589 266.977 341.365 266.977C341.15 266.977 340.95 267.015 340.764 267.092C340.579 267.168 340.427 267.279 340.309 267.423C340.194 267.564 340.134 267.737 340.128 267.94H339.169C339.178 267.584 339.281 267.271 339.478 267.003C339.679 266.732 339.944 266.522 340.274 266.372C340.607 266.218 340.975 266.142 341.378 266.142C341.8 266.142 342.163 266.224 342.47 266.389C342.779 266.551 343.018 266.769 343.185 267.043C343.353 267.314 343.437 267.61 343.437 267.931C343.437 268.305 343.334 268.62 343.128 268.877C342.922 269.13 342.646 269.302 342.302 269.394V269.442C342.738 269.51 343.075 269.684 343.314 269.964C343.555 270.243 343.676 270.591 343.676 271.006C343.676 271.369 343.574 271.693 343.371 271.978C343.171 272.264 342.895 272.489 342.545 272.654C342.197 272.819 341.8 272.902 341.352 272.902Z" fill="#131313"/>
<path d="M346.886 168.934C346.379 168.934 345.945 168.801 345.582 168.536C345.223 168.271 344.948 167.888 344.756 167.387C344.568 166.883 344.473 166.274 344.473 165.558C344.473 164.845 344.569 164.237 344.761 163.733C344.952 163.227 345.227 162.841 345.587 162.576C345.949 162.308 346.382 162.174 346.886 162.174C347.392 162.174 347.825 162.308 348.185 162.576C348.547 162.841 348.823 163.227 349.011 163.733C349.202 164.237 349.298 164.845 349.298 165.558C349.298 166.274 349.204 166.883 349.015 167.387C348.827 167.888 348.553 168.271 348.194 168.536C347.834 168.801 347.398 168.934 346.886 168.934ZM346.886 168.085C347.195 168.085 347.456 167.987 347.668 167.789C347.88 167.592 348.042 167.305 348.154 166.928C348.266 166.548 348.322 166.091 348.322 165.558C348.322 165.022 348.266 164.565 348.154 164.188C348.042 163.808 347.88 163.52 347.668 163.322C347.456 163.122 347.195 163.022 346.886 163.022C346.429 163.022 346.076 163.244 345.825 163.689C345.578 164.131 345.454 164.754 345.454 165.558C345.454 166.091 345.51 166.548 345.622 166.928C345.734 167.305 345.896 167.592 346.108 167.789C346.323 167.987 346.582 168.085 346.886 168.085ZM349.934 167.559V166.76L352.775 162.262H353.407V163.446H353.001L350.968 166.663V166.716H354.87V167.559H349.934ZM353.045 168.845V167.316L353.054 166.95V162.262H353.999V168.845H353.045Z" fill="#131313"/>
<path d="M53.9424 50.2871C53.4358 50.2871 53.0013 50.1545 52.639 49.8894C52.2797 49.6243 52.0043 49.2414 51.8128 48.7407C51.6243 48.237 51.53 47.6273 51.53 46.9115C51.53 46.1987 51.6258 45.5904 51.8172 45.0867C52.0087 44.5801 52.2841 44.1942 52.6435 43.9291C53.0058 43.6611 53.4388 43.527 53.9424 43.527C54.4491 43.527 54.8821 43.6611 55.2414 43.9291C55.6037 44.1942 55.8791 44.5801 56.0677 45.0867C56.2591 45.5904 56.3549 46.1987 56.3549 46.9115C56.3549 47.6273 56.2606 48.237 56.0721 48.7407C55.8836 49.2414 55.6096 49.6243 55.2503 49.8894C54.8909 50.1545 54.455 50.2871 53.9424 50.2871ZM53.9424 49.4388C54.2517 49.4388 54.5124 49.3401 54.7245 49.1427C54.9366 48.9454 55.0986 48.6582 55.2105 48.2812C55.3224 47.9012 55.3784 47.4446 55.3784 46.9115C55.3784 46.3754 55.3224 45.9188 55.2105 45.5418C55.0986 45.1618 54.9366 44.8732 54.7245 44.6758C54.5124 44.4755 54.2517 44.3754 53.9424 44.3754C53.4859 44.3754 53.1324 44.5978 52.882 45.0425C52.6346 45.4844 52.5109 46.1074 52.5109 46.9115C52.5109 47.4446 52.5669 47.9012 52.6788 48.2812C52.7907 48.6582 52.9527 48.9454 53.1648 49.1427C53.3798 49.3401 53.6391 49.4388 53.9424 49.4388ZM59.2975 50.2871C58.8939 50.2871 58.5316 50.2105 58.2106 50.0573C57.8924 49.9012 57.6376 49.6877 57.4462 49.4167C57.2547 49.1427 57.1531 48.832 57.1413 48.4844H58.1045C58.1281 48.7642 58.2533 48.9955 58.4801 49.1781C58.7069 49.3607 58.9793 49.452 59.2975 49.452C59.5508 49.452 59.7746 49.3931 59.9691 49.2753C60.1635 49.1575 60.3166 48.9969 60.4286 48.7937C60.5405 48.5875 60.5965 48.3519 60.5965 48.0868C60.5965 47.8217 60.539 47.5845 60.4241 47.3754C60.3093 47.1633 60.1502 46.9969 59.947 46.8761C59.7467 46.7554 59.5154 46.695 59.2533 46.695C59.053 46.695 58.8527 46.7303 58.6524 46.801C58.4521 46.8688 58.2901 46.9571 58.1664 47.0661L57.2518 46.9336L57.6229 43.6154H61.2415V44.4681H58.4536L58.2459 46.3106H58.2813C58.4079 46.1839 58.5773 46.0808 58.7894 46.0013C59.0044 45.9188 59.2356 45.8776 59.483 45.8776C59.8836 45.8776 60.24 45.9733 60.5523 46.1648C60.8675 46.3533 61.1149 46.6125 61.2946 46.9424C61.4742 47.2694 61.5641 47.6449 61.5641 48.0691C61.5641 48.4962 61.4669 48.8776 61.2725 49.2134C61.0781 49.5463 60.81 49.8084 60.4683 49.9999C60.1296 50.1914 59.7393 50.2871 59.2975 50.2871Z" fill="#131313"/>
<path d="M61.8931 176.883C61.3865 176.883 60.952 176.751 60.5897 176.486C60.2304 176.221 59.955 175.838 59.7635 175.337C59.575 174.833 59.4807 174.223 59.4807 173.508C59.4807 172.795 59.5764 172.187 59.7679 171.683C59.9594 171.176 60.2348 170.79 60.5941 170.525C60.9564 170.257 61.3894 170.123 61.8931 170.123C62.3998 170.123 62.8328 170.257 63.1921 170.525C63.5544 170.79 63.8298 171.176 64.0183 171.683C64.2098 172.187 64.3055 172.795 64.3055 173.508C64.3055 174.223 64.2113 174.833 64.0228 175.337C63.8343 175.838 63.5603 176.221 63.201 176.486C62.8416 176.751 62.4057 176.883 61.8931 176.883ZM61.8931 176.035C62.2024 176.035 62.4631 175.936 62.6752 175.739C62.8873 175.542 63.0493 175.254 63.1612 174.877C63.2731 174.497 63.3291 174.041 63.3291 173.508C63.3291 172.972 63.2731 172.515 63.1612 172.138C63.0493 171.758 62.8873 171.469 62.6752 171.272C62.4631 171.072 62.2024 170.972 61.8931 170.972C61.4366 170.972 61.0831 171.194 60.8327 171.639C60.5853 172.081 60.4616 172.704 60.4616 173.508C60.4616 174.041 60.5176 174.497 60.6295 174.877C60.7414 175.254 60.9034 175.542 61.1155 175.739C61.3305 175.936 61.5897 176.035 61.8931 176.035ZM67.4514 170.212V176.795H66.4705V171.21H66.4263L64.8623 172.24V171.285L66.497 170.212H67.4514Z" fill="#131313"/>
</svg>
