<svg width="262" height="214" viewBox="0 0 262 214" fill="none" xmlns="http://www.w3.org/2000/svg">
<mask id="path-1-outside-1_385_3834" maskUnits="userSpaceOnUse" x="-1.77539" y="30.0415" width="257" height="147" fill="black">
<rect fill="white" x="-1.77539" y="30.0415" width="257" height="147"/>
<path d="M99.2411 31.9097L151.277 174.042H115.694L105.585 145.199H45.7187L35.3115 174.042H0.819303L53.6479 31.9097H99.2411ZM55.432 117.843H96.0694L75.949 60.1576L55.432 117.843ZM218.279 105.85C218.279 102.612 217.123 100.068 214.81 98.218C212.563 96.3679 209.524 95.4428 205.691 95.4428C201.595 95.4428 198.159 96.434 195.383 98.4163C192.608 100.399 190.163 103.405 188.049 107.436L157.026 100.597C160.329 91.5442 166.475 84.0445 175.461 78.0976C184.514 72.0845 195.416 69.078 208.169 69.078C221.847 69.078 232.684 72.3158 240.679 78.7914C248.741 85.2669 252.771 94.6829 252.771 107.039V174.042H218.279V156.994C210.416 169.284 198.786 175.429 183.39 175.429C174.932 175.429 167.73 173.149 161.783 168.59C155.902 164.031 152.962 157.654 152.962 149.461C152.962 140.144 156.134 133.173 162.477 128.547C168.82 123.856 179.525 120.75 194.59 119.231C203.841 118.305 210.085 116.951 213.323 115.167C216.627 113.383 218.279 110.277 218.279 105.85ZM189.436 144.604C189.436 146.983 190.328 148.833 192.112 150.155C193.897 151.476 196.275 152.137 199.249 152.137C201.429 152.137 203.511 151.774 205.493 151.047C207.475 150.32 209.392 149.163 211.242 147.578C213.158 145.992 214.744 143.712 215.999 140.739C217.255 137.699 218.015 134.131 218.279 130.034C215.173 132.347 210.383 133.9 203.907 134.693C198.687 135.287 194.954 136.345 192.707 137.864C190.527 139.384 189.436 141.631 189.436 144.604Z"/>
</mask>
<path d="M99.2411 31.9097L100.65 31.394L100.289 30.4097H99.2411V31.9097ZM151.277 174.042V175.542H153.423L152.685 173.526L151.277 174.042ZM115.694 174.042L114.279 174.538L114.631 175.542H115.694V174.042ZM105.585 145.199L107 144.703L106.648 143.699H105.585V145.199ZM45.7187 145.199V143.699H44.6653L44.3077 144.69L45.7187 145.199ZM35.3115 174.042V175.542H36.365L36.7225 174.551L35.3115 174.042ZM0.819303 174.042L-0.586716 173.519L-1.33849 175.542H0.819303V174.042ZM53.6479 31.9097V30.4097H52.6052L52.2419 31.3871L53.6479 31.9097ZM55.432 117.843L54.0188 117.34L53.3065 119.343H55.432V117.843ZM96.0694 117.843V119.343H98.1813L97.4858 117.349L96.0694 117.843ZM75.949 60.1576L77.3653 59.6636L75.9628 55.6426L74.5357 59.655L75.949 60.1576ZM97.8326 32.4254L149.868 174.557L152.685 173.526L100.65 31.394L97.8326 32.4254ZM151.277 172.542H115.694V175.542H151.277V172.542ZM117.11 173.545L107 144.703L104.169 145.695L114.279 174.538L117.11 173.545ZM105.585 143.699H45.7187V146.699H105.585V143.699ZM44.3077 144.69L33.9006 173.532L36.7225 174.551L47.1297 145.708L44.3077 144.69ZM35.3115 172.542H0.819303V175.542H35.3115V172.542ZM2.22532 174.564L55.054 32.4323L52.2419 31.3871L-0.586716 173.519L2.22532 174.564ZM53.6479 33.4097H99.2411V30.4097H53.6479V33.4097ZM55.432 119.343H96.0694V116.343H55.432V119.343ZM97.4858 117.349L77.3653 59.6636L74.5326 60.6516L94.6531 118.337L97.4858 117.349ZM74.5357 59.655L54.0188 117.34L56.8453 118.346L77.3622 60.6603L74.5357 59.655ZM214.81 98.218L213.856 99.3759L213.865 99.3827L213.873 99.3893L214.81 98.218ZM188.049 107.436L187.726 108.901L188.845 109.147L189.377 108.133L188.049 107.436ZM157.026 100.597L155.616 100.083L155.029 101.693L156.703 102.062L157.026 100.597ZM175.461 78.0976L176.289 79.3485L176.291 79.347L175.461 78.0976ZM240.679 78.7914L239.735 79.957L239.74 79.9608L240.679 78.7914ZM252.771 174.042V175.542H254.271V174.042H252.771ZM218.279 174.042H216.779V175.542H218.279V174.042ZM218.279 156.994H219.779V151.866L217.015 156.185L218.279 156.994ZM161.783 168.59L160.864 169.776L160.87 169.781L161.783 168.59ZM162.477 128.547L163.361 129.759L163.369 129.753L162.477 128.547ZM194.59 119.231L194.441 117.738L194.44 117.738L194.59 119.231ZM213.323 115.167L212.61 113.847L212.599 113.853L213.323 115.167ZM211.242 147.578L210.285 146.422L210.275 146.43L210.266 146.439L211.242 147.578ZM215.999 140.739L217.381 141.322L217.386 141.311L215.999 140.739ZM218.279 130.034L219.776 130.131L219.985 126.894L217.383 128.831L218.279 130.034ZM203.907 134.693L204.077 136.183L204.09 136.181L203.907 134.693ZM192.707 137.864L191.867 136.622L191.858 136.628L191.85 136.634L192.707 137.864ZM219.779 105.85C219.779 102.205 218.452 99.2105 215.747 97.0467L213.873 99.3893C215.794 100.926 216.779 103.019 216.779 105.85H219.779ZM215.764 97.0601C213.173 94.9271 209.76 93.9428 205.691 93.9428V96.9428C209.287 96.9428 211.953 97.8086 213.856 99.3759L215.764 97.0601ZM205.691 93.9428C201.346 93.9428 197.589 94.9975 194.511 97.1957L196.255 99.6369C198.728 97.8704 201.843 96.9428 205.691 96.9428V93.9428ZM194.511 97.1957C191.492 99.3523 188.909 102.567 186.72 106.739L189.377 108.133C191.417 104.243 193.724 101.445 196.255 99.6369L194.511 97.1957ZM188.372 105.971L157.348 99.132L156.703 102.062L187.726 108.901L188.372 105.971ZM158.435 101.111C161.616 92.3952 167.537 85.1403 176.289 79.3485L174.633 76.8467C165.412 82.9487 159.043 90.6932 155.616 100.083L158.435 101.111ZM176.291 79.347C185.057 73.5241 195.659 70.578 208.169 70.578V67.578C195.173 67.578 183.97 70.645 174.631 76.8481L176.291 79.347ZM208.169 70.578C221.617 70.578 232.083 73.7599 239.735 79.957L241.623 77.6257C233.284 70.8718 222.077 67.578 208.169 67.578V70.578ZM239.74 79.9608C247.376 86.0952 251.271 95.039 251.271 107.039H254.271C254.271 94.3268 250.105 84.4387 241.619 77.6219L239.74 79.9608ZM251.271 107.039V174.042H254.271V107.039H251.271ZM252.771 172.542H218.279V175.542H252.771V172.542ZM219.779 174.042V156.994H216.779V174.042H219.779ZM217.015 156.185C209.446 168.017 198.309 173.929 183.39 173.929V176.929C199.264 176.929 211.386 170.551 219.543 157.802L217.015 156.185ZM183.39 173.929C175.218 173.929 168.347 171.733 162.696 167.4L160.87 169.781C167.113 174.566 174.647 176.929 183.39 176.929V173.929ZM162.702 167.405C157.228 163.161 154.462 157.244 154.462 149.461H151.462C151.462 158.064 154.576 164.901 160.864 169.776L162.702 167.405ZM154.462 149.461C154.462 140.522 157.48 134.048 163.361 129.759L161.593 127.335C154.787 132.298 151.462 139.766 151.462 149.461H154.462ZM163.369 129.753C169.374 125.312 179.738 122.236 194.741 120.723L194.44 117.738C179.312 119.264 168.266 122.4 161.585 127.341L163.369 129.753ZM194.74 120.723C203.975 119.8 210.508 118.43 214.047 116.481L212.599 113.853C209.662 115.471 203.707 116.811 194.441 117.738L194.74 120.723ZM214.036 116.487C217.921 114.389 219.779 110.71 219.779 105.85H216.779C216.779 109.845 215.333 112.377 212.611 113.847L214.036 116.487ZM187.936 144.604C187.936 147.419 189.023 149.733 191.22 151.36L193.005 148.949C191.634 147.933 190.936 146.547 190.936 144.604H187.936ZM191.22 151.36C193.337 152.928 196.062 153.637 199.249 153.637V150.637C196.489 150.637 194.456 150.024 193.005 148.949L191.22 151.36ZM199.249 153.637C201.6 153.637 203.856 153.244 206.009 152.455L204.977 149.638C203.165 150.303 201.259 150.637 199.249 150.637V153.637ZM206.009 152.455C208.184 151.658 210.253 150.401 212.218 148.717L210.266 146.439C208.531 147.926 206.767 148.982 204.977 149.638L206.009 152.455ZM212.198 148.733C214.347 146.955 216.059 144.454 217.381 141.322L214.617 140.155C213.429 142.971 211.969 145.029 210.285 146.422L212.198 148.733ZM217.386 141.311C218.717 138.088 219.504 134.352 219.776 130.131L216.782 129.938C216.526 133.91 215.793 137.31 214.613 140.166L217.386 141.311ZM217.383 128.831C214.584 130.915 210.098 132.423 203.725 133.204L204.09 136.181C210.668 135.376 215.763 133.778 219.175 131.237L217.383 128.831ZM203.737 133.202C198.462 133.803 194.426 134.891 191.867 136.622L193.548 139.107C195.482 137.798 198.912 136.771 204.077 136.183L203.737 133.202ZM191.85 136.634C189.214 138.471 187.936 141.208 187.936 144.604H190.936C190.936 142.053 191.839 140.298 193.565 139.095L191.85 136.634Z" fill="#202020" mask="url(#path-1-outside-1_385_3834)"/>
</svg>
