<svg width="64" height="63" viewBox="0 0 64 63" fill="none" xmlns="http://www.w3.org/2000/svg">
<path d="M44.1269 58.1191L30.8833 39.1174H25.3652V58.1191H10.5381V59.1478H26.3938V40.1461H30.3464L43.59 59.1478H63.7769L43.9011 31.1523L64.0004 4.63666L63.5857 3.44431L42.6394 31.1521L61.785 58.1191H44.1269Z" fill="black"/>
<path d="M29.0514 24.2694H26.3938V3.44431H10.5381V4.47296H25.3652V25.298H29.5877L44.1269 4.47296H62.8549L63.5857 3.44431H43.5905L29.0514 24.2694Z" fill="black"/>
<path d="M2.09774 61.6152C1.70851 61.6152 1.37473 61.5133 1.09639 61.3097C0.820312 61.106 0.608728 60.8118 0.461638 60.4271C0.31681 60.0402 0.244396 59.5717 0.244396 59.0219C0.244396 58.4742 0.317942 58.0069 0.465032 57.62C0.612122 57.2307 0.823706 56.9343 1.09978 56.7306C1.37812 56.5247 1.71077 56.4218 2.09774 56.4218C2.48696 56.4218 2.81961 56.5247 3.09569 56.7306C3.37403 56.9343 3.58561 57.2307 3.73044 57.62C3.87753 58.0069 3.95107 58.4742 3.95107 59.0219C3.95107 59.5717 3.87866 60.0402 3.73383 60.4271C3.58901 60.8118 3.37855 61.106 3.10248 61.3097C2.8264 61.5133 2.49148 61.6152 2.09774 61.6152ZM2.09774 60.9635C2.33534 60.9635 2.53561 60.8876 2.69854 60.736C2.86147 60.5844 2.98594 60.3638 3.07193 60.0741C3.15792 59.7822 3.20091 59.4314 3.20091 59.0219C3.20091 58.61 3.15792 58.2593 3.07193 57.9696C2.98594 57.6777 2.86147 57.4559 2.69854 57.3043C2.53561 57.1504 2.33534 57.0735 2.09774 57.0735C1.74698 57.0735 1.47543 57.2443 1.28308 57.586C1.09299 57.9255 0.997952 58.4041 0.997952 59.0219C0.997952 59.4314 1.04095 59.7822 1.12694 60.0741C1.21293 60.3638 1.33739 60.5844 1.50032 60.736C1.66552 60.8876 1.86465 60.9635 2.09774 60.9635ZM4.5417 61.5473V60.9974L6.25247 59.2187C6.43351 59.0286 6.58286 58.8612 6.70053 58.7164C6.82047 58.5693 6.90985 58.4301 6.96869 58.2989C7.02979 58.1676 7.06034 58.0284 7.06034 57.8813C7.06034 57.7116 7.02074 57.5657 6.94154 57.4435C6.86233 57.3213 6.75484 57.2274 6.61907 57.1617C6.48329 57.0961 6.32941 57.0633 6.15743 57.0633C5.9764 57.0633 5.81912 57.1006 5.68561 57.1753C5.5521 57.2477 5.448 57.3518 5.37333 57.4876C5.30091 57.6211 5.2647 57.7784 5.2647 57.9594H4.5383C4.5383 57.6517 4.60846 57.3824 4.74876 57.1515C4.89132 56.9207 5.08593 56.742 5.33259 56.6152C5.58151 56.4862 5.86212 56.4218 6.1744 56.4218C6.49348 56.4218 6.77408 56.4851 7.01621 56.6118C7.25835 56.7386 7.4473 56.9105 7.58308 57.1278C7.71885 57.3428 7.78674 57.586 7.78674 57.8576C7.78674 58.0454 7.75166 58.2287 7.68151 58.4075C7.61363 58.5862 7.49256 58.7865 7.31831 59.0083C7.14633 59.2278 6.90646 59.4925 6.5987 59.8026L5.59396 60.8548V60.8956H7.8682V61.5473H4.5417Z" fill="black"/>
<path d="M3.12215 6.06781C2.73293 6.06781 2.39914 5.96598 2.1208 5.76232C1.84473 5.55865 1.63314 5.26447 1.48605 4.87977C1.34122 4.49281 1.26881 4.02439 1.26881 3.47449C1.26881 2.92687 1.34236 2.45957 1.48945 2.07261C1.63654 1.68339 1.84812 1.38694 2.1242 1.18328C2.40254 0.977352 2.73519 0.874389 3.12215 0.874389C3.51137 0.874389 3.84402 0.977352 4.1201 1.18328C4.39844 1.38694 4.61003 1.68339 4.75485 2.07261C4.90194 2.45957 4.97549 2.92687 4.97549 3.47449C4.97549 4.02439 4.90307 4.49281 4.75825 4.87977C4.61342 5.26447 4.40297 5.55865 4.12689 5.76232C3.85081 5.96598 3.5159 6.06781 3.12215 6.06781ZM3.12215 5.41609C3.35976 5.41609 3.56003 5.34028 3.72296 5.18866C3.88589 5.03705 4.01035 4.81641 4.09634 4.52676C4.18233 4.23484 4.22533 3.88408 4.22533 3.47449C4.22533 3.06264 4.18233 2.71189 4.09634 2.42223C4.01035 2.13031 3.88589 1.90855 3.72296 1.75693C3.56003 1.60305 3.35976 1.52611 3.12215 1.52611C2.7714 1.52611 2.49984 1.69696 2.30749 2.03867C2.11741 2.37811 2.02237 2.85672 2.02237 3.47449C2.02237 3.88408 2.06536 4.23484 2.15135 4.52676C2.23734 4.81641 2.36181 5.03705 2.52474 5.18866C2.68993 5.34028 2.88907 5.41609 3.12215 5.41609ZM7.3923 0.942277V5.99992H6.63874V1.70941H6.6048L5.40318 2.5003V1.76711L6.65911 0.942277H7.3923Z" fill="black"/>
<circle cx="11.8296" cy="4.1142" r="1.54298" fill="black"/>
<circle cx="11.8296" cy="58.633" r="1.54298" fill="black"/>
</svg>
