<svg width="1027" height="179" viewBox="0 0 1027 179" fill="none" xmlns="http://www.w3.org/2000/svg">
<mask id="path-1-outside-1_385_3806" maskUnits="userSpaceOnUse" x="0" y="24" width="1021" height="157" fill="black">
<rect fill="white" y="24" width="1021" height="157"/>
<path d="M2.55383 75.2484V55.7754H83.239V75.2484H54.5882V145H31.045V75.2484H2.55383ZM116.678 112.359L148.761 55.7754H173.182V145H149.639V88.3368L117.636 145H93.1351V55.7754H116.678V112.359ZM187.787 145V55.7754H265.678V145H242.135V75.2484H211.01V145H187.787ZM320.346 146.756C311.355 146.756 303.56 144.84 296.963 141.01C290.419 137.126 285.364 131.752 281.8 124.889C278.288 117.972 276.532 109.938 276.532 100.787C276.532 91.5291 278.288 83.4686 281.8 76.6051C285.364 69.6885 290.419 64.3148 296.963 60.4841C303.56 56.6001 311.355 54.6581 320.346 54.6581C329.391 54.6581 337.186 56.6001 343.73 60.4841C350.327 64.3148 355.382 69.6885 358.893 76.6051C362.458 83.4686 364.24 91.5291 364.24 100.787C364.24 109.938 362.458 117.972 358.893 124.889C355.382 131.752 350.327 137.126 343.73 141.01C337.186 144.84 329.391 146.756 320.346 146.756ZM320.506 127.442C324.603 127.442 328.035 126.298 330.801 124.011C333.568 121.67 335.643 118.477 337.026 114.434C338.463 110.39 339.181 105.788 339.181 100.627C339.181 95.4131 338.463 90.8108 337.026 86.8205C335.643 82.8301 333.568 79.691 330.801 77.4032C328.035 75.1154 324.603 73.9715 320.506 73.9715C316.356 73.9715 312.871 75.1154 310.051 77.4032C307.285 79.691 305.183 82.8301 303.747 86.8205C302.363 90.8108 301.672 95.4131 301.672 100.627C301.672 105.788 302.363 110.39 303.747 114.434C305.183 118.477 307.285 121.67 310.051 124.011C312.871 126.298 316.356 127.442 320.506 127.442ZM436.067 55.7754V75.2484H399.036V145H375.174V55.7754H436.067ZM446.043 178.359V55.7754H470.304V70.859H471.422C472.539 68.4116 474.135 65.9376 476.21 63.4369C478.285 60.9363 480.999 58.8613 484.35 57.212C487.702 55.5094 491.852 54.6581 496.8 54.6581C503.345 54.6581 509.33 56.3607 514.757 59.7658C520.237 63.1177 524.627 68.1988 527.925 75.009C531.224 81.8192 532.873 90.332 532.873 100.547C532.873 110.443 531.277 118.823 528.085 125.687C524.893 132.497 520.556 137.658 515.076 141.169C509.649 144.681 503.531 146.437 496.721 146.437C491.932 146.437 487.862 145.638 484.51 144.042C481.158 142.446 478.418 140.451 476.29 138.057C474.215 135.609 472.592 133.162 471.422 130.714H470.703V178.359H446.043ZM488.899 126.804C492.943 126.804 496.348 125.687 499.115 123.452C501.881 121.217 503.983 118.132 505.42 114.194C506.856 110.204 507.574 105.628 507.574 100.468C507.574 95.3067 506.856 90.7842 505.42 86.9003C504.036 82.9631 501.961 79.8772 499.195 77.6426C496.428 75.408 492.996 74.2907 488.899 74.2907C484.909 74.2907 481.504 75.3814 478.684 77.5628C475.918 79.691 473.789 82.7237 472.3 86.6609C470.863 90.5448 470.145 95.147 470.145 100.468C470.145 105.735 470.89 110.337 472.379 114.274C473.869 118.211 475.997 121.297 478.764 123.532C481.584 125.713 484.962 126.804 488.899 126.804ZM569.106 146.676C563.466 146.676 558.385 145.692 553.863 143.723C549.393 141.701 545.882 138.722 543.328 134.785C540.774 130.848 539.497 125.953 539.497 120.1C539.497 115.099 540.402 110.949 542.211 107.65C544.02 104.298 546.494 101.585 549.633 99.5098C552.772 97.4349 556.337 95.8653 560.327 94.8012C564.317 93.7371 568.547 92.9922 573.016 92.5666C578.177 92.0878 582.327 91.6089 585.466 91.1301C588.605 90.6512 590.893 89.933 592.33 88.9753C593.82 87.9644 594.564 86.5279 594.564 84.6657V84.2666C594.564 80.5955 593.394 77.7491 591.053 75.7273C588.765 73.7055 585.52 72.6946 581.316 72.6946C576.9 72.6946 573.362 73.6789 570.702 75.6475C568.095 77.5628 566.366 80.0103 565.515 82.9897L542.61 81.1542C543.78 75.7273 546.068 71.0452 549.473 67.1081C552.878 63.1177 557.268 60.0584 562.641 57.9302C568.068 55.7488 574.347 54.6581 581.476 54.6581C586.424 54.6581 591.159 55.2434 595.682 56.4139C600.204 57.5844 604.221 59.3934 607.733 61.8408C611.297 64.235 614.117 67.3475 616.192 71.1783C618.267 75.009 619.305 79.558 619.305 84.8253V145H595.761V132.55H595.123C593.686 135.37 591.771 137.844 589.377 139.972C586.983 142.047 584.11 143.696 580.758 144.92C577.406 146.091 573.522 146.676 569.106 146.676ZM576.209 129.597C579.827 129.597 583.019 128.879 585.786 127.442C588.605 125.953 590.787 123.984 592.33 121.537C593.926 119.036 594.724 116.243 594.724 113.157V103.66C593.979 104.139 592.915 104.591 591.532 105.017C590.202 105.442 588.712 105.815 587.062 106.134C585.413 106.453 583.764 106.746 582.114 107.012C580.465 107.225 578.975 107.437 577.645 107.65C574.719 108.076 572.165 108.767 569.984 109.725C567.802 110.63 566.1 111.88 564.876 113.476C563.706 115.019 563.12 116.961 563.12 119.302C563.12 122.654 564.344 125.208 566.791 126.964C569.239 128.719 572.378 129.597 576.209 129.597ZM676.287 175.327V26.0871H700.947V175.327H676.287ZM676.287 146.756C669.477 146.756 663.225 145.638 657.532 143.404C651.893 141.169 647.024 138.03 642.928 133.987C638.831 129.89 635.665 125.022 633.43 119.382C631.196 113.742 630.079 107.544 630.079 100.787C630.079 93.9765 631.196 87.7516 633.43 82.1119C635.665 76.4189 638.831 71.5241 642.928 67.4273C647.024 63.3305 651.893 60.1914 657.532 58.01C663.225 55.7754 669.477 54.6581 676.287 54.6581H680.916V146.756H676.287ZM676.287 127.442H679.08V73.9715H676.287C671.924 73.9715 668.173 75.1686 665.034 77.5628C661.948 79.9571 659.581 83.1759 657.931 87.2195C656.335 91.2631 655.537 95.7855 655.537 100.787C655.537 104.511 655.989 107.996 656.894 111.242C657.798 114.434 659.155 117.254 660.964 119.701C662.773 122.095 664.954 123.984 667.508 125.367C670.062 126.751 672.988 127.442 676.287 127.442ZM700.947 146.756H696.398V54.6581H700.947C707.811 54.6581 714.062 55.7754 719.702 58.01C725.395 60.1914 730.29 63.3305 734.387 67.4273C738.483 71.5241 741.649 76.4189 743.884 82.1119C746.172 87.7516 747.315 93.9765 747.315 100.787C747.315 107.544 746.172 113.742 743.884 119.382C741.649 125.022 738.483 129.89 734.387 133.987C730.29 138.03 725.395 141.169 719.702 143.404C714.062 145.638 707.811 146.756 700.947 146.756ZM700.947 127.442C704.299 127.442 707.252 126.751 709.806 125.367C712.413 123.984 714.594 122.095 716.35 119.701C718.159 117.254 719.543 114.434 720.5 111.242C721.458 107.996 721.937 104.511 721.937 100.787C721.937 95.7855 721.112 91.2631 719.463 87.2195C717.813 83.1759 715.419 79.9571 712.28 77.5628C709.194 75.1686 705.417 73.9715 700.947 73.9715H698.314V127.442H700.947ZM781.792 112.359L813.875 55.7754H838.296V145H814.753V88.3368L782.75 145H758.249V55.7754H781.792V112.359ZM852.901 145V55.7754H877.561V90.4118H884.584L908.766 55.7754H937.816L906.292 100.148L938.135 145H908.766L886.739 113.396H877.561V145H852.901ZM968.621 146.676C962.981 146.676 957.9 145.692 953.378 143.723C948.909 141.701 945.397 138.722 942.843 134.785C940.29 130.848 939.013 125.953 939.013 120.1C939.013 115.099 939.917 110.949 941.726 107.65C943.535 104.298 946.009 101.585 949.148 99.5098C952.287 97.4349 955.852 95.8653 959.842 94.8012C963.833 93.7371 968.063 92.9922 972.532 92.5666C977.693 92.0878 981.843 91.6089 984.982 91.1301C988.121 90.6512 990.409 89.933 991.845 88.9753C993.335 87.9644 994.08 86.5279 994.08 84.6657V84.2666C994.08 80.5955 992.909 77.7491 990.568 75.7273C988.28 73.7055 985.035 72.6946 980.832 72.6946C976.416 72.6946 972.878 73.6789 970.217 75.6475C967.61 77.5628 965.881 80.0103 965.03 82.9897L942.125 81.1542C943.296 75.7273 945.583 71.0452 948.989 67.1081C952.394 63.1177 956.783 60.0584 962.157 57.9302C967.584 55.7488 973.862 54.6581 980.991 54.6581C985.939 54.6581 990.675 55.2434 995.197 56.4139C999.719 57.5844 1003.74 59.3934 1007.25 61.8408C1010.81 64.235 1013.63 67.3475 1015.71 71.1783C1017.78 75.009 1018.82 79.558 1018.82 84.8253V145H995.277V132.55H994.638C993.202 135.37 991.286 137.844 988.892 139.972C986.498 142.047 983.625 143.696 980.273 144.92C976.921 146.091 973.037 146.676 968.621 146.676ZM975.724 129.597C979.342 129.597 982.534 128.879 985.301 127.442C988.121 125.953 990.302 123.984 991.845 121.537C993.441 119.036 994.239 116.243 994.239 113.157V103.66C993.494 104.139 992.43 104.591 991.047 105.017C989.717 105.442 988.227 105.815 986.578 106.134C984.928 106.453 983.279 106.746 981.63 107.012C979.98 107.225 978.491 107.437 977.161 107.65C974.234 108.076 971.68 108.767 969.499 109.725C967.318 110.63 965.615 111.88 964.391 113.476C963.221 115.019 962.636 116.961 962.636 119.302C962.636 122.654 963.859 125.208 966.307 126.964C968.754 128.719 971.893 129.597 975.724 129.597Z"/>
</mask>
<path d="M2.55383 75.2484H0.553833V77.2484H2.55383V75.2484ZM2.55383 55.7754V53.7754H0.553833V55.7754H2.55383ZM83.239 55.7754H85.239V53.7754H83.239V55.7754ZM83.239 75.2484V77.2484H85.239V75.2484H83.239ZM54.5882 75.2484V73.2484H52.5882V75.2484H54.5882ZM54.5882 145V147H56.5882V145H54.5882ZM31.045 145H29.045V147H31.045V145ZM31.045 75.2484H33.045V73.2484H31.045V75.2484ZM4.55383 75.2484V55.7754H0.553833V75.2484H4.55383ZM2.55383 57.7754H83.239V53.7754H2.55383V57.7754ZM81.239 55.7754V75.2484H85.239V55.7754H81.239ZM83.239 73.2484H54.5882V77.2484H83.239V73.2484ZM52.5882 75.2484V145H56.5882V75.2484H52.5882ZM54.5882 143H31.045V147H54.5882V143ZM33.045 145V75.2484H29.045V145H33.045ZM31.045 73.2484H2.55383V77.2484H31.045V73.2484ZM116.678 112.359H114.678V119.941L118.418 113.345L116.678 112.359ZM148.761 55.7754V53.7754H147.596L147.021 54.789L148.761 55.7754ZM173.182 55.7754H175.182V53.7754H173.182V55.7754ZM173.182 145V147H175.182V145H173.182ZM149.639 145H147.639V147H149.639V145ZM149.639 88.3368H151.639V80.7288L147.897 87.3533L149.639 88.3368ZM117.636 145V147H118.803L119.377 145.984L117.636 145ZM93.1351 145H91.1351V147H93.1351V145ZM93.1351 55.7754V53.7754H91.1351V55.7754H93.1351ZM116.678 55.7754H118.678V53.7754H116.678V55.7754ZM118.418 113.345L150.501 56.7619L147.021 54.789L114.938 111.372L118.418 113.345ZM148.761 57.7754H173.182V53.7754H148.761V57.7754ZM171.182 55.7754V145H175.182V55.7754H171.182ZM173.182 143H149.639V147H173.182V143ZM151.639 145V88.3368H147.639V145H151.639ZM147.897 87.3533L115.895 144.016L119.377 145.984L151.38 89.3204L147.897 87.3533ZM117.636 143H93.1351V147H117.636V143ZM95.1351 145V55.7754H91.1351V145H95.1351ZM93.1351 57.7754H116.678V53.7754H93.1351V57.7754ZM114.678 55.7754V112.359H118.678V55.7754H114.678ZM187.787 145H185.787V147H187.787V145ZM187.787 55.7754V53.7754H185.787V55.7754H187.787ZM265.678 55.7754H267.678V53.7754H265.678V55.7754ZM265.678 145V147H267.678V145H265.678ZM242.135 145H240.135V147H242.135V145ZM242.135 75.2484H244.135V73.2484H242.135V75.2484ZM211.01 75.2484V73.2484H209.01V75.2484H211.01ZM211.01 145V147H213.01V145H211.01ZM189.787 145V55.7754H185.787V145H189.787ZM187.787 57.7754H265.678V53.7754H187.787V57.7754ZM263.678 55.7754V145H267.678V55.7754H263.678ZM265.678 143H242.135V147H265.678V143ZM244.135 145V75.2484H240.135V145H244.135ZM242.135 73.2484H211.01V77.2484H242.135V73.2484ZM209.01 75.2484V145H213.01V75.2484H209.01ZM211.01 143H187.787V147H211.01V143ZM296.963 141.01L295.942 142.73L295.95 142.734L295.959 142.739L296.963 141.01ZM281.8 124.889L280.016 125.794L280.02 125.802L280.025 125.81L281.8 124.889ZM281.8 76.6051L280.022 75.6889L280.019 75.6942L281.8 76.6051ZM296.963 60.4841L297.973 62.2101L297.978 62.2076L296.963 60.4841ZM343.73 60.4841L342.709 62.204L342.717 62.2089L342.726 62.2137L343.73 60.4841ZM358.893 76.6051L357.11 77.5105L357.114 77.5188L357.119 77.527L358.893 76.6051ZM358.893 124.889L357.116 123.972L357.113 123.978L358.893 124.889ZM343.73 141.01L344.74 142.736L344.745 142.733L343.73 141.01ZM330.801 124.011L332.076 125.552L332.084 125.545L332.093 125.537L330.801 124.011ZM337.026 114.434L335.142 113.764L335.138 113.775L335.134 113.786L337.026 114.434ZM337.026 86.8205L335.137 87.4756L335.14 87.4868L335.144 87.4979L337.026 86.8205ZM310.051 77.4032L308.791 75.8501L308.784 75.856L308.777 75.8619L310.051 77.4032ZM303.747 86.8205L301.865 86.143L301.861 86.1542L301.857 86.1654L303.747 86.8205ZM303.747 114.434L301.854 115.081L301.858 115.092L301.862 115.103L303.747 114.434ZM310.051 124.011L308.759 125.537L308.775 125.551L308.791 125.564L310.051 124.011ZM320.346 144.756C311.644 144.756 304.209 142.904 297.967 139.28L295.959 142.739C302.912 146.776 311.066 148.756 320.346 148.756V144.756ZM297.984 139.29C291.766 135.599 286.97 130.505 283.574 123.967L280.025 125.81C283.758 132.999 289.072 138.652 295.942 142.73L297.984 139.29ZM283.583 123.983C280.237 117.393 278.532 109.68 278.532 100.787H274.532C274.532 110.196 276.339 118.551 280.016 125.794L283.583 123.983ZM278.532 100.787C278.532 91.7828 280.239 84.0463 283.58 77.5161L280.019 75.6942C276.337 82.8908 274.532 91.2754 274.532 100.787H278.532ZM283.577 77.5214C286.973 70.9327 291.765 65.844 297.973 62.2101L295.953 58.758C289.072 62.7857 283.756 68.4443 280.022 75.6889L283.577 77.5214ZM297.978 62.2076C304.218 58.5341 311.649 56.6581 320.346 56.6581V52.6581C311.061 52.6581 302.903 54.6662 295.948 58.7606L297.978 62.2076ZM320.346 56.6581C329.1 56.6581 336.528 58.5353 342.709 62.204L344.751 58.7642C337.844 54.665 329.682 52.6581 320.346 52.6581V56.6581ZM342.726 62.2137C348.983 65.8472 353.77 70.9319 357.11 77.5105L360.677 75.6998C356.994 68.4451 351.671 62.7825 344.734 58.7545L342.726 62.2137ZM357.119 77.527C360.509 84.0547 362.24 91.7872 362.24 100.787H366.24C366.24 91.271 364.407 82.8824 360.668 75.6833L357.119 77.527ZM362.24 100.787C362.24 109.675 360.511 117.385 357.116 123.972L360.671 125.805C364.406 118.559 366.24 110.201 366.24 100.787H362.24ZM357.113 123.978C353.773 130.505 348.983 135.596 342.715 139.286L344.745 142.733C351.672 138.655 356.991 132.998 360.674 125.8L357.113 123.978ZM342.72 139.284C336.536 142.903 329.105 144.756 320.346 144.756V148.756C329.678 148.756 337.835 146.778 344.74 142.736L342.72 139.284ZM320.506 129.442C324.999 129.442 328.9 128.178 332.076 125.552L329.527 122.469C327.169 124.419 324.207 125.442 320.506 125.442V129.442ZM332.093 125.537C335.182 122.924 337.439 119.405 338.919 115.081L335.134 113.786C333.846 117.55 331.954 120.415 329.509 122.484L332.093 125.537ZM338.911 115.103C340.437 110.806 341.181 105.971 341.181 100.627H337.181C337.181 105.605 336.488 109.974 335.142 113.764L338.911 115.103ZM341.181 100.627C341.181 95.2332 340.438 90.3941 338.908 86.143L335.144 87.4979C336.487 91.2276 337.181 95.5929 337.181 100.627H341.181ZM338.916 86.1654C337.434 81.8906 335.171 78.4216 332.076 75.8619L329.527 78.9445C331.965 80.9604 333.852 83.7696 335.137 87.4756L338.916 86.1654ZM332.076 75.8619C328.9 73.2362 324.999 71.9715 320.506 71.9715V75.9715C324.207 75.9715 327.169 76.9946 329.527 78.9445L332.076 75.8619ZM320.506 71.9715C315.966 71.9715 312.018 73.2325 308.791 75.8501L311.311 78.9563C313.725 76.9984 316.746 75.9715 320.506 75.9715V71.9715ZM308.777 75.8619C305.688 78.4165 303.401 81.8772 301.865 86.143L305.628 87.4979C306.966 83.7831 308.882 80.9656 311.326 78.9445L308.777 75.8619ZM301.857 86.1654C300.386 90.4092 299.672 95.2404 299.672 100.627H303.672C303.672 95.5857 304.341 91.2125 305.636 87.4756L301.857 86.1654ZM299.672 100.627C299.672 105.964 300.387 110.791 301.854 115.081L305.639 113.786C304.34 109.989 303.672 105.612 303.672 100.627H299.672ZM301.862 115.103C303.395 119.418 305.677 122.929 308.759 125.537L311.343 122.484C308.892 120.41 306.971 117.536 305.631 113.764L301.862 115.103ZM308.791 125.564C312.018 128.181 315.966 129.442 320.506 129.442V125.442C316.746 125.442 313.725 124.416 311.311 122.458L308.791 125.564ZM436.067 55.7754H438.067V53.7754H436.067V55.7754ZM436.067 75.2484V77.2484H438.067V75.2484H436.067ZM399.036 75.2484V73.2484H397.036V75.2484H399.036ZM399.036 145V147H401.036V145H399.036ZM375.174 145H373.174V147H375.174V145ZM375.174 55.7754V53.7754H373.174V55.7754H375.174ZM434.067 55.7754V75.2484H438.067V55.7754H434.067ZM436.067 73.2484H399.036V77.2484H436.067V73.2484ZM397.036 75.2484V145H401.036V75.2484H397.036ZM399.036 143H375.174V147H399.036V143ZM377.174 145V55.7754H373.174V145H377.174ZM375.174 57.7754H436.067V53.7754H375.174V57.7754ZM446.043 178.359H444.043V180.359H446.043V178.359ZM446.043 55.7754V53.7754H444.043V55.7754H446.043ZM470.304 55.7754H472.304V53.7754H470.304V55.7754ZM470.304 70.859H468.304V72.859H470.304V70.859ZM471.422 70.859V72.859H472.707L473.241 71.6896L471.422 70.859ZM484.35 57.212L485.233 59.0065L485.245 59.0009L485.256 58.9951L484.35 57.212ZM514.757 59.7658L513.694 61.4599L513.704 61.466L513.713 61.472L514.757 59.7658ZM528.085 125.687L529.896 126.536L529.898 126.53L528.085 125.687ZM515.076 141.169L513.997 139.485L513.99 139.49L515.076 141.169ZM476.29 138.057L474.764 139.35L474.78 139.368L474.795 139.385L476.29 138.057ZM471.422 130.714L473.226 129.852L472.682 128.714H471.422V130.714ZM470.703 130.714V128.714H468.703V130.714H470.703ZM470.703 178.359V180.359H472.703V178.359H470.703ZM505.42 114.194L507.298 114.88L507.301 114.872L505.42 114.194ZM505.42 86.9003L503.533 87.5633L503.538 87.5787L503.544 87.5941L505.42 86.9003ZM478.684 77.5628L479.904 79.1481L479.908 79.1447L478.684 77.5628ZM472.3 86.6609L470.429 85.9531L470.426 85.9601L470.424 85.9671L472.3 86.6609ZM478.764 123.532L477.507 125.088L477.524 125.101L477.54 125.114L478.764 123.532ZM448.043 178.359V55.7754H444.043V178.359H448.043ZM446.043 57.7754H470.304V53.7754H446.043V57.7754ZM468.304 55.7754V70.859H472.304V55.7754H468.304ZM470.304 72.859H471.422V68.859H470.304V72.859ZM473.241 71.6896C474.272 69.4319 475.764 67.106 477.749 64.7141L474.671 62.1598C472.506 64.7691 470.806 67.3913 469.602 70.0284L473.241 71.6896ZM477.749 64.7141C479.619 62.4603 482.097 60.55 485.233 59.0065L483.467 55.4175C479.901 57.1726 476.951 59.4123 474.671 62.1598L477.749 64.7141ZM485.256 58.9951C488.253 57.4729 492.071 56.6581 496.8 56.6581V52.6581C491.633 52.6581 487.152 53.5459 483.445 55.4288L485.256 58.9951ZM496.8 56.6581C502.977 56.6581 508.593 58.2592 513.694 61.4599L515.82 58.0717C510.067 54.4622 503.712 52.6581 496.8 52.6581V56.6581ZM513.713 61.472C518.812 64.5906 522.963 69.3531 526.125 75.8809L529.725 74.1371C526.29 67.0445 521.662 61.6448 515.801 58.0597L513.713 61.472ZM526.125 75.8809C529.255 82.3415 530.873 90.5336 530.873 100.547H534.873C534.873 90.1304 533.193 81.297 529.725 74.1371L526.125 75.8809ZM530.873 100.547C530.873 110.238 529.309 118.312 526.271 124.843L529.898 126.53C533.245 119.334 534.873 110.649 534.873 100.547H530.873ZM526.274 124.838C523.216 131.36 519.112 136.208 513.997 139.485L516.155 142.853C522 139.108 526.569 133.633 529.896 126.536L526.274 124.838ZM513.99 139.49C508.904 142.781 503.167 144.437 496.721 144.437V148.437C503.895 148.437 510.394 146.581 516.163 142.848L513.99 139.49ZM496.721 144.437C492.147 144.437 488.387 143.673 485.37 142.237L483.65 145.848C487.337 147.604 491.718 148.437 496.721 148.437V144.437ZM485.37 142.237C482.221 140.737 479.709 138.893 477.785 136.728L474.795 139.385C477.127 142.009 480.095 144.155 483.65 145.848L485.37 142.237ZM477.815 136.763C475.832 134.424 474.31 132.119 473.226 129.852L469.617 131.577C470.874 134.205 472.598 136.795 474.764 139.35L477.815 136.763ZM471.422 128.714H470.703V132.714H471.422V128.714ZM468.703 130.714V178.359H472.703V130.714H468.703ZM470.703 176.359H446.043V180.359H470.703V176.359ZM488.899 128.804C493.334 128.804 497.201 127.569 500.372 125.008L497.858 121.896C495.496 123.804 492.552 124.804 488.899 124.804V128.804ZM500.372 125.008C503.468 122.507 505.76 119.097 507.298 114.88L503.541 113.509C502.206 117.166 500.295 119.928 497.858 121.896L500.372 125.008ZM507.301 114.872C508.831 110.623 509.574 105.811 509.574 100.468H505.574C505.574 105.446 504.881 109.785 503.538 113.517L507.301 114.872ZM509.574 100.468C509.574 95.1259 508.832 90.3597 507.295 86.2065L503.544 87.5941C504.881 91.2088 505.574 95.4874 505.574 100.468H509.574ZM507.307 86.2373C505.822 82.0114 503.554 78.5926 500.451 76.0868L497.938 79.1985C500.369 81.1619 502.251 83.9149 503.533 87.5633L507.307 86.2373ZM500.451 76.0868C497.276 73.522 493.381 72.2907 488.899 72.2907V76.2907C492.612 76.2907 495.58 77.2941 497.938 79.1985L500.451 76.0868ZM488.899 72.2907C484.522 72.2907 480.672 73.4963 477.46 75.9809L479.908 79.1447C482.336 77.2666 485.296 76.2907 488.899 76.2907V72.2907ZM477.465 75.9776C474.348 78.3749 472.023 81.7406 470.429 85.9531L474.17 87.3687C475.556 83.7068 477.487 81.0072 479.904 79.1481L477.465 75.9776ZM470.424 85.9671C468.885 90.1263 468.145 94.9744 468.145 100.468H472.145C472.145 95.3196 472.841 90.9634 474.175 87.3547L470.424 85.9671ZM468.145 100.468C468.145 105.918 468.915 110.77 470.509 114.982L474.25 113.566C472.864 109.904 472.145 105.551 472.145 100.468H468.145ZM470.509 114.982C472.101 119.19 474.417 122.592 477.507 125.088L480.021 121.976C477.577 120.002 475.637 117.233 474.25 113.566L470.509 114.982ZM477.54 125.114C480.747 127.595 484.568 128.804 488.899 128.804V124.804C485.356 124.804 482.42 123.832 479.988 121.95L477.54 125.114ZM553.863 143.723L553.038 145.545L553.051 145.551L553.064 145.557L553.863 143.723ZM542.211 107.65L543.964 108.612L543.971 108.6L542.211 107.65ZM573.016 92.5666L572.832 90.5752L572.827 90.5756L573.016 92.5666ZM592.33 88.9753L593.439 90.6394L593.446 90.6348L593.453 90.6302L592.33 88.9753ZM591.053 75.7273L589.728 77.2259L589.737 77.2335L589.746 77.2409L591.053 75.7273ZM570.702 75.6475L571.886 77.2592L571.892 77.2551L570.702 75.6475ZM565.515 82.9897L565.355 84.9833L566.988 85.1142L567.438 83.5392L565.515 82.9897ZM542.61 81.1542L540.655 80.7325L540.173 82.9653L542.45 83.1478L542.61 81.1542ZM549.473 67.1081L550.986 68.4164L550.995 68.4063L549.473 67.1081ZM562.641 57.9302L563.378 59.7897L563.387 59.7859L562.641 57.9302ZM607.733 61.8408L606.589 63.4816L606.603 63.4915L606.617 63.5011L607.733 61.8408ZM619.305 145V147H621.305V145H619.305ZM595.761 145H593.761V147H595.761V145ZM595.761 132.55H597.761V130.55H595.761V132.55ZM595.123 132.55V130.55H593.897L593.341 131.642L595.123 132.55ZM589.377 139.972L590.687 141.484L590.696 141.475L590.706 141.467L589.377 139.972ZM580.758 144.92L581.417 146.808L581.43 146.804L581.444 146.799L580.758 144.92ZM585.786 127.442L586.707 129.217L586.714 129.214L586.72 129.211L585.786 127.442ZM592.33 121.537L590.644 120.461L590.638 120.47L592.33 121.537ZM594.724 103.66H596.724V99.9965L593.642 101.977L594.724 103.66ZM591.532 105.017L590.944 103.105L590.933 103.108L590.922 103.112L591.532 105.017ZM582.114 107.012L582.37 108.995L582.402 108.991L582.433 108.986L582.114 107.012ZM577.645 107.65L577.933 109.629L577.947 109.627L577.961 109.625L577.645 107.65ZM569.984 109.725L570.75 111.573L570.769 111.565L570.788 111.556L569.984 109.725ZM564.876 113.476L563.289 112.259L563.283 112.267L564.876 113.476ZM569.106 144.676C563.702 144.676 558.898 143.734 554.661 141.889L553.064 145.557C557.872 147.65 563.231 148.676 569.106 148.676V144.676ZM554.687 141.901C550.55 140.029 547.342 137.297 545.006 133.696L541.65 135.873C544.422 140.146 548.237 143.373 553.038 145.545L554.687 141.901ZM545.006 133.696C542.709 130.155 541.497 125.662 541.497 120.1H537.497C537.497 126.244 538.84 131.54 541.65 135.873L545.006 133.696ZM541.497 120.1C541.497 115.328 542.362 111.535 543.964 108.612L540.457 106.689C538.442 110.363 537.497 114.869 537.497 120.1H541.497ZM543.971 108.6C545.625 105.534 547.875 103.069 550.736 101.178L548.53 97.8414C545.113 100.1 542.414 103.062 540.451 106.7L543.971 108.6ZM550.736 101.178C553.678 99.2335 557.041 97.7475 560.842 96.7337L559.812 92.8687C555.633 93.9831 551.866 95.6362 548.53 97.8414L550.736 101.178ZM560.842 96.7337C564.717 95.7004 568.837 94.9737 573.206 94.5576L572.827 90.5756C568.257 91.0108 563.918 91.7738 559.812 92.8687L560.842 96.7337ZM573.201 94.5581C578.38 94.0775 582.574 93.5945 585.768 93.1072L585.165 89.1529C582.081 89.6234 577.974 90.098 572.832 90.5752L573.201 94.5581ZM585.768 93.1072C588.993 92.6152 591.633 91.8437 593.439 90.6394L591.22 87.3112C590.154 88.0222 588.218 88.6872 585.165 89.1529L585.768 93.1072ZM593.453 90.6302C595.513 89.2321 596.564 87.1635 596.564 84.6657H592.564C592.564 85.8922 592.126 86.6967 591.207 87.3203L593.453 90.6302ZM596.564 84.6657V84.2666H592.564V84.6657H596.564ZM596.564 84.2666C596.564 80.1337 595.224 76.687 592.36 74.2136L589.746 77.2409C591.564 78.8111 592.564 81.0573 592.564 84.2666H596.564ZM592.377 74.2286C589.606 71.7797 585.823 70.6946 581.316 70.6946V74.6946C585.216 74.6946 587.924 75.6313 589.728 77.2259L592.377 74.2286ZM581.316 70.6946C576.614 70.6946 572.616 71.7432 569.512 74.0398L571.892 77.2551C574.109 75.6145 577.187 74.6946 581.316 74.6946V70.6946ZM569.518 74.0357C566.57 76.2011 564.57 79.0149 563.591 82.4403L567.438 83.5392C568.161 81.0056 569.619 78.9246 571.886 77.2592L569.518 74.0357ZM565.674 80.9961L542.77 79.1606L542.45 83.1478L565.355 84.9833L565.674 80.9961ZM544.565 81.5758C545.669 76.4544 547.815 72.0829 550.986 68.4164L547.961 65.7998C544.321 70.0076 541.891 75.0001 540.655 80.7325L544.565 81.5758ZM550.995 68.4063C554.167 64.6889 558.276 61.8102 563.378 59.7897L561.905 56.0708C556.259 58.3067 551.59 61.5466 547.952 65.8098L550.995 68.4063ZM563.387 59.7859C568.531 57.7182 574.548 56.6581 581.476 56.6581V52.6581C574.145 52.6581 567.605 53.7794 561.896 56.0745L563.387 59.7859ZM581.476 56.6581C586.265 56.6581 590.831 57.2244 595.181 58.3501L596.183 54.4777C591.487 53.2624 586.583 52.6581 581.476 52.6581V56.6581ZM595.181 58.3501C599.494 59.4665 603.289 61.1819 606.589 63.4816L608.876 60.2C605.153 57.6048 600.914 55.7023 596.183 54.4777L595.181 58.3501ZM606.617 63.5011C609.91 65.7122 612.51 68.5802 614.434 72.1308L617.951 70.2257C615.724 66.1148 612.685 62.7578 608.848 60.1805L606.617 63.5011ZM614.434 72.1308C616.32 75.6138 617.305 79.8216 617.305 84.8253H621.305C621.305 79.2944 620.214 74.4042 617.951 70.2257L614.434 72.1308ZM617.305 84.8253V145H621.305V84.8253H617.305ZM619.305 143H595.761V147H619.305V143ZM597.761 145V132.55H593.761V145H597.761ZM595.761 130.55H595.123V134.55H595.761V130.55ZM593.341 131.642C592.019 134.237 590.258 136.513 588.048 138.477L590.706 141.467C593.284 139.175 595.354 136.503 596.905 133.458L593.341 131.642ZM588.067 138.461C585.878 140.358 583.224 141.891 580.072 143.041L581.444 146.799C584.995 145.502 588.087 143.737 590.687 141.484L588.067 138.461ZM580.098 143.032C577.003 144.113 573.35 144.676 569.106 144.676V148.676C573.694 148.676 577.809 148.068 581.417 146.808L580.098 143.032ZM576.209 131.597C580.096 131.597 583.613 130.824 586.707 129.217L584.864 125.667C582.425 126.934 579.557 127.597 576.209 127.597V131.597ZM586.72 129.211C589.817 127.575 592.273 125.377 594.022 122.603L590.638 120.47C589.3 122.592 587.394 124.331 584.851 125.674L586.72 129.211ZM594.016 122.613C595.825 119.777 596.724 116.608 596.724 113.157H592.724C592.724 115.878 592.026 118.295 590.644 120.461L594.016 122.613ZM596.724 113.157V103.66H592.724V113.157H596.724ZM593.642 101.977C593.117 102.315 592.248 102.704 590.944 103.105L592.12 106.928C593.582 106.478 594.842 105.962 595.806 105.342L593.642 101.977ZM590.922 103.112C589.681 103.509 588.269 103.863 586.682 104.17L587.443 108.097C589.154 107.766 590.723 107.375 592.141 106.921L590.922 103.112ZM586.682 104.17C585.053 104.486 583.425 104.775 581.796 105.037L582.433 108.986C584.103 108.717 585.773 108.421 587.443 108.097L586.682 104.17ZM581.858 105.028C580.194 105.243 578.683 105.459 577.329 105.675L577.961 109.625C579.267 109.416 580.737 109.206 582.37 108.995L581.858 105.028ZM577.357 105.671C574.294 106.117 571.56 106.849 569.18 107.894L570.788 111.556C572.771 110.686 575.144 110.035 577.933 109.629L577.357 105.671ZM569.218 107.878C566.769 108.893 564.761 110.339 563.289 112.259L566.463 114.693C567.439 113.421 568.836 112.366 570.75 111.573L569.218 107.878ZM563.283 112.267C561.797 114.226 561.12 116.618 561.12 119.302H565.12C565.12 117.304 565.614 115.812 566.469 114.685L563.283 112.267ZM561.12 119.302C561.12 123.214 562.59 126.411 565.626 128.589L567.957 125.338C566.098 124.005 565.12 122.094 565.12 119.302H561.12ZM565.626 128.589C568.495 130.647 572.074 131.597 576.209 131.597V127.597C572.682 127.597 569.983 126.791 567.957 125.338L565.626 128.589ZM676.287 175.327H674.287V177.327H676.287V175.327ZM676.287 26.0871V24.0871H674.287V26.0871H676.287ZM700.947 26.0871H702.947V24.0871H700.947V26.0871ZM700.947 175.327V177.327H702.947V175.327H700.947ZM657.532 143.404L656.796 145.263L656.802 145.266L657.532 143.404ZM642.928 133.987L641.513 135.401L641.523 135.41L642.928 133.987ZM633.43 82.1119L635.29 82.8486L635.292 82.8426L633.43 82.1119ZM657.532 58.01L658.254 59.8754L658.263 59.8718L657.532 58.01ZM680.916 54.6581H682.916V52.6581H680.916V54.6581ZM680.916 146.756V148.756H682.916V146.756H680.916ZM679.08 127.442V129.442H681.08V127.442H679.08ZM679.08 73.9715H681.08V71.9715H679.08V73.9715ZM665.034 77.5628L663.821 75.9726L663.815 75.9776L663.808 75.9827L665.034 77.5628ZM657.931 87.2195L656.079 86.4641L656.075 86.4746L656.071 86.4852L657.931 87.2195ZM656.894 111.242L654.967 111.778L654.97 111.787L656.894 111.242ZM660.964 119.701L659.356 120.89L659.362 120.898L659.368 120.907L660.964 119.701ZM696.398 146.756H694.398V148.756H696.398V146.756ZM696.398 54.6581V52.6581H694.398V54.6581H696.398ZM719.702 58.01L718.965 59.8694L718.976 59.8736L718.987 59.8776L719.702 58.01ZM743.884 82.1119L742.022 82.8426L742.026 82.8532L742.03 82.8637L743.884 82.1119ZM743.884 119.382L742.03 118.63L742.027 118.638L742.024 118.645L743.884 119.382ZM734.387 133.987L735.792 135.41L735.801 135.401L734.387 133.987ZM719.702 143.404L718.971 141.542L718.965 141.544L719.702 143.404ZM709.806 125.367L708.869 123.601L708.861 123.605L708.853 123.609L709.806 125.367ZM716.35 119.701L714.742 118.512L714.737 118.518L716.35 119.701ZM720.5 111.242L722.416 111.816L722.418 111.808L720.5 111.242ZM712.28 77.5628L711.054 79.143L711.061 79.1481L711.067 79.1531L712.28 77.5628ZM698.314 73.9715V71.9715H696.314V73.9715H698.314ZM698.314 127.442H696.314V129.442H698.314V127.442ZM678.287 175.327V26.0871H674.287V175.327H678.287ZM676.287 28.0871H700.947V24.0871H676.287V28.0871ZM698.947 26.0871V175.327H702.947V26.0871H698.947ZM700.947 173.327H676.287V177.327H700.947V173.327ZM676.287 144.756C669.699 144.756 663.698 143.676 658.263 141.542L656.802 145.266C662.752 147.601 669.255 148.756 676.287 148.756V144.756ZM658.269 141.544C652.865 139.403 648.228 136.408 644.332 132.563L641.523 135.41C645.821 139.652 650.92 142.935 656.796 145.263L658.269 141.544ZM644.342 132.572C640.447 128.678 637.429 124.043 635.29 118.645L631.571 120.119C633.901 126 637.214 131.102 641.513 135.401L644.342 132.572ZM635.29 118.645C633.158 113.265 632.079 107.32 632.079 100.787H628.079C628.079 107.767 629.234 114.219 631.571 120.119L635.29 118.645ZM632.079 100.787C632.079 94.198 633.159 88.2268 635.29 82.8486L631.571 81.3751C629.233 87.2764 628.079 93.7551 628.079 100.787H632.079ZM635.292 82.8426C637.432 77.3914 640.45 72.733 644.342 68.8415L641.513 66.0131C637.211 70.3152 633.898 75.4465 631.569 81.3811L635.292 82.8426ZM644.342 68.8415C648.233 64.9503 652.862 61.9608 658.254 59.8754L656.811 56.1447C650.923 58.4221 645.816 61.7107 641.513 66.0131L644.342 68.8415ZM658.263 59.8718C663.698 57.7383 669.699 56.6581 676.287 56.6581V52.6581C669.255 52.6581 662.752 53.8125 656.802 56.1483L658.263 59.8718ZM676.287 56.6581H680.916V52.6581H676.287V56.6581ZM678.916 54.6581V146.756H682.916V54.6581H678.916ZM680.916 144.756H676.287V148.756H680.916V144.756ZM676.287 129.442H679.08V125.442H676.287V129.442ZM681.08 127.442V73.9715H677.08V127.442H681.08ZM679.08 71.9715H676.287V75.9715H679.08V71.9715ZM676.287 71.9715C671.535 71.9715 667.346 73.2845 663.821 75.9726L666.247 79.1531C669.001 77.0527 672.314 75.9715 676.287 75.9715V71.9715ZM663.808 75.9827C660.413 78.6167 657.845 82.1347 656.079 86.4641L659.783 87.9749C661.316 84.2172 663.483 81.2974 666.26 79.143L663.808 75.9827ZM656.071 86.4852C654.37 90.795 653.537 95.5715 653.537 100.787H657.537C657.537 95.9995 658.301 91.7312 659.792 87.9539L656.071 86.4852ZM653.537 100.787C653.537 104.674 654.009 108.341 654.967 111.778L658.82 110.705C657.969 107.651 657.537 104.349 657.537 100.787H653.537ZM654.97 111.787C655.934 115.19 657.391 118.232 659.356 120.89L662.572 118.512C660.919 116.275 659.663 113.678 658.818 110.696L654.97 111.787ZM659.368 120.907C661.344 123.521 663.742 125.602 666.556 127.126L668.461 123.609C666.167 122.366 664.202 120.669 662.56 118.495L659.368 120.907ZM666.556 127.126C669.44 128.688 672.701 129.442 676.287 129.442V125.442C673.275 125.442 670.684 124.813 668.461 123.609L666.556 127.126ZM700.947 144.756H696.398V148.756H700.947V144.756ZM698.398 146.756V54.6581H694.398V146.756H698.398ZM696.398 56.6581H700.947V52.6581H696.398V56.6581ZM700.947 56.6581C707.592 56.6581 713.589 57.7391 718.965 59.8694L720.439 56.1507C714.536 53.8118 708.03 52.6581 700.947 52.6581V56.6581ZM718.987 59.8776C724.431 61.964 729.085 64.9535 732.972 68.8415L735.801 66.0131C731.495 61.7075 726.359 58.4189 720.418 56.1425L718.987 59.8776ZM732.972 68.8415C736.864 72.733 739.882 77.3914 742.022 82.8426L745.745 81.3811C743.416 75.4465 740.103 70.3152 735.801 66.0131L732.972 68.8415ZM742.03 82.8637C744.211 88.2378 745.315 94.2037 745.315 100.787H749.315C749.315 93.7494 748.133 87.2654 745.737 81.36L742.03 82.8637ZM745.315 100.787C745.315 107.314 744.211 113.254 742.03 118.63L745.737 120.134C748.132 114.23 749.315 107.773 749.315 100.787H745.315ZM742.024 118.645C739.886 124.043 736.867 128.678 732.972 132.572L735.801 135.401C740.1 131.102 743.413 126 745.743 120.119L742.024 118.645ZM732.982 132.563C729.09 136.405 724.428 139.4 718.971 141.542L720.433 145.266C726.362 142.938 731.49 139.656 735.792 135.41L732.982 132.563ZM718.965 141.544C713.589 143.675 707.592 144.756 700.947 144.756V148.756C708.03 148.756 714.536 147.602 720.439 145.263L718.965 141.544ZM700.947 129.442C704.58 129.442 707.87 128.691 710.759 127.126L708.853 123.609C706.634 124.811 704.018 125.442 700.947 125.442V129.442ZM710.743 127.134C713.618 125.609 716.03 123.52 717.963 120.884L714.737 118.518C713.159 120.671 711.208 122.36 708.869 123.601L710.743 127.134ZM717.959 120.89C719.917 118.24 721.398 115.208 722.416 111.816L718.585 110.667C717.687 113.659 716.401 116.267 714.742 118.512L717.959 120.89ZM722.418 111.808C723.436 108.361 723.937 104.684 723.937 100.787H719.937C719.937 104.339 719.48 107.631 718.582 110.675L722.418 111.808ZM723.937 100.787C723.937 95.5638 723.075 90.7798 721.315 86.4641L717.611 87.9749C719.149 91.7464 719.937 96.0072 719.937 100.787H723.937ZM721.315 86.4641C719.545 82.1263 716.945 78.6056 713.493 75.9726L711.067 79.1531C713.893 81.3085 716.082 84.2256 717.611 87.9749L721.315 86.4641ZM713.506 75.9827C710.02 73.2779 705.793 71.9715 700.947 71.9715V75.9715C705.04 75.9715 708.369 77.0594 711.054 79.143L713.506 75.9827ZM700.947 71.9715H698.314V75.9715H700.947V71.9715ZM696.314 73.9715V127.442H700.314V73.9715H696.314ZM698.314 129.442H700.947V125.442H698.314V129.442ZM781.792 112.359H779.792V119.941L783.532 113.345L781.792 112.359ZM813.875 55.7754V53.7754H812.71L812.135 54.789L813.875 55.7754ZM838.296 55.7754H840.296V53.7754H838.296V55.7754ZM838.296 145V147H840.296V145H838.296ZM814.753 145H812.753V147H814.753V145ZM814.753 88.3368H816.753V80.7288L813.011 87.3533L814.753 88.3368ZM782.75 145V147H783.917L784.491 145.984L782.75 145ZM758.249 145H756.249V147H758.249V145ZM758.249 55.7754V53.7754H756.249V55.7754H758.249ZM781.792 55.7754H783.792V53.7754H781.792V55.7754ZM783.532 113.345L815.615 56.7619L812.135 54.789L780.052 111.372L783.532 113.345ZM813.875 57.7754H838.296V53.7754H813.875V57.7754ZM836.296 55.7754V145H840.296V55.7754H836.296ZM838.296 143H814.753V147H838.296V143ZM816.753 145V88.3368H812.753V145H816.753ZM813.011 87.3533L781.008 144.016L784.491 145.984L816.494 89.3204L813.011 87.3533ZM782.75 143H758.249V147H782.75V143ZM760.249 145V55.7754H756.249V145H760.249ZM758.249 57.7754H781.792V53.7754H758.249V57.7754ZM779.792 55.7754V112.359H783.792V55.7754H779.792ZM852.901 145H850.901V147H852.901V145ZM852.901 55.7754V53.7754H850.901V55.7754H852.901ZM877.561 55.7754H879.561V53.7754H877.561V55.7754ZM877.561 90.4118H875.561V92.4118H877.561V90.4118ZM884.584 90.4118V92.4118H885.627L886.224 91.5567L884.584 90.4118ZM908.766 55.7754V53.7754H907.723L907.126 54.6305L908.766 55.7754ZM937.816 55.7754L939.446 56.9338L941.69 53.7754H937.816V55.7754ZM906.292 100.148L904.661 98.99L903.839 100.148L904.661 101.306L906.292 100.148ZM938.135 145V147H942.008L939.766 143.842L938.135 145ZM908.766 145L907.125 146.144L907.722 147H908.766V145ZM886.739 113.396L888.38 112.253L887.783 111.396H886.739V113.396ZM877.561 113.396V111.396H875.561V113.396H877.561ZM877.561 145V147H879.561V145H877.561ZM854.901 145V55.7754H850.901V145H854.901ZM852.901 57.7754H877.561V53.7754H852.901V57.7754ZM875.561 55.7754V90.4118H879.561V55.7754H875.561ZM877.561 92.4118H884.584V88.4118H877.561V92.4118ZM886.224 91.5567L910.406 56.9203L907.126 54.6305L882.944 89.2669L886.224 91.5567ZM908.766 57.7754H937.816V53.7754H908.766V57.7754ZM936.185 54.6171L904.661 98.99L907.922 101.307L939.446 56.9338L936.185 54.6171ZM904.661 101.306L936.504 146.158L939.766 143.842L907.922 98.9905L904.661 101.306ZM938.135 143H908.766V147H938.135V143ZM910.406 143.856L888.38 112.253L885.098 114.54L907.125 146.144L910.406 143.856ZM886.739 111.396H877.561V115.396H886.739V111.396ZM875.561 113.396V145H879.561V113.396H875.561ZM877.561 143H852.901V147H877.561V143ZM953.378 143.723L952.554 145.545L952.567 145.551L952.58 145.557L953.378 143.723ZM941.726 107.65L943.48 108.612L943.486 108.6L941.726 107.65ZM972.532 92.5666L972.347 90.5752L972.342 90.5756L972.532 92.5666ZM991.845 88.9753L992.954 90.6394L992.961 90.6348L992.968 90.6302L991.845 88.9753ZM990.568 75.7273L989.244 77.2259L989.252 77.2335L989.261 77.2409L990.568 75.7273ZM970.217 75.6475L971.401 77.2592L971.407 77.2551L970.217 75.6475ZM965.03 82.9897L964.87 84.9833L966.503 85.1142L966.953 83.5392L965.03 82.9897ZM942.125 81.1542L940.17 80.7325L939.689 82.9653L941.965 83.1478L942.125 81.1542ZM948.989 67.1081L950.501 68.4164L950.51 68.4063L948.989 67.1081ZM962.157 57.9302L962.893 59.7897L962.903 59.7859L962.157 57.9302ZM1007.25 61.8408L1006.1 63.4816L1006.12 63.4915L1006.13 63.5011L1007.25 61.8408ZM1018.82 145V147H1020.82V145H1018.82ZM995.277 145H993.277V147H995.277V145ZM995.277 132.55H997.277V130.55H995.277V132.55ZM994.638 132.55V130.55H993.413L992.856 131.642L994.638 132.55ZM988.892 139.972L990.202 141.484L990.212 141.475L990.221 141.467L988.892 139.972ZM980.273 144.92L980.932 146.808L980.946 146.804L980.959 146.799L980.273 144.92ZM985.301 127.442L986.223 129.217L986.229 129.214L986.235 129.211L985.301 127.442ZM991.845 121.537L990.159 120.461L990.153 120.47L991.845 121.537ZM994.239 103.66H996.239V99.9965L993.158 101.977L994.239 103.66ZM991.047 105.017L990.459 103.105L990.448 103.108L990.437 103.112L991.047 105.017ZM981.63 107.012L981.886 108.995L981.917 108.991L981.948 108.986L981.63 107.012ZM977.161 107.65L977.448 109.629L977.462 109.627L977.477 109.625L977.161 107.65ZM969.499 109.725L970.265 111.573L970.284 111.565L970.303 111.556L969.499 109.725ZM964.391 113.476L962.804 112.259L962.798 112.267L964.391 113.476ZM968.621 144.676C963.217 144.676 958.413 143.734 954.176 141.889L952.58 145.557C957.388 147.65 962.746 148.676 968.621 148.676V144.676ZM954.202 141.901C950.065 140.029 946.857 137.297 944.521 133.696L941.165 135.873C943.937 140.146 947.752 143.373 952.554 145.545L954.202 141.901ZM944.521 133.696C942.224 130.155 941.013 125.662 941.013 120.1H937.013C937.013 126.244 938.355 131.54 941.165 135.873L944.521 133.696ZM941.013 120.1C941.013 115.328 941.877 111.535 943.48 108.612L939.972 106.689C937.957 110.363 937.013 114.869 937.013 120.1H941.013ZM943.486 108.6C945.141 105.534 947.39 103.069 950.251 101.178L948.045 97.8414C944.628 100.1 941.93 103.062 939.966 106.7L943.486 108.6ZM950.251 101.178C953.193 99.2335 956.556 97.7475 960.358 96.7337L959.327 92.8687C955.148 93.9831 951.381 95.6362 948.045 97.8414L950.251 101.178ZM960.358 96.7337C964.233 95.7004 968.353 94.9737 972.721 94.5576L972.342 90.5756C967.772 91.0108 963.433 91.7738 959.327 92.8687L960.358 96.7337ZM972.716 94.5581C977.895 94.0775 982.089 93.5945 985.283 93.1072L984.68 89.1529C981.596 89.6234 977.49 90.098 972.347 90.5752L972.716 94.5581ZM985.283 93.1072C988.508 92.6152 991.148 91.8437 992.954 90.6394L990.736 87.3112C989.669 88.0222 987.733 88.6872 984.68 89.1529L985.283 93.1072ZM992.968 90.6302C995.029 89.2321 996.08 87.1635 996.08 84.6657H992.08C992.08 85.8922 991.641 86.6967 990.722 87.3203L992.968 90.6302ZM996.08 84.6657V84.2666H992.08V84.6657H996.08ZM996.08 84.2666C996.08 80.1337 994.739 76.687 991.875 74.2136L989.261 77.2409C991.079 78.8111 992.08 81.0573 992.08 84.2666H996.08ZM991.893 74.2286C989.121 71.7797 985.338 70.6946 980.832 70.6946V74.6946C984.731 74.6946 987.439 75.6313 989.244 77.2259L991.893 74.2286ZM980.832 70.6946C976.129 70.6946 972.131 71.7432 969.028 74.0398L971.407 77.2551C973.624 75.6145 976.702 74.6946 980.832 74.6946V70.6946ZM969.033 74.0357C966.086 76.2011 964.085 79.0149 963.107 82.4403L966.953 83.5392C967.677 81.0056 969.135 78.9246 971.401 77.2592L969.033 74.0357ZM965.19 80.9961L942.285 79.1606L941.965 83.1478L964.87 84.9833L965.19 80.9961ZM944.08 81.5758C945.185 76.4544 947.33 72.0829 950.501 68.4164L947.476 65.7998C943.837 70.0076 941.406 75.0001 940.17 80.7325L944.08 81.5758ZM950.51 68.4063C953.682 64.6889 957.792 61.8102 962.893 59.7897L961.42 56.0708C955.775 58.3067 951.105 61.5466 947.467 65.8098L950.51 68.4063ZM962.903 59.7859C968.047 57.7182 974.063 56.6581 980.991 56.6581V52.6581C973.661 52.6581 967.121 53.7794 961.411 56.0745L962.903 59.7859ZM980.991 56.6581C985.78 56.6581 990.347 57.2244 994.696 58.3501L995.698 54.4777C991.003 53.2624 986.098 52.6581 980.991 52.6581V56.6581ZM994.696 58.3501C999.009 59.4665 1002.8 61.1819 1006.1 63.4816L1008.39 60.2C1004.67 57.6048 1000.43 55.7023 995.698 54.4777L994.696 58.3501ZM1006.13 63.5011C1009.42 65.7122 1012.03 68.5802 1013.95 72.1308L1017.47 70.2257C1015.24 66.1148 1012.2 62.7578 1008.36 60.1805L1006.13 63.5011ZM1013.95 72.1308C1015.84 75.6138 1016.82 79.8216 1016.82 84.8253H1020.82C1020.82 79.2944 1019.73 74.4042 1017.47 70.2257L1013.95 72.1308ZM1016.82 84.8253V145H1020.82V84.8253H1016.82ZM1018.82 143H995.277V147H1018.82V143ZM997.277 145V132.55H993.277V145H997.277ZM995.277 130.55H994.638V134.55H995.277V130.55ZM992.856 131.642C991.534 134.237 989.774 136.513 987.563 138.477L990.221 141.467C992.799 139.175 994.869 136.503 996.42 133.458L992.856 131.642ZM987.582 138.461C985.394 140.358 982.739 141.891 979.587 143.041L980.959 146.799C984.511 145.502 987.602 143.737 990.202 141.484L987.582 138.461ZM979.614 143.032C976.518 144.113 972.865 144.676 968.621 144.676V148.676C973.209 148.676 977.324 148.068 980.932 146.808L979.614 143.032ZM975.724 131.597C979.611 131.597 983.129 130.824 986.223 129.217L984.379 125.667C981.94 126.934 979.073 127.597 975.724 127.597V131.597ZM986.235 129.211C989.332 127.575 991.789 125.377 993.537 122.603L990.153 120.47C988.816 122.592 986.909 124.331 984.367 125.674L986.235 129.211ZM993.531 122.613C995.341 119.777 996.239 116.608 996.239 113.157H992.239C992.239 115.878 991.542 118.295 990.159 120.461L993.531 122.613ZM996.239 113.157V103.66H992.239V113.157H996.239ZM993.158 101.977C992.632 102.315 991.763 102.704 990.459 103.105L991.635 106.928C993.097 106.478 994.357 105.962 995.321 105.342L993.158 101.977ZM990.437 103.112C989.196 103.509 987.785 103.863 986.198 104.17L986.958 108.097C988.67 107.766 990.238 107.375 991.657 106.921L990.437 103.112ZM986.198 104.17C984.569 104.486 982.94 104.775 981.311 105.037L981.948 108.986C983.618 108.717 985.288 108.421 986.958 108.097L986.198 104.17ZM981.374 105.028C979.709 105.243 978.199 105.459 976.845 105.675L977.477 109.625C978.783 109.416 980.252 109.206 981.886 108.995L981.374 105.028ZM976.873 105.671C973.809 106.117 971.075 106.849 968.695 107.894L970.303 111.556C972.286 110.686 974.659 110.035 977.448 109.629L976.873 105.671ZM968.733 107.878C966.284 108.893 964.276 110.339 962.804 112.259L965.979 114.693C966.954 113.421 968.351 112.366 970.265 111.573L968.733 107.878ZM962.798 112.267C961.312 114.226 960.636 116.618 960.636 119.302H964.636C964.636 117.304 965.13 115.812 965.985 114.685L962.798 112.267ZM960.636 119.302C960.636 123.214 962.105 126.411 965.141 128.589L967.473 125.338C965.614 124.005 964.636 122.094 964.636 119.302H960.636ZM965.141 128.589C968.01 130.647 971.589 131.597 975.724 131.597V127.597C972.197 127.597 969.498 126.791 967.473 125.338L965.141 128.589Z" fill="black" mask="url(#path-1-outside-1_385_3806)"/>
</svg>
