<svg width="966" height="179" viewBox="0 0 966 179" fill="none" xmlns="http://www.w3.org/2000/svg">
<mask id="path-1-outside-1_385_4027" maskUnits="userSpaceOnUse" x="1" y="24" width="960" height="157" fill="black">
<rect fill="white" x="1" y="24" width="960" height="157"/>
<path d="M49.7998 175.327V26.0871H74.4602V175.327H49.7998ZM49.7998 146.756C42.9895 146.756 36.738 145.638 31.045 143.404C25.4053 141.169 20.5371 138.03 16.4403 133.987C12.3435 129.89 9.17784 125.022 6.94323 119.382C4.70863 113.742 3.59133 107.544 3.59133 100.787C3.59133 93.9765 4.70863 87.7516 6.94323 82.1119C9.17784 76.4189 12.3435 71.5241 16.4403 67.4273C20.5371 63.3305 25.4053 60.1914 31.045 58.01C36.738 55.7754 42.9895 54.6581 49.7998 54.6581H54.4286V146.756H49.7998ZM49.7998 127.442H52.593V73.9715H49.7998C45.437 73.9715 41.686 75.1686 38.5469 77.5628C35.461 79.9571 33.0934 83.1759 31.4441 87.2195C29.8479 91.2631 29.0499 95.7855 29.0499 100.787C29.0499 104.511 29.5021 107.996 30.4066 111.242C31.3111 114.434 32.6678 117.254 34.4768 119.701C36.2857 122.095 38.4671 123.984 41.021 125.367C43.5748 126.751 46.5011 127.442 49.7998 127.442ZM74.4602 146.756H69.9112V54.6581H74.4602C81.3236 54.6581 87.5752 55.7754 93.2149 58.01C98.9078 60.1914 103.803 63.3305 107.899 67.4273C111.996 71.5241 115.162 76.4189 117.397 82.1119C119.684 87.7516 120.828 93.9765 120.828 100.787C120.828 107.544 119.684 113.742 117.397 119.382C115.162 125.022 111.996 129.89 107.899 133.987C103.803 138.03 98.9078 141.169 93.2149 143.404C87.5752 145.638 81.3236 146.756 74.4602 146.756ZM74.4602 127.442C77.8121 127.442 80.765 126.751 83.3188 125.367C85.9259 123.984 88.1073 122.095 89.863 119.701C91.672 117.254 93.0553 114.434 94.013 111.242C94.9707 107.996 95.4495 104.511 95.4495 100.787C95.4495 95.7855 94.6249 91.2631 92.9755 87.2195C91.3261 83.1759 88.9319 79.9571 85.7928 77.5628C82.707 75.1686 78.9294 73.9715 74.4602 73.9715H71.8266V127.442H74.4602ZM171.905 146.756C162.913 146.756 155.119 144.84 148.521 141.01C141.977 137.126 136.923 131.752 133.358 124.889C129.846 117.972 128.091 109.938 128.091 100.787C128.091 91.5291 129.846 83.4686 133.358 76.6051C136.923 69.6885 141.977 64.3148 148.521 60.4841C155.119 56.6001 162.913 54.6581 171.905 54.6581C180.95 54.6581 188.744 56.6001 195.288 60.4841C201.886 64.3148 206.94 69.6885 210.452 76.6051C214.017 83.4686 215.799 91.5291 215.799 100.787C215.799 109.938 214.017 117.972 210.452 124.889C206.94 131.752 201.886 137.126 195.288 141.01C188.744 144.84 180.95 146.756 171.905 146.756ZM172.065 127.442C176.161 127.442 179.593 126.298 182.36 124.011C185.126 121.67 187.201 118.477 188.585 114.434C190.021 110.39 190.739 105.788 190.739 100.627C190.739 95.4131 190.021 90.8108 188.585 86.8205C187.201 82.8301 185.126 79.691 182.36 77.4032C179.593 75.1154 176.161 73.9715 172.065 73.9715C167.915 73.9715 164.43 75.1154 161.61 77.4032C158.843 79.691 156.742 82.8301 155.305 86.8205C153.922 90.8108 153.23 95.4131 153.23 100.627C153.23 105.788 153.922 110.39 155.305 114.434C156.742 118.477 158.843 121.67 161.61 124.011C164.43 126.298 167.915 127.442 172.065 127.442ZM218.034 75.2484V55.7754H298.719V75.2484H270.068V145H246.525V75.2484H218.034ZM345.406 146.756C336.414 146.756 328.62 144.84 322.022 141.01C315.478 137.126 310.424 131.752 306.859 124.889C303.348 117.972 301.592 109.938 301.592 100.787C301.592 91.5291 303.348 83.4686 306.859 76.6051C310.424 69.6885 315.478 64.3148 322.022 60.4841C328.62 56.6001 336.414 54.6581 345.406 54.6581C354.451 54.6581 362.245 56.6001 368.789 60.4841C375.387 64.3148 380.441 69.6885 383.953 76.6051C387.518 83.4686 389.3 91.5291 389.3 100.787C389.3 109.938 387.518 117.972 383.953 124.889C380.441 131.752 375.387 137.126 368.789 141.01C362.245 144.84 354.451 146.756 345.406 146.756ZM345.566 127.442C349.662 127.442 353.094 126.298 355.861 124.011C358.627 121.67 360.702 118.477 362.086 114.434C363.522 110.39 364.24 105.788 364.24 100.627C364.24 95.4131 363.522 90.8108 362.086 86.8205C360.702 82.8301 358.627 79.691 355.861 77.4032C353.094 75.1154 349.662 73.9715 345.566 73.9715C341.416 73.9715 337.931 75.1154 335.111 77.4032C332.344 79.691 330.243 82.8301 328.806 86.8205C327.423 90.8108 326.731 95.4131 326.731 100.627C326.731 105.788 327.423 110.39 328.806 114.434C330.243 118.477 332.344 121.67 335.111 124.011C337.931 126.298 341.416 127.442 345.566 127.442ZM461.127 55.7754V75.2484H424.096V145H400.234V55.7754H461.127ZM471.102 178.359V55.7754H495.364V70.859H496.481C497.598 68.4116 499.195 65.9376 501.27 63.4369C503.345 60.9363 506.058 58.8613 509.41 57.212C512.762 55.5094 516.912 54.6581 521.86 54.6581C528.404 54.6581 534.39 56.3607 539.817 59.7658C545.297 63.1177 549.686 68.1988 552.985 75.009C556.283 81.8192 557.933 90.332 557.933 100.547C557.933 110.443 556.337 118.823 553.144 125.687C549.952 132.497 545.616 137.658 540.136 141.169C534.709 144.681 528.59 146.437 521.78 146.437C516.992 146.437 512.921 145.638 509.57 144.042C506.218 142.446 503.478 140.451 501.349 138.057C499.274 135.609 497.652 133.162 496.481 130.714H495.763V178.359H471.102ZM513.959 126.804C518.003 126.804 521.408 125.687 524.174 123.452C526.941 121.217 529.043 118.132 530.479 114.194C531.916 110.204 532.634 105.628 532.634 100.468C532.634 95.3067 531.916 90.7842 530.479 86.9003C529.096 82.9631 527.021 79.8772 524.254 77.6426C521.487 75.408 518.056 74.2907 513.959 74.2907C509.969 74.2907 506.564 75.3814 503.744 77.5628C500.977 79.691 498.849 82.7237 497.359 86.6609C495.923 90.5448 495.204 95.147 495.204 100.468C495.204 105.735 495.949 110.337 497.439 114.274C498.929 118.211 501.057 121.297 503.823 123.532C506.643 125.713 510.022 126.804 513.959 126.804ZM594.165 146.676C588.526 146.676 583.445 145.692 578.922 143.723C574.453 141.701 570.941 138.722 568.388 134.785C565.834 130.848 564.557 125.953 564.557 120.1C564.557 115.099 565.461 110.949 567.27 107.65C569.079 104.298 571.553 101.585 574.692 99.5098C577.831 97.4349 581.396 95.8653 585.386 94.8012C589.377 93.7371 593.607 92.9922 598.076 92.5666C603.237 92.0878 607.387 91.6089 610.526 91.1301C613.665 90.6512 615.953 89.933 617.389 88.9753C618.879 87.9644 619.624 86.5279 619.624 84.6657V84.2666C619.624 80.5955 618.453 77.7491 616.112 75.7273C613.824 73.7055 610.579 72.6946 606.376 72.6946C601.96 72.6946 598.422 73.6789 595.761 75.6475C593.154 77.5628 591.425 80.0103 590.574 82.9897L567.669 81.1542C568.84 75.7273 571.128 71.0452 574.533 67.1081C577.938 63.1177 582.327 60.0584 587.701 57.9302C593.128 55.7488 599.406 54.6581 606.535 54.6581C611.483 54.6581 616.219 55.2434 620.741 56.4139C625.264 57.5844 629.281 59.3934 632.792 61.8408C636.357 64.235 639.177 67.3475 641.252 71.1783C643.327 75.009 644.364 79.558 644.364 84.8253V145H620.821V132.55H620.182C618.746 135.37 616.831 137.844 614.436 139.972C612.042 142.047 609.169 143.696 605.817 144.92C602.465 146.091 598.581 146.676 594.165 146.676ZM601.268 129.597C604.886 129.597 608.078 128.879 610.845 127.442C613.665 125.953 615.846 123.984 617.389 121.537C618.985 119.036 619.783 116.243 619.783 113.157V103.66C619.039 104.139 617.974 104.591 616.591 105.017C615.261 105.442 613.771 105.815 612.122 106.134C610.473 106.453 608.823 106.746 607.174 107.012C605.525 107.225 604.035 107.437 602.705 107.65C599.778 108.076 597.225 108.767 595.043 109.725C592.862 110.63 591.159 111.88 589.936 113.476C588.765 115.019 588.18 116.961 588.18 119.302C588.18 122.654 589.403 125.208 591.851 126.964C594.298 128.719 597.437 129.597 601.268 129.597ZM701.347 175.327V26.0871H726.007V175.327H701.347ZM701.347 146.756C694.536 146.756 688.285 145.638 682.592 143.404C676.952 141.169 672.084 138.03 667.987 133.987C663.89 129.89 660.725 125.022 658.49 119.382C656.255 113.742 655.138 107.544 655.138 100.787C655.138 93.9765 656.255 87.7516 658.49 82.1119C660.725 76.4189 663.89 71.5241 667.987 67.4273C672.084 63.3305 676.952 60.1914 682.592 58.01C688.285 55.7754 694.536 54.6581 701.347 54.6581H705.975V146.756H701.347ZM701.347 127.442H704.14V73.9715H701.347C696.984 73.9715 693.233 75.1686 690.094 77.5628C687.008 79.9571 684.64 83.1759 682.991 87.2195C681.395 91.2631 680.597 95.7855 680.597 100.787C680.597 104.511 681.049 107.996 681.953 111.242C682.858 114.434 684.215 117.254 686.024 119.701C687.832 122.095 690.014 123.984 692.568 125.367C695.122 126.751 698.048 127.442 701.347 127.442ZM726.007 146.756H721.458V54.6581H726.007C732.87 54.6581 739.122 55.7754 744.762 58.01C750.455 60.1914 755.349 63.3305 759.446 67.4273C763.543 71.5241 766.709 76.4189 768.943 82.1119C771.231 87.7516 772.375 93.9765 772.375 100.787C772.375 107.544 771.231 113.742 768.943 119.382C766.709 125.022 763.543 129.89 759.446 133.987C755.349 138.03 750.455 141.169 744.762 143.404C739.122 145.638 732.87 146.756 726.007 146.756ZM726.007 127.442C729.359 127.442 732.312 126.751 734.866 125.367C737.473 123.984 739.654 122.095 741.41 119.701C743.219 117.254 744.602 114.434 745.56 111.242C746.517 107.996 746.996 104.511 746.996 100.787C746.996 95.7855 746.172 91.2631 744.522 87.2195C742.873 83.1759 740.479 79.9571 737.34 77.5628C734.254 75.1686 730.476 73.9715 726.007 73.9715H723.373V127.442H726.007ZM806.852 112.359L838.934 55.7754H863.355V145H839.812V88.3368L807.809 145H783.309V55.7754H806.852V112.359ZM901.503 112.359L933.586 55.7754H958.007V145H934.464V88.3368L902.461 145H877.96V55.7754H901.503V112.359Z"/>
</mask>
<path d="M49.7998 175.327H47.7998V177.327H49.7998V175.327ZM49.7998 26.0871V24.0871H47.7998V26.0871H49.7998ZM74.4602 26.0871H76.4602V24.0871H74.4602V26.0871ZM74.4602 175.327V177.327H76.4602V175.327H74.4602ZM31.045 143.404L30.3083 145.263L30.3143 145.266L31.045 143.404ZM16.4403 133.987L15.0261 135.401L15.0354 135.41L16.4403 133.987ZM6.94323 82.1119L8.80261 82.8486L8.80495 82.8426L6.94323 82.1119ZM31.045 58.01L31.7665 59.8754L31.7758 59.8718L31.045 58.01ZM54.4286 54.6581H56.4286V52.6581H54.4286V54.6581ZM54.4286 146.756V148.756H56.4286V146.756H54.4286ZM52.593 127.442V129.442H54.593V127.442H52.593ZM52.593 73.9715H54.593V71.9715H52.593V73.9715ZM38.5469 77.5628L37.334 75.9726L37.3275 75.9776L37.3209 75.9827L38.5469 77.5628ZM31.4441 87.2195L29.5922 86.4641L29.5879 86.4746L29.5838 86.4852L31.4441 87.2195ZM30.4066 111.242L28.48 111.778L28.4823 111.787L30.4066 111.242ZM34.4768 119.701L32.8684 120.89L32.8747 120.898L32.881 120.907L34.4768 119.701ZM69.9112 146.756H67.9112V148.756H69.9112V146.756ZM69.9112 54.6581V52.6581H67.9112V54.6581H69.9112ZM93.2149 58.01L92.4782 59.8694L92.4887 59.8736L92.4993 59.8776L93.2149 58.01ZM117.397 82.1119L115.535 82.8426L115.539 82.8532L115.543 82.8637L117.397 82.1119ZM117.397 119.382L115.543 118.63L115.54 118.638L115.537 118.645L117.397 119.382ZM107.899 133.987L109.304 135.41L109.314 135.401L107.899 133.987ZM93.2149 143.404L92.4842 141.542L92.4782 141.544L93.2149 143.404ZM83.3188 125.367L82.3814 123.601L82.3738 123.605L82.3663 123.609L83.3188 125.367ZM89.863 119.701L88.2547 118.512L88.2502 118.518L89.863 119.701ZM94.013 111.242L95.9287 111.816L95.9312 111.808L94.013 111.242ZM85.7928 77.5628L84.5668 79.143L84.5734 79.1481L84.5799 79.1531L85.7928 77.5628ZM71.8266 73.9715V71.9715H69.8266V73.9715H71.8266ZM71.8266 127.442H69.8266V129.442H71.8266V127.442ZM51.7998 175.327V26.0871H47.7998V175.327H51.7998ZM49.7998 28.0871H74.4602V24.0871H49.7998V28.0871ZM72.4602 26.0871V175.327H76.4602V26.0871H72.4602ZM74.4602 173.327H49.7998V177.327H74.4602V173.327ZM49.7998 144.756C43.2113 144.756 37.2109 143.676 31.7758 141.542L30.3143 145.266C36.265 147.601 42.7678 148.756 49.7998 148.756V144.756ZM31.7818 141.544C26.3781 139.403 21.7406 136.408 17.8452 132.563L15.0354 135.41C19.3335 139.652 24.4325 142.935 30.3083 145.263L31.7818 141.544ZM17.8545 132.572C13.9599 128.678 10.9414 124.043 8.8026 118.645L5.08387 120.119C7.41423 126 10.7272 131.102 15.0261 135.401L17.8545 132.572ZM8.8026 118.645C6.67092 113.265 5.59133 107.32 5.59133 100.787H1.59133C1.59133 107.767 2.74634 114.219 5.08387 120.119L8.8026 118.645ZM5.59133 100.787C5.59133 94.198 6.67162 88.2268 8.8026 82.8486L5.08387 81.3751C2.74564 87.2764 1.59133 93.7551 1.59133 100.787H5.59133ZM8.80495 82.8426C10.9447 77.3914 13.9631 72.733 17.8545 68.8415L15.0261 66.0131C10.724 70.3152 7.41099 75.4465 5.08152 81.3811L8.80495 82.8426ZM17.8545 68.8415C21.7457 64.9503 26.375 61.9608 31.7665 59.8754L30.3235 56.1447C24.4356 58.4221 19.3284 61.7107 15.0261 66.0131L17.8545 68.8415ZM31.7758 59.8718C37.2109 57.7383 43.2113 56.6581 49.7998 56.6581V52.6581C42.7678 52.6581 36.265 53.8125 30.3143 56.1483L31.7758 59.8718ZM49.7998 56.6581H54.4286V52.6581H49.7998V56.6581ZM52.4286 54.6581V146.756H56.4286V54.6581H52.4286ZM54.4286 144.756H49.7998V148.756H54.4286V144.756ZM49.7998 129.442H52.593V125.442H49.7998V129.442ZM54.593 127.442V73.9715H50.593V127.442H54.593ZM52.593 71.9715H49.7998V75.9715H52.593V71.9715ZM49.7998 71.9715C45.0473 71.9715 40.8584 73.2845 37.334 75.9726L39.7598 79.1531C42.5136 77.0527 45.8266 75.9715 49.7998 75.9715V71.9715ZM37.3209 75.9827C33.926 78.6167 31.3582 82.1347 29.5922 86.4641L33.2959 87.9749C34.8287 84.2172 36.9961 81.2974 39.7729 79.143L37.3209 75.9827ZM29.5838 86.4852C27.8825 90.795 27.0499 95.5715 27.0499 100.787H31.0499C31.0499 95.9995 31.8133 91.7312 33.3044 87.9539L29.5838 86.4852ZM27.0499 100.787C27.0499 104.674 27.522 108.341 28.48 111.778L32.3332 110.705C31.4822 107.651 31.0499 104.349 31.0499 100.787H27.0499ZM28.4823 111.787C29.4466 115.19 30.9038 118.232 32.8684 120.89L36.0851 118.512C34.4317 116.275 33.1756 113.678 32.3308 110.696L28.4823 111.787ZM32.881 120.907C34.8565 123.521 37.2547 125.602 40.0684 127.126L41.9735 123.609C39.6796 122.366 37.7149 120.669 36.0725 118.495L32.881 120.907ZM40.0684 127.126C42.9524 128.688 46.2141 129.442 49.7998 129.442V125.442C46.788 125.442 44.1971 124.813 41.9735 123.609L40.0684 127.126ZM74.4602 144.756H69.9112V148.756H74.4602V144.756ZM71.9112 146.756V54.6581H67.9112V146.756H71.9112ZM69.9112 56.6581H74.4602V52.6581H69.9112V56.6581ZM74.4602 56.6581C81.1043 56.6581 87.1018 57.7391 92.4782 59.8694L93.9517 56.1507C88.0486 53.8118 81.5429 52.6581 74.4602 52.6581V56.6581ZM92.4993 59.8776C97.9441 61.964 102.597 64.9535 106.485 68.8415L109.314 66.0131C105.008 61.7075 99.8716 58.4189 93.9305 56.1425L92.4993 59.8776ZM106.485 68.8415C110.377 72.733 113.395 77.3914 115.535 82.8426L119.258 81.3811C116.929 75.4465 113.616 70.3152 109.314 66.0131L106.485 68.8415ZM115.543 82.8637C117.723 88.2378 118.828 94.2037 118.828 100.787H122.828C122.828 93.7494 121.645 87.2654 119.25 81.36L115.543 82.8637ZM118.828 100.787C118.828 107.314 117.724 113.254 115.543 118.63L119.25 120.134C121.645 114.23 122.828 107.773 122.828 100.787H118.828ZM115.537 118.645C113.398 124.043 110.38 128.678 106.485 132.572L109.314 135.401C113.613 131.102 116.926 126 119.256 120.119L115.537 118.645ZM106.495 132.563C102.602 136.405 97.941 139.4 92.4842 141.542L93.9457 145.266C99.8747 142.938 105.003 139.656 109.304 135.41L106.495 132.563ZM92.4782 141.544C87.1018 143.675 81.1043 144.756 74.4602 144.756V148.756C81.5429 148.756 88.0486 147.602 93.9517 145.263L92.4782 141.544ZM74.4602 129.442C78.0931 129.442 81.3828 128.691 84.2714 127.126L82.3663 123.609C80.1472 124.811 77.5311 125.442 74.4602 125.442V129.442ZM84.2562 127.134C87.1312 125.609 89.5429 123.52 91.4758 120.884L88.2502 118.518C86.6716 120.671 84.7205 122.36 82.3814 123.601L84.2562 127.134ZM91.4714 120.89C93.4298 118.24 94.911 115.208 95.9286 111.816L92.0973 110.667C91.1996 113.659 89.9141 116.267 88.2547 118.512L91.4714 120.89ZM95.9312 111.808C96.9483 108.361 97.4495 104.684 97.4495 100.787H93.4495C93.4495 104.339 92.9931 107.631 92.0948 110.675L95.9312 111.808ZM97.4495 100.787C97.4495 95.5638 96.5877 90.7798 94.8274 86.4641L91.1236 87.9749C92.662 91.7464 93.4495 96.0072 93.4495 100.787H97.4495ZM94.8274 86.4641C93.058 82.1263 90.4579 78.6056 87.0057 75.9726L84.5799 79.1531C87.406 81.3085 89.5943 84.2256 91.1236 87.9749L94.8274 86.4641ZM87.0188 75.9827C83.5326 73.2779 79.3062 71.9715 74.4602 71.9715V75.9715C78.5526 75.9715 81.8813 77.0594 84.5668 79.143L87.0188 75.9827ZM74.4602 71.9715H71.8266V75.9715H74.4602V71.9715ZM69.8266 73.9715V127.442H73.8266V73.9715H69.8266ZM71.8266 129.442H74.4602V125.442H71.8266V129.442ZM148.521 141.01L147.501 142.73L147.509 142.734L147.517 142.739L148.521 141.01ZM133.358 124.889L131.575 125.794L131.579 125.802L131.583 125.81L133.358 124.889ZM133.358 76.6051L131.58 75.6889L131.577 75.6942L133.358 76.6051ZM148.521 60.4841L149.532 62.2101L149.536 62.2076L148.521 60.4841ZM195.288 60.4841L194.268 62.204L194.276 62.2089L194.284 62.2137L195.288 60.4841ZM210.452 76.6051L208.669 77.5105L208.673 77.5188L208.677 77.527L210.452 76.6051ZM210.452 124.889L208.674 123.972L208.671 123.978L210.452 124.889ZM195.288 141.01L196.299 142.736L196.303 142.733L195.288 141.01ZM182.36 124.011L183.634 125.552L183.643 125.545L183.652 125.537L182.36 124.011ZM188.585 114.434L186.7 113.764L186.696 113.775L186.692 113.786L188.585 114.434ZM188.585 86.8205L186.695 87.4756L186.699 87.4868L186.703 87.4979L188.585 86.8205ZM161.61 77.4032L160.35 75.8501L160.342 75.856L160.335 75.8619L161.61 77.4032ZM155.305 86.8205L153.423 86.143L153.419 86.1542L153.415 86.1654L155.305 86.8205ZM155.305 114.434L153.413 115.081L153.416 115.092L153.42 115.103L155.305 114.434ZM161.61 124.011L160.318 125.537L160.334 125.551L160.35 125.564L161.61 124.011ZM171.905 144.756C163.203 144.756 155.767 142.904 149.526 139.28L147.517 142.739C154.47 146.776 162.624 148.756 171.905 148.756V144.756ZM149.542 139.29C143.324 135.599 138.529 130.505 135.133 123.967L131.583 125.81C135.317 132.999 140.63 138.652 147.501 142.73L149.542 139.29ZM135.141 123.983C131.796 117.393 130.091 109.68 130.091 100.787H126.091C126.091 110.196 127.897 118.551 131.575 125.794L135.141 123.983ZM130.091 100.787C130.091 91.7828 131.797 84.0463 135.138 77.5161L131.577 75.6942C127.895 82.8908 126.091 91.2754 126.091 100.787H130.091ZM135.136 77.5214C138.531 70.9327 143.324 65.844 149.532 62.2101L147.511 58.758C140.63 62.7857 135.314 68.4443 131.58 75.6889L135.136 77.5214ZM149.536 62.2076C155.776 58.5341 163.207 56.6581 171.905 56.6581V52.6581C162.619 52.6581 154.462 54.6662 147.507 58.7606L149.536 62.2076ZM171.905 56.6581C180.659 56.6581 188.086 58.5353 194.268 62.204L196.309 58.7642C189.402 54.665 181.241 52.6581 171.905 52.6581V56.6581ZM194.284 62.2137C200.542 65.8472 205.329 70.9319 208.669 77.5105L212.235 75.6998C208.552 68.4451 203.23 62.7825 196.293 58.7545L194.284 62.2137ZM208.677 77.527C212.067 84.0547 213.799 91.7872 213.799 100.787H217.799C217.799 91.271 215.966 82.8824 212.227 75.6833L208.677 77.527ZM213.799 100.787C213.799 109.675 212.069 117.385 208.674 123.972L212.23 125.805C215.964 118.559 217.799 110.201 217.799 100.787H213.799ZM208.671 123.978C205.331 130.505 200.542 135.596 194.274 139.286L196.303 142.733C203.23 138.655 208.549 132.998 212.232 125.8L208.671 123.978ZM194.278 139.284C188.095 142.903 180.663 144.756 171.905 144.756V148.756C181.236 148.756 189.394 146.778 196.299 142.736L194.278 139.284ZM172.065 129.442C176.557 129.442 180.459 128.178 183.634 125.552L181.085 122.469C178.727 124.419 175.765 125.442 172.065 125.442V129.442ZM183.652 125.537C186.74 122.924 188.998 119.405 190.477 115.081L186.692 113.786C185.405 117.55 183.513 120.415 181.068 122.484L183.652 125.537ZM190.469 115.103C191.996 110.806 192.739 105.971 192.739 100.627H188.739C188.739 105.605 188.046 109.974 186.7 113.764L190.469 115.103ZM192.739 100.627C192.739 95.2332 191.997 90.3941 190.466 86.143L186.703 87.4979C188.046 91.2276 188.739 95.5929 188.739 100.627H192.739ZM190.474 86.1654C188.992 81.8906 186.73 78.4216 183.634 75.8619L181.085 78.9445C183.523 80.9604 185.41 83.7696 186.695 87.4756L190.474 86.1654ZM183.634 75.8619C180.459 73.2362 176.557 71.9715 172.065 71.9715V75.9715C175.765 75.9715 178.727 76.9946 181.085 78.9445L183.634 75.8619ZM172.065 71.9715C167.525 71.9715 163.576 73.2325 160.35 75.8501L162.87 78.9563C165.283 76.9984 168.304 75.9715 172.065 75.9715V71.9715ZM160.335 75.8619C157.246 78.4165 154.959 81.8772 153.423 86.143L157.187 87.4979C158.524 83.7831 160.44 80.9656 162.884 78.9445L160.335 75.8619ZM153.415 86.1654C151.944 90.4092 151.23 95.2404 151.23 100.627H155.23C155.23 95.5857 155.899 91.2125 157.195 87.4756L153.415 86.1654ZM151.23 100.627C151.23 105.964 151.945 110.791 153.413 115.081L157.197 113.786C155.898 109.989 155.23 105.612 155.23 100.627H151.23ZM153.42 115.103C154.953 119.418 157.235 122.929 160.318 125.537L162.902 122.484C160.451 120.41 158.53 117.536 157.19 113.764L153.42 115.103ZM160.35 125.564C163.576 128.181 167.525 129.442 172.065 129.442V125.442C168.304 125.442 165.283 124.416 162.87 122.458L160.35 125.564ZM218.034 75.2484H216.034V77.2484H218.034V75.2484ZM218.034 55.7754V53.7754H216.034V55.7754H218.034ZM298.719 55.7754H300.719V53.7754H298.719V55.7754ZM298.719 75.2484V77.2484H300.719V75.2484H298.719ZM270.068 75.2484V73.2484H268.068V75.2484H270.068ZM270.068 145V147H272.068V145H270.068ZM246.525 145H244.525V147H246.525V145ZM246.525 75.2484H248.525V73.2484H246.525V75.2484ZM220.034 75.2484V55.7754H216.034V75.2484H220.034ZM218.034 57.7754H298.719V53.7754H218.034V57.7754ZM296.719 55.7754V75.2484H300.719V55.7754H296.719ZM298.719 73.2484H270.068V77.2484H298.719V73.2484ZM268.068 75.2484V145H272.068V75.2484H268.068ZM270.068 143H246.525V147H270.068V143ZM248.525 145V75.2484H244.525V145H248.525ZM246.525 73.2484H218.034V77.2484H246.525V73.2484ZM322.022 141.01L321.002 142.73L321.01 142.734L321.018 142.739L322.022 141.01ZM306.859 124.889L305.076 125.794L305.08 125.802L305.084 125.81L306.859 124.889ZM306.859 76.6051L305.081 75.6889L305.079 75.6942L306.859 76.6051ZM322.022 60.4841L323.033 62.2101L323.037 62.2076L322.022 60.4841ZM368.789 60.4841L367.769 62.204L367.777 62.2089L367.785 62.2137L368.789 60.4841ZM383.953 76.6051L382.17 77.5105L382.174 77.5188L382.178 77.527L383.953 76.6051ZM383.953 124.889L382.175 123.972L382.172 123.978L383.953 124.889ZM368.789 141.01L369.8 142.736L369.804 142.733L368.789 141.01ZM355.861 124.011L357.135 125.552L357.144 125.545L357.153 125.537L355.861 124.011ZM362.086 114.434L360.201 113.764L360.197 113.775L360.193 113.786L362.086 114.434ZM362.086 86.8205L360.196 87.4756L360.2 87.4868L360.204 87.4979L362.086 86.8205ZM335.111 77.4032L333.851 75.8501L333.843 75.856L333.836 75.8619L335.111 77.4032ZM328.806 86.8205L326.924 86.143L326.92 86.1542L326.916 86.1654L328.806 86.8205ZM328.806 114.434L326.914 115.081L326.918 115.092L326.921 115.103L328.806 114.434ZM335.111 124.011L333.819 125.537L333.835 125.551L333.851 125.564L335.111 124.011ZM345.406 144.756C336.704 144.756 329.268 142.904 323.027 139.28L321.018 142.739C327.971 146.776 336.125 148.756 345.406 148.756V144.756ZM323.043 139.29C316.825 135.599 312.03 130.505 308.634 123.967L305.084 125.81C308.818 132.999 314.131 138.652 321.002 142.73L323.043 139.29ZM308.642 123.983C305.297 117.393 303.592 109.68 303.592 100.787H299.592C299.592 110.196 301.398 118.551 305.076 125.794L308.642 123.983ZM303.592 100.787C303.592 91.7828 305.298 84.0463 308.64 77.5161L305.079 75.6942C301.397 82.8908 299.592 91.2754 299.592 100.787H303.592ZM308.637 77.5214C312.033 70.9327 316.825 65.844 323.033 62.2101L321.012 58.758C314.132 62.7857 308.815 68.4443 305.081 75.6889L308.637 77.5214ZM323.037 62.2076C329.277 58.5341 336.708 56.6581 345.406 56.6581V52.6581C336.12 52.6581 327.963 54.6662 321.008 58.7606L323.037 62.2076ZM345.406 56.6581C354.16 56.6581 361.587 58.5353 367.769 62.204L369.81 58.7642C362.903 54.665 354.742 52.6581 345.406 52.6581V56.6581ZM367.785 62.2137C374.043 65.8472 378.83 70.9319 382.17 77.5105L385.736 75.6998C382.053 68.4451 376.731 62.7825 369.794 58.7545L367.785 62.2137ZM382.178 77.527C385.568 84.0547 387.3 91.7872 387.3 100.787H391.3C391.3 91.271 389.467 82.8824 385.728 75.6833L382.178 77.527ZM387.3 100.787C387.3 109.675 385.57 117.385 382.175 123.972L385.731 125.805C389.465 118.559 391.3 110.201 391.3 100.787H387.3ZM382.172 123.978C378.833 130.505 374.043 135.596 367.775 139.286L369.804 142.733C376.731 138.655 382.05 132.998 385.733 125.8L382.172 123.978ZM367.779 139.284C361.596 142.903 354.164 144.756 345.406 144.756V148.756C354.737 148.756 362.895 146.778 369.8 142.736L367.779 139.284ZM345.566 129.442C350.058 129.442 353.96 128.178 357.135 125.552L354.586 122.469C352.228 124.419 349.267 125.442 345.566 125.442V129.442ZM357.153 125.537C360.241 122.924 362.499 119.405 363.978 115.081L360.193 113.786C358.906 117.55 357.014 120.415 354.569 122.484L357.153 125.537ZM363.97 115.103C365.497 110.806 366.24 105.971 366.24 100.627H362.24C362.24 105.605 361.548 109.974 360.201 113.764L363.97 115.103ZM366.24 100.627C366.24 95.2332 365.498 90.3941 363.967 86.143L360.204 87.4979C361.547 91.2276 362.24 95.5929 362.24 100.627H366.24ZM363.975 86.1654C362.493 81.8906 360.231 78.4216 357.135 75.8619L354.586 78.9445C357.024 80.9604 358.911 83.7696 360.196 87.4756L363.975 86.1654ZM357.135 75.8619C353.96 73.2362 350.058 71.9715 345.566 71.9715V75.9715C349.267 75.9715 352.228 76.9946 354.586 78.9445L357.135 75.8619ZM345.566 71.9715C341.026 71.9715 337.077 73.2325 333.851 75.8501L336.371 78.9563C338.784 76.9984 341.805 75.9715 345.566 75.9715V71.9715ZM333.836 75.8619C330.747 78.4165 328.46 81.8772 326.924 86.143L330.688 87.4979C332.025 83.7831 333.941 80.9656 336.385 78.9445L333.836 75.8619ZM326.916 86.1654C325.445 90.4092 324.731 95.2404 324.731 100.627H328.731C328.731 95.5857 329.4 91.2125 330.696 87.4756L326.916 86.1654ZM324.731 100.627C324.731 105.964 325.446 110.791 326.914 115.081L330.698 113.786C329.399 109.989 328.731 105.612 328.731 100.627H324.731ZM326.921 115.103C328.454 119.418 330.737 122.929 333.819 125.537L336.403 122.484C333.952 120.41 332.031 117.536 330.691 113.764L326.921 115.103ZM333.851 125.564C337.077 128.181 341.026 129.442 345.566 129.442V125.442C341.805 125.442 338.784 124.416 336.371 122.458L333.851 125.564ZM461.127 55.7754H463.127V53.7754H461.127V55.7754ZM461.127 75.2484V77.2484H463.127V75.2484H461.127ZM424.096 75.2484V73.2484H422.096V75.2484H424.096ZM424.096 145V147H426.096V145H424.096ZM400.234 145H398.234V147H400.234V145ZM400.234 55.7754V53.7754H398.234V55.7754H400.234ZM459.127 55.7754V75.2484H463.127V55.7754H459.127ZM461.127 73.2484H424.096V77.2484H461.127V73.2484ZM422.096 75.2484V145H426.096V75.2484H422.096ZM424.096 143H400.234V147H424.096V143ZM402.234 145V55.7754H398.234V145H402.234ZM400.234 57.7754H461.127V53.7754H400.234V57.7754ZM471.102 178.359H469.102V180.359H471.102V178.359ZM471.102 55.7754V53.7754H469.102V55.7754H471.102ZM495.364 55.7754H497.364V53.7754H495.364V55.7754ZM495.364 70.859H493.364V72.859H495.364V70.859ZM496.481 70.859V72.859H497.767L498.301 71.6896L496.481 70.859ZM509.41 57.212L510.293 59.0065L510.304 59.0009L510.316 58.9951L509.41 57.212ZM539.817 59.7658L538.754 61.4599L538.763 61.466L538.773 61.472L539.817 59.7658ZM553.144 125.687L554.955 126.536L554.958 126.53L553.144 125.687ZM540.136 141.169L539.057 139.485L539.049 139.49L540.136 141.169ZM501.349 138.057L499.824 139.35L499.839 139.368L499.855 139.385L501.349 138.057ZM496.481 130.714L498.285 129.852L497.742 128.714H496.481V130.714ZM495.763 130.714V128.714H493.763V130.714H495.763ZM495.763 178.359V180.359H497.763V178.359H495.763ZM530.479 114.194L532.358 114.88L532.361 114.872L530.479 114.194ZM530.479 86.9003L528.592 87.5633L528.598 87.5787L528.603 87.5941L530.479 86.9003ZM503.744 77.5628L504.963 79.1481L504.967 79.1447L503.744 77.5628ZM497.359 86.6609L495.488 85.9531L495.486 85.9601L495.483 85.9671L497.359 86.6609ZM503.823 123.532L502.567 125.088L502.583 125.101L502.6 125.114L503.823 123.532ZM473.102 178.359V55.7754H469.102V178.359H473.102ZM471.102 57.7754H495.364V53.7754H471.102V57.7754ZM493.364 55.7754V70.859H497.364V55.7754H493.364ZM495.364 72.859H496.481V68.859H495.364V72.859ZM498.301 71.6896C499.331 69.4319 500.824 67.106 502.809 64.7141L499.73 62.1598C497.565 64.7691 495.866 67.3913 494.662 70.0284L498.301 71.6896ZM502.809 64.7141C504.679 62.4603 507.156 60.55 510.293 59.0065L508.527 55.4175C504.96 57.1726 502.01 59.4123 499.73 62.1598L502.809 64.7141ZM510.316 58.9951C513.313 57.4729 517.131 56.6581 521.86 56.6581V52.6581C516.693 52.6581 512.211 53.5459 508.504 55.4288L510.316 58.9951ZM521.86 56.6581C528.037 56.6581 533.652 58.2592 538.754 61.4599L540.88 58.0717C535.127 54.4622 528.772 52.6581 521.86 52.6581V56.6581ZM538.773 61.472C543.872 64.5906 548.023 69.3531 551.185 75.8809L554.785 74.1371C551.349 67.0445 546.722 61.6448 540.86 58.0597L538.773 61.472ZM551.185 75.8809C554.314 82.3415 555.933 90.5336 555.933 100.547H559.933C559.933 90.1304 558.253 81.297 554.785 74.1371L551.185 75.8809ZM555.933 100.547C555.933 110.238 554.369 118.312 551.331 124.843L554.958 126.53C558.305 119.334 559.933 110.649 559.933 100.547H555.933ZM551.333 124.838C548.276 131.36 544.172 136.208 539.057 139.485L541.215 142.853C547.06 139.108 551.628 133.633 554.955 126.536L551.333 124.838ZM539.049 139.49C533.964 142.781 528.226 144.437 521.78 144.437V148.437C528.954 148.437 535.454 146.581 541.222 142.848L539.049 139.49ZM521.78 144.437C517.206 144.437 513.447 143.673 510.429 142.237L508.71 145.848C512.396 147.604 516.777 148.437 521.78 148.437V144.437ZM510.429 142.237C507.281 140.737 504.769 138.893 502.844 136.728L499.855 139.385C502.186 142.009 505.154 144.155 508.71 145.848L510.429 142.237ZM502.875 136.763C500.891 134.424 499.37 132.119 498.285 129.852L494.677 131.577C495.934 134.205 497.658 136.795 499.824 139.35L502.875 136.763ZM496.481 128.714H495.763V132.714H496.481V128.714ZM493.763 130.714V178.359H497.763V130.714H493.763ZM495.763 176.359H471.102V180.359H495.763V176.359ZM513.959 128.804C518.394 128.804 522.26 127.569 525.431 125.008L522.918 121.896C520.555 123.804 517.611 124.804 513.959 124.804V128.804ZM525.431 125.008C528.527 122.507 530.819 119.097 532.358 114.88L528.6 113.509C527.266 117.166 525.355 119.928 522.918 121.896L525.431 125.008ZM532.361 114.872C533.891 110.623 534.634 105.811 534.634 100.468H530.634C530.634 105.446 529.941 109.785 528.597 113.517L532.361 114.872ZM534.634 100.468C534.634 95.1259 533.891 90.3597 532.355 86.2065L528.603 87.5941C529.94 91.2088 530.634 95.4874 530.634 100.468H534.634ZM532.366 86.2373C530.881 82.0114 528.613 78.5926 525.511 76.0868L522.997 79.1985C525.428 81.1619 527.31 83.9149 528.592 87.5633L532.366 86.2373ZM525.511 76.0868C522.335 73.522 518.44 72.2907 513.959 72.2907V76.2907C517.671 76.2907 520.64 77.2941 522.997 79.1985L525.511 76.0868ZM513.959 72.2907C509.581 72.2907 505.732 73.4963 502.52 75.9809L504.967 79.1447C507.395 77.2666 510.356 76.2907 513.959 76.2907V72.2907ZM502.524 75.9776C499.408 78.3749 497.082 81.7406 495.488 85.9531L499.23 87.3687C500.615 83.7068 502.546 81.0072 504.963 79.1481L502.524 75.9776ZM495.483 85.9671C493.945 90.1263 493.204 94.9744 493.204 100.468H497.204C497.204 95.3196 497.9 90.9634 499.235 87.3547L495.483 85.9671ZM493.204 100.468C493.204 105.918 493.975 110.77 495.568 114.982L499.309 113.566C497.924 109.904 497.204 105.551 497.204 100.468H493.204ZM495.568 114.982C497.16 119.19 499.477 122.592 502.567 125.088L505.08 121.976C502.637 120.002 500.697 117.233 499.309 113.566L495.568 114.982ZM502.6 125.114C505.807 127.595 509.628 128.804 513.959 128.804V124.804C510.416 124.804 507.48 123.832 505.047 121.95L502.6 125.114ZM578.922 143.723L578.098 145.545L578.111 145.551L578.124 145.557L578.922 143.723ZM567.27 107.65L569.024 108.612L569.03 108.6L567.27 107.65ZM598.076 92.5666L597.891 90.5752L597.886 90.5756L598.076 92.5666ZM617.389 88.9753L618.499 90.6394L618.505 90.6348L618.512 90.6302L617.389 88.9753ZM616.112 75.7273L614.788 77.2259L614.796 77.2335L614.805 77.2409L616.112 75.7273ZM595.761 75.6475L596.946 77.2592L596.951 77.2551L595.761 75.6475ZM590.574 82.9897L590.414 84.9833L592.047 85.1142L592.497 83.5392L590.574 82.9897ZM567.669 81.1542L565.714 80.7325L565.233 82.9653L567.51 83.1478L567.669 81.1542ZM574.533 67.1081L576.045 68.4164L576.054 68.4063L574.533 67.1081ZM587.701 57.9302L588.437 59.7897L588.447 59.7859L587.701 57.9302ZM632.792 61.8408L631.648 63.4816L631.663 63.4915L631.677 63.5011L632.792 61.8408ZM644.364 145V147H646.364V145H644.364ZM620.821 145H618.821V147H620.821V145ZM620.821 132.55H622.821V130.55H620.821V132.55ZM620.182 132.55V130.55H618.957L618.4 131.642L620.182 132.55ZM614.436 139.972L615.746 141.484L615.756 141.475L615.765 141.467L614.436 139.972ZM605.817 144.92L606.477 146.808L606.49 146.804L606.503 146.799L605.817 144.92ZM610.845 127.442L611.767 129.217L611.773 129.214L611.779 129.211L610.845 127.442ZM617.389 121.537L615.703 120.461L615.697 120.47L617.389 121.537ZM619.783 103.66H621.783V99.9965L618.702 101.977L619.783 103.66ZM616.591 105.017L616.003 103.105L615.992 103.108L615.982 103.112L616.591 105.017ZM607.174 107.012L607.43 108.995L607.461 108.991L607.492 108.986L607.174 107.012ZM602.705 107.65L602.993 109.629L603.007 109.627L603.021 109.625L602.705 107.65ZM595.043 109.725L595.809 111.573L595.828 111.565L595.847 111.556L595.043 109.725ZM589.936 113.476L588.348 112.259L588.342 112.267L589.936 113.476ZM594.165 144.676C588.761 144.676 583.957 143.734 579.72 141.889L578.124 145.557C582.932 147.65 588.29 148.676 594.165 148.676V144.676ZM579.746 141.901C575.61 140.029 572.401 137.297 570.065 133.696L566.71 135.873C569.482 140.146 573.296 143.373 578.098 145.545L579.746 141.901ZM570.065 133.696C567.768 130.155 566.557 125.662 566.557 120.1H562.557C562.557 126.244 563.899 131.54 566.71 135.873L570.065 133.696ZM566.557 120.1C566.557 115.328 567.421 111.535 569.024 108.612L565.517 106.689C563.501 110.363 562.557 114.869 562.557 120.1H566.557ZM569.03 108.6C570.685 105.534 572.934 103.069 575.795 101.178L573.589 97.8414C570.172 100.1 567.474 103.062 565.51 106.7L569.03 108.6ZM575.795 101.178C578.737 99.2335 582.1 97.7475 585.902 96.7337L584.871 92.8687C580.692 93.9831 576.926 95.6362 573.589 97.8414L575.795 101.178ZM585.902 96.7337C589.777 95.7004 593.897 94.9737 598.265 94.5576L597.886 90.5756C593.316 91.0108 588.977 91.7738 584.871 92.8687L585.902 96.7337ZM598.261 94.5581C603.44 94.0775 607.633 93.5945 610.827 93.1072L610.224 89.1529C607.14 89.6234 603.034 90.098 597.891 90.5752L598.261 94.5581ZM610.827 93.1072C614.053 92.6152 616.692 91.8437 618.499 90.6394L616.28 87.3112C615.213 88.0222 613.277 88.6872 610.224 89.1529L610.827 93.1072ZM618.512 90.6302C620.573 89.2321 621.624 87.1635 621.624 84.6657H617.624C617.624 85.8922 617.185 86.6967 616.266 87.3203L618.512 90.6302ZM621.624 84.6657V84.2666H617.624V84.6657H621.624ZM621.624 84.2666C621.624 80.1337 620.283 76.687 617.42 74.2136L614.805 77.2409C616.623 78.8111 617.624 81.0573 617.624 84.2666H621.624ZM617.437 74.2286C614.666 71.7797 610.883 70.6946 606.376 70.6946V74.6946C610.275 74.6946 612.983 75.6313 614.788 77.2259L617.437 74.2286ZM606.376 70.6946C601.673 70.6946 597.675 71.7432 594.572 74.0398L596.951 77.2551C599.168 75.6145 602.246 74.6946 606.376 74.6946V70.6946ZM594.577 74.0357C591.63 76.2011 589.63 79.0149 588.651 82.4403L592.497 83.5392C593.221 81.0056 594.679 78.9246 596.946 77.2592L594.577 74.0357ZM590.734 80.9961L567.829 79.1606L567.51 83.1478L590.414 84.9833L590.734 80.9961ZM569.624 81.5758C570.729 76.4544 572.874 72.0829 576.045 68.4164L573.02 65.7998C569.381 70.0076 566.951 75.0001 565.714 80.7325L569.624 81.5758ZM576.054 68.4063C579.226 64.6889 583.336 61.8102 588.437 59.7897L586.964 56.0708C581.319 58.3067 576.649 61.5466 573.011 65.8098L576.054 68.4063ZM588.447 59.7859C593.591 57.7182 599.607 56.6581 606.535 56.6581V52.6581C599.205 52.6581 592.665 53.7794 586.955 56.0745L588.447 59.7859ZM606.535 56.6581C611.324 56.6581 615.891 57.2244 620.24 58.3501L621.242 54.4777C616.547 53.2624 611.643 52.6581 606.535 52.6581V56.6581ZM620.24 58.3501C624.553 59.4665 628.349 61.1819 631.648 63.4816L633.936 60.2C630.212 57.6048 625.974 55.7023 621.242 54.4777L620.24 58.3501ZM631.677 63.5011C634.969 65.7122 637.57 68.5802 639.493 72.1308L643.01 70.2257C640.783 66.1148 637.744 62.7578 633.907 60.1805L631.677 63.5011ZM639.493 72.1308C641.38 75.6138 642.364 79.8216 642.364 84.8253H646.364C646.364 79.2944 645.274 74.4042 643.01 70.2257L639.493 72.1308ZM642.364 84.8253V145H646.364V84.8253H642.364ZM644.364 143H620.821V147H644.364V143ZM622.821 145V132.55H618.821V145H622.821ZM620.821 130.55H620.182V134.55H620.821V130.55ZM618.4 131.642C617.078 134.237 615.318 136.513 613.108 138.477L615.765 141.467C618.343 139.175 620.413 136.503 621.965 133.458L618.4 131.642ZM613.126 138.461C610.938 140.358 608.283 141.891 605.131 143.041L606.503 146.799C610.055 145.502 613.146 143.737 615.746 141.484L613.126 138.461ZM605.158 143.032C602.062 144.113 598.409 144.676 594.165 144.676V148.676C598.753 148.676 602.868 148.068 606.477 146.808L605.158 143.032ZM601.268 131.597C605.155 131.597 608.673 130.824 611.767 129.217L609.923 125.667C607.484 126.934 604.617 127.597 601.268 127.597V131.597ZM611.779 129.211C614.876 127.575 617.333 125.377 619.081 122.603L615.697 120.47C614.36 122.592 612.454 124.331 609.911 125.674L611.779 129.211ZM619.075 122.613C620.885 119.777 621.783 116.608 621.783 113.157H617.783C617.783 115.878 617.086 118.295 615.703 120.461L619.075 122.613ZM621.783 113.157V103.66H617.783V113.157H621.783ZM618.702 101.977C618.176 102.315 617.307 102.704 616.003 103.105L617.179 106.928C618.642 106.478 619.901 105.962 620.865 105.342L618.702 101.977ZM615.982 103.112C614.74 103.509 613.329 103.863 611.742 104.17L612.502 108.097C614.214 107.766 615.782 107.375 617.201 106.921L615.982 103.112ZM611.742 104.17C610.113 104.486 608.484 104.775 606.855 105.037L607.492 108.986C609.162 108.717 610.832 108.421 612.502 108.097L611.742 104.17ZM606.918 105.028C605.253 105.243 603.743 105.459 602.389 105.675L603.021 109.625C604.327 109.416 605.796 109.206 607.43 108.995L606.918 105.028ZM602.417 105.671C599.354 106.117 596.619 106.849 594.239 107.894L595.847 111.556C597.83 110.686 600.203 110.035 602.993 109.629L602.417 105.671ZM594.277 107.878C591.828 108.893 589.82 110.339 588.348 112.259L591.523 114.693C592.498 113.421 593.895 112.366 595.809 111.573L594.277 107.878ZM588.342 112.267C586.856 114.226 586.18 116.618 586.18 119.302H590.18C590.18 117.304 590.674 115.812 591.529 114.685L588.342 112.267ZM586.18 119.302C586.18 123.214 587.649 126.411 590.685 128.589L593.017 125.338C591.158 124.005 590.18 122.094 590.18 119.302H586.18ZM590.685 128.589C593.555 130.647 597.133 131.597 601.268 131.597V127.597C597.742 127.597 595.042 126.791 593.017 125.338L590.685 128.589ZM701.347 175.327H699.347V177.327H701.347V175.327ZM701.347 26.0871V24.0871H699.347V26.0871H701.347ZM726.007 26.0871H728.007V24.0871H726.007V26.0871ZM726.007 175.327V177.327H728.007V175.327H726.007ZM682.592 143.404L681.855 145.263L681.861 145.266L682.592 143.404ZM667.987 133.987L666.573 135.401L666.582 135.41L667.987 133.987ZM658.49 82.1119L660.349 82.8486L660.352 82.8426L658.49 82.1119ZM682.592 58.01L683.313 59.8754L683.323 59.8718L682.592 58.01ZM705.975 54.6581H707.975V52.6581H705.975V54.6581ZM705.975 146.756V148.756H707.975V146.756H705.975ZM704.14 127.442V129.442H706.14V127.442H704.14ZM704.14 73.9715H706.14V71.9715H704.14V73.9715ZM690.094 77.5628L688.881 75.9726L688.874 75.9776L688.868 75.9827L690.094 77.5628ZM682.991 87.2195L681.139 86.4641L681.135 86.4746L681.131 86.4852L682.991 87.2195ZM681.953 111.242L680.027 111.778L680.029 111.787L681.953 111.242ZM686.024 119.701L684.415 120.89L684.421 120.898L684.428 120.907L686.024 119.701ZM721.458 146.756H719.458V148.756H721.458V146.756ZM721.458 54.6581V52.6581H719.458V54.6581H721.458ZM744.762 58.01L744.025 59.8694L744.035 59.8736L744.046 59.8776L744.762 58.01ZM768.943 82.1119L767.082 82.8426L767.086 82.8532L767.09 82.8637L768.943 82.1119ZM768.943 119.382L767.09 118.63L767.087 118.638L767.084 118.645L768.943 119.382ZM759.446 133.987L760.851 135.41L760.86 135.401L759.446 133.987ZM744.762 143.404L744.031 141.542L744.025 141.544L744.762 143.404ZM734.866 125.367L733.928 123.601L733.921 123.605L733.913 123.609L734.866 125.367ZM741.41 119.701L739.801 118.512L739.797 118.518L741.41 119.701ZM745.56 111.242L747.475 111.816L747.478 111.808L745.56 111.242ZM737.34 77.5628L736.114 79.143L736.12 79.1481L736.127 79.1531L737.34 77.5628ZM723.373 73.9715V71.9715H721.373V73.9715H723.373ZM723.373 127.442H721.373V129.442H723.373V127.442ZM703.347 175.327V26.0871H699.347V175.327H703.347ZM701.347 28.0871H726.007V24.0871H701.347V28.0871ZM724.007 26.0871V175.327H728.007V26.0871H724.007ZM726.007 173.327H701.347V177.327H726.007V173.327ZM701.347 144.756C694.758 144.756 688.758 143.676 683.323 141.542L681.861 145.266C687.812 147.601 694.315 148.756 701.347 148.756V144.756ZM683.329 141.544C677.925 139.403 673.287 136.408 669.392 132.563L666.582 135.41C670.88 139.652 675.979 142.935 681.855 145.263L683.329 141.544ZM669.401 132.572C665.507 128.678 662.488 124.043 660.349 118.645L656.631 120.119C658.961 126 662.274 131.102 666.573 135.401L669.401 132.572ZM660.349 118.645C658.218 113.265 657.138 107.32 657.138 100.787H653.138C653.138 107.767 654.293 114.219 656.631 120.119L660.349 118.645ZM657.138 100.787C657.138 94.198 658.218 88.2268 660.349 82.8486L656.631 81.3751C654.292 87.2764 653.138 93.7551 653.138 100.787H657.138ZM660.352 82.8426C662.491 77.3914 665.51 72.733 669.401 68.8415L666.573 66.0131C662.271 70.3152 658.958 75.4465 656.628 81.3811L660.352 82.8426ZM669.401 68.8415C673.292 64.9503 677.922 61.9608 683.313 59.8754L681.87 56.1447C675.982 58.4221 670.875 61.7107 666.573 66.0131L669.401 68.8415ZM683.323 59.8718C688.758 57.7383 694.758 56.6581 701.347 56.6581V52.6581C694.315 52.6581 687.812 53.8125 681.861 56.1483L683.323 59.8718ZM701.347 56.6581H705.975V52.6581H701.347V56.6581ZM703.975 54.6581V146.756H707.975V54.6581H703.975ZM705.975 144.756H701.347V148.756H705.975V144.756ZM701.347 129.442H704.14V125.442H701.347V129.442ZM706.14 127.442V73.9715H702.14V127.442H706.14ZM704.14 71.9715H701.347V75.9715H704.14V71.9715ZM701.347 71.9715C696.594 71.9715 692.405 73.2845 688.881 75.9726L691.307 79.1531C694.06 77.0527 697.373 75.9715 701.347 75.9715V71.9715ZM688.868 75.9827C685.473 78.6167 682.905 82.1347 681.139 86.4641L684.843 87.9749C686.375 84.2172 688.543 81.2974 691.32 79.143L688.868 75.9827ZM681.131 86.4852C679.429 90.795 678.597 95.5715 678.597 100.787H682.597C682.597 95.9995 683.36 91.7312 684.851 87.9539L681.131 86.4852ZM678.597 100.787C678.597 104.674 679.069 108.341 680.027 111.778L683.88 110.705C683.029 107.651 682.597 104.349 682.597 100.787H678.597ZM680.029 111.787C680.993 115.19 682.451 118.232 684.415 120.89L687.632 118.512C685.978 116.275 684.722 113.678 683.878 110.696L680.029 111.787ZM684.428 120.907C686.403 123.521 688.801 125.602 691.615 127.126L693.52 123.609C691.226 122.366 689.262 120.669 687.619 118.495L684.428 120.907ZM691.615 127.126C694.499 128.688 697.761 129.442 701.347 129.442V125.442C698.335 125.442 695.744 124.813 693.52 123.609L691.615 127.126ZM726.007 144.756H721.458V148.756H726.007V144.756ZM723.458 146.756V54.6581H719.458V146.756H723.458ZM721.458 56.6581H726.007V52.6581H721.458V56.6581ZM726.007 56.6581C732.651 56.6581 738.649 57.7391 744.025 59.8694L745.498 56.1507C739.595 53.8118 733.09 52.6581 726.007 52.6581V56.6581ZM744.046 59.8776C749.491 61.964 754.144 64.9535 758.032 68.8415L760.86 66.0131C756.555 61.7075 751.418 58.4189 745.477 56.1425L744.046 59.8776ZM758.032 68.8415C761.923 72.733 764.942 77.3914 767.082 82.8426L770.805 81.3811C768.476 75.4465 765.163 70.3152 760.86 66.0131L758.032 68.8415ZM767.09 82.8637C769.27 88.2378 770.375 94.2037 770.375 100.787H774.375C774.375 93.7494 773.192 87.2654 770.797 81.36L767.09 82.8637ZM770.375 100.787C770.375 107.314 769.271 113.254 767.09 118.63L770.797 120.134C773.191 114.23 774.375 107.773 774.375 100.787H770.375ZM767.084 118.645C764.945 124.043 761.927 128.678 758.032 132.572L760.86 135.401C765.159 131.102 768.472 126 770.803 120.119L767.084 118.645ZM758.041 132.563C754.149 136.405 749.488 139.4 744.031 141.542L745.492 145.266C751.421 142.938 756.55 139.656 760.851 135.41L758.041 132.563ZM744.025 141.544C738.649 143.675 732.651 144.756 726.007 144.756V148.756C733.09 148.756 739.595 147.602 745.498 145.263L744.025 141.544ZM726.007 129.442C729.64 129.442 732.93 128.691 735.818 127.126L733.913 123.609C731.694 124.811 729.078 125.442 726.007 125.442V129.442ZM735.803 127.134C738.678 125.609 741.09 123.52 743.023 120.884L739.797 118.518C738.218 120.671 736.267 122.36 733.928 123.601L735.803 127.134ZM743.018 120.89C744.977 118.24 746.458 115.208 747.475 111.816L743.644 110.667C742.746 113.659 741.461 116.267 739.801 118.512L743.018 120.89ZM747.478 111.808C748.495 108.361 748.996 104.684 748.996 100.787H744.996C744.996 104.339 744.54 107.631 743.642 110.675L747.478 111.808ZM748.996 100.787C748.996 95.5638 748.134 90.7798 746.374 86.4641L742.67 87.9749C744.209 91.7464 744.996 96.0072 744.996 100.787H748.996ZM746.374 86.4641C744.605 82.1263 742.005 78.6056 738.552 75.9726L736.127 79.1531C738.953 81.3085 741.141 84.2256 742.67 87.9749L746.374 86.4641ZM738.566 75.9827C735.079 73.2779 730.853 71.9715 726.007 71.9715V75.9715C730.099 75.9715 733.428 77.0594 736.114 79.143L738.566 75.9827ZM726.007 71.9715H723.373V75.9715H726.007V71.9715ZM721.373 73.9715V127.442H725.373V73.9715H721.373ZM723.373 129.442H726.007V125.442H723.373V129.442ZM806.852 112.359H804.852V119.941L808.592 113.345L806.852 112.359ZM838.934 55.7754V53.7754H837.769L837.194 54.789L838.934 55.7754ZM863.355 55.7754H865.355V53.7754H863.355V55.7754ZM863.355 145V147H865.355V145H863.355ZM839.812 145H837.812V147H839.812V145ZM839.812 88.3368H841.812V80.7288L838.071 87.3533L839.812 88.3368ZM807.809 145V147H808.977L809.551 145.984L807.809 145ZM783.309 145H781.309V147H783.309V145ZM783.309 55.7754V53.7754H781.309V55.7754H783.309ZM806.852 55.7754H808.852V53.7754H806.852V55.7754ZM808.592 113.345L840.674 56.7619L837.194 54.789L805.112 111.372L808.592 113.345ZM838.934 57.7754H863.355V53.7754H838.934V57.7754ZM861.355 55.7754V145H865.355V55.7754H861.355ZM863.355 143H839.812V147H863.355V143ZM841.812 145V88.3368H837.812V145H841.812ZM838.071 87.3533L806.068 144.016L809.551 145.984L841.554 89.3204L838.071 87.3533ZM807.809 143H783.309V147H807.809V143ZM785.309 145V55.7754H781.309V145H785.309ZM783.309 57.7754H806.852V53.7754H783.309V57.7754ZM804.852 55.7754V112.359H808.852V55.7754H804.852ZM901.503 112.359H899.503V119.941L903.243 113.345L901.503 112.359ZM933.586 55.7754V53.7754H932.421L931.846 54.789L933.586 55.7754ZM958.007 55.7754H960.007V53.7754H958.007V55.7754ZM958.007 145V147H960.007V145H958.007ZM934.464 145H932.464V147H934.464V145ZM934.464 88.3368H936.464V80.7288L932.722 87.3533L934.464 88.3368ZM902.461 145V147H903.628L904.202 145.984L902.461 145ZM877.96 145H875.96V147H877.96V145ZM877.96 55.7754V53.7754H875.96V55.7754H877.96ZM901.503 55.7754H903.503V53.7754H901.503V55.7754ZM903.243 113.345L935.326 56.7619L931.846 54.789L899.763 111.372L903.243 113.345ZM933.586 57.7754H958.007V53.7754H933.586V57.7754ZM956.007 55.7754V145H960.007V55.7754H956.007ZM958.007 143H934.464V147H958.007V143ZM936.464 145V88.3368H932.464V145H936.464ZM932.722 87.3533L900.719 144.016L904.202 145.984L936.205 89.3204L932.722 87.3533ZM902.461 143H877.96V147H902.461V143ZM879.96 145V55.7754H875.96V145H879.96ZM877.96 57.7754H901.503V53.7754H877.96V57.7754ZM899.503 55.7754V112.359H903.503V55.7754H899.503Z" fill="black" mask="url(#path-1-outside-1_385_4027)"/>
</svg>
