<svg width="506" height="144" viewBox="0 0 506 144" fill="none" xmlns="http://www.w3.org/2000/svg">
<path fill-rule="evenodd" clip-rule="evenodd" d="M217.939 84.6786L217.935 84.6703C213.75 76.4268 211.695 66.765 211.695 55.7482C211.695 45.0254 213.754 35.5183 217.935 27.2823L217.941 27.2715C222.18 19.0451 228.152 12.589 235.842 7.94948L235.848 7.94573C243.626 3.29174 252.693 1 262.976 1C269.946 1 276.48 2.1306 282.561 4.40986C288.662 6.63575 294.014 10.0115 298.598 14.5301C303.215 19.0209 306.771 24.6654 309.293 31.4116C311.829 38.1355 313.07 45.9574 313.07 54.8356V64.5014H243.687C244.022 68.2262 244.886 71.4512 246.242 74.2069C248.03 77.7813 250.484 80.4963 253.601 82.4149C256.785 84.2767 260.468 85.2328 264.71 85.2328C267.681 85.2328 270.308 84.8043 272.615 83.9804C274.921 83.1569 276.862 81.9636 278.469 80.4105L278.48 80.3991L278.492 80.3879C280.143 78.8439 281.37 76.9819 282.178 74.7731L282.693 73.3653L312.574 75.3504L312.117 77.5938C310.772 84.188 307.945 89.9808 303.635 94.9339C299.39 99.8217 293.918 103.613 287.279 106.332L287.271 106.335L287.263 106.338C280.593 109.006 272.94 110.314 264.345 110.314C253.606 110.314 244.221 108.127 236.263 103.671C228.312 99.2182 222.197 92.8761 217.944 84.6868L217.939 84.6786ZM302.126 93.621C305.768 89.435 308.294 84.6174 309.701 79.1684C309.869 78.5193 310.021 77.8612 310.157 77.1942L284.057 75.4603C283.144 77.9547 281.745 80.0841 279.859 81.8485C278.034 83.6128 275.843 84.9513 273.288 85.8639C270.733 86.7765 267.873 87.2328 264.71 87.2328C260.147 87.2328 256.101 86.1985 252.572 84.13C249.104 82.0006 246.397 78.989 244.45 75.0953C242.944 72.037 242.021 68.5057 241.68 64.5014C241.624 63.8474 241.584 63.1807 241.559 62.5014H311.07V54.8356C311.07 46.1355 309.853 38.5609 307.419 32.1119C304.986 25.602 301.579 20.2177 297.198 15.9589C292.818 11.6393 287.707 8.41475 281.866 6.28535C276.026 4.09512 269.729 3 262.976 3C252.998 3 244.298 5.22065 236.875 9.66197C229.514 14.1033 223.795 20.2785 219.718 28.1877C215.703 36.0969 213.695 45.2837 213.695 55.7482C213.695 66.5168 215.703 75.8558 219.718 83.7649C223.795 91.6133 229.635 97.6669 237.24 101.926C244.845 106.184 253.88 108.314 264.345 108.314C272.74 108.314 280.132 107.036 286.521 104.481C292.909 101.865 298.111 98.2448 302.126 93.621ZM241.944 43.0708C241.84 43.7248 241.755 44.3915 241.69 45.0708H284.017C283.947 44.3905 283.862 43.7238 283.76 43.0708C283.369 40.5532 282.738 38.2387 281.866 36.1273C280.285 32.2944 277.912 29.3437 274.748 27.2751C271.645 25.1457 267.782 24.081 263.158 24.081C258.534 24.081 254.61 25.1457 251.386 27.2751C248.222 29.4045 245.788 32.2944 244.085 35.9448C243.068 38.1248 242.354 40.5002 241.944 43.0708ZM252.496 28.9385C249.654 30.853 247.455 33.4526 245.897 36.7906C245.007 38.6991 244.361 40.7897 243.971 43.0708H281.735C281.363 40.8135 280.787 38.7556 280.018 36.8903C278.574 33.3923 276.447 30.7756 273.654 28.9491L273.635 28.9368L273.616 28.9241C270.916 27.071 267.471 26.081 263.158 26.081C258.852 26.081 255.333 27.068 252.496 28.9385Z" fill="black"/>
<path fill-rule="evenodd" clip-rule="evenodd" d="M427.83 106.674L427.817 106.668C422.374 104.206 418.056 100.552 414.917 95.7132C411.74 90.8153 410.215 84.8163 410.215 77.8331C410.215 71.8867 411.289 66.7865 413.562 62.6393C415.784 58.5234 418.836 55.1748 422.702 52.6196C426.489 50.1166 430.767 48.2383 435.518 46.9712C440.197 45.7236 445.143 44.8537 450.354 44.3574L450.359 44.357C456.243 43.8111 460.945 43.2677 464.479 42.7286C467.976 42.1952 470.238 41.4291 471.512 40.5825C472.641 39.8143 473.184 38.8046 473.184 37.3137V36.8574C473.184 33.1212 472.016 30.4665 469.861 28.6062L469.853 28.5988L469.844 28.5913C467.712 26.7065 464.538 25.6247 460.035 25.6247C455.272 25.6247 451.686 26.6859 449.087 28.609L449.082 28.6131C446.441 30.5533 444.735 32.9856 443.889 35.9467L443.439 37.5217L413.337 35.1094L413.819 32.8766C415.223 26.3687 417.979 20.7066 422.104 15.9353C426.229 11.1022 431.525 7.42497 437.939 4.88424C444.426 2.27726 451.866 1 460.218 1C466.035 1 471.618 1.68824 476.963 3.07152C482.337 4.46251 487.147 6.62136 491.371 9.56267C495.714 12.4823 499.152 16.2826 501.674 20.9382C504.235 25.6664 505.475 31.2095 505.475 37.4962V108.306H474.553V97.804C473.376 99.3281 472.052 100.744 470.581 102.052L470.572 102.06L470.562 102.068C467.619 104.619 464.115 106.621 460.082 108.094L460.069 108.098L460.056 108.103C455.966 109.531 451.294 110.223 446.072 110.223C439.388 110.223 433.3 109.055 427.843 106.68L427.83 106.674ZM474.553 94.3111C475.008 93.5864 475.431 92.8393 475.823 92.0696H476.553V106.306H503.475V37.4962C503.475 31.4731 502.288 26.2713 499.916 21.8908C497.543 17.5103 494.318 13.9512 490.242 11.2134C486.227 8.41475 481.633 6.3462 476.462 5.00772C471.29 3.66924 465.876 3 460.218 3C452.065 3 444.886 4.24722 438.68 6.74165C432.535 9.17524 427.516 12.6735 423.622 17.2365C420.146 21.2556 417.689 25.9534 416.249 31.3299C416.076 31.9762 415.918 32.6323 415.774 33.2983L441.966 35.3972C442.939 31.9902 444.916 29.1916 447.897 27.0013C450.939 24.7503 454.985 23.6247 460.035 23.6247C464.841 23.6247 468.553 24.7807 471.169 27.0926C473.846 29.4045 475.184 32.6594 475.184 36.8574V37.3137C475.184 39.4431 474.332 41.0858 472.629 42.2417C470.986 43.3368 468.37 44.1582 464.781 44.7057C461.191 45.2533 456.445 45.8009 450.544 46.3484C445.433 46.8351 440.597 47.6869 436.034 48.9037C431.471 50.1205 427.394 51.9153 423.805 54.288C420.215 56.6608 417.386 59.7636 415.318 63.5965C413.249 67.3686 412.215 72.1141 412.215 77.8331C412.215 84.5254 413.675 90.1227 416.595 94.6249C419.516 99.127 423.531 102.534 428.642 104.846C433.813 107.097 439.623 108.223 446.072 108.223C451.122 108.223 455.563 107.553 459.396 106.215C463.229 104.816 466.514 102.93 469.252 100.557C471.337 98.7041 473.103 96.6222 474.553 94.3111ZM470.937 78.4091L470.943 78.3996C472.555 75.8749 473.367 73.057 473.367 69.8934V62.1475C473.028 62.2665 472.677 62.3816 472.314 62.4935C470.708 63.007 468.93 63.4499 466.986 63.8261C465.079 64.1951 463.173 64.5334 461.266 64.8409L461.235 64.846L461.204 64.85C459.333 65.0913 457.65 65.3319 456.153 65.5714L456.139 65.5737L456.125 65.5757C452.916 66.0425 450.176 66.7926 447.88 67.8006L447.861 67.8089L447.842 67.8168C445.616 68.7396 443.976 69.9725 442.825 71.4727C441.804 72.8208 441.228 74.5895 441.228 76.9205C441.228 80.1932 442.382 82.4709 444.592 84.0563C446.968 85.7612 450.118 86.693 454.194 86.693C458.059 86.693 461.382 85.928 464.217 84.4578C467.161 82.901 469.379 80.8804 470.937 78.4091ZM465.146 86.229C461.982 87.8716 458.331 88.693 454.194 88.693C449.814 88.693 446.224 87.6891 443.426 85.6814C440.627 83.6737 439.228 80.7534 439.228 76.9205C439.228 74.2435 439.897 72.0228 441.235 70.2585C442.635 68.4333 444.582 67.0036 447.076 65.9693C449.571 64.8742 452.491 64.0832 455.837 63.5965C457.358 63.3532 459.062 63.1098 460.948 62.8664C462.834 62.5622 464.72 62.2276 466.606 61.8626C468.492 61.4975 470.195 61.0717 471.716 60.5849C472.319 60.3993 472.87 60.2093 473.367 60.0149C474.173 59.6994 474.84 59.3723 475.367 59.0335V69.8934C475.367 73.4222 474.454 76.6163 472.629 79.4757C470.865 82.2744 468.37 84.5254 465.146 86.229Z" fill="black"/>
<path fill-rule="evenodd" clip-rule="evenodd" d="M315.301 28.5452V4.27783H411.564V28.5452H378.802V108.306H347.881V28.5452H315.301ZM349.881 26.5452V106.306H376.802V26.5452H409.564V4.27783H317.301V26.5452H349.881Z" fill="black"/>
<path fill-rule="evenodd" clip-rule="evenodd" d="M116.266 108.306V2.27783H161.624C174.44 2.33977 184.814 4.81313 192.551 9.90512C200.425 15.0253 204.407 22.4437 204.407 31.9296C204.407 37.9829 202.09 43.1145 197.537 47.1986L197.536 47.1997C195.011 49.4602 191.956 51.2799 188.401 52.6829C191.026 53.395 193.457 54.3438 195.685 55.5365C200.273 57.9919 203.864 61.2305 206.382 65.2705C208.9 69.2487 210.157 73.6655 210.157 78.4721C210.157 84.6389 208.46 90.0599 205.011 94.6387C201.636 99.1388 196.793 102.534 190.617 104.89L190.609 104.893L190.6 104.896C184.414 107.192 176.985 108.306 168.367 108.306H116.266ZM203.411 93.4387C206.575 89.2407 208.157 84.2519 208.157 78.4721C208.157 74.0308 207.001 69.9849 204.689 66.3345C202.377 62.6233 199.061 59.6117 194.741 57.2998C191.831 55.7419 188.519 54.6122 184.807 53.9107C183.011 53.5712 181.12 53.332 179.136 53.1931C181.106 52.8319 182.959 52.3864 184.695 51.8568C189.39 50.424 193.225 48.375 196.202 45.7098C200.339 41.9986 202.407 37.4052 202.407 31.9296C202.407 23.1078 198.757 16.3241 191.456 11.5786C184.155 6.77226 174.208 4.33867 161.614 4.27783H118.266V106.306H168.367C176.824 106.306 184.003 105.211 189.905 103.021C195.806 100.77 200.308 97.5758 203.411 93.4387ZM178.87 74.5495L178.87 74.514C178.923 71.3865 177.987 69.1469 176.231 67.5334L176.221 67.5236L176.21 67.5137C174.419 65.8197 171.887 64.8666 168.367 64.8666H146.548V83.134H168.367C171.946 83.134 174.512 82.2701 176.3 80.7719C178.029 79.3237 178.921 77.3472 178.87 74.5849L178.87 74.5495ZM144.548 85.134V62.8666H168.367C172.261 62.8666 175.333 63.9313 177.585 66.0607C179.836 68.1293 180.931 70.9583 180.87 74.5479C180.931 77.8333 179.836 80.4189 177.585 82.305C175.333 84.191 172.261 85.134 168.367 85.134H144.548ZM162.267 44.2574L162.281 44.2576C166.267 44.3145 169.077 43.4842 170.968 42.0351C172.832 40.5487 173.759 38.6153 173.759 36.0363C173.759 33.5912 172.805 31.7726 170.79 30.3813L170.767 30.3657L170.745 30.3495C168.71 28.8603 165.741 27.9977 161.614 27.9977H146.548V44.2574H162.267ZM144.548 46.2574V25.9977H161.614C165.995 25.9977 169.432 26.9103 171.926 28.7355C174.482 30.4998 175.759 32.9334 175.759 36.0363C175.759 39.1999 174.573 41.7248 172.2 43.6108C169.827 45.436 166.512 46.3182 162.253 46.2574H144.548Z" fill="black"/>
<path fill-rule="evenodd" clip-rule="evenodd" d="M93.0696 2.27783V84.7767H109.405V141.069H77.8446V108.306H0V2.27783H30.9216V82.0389H62.513V2.27783H93.0696ZM64.513 84.0389H28.9216V4.27783H2V106.306H79.8446V141.069H107.405V86.7767H91.0696V4.27783H64.513V84.0389Z" fill="black"/>
<circle cx="78.6085" cy="140.913" r="2.91315" fill="black"/>
<circle cx="109.608" cy="140.913" r="2.91315" fill="black"/>
<circle cx="316.608" cy="2.91315" r="2.91315" fill="black"/>
<circle cx="410.608" cy="3.91315" r="2.91315" fill="black"/>
</svg>
