<svg width="274" height="107" viewBox="0 0 274 107" fill="none" xmlns="http://www.w3.org/2000/svg">
<path d="M1.41406 35.3794C1.41406 31.5538 1.41406 27.7281 1.41406 23.9025C1.41406 13.7703 7.68059 7.676 16.7874 3.89065C25.5025 0.268091 35.4035 0.308736 42.6834 6.77977C49.3017 12.6627 47.693 25.3569 47.693 33.471C47.693 41.4788 44.8426 48.454 43.3991 56.2129C42.482 61.1423 40.9838 65.8989 39.6088 70.7115C38.2441 75.4879 37.7766 80.829 36.9317 85.7402C36.3886 88.8971 36.4163 92.474 37.4618 95.4943C38.4653 98.3933 42.1467 100.053 44.9099 100.954C47.7488 101.88 50.4493 102.174 53.3917 102.174C56.0216 102.174 58.6139 96.6514 59.5675 94.9642C61.9146 90.8116 63.7973 86.3485 65.5578 81.9234C66.9081 78.5294 68.8707 74.8511 69.1361 71.1356C69.6012 64.6244 68.9555 58.0195 69.1626 51.4949C69.3909 44.303 72.3181 37.0679 73.483 30.0783C74.4766 24.117 77.0243 15.832 81.6733 11.7894C84.8792 9.00162 87.1469 5.81993 91.3214 4.20872C96.1238 2.35515 102.518 2.6658 107.596 2.53886C109.92 2.48077 111.941 3.5415 113.772 4.92438C118.113 8.20465 121.472 14.5842 122.969 19.7411C124.783 25.9903 122.928 32.6813 122.015 38.8782C120.426 49.6617 116.953 60.0006 115.176 70.6585C114.531 74.5302 114.01 78.3038 114.01 82.2415C114.01 86.5856 113.384 91.4943 114.54 95.7064C116.405 102.499 118.983 106.097 126.68 105.991C131.536 105.923 133.928 103.499 136.54 99.6822C141.004 93.1574 144.053 86.3551 145.685 78.5837C146.748 73.5147 146.735 68.6386 146.957 63.5285C147.173 58.5537 148.076 53.66 148.733 48.7383C149.651 41.8527 151.918 35.0562 153.848 28.4084C155.166 23.8697 157.088 17.114 161.72 14.864C163.212 14.1395 165.235 14.2706 166.863 14.3869C169.347 14.5644 168.877 19.8317 168.877 21.3314C168.877 33.2029 168.407 44.4049 166.385 56.1599C164.681 66.071 160.151 75.5501 158.911 85.4752C158.374 89.7737 159.798 95.3032 163.735 97.4027C166.469 98.8609 170.503 98.8036 173.542 98.834C178.175 98.8804 182.96 99.2495 187.484 98.1184C191.514 97.1109 194.776 94.923 198.457 93.0823C202.728 90.9469 207.898 87.7619 211.233 84.3619C215.6 79.9091 219.341 72.441 218.761 66.126C218.114 59.0921 216.971 49.8599 211.949 44.5504C209.742 42.2171 207.669 39.7544 205.614 37.2878C204.294 35.7036 202.423 33.9722 201.824 31.9337C200.044 25.8837 200.688 20.3215 205.508 16.0303C209.8 12.2091 215.857 9.69106 221.093 7.49543C226.742 5.12641 232.487 3.87351 238.64 4.47378C246.994 5.28882 252.971 10.7884 257.857 17.1965C262.169 22.8524 265.348 29.5472 268.114 36.0686C270.362 41.3675 270.148 45.1956 267.319 50.2226C261.914 59.8259 251.332 67.8224 239.965 67.8224" stroke="black" stroke-width="0.871298" stroke-linecap="round"/>
<mask id="path-2-outside-1_1052_1498" maskUnits="userSpaceOnUse" x="13.8663" y="9.44043" width="225" height="84" fill="black">
<rect fill="white" x="13.8663" y="9.44043" width="225" height="84"/>
<path d="M14.641 75.4404V29.0655H27.4584V47.0679H31.1086L43.6772 29.0655H58.776L42.3913 52.1285L58.9419 75.4404H43.6772L32.2286 59.0142H27.4584V75.4404H14.641ZM63.4284 92.7792C61.7968 92.8068 60.2621 92.6962 58.8241 92.4473C57.4138 92.1985 56.2523 91.8804 55.3397 91.4933L58.2434 81.9113L58.6582 81.9943C60.8151 82.6303 62.6541 82.7686 64.175 82.4091C65.7236 82.0773 66.8989 80.8605 67.7009 78.7589L68.4475 76.7678L51.8554 29.0655H65.3365L74.9184 63.1208H75.4162L85.1226 29.0655H98.6866L80.6842 80.4595C79.8269 82.9484 78.6517 85.1192 77.1584 86.9719C75.6927 88.8247 73.8399 90.2489 71.6 91.2444C69.3601 92.2676 66.6362 92.7792 63.4284 92.7792ZM94.3743 75.4404L94.3328 65.2778H95.8676C97.3333 65.2501 98.5224 64.7523 99.4349 63.7845C100.375 62.8166 101.08 61.1989 101.55 58.9313C102.048 56.636 102.366 53.5389 102.504 49.6397L103.293 29.0655H138.509V75.4404H126.273V39.1867H114.824L114.077 53.3729C113.884 57.2444 113.414 60.5767 112.667 63.3697C111.92 66.1627 110.883 68.4579 109.556 70.2554C108.256 72.0252 106.652 73.3388 104.744 74.196C102.864 75.0256 100.693 75.4404 98.232 75.4404H94.3743ZM167.214 76.353C162.457 76.353 158.351 75.3851 154.894 73.4494C151.437 71.5136 148.783 68.7621 146.93 65.1948C145.105 61.5999 144.192 57.355 144.192 52.4604C144.192 47.704 145.105 43.5283 146.93 39.9333C148.783 36.3384 151.382 33.5315 154.728 31.5128C158.102 29.4941 162.056 28.4848 166.591 28.4848C169.661 28.4848 172.523 28.9825 175.178 29.9781C177.833 30.9459 180.155 32.4116 182.147 34.375C184.138 36.3107 185.686 38.7581 186.792 41.717C187.898 44.6483 188.452 48.0911 188.452 52.0456V55.5299H149.294V47.6072H182.23L176.256 49.6812C176.256 47.3306 175.897 45.2843 175.178 43.5421C174.459 41.7999 173.38 40.4587 171.942 39.5185C170.532 38.5507 168.776 38.0667 166.674 38.0667C164.573 38.0667 162.789 38.5507 161.323 39.5185C159.885 40.4864 158.779 41.7999 158.005 43.4592C157.231 45.1184 156.844 47.0265 156.844 49.1834V54.7833C156.844 57.2997 157.286 59.4567 158.171 61.2542C159.056 63.024 160.286 64.3929 161.863 65.3607C163.467 66.3009 165.306 66.7711 167.38 66.7711C168.818 66.7711 170.117 66.5637 171.279 66.1489C172.44 65.734 173.436 65.1257 174.265 64.3237C175.123 63.5218 175.759 62.5539 176.173 61.4201L188.037 62.2082C187.456 65.0565 186.239 67.5454 184.386 69.6747C182.561 71.7763 180.197 73.4217 177.293 74.6108C174.39 75.7723 171.03 76.353 167.214 76.353ZM157.175 22.7605C155.406 22.7605 153.898 22.1521 152.654 20.9354C151.41 19.7186 150.801 18.2806 150.829 16.6214C150.801 14.9069 151.41 13.4689 152.654 12.3075C153.898 11.1184 155.406 10.51 157.175 10.4823C158.89 10.51 160.356 11.1184 161.572 12.3075C162.817 13.4689 163.439 14.9069 163.439 16.6214C163.439 18.2806 162.817 19.7186 161.572 20.9354C160.356 22.1521 158.89 22.7605 157.175 22.7605ZM175.593 22.7605C173.85 22.7605 172.357 22.1521 171.113 20.9354C169.868 19.7186 169.246 18.2806 169.246 16.6214C169.246 14.9069 169.868 13.4689 171.113 12.3075C172.357 11.1184 173.85 10.51 175.593 10.4823C177.335 10.51 178.814 11.1184 180.031 12.3075C181.248 13.4689 181.856 14.9069 181.856 16.6214C181.856 18.2806 181.248 19.7186 180.031 20.9354C178.814 22.1521 177.335 22.7605 175.593 22.7605ZM193.119 75.4404V29.0655H205.936V47.0679H209.587L222.155 29.0655H237.254L220.869 52.1285L237.42 75.4404H222.155L210.707 59.0142H205.936V75.4404H193.119Z"/>
</mask>
<path d="M14.641 75.4404V29.0655H27.4584V47.0679H31.1086L43.6772 29.0655H58.776L42.3913 52.1285L58.9419 75.4404H43.6772L32.2286 59.0142H27.4584V75.4404H14.641ZM63.4284 92.7792C61.7968 92.8068 60.2621 92.6962 58.8241 92.4473C57.4138 92.1985 56.2523 91.8804 55.3397 91.4933L58.2434 81.9113L58.6582 81.9943C60.8151 82.6303 62.6541 82.7686 64.175 82.4091C65.7236 82.0773 66.8989 80.8605 67.7009 78.7589L68.4475 76.7678L51.8554 29.0655H65.3365L74.9184 63.1208H75.4162L85.1226 29.0655H98.6866L80.6842 80.4595C79.8269 82.9484 78.6517 85.1192 77.1584 86.9719C75.6927 88.8247 73.8399 90.2489 71.6 91.2444C69.3601 92.2676 66.6362 92.7792 63.4284 92.7792ZM94.3743 75.4404L94.3328 65.2778H95.8676C97.3333 65.2501 98.5224 64.7523 99.4349 63.7845C100.375 62.8166 101.08 61.1989 101.55 58.9313C102.048 56.636 102.366 53.5389 102.504 49.6397L103.293 29.0655H138.509V75.4404H126.273V39.1867H114.824L114.077 53.3729C113.884 57.2444 113.414 60.5767 112.667 63.3697C111.92 66.1627 110.883 68.4579 109.556 70.2554C108.256 72.0252 106.652 73.3388 104.744 74.196C102.864 75.0256 100.693 75.4404 98.232 75.4404H94.3743ZM167.214 76.353C162.457 76.353 158.351 75.3851 154.894 73.4494C151.437 71.5136 148.783 68.7621 146.93 65.1948C145.105 61.5999 144.192 57.355 144.192 52.4604C144.192 47.704 145.105 43.5283 146.93 39.9333C148.783 36.3384 151.382 33.5315 154.728 31.5128C158.102 29.4941 162.056 28.4848 166.591 28.4848C169.661 28.4848 172.523 28.9825 175.178 29.9781C177.833 30.9459 180.155 32.4116 182.147 34.375C184.138 36.3107 185.686 38.7581 186.792 41.717C187.898 44.6483 188.452 48.0911 188.452 52.0456V55.5299H149.294V47.6072H182.23L176.256 49.6812C176.256 47.3306 175.897 45.2843 175.178 43.5421C174.459 41.7999 173.38 40.4587 171.942 39.5185C170.532 38.5507 168.776 38.0667 166.674 38.0667C164.573 38.0667 162.789 38.5507 161.323 39.5185C159.885 40.4864 158.779 41.7999 158.005 43.4592C157.231 45.1184 156.844 47.0265 156.844 49.1834V54.7833C156.844 57.2997 157.286 59.4567 158.171 61.2542C159.056 63.024 160.286 64.3929 161.863 65.3607C163.467 66.3009 165.306 66.7711 167.38 66.7711C168.818 66.7711 170.117 66.5637 171.279 66.1489C172.44 65.734 173.436 65.1257 174.265 64.3237C175.123 63.5218 175.759 62.5539 176.173 61.4201L188.037 62.2082C187.456 65.0565 186.239 67.5454 184.386 69.6747C182.561 71.7763 180.197 73.4217 177.293 74.6108C174.39 75.7723 171.03 76.353 167.214 76.353ZM157.175 22.7605C155.406 22.7605 153.898 22.1521 152.654 20.9354C151.41 19.7186 150.801 18.2806 150.829 16.6214C150.801 14.9069 151.41 13.4689 152.654 12.3075C153.898 11.1184 155.406 10.51 157.175 10.4823C158.89 10.51 160.356 11.1184 161.572 12.3075C162.817 13.4689 163.439 14.9069 163.439 16.6214C163.439 18.2806 162.817 19.7186 161.572 20.9354C160.356 22.1521 158.89 22.7605 157.175 22.7605ZM175.593 22.7605C173.85 22.7605 172.357 22.1521 171.113 20.9354C169.868 19.7186 169.246 18.2806 169.246 16.6214C169.246 14.9069 169.868 13.4689 171.113 12.3075C172.357 11.1184 173.85 10.51 175.593 10.4823C177.335 10.51 178.814 11.1184 180.031 12.3075C181.248 13.4689 181.856 14.9069 181.856 16.6214C181.856 18.2806 181.248 19.7186 180.031 20.9354C178.814 22.1521 177.335 22.7605 175.593 22.7605ZM193.119 75.4404V29.0655H205.936V47.0679H209.587L222.155 29.0655H237.254L220.869 52.1285L237.42 75.4404H222.155L210.707 59.0142H205.936V75.4404H193.119Z" fill="#F4F3EF"/>
<path d="M14.641 75.4404H14.2117V75.8697H14.641V75.4404ZM14.641 29.0655V28.6363H14.2117V29.0655H14.641ZM27.4584 29.0655H27.8876V28.6363H27.4584V29.0655ZM27.4584 47.0679H27.0291V47.4972H27.4584V47.0679ZM31.1086 47.0679V47.4972H31.3325L31.4606 47.3137L31.1086 47.0679ZM43.6772 29.0655V28.6363H43.4533L43.3252 28.8198L43.6772 29.0655ZM58.776 29.0655L59.1259 29.3141L59.6075 28.6363H58.776V29.0655ZM42.3913 52.1285L42.0413 51.8799L41.8648 52.1284L42.0413 52.377L42.3913 52.1285ZM58.9419 75.4404V75.8697H59.7731L59.2919 75.1919L58.9419 75.4404ZM43.6772 75.4404L43.325 75.6859L43.4531 75.8697H43.6772V75.4404ZM32.2286 59.0142L32.5808 58.7688L32.4526 58.585H32.2286V59.0142ZM27.4584 59.0142V58.585H27.0291V59.0142H27.4584ZM27.4584 75.4404V75.8697H27.8876V75.4404H27.4584ZM15.0702 75.4404V29.0655H14.2117V75.4404H15.0702ZM14.641 29.4947H27.4584V28.6363H14.641V29.4947ZM27.0291 29.0655V47.0679H27.8876V29.0655H27.0291ZM27.4584 47.4972H31.1086V46.6387H27.4584V47.4972ZM31.4606 47.3137L44.0291 29.3112L43.3252 28.8198L30.7567 46.8222L31.4606 47.3137ZM43.6772 29.4947H58.776V28.6363H43.6772V29.4947ZM58.426 28.8169L42.0413 51.8799L42.7412 52.3771L59.1259 29.3141L58.426 28.8169ZM42.0413 52.377L58.5919 75.6889L59.2919 75.1919L42.7413 51.88L42.0413 52.377ZM58.9419 75.0112H43.6772V75.8697H58.9419V75.0112ZM44.0293 75.195L32.5808 58.7688L31.8765 59.2597L43.325 75.6859L44.0293 75.195ZM32.2286 58.585H27.4584V59.4435H32.2286V58.585ZM27.0291 59.0142V75.4404H27.8876V59.0142H27.0291ZM27.4584 75.0112H14.641V75.8697H27.4584V75.0112ZM63.4284 92.7792V92.3499L63.4211 92.35L63.4284 92.7792ZM58.8241 92.4473L58.7495 92.87L58.7509 92.8703L58.8241 92.4473ZM55.3397 91.4933L54.929 91.3688L54.8171 91.7378L55.1721 91.8884L55.3397 91.4933ZM58.2434 81.9113L58.3275 81.4904L57.9455 81.414L57.8326 81.7869L58.2434 81.9113ZM58.6582 81.9943L58.7796 81.5826L58.7612 81.5772L58.7424 81.5734L58.6582 81.9943ZM64.175 82.4091L64.0851 81.9893L64.0763 81.9914L64.175 82.4091ZM67.7009 78.7589L68.1019 78.9119L68.1028 78.9096L67.7009 78.7589ZM68.4475 76.7678L68.8494 76.9185L68.9039 76.7733L68.8529 76.6268L68.4475 76.7678ZM51.8554 29.0655V28.6363H51.2516L51.45 29.2065L51.8554 29.0655ZM65.3365 29.0655L65.7497 28.9492L65.6616 28.6363H65.3365V29.0655ZM74.9184 63.1208L74.5052 63.2371L74.5933 63.55H74.9184V63.1208ZM75.4162 63.1208V63.55H75.7402L75.829 63.2384L75.4162 63.1208ZM85.1226 29.0655V28.6363H84.7986L84.7098 28.9478L85.1226 29.0655ZM98.6866 29.0655L99.0917 29.2074L99.2918 28.6363H98.6866V29.0655ZM80.6842 80.4595L80.2791 80.3176L80.2783 80.3197L80.6842 80.4595ZM77.1584 86.9719L76.8241 86.7026L76.8217 86.7056L77.1584 86.9719ZM71.6 91.2444L71.4257 90.8521L71.4217 90.854L71.6 91.2444ZM63.4211 92.35C61.8134 92.3772 60.3058 92.2682 58.8973 92.0244L58.7509 92.8703C60.2183 93.1243 61.7803 93.2364 63.4357 93.2084L63.4211 92.35ZM58.8987 92.0246C57.5075 91.7791 56.3801 91.4684 55.5074 91.0981L55.1721 91.8884C56.1245 92.2925 57.32 92.6178 58.7495 92.87L58.8987 92.0246ZM55.7505 91.6178L58.6542 82.0358L57.8326 81.7869L54.929 91.3688L55.7505 91.6178ZM58.1592 82.3323L58.574 82.4152L58.7424 81.5734L58.3275 81.4904L58.1592 82.3323ZM58.5368 82.406C60.7358 83.0545 62.6552 83.2094 64.2738 82.8268L64.0763 81.9914C62.653 82.3278 60.8945 82.2062 58.7796 81.5826L58.5368 82.406ZM64.265 82.8288C66.0104 82.4548 67.2718 81.0873 68.1019 78.9119L67.2998 78.6058C66.526 80.6337 65.4369 81.6997 64.0851 81.9894L64.265 82.8288ZM68.1028 78.9096L68.8494 76.9185L68.0456 76.6171L67.299 78.6081L68.1028 78.9096ZM68.8529 76.6268L52.2608 28.9245L51.45 29.2065L68.0421 76.9088L68.8529 76.6268ZM51.8554 29.4947H65.3365V28.6363H51.8554V29.4947ZM64.9233 29.1818L74.5052 63.2371L75.3316 63.0045L65.7497 28.9492L64.9233 29.1818ZM74.9184 63.55H75.4162V62.6916H74.9184V63.55ZM75.829 63.2384L85.5354 29.1832L84.7098 28.9478L75.0034 63.0031L75.829 63.2384ZM85.1226 29.4947H98.6866V28.6363H85.1226V29.4947ZM98.2815 28.9236L80.2791 80.3176L81.0893 80.6014L99.0917 29.2074L98.2815 28.9236ZM80.2783 80.3197C79.4356 82.7665 78.2831 84.8924 76.8242 86.7026L77.4926 87.2413C79.0202 85.3459 80.2183 83.1302 81.09 80.5993L80.2783 80.3197ZM76.8217 86.7056C75.4008 88.5018 73.6046 89.8838 71.4257 90.8522L71.7743 91.6367C74.0753 90.614 75.9846 89.1476 77.495 87.2382L76.8217 86.7056ZM71.4217 90.854C69.2519 91.8451 66.5925 92.3499 63.4284 92.3499V93.2084C66.6799 93.2084 69.4682 92.6901 71.7784 91.6348L71.4217 90.854ZM94.3743 75.4404L93.9451 75.4422L93.9468 75.8697H94.3743V75.4404ZM94.3328 65.2778V64.8485H93.9018L93.9036 65.2795L94.3328 65.2778ZM95.8676 65.2778V65.7071L95.8757 65.7069L95.8676 65.2778ZM99.4349 63.7845L99.127 63.4854L99.1226 63.49L99.4349 63.7845ZM101.55 58.9313L101.131 58.8403L101.13 58.8442L101.55 58.9313ZM102.504 49.6397L102.076 49.6233L102.075 49.6245L102.504 49.6397ZM103.293 29.0655V28.6363H102.879L102.864 29.0491L103.293 29.0655ZM138.509 29.0655H138.939V28.6363H138.509V29.0655ZM138.509 75.4404V75.8697H138.939V75.4404H138.509ZM126.273 75.4404H125.843V75.8697H126.273V75.4404ZM126.273 39.1867H126.702V38.7574H126.273V39.1867ZM114.824 39.1867V38.7574H114.417L114.395 39.1641L114.824 39.1867ZM114.077 53.3729L113.649 53.3504L113.649 53.3515L114.077 53.3729ZM112.667 63.3697L112.252 63.2588L112.667 63.3697ZM109.556 70.2554L109.211 70.0004L109.21 70.0013L109.556 70.2554ZM104.744 74.196L104.918 74.5888L104.92 74.5876L104.744 74.196ZM94.8036 75.4387L94.7621 65.276L93.9036 65.2795L93.9451 75.4422L94.8036 75.4387ZM94.3328 65.707H95.8676V64.8485H94.3328V65.707ZM95.8757 65.7069C97.4438 65.6773 98.747 65.1398 99.7472 64.0789L99.1226 63.49C98.2977 64.3649 97.2227 64.8229 95.8595 64.8486L95.8757 65.7069ZM99.7428 64.0836C100.767 63.0288 101.495 61.3154 101.971 59.0184L101.13 58.8442C100.666 61.0824 99.9828 62.6045 99.127 63.4854L99.7428 64.0836ZM101.97 59.0223C102.475 56.6912 102.795 53.5652 102.933 49.6549L102.075 49.6245C101.938 53.5125 101.621 56.5809 101.131 58.8403L101.97 59.0223ZM102.933 49.6561L103.722 29.0819L102.864 29.0491L102.076 49.6233L102.933 49.6561ZM103.293 29.4947H138.509V28.6363H103.293V29.4947ZM138.08 29.0655V75.4404H138.939V29.0655H138.08ZM138.509 75.0112H126.273V75.8697H138.509V75.0112ZM126.702 75.4404V39.1867H125.843V75.4404H126.702ZM126.273 38.7574H114.824V39.6159H126.273V38.7574ZM114.395 39.1641L113.649 53.3504L114.506 53.3955L115.253 39.2092L114.395 39.1641ZM113.649 53.3515C113.456 57.2023 112.989 60.503 112.252 63.2588L113.082 63.4805C113.838 60.6503 114.312 57.2866 114.506 53.3944L113.649 53.3515ZM112.252 63.2588C111.516 66.0144 110.498 68.2569 109.211 70.0004L109.901 70.5104C111.269 68.659 112.325 66.311 113.082 63.4805L112.252 63.2588ZM109.21 70.0013C107.952 71.7145 106.406 72.9791 104.568 73.8045L104.92 74.5876C106.899 73.6984 108.561 72.3359 109.902 70.5095L109.21 70.0013ZM104.571 73.8033C102.755 74.6046 100.645 75.0112 98.232 75.0112V75.8697C100.741 75.8697 102.973 75.4467 104.918 74.5887L104.571 73.8033ZM98.232 75.0112H94.3743V75.8697H98.232V75.0112ZM146.93 65.1948L146.547 65.3891L146.549 65.3927L146.93 65.1948ZM146.93 39.9333L146.548 39.7367L146.547 39.739L146.93 39.9333ZM154.728 31.5128L154.508 31.1445L154.506 31.1453L154.728 31.5128ZM175.178 29.9781L175.027 30.38L175.031 30.3813L175.178 29.9781ZM182.147 34.375L181.845 34.6806L181.847 34.6827L182.147 34.375ZM186.792 41.717L186.39 41.8673L186.391 41.8685L186.792 41.717ZM188.452 55.5299V55.9591H188.881V55.5299H188.452ZM149.294 55.5299H148.865V55.9591H149.294V55.5299ZM149.294 47.6072V47.1779H148.865V47.6072H149.294ZM182.23 47.6072L182.37 48.0127L182.23 47.1779V47.6072ZM176.256 49.6812H175.827V50.2846L176.397 50.0867L176.256 49.6812ZM171.942 39.5185L171.699 39.8725L171.708 39.8778L171.942 39.5185ZM161.323 39.5185L161.087 39.1603L161.084 39.1624L161.323 39.5185ZM158.005 43.4592L157.616 43.2776L158.005 43.4592ZM158.171 61.2542L157.786 61.4438L157.787 61.4461L158.171 61.2542ZM161.863 65.3607L161.638 65.7266L161.646 65.731L161.863 65.3607ZM174.265 64.3237L173.972 64.0102L173.967 64.0151L174.265 64.3237ZM176.173 61.4201L176.202 60.9918L175.881 60.9705L175.77 61.2726L176.173 61.4201ZM188.037 62.2082L188.457 62.294L188.555 61.8125L188.065 61.7799L188.037 62.2082ZM184.386 69.6747L184.063 69.3929L184.062 69.3932L184.386 69.6747ZM177.293 74.6108L177.453 75.0094L177.456 75.008L177.293 74.6108ZM150.829 16.6214L151.258 16.6286L151.258 16.6145L150.829 16.6214ZM152.654 12.3075L152.947 12.6213L152.951 12.6178L152.654 12.3075ZM157.175 10.4823L157.182 10.0529L157.169 10.0532L157.175 10.4823ZM161.572 12.3075L161.272 12.6145L161.279 12.6213L161.572 12.3075ZM161.572 20.9354L161.272 20.6284L161.269 20.6319L161.572 20.9354ZM171.113 12.3075L171.406 12.6213L171.409 12.6178L171.113 12.3075ZM175.593 10.4823L175.599 10.0529L175.586 10.0532L175.593 10.4823ZM180.031 12.3075L179.731 12.6145L179.735 12.618L180.031 12.3075ZM167.214 75.9238C162.516 75.9238 158.485 74.9682 155.104 73.0749L154.684 73.8239C158.217 75.8021 162.399 76.7822 167.214 76.7822V75.9238ZM155.104 73.0749C151.721 71.1807 149.126 68.4911 147.311 64.997L146.549 65.3927C148.44 69.0331 151.153 71.8466 154.684 73.8239L155.104 73.0749ZM147.313 65.0005C145.524 61.4773 144.621 57.3018 144.621 52.4604H143.763C143.763 57.4083 144.686 61.7224 146.547 65.3891L147.313 65.0005ZM144.621 52.4604C144.621 47.7594 145.523 43.6525 147.313 40.1276L146.547 39.739C144.686 43.4041 143.763 47.6485 143.763 52.4604H144.621ZM147.311 40.13C149.129 36.6031 151.674 33.8565 154.95 31.8804L154.506 31.1453C151.09 33.2066 148.436 36.0737 146.548 39.7367L147.311 40.13ZM154.949 31.8812C158.246 29.9081 162.122 28.914 166.591 28.914V28.0555C161.991 28.0555 157.958 29.0801 154.508 31.1445L154.949 31.8812ZM166.591 28.914C169.614 28.914 172.424 29.404 175.027 30.38L175.329 29.5762C172.622 28.5611 169.708 28.0555 166.591 28.0555V28.914ZM175.031 30.3813C177.628 31.3283 179.898 32.7609 181.845 34.6806L182.448 34.0693C180.413 32.0622 178.037 30.5635 175.325 29.5748L175.031 30.3813ZM181.847 34.6827C183.787 36.5685 185.303 38.9596 186.39 41.8673L187.194 41.5667C186.069 38.5565 184.488 36.0529 182.446 34.0672L181.847 34.6827ZM186.391 41.8685C187.475 44.7405 188.022 48.1299 188.022 52.0456H188.881C188.881 48.0524 188.322 44.556 187.194 41.5654L186.391 41.8685ZM188.022 52.0456V55.5299H188.881V52.0456H188.022ZM188.452 55.1007H149.294V55.9591H188.452V55.1007ZM149.723 55.5299V47.6072H148.865V55.5299H149.723ZM149.294 48.0364H182.23V47.1779H149.294V48.0364ZM182.089 47.2017L176.116 49.2757L176.397 50.0867L182.37 48.0127L182.089 47.2017ZM176.686 49.6812C176.686 47.2879 176.32 45.1836 175.575 43.3784L174.781 43.7059C175.474 45.385 175.827 47.3734 175.827 49.6812H176.686ZM175.575 43.3784C174.826 41.5643 173.695 40.1514 172.177 39.1593L171.708 39.8778C173.066 40.7661 174.092 42.0356 174.781 43.7059L175.575 43.3784ZM172.185 39.1646C170.689 38.1374 168.843 37.6375 166.674 37.6375V38.496C168.709 38.496 170.376 38.9639 171.7 39.8724L172.185 39.1646ZM166.674 37.6375C164.505 37.6375 162.636 38.1377 161.087 39.1603L161.56 39.8767C162.943 38.9636 164.64 38.496 166.674 38.496V37.6375ZM161.084 39.1624C159.577 40.1763 158.421 41.5519 157.616 43.2776L158.394 43.6407C159.137 42.048 160.194 40.7965 161.563 39.8746L161.084 39.1624ZM157.616 43.2776C156.811 45.0029 156.414 46.9748 156.414 49.1834H157.273C157.273 47.0781 157.651 45.2338 158.394 43.6407L157.616 43.2776ZM156.414 49.1834V54.7833H157.273V49.1834H156.414ZM156.414 54.7833C156.414 57.3491 156.865 59.5742 157.786 61.4438L158.556 61.0646C157.707 59.3392 157.273 57.2504 157.273 54.7833H156.414ZM157.787 61.4461C158.705 63.2824 159.989 64.7138 161.638 65.7265L162.087 64.9949C160.584 64.0719 159.407 62.7656 158.555 61.0622L157.787 61.4461ZM161.646 65.731C163.323 66.7142 165.238 67.2003 167.38 67.2003V66.3418C165.373 66.3418 163.61 65.8877 162.08 64.9904L161.646 65.731ZM167.38 67.2003C168.859 67.2003 170.208 66.9869 171.423 66.5531L171.134 65.7446C170.026 66.1404 168.776 66.3418 167.38 66.3418V67.2003ZM171.423 66.5531C172.638 66.1192 173.687 65.4796 174.564 64.6323L173.967 64.0151C173.184 64.7717 172.242 65.3489 171.134 65.7446L171.423 66.5531ZM174.559 64.6372C175.466 63.7879 176.139 62.7627 176.577 61.5676L175.77 61.2726C175.378 62.3451 174.779 63.2556 173.972 64.0103L174.559 64.6372ZM176.145 61.8484L188.008 62.6365L188.065 61.7799L176.202 60.9918L176.145 61.8484ZM187.616 62.1225C187.05 64.9005 185.865 67.3212 184.063 69.3929L184.71 69.9564C186.613 67.7695 187.862 65.2126 188.457 62.294L187.616 62.1225ZM184.062 69.3932C182.287 71.4381 179.98 73.0467 177.131 74.2136L177.456 75.008C180.414 73.7968 182.836 72.1146 184.711 69.9561L184.062 69.3932ZM177.134 74.2123C174.291 75.3495 170.987 75.9238 167.214 75.9238V76.7822C171.073 76.7822 174.489 76.195 177.453 75.0094L177.134 74.2123ZM157.175 22.3313C155.516 22.3313 154.117 21.7653 152.954 20.6285L152.354 21.2423C153.68 22.5389 155.296 23.1897 157.175 23.1897V22.3313ZM152.954 20.6285C151.79 19.4897 151.233 18.1635 151.258 16.6286L150.4 16.6143C150.37 18.3978 151.03 19.9476 152.354 21.2423L152.954 20.6285ZM151.258 16.6145C151.232 15.0203 151.792 13.6992 152.947 12.6213L152.361 11.9937C151.027 13.2386 150.37 14.7935 150.4 16.6283L151.258 16.6145ZM152.951 12.6178C154.114 11.5057 155.517 10.9376 157.182 10.9115L157.169 10.0532C155.294 10.0824 153.683 10.731 152.358 11.9971L152.951 12.6178ZM157.169 10.9115C158.774 10.9374 160.135 11.5027 161.272 12.6145L161.872 12.0005C160.576 10.734 159.006 10.0826 157.182 10.0532L157.169 10.9115ZM161.279 12.6213C162.436 13.7009 163.01 15.0249 163.01 16.6214H163.868C163.868 14.7889 163.197 13.237 161.865 11.9937L161.279 12.6213ZM163.01 16.6214C163.01 18.159 162.439 19.488 161.272 20.6285L161.872 21.2423C163.195 19.9492 163.868 18.4023 163.868 16.6214H163.01ZM161.269 20.6319C160.132 21.7684 158.776 22.3313 157.175 22.3313V23.1897C159.004 23.1897 160.579 22.5358 161.876 21.2389L161.269 20.6319ZM175.593 22.3313C173.963 22.3313 172.577 21.7667 171.413 20.6285L170.813 21.2423C172.137 22.5375 173.738 23.1897 175.593 23.1897V22.3313ZM171.413 20.6285C170.247 19.488 169.675 18.159 169.675 16.6214H168.817C168.817 18.4023 169.49 19.9492 170.813 21.2423L171.413 20.6285ZM169.675 16.6214C169.675 15.0249 170.249 13.7009 171.406 12.6213L170.82 11.9937C169.488 13.237 168.817 14.7889 168.817 16.6214H169.675ZM171.409 12.6178C172.575 11.5044 173.964 10.9375 175.599 10.9115L175.586 10.0532C173.737 10.0825 172.14 10.7323 170.816 11.9971L171.409 12.6178ZM175.586 10.9115C177.221 10.9375 178.595 11.5041 179.731 12.6145L180.331 12.0005C179.034 10.7326 177.448 10.0825 175.599 10.0532L175.586 10.9115ZM179.735 12.618C180.865 13.6967 181.427 15.0217 181.427 16.6214H182.285C182.285 14.7922 181.631 13.2412 180.327 11.997L179.735 12.618ZM181.427 16.6214C181.427 18.1622 180.867 19.4923 179.728 20.6319L180.335 21.2389C181.628 19.945 182.285 18.3991 182.285 16.6214H181.427ZM179.728 20.6319C178.592 21.767 177.223 22.3313 175.593 22.3313V23.1897C177.447 23.1897 179.036 22.5373 180.335 21.2389L179.728 20.6319ZM193.119 75.4404H192.69V75.8697H193.119V75.4404ZM193.119 29.0655V28.6363H192.69V29.0655H193.119ZM205.936 29.0655H206.366V28.6363H205.936V29.0655ZM205.936 47.0679H205.507V47.4972H205.936V47.0679ZM209.587 47.0679V47.4972H209.81L209.939 47.3137L209.587 47.0679ZM222.155 29.0655V28.6363H221.931L221.803 28.8198L222.155 29.0655ZM237.254 29.0655L237.604 29.3141L238.085 28.6363H237.254V29.0655ZM220.869 52.1285L220.519 51.8799L220.343 52.1284L220.519 52.377L220.869 52.1285ZM237.42 75.4404V75.8697H238.251L237.77 75.1919L237.42 75.4404ZM222.155 75.4404L221.803 75.6859L221.931 75.8697H222.155V75.4404ZM210.707 59.0142L211.059 58.7688L210.931 58.585H210.707V59.0142ZM205.936 59.0142V58.585H205.507V59.0142H205.936ZM205.936 75.4404V75.8697H206.366V75.4404H205.936ZM193.548 75.4404V29.0655H192.69V75.4404H193.548ZM193.119 29.4947H205.936V28.6363H193.119V29.4947ZM205.507 29.0655V47.0679H206.366V29.0655H205.507ZM205.936 47.4972H209.587V46.6387H205.936V47.4972ZM209.939 47.3137L222.507 29.3112L221.803 28.8198L209.235 46.8222L209.939 47.3137ZM222.155 29.4947H237.254V28.6363H222.155V29.4947ZM236.904 28.8169L220.519 51.8799L221.219 52.3771L237.604 29.3141L236.904 28.8169ZM220.519 52.377L237.07 75.6889L237.77 75.1919L221.219 51.88L220.519 52.377ZM237.42 75.0112H222.155V75.8697H237.42V75.0112ZM222.507 75.195L211.059 58.7688L210.354 59.2597L221.803 75.6859L222.507 75.195ZM210.707 58.585H205.936V59.4435H210.707V58.585ZM205.507 59.0142V75.4404H206.366V59.0142H205.507ZM205.936 75.0112H193.119V75.8697H205.936V75.0112Z" fill="#F4F3EF" mask="url(#path-2-outside-1_1052_1498)"/>
<path fill-rule="evenodd" clip-rule="evenodd" d="M193.207 75.178H205.765V59.0831H210.439L221.657 75.178H236.614L220.397 52.3362L236.451 29.7383H221.657L209.342 47.3777H205.765V29.7383H193.207V75.178ZM206.637 46.5064V28.867H192.335V76.0493H206.637V59.9544H209.985L221.202 76.0493H238.301L221.466 52.3364L237.619 29.7383H220.629L208.888 46.5064H206.637Z" fill="black"/>
<path fill-rule="evenodd" clip-rule="evenodd" d="M146.342 65.537L146.34 65.5334C144.478 61.8653 143.563 57.5654 143.563 52.6614C143.563 47.8883 144.48 43.6573 146.34 39.9925L146.343 39.9878C148.229 36.3272 150.886 33.4546 154.308 31.3902L154.311 31.3886C157.771 29.318 161.806 28.298 166.382 28.298C169.485 28.298 172.392 28.8012 175.098 29.8154C177.813 30.8058 180.194 32.3077 182.233 34.3182C184.287 36.316 185.87 38.8274 186.992 41.8295C188.121 44.8214 188.673 48.3026 188.673 52.2549V56.5403H157.771C157.919 58.2101 158.305 59.6558 158.912 60.8908C159.71 62.4858 160.806 63.6979 162.197 64.5544C163.618 65.3855 165.262 65.8121 167.155 65.8121C168.48 65.8121 169.652 65.621 170.682 65.2532C171.711 64.8856 172.578 64.3527 173.296 63.659L173.301 63.654L173.306 63.6492C174.044 62.9594 174.592 62.1275 174.953 61.141L174.848 61.4094L188.249 62.2671V62.3867C187.651 65.32 186.393 67.8966 184.476 70.0998C182.588 72.2744 180.154 73.9613 177.199 75.1714L177.195 75.1728L177.192 75.1741C174.224 76.3612 170.818 76.9434 166.992 76.9434C162.212 76.9434 158.036 75.9701 154.495 73.9873C150.958 72.0062 148.237 69.1845 146.344 65.5406L146.342 65.537ZM158.132 61.2778C157.459 59.9108 157.047 58.3317 156.896 56.5403C156.872 56.2552 156.855 55.9648 156.844 55.669H187.802V52.2549C187.802 48.3802 187.26 45.0068 186.176 42.1346C185.092 39.2354 183.575 36.8374 181.624 34.9407C179.673 33.0169 177.397 31.5808 174.796 30.6325C172.194 29.657 169.39 29.1693 166.382 29.1693C161.939 29.1693 158.064 30.1583 154.758 32.1363C151.48 34.1143 148.933 36.8645 147.117 40.387C145.329 43.9094 144.435 48.0009 144.435 52.6614C144.435 57.4573 145.329 61.6165 147.117 65.139C148.933 68.6343 151.534 71.3304 154.921 73.2271C158.308 75.1238 162.332 76.0721 166.992 76.0721C170.731 76.0721 174.023 75.5031 176.868 74.3651C179.714 73.2 182.03 71.5878 183.819 69.5285C185.445 67.6593 186.571 65.5074 187.197 63.0727C187.27 62.7898 187.336 62.5031 187.395 62.2126L175.758 61.4676C175.352 62.5785 174.741 63.4997 173.901 64.2855C173.089 65.0712 172.113 65.6673 170.975 66.0738C169.837 66.4802 168.564 66.6834 167.155 66.6834C165.122 66.6834 163.321 66.2228 161.749 65.3015C160.205 64.3532 158.999 63.012 158.132 61.2778ZM175.753 47.906C175.723 47.6098 175.686 47.3194 175.642 47.0347C175.468 45.906 175.186 44.8687 174.796 43.923C174.091 42.2159 173.034 40.9018 171.625 39.9805C170.244 39.0322 168.523 38.558 166.464 38.558C164.404 38.558 162.657 39.0322 161.221 39.9805C159.812 40.9289 158.728 42.2159 157.969 43.8417C157.513 44.8181 157.195 45.8824 157.013 47.0347C156.968 47.3198 156.931 47.6102 156.903 47.906H175.753ZM157.895 47.0347H174.76C174.594 46.0193 174.336 45.0938 173.99 44.2553C173.346 42.6942 172.396 41.5256 171.149 40.7098L171.14 40.7044L171.132 40.6989C169.926 39.8709 168.388 39.4293 166.464 39.4293C164.542 39.4293 162.971 39.8698 161.704 40.7057C160.435 41.5604 159.454 42.7208 158.759 44.2101C158.358 45.0682 158.069 46.0084 157.895 47.0347ZM157.156 10.6585L157.17 10.6587C159.068 10.6893 160.714 11.3704 162.066 12.6879C163.459 13.991 164.165 15.6289 164.165 17.5452C164.165 19.4165 163.452 21.0455 162.077 22.3921C160.722 23.7445 159.066 24.4318 157.156 24.4318C155.199 24.4318 153.502 23.7495 152.117 22.3951C150.739 21.0481 150.039 19.4171 150.066 17.5452C150.039 15.6288 150.733 13.9888 152.128 12.685C153.51 11.3657 155.198 10.6891 157.143 10.6587L157.156 10.6585ZM152.726 13.3182C151.507 14.4563 150.911 15.8652 150.938 17.5452C150.911 19.1709 151.507 20.5799 152.726 21.7721C153.945 22.9643 155.422 23.5605 157.156 23.5605C158.836 23.5605 160.272 22.9643 161.464 21.7721C162.684 20.5799 163.293 19.1709 163.293 17.5452C163.293 15.8652 162.684 14.4563 161.464 13.3182C160.272 12.1531 158.836 11.557 157.156 11.5299C155.422 11.557 153.945 12.1531 152.726 13.3182ZM175.202 10.6585L175.216 10.6587C177.138 10.6892 178.801 11.3688 180.156 12.6914C181.522 13.9968 182.211 15.634 182.211 17.5452C182.211 19.4114 181.516 21.0394 180.167 22.3882C178.809 23.7461 177.137 24.4318 175.202 24.4318C173.268 24.4318 171.586 23.7467 170.203 22.3951C168.826 21.0479 168.112 19.4179 168.112 17.5452C168.112 15.6273 168.82 13.9881 170.215 12.6844C171.594 11.3682 173.267 10.6892 175.188 10.6587L175.202 10.6585ZM179.551 13.3182C178.359 12.1531 176.909 11.557 175.202 11.5299C173.495 11.557 172.032 12.1531 170.813 13.3182C169.593 14.4563 168.984 15.8652 168.984 17.5452C168.984 19.1709 169.593 20.5799 170.813 21.7721C172.032 22.9643 173.495 23.5605 175.202 23.5605C176.909 23.5605 178.359 22.9643 179.551 21.7721C180.743 20.5799 181.339 19.1709 181.339 17.5452C181.339 15.8652 180.743 14.4563 179.551 13.3182Z" fill="black"/>
<path fill-rule="evenodd" clip-rule="evenodd" d="M95.6231 75.178H99.403C101.814 75.178 103.942 74.7715 105.784 73.9587C107.654 73.1187 109.225 71.8316 110.499 70.0975C111.799 68.3363 112.815 66.0873 113.547 63.3506C114.279 60.614 114.739 57.3489 114.929 53.5555L115.66 39.6554H126.878V75.178H138.868V29.7383H104.362L103.589 49.8976C103.454 53.7181 103.142 56.7528 102.654 59.0018C102.194 61.2236 101.503 62.8087 100.582 63.7571C99.6875 64.7054 98.5224 65.1932 97.0863 65.2203H95.5825L95.6231 75.178ZM97.0777 64.349H95.5826L95.5817 76.0493H99.403C101.912 76.0493 104.163 75.6262 106.136 74.7558L106.141 74.7534C108.155 73.8487 109.843 72.4624 111.201 70.6132C112.582 68.7429 113.637 66.3874 114.389 63.5757C115.14 60.7641 115.607 57.4358 115.799 53.6013M115.799 53.599L116.487 40.5267H126.007V76.0493H139.739V28.867H103.523L102.719 49.8642L102.719 49.8667C102.584 53.6645 102.275 56.6409 101.803 58.8171L101.802 58.821L101.801 58.8249C101.353 60.9872 100.706 62.3781 99.9567 63.15L99.9521 63.1546L99.9477 63.1594C99.233 63.9174 98.302 64.3242 97.0777 64.349" fill="black"/>
<path fill-rule="evenodd" clip-rule="evenodd" d="M53.6317 36.2312L67.6269 76.4674L67.0077 78.1188C67.0073 78.1197 67.007 78.1206 67.0067 78.1214C66.2781 80.0292 65.3018 80.9147 64.1844 81.1542L64.1755 81.1561L64.1666 81.1582C62.8746 81.4636 61.2359 81.362 59.2078 80.764L59.1704 80.7529L57.9504 80.5089L54.649 91.4035L55.3696 91.7092C56.3446 92.1228 57.5518 92.4492 58.9725 92.6999L58.9754 92.7004C60.442 92.9543 61.9984 93.0658 63.6427 93.0383C66.8697 93.0376 69.6657 92.5232 72.0004 91.4575C74.3159 90.4276 76.2438 88.9481 77.7694 87.0205C79.3006 85.1199 80.4974 82.9035 81.3662 80.3818L81.367 80.3796L99.411 28.867H84.8921L84.8836 29.7682L75.4797 62.7619L66.165 28.867H51.0703L51.3733 29.7383H65.505L74.8937 63.1068H75.3814L84.8921 29.7383H98.1826L80.5432 80.0959C79.7032 82.5345 78.5516 84.6615 77.0885 86.4769C75.6524 88.2923 73.837 89.6878 71.6422 90.6632C69.4475 91.6658 66.7785 92.167 63.6354 92.167C62.0368 92.1941 60.5329 92.0858 59.124 91.8419C57.7421 91.598 56.604 91.2864 55.7099 90.9071L58.5549 81.5184L58.9614 81.5997C61.0749 82.2229 62.8767 82.3584 64.367 82.0061C65.8844 81.681 67.0359 80.4887 67.8217 78.4295L68.5533 76.4786L54.251 35.3594L53.6317 36.2312Z" fill="black"/>
<path d="M43.45 75.178L32.2323 59.0831H27.5583V75.178H14.9994V76.0493H28.4296V59.9544H31.7775L42.9952 76.0493H60.094L43.2587 52.3364L54.6021 36.3694L54.2509 35.3594L42.19 52.3362L58.4069 75.178H43.45Z" fill="black"/>
<path d="M30.6806 46.5064H28.4296V28.867H14.9994V29.7383H27.5583V47.3777H31.1349L43.45 29.7383H59.3131L59.9321 28.867H42.9957L30.6806 46.5064Z" fill="black"/>
<path d="M7.8505 78.0571C7.52082 78.0571 7.2381 77.9708 7.00234 77.7983C6.76849 77.6258 6.58928 77.3766 6.46469 77.0508C6.34202 76.723 6.28068 76.3262 6.28068 75.8605C6.28068 75.3966 6.34297 75.0008 6.46756 74.673C6.59215 74.3434 6.77137 74.0923 7.00521 73.9198C7.24098 73.7453 7.52274 73.6581 7.8505 73.6581C8.18019 73.6581 8.46195 73.7453 8.6958 73.9198C8.93156 74.0923 9.11077 74.3434 9.23345 74.673C9.35804 75.0008 9.42033 75.3966 9.42033 75.8605C9.42033 76.3262 9.35899 76.723 9.23632 77.0508C9.11365 77.3766 8.93539 77.6258 8.70155 77.7983C8.4677 77.9708 8.18402 78.0571 7.8505 78.0571ZM7.8505 77.505C8.05176 77.505 8.2214 77.4408 8.3594 77.3124C8.49741 77.184 8.60283 76.9971 8.67567 76.7518C8.74851 76.5045 8.78492 76.2074 8.78492 75.8605C8.78492 75.5116 8.74851 75.2145 8.67567 74.9692C8.60283 74.7219 8.49741 74.5341 8.3594 74.4056C8.2214 74.2753 8.05176 74.2101 7.8505 74.2101C7.55341 74.2101 7.3234 74.3549 7.16047 74.6443C6.99946 74.9318 6.91896 75.3372 6.91896 75.8605C6.91896 76.2074 6.95538 76.5045 7.02822 76.7518C7.10105 76.9971 7.20647 77.184 7.34448 77.3124C7.4844 77.4408 7.65308 77.505 7.8505 77.505ZM9.9206 77.9996V77.5338L11.3697 76.0272C11.523 75.8662 11.6495 75.7244 11.7492 75.6017C11.8508 75.4771 11.9265 75.3592 11.9763 75.2481C12.0281 75.1369 12.054 75.019 12.054 74.8944C12.054 74.7507 12.0204 74.627 11.9533 74.5235C11.8862 74.42 11.7952 74.3405 11.6802 74.2849C11.5652 74.2293 11.4348 74.2015 11.2892 74.2015C11.1358 74.2015 11.0026 74.2331 10.8895 74.2964C10.7764 74.3577 10.6883 74.4459 10.625 74.5609C10.5637 74.674 10.533 74.8072 10.533 74.9606H9.91773C9.91773 74.6999 9.97715 74.4718 10.096 74.2763C10.2167 74.0808 10.3816 73.9293 10.5905 73.822C10.8014 73.7127 11.039 73.6581 11.3035 73.6581C11.5738 73.6581 11.8115 73.7118 12.0166 73.8191C12.2217 73.9265 12.3817 74.0721 12.4967 74.2561C12.6117 74.4382 12.6692 74.6443 12.6692 74.8743C12.6692 75.0334 12.6395 75.1886 12.5801 75.3401C12.5226 75.4915 12.4201 75.6611 12.2725 75.849C12.1268 76.0349 11.9236 76.2592 11.6629 76.5218L10.8119 77.413V77.4475H12.7382V77.9996H9.9206Z" fill="black"/>
<path d="M74.0715 71.0866C73.7418 71.0866 73.4591 71.0003 73.2233 70.8278C72.9895 70.6553 72.8103 70.4061 72.6857 70.0803C72.563 69.7525 72.5017 69.3557 72.5017 68.8899C72.5017 68.4261 72.564 68.0303 72.6886 67.7025C72.8132 67.3728 72.9924 67.1217 73.2262 66.9492C73.462 66.7748 73.7437 66.6876 74.0715 66.6876C74.4012 66.6876 74.683 66.7748 74.9168 66.9492C75.1526 67.1217 75.3318 67.3728 75.4545 67.7025C75.579 68.0303 75.6413 68.4261 75.6413 68.8899C75.6413 69.3557 75.58 69.7525 75.4573 70.0803C75.3347 70.4061 75.1564 70.6553 74.9226 70.8278C74.6887 71.0003 74.405 71.0866 74.0715 71.0866ZM74.0715 70.5345C74.2728 70.5345 74.4424 70.4703 74.5804 70.3419C74.7184 70.2135 74.8238 70.0266 74.8967 69.7812C74.9695 69.534 75.0059 69.2369 75.0059 68.8899C75.0059 68.5411 74.9695 68.244 74.8967 67.9987C74.8238 67.7514 74.7184 67.5636 74.5804 67.4351C74.4424 67.3048 74.2728 67.2396 74.0715 67.2396C73.7744 67.2396 73.5444 67.3843 73.3815 67.6738C73.2205 67.9613 73.14 68.3667 73.14 68.8899C73.14 69.2369 73.1764 69.534 73.2492 69.7812C73.3221 70.0266 73.4275 70.2135 73.5655 70.3419C73.7054 70.4703 73.8741 70.5345 74.0715 70.5345ZM77.6338 71.0866C77.3444 71.0866 77.0875 71.0377 76.8633 70.9399C76.639 70.8403 76.4617 70.7022 76.3314 70.5259C76.201 70.3496 76.132 70.1454 76.1244 69.9135H76.7741C76.7837 70.04 76.8269 70.1493 76.9035 70.2413C76.9802 70.3333 77.0808 70.4051 77.2054 70.4569C77.3319 70.5067 77.4728 70.5317 77.6281 70.5317C77.7967 70.5317 77.9462 70.5019 78.0766 70.4425C78.2069 70.3831 78.3085 70.3016 78.3813 70.1981C78.4561 70.0927 78.4935 69.971 78.4935 69.833C78.4935 69.6892 78.4571 69.5627 78.3842 69.4535C78.3114 69.3423 78.205 69.2561 78.0651 69.1947C77.9252 69.1334 77.7565 69.1027 77.5591 69.1027H77.1939V68.5737H77.5591C77.7162 68.5737 77.8552 68.5449 77.976 68.4874C78.0967 68.4299 78.1906 68.3504 78.2577 68.2488C78.3267 68.1472 78.3612 68.0274 78.3612 67.8894C78.3612 67.7571 78.3315 67.6421 78.2721 67.5444C78.2127 67.4447 78.1293 67.368 78.022 67.3144C77.9146 67.2588 77.7881 67.231 77.6424 67.231C77.5025 67.231 77.3722 67.2559 77.2514 67.3057C77.1307 67.3556 77.0319 67.4275 76.9553 67.5214C76.8805 67.6134 76.8412 67.7255 76.8374 67.8578H76.2135C76.2192 67.6258 76.2863 67.4227 76.4148 67.2482C76.5451 67.0719 76.7176 66.9349 76.9323 66.8371C77.1489 66.7374 77.3885 66.6876 77.6511 66.6876C77.9252 66.6876 78.1619 66.7413 78.3612 66.8486C78.5625 66.954 78.7177 67.0959 78.827 67.2741C78.9362 67.4505 78.9909 67.6431 78.9909 67.852C78.9909 68.0955 78.9238 68.3005 78.7896 68.4673C78.6554 68.6321 78.4762 68.7443 78.252 68.8037V68.8353C78.5356 68.8794 78.7551 68.9925 78.9104 69.1746C79.0675 69.3567 79.1461 69.5829 79.1461 69.8531C79.1461 70.0889 79.08 70.2997 78.9477 70.4857C78.8174 70.6716 78.6382 70.8182 78.4101 70.9255C78.1839 71.0329 77.9252 71.0866 77.6338 71.0866Z" fill="black"/>
<path d="M77.1178 31.007C76.7882 31.007 76.5054 30.9207 76.2697 30.7482C76.0358 30.5757 75.8566 30.3265 75.732 30.0007C75.6093 29.6729 75.548 29.2761 75.548 28.8104C75.548 28.3465 75.6103 27.9507 75.7349 27.6229C75.8595 27.2932 76.0387 27.0421 76.2725 26.8696C76.5083 26.6952 76.7901 26.608 77.1178 26.608C77.4475 26.608 77.7293 26.6952 77.9631 26.8696C78.1989 27.0421 78.3781 27.2932 78.5008 27.6229C78.6254 27.9507 78.6877 28.3465 78.6877 28.8104C78.6877 29.2761 78.6263 29.6729 78.5037 30.0007C78.381 30.3265 78.2027 30.5757 77.9689 30.7482C77.735 30.9207 77.4514 31.007 77.1178 31.007ZM77.1178 30.4549C77.3191 30.4549 77.4887 30.3907 77.6267 30.2623C77.7647 30.1339 77.8702 29.947 77.943 29.7017C78.0158 29.4544 78.0523 29.1573 78.0523 28.8104C78.0523 28.4615 78.0158 28.1644 77.943 27.9191C77.8702 27.6718 77.7647 27.484 77.6267 27.3555C77.4887 27.2252 77.3191 27.16 77.1178 27.16C76.8207 27.16 76.5907 27.3047 76.4278 27.5942C76.2668 27.8817 76.1863 28.2871 76.1863 28.8104C76.1863 29.1573 76.2227 29.4544 76.2955 29.7017C76.3684 29.947 76.4738 30.1339 76.6118 30.2623C76.7517 30.3907 76.9204 30.4549 77.1178 30.4549ZM79.1017 30.1128V29.5924L80.9504 26.6655H81.3615V27.436H81.097L79.7745 29.5291V29.5636H82.3132V30.1128H79.1017ZM81.1258 30.9495V29.9547L81.1315 29.716V26.6655H81.7468V30.9495H81.1258Z" fill="black"/>
<path d="M93.2365 59.7598C92.9068 59.7598 92.6241 59.6736 92.3883 59.5011C92.1545 59.3286 91.9753 59.0794 91.8507 58.7535C91.728 58.4258 91.6667 58.029 91.6667 57.5632C91.6667 57.0994 91.729 56.7036 91.8535 56.3758C91.9781 56.0461 92.1574 55.795 92.3912 55.6225C92.627 55.4481 92.9087 55.3609 93.2365 55.3609C93.5662 55.3609 93.8479 55.4481 94.0818 55.6225C94.3175 55.795 94.4968 56.0461 94.6194 56.3758C94.744 56.7036 94.8063 57.0994 94.8063 57.5632C94.8063 58.029 94.745 58.4258 94.6223 58.7535C94.4996 59.0794 94.3214 59.3286 94.0875 59.5011C93.8537 59.6736 93.57 59.7598 93.2365 59.7598ZM93.2365 59.2078C93.4378 59.2078 93.6074 59.1436 93.7454 59.0152C93.8834 58.8868 93.9888 58.6999 94.0617 58.4545C94.1345 58.2073 94.1709 57.9102 94.1709 57.5632C94.1709 57.2144 94.1345 56.9173 94.0617 56.6719C93.9888 56.4247 93.8834 56.2368 93.7454 56.1084C93.6074 55.9781 93.4378 55.9129 93.2365 55.9129C92.9394 55.9129 92.7094 56.0576 92.5465 56.347C92.3855 56.6346 92.3049 57.04 92.3049 57.5632C92.3049 57.9102 92.3414 58.2073 92.4142 58.4545C92.487 58.6999 92.5925 58.8868 92.7305 59.0152C92.8704 59.1436 93.0391 59.2078 93.2365 59.2078ZM96.7212 59.7598C96.4586 59.7598 96.2228 59.71 96.0139 59.6103C95.8069 59.5087 95.6411 59.3698 95.5165 59.1934C95.3919 59.0152 95.3258 58.813 95.3181 58.5868H95.9449C95.9602 58.7689 96.0417 58.9193 96.1893 59.0382C96.3368 59.157 96.5141 59.2164 96.7212 59.2164C96.886 59.2164 97.0317 59.1781 97.1582 59.1014C97.2847 59.0248 97.3844 58.9203 97.4572 58.788C97.53 58.6539 97.5664 58.5005 97.5664 58.328C97.5664 58.1555 97.5291 58.0012 97.4543 57.8651C97.3796 57.7271 97.2761 57.6188 97.1438 57.5402C97.0135 57.4616 96.863 57.4223 96.6924 57.4223C96.5621 57.4223 96.4317 57.4453 96.3014 57.4914C96.171 57.5354 96.0656 57.5929 95.9851 57.6639L95.39 57.5776L95.6315 55.4184H97.9862V55.9733H96.172L96.0369 57.1722H96.0599C96.1423 57.0898 96.2525 57.0227 96.3905 56.971C96.5304 56.9173 96.6809 56.8904 96.8419 56.8904C97.1026 56.8904 97.3345 56.9527 97.5377 57.0773C97.7428 57.2 97.9038 57.3687 98.0207 57.5834C98.1376 57.7961 98.1961 58.0405 98.1961 58.3165C98.1961 58.5944 98.1329 58.8427 98.0063 59.0612C97.8798 59.2778 97.7054 59.4484 97.4831 59.573C97.2626 59.6975 97.0087 59.7598 96.7212 59.7598Z" fill="black"/>
<path d="M93.2365 84.5917C92.9068 84.5917 92.6241 84.5054 92.3883 84.3329C92.1545 84.1604 91.9753 83.9112 91.8507 83.5854C91.728 83.2576 91.6667 82.8608 91.6667 82.3951C91.6667 81.9312 91.729 81.5354 91.8535 81.2076C91.9781 80.878 92.1574 80.6269 92.3912 80.4544C92.627 80.2799 92.9087 80.1927 93.2365 80.1927C93.5662 80.1927 93.8479 80.2799 94.0818 80.4544C94.3175 80.6269 94.4968 80.878 94.6194 81.2076C94.744 81.5354 94.8063 81.9312 94.8063 82.3951C94.8063 82.8608 94.745 83.2576 94.6223 83.5854C94.4996 83.9112 94.3214 84.1604 94.0875 84.3329C93.8537 84.5054 93.57 84.5917 93.2365 84.5917ZM93.2365 84.0397C93.4378 84.0397 93.6074 83.9754 93.7454 83.847C93.8834 83.7186 93.9888 83.5317 94.0617 83.2864C94.1345 83.0391 94.1709 82.742 94.1709 82.3951C94.1709 82.0462 94.1345 81.7491 94.0617 81.5038C93.9888 81.2565 93.8834 81.0687 93.7454 80.9403C93.6074 80.8099 93.4378 80.7447 93.2365 80.7447C92.9394 80.7447 92.7094 80.8895 92.5465 81.1789C92.3855 81.4664 92.3049 81.8718 92.3049 82.3951C92.3049 82.742 92.3414 83.0391 92.4142 83.2864C92.487 83.5317 92.5925 83.7186 92.7305 83.847C92.8704 83.9754 93.0391 84.0397 93.2365 84.0397ZM96.7902 84.5917C96.6004 84.5917 96.4126 84.5581 96.2266 84.4911C96.0407 84.424 95.873 84.3128 95.7235 84.1575C95.574 84.0004 95.4532 83.7895 95.3612 83.525C95.2711 83.2605 95.2261 82.9318 95.2261 82.5388C95.2261 82.1651 95.2635 81.8335 95.3382 81.544C95.4149 81.2527 95.5232 81.0073 95.6631 80.808C95.8049 80.6067 95.9755 80.4544 96.1749 80.3509C96.3742 80.2454 96.5985 80.1927 96.8477 80.1927C97.1026 80.1927 97.3288 80.2435 97.5262 80.3451C97.7236 80.4448 97.8837 80.5828 98.0063 80.7591C98.1309 80.9355 98.2086 81.1367 98.2392 81.3629H97.6067C97.5626 81.1846 97.4764 81.0399 97.3479 80.9288C97.2195 80.8157 97.0528 80.7591 96.8477 80.7591C96.5333 80.7591 96.288 80.8962 96.1116 81.1703C95.9372 81.4424 95.85 81.822 95.85 82.3088H95.8816C95.9564 82.1881 96.0474 82.0846 96.1548 81.9983C96.2621 81.9101 96.3819 81.8431 96.5141 81.797C96.6483 81.751 96.7911 81.728 96.9425 81.728C97.1898 81.728 97.4141 81.7884 97.6153 81.9092C97.8185 82.0299 97.9795 82.1967 98.0984 82.4095C98.2191 82.6203 98.2795 82.8628 98.2795 83.1369C98.2795 83.409 98.2172 83.6553 98.0926 83.8758C97.9699 84.0962 97.7965 84.2706 97.5722 84.399C97.3499 84.5275 97.0892 84.5917 96.7902 84.5917ZM96.7873 84.0483C96.9521 84.0483 97.0988 84.008 97.2272 83.9275C97.3575 83.847 97.461 83.7387 97.5377 83.6026C97.6144 83.4646 97.6527 83.3113 97.6527 83.1426C97.6527 82.9778 97.6153 82.8283 97.5406 82.6941C97.4677 82.5599 97.3671 82.4535 97.2387 82.375C97.1122 82.2944 96.9665 82.2542 96.8017 82.2542C96.6387 82.2542 96.4911 82.2954 96.3589 82.3778C96.2266 82.4602 96.1212 82.5695 96.0426 82.7056C95.966 82.8417 95.9276 82.9893 95.9276 83.1484C95.9276 83.3075 95.965 83.456 96.0398 83.594C96.1145 83.732 96.2161 83.8422 96.3445 83.9247C96.4749 84.0071 96.6224 84.0483 96.7873 84.0483Z" fill="black"/>
<path d="M173.397 84.1561C173.068 84.1561 172.785 84.0699 172.549 83.8974C172.315 83.7249 172.136 83.4757 172.012 83.1498C171.889 82.8221 171.828 82.4253 171.828 81.9595C171.828 81.4957 171.89 81.0999 172.014 80.7721C172.139 80.4424 172.318 80.1913 172.552 80.0188C172.788 79.8444 173.07 79.7572 173.397 79.7572C173.727 79.7572 174.009 79.8444 174.243 80.0188C174.478 80.1913 174.658 80.4424 174.78 80.7721C174.905 81.0999 174.967 81.4957 174.967 81.9595C174.967 82.4253 174.906 82.8221 174.783 83.1498C174.661 83.4757 174.482 83.7249 174.248 83.8974C174.015 84.0699 173.731 84.1561 173.397 84.1561ZM173.397 83.6041C173.599 83.6041 173.768 83.5399 173.906 83.4115C174.044 83.2831 174.15 83.0962 174.223 82.8508C174.295 82.6036 174.332 82.3065 174.332 81.9595C174.332 81.6107 174.295 81.3136 174.223 81.0682C174.15 80.821 174.044 80.6331 173.906 80.5047C173.768 80.3744 173.599 80.3092 173.397 80.3092C173.1 80.3092 172.87 80.4539 172.707 80.7433C172.546 81.0309 172.466 81.4363 172.466 81.9595C172.466 82.3065 172.502 82.6036 172.575 82.8508C172.648 83.0962 172.753 83.2831 172.891 83.4115C173.031 83.5399 173.2 83.6041 173.397 83.6041ZM175.496 84.0986L177.365 80.4012V80.3696H175.203V79.8147H178.038V80.3926L176.172 84.0986H175.496Z" fill="black"/>
<path d="M185.594 84.1561C185.264 84.1561 184.981 84.0699 184.746 83.8974C184.512 83.7249 184.333 83.4757 184.208 83.1498C184.085 82.8221 184.024 82.4253 184.024 81.9595C184.024 81.4957 184.086 81.0999 184.211 80.7721C184.335 80.4424 184.515 80.1913 184.749 80.0188C184.984 79.8444 185.266 79.7572 185.594 79.7572C185.924 79.7572 186.205 79.8444 186.439 80.0188C186.675 80.1913 186.854 80.4424 186.977 80.7721C187.101 81.0999 187.164 81.4957 187.164 81.9595C187.164 82.4253 187.102 82.8221 186.98 83.1498C186.857 83.4757 186.679 83.7249 186.445 83.8974C186.211 84.0699 185.927 84.1561 185.594 84.1561ZM185.594 83.6041C185.795 83.6041 185.965 83.5399 186.103 83.4115C186.241 83.2831 186.346 83.0962 186.419 82.8508C186.492 82.6036 186.528 82.3065 186.528 81.9595C186.528 81.6107 186.492 81.3136 186.419 81.0682C186.346 80.821 186.241 80.6331 186.103 80.5047C185.965 80.3744 185.795 80.3092 185.594 80.3092C185.297 80.3092 185.067 80.4539 184.904 80.7433C184.743 81.0309 184.662 81.4363 184.662 81.9595C184.662 82.3065 184.699 82.6036 184.772 82.8508C184.844 83.0962 184.95 83.2831 185.088 83.4115C185.228 83.5399 185.396 83.6041 185.594 83.6041ZM189.107 84.1561C188.808 84.1561 188.544 84.1044 188.314 84.0009C188.086 83.8974 187.906 83.7555 187.776 83.5754C187.648 83.3933 187.583 83.1863 187.583 82.9543C187.583 82.7761 187.621 82.6103 187.696 82.4569C187.772 82.3036 187.876 82.1761 188.006 82.0745C188.136 81.9729 188.283 81.9078 188.446 81.879V81.8531C188.233 81.8014 188.062 81.6874 187.931 81.511C187.803 81.3327 187.739 81.1296 187.739 80.9015C187.739 80.6811 187.797 80.4846 187.914 80.3121C188.033 80.1396 188.195 80.0044 188.4 79.9067C188.607 79.807 188.843 79.7572 189.107 79.7572C189.368 79.7572 189.601 79.807 189.806 79.9067C190.013 80.0044 190.175 80.1396 190.292 80.3121C190.411 80.4846 190.47 80.6811 190.47 80.9015C190.47 81.1296 190.405 81.3327 190.275 81.511C190.146 81.6874 189.977 81.8014 189.769 81.8531V81.879C189.93 81.9078 190.075 81.9729 190.206 82.0745C190.336 82.1761 190.439 82.3036 190.516 82.4569C190.593 82.6103 190.631 82.7761 190.631 82.9543C190.631 83.1863 190.566 83.3933 190.436 83.5754C190.305 83.7555 190.125 83.8974 189.895 84.0009C189.667 84.1044 189.404 84.1561 189.107 84.1561ZM189.107 83.6271C189.284 83.6271 189.437 83.5984 189.567 83.5409C189.698 83.4814 189.798 83.3981 189.869 83.2907C189.94 83.1834 189.976 83.0588 189.976 82.917C189.976 82.7674 189.937 82.6361 189.861 82.5231C189.786 82.4081 189.683 82.318 189.553 82.2528C189.423 82.1857 189.274 82.1522 189.107 82.1522C188.939 82.1522 188.788 82.1847 188.656 82.2499C188.526 82.3151 188.423 82.4052 188.348 82.5202C188.273 82.6352 188.236 82.7674 188.236 82.917C188.236 83.0588 188.272 83.1834 188.342 83.2907C188.413 83.3981 188.514 83.4814 188.644 83.5409C188.775 83.5984 188.929 83.6271 189.107 83.6271ZM189.107 81.6375C189.249 81.6375 189.375 81.6088 189.484 81.5513C189.595 81.4938 189.682 81.4142 189.746 81.3126C189.811 81.211 189.843 81.0922 189.843 80.9561C189.843 80.8219 189.812 80.705 189.748 80.6053C189.687 80.5057 189.601 80.428 189.49 80.3725C189.38 80.3169 189.253 80.2891 189.107 80.2891C188.96 80.2891 188.83 80.3169 188.719 80.3725C188.608 80.428 188.522 80.5057 188.46 80.6053C188.399 80.705 188.368 80.8219 188.368 80.9561C188.368 81.0922 188.4 81.211 188.463 81.3126C188.526 81.4142 188.613 81.4938 188.722 81.5513C188.833 81.6088 188.962 81.6375 189.107 81.6375Z" fill="black"/>
<path d="M219.575 24.9079C219.245 24.9079 218.962 24.8217 218.727 24.6491C218.493 24.4766 218.314 24.2275 218.189 23.9016C218.066 23.5738 218.005 23.1771 218.005 22.7113C218.005 22.2474 218.067 21.8516 218.192 21.5239C218.316 21.1942 218.496 20.9431 218.729 20.7706C218.965 20.5962 219.247 20.5089 219.575 20.5089C219.904 20.5089 220.186 20.5962 220.42 20.7706C220.656 20.9431 220.835 21.1942 220.958 21.5239C221.082 21.8516 221.145 22.2474 221.145 22.7113C221.145 23.1771 221.083 23.5738 220.961 23.9016C220.838 24.2275 220.66 24.4766 220.426 24.6491C220.192 24.8217 219.908 24.9079 219.575 24.9079ZM219.575 24.3559C219.776 24.3559 219.946 24.2917 220.084 24.1632C220.222 24.0348 220.327 23.8479 220.4 23.6026C220.473 23.3553 220.509 23.0582 220.509 22.7113C220.509 22.3624 220.473 22.0654 220.4 21.82C220.327 21.5727 220.222 21.3849 220.084 21.2565C219.946 21.1261 219.776 21.061 219.575 21.061C219.278 21.061 219.048 21.2057 218.885 21.4951C218.724 21.7826 218.643 22.188 218.643 22.7113C218.643 23.0582 218.68 23.3553 218.752 23.6026C218.825 23.8479 218.931 24.0348 219.069 24.1632C219.209 24.2917 219.377 24.3559 219.575 24.3559ZM223.054 20.5061C223.245 20.508 223.433 20.5434 223.617 20.6124C223.803 20.6795 223.971 20.7907 224.12 20.946C224.272 21.1012 224.393 21.3111 224.483 21.5756C224.573 21.8382 224.618 22.166 224.618 22.5589C224.618 22.9327 224.58 23.2652 224.506 23.5566C224.431 23.8479 224.323 24.0942 224.181 24.2955C224.041 24.4968 223.871 24.6501 223.672 24.7555C223.472 24.859 223.249 24.9108 223.002 24.9108C222.747 24.9108 222.52 24.86 222.321 24.7584C222.121 24.6568 221.96 24.5178 221.837 24.3415C221.715 24.1632 221.637 23.9591 221.605 23.7291H222.243C222.285 23.9112 222.37 24.0597 222.499 24.1747C222.629 24.2878 222.797 24.3444 223.002 24.3444C223.314 24.3444 223.558 24.2073 223.732 23.9332C223.909 23.6591 223.998 23.2767 224 22.7861H223.968C223.893 22.9068 223.802 23.0113 223.695 23.0994C223.587 23.1857 223.467 23.2518 223.333 23.2978C223.198 23.3438 223.057 23.3668 222.907 23.3668C222.658 23.3668 222.432 23.3065 222.229 23.1857C222.025 23.0649 221.864 22.8991 221.745 22.6883C221.627 22.4755 221.566 22.2331 221.564 21.9609C221.566 21.6887 221.629 21.4424 221.751 21.222C221.876 21.0016 222.049 20.8271 222.272 20.6987C222.494 20.5684 222.755 20.5042 223.054 20.5061ZM223.057 21.0523C222.894 21.0523 222.747 21.0926 222.617 21.1731C222.486 21.2536 222.384 21.3619 222.309 21.498C222.234 21.6341 222.197 21.7855 222.197 21.9523C222.197 22.119 222.232 22.2695 222.303 22.4037C222.376 22.5378 222.477 22.6452 222.605 22.7257C222.734 22.8043 222.879 22.8436 223.042 22.8436C223.207 22.8436 223.355 22.8023 223.485 22.7199C223.617 22.6356 223.723 22.5254 223.801 22.3893C223.88 22.2513 223.919 22.1027 223.919 21.9436C223.919 21.7865 223.882 21.6398 223.807 21.5037C223.732 21.3677 223.63 21.2584 223.499 21.176C223.371 21.0936 223.223 21.0523 223.057 21.0523Z" fill="black"/>
<path d="M235.751 20.5664V24.8504H235.113V21.2162H235.084L234.066 21.8861V21.2651L235.13 20.5664H235.751ZM237.873 24.9079C237.543 24.9079 237.26 24.8217 237.025 24.6491C236.791 24.4766 236.612 24.2275 236.487 23.9016C236.364 23.5738 236.303 23.1771 236.303 22.7113C236.303 22.2474 236.365 21.8516 236.49 21.5239C236.614 21.1942 236.794 20.9431 237.027 20.7706C237.263 20.5962 237.545 20.5089 237.873 20.5089C238.202 20.5089 238.484 20.5962 238.718 20.7706C238.954 20.9431 239.133 21.1942 239.256 21.5239C239.38 21.8516 239.443 22.2474 239.443 22.7113C239.443 23.1771 239.381 23.5738 239.259 23.9016C239.136 24.2275 238.958 24.4766 238.724 24.6491C238.49 24.8217 238.206 24.9079 237.873 24.9079ZM237.873 24.3559C238.074 24.3559 238.244 24.2917 238.382 24.1632C238.52 24.0348 238.625 23.8479 238.698 23.6026C238.771 23.3553 238.807 23.0582 238.807 22.7113C238.807 22.3624 238.771 22.0654 238.698 21.82C238.625 21.5727 238.52 21.3849 238.382 21.2565C238.244 21.1261 238.074 21.061 237.873 21.061C237.576 21.061 237.346 21.2057 237.183 21.4951C237.022 21.7826 236.941 22.188 236.941 22.7113C236.941 23.0582 236.978 23.3553 237.05 23.6026C237.123 23.8479 237.229 24.0348 237.367 24.1632C237.507 24.2917 237.675 24.3559 237.873 24.3559Z" fill="black"/>
<path d="M8.72361 31.007C8.39393 31.007 8.11121 30.9207 7.87545 30.7482C7.6416 30.5757 7.46239 30.3265 7.3378 30.0007C7.21512 29.6729 7.15379 29.2761 7.15379 28.8104C7.15379 28.3465 7.21608 27.9507 7.34067 27.6229C7.46526 27.2932 7.64448 27.0421 7.87832 26.8696C8.11408 26.6952 8.39585 26.608 8.72361 26.608C9.0533 26.608 9.33506 26.6952 9.5689 26.8696C9.80466 27.0421 9.98388 27.2932 10.1066 27.6229C10.2311 27.9507 10.2934 28.3465 10.2934 28.8104C10.2934 29.2761 10.2321 29.6729 10.1094 30.0007C9.98676 30.3265 9.8085 30.5757 9.57465 30.7482C9.34081 30.9207 9.05713 31.007 8.72361 31.007ZM8.72361 30.4549C8.92487 30.4549 9.09451 30.3907 9.23251 30.2623C9.37052 30.1339 9.47594 29.947 9.54878 29.7017C9.62161 29.4544 9.65803 29.1573 9.65803 28.8104C9.65803 28.4615 9.62161 28.1644 9.54878 27.9191C9.47594 27.6718 9.37052 27.484 9.23251 27.3555C9.09451 27.2252 8.92487 27.16 8.72361 27.16C8.42652 27.16 8.1965 27.3047 8.03358 27.5942C7.87257 27.8817 7.79207 28.2871 7.79207 28.8104C7.79207 29.1573 7.82849 29.4544 7.90132 29.7017C7.97416 29.947 8.07958 30.1339 8.21759 30.2623C8.35751 30.3907 8.52619 30.4549 8.72361 30.4549ZM12.3405 26.6655V30.9495H11.7023V27.3153H11.6735L10.6557 27.9852V27.3642L11.7195 26.6655H12.3405Z" fill="black"/>
<circle cx="16.0927" cy="29.4346" r="1.30695" fill="black"/>
<circle cx="16.0927" cy="75.6133" r="1.30695" fill="black"/>
<circle cx="75.7775" cy="63.4152" r="1.30695" fill="black"/>
<circle cx="84.9249" cy="29.4346" r="1.30695" fill="black"/>
<circle cx="95.3805" cy="64.7221" r="1.30695" fill="black"/>
<circle cx="95.3805" cy="75.6133" r="1.30695" fill="black"/>
<circle cx="175.106" cy="62.1084" r="1.30695" fill="black"/>
<circle cx="187.738" cy="62.1084" r="1.30695" fill="black"/>
<circle cx="220.846" cy="30.306" r="1.30695" fill="black"/>
<circle cx="236.967" cy="29.4346" r="1.30695" fill="black"/>
</svg>
