<svg width="1017" height="153" viewBox="0 0 1017 153" fill="none" xmlns="http://www.w3.org/2000/svg">
<mask id="path-1-outside-1_1052_1417" maskUnits="userSpaceOnUse" x="-2" y="-1.68018" width="1021" height="157" fill="black">
<rect fill="white" x="-2" y="-1.68018" width="1021" height="157"/>
<path d="M0.553833 49.5682V30.0953H81.239V49.5682H52.5882V119.32H29.045V49.5682H0.553833ZM114.678 86.6786L146.761 30.0953H171.182V119.32H147.639V62.6566L115.636 119.32H91.1351V30.0953H114.678V86.6786ZM185.787 119.32V30.0953H263.678V119.32H240.135V49.5682H209.01V119.32H185.787ZM318.346 121.076C309.355 121.076 301.56 119.16 294.963 115.329C288.419 111.446 283.364 106.072 279.8 99.2084C276.288 92.2918 274.532 84.2578 274.532 75.1066C274.532 65.8489 276.288 57.7884 279.8 50.925C283.364 44.0083 288.419 38.6346 294.963 34.8039C301.56 30.9199 309.355 28.978 318.346 28.978C327.391 28.978 335.186 30.9199 341.73 34.8039C348.327 38.6346 353.382 44.0083 356.893 50.925C360.458 57.7884 362.24 65.8489 362.24 75.1066C362.24 84.2578 360.458 92.2918 356.893 99.2084C353.382 106.072 348.327 111.446 341.73 115.329C335.186 119.16 327.391 121.076 318.346 121.076ZM318.506 101.762C322.603 101.762 326.035 100.618 328.801 98.3305C331.568 95.9895 333.643 92.7972 335.026 88.7536C336.463 84.7101 337.181 80.1078 337.181 74.947C337.181 69.7329 336.463 65.1307 335.026 61.1403C333.643 57.1499 331.568 54.0109 328.801 51.723C326.035 49.4352 322.603 48.2913 318.506 48.2913C314.356 48.2913 310.871 49.4352 308.051 51.723C305.285 54.0109 303.183 57.1499 301.747 61.1403C300.363 65.1307 299.672 69.7329 299.672 74.947C299.672 80.1078 300.363 84.7101 301.747 88.7536C303.183 92.7972 305.285 95.9895 308.051 98.3305C310.871 100.618 314.356 101.762 318.506 101.762ZM434.067 30.0953V49.5682H397.036V119.32H373.174V30.0953H434.067ZM444.043 152.679V30.0953H468.304V45.1788H469.422C470.539 42.7314 472.135 40.2574 474.21 37.7568C476.285 35.2561 478.999 33.1811 482.35 31.5318C485.702 29.8292 489.852 28.978 494.8 28.978C501.345 28.978 507.33 30.6805 512.757 34.0856C518.237 37.4375 522.627 42.5186 525.925 49.3288C529.224 56.139 530.873 64.6518 530.873 74.8672C530.873 84.7633 529.277 93.143 526.085 100.006C522.893 106.817 518.556 111.978 513.076 115.489C507.649 119.001 501.531 120.756 494.721 120.756C489.932 120.756 485.862 119.958 482.51 118.362C479.158 116.766 476.418 114.771 474.29 112.377C472.215 109.929 470.592 107.482 469.422 105.034H468.703V152.679H444.043ZM486.899 101.124C490.943 101.124 494.348 100.006 497.115 97.7719C499.881 95.5372 501.983 92.4514 503.42 88.5142C504.856 84.5238 505.574 79.9482 505.574 74.7874C505.574 69.6265 504.856 65.1041 503.42 61.2201C502.036 57.283 499.961 54.1971 497.195 51.9625C494.428 49.7279 490.996 48.6106 486.899 48.6106C482.909 48.6106 479.504 49.7013 476.684 51.8827C473.918 54.0109 471.789 57.0435 470.3 60.9807C468.863 64.8646 468.145 69.4669 468.145 74.7874C468.145 80.0546 468.89 84.6569 470.379 88.594C471.869 92.5312 473.997 95.6171 476.764 97.8517C479.584 100.033 482.962 101.124 486.899 101.124ZM567.106 120.996C561.466 120.996 556.385 120.011 551.863 118.043C547.393 116.021 543.882 113.042 541.328 109.104C538.774 105.167 537.497 100.272 537.497 94.4199C537.497 89.4187 538.402 85.2687 540.211 81.97C542.02 78.6181 544.494 75.9047 547.633 73.8297C550.772 71.7547 554.337 70.1851 558.327 69.121C562.317 68.0569 566.547 67.3121 571.016 66.8864C576.177 66.4076 580.327 65.9287 583.466 65.4499C586.605 64.9711 588.893 64.2528 590.33 63.2951C591.82 62.2842 592.564 60.8477 592.564 58.9855V58.5865C592.564 54.9153 591.394 52.0689 589.053 50.0471C586.765 48.0253 583.52 47.0144 579.316 47.0144C574.9 47.0144 571.362 47.9987 568.702 49.9673C566.095 51.8827 564.366 54.3301 563.515 57.3096L540.61 55.474C541.78 50.0471 544.068 45.3651 547.473 41.4279C550.878 37.4375 555.268 34.3783 560.641 32.2501C566.068 30.0687 572.347 28.978 579.476 28.978C584.424 28.978 589.159 29.5632 593.682 30.7337C598.204 31.9042 602.221 33.7132 605.733 36.1606C609.297 38.5548 612.117 41.6673 614.192 45.4981C616.267 49.3288 617.305 53.8778 617.305 59.1451V119.32H593.761V106.87H593.123C591.686 109.69 589.771 112.164 587.377 114.292C584.983 116.367 582.11 118.016 578.758 119.24C575.406 120.411 571.522 120.996 567.106 120.996ZM574.209 103.917C577.827 103.917 581.019 103.199 583.786 101.762C586.605 100.272 588.787 98.3039 590.33 95.8565C591.926 93.3559 592.724 90.5626 592.724 87.4767V77.9796C591.979 78.4585 590.915 78.9107 589.532 79.3364C588.202 79.762 586.712 80.1344 585.062 80.4537C583.413 80.7729 581.764 81.0655 580.114 81.3316C578.465 81.5444 576.975 81.7572 575.645 81.97C572.719 82.3956 570.165 83.0873 567.984 84.045C565.802 84.9495 564.1 86.1998 562.876 87.7959C561.706 89.3389 561.12 91.2809 561.12 93.6219C561.12 96.9738 562.344 99.5276 564.791 101.283C567.239 103.039 570.378 103.917 574.209 103.917ZM674.287 149.647V0.406953H698.947V149.647H674.287ZM674.287 121.076C667.477 121.076 661.225 119.958 655.532 117.724C649.893 115.489 645.024 112.35 640.928 108.306C636.831 104.21 633.665 99.3414 631.43 93.7017C629.196 88.062 628.079 81.8636 628.079 75.1066C628.079 68.2964 629.196 62.0714 631.43 56.4317C633.665 50.7388 636.831 45.8439 640.928 41.7471C645.024 37.6504 649.893 34.5113 655.532 32.3299C661.225 30.0953 667.477 28.978 674.287 28.978H678.916V121.076H674.287ZM674.287 101.762H677.08V48.2913H674.287C669.924 48.2913 666.173 49.4884 663.034 51.8827C659.948 54.2769 657.581 57.4958 655.931 61.5393C654.335 65.5829 653.537 70.1053 653.537 75.1066C653.537 78.8309 653.989 82.3158 654.894 85.5613C655.798 88.7536 657.155 91.5735 658.964 94.0209C660.773 96.4151 662.954 98.3039 665.508 99.6872C668.062 101.071 670.988 101.762 674.287 101.762ZM698.947 121.076H694.398V28.978H698.947C705.811 28.978 712.062 30.0953 717.702 32.3299C723.395 34.5113 728.29 37.6504 732.387 41.7471C736.483 45.8439 739.649 50.7388 741.884 56.4317C744.172 62.0714 745.315 68.2964 745.315 75.1066C745.315 81.8636 744.172 88.062 741.884 93.7017C739.649 99.3414 736.483 104.21 732.387 108.306C728.29 112.35 723.395 115.489 717.702 117.724C712.062 119.958 705.811 121.076 698.947 121.076ZM698.947 101.762C702.299 101.762 705.252 101.071 707.806 99.6872C710.413 98.3039 712.594 96.4151 714.35 94.0209C716.159 91.5735 717.543 88.7536 718.5 85.5613C719.458 82.3158 719.937 78.8309 719.937 75.1066C719.937 70.1053 719.112 65.5829 717.463 61.5393C715.813 57.4958 713.419 54.2769 710.28 51.8827C707.194 49.4884 703.417 48.2913 698.947 48.2913H696.314V101.762H698.947ZM779.792 86.6786L811.875 30.0953H836.296V119.32H812.753V62.6566L780.75 119.32H756.249V30.0953H779.792V86.6786ZM850.901 119.32V30.0953H875.561V64.7316H882.584L906.766 30.0953H935.816L904.292 74.4681L936.135 119.32H906.766L884.739 87.7161H875.561V119.32H850.901ZM966.621 120.996C960.981 120.996 955.9 120.011 951.378 118.043C946.909 116.021 943.397 113.042 940.843 109.104C938.29 105.167 937.013 100.272 937.013 94.4199C937.013 89.4187 937.917 85.2687 939.726 81.97C941.535 78.6181 944.009 75.9047 947.148 73.8297C950.287 71.7547 953.852 70.1851 957.842 69.121C961.833 68.0569 966.063 67.3121 970.532 66.8864C975.693 66.4076 979.843 65.9287 982.982 65.4499C986.121 64.9711 988.409 64.2528 989.845 63.2951C991.335 62.2842 992.08 60.8477 992.08 58.9855V58.5865C992.08 54.9153 990.909 52.0689 988.568 50.0471C986.28 48.0253 983.035 47.0144 978.832 47.0144C974.416 47.0144 970.878 47.9987 968.217 49.9673C965.61 51.8827 963.881 54.3301 963.03 57.3096L940.125 55.474C941.296 50.0471 943.583 45.3651 946.989 41.4279C950.394 37.4375 954.783 34.3783 960.157 32.2501C965.584 30.0687 971.862 28.978 978.991 28.978C983.939 28.978 988.675 29.5632 993.197 30.7337C997.719 31.9042 1001.74 33.7132 1005.25 36.1606C1008.81 38.5548 1011.63 41.6673 1013.71 45.4981C1015.78 49.3288 1016.82 53.8778 1016.82 59.1451V119.32H993.277V106.87H992.638C991.202 109.69 989.286 112.164 986.892 114.292C984.498 116.367 981.625 118.016 978.273 119.24C974.921 120.411 971.037 120.996 966.621 120.996ZM973.724 103.917C977.342 103.917 980.534 103.199 983.301 101.762C986.121 100.272 988.302 98.3039 989.845 95.8565C991.441 93.3559 992.239 90.5626 992.239 87.4767V77.9796C991.494 78.4585 990.43 78.9107 989.047 79.3364C987.717 79.762 986.227 80.1344 984.578 80.4537C982.928 80.7729 981.279 81.0655 979.63 81.3316C977.98 81.5444 976.491 81.7572 975.161 81.97C972.234 82.3956 969.68 83.0873 967.499 84.045C965.318 84.9495 963.615 86.1998 962.391 87.7959C961.221 89.3389 960.636 91.2809 960.636 93.6219C960.636 96.9738 961.859 99.5276 964.307 101.283C966.754 103.039 969.893 103.917 973.724 103.917Z"/>
</mask>
<path d="M0.553833 49.5682H-1.44617V51.5682H0.553833V49.5682ZM0.553833 30.0953V28.0953H-1.44617V30.0953H0.553833ZM81.239 30.0953H83.239V28.0953H81.239V30.0953ZM81.239 49.5682V51.5682H83.239V49.5682H81.239ZM52.5882 49.5682V47.5682H50.5882V49.5682H52.5882ZM52.5882 119.32V121.32H54.5882V119.32H52.5882ZM29.045 119.32H27.045V121.32H29.045V119.32ZM29.045 49.5682H31.045V47.5682H29.045V49.5682ZM2.55383 49.5682V30.0953H-1.44617V49.5682H2.55383ZM0.553833 32.0953H81.239V28.0953H0.553833V32.0953ZM79.239 30.0953V49.5682H83.239V30.0953H79.239ZM81.239 47.5682H52.5882V51.5682H81.239V47.5682ZM50.5882 49.5682V119.32H54.5882V49.5682H50.5882ZM52.5882 117.32H29.045V121.32H52.5882V117.32ZM31.045 119.32V49.5682H27.045V119.32H31.045ZM29.045 47.5682H0.553833V51.5682H29.045V47.5682ZM114.678 86.6786H112.678V94.2609L116.418 87.6651L114.678 86.6786ZM146.761 30.0953V28.0953H145.596L145.021 29.1088L146.761 30.0953ZM171.182 30.0953H173.182V28.0953H171.182V30.0953ZM171.182 119.32V121.32H173.182V119.32H171.182ZM147.639 119.32H145.639V121.32H147.639V119.32ZM147.639 62.6566H149.639V55.0486L145.897 61.6731L147.639 62.6566ZM115.636 119.32V121.32H116.803L117.377 120.303L115.636 119.32ZM91.1351 119.32H89.1351V121.32H91.1351V119.32ZM91.1351 30.0953V28.0953H89.1351V30.0953H91.1351ZM114.678 30.0953H116.678V28.0953H114.678V30.0953ZM116.418 87.6651L148.501 31.0817L145.021 29.1088L112.938 85.6922L116.418 87.6651ZM146.761 32.0953H171.182V28.0953H146.761V32.0953ZM169.182 30.0953V119.32H173.182V30.0953H169.182ZM171.182 117.32H147.639V121.32H171.182V117.32ZM149.639 119.32V62.6566H145.639V119.32H149.639ZM145.897 61.6731L113.895 118.336L117.377 120.303L149.38 63.6402L145.897 61.6731ZM115.636 117.32H91.1351V121.32H115.636V117.32ZM93.1351 119.32V30.0953H89.1351V119.32H93.1351ZM91.1351 32.0953H114.678V28.0953H91.1351V32.0953ZM112.678 30.0953V86.6786H116.678V30.0953H112.678ZM185.787 119.32H183.787V121.32H185.787V119.32ZM185.787 30.0953V28.0953H183.787V30.0953H185.787ZM263.678 30.0953H265.678V28.0953H263.678V30.0953ZM263.678 119.32V121.32H265.678V119.32H263.678ZM240.135 119.32H238.135V121.32H240.135V119.32ZM240.135 49.5682H242.135V47.5682H240.135V49.5682ZM209.01 49.5682V47.5682H207.01V49.5682H209.01ZM209.01 119.32V121.32H211.01V119.32H209.01ZM187.787 119.32V30.0953H183.787V119.32H187.787ZM185.787 32.0953H263.678V28.0953H185.787V32.0953ZM261.678 30.0953V119.32H265.678V30.0953H261.678ZM263.678 117.32H240.135V121.32H263.678V117.32ZM242.135 119.32V49.5682H238.135V119.32H242.135ZM240.135 47.5682H209.01V51.5682H240.135V47.5682ZM207.01 49.5682V119.32H211.01V49.5682H207.01ZM209.01 117.32H185.787V121.32H209.01V117.32ZM294.963 115.329L293.942 117.049L293.95 117.054L293.959 117.059L294.963 115.329ZM279.8 99.2084L278.016 100.114L278.02 100.122L278.025 100.13L279.8 99.2084ZM279.8 50.925L278.022 50.0087L278.019 50.014L279.8 50.925ZM294.963 34.8039L295.973 36.5299L295.978 36.5274L294.963 34.8039ZM341.73 34.8039L340.709 36.5238L340.717 36.5287L340.726 36.5335L341.73 34.8039ZM356.893 50.925L355.11 51.8304L355.114 51.8386L355.119 51.8468L356.893 50.925ZM356.893 99.2084L355.116 98.2921L355.113 98.2974L356.893 99.2084ZM341.73 115.329L342.74 117.055L342.745 117.053L341.73 115.329ZM328.801 98.3305L330.076 99.8718L330.084 99.8646L330.093 99.8573L328.801 98.3305ZM335.026 88.7536L333.142 88.0841L333.138 88.0952L333.134 88.1063L335.026 88.7536ZM335.026 61.1403L333.137 61.7954L333.14 61.8066L333.144 61.8177L335.026 61.1403ZM308.051 51.723L306.791 50.1699L306.784 50.1758L306.777 50.1818L308.051 51.723ZM301.747 61.1403L299.865 60.4629L299.861 60.474L299.857 60.4852L301.747 61.1403ZM301.747 88.7536L299.854 89.401L299.858 89.4121L299.862 89.4232L301.747 88.7536ZM308.051 98.3305L306.759 99.8573L306.775 99.8706L306.791 99.8836L308.051 98.3305ZM318.346 119.076C309.644 119.076 302.209 117.224 295.967 113.6L293.959 117.059C300.912 121.096 309.066 123.076 318.346 123.076V119.076ZM295.984 113.61C289.766 109.919 284.97 104.825 281.574 98.2865L278.025 100.13C281.758 107.319 287.072 112.972 293.942 117.049L295.984 113.61ZM281.583 98.303C278.237 91.7132 276.532 83.9995 276.532 75.1066H272.532C272.532 84.5161 274.339 92.8703 278.016 100.114L281.583 98.303ZM276.532 75.1066C276.532 66.1026 278.239 58.3661 281.58 51.8359L278.019 50.014C274.337 57.2107 272.532 65.5952 272.532 75.1066H276.532ZM281.577 51.8412C284.973 45.2525 289.765 40.1638 295.973 36.5299L293.953 33.0779C287.072 37.1055 281.756 42.7642 278.022 50.0087L281.577 51.8412ZM295.978 36.5274C302.218 32.8539 309.649 30.978 318.346 30.978V26.978C309.061 26.978 300.903 28.986 293.948 33.0804L295.978 36.5274ZM318.346 30.978C327.1 30.978 334.528 32.8551 340.709 36.5238L342.751 33.084C335.844 28.9848 327.682 26.978 318.346 26.978V30.978ZM340.726 36.5335C346.983 40.167 351.77 45.2517 355.11 51.8304L358.677 50.0196C354.994 42.7649 349.671 37.1023 342.734 33.0743L340.726 36.5335ZM355.119 51.8468C358.509 58.3745 360.241 66.107 360.241 75.1066H364.241C364.241 65.5908 362.407 57.2023 358.668 50.0031L355.119 51.8468ZM360.241 75.1066C360.241 83.9951 358.511 91.7048 355.116 98.2921L358.671 100.125C362.406 92.8787 364.241 84.5206 364.241 75.1066H360.241ZM355.113 98.2974C351.773 104.825 346.983 109.916 340.715 113.606L342.745 117.053C349.672 112.975 354.991 107.318 358.674 100.119L355.113 98.2974ZM340.72 113.603C334.536 117.223 327.105 119.076 318.346 119.076V123.076C327.678 123.076 335.835 121.097 342.74 117.055L340.72 113.603ZM318.506 103.762C322.999 103.762 326.9 102.498 330.076 99.8718L327.527 96.7892C325.169 98.7391 322.207 99.7622 318.506 99.7622V103.762ZM330.093 99.8573C333.182 97.2439 335.439 93.7247 336.919 89.401L333.134 88.1063C331.846 91.8697 329.954 94.7351 327.509 96.8037L330.093 99.8573ZM336.911 89.4232C338.437 85.1261 339.181 80.2911 339.181 74.947H335.181C335.181 79.9246 334.488 84.2941 333.142 88.0841L336.911 89.4232ZM339.181 74.947C339.181 69.5531 338.438 64.7139 336.908 60.4629L333.144 61.8177C334.487 65.5474 335.181 69.9127 335.181 74.947H339.181ZM336.916 60.4852C335.434 56.2105 333.171 52.7415 330.076 50.1818L327.527 53.2643C329.965 55.2802 331.852 58.0894 333.137 61.7954L336.916 60.4852ZM330.076 50.1818C326.9 47.556 322.999 46.2913 318.506 46.2913V50.2913C322.207 50.2913 325.169 51.3144 327.527 53.2643L330.076 50.1818ZM318.506 46.2913C313.966 46.2913 310.018 47.5523 306.791 50.1699L309.311 53.2762C311.725 51.3182 314.746 50.2913 318.506 50.2913V46.2913ZM306.777 50.1818C303.688 52.7363 301.401 56.197 299.865 60.4629L303.628 61.8177C304.966 58.1029 306.882 55.2854 309.326 53.2643L306.777 50.1818ZM299.857 60.4852C298.386 64.7291 297.672 69.5602 297.672 74.947H301.672C301.672 69.9056 302.341 65.5323 303.636 61.7954L299.857 60.4852ZM297.672 74.947C297.672 80.2838 298.387 85.1109 299.854 89.401L303.639 88.1063C302.34 84.3092 301.672 79.9319 301.672 74.947H297.672ZM299.862 89.4232C301.395 93.7382 303.677 97.2491 306.759 99.8573L309.343 96.8037C306.892 94.7299 304.971 91.8562 303.631 88.0841L299.862 89.4232ZM306.791 99.8836C310.018 102.501 313.966 103.762 318.506 103.762V99.7622C314.746 99.7622 311.725 98.7354 309.311 96.7774L306.791 99.8836ZM434.067 30.0953H436.067V28.0953H434.067V30.0953ZM434.067 49.5682V51.5682H436.067V49.5682H434.067ZM397.036 49.5682V47.5682H395.036V49.5682H397.036ZM397.036 119.32V121.32H399.036V119.32H397.036ZM373.174 119.32H371.174V121.32H373.174V119.32ZM373.174 30.0953V28.0953H371.174V30.0953H373.174ZM432.067 30.0953V49.5682H436.067V30.0953H432.067ZM434.067 47.5682H397.036V51.5682H434.067V47.5682ZM395.036 49.5682V119.32H399.036V49.5682H395.036ZM397.036 117.32H373.174V121.32H397.036V117.32ZM375.174 119.32V30.0953H371.174V119.32H375.174ZM373.174 32.0953H434.067V28.0953H373.174V32.0953ZM444.043 152.679H442.043V154.679H444.043V152.679ZM444.043 30.0953V28.0953H442.043V30.0953H444.043ZM468.304 30.0953H470.304V28.0953H468.304V30.0953ZM468.304 45.1788H466.304V47.1788H468.304V45.1788ZM469.422 45.1788V47.1788H470.707L471.241 46.0094L469.422 45.1788ZM482.35 31.5318L483.233 33.3263L483.245 33.3207L483.256 33.315L482.35 31.5318ZM512.757 34.0856L511.694 35.7798L511.704 35.7858L511.714 35.7918L512.757 34.0856ZM526.085 100.006L527.896 100.855L527.898 100.85L526.085 100.006ZM513.076 115.489L511.997 113.805L511.99 113.81L513.076 115.489ZM474.29 112.377L472.764 113.67L472.78 113.688L472.795 113.705L474.29 112.377ZM469.422 105.034L471.226 104.171L470.682 103.034H469.422V105.034ZM468.703 105.034V103.034H466.703V105.034H468.703ZM468.703 152.679V154.679H470.703V152.679H468.703ZM503.42 88.5142L505.298 89.1997L505.301 89.1917L503.42 88.5142ZM503.42 61.2201L501.533 61.8831L501.538 61.8985L501.544 61.9139L503.42 61.2201ZM476.684 51.8827L477.904 53.4679L477.908 53.4646L476.684 51.8827ZM470.3 60.9807L468.429 60.2729L468.426 60.2799L468.424 60.2869L470.3 60.9807ZM476.764 97.8517L475.507 99.4075L475.524 99.4207L475.54 99.4336L476.764 97.8517ZM446.043 152.679V30.0953H442.043V152.679H446.043ZM444.043 32.0953H468.304V28.0953H444.043V32.0953ZM466.304 30.0953V45.1788H470.304V30.0953H466.304ZM468.304 47.1788H469.422V43.1788H468.304V47.1788ZM471.241 46.0094C472.272 43.7518 473.764 41.4258 475.749 39.0339L472.671 36.4796C470.506 39.089 468.806 41.7111 467.602 44.3483L471.241 46.0094ZM475.749 39.0339C477.619 36.7801 480.097 34.8699 483.233 33.3263L481.467 29.7373C477.901 31.4925 474.951 33.7322 472.671 36.4796L475.749 39.0339ZM483.256 33.315C486.253 31.7927 490.071 30.978 494.8 30.978V26.978C489.633 26.978 485.152 27.8657 481.445 29.7486L483.256 33.315ZM494.8 30.978C500.977 30.978 506.593 32.579 511.694 35.7798L513.82 32.3915C508.067 28.7821 501.712 26.978 494.8 26.978V30.978ZM511.714 35.7918C516.812 38.9104 520.963 43.6729 524.125 50.2007L527.725 48.457C524.29 41.3643 519.662 35.9646 513.801 32.3795L511.714 35.7918ZM524.125 50.2007C527.255 56.6613 528.873 64.8534 528.873 74.8672H532.873C532.873 64.4502 531.193 55.6168 527.725 48.457L524.125 50.2007ZM528.873 74.8672C528.873 84.5577 527.309 92.6319 524.271 99.163L527.898 100.85C531.245 93.6542 532.873 84.9689 532.873 74.8672H528.873ZM524.274 99.1576C521.216 105.68 517.112 110.527 511.997 113.805L514.155 117.173C520 113.428 524.569 107.953 527.896 100.855L524.274 99.1576ZM511.99 113.81C506.904 117.101 501.167 118.756 494.721 118.756V122.756C501.895 122.756 508.394 120.901 514.163 117.168L511.99 113.81ZM494.721 118.756C490.147 118.756 486.387 117.993 483.37 116.556L481.65 120.168C485.337 121.923 489.718 122.756 494.721 122.756V118.756ZM483.37 116.556C480.221 115.057 477.709 113.213 475.785 111.048L472.795 113.705C475.127 116.329 478.095 118.475 481.65 120.168L483.37 116.556ZM475.815 111.083C473.832 108.744 472.31 106.439 471.226 104.171L467.617 105.897C468.874 108.525 470.598 111.115 472.764 113.67L475.815 111.083ZM469.422 103.034H468.703V107.034H469.422V103.034ZM466.703 105.034V152.679H470.703V105.034H466.703ZM468.703 150.679H444.043V154.679H468.703V150.679ZM486.9 103.124C491.334 103.124 495.201 101.889 498.372 99.3277L495.858 96.216C493.496 98.1242 490.552 99.1238 486.9 99.1238V103.124ZM498.372 99.3277C501.468 96.827 503.76 93.4166 505.298 89.1997L501.541 87.8287C500.206 91.4861 498.295 94.2475 495.858 96.216L498.372 99.3277ZM505.301 89.1917C506.831 84.9426 507.574 80.1307 507.574 74.7874H503.574C503.574 79.7657 502.881 84.105 501.538 87.8368L505.301 89.1917ZM507.574 74.7874C507.574 69.4458 506.832 64.6795 505.295 60.5263L501.544 61.9139C502.881 65.5286 503.574 69.8072 503.574 74.7874H507.574ZM505.307 60.5571C503.822 56.3312 501.554 52.9124 498.451 50.4066L495.938 53.5183C498.369 55.4817 500.251 58.2347 501.533 61.8831L505.307 60.5571ZM498.451 50.4066C495.276 47.8418 491.381 46.6106 486.9 46.6106V50.6106C490.612 50.6106 493.58 51.6139 495.938 53.5183L498.451 50.4066ZM486.9 46.6106C482.522 46.6106 478.672 47.8161 475.46 50.3007L477.908 53.4646C480.336 51.5864 483.296 50.6106 486.9 50.6106V46.6106ZM475.465 50.2974C472.348 52.6947 470.023 56.0604 468.429 60.2729L472.17 61.6885C473.556 58.0266 475.487 55.327 477.904 53.4679L475.465 50.2974ZM468.424 60.2869C466.885 64.4461 466.145 69.2943 466.145 74.7874H470.145C470.145 69.6395 470.841 65.2832 472.175 61.6745L468.424 60.2869ZM466.145 74.7874C466.145 80.238 466.915 85.0896 468.509 89.3018L472.25 87.8862C470.864 84.2241 470.145 79.8712 470.145 74.7874H466.145ZM468.509 89.3018C470.101 93.5097 472.417 96.9118 475.507 99.4075L478.021 96.2958C475.577 94.3223 473.637 91.5526 472.25 87.8862L468.509 89.3018ZM475.54 99.4336C478.747 101.914 482.568 103.124 486.9 103.124V99.1238C483.356 99.1238 480.42 98.1516 477.988 96.2697L475.54 99.4336ZM551.863 118.043L551.038 119.865L551.051 119.871L551.064 119.877L551.863 118.043ZM540.211 81.97L541.964 82.9317L541.971 82.9199L540.211 81.97ZM571.016 66.8864L570.832 64.895L570.827 64.8954L571.016 66.8864ZM590.33 63.2951L591.439 64.9592L591.446 64.9547L591.453 64.9501L590.33 63.2951ZM589.053 50.0471L587.728 51.5457L587.737 51.5533L587.746 51.5607L589.053 50.0471ZM568.702 49.9673L569.886 51.5791L569.892 51.575L568.702 49.9673ZM563.515 57.3096L563.355 59.3032L564.988 59.434L565.438 57.859L563.515 57.3096ZM540.61 55.474L538.655 55.0523L538.173 57.2851L540.45 57.4676L540.61 55.474ZM547.473 41.4279L548.986 42.7362L548.995 42.7261L547.473 41.4279ZM560.641 32.2501L561.378 34.1096L561.387 34.1058L560.641 32.2501ZM605.733 36.1606L604.589 37.8014L604.603 37.8113L604.617 37.8209L605.733 36.1606ZM617.305 119.32V121.32H619.305V119.32H617.305ZM593.761 119.32H591.761V121.32H593.761V119.32ZM593.761 106.87H595.761V104.87H593.761V106.87ZM593.123 106.87V104.87H591.897L591.341 105.962L593.123 106.87ZM587.377 114.292L588.687 115.803L588.696 115.795L588.706 115.787L587.377 114.292ZM578.758 119.24L579.417 121.128L579.43 121.124L579.444 121.119L578.758 119.24ZM583.786 101.762L584.707 103.537L584.714 103.534L584.72 103.531L583.786 101.762ZM590.33 95.8565L588.644 94.7804L588.638 94.7899L590.33 95.8565ZM592.724 77.9796H594.724V74.3163L591.642 76.2973L592.724 77.9796ZM589.532 79.3364L588.944 77.4248L588.933 77.4281L588.922 77.4315L589.532 79.3364ZM580.114 81.3316L580.37 83.3151L580.402 83.3111L580.433 83.306L580.114 81.3316ZM575.645 81.97L575.933 83.9492L575.947 83.9471L575.961 83.9449L575.645 81.97ZM567.984 84.045L568.75 85.8925L568.769 85.8846L568.788 85.8763L567.984 84.045ZM562.876 87.7959L561.289 86.5791L561.283 86.5872L562.876 87.7959ZM567.106 118.996C561.702 118.996 556.898 118.053 552.661 116.209L551.064 119.877C555.872 121.97 561.231 122.996 567.106 122.996V118.996ZM552.687 116.221C548.55 114.349 545.342 111.617 543.006 108.016L539.65 110.193C542.422 114.466 546.237 117.693 551.038 119.865L552.687 116.221ZM543.006 108.016C540.709 104.475 539.497 99.9816 539.497 94.4199H535.497C535.497 100.563 536.84 105.86 539.65 110.193L543.006 108.016ZM539.497 94.4199C539.497 89.6482 540.362 85.8544 541.964 82.9317L538.457 81.0083C536.442 84.683 535.497 89.1892 535.497 94.4199H539.497ZM541.971 82.9199C543.625 79.8543 545.875 77.3891 548.736 75.4981L546.53 72.1612C543.112 74.4202 540.414 77.3819 538.451 81.0201L541.971 82.9199ZM548.736 75.4981C551.678 73.5533 555.041 72.0673 558.842 71.0535L557.812 67.1886C553.633 68.3029 549.866 69.956 546.53 72.1612L548.736 75.4981ZM558.842 71.0535C562.717 70.0202 566.837 69.2935 571.206 68.8774L570.827 64.8954C566.257 65.3307 561.918 66.0937 557.812 67.1886L558.842 71.0535ZM571.201 68.8779C576.38 68.3974 580.574 67.9143 583.768 67.427L583.165 63.4728C580.081 63.9432 575.974 64.4178 570.832 64.895L571.201 68.8779ZM583.768 67.427C586.993 66.935 589.633 66.1635 591.439 64.9592L589.22 61.631C588.154 62.3421 586.218 63.0071 583.165 63.4728L583.768 67.427ZM591.453 64.9501C593.513 63.5519 594.564 61.4834 594.564 58.9855H590.564C590.564 60.212 590.126 61.0165 589.207 61.6402L591.453 64.9501ZM594.564 58.9855V58.5865H590.564V58.9855H594.564ZM594.564 58.5865C594.564 54.4536 593.224 51.0068 590.36 48.5334L587.746 51.5607C589.564 53.1309 590.564 55.3771 590.564 58.5865H594.564ZM590.377 48.5484C587.606 46.0995 583.823 45.0144 579.316 45.0144V49.0144C583.216 49.0144 585.924 49.9511 587.728 51.5457L590.377 48.5484ZM579.316 45.0144C574.614 45.0144 570.616 46.0631 567.512 48.3596L569.892 51.575C572.109 49.9343 575.187 49.0144 579.316 49.0144V45.0144ZM567.518 48.3555C564.57 50.5209 562.57 53.3347 561.591 56.7601L565.438 57.859C566.161 55.3255 567.619 53.2444 569.886 51.579L567.518 48.3555ZM563.674 55.3159L540.77 53.4804L540.45 57.4676L563.355 59.3032L563.674 55.3159ZM542.565 55.8957C543.669 50.7742 545.815 46.4027 548.986 42.7362L545.961 40.1196C542.321 44.3274 539.891 49.32 538.655 55.0523L542.565 55.8957ZM548.995 42.7261C552.167 39.0087 556.276 36.13 561.378 34.1095L559.905 30.3906C554.259 32.6265 549.59 35.8664 545.952 40.1297L548.995 42.7261ZM561.387 34.1058C566.531 32.0381 572.548 30.978 579.476 30.978V26.978C572.145 26.978 565.605 28.0993 559.896 30.3944L561.387 34.1058ZM579.476 30.978C584.265 30.978 588.831 31.5442 593.181 32.6699L594.183 28.7975C589.487 27.5822 584.583 26.978 579.476 26.978V30.978ZM593.181 32.6699C597.494 33.7863 601.289 35.5017 604.589 37.8014L606.876 34.5198C603.153 31.9247 598.914 30.0221 594.183 28.7975L593.181 32.6699ZM604.617 37.8209C607.91 40.032 610.51 42.9001 612.434 46.4506L615.951 44.5455C613.724 40.4346 610.685 37.0777 606.848 34.5003L604.617 37.8209ZM612.434 46.4506C614.32 49.9336 615.305 54.1414 615.305 59.1451H619.305C619.305 53.6143 618.214 48.724 615.951 44.5455L612.434 46.4506ZM615.305 59.1451V119.32H619.305V59.1451H615.305ZM617.305 117.32H593.761V121.32H617.305V117.32ZM595.761 119.32V106.87H591.761V119.32H595.761ZM593.761 104.87H593.123V108.87H593.761V104.87ZM591.341 105.962C590.019 108.557 588.258 110.833 586.048 112.797L588.706 115.787C591.284 113.495 593.354 110.823 594.905 107.778L591.341 105.962ZM586.067 112.781C583.878 114.677 581.224 116.211 578.072 117.361L579.444 121.119C582.995 119.822 586.087 118.057 588.687 115.803L586.067 112.781ZM578.098 117.352C575.003 118.433 571.35 118.996 567.106 118.996V122.996C571.694 122.996 575.809 122.388 579.417 121.128L578.098 117.352ZM574.209 105.917C578.096 105.917 581.613 105.144 584.707 103.537L582.864 99.9872C580.425 101.254 577.557 101.917 574.209 101.917V105.917ZM584.72 103.531C587.817 101.894 590.273 99.6964 592.022 96.9231L588.638 94.7899C587.3 96.9115 585.394 98.6505 582.851 99.9938L584.72 103.531ZM592.016 96.9325C593.825 94.0972 594.724 90.9278 594.724 87.4767H590.724C590.724 90.1974 590.026 92.6145 588.644 94.7804L592.016 96.9325ZM594.724 87.4767V77.9796H590.724V87.4767H594.724ZM591.642 76.2973C591.117 76.6353 590.248 77.0234 588.944 77.4248L590.12 81.2479C591.582 80.798 592.842 80.2817 593.805 79.662L591.642 76.2973ZM588.922 77.4315C587.681 77.8288 586.269 78.183 584.682 78.4901L585.443 82.4172C587.154 82.0859 588.723 81.6952 590.141 81.2412L588.922 77.4315ZM584.682 78.4901C583.053 78.8054 581.425 79.0944 579.796 79.3571L580.433 83.306C582.103 83.0367 583.773 82.7404 585.443 82.4172L584.682 78.4901ZM579.859 79.348C578.194 79.5628 576.683 79.7785 575.329 79.9951L575.961 83.9449C577.267 83.7359 578.737 83.5259 580.37 83.3151L579.859 79.348ZM575.357 79.9908C572.294 80.4364 569.56 81.1688 567.18 82.2137L568.788 85.8763C570.771 85.0058 573.144 84.3549 575.933 83.9492L575.357 79.9908ZM567.218 82.1975C564.769 83.2129 562.761 84.6592 561.289 86.5791L564.463 89.0128C565.439 87.7404 566.836 86.6861 568.75 85.8925L567.218 82.1975ZM561.283 86.5872C559.797 88.5457 559.12 90.938 559.12 93.6219H563.12C563.12 91.6237 563.614 90.132 564.469 89.0047L561.283 86.5872ZM559.12 93.6219C559.12 97.5339 560.59 100.73 563.626 102.908L565.957 99.6583C564.098 98.3248 563.12 96.4137 563.12 93.6219H559.12ZM563.626 102.908C566.495 104.967 570.074 105.917 574.209 105.917V101.917C570.682 101.917 567.983 101.111 565.957 99.6583L563.626 102.908ZM674.287 149.647H672.287V151.647H674.287V149.647ZM674.287 0.406952V-1.59305H672.287V0.406952H674.287ZM698.947 0.406952H700.947V-1.59305H698.947V0.406952ZM698.947 149.647V151.647H700.947V149.647H698.947ZM655.532 117.724L654.796 119.583L654.802 119.585L655.532 117.724ZM640.928 108.306L639.513 109.721L639.523 109.73L640.928 108.306ZM631.43 56.4317L633.29 57.1684L633.292 57.1624L631.43 56.4317ZM655.532 32.3299L656.254 34.1952L656.263 34.1916L655.532 32.3299ZM678.916 28.978H680.916V26.978H678.916V28.978ZM678.916 121.076V123.076H680.916V121.076H678.916ZM677.08 101.762V103.762H679.08V101.762H677.08ZM677.08 48.2913H679.08V46.2913H677.08V48.2913ZM663.034 51.8827L661.821 50.2924L661.815 50.2974L661.808 50.3025L663.034 51.8827ZM655.931 61.5393L654.079 60.784L654.075 60.7945L654.071 60.805L655.931 61.5393ZM654.894 85.5613L652.967 86.0983L652.97 86.1065L654.894 85.5613ZM658.964 94.0209L657.356 95.2097L657.362 95.2182L657.368 95.2266L658.964 94.0209ZM694.398 121.076H692.398V123.076H694.398V121.076ZM694.398 28.978V26.978H692.398V28.978H694.398ZM717.702 32.3299L716.965 34.1892L716.976 34.1934L716.987 34.1975L717.702 32.3299ZM741.884 56.4317L740.022 57.1624L740.026 57.173L740.03 57.1835L741.884 56.4317ZM741.884 93.7017L740.03 92.9499L740.027 92.9574L740.024 92.965L741.884 93.7017ZM732.387 108.306L733.792 109.73L733.801 109.721L732.387 108.306ZM717.702 117.724L716.971 115.862L716.965 115.864L717.702 117.724ZM707.806 99.6872L706.869 97.9205L706.861 97.9246L706.854 97.9286L707.806 99.6872ZM714.35 94.0209L712.742 92.8321L712.737 92.8382L714.35 94.0209ZM718.5 85.5613L720.416 86.136L720.418 86.1274L718.5 85.5613ZM710.28 51.8827L709.054 53.4628L709.061 53.4679L709.067 53.4729L710.28 51.8827ZM696.314 48.2913V46.2913H694.314V48.2913H696.314ZM696.314 101.762H694.314V103.762H696.314V101.762ZM676.287 149.647V0.406952H672.287V149.647H676.287ZM674.287 2.40695H698.947V-1.59305H674.287V2.40695ZM696.947 0.406952V149.647H700.947V0.406952H696.947ZM698.947 147.647H674.287V151.647H698.947V147.647ZM674.287 119.076C667.699 119.076 661.698 117.995 656.263 115.862L654.802 119.585C660.752 121.921 667.255 123.076 674.287 123.076V119.076ZM656.269 115.864C650.865 113.723 646.228 110.728 642.332 106.883L639.523 109.73C643.821 113.972 648.92 117.255 654.796 119.583L656.269 115.864ZM642.342 106.892C638.447 102.998 635.429 98.363 633.29 92.965L629.571 94.4384C631.901 100.32 635.214 105.422 639.513 109.721L642.342 106.892ZM633.29 92.965C631.158 87.585 630.079 81.64 630.079 75.1066H626.079C626.079 82.0872 627.234 88.5389 629.571 94.4384L633.29 92.965ZM630.079 75.1066C630.079 68.5178 631.159 62.5466 633.29 57.1684L629.571 55.6949C627.233 61.5962 626.079 68.0749 626.079 75.1066H630.079ZM633.292 57.1624C635.432 51.7112 638.45 47.0528 642.342 43.1613L639.513 40.3329C635.211 44.635 631.898 49.7663 629.569 55.7009L633.292 57.1624ZM642.342 43.1613C646.233 39.2702 650.862 36.2806 656.254 34.1952L654.811 30.4645C648.923 32.7419 643.816 36.0306 639.513 40.3329L642.342 43.1613ZM656.263 34.1916C661.698 32.0582 667.699 30.978 674.287 30.978V26.978C667.255 26.978 660.752 28.1324 654.802 30.4682L656.263 34.1916ZM674.287 30.978H678.916V26.978H674.287V30.978ZM676.916 28.978V121.076H680.916V28.978H676.916ZM678.916 119.076H674.287V123.076H678.916V119.076ZM674.287 103.762H677.08V99.7622H674.287V103.762ZM679.08 101.762V48.2913H675.08V101.762H679.08ZM677.08 46.2913H674.287V50.2913H677.08V46.2913ZM674.287 46.2913C669.535 46.2913 665.346 47.6043 661.821 50.2924L664.247 53.4729C667.001 51.3725 670.314 50.2913 674.287 50.2913V46.2913ZM661.808 50.3025C658.413 52.9365 655.845 56.4546 654.079 60.784L657.783 62.2947C659.316 58.537 661.483 55.6172 664.26 53.4628L661.808 50.3025ZM654.071 60.805C652.37 65.1148 651.537 69.8913 651.537 75.1066H655.537C655.537 70.3193 656.301 66.051 657.792 62.2737L654.071 60.805ZM651.537 75.1066C651.537 78.9935 652.009 82.6606 652.967 86.0983L656.82 85.0244C655.969 81.971 655.537 78.6683 655.537 75.1066H651.537ZM652.97 86.1065C653.934 89.5097 655.391 92.5518 657.356 95.2097L660.572 92.8321C658.919 90.5952 657.663 87.9976 656.818 85.0161L652.97 86.1065ZM657.368 95.2266C659.344 97.8412 661.742 99.9217 664.556 101.446L666.461 97.9286C664.167 96.6861 662.202 94.9891 660.56 92.8152L657.368 95.2266ZM664.556 101.446C667.44 103.008 670.701 103.762 674.287 103.762V99.7622C671.275 99.7622 668.684 99.1331 666.461 97.9286L664.556 101.446ZM698.947 119.076H694.398V123.076H698.947V119.076ZM696.398 121.076V28.978H692.398V121.076H696.398ZM694.398 30.978H698.947V26.978H694.398V30.978ZM698.947 30.978C705.592 30.978 711.589 32.059 716.965 34.1892L718.439 30.4705C712.536 28.1316 706.03 26.978 698.947 26.978V30.978ZM716.987 34.1975C722.431 36.2838 727.085 39.2734 730.972 43.1613L733.801 40.3329C729.495 36.0274 724.359 32.7388 718.418 30.4623L716.987 34.1975ZM730.972 43.1613C734.864 47.0528 737.882 51.7112 740.022 57.1624L743.745 55.7009C741.416 49.7663 738.103 44.635 733.801 40.3329L730.972 43.1613ZM740.03 57.1835C742.211 62.5576 743.315 68.5235 743.315 75.1066H747.315C747.315 68.0692 746.133 61.5852 743.737 55.6799L740.03 57.1835ZM743.315 75.1066C743.315 81.6343 742.211 87.574 740.03 92.9499L743.737 94.4535C746.132 88.55 747.315 82.0929 747.315 75.1066H743.315ZM740.024 92.965C737.886 98.363 734.867 102.998 730.972 106.892L733.801 109.721C738.1 105.422 741.413 100.32 743.743 94.4384L740.024 92.965ZM730.982 106.883C727.09 110.725 722.428 113.72 716.971 115.862L718.433 119.585C724.362 117.258 729.49 113.975 733.792 109.73L730.982 106.883ZM716.965 115.864C711.589 117.995 705.592 119.076 698.947 119.076V123.076C706.03 123.076 712.536 121.922 718.439 119.583L716.965 115.864ZM698.947 103.762C702.58 103.762 705.87 103.01 708.759 101.446L706.854 97.9286C704.634 99.1306 702.018 99.7622 698.947 99.7622V103.762ZM708.743 101.454C711.618 99.9284 714.03 97.8394 715.963 95.2036L712.737 92.8382C711.159 94.9909 709.208 96.6794 706.869 97.9205L708.743 101.454ZM715.959 95.2097C717.917 92.56 719.398 89.5282 720.416 86.136L716.585 84.9866C715.687 87.979 714.401 90.587 712.742 92.8321L715.959 95.2097ZM720.418 86.1274C721.436 82.6806 721.937 79.0035 721.937 75.1066H717.937C717.937 78.6584 717.48 81.951 716.582 84.9953L720.418 86.1274ZM721.937 75.1066C721.937 69.8836 721.075 65.0996 719.315 60.784L715.611 62.2947C717.149 66.0662 717.937 70.327 717.937 75.1066H721.937ZM719.315 60.784C717.545 56.4461 714.945 52.9254 711.493 50.2924L709.067 53.4729C711.893 55.6284 714.082 58.5454 715.611 62.2947L719.315 60.784ZM711.506 50.3025C708.02 47.5977 703.794 46.2913 698.947 46.2913V50.2913C703.04 50.2913 706.369 51.3792 709.054 53.4628L711.506 50.3025ZM698.947 46.2913H696.314V50.2913H698.947V46.2913ZM694.314 48.2913V101.762H698.314V48.2913H694.314ZM696.314 103.762H698.947V99.7622H696.314V103.762ZM779.792 86.6786H777.792V94.2609L781.532 87.6651L779.792 86.6786ZM811.875 30.0953V28.0953H810.71L810.135 29.1088L811.875 30.0953ZM836.296 30.0953H838.296V28.0953H836.296V30.0953ZM836.296 119.32V121.32H838.296V119.32H836.296ZM812.753 119.32H810.753V121.32H812.753V119.32ZM812.753 62.6566H814.753V55.0486L811.011 61.6731L812.753 62.6566ZM780.75 119.32V121.32H781.917L782.491 120.303L780.75 119.32ZM756.249 119.32H754.249V121.32H756.249V119.32ZM756.249 30.0953V28.0953H754.249V30.0953H756.249ZM779.792 30.0953H781.792V28.0953H779.792V30.0953ZM781.532 87.6651L813.615 31.0817L810.135 29.1088L778.052 85.6922L781.532 87.6651ZM811.875 32.0953H836.296V28.0953H811.875V32.0953ZM834.296 30.0953V119.32H838.296V30.0953H834.296ZM836.296 117.32H812.753V121.32H836.296V117.32ZM814.753 119.32V62.6566H810.753V119.32H814.753ZM811.011 61.6731L779.008 118.336L782.491 120.303L814.494 63.6402L811.011 61.6731ZM780.75 117.32H756.249V121.32H780.75V117.32ZM758.249 119.32V30.0953H754.249V119.32H758.249ZM756.249 32.0953H779.792V28.0953H756.249V32.0953ZM777.792 30.0953V86.6786H781.792V30.0953H777.792ZM850.901 119.32H848.901V121.32H850.901V119.32ZM850.901 30.0953V28.0953H848.901V30.0953H850.901ZM875.561 30.0953H877.561V28.0953H875.561V30.0953ZM875.561 64.7316H873.561V66.7316H875.561V64.7316ZM882.584 64.7316V66.7316H883.627L884.224 65.8765L882.584 64.7316ZM906.766 30.0953V28.0953H905.723L905.126 28.9504L906.766 30.0953ZM935.816 30.0953L937.446 31.2536L939.69 28.0953H935.816V30.0953ZM904.292 74.4681L902.661 73.3098L901.839 74.4677L902.661 75.6259L904.292 74.4681ZM936.135 119.32V121.32H940.008L937.766 118.162L936.135 119.32ZM906.766 119.32L905.125 120.463L905.722 121.32H906.766V119.32ZM884.739 87.7161L886.38 86.5725L885.783 85.7161H884.739V87.7161ZM875.561 87.7161V85.7161H873.561V87.7161H875.561ZM875.561 119.32V121.32H877.561V119.32H875.561ZM852.901 119.32V30.0953H848.901V119.32H852.901ZM850.901 32.0953H875.561V28.0953H850.901V32.0953ZM873.561 30.0953V64.7316H877.561V30.0953H873.561ZM875.561 66.7316H882.584V62.7316H875.561V66.7316ZM884.224 65.8765L908.406 31.2402L905.126 28.9504L880.944 63.5867L884.224 65.8765ZM906.766 32.0953H935.816V28.0953H906.766V32.0953ZM934.185 28.937L902.661 73.3098L905.922 75.6264L937.446 31.2536L934.185 28.937ZM902.661 75.6259L934.504 120.478L937.766 118.162L905.922 73.3103L902.661 75.6259ZM936.135 117.32H906.766V121.32H936.135V117.32ZM908.406 118.176L886.38 86.5725L883.098 88.8597L905.125 120.463L908.406 118.176ZM884.739 85.7161H875.561V89.7161H884.739V85.7161ZM873.561 87.7161V119.32H877.561V87.7161H873.561ZM875.561 117.32H850.901V121.32H875.561V117.32ZM951.378 118.043L950.554 119.865L950.567 119.871L950.58 119.877L951.378 118.043ZM939.726 81.97L941.48 82.9317L941.486 82.9199L939.726 81.97ZM970.532 66.8864L970.347 64.895L970.342 64.8954L970.532 66.8864ZM989.845 63.2951L990.954 64.9592L990.961 64.9547L990.968 64.9501L989.845 63.2951ZM988.568 50.0471L987.244 51.5457L987.252 51.5533L987.261 51.5607L988.568 50.0471ZM968.217 49.9673L969.401 51.5791L969.407 51.575L968.217 49.9673ZM963.03 57.3096L962.87 59.3032L964.503 59.434L964.953 57.859L963.03 57.3096ZM940.125 55.474L938.17 55.0523L937.689 57.2851L939.965 57.4676L940.125 55.474ZM946.989 41.4279L948.501 42.7362L948.51 42.7261L946.989 41.4279ZM960.157 32.2501L960.893 34.1096L960.903 34.1058L960.157 32.2501ZM1005.25 36.1606L1004.1 37.8014L1004.12 37.8113L1004.13 37.8209L1005.25 36.1606ZM1016.82 119.32V121.32H1018.82V119.32H1016.82ZM993.277 119.32H991.277V121.32H993.277V119.32ZM993.277 106.87H995.277V104.87H993.277V106.87ZM992.638 106.87V104.87H991.413L990.856 105.962L992.638 106.87ZM986.892 114.292L988.202 115.803L988.212 115.795L988.221 115.787L986.892 114.292ZM978.273 119.24L978.932 121.128L978.946 121.124L978.959 121.119L978.273 119.24ZM983.301 101.762L984.223 103.537L984.229 103.534L984.235 103.531L983.301 101.762ZM989.845 95.8565L988.159 94.7804L988.153 94.7899L989.845 95.8565ZM992.239 77.9796H994.239V74.3163L991.158 76.2973L992.239 77.9796ZM989.047 79.3364L988.459 77.4248L988.448 77.4281L988.437 77.4315L989.047 79.3364ZM979.63 81.3316L979.886 83.3151L979.917 83.3111L979.948 83.306L979.63 81.3316ZM975.161 81.97L975.448 83.9492L975.462 83.9471L975.477 83.9449L975.161 81.97ZM967.499 84.045L968.265 85.8925L968.284 85.8846L968.303 85.8763L967.499 84.045ZM962.391 87.7959L960.804 86.5791L960.798 86.5872L962.391 87.7959ZM966.621 118.996C961.217 118.996 956.413 118.053 952.176 116.209L950.58 119.877C955.388 121.97 960.746 122.996 966.621 122.996V118.996ZM952.202 116.221C948.065 114.349 944.857 111.617 942.521 108.016L939.165 110.193C941.937 114.466 945.752 117.693 950.554 119.865L952.202 116.221ZM942.521 108.016C940.224 104.475 939.013 99.9816 939.013 94.4199H935.013C935.013 100.563 936.355 105.86 939.165 110.193L942.521 108.016ZM939.013 94.4199C939.013 89.6482 939.877 85.8544 941.48 82.9317L937.972 81.0083C935.957 84.683 935.013 89.1892 935.013 94.4199H939.013ZM941.486 82.9199C943.141 79.8543 945.39 77.3891 948.251 75.4981L946.045 72.1612C942.628 74.4202 939.93 77.3819 937.966 81.0201L941.486 82.9199ZM948.251 75.4981C951.193 73.5533 954.556 72.0673 958.358 71.0535L957.327 67.1886C953.148 68.3029 949.381 69.956 946.045 72.1612L948.251 75.4981ZM958.358 71.0535C962.233 70.0202 966.353 69.2935 970.721 68.8774L970.342 64.8954C965.772 65.3307 961.433 66.0937 957.327 67.1886L958.358 71.0535ZM970.716 68.8779C975.895 68.3974 980.089 67.9143 983.283 67.427L982.68 63.4728C979.596 63.9432 975.49 64.4178 970.347 64.895L970.716 68.8779ZM983.283 67.427C986.508 66.935 989.148 66.1635 990.954 64.9592L988.736 61.631C987.669 62.3421 985.733 63.0071 982.68 63.4728L983.283 67.427ZM990.968 64.9501C993.029 63.5519 994.08 61.4834 994.08 58.9855H990.08C990.08 60.212 989.641 61.0165 988.722 61.6402L990.968 64.9501ZM994.08 58.9855V58.5865H990.08V58.9855H994.08ZM994.08 58.5865C994.08 54.4536 992.739 51.0068 989.875 48.5334L987.261 51.5607C989.079 53.1309 990.08 55.3771 990.08 58.5865H994.08ZM989.893 48.5484C987.121 46.0995 983.338 45.0144 978.832 45.0144V49.0144C982.731 49.0144 985.439 49.9511 987.244 51.5457L989.893 48.5484ZM978.832 45.0144C974.129 45.0144 970.131 46.0631 967.028 48.3596L969.407 51.575C971.624 49.9343 974.702 49.0144 978.832 49.0144V45.0144ZM967.033 48.3555C964.086 50.5209 962.085 53.3347 961.107 56.7601L964.953 57.859C965.677 55.3255 967.135 53.2444 969.401 51.579L967.033 48.3555ZM963.19 55.3159L940.285 53.4804L939.965 57.4676L962.87 59.3032L963.19 55.3159ZM942.08 55.8957C943.185 50.7742 945.33 46.4027 948.501 42.7362L945.476 40.1196C941.837 44.3274 939.406 49.32 938.17 55.0523L942.08 55.8957ZM948.51 42.7261C951.682 39.0087 955.792 36.13 960.893 34.1095L959.42 30.3906C953.775 32.6265 949.105 35.8664 945.467 40.1297L948.51 42.7261ZM960.903 34.1058C966.047 32.0381 972.063 30.978 978.991 30.978V26.978C971.661 26.978 965.121 28.0993 959.411 30.3944L960.903 34.1058ZM978.991 30.978C983.78 30.978 988.346 31.5442 992.696 32.6699L993.698 28.7975C989.003 27.5822 984.098 26.978 978.991 26.978V30.978ZM992.696 32.6699C997.009 33.7863 1000.8 35.5017 1004.1 37.8014L1006.39 34.5198C1002.67 31.9247 998.43 30.0221 993.698 28.7975L992.696 32.6699ZM1004.13 37.8209C1007.42 40.032 1010.03 42.9001 1011.95 46.4506L1015.47 44.5455C1013.24 40.4346 1010.2 37.0777 1006.36 34.5003L1004.13 37.8209ZM1011.95 46.4506C1013.84 49.9336 1014.82 54.1414 1014.82 59.1451H1018.82C1018.82 53.6143 1017.73 48.724 1015.47 44.5455L1011.95 46.4506ZM1014.82 59.1451V119.32H1018.82V59.1451H1014.82ZM1016.82 117.32H993.277V121.32H1016.82V117.32ZM995.277 119.32V106.87H991.277V119.32H995.277ZM993.277 104.87H992.638V108.87H993.277V104.87ZM990.856 105.962C989.534 108.557 987.774 110.833 985.563 112.797L988.221 115.787C990.799 113.495 992.869 110.823 994.42 107.778L990.856 105.962ZM985.582 112.781C983.394 114.677 980.739 116.211 977.587 117.361L978.959 121.119C982.511 119.822 985.602 118.057 988.202 115.803L985.582 112.781ZM977.614 117.352C974.518 118.433 970.865 118.996 966.621 118.996V122.996C971.209 122.996 975.324 122.388 978.932 121.128L977.614 117.352ZM973.724 105.917C977.611 105.917 981.129 105.144 984.223 103.537L982.379 99.9872C979.94 101.254 977.073 101.917 973.724 101.917V105.917ZM984.235 103.531C987.332 101.894 989.789 99.6964 991.537 96.9231L988.153 94.7899C986.816 96.9115 984.909 98.6505 982.367 99.9938L984.235 103.531ZM991.531 96.9325C993.341 94.0972 994.239 90.9278 994.239 87.4767H990.239C990.239 90.1974 989.542 92.6145 988.159 94.7804L991.531 96.9325ZM994.239 87.4767V77.9796H990.239V87.4767H994.239ZM991.158 76.2973C990.632 76.6353 989.763 77.0234 988.459 77.4248L989.635 81.2479C991.097 80.798 992.357 80.2817 993.321 79.662L991.158 76.2973ZM988.437 77.4315C987.196 77.8288 985.784 78.183 984.198 78.4901L984.958 82.4172C986.67 82.0859 988.238 81.6952 989.657 81.2412L988.437 77.4315ZM984.198 78.4901C982.569 78.8054 980.94 79.0944 979.311 79.3571L979.948 83.306C981.618 83.0367 983.288 82.7404 984.958 82.4172L984.198 78.4901ZM979.374 79.348C977.709 79.5628 976.199 79.7785 974.845 79.9951L975.477 83.9449C976.783 83.7359 978.252 83.5259 979.886 83.3151L979.374 79.348ZM974.873 79.9908C971.809 80.4364 969.075 81.1688 966.695 82.2137L968.303 85.8763C970.286 85.0058 972.659 84.3549 975.448 83.9492L974.873 79.9908ZM966.733 82.1975C964.284 83.2129 962.276 84.6592 960.804 86.5791L963.979 89.0128C964.954 87.7404 966.351 86.6861 968.265 85.8925L966.733 82.1975ZM960.798 86.5872C959.312 88.5457 958.636 90.938 958.636 93.6219H962.636C962.636 91.6237 963.13 90.132 963.985 89.0047L960.798 86.5872ZM958.636 93.6219C958.636 97.5339 960.105 100.73 963.141 102.908L965.473 99.6583C963.614 98.3248 962.636 96.4137 962.636 93.6219H958.636ZM963.141 102.908C966.01 104.967 969.589 105.917 973.724 105.917V101.917C970.197 101.917 967.498 101.111 965.473 99.6583L963.141 102.908Z" fill="black" mask="url(#path-1-outside-1_1052_1417)"/>
</svg>
