<svg width="419" height="196" viewBox="0 0 419 196" fill="none" xmlns="http://www.w3.org/2000/svg">
<ellipse cx="346.311" cy="150.811" rx="1.39596" ry="1.3001" fill="#131313"/>
<ellipse cx="243.677" cy="193.877" rx="1.39596" ry="1.3001" fill="#131313"/>
<circle cx="208.967" cy="1.46261" r="1.46261" fill="#131313"/>
<path d="M12.8636 80.6758C2.0441 93.8112 -2.01213 112.207 3.36401 128.676C10.7958 151.441 31.4288 161.176 55.3633 161.176C60.43 161.176 88.4126 157.214 96.8633 152.176C106.777 144.538 136.863 122.676 135.363 98.6758M138.363 75.1758C148.891 47.7492 167.688 21.6144 184.752 10.5636C201.816 -0.487249 217.042 0.650348 230.093 0.650348C240.006 2.60049 246.685 6.70214 253.661 14.4639V14.4639C265.788 27.9561 254.444 47.444 242.664 61.2394C235.628 69.4785 229.087 77.5054 228.363 79.6758M219.363 101.176C207.825 121.165 214.492 125.135 203.604 138.461C199.777 150.042 199.018 166.991 210.917 179.089C224.542 188.716 226.518 190.465 244.232 194.04C262.921 195.015 264.924 196.887 286.863 192.955C304.09 189.867 321.351 180.815 326.948 175.805C335.476 168.172 346.994 154.177 349.863 141.176C353.994 122.46 346.445 113.003 336.863 93.1758M418.12 25.7885C413.569 3.84937 368.957 -1.35524 353.863 3.6759C341.863 7.6759 333.134 12.1758 329.363 21.1758C325.593 30.1758 321.205 52.9558 328.363 73.6758C328.681 74.3006 329.002 74.9298 329.324 75.5632" stroke="#131313" stroke-width="0.487537" stroke-linecap="round"/>
</svg>
