<svg width="1297" height="707" viewBox="0 0 1297 707" fill="none" xmlns="http://www.w3.org/2000/svg">
<path d="M34.8752 89.3332C83.3583 39.2687 151.903 1 230.354 1C263.404 1 292.877 3.89616 314.598 26.5C327.388 39.8088 335.599 86.5 296.699 118.5L124.099 241M78.5986 319.5C45.3102 359.914 -13.9014 436 4.45309 533.18C27.3186 603.223 125.807 616.879 199.446 616.879C215.035 616.879 230.623 616.879 246.212 616.879C263.818 616.879 280.508 609.521 296.699 604.065C409.278 559.018 444.599 475 436.599 328M431.099 268.5C425.599 183.5 482.505 102.377 536.84 70.7941C571.455 50.6741 613.844 52.5277 653.997 52.5277C690.305 52.5277 706.647 61.9085 728.111 85.789C758.663 119.781 744.598 160 744.598 160C744.598 160 739.611 237.5 716.599 268.5M547.598 497.5C501.598 553.5 483.725 641 520.334 678.221C562.256 707.84 616.572 707.307 668.237 705.075C714.405 703.081 754.734 677.074 792.353 657.501C813.401 646.55 828.876 623.415 846.098 608C872.336 584.516 870.578 589.954 883.098 560C940.598 479 936.599 408.5 936.599 342.5M1296.1 619.332C1296.1 636.076 1278.24 651.288 1262.12 659.137C1220.9 679.197 1167.76 687.92 1150.46 640.87C1128.8 581.966 1205.9 518 1231.67 479C1264.42 437 1264.06 424 1277.84 388.5C1293.57 348 1291.85 279 1287.1 247C1277 179 1246.36 133.751 1182.6 94.5C1147.16 72.6867 1124.1 64 1074.6 64C992.622 77.6317 940.099 150 936.599 256M579.099 459C618.362 417.149 664.599 391.5 693.099 345.5" stroke="#131313" stroke-width="1.5" stroke-linecap="round"/>
<ellipse cx="34.9964" cy="90" rx="3.75808" ry="4" fill="#131313"/>
<ellipse cx="148.393" cy="615" rx="4.29495" ry="4" fill="#131313"/>
<circle cx="514.098" cy="86" r="4" fill="#131313"/>
<ellipse cx="738.83" cy="685" rx="4.29495" ry="4" fill="#131313"/>
<ellipse cx="1075.39" cy="65" rx="4.29495" ry="4" fill="#131313"/>
<ellipse cx="1277.85" cy="389" rx="4.29495" ry="4" fill="#131313"/>
<ellipse cx="1282.14" cy="647" rx="4.29495" ry="4" fill="#131313"/>
</svg>
