<svg width="1147" height="181" viewBox="0 0 1147 181" fill="none" xmlns="http://www.w3.org/2000/svg">
<circle cx="312.694" cy="138.912" r="2.7332" fill="#131313"/>
<circle cx="375.694" cy="138.912" r="2.7332" fill="#131313"/>
<circle cx="572.694" cy="138.912" r="2.7332" fill="#131313"/>
<circle cx="734.694" cy="138.912" r="2.7332" fill="#131313"/>
<circle cx="905.694" cy="177.912" r="2.7332" fill="#131313"/>
<circle cx="1115.69" cy="137.912" r="2.7332" fill="#131313"/>
<circle cx="340.694" cy="138.912" r="2.7332" fill="#131313"/>
<circle cx="407.694" cy="138.912" r="2.7332" fill="#131313"/>
<circle cx="599.694" cy="138.912" r="2.7332" fill="#131313"/>
<circle cx="760.694" cy="138.912" r="2.7332" fill="#131313"/>
<circle cx="933.694" cy="177.912" r="2.7332" fill="#131313"/>
<circle cx="1143.69" cy="137.912" r="2.7332" fill="#131313"/>
<mask id="path-13-outside-1_847_15655" maskUnits="userSpaceOnUse" x="0" y="0" width="1145" height="180" fill="black">
<rect fill="white" width="1145" height="180"/>
<path d="M51.2876 142.154C41.053 142.154 32.2549 139.97 24.8931 135.601C17.5314 131.172 11.8755 125.097 7.92528 117.376C3.97509 109.595 2 100.618 2 90.4428C2 80.1484 3.97509 71.1108 7.92528 63.3302C11.9353 55.5495 17.6212 49.4746 24.9829 45.1054C32.3446 40.7363 41.1129 38.5517 51.2876 38.5517C60.0259 38.5517 67.6569 40.1378 74.1807 43.3099C80.7644 46.482 85.9714 50.9409 89.8019 56.6867C93.6324 62.4324 95.7272 69.1956 96.0863 76.9763H69.8714C69.3926 73.6246 68.3752 70.6919 66.819 68.1781C65.2629 65.6644 63.198 63.7192 60.6244 62.3426C58.0508 60.966 55.0582 60.2777 51.6467 60.2777C47.3374 60.2777 43.5668 61.4448 40.3348 63.779C37.1627 66.0534 34.6788 69.435 32.8833 73.9239C31.1476 78.3529 30.2798 83.7395 30.2798 90.0837C30.2798 96.428 31.1476 101.874 32.8833 106.423C34.6788 110.972 37.1627 114.443 40.3348 116.837C43.5668 119.231 47.3374 120.428 51.6467 120.428C56.4348 120.428 60.4748 118.932 63.7666 115.94C67.0584 112.887 69.0934 108.697 69.8714 103.371H96.0863C95.6674 111.032 93.6025 117.795 89.8917 123.66C86.1809 129.466 81.0636 134.015 74.5398 137.306C68.016 140.538 60.2653 142.154 51.2876 142.154ZM121.942 177.706C118.411 177.766 115.089 177.527 111.977 176.988C108.924 176.449 106.411 175.761 104.436 174.923L110.72 154.185L111.618 154.364C116.286 155.741 120.266 156.04 123.558 155.262C126.91 154.544 129.453 151.91 131.189 147.361L132.805 143.052L96.8943 39.8086H126.072L146.81 113.516H147.888L168.895 39.8086H198.253L159.289 151.042C157.434 156.429 154.89 161.127 151.658 165.137C148.486 169.147 144.476 172.23 139.628 174.384C134.78 176.599 128.885 177.706 121.942 177.706ZM289.735 3L298.264 21.2247C295.451 23.5589 292.309 25.2946 288.838 26.4318C285.426 27.5091 281.326 28.2273 276.538 28.5865C271.81 28.9456 266.004 29.185 259.121 29.3047C251.401 29.3645 245.086 30.6214 240.178 33.0753C235.331 35.4694 231.65 39.2101 229.136 44.2974C226.622 49.3848 224.946 56.0283 224.108 64.2279H225.186C228.118 58.1231 232.308 53.4248 237.754 50.1329C243.261 46.7813 250.024 45.1054 258.044 45.1054C266.603 45.1054 274.084 46.9907 280.488 50.7614C286.892 54.4722 291.89 59.8289 295.481 66.8315C299.072 73.8341 300.838 82.2133 300.778 91.969C300.838 102.144 298.893 111.002 294.942 118.543C290.992 126.084 285.336 131.89 277.975 135.96C270.673 140.03 261.964 142.095 251.849 142.154C236.647 142.095 224.647 137.306 215.849 127.79C207.051 118.214 202.622 104.328 202.562 86.1335V77.9638C202.622 53.7839 207.35 35.8584 216.747 24.1874C226.143 12.5164 239.999 6.59108 258.313 6.41153C263.221 6.35168 267.68 6.35168 271.69 6.41153C275.7 6.41153 279.202 6.20205 282.194 5.78309C285.247 5.36413 287.76 4.43643 289.735 3ZM251.939 120.608C256.249 120.608 259.929 119.501 262.982 117.286C266.034 115.012 268.398 111.81 270.074 107.68C271.75 103.55 272.558 98.6425 272.498 92.9566C272.558 87.2109 271.75 82.3629 270.074 78.4127C268.398 74.4027 266.004 71.3502 262.892 69.2554C259.84 67.1607 256.159 66.1133 251.849 66.1133C248.617 66.1133 245.715 66.7118 243.141 67.9088C240.568 69.1058 238.383 70.8714 236.587 73.2056C234.792 75.48 233.415 78.2631 232.458 81.5549C231.5 84.8467 230.991 88.6473 230.931 92.9566C230.931 101.455 232.787 108.189 236.498 113.156C240.268 118.124 245.415 120.608 251.939 120.608ZM433.289 177.706C429.758 177.766 426.436 177.527 423.324 176.988C420.271 176.449 417.757 175.761 415.782 174.923L422.067 154.185L422.964 154.364C427.633 155.741 431.613 156.04 434.905 155.262C438.257 154.544 440.8 151.91 442.536 147.361L444.152 143.052L408.241 39.8086H437.419L458.157 113.516H459.234L480.242 39.8086H509.599L470.636 151.042C468.781 156.429 466.237 161.127 463.005 165.137C459.833 169.147 455.823 172.23 450.975 174.384C446.127 176.599 440.232 177.706 433.289 177.706ZM633.222 70.7817H663.298C676.585 70.7218 686.909 73.864 694.271 80.2082C701.692 86.5525 705.433 95.0215 705.493 105.615C705.493 112.498 703.817 118.543 700.465 123.75C697.114 128.897 692.296 132.937 686.011 135.87C679.727 138.743 672.156 140.179 663.298 140.179H615.895V39.8086H642.38V118.274H663.298C667.906 118.274 671.707 117.107 674.699 114.772C677.692 112.438 679.218 109.446 679.278 105.795C679.218 101.904 677.692 98.7322 674.699 96.2783C671.707 93.8244 667.906 92.6274 663.298 92.6873H633.222V70.7817ZM820.946 177.706C817.415 177.766 814.093 177.527 810.981 176.988C807.928 176.449 805.415 175.761 803.44 174.923L809.724 154.185L810.622 154.364C815.29 155.741 819.27 156.04 822.562 155.262C825.914 154.544 828.457 151.91 830.193 147.361L831.809 143.052L795.898 39.8086H825.076L845.814 113.516H846.892L867.899 39.8086H897.257L858.293 151.042C856.438 156.429 853.894 161.127 850.662 165.137C847.49 169.147 843.48 172.23 838.632 174.384C833.784 176.599 827.889 177.706 820.946 177.706ZM953.906 119.71C958.455 119.71 962.285 118.453 965.397 115.94C968.51 113.426 970.874 109.954 972.49 105.525C974.106 101.037 974.914 95.8893 974.914 90.0837C974.914 84.2781 974.106 79.1908 972.49 74.8216C970.934 70.3926 968.599 66.9212 965.487 64.4075C962.375 61.8937 958.514 60.6369 953.906 60.6369C949.417 60.6369 945.587 61.8638 942.414 64.3177C939.302 66.7118 936.908 70.1233 935.232 74.5523C933.616 78.9214 932.808 84.0986 932.808 90.0837C932.808 96.009 933.646 101.186 935.322 105.615C936.998 110.044 939.392 113.516 942.504 116.029C945.676 118.483 949.477 119.71 953.906 119.71ZM1032.91 70.7817H1062.98C1076.27 70.7218 1086.6 73.864 1093.96 80.2082C1101.38 86.5525 1105.12 95.0215 1105.18 105.615C1105.18 112.498 1103.5 118.543 1100.15 123.75C1096.8 128.897 1091.98 132.937 1085.7 135.87C1079.41 138.743 1071.84 140.179 1062.98 140.179H1015.58V39.8086H1042.07V118.274H1062.98C1067.59 118.274 1071.39 117.107 1074.39 114.772C1077.38 112.438 1078.91 109.446 1078.97 105.795C1078.91 101.904 1077.38 98.7322 1074.39 96.2783C1071.39 93.8244 1067.59 92.6274 1062.98 92.6873H1032.91V70.7817Z"/>
</mask>
<path d="M312.988 39.8086V39.1397H312.319V39.8086H312.988ZM340.729 39.8086H341.398V39.1397H340.729V39.8086ZM340.729 78.7718H340.06V79.4407H340.729V78.7718ZM348.629 78.7718V79.4407H348.978L349.178 79.1547L348.629 78.7718ZM375.832 39.8086V39.1397H375.483L375.283 39.4257L375.832 39.8086ZM408.51 39.8086L409.056 40.196L409.806 39.1397H408.51V39.8086ZM373.048 89.7246L372.503 89.3372L372.228 89.7245L372.503 90.1118L373.048 89.7246ZM351.053 104.628L351.602 104.245L351.402 103.959H351.053V104.628ZM340.729 104.628V103.959H340.06V104.628H340.729ZM503.943 140.179L503.274 140.182L503.277 140.848H503.943V140.179ZM503.854 118.184V117.515H503.182L503.185 118.187L503.854 118.184ZM507.175 118.184V118.853L507.188 118.853L507.175 118.184ZM514.896 114.952L514.416 114.486L514.409 114.493L514.896 114.952ZM519.475 104.448L518.821 104.306L518.82 104.312L519.475 104.448ZM521.54 84.338L520.871 84.3124L520.871 84.3143L521.54 84.338ZM523.245 39.8086V39.1397H522.602L522.577 39.783L523.245 39.8086ZM599.466 39.8086H600.135V39.1397H599.466V39.8086ZM572.982 61.7142H573.651V61.0453H572.982V61.7142ZM548.203 61.7142V61.0453H547.569L547.535 61.679L548.203 61.7142ZM546.587 92.4179L545.919 92.3828L545.919 92.3845L546.587 92.4179ZM536.802 128.957L536.264 128.56L536.263 128.561L536.802 128.957ZM526.388 137.486L526.658 138.098L526.662 138.096L526.388 137.486ZM701.991 61.7142H701.323V62.3831H701.991V61.7142ZM701.991 39.8086V39.1397H701.323V39.8086H701.991ZM792.756 39.8086H793.425V39.1397H792.756V39.8086ZM792.756 61.7142V62.3831H793.425V61.7142H792.756ZM760.526 61.7142V61.0453H759.857V61.7142H760.526ZM734.042 61.7142H734.711V61.0453H734.042V61.7142ZM905.696 39.8086V39.1397H905.027V39.8086H905.696ZM932.988 39.8086H933.657V39.1397H932.988V39.8086ZM932.988 56.7764H932.319V57.4453H932.988V56.7764ZM934.245 56.7764V57.4453H934.675L934.853 57.0542L934.245 56.7764ZM948.789 41.4246L949.084 42.0248L949.091 42.0209L948.789 41.4246ZM982.994 44.2974L982.638 44.8641L982.645 44.8681L982.994 44.2974ZM997.986 118.453L998.592 118.737L998.593 118.735L997.986 118.453ZM983.353 135.87L982.992 135.307L982.989 135.308L983.353 135.87ZM939.721 132.369L939.211 132.801L939.216 132.807L939.221 132.813L939.721 132.369ZM934.245 124.109L934.848 123.821L934.666 123.44H934.245V124.109ZM933.437 124.109V123.44H932.768V124.109H933.437ZM1115.95 39.8086V39.1397H1115.28V39.8086H1115.95ZM1143.69 39.8086H1144.36V39.1397H1143.69V39.8086ZM313.657 140.179V39.8086H312.319V140.179H313.657ZM312.988 40.4775H340.729V39.1397H312.988V40.4775ZM340.06 39.8086V78.7718H341.398V39.8086H340.06ZM340.729 79.4407H348.629V78.1029H340.729V79.4407ZM349.178 79.1547L376.38 40.1915L375.283 39.4257L348.081 78.3889L349.178 79.1547ZM375.832 40.4775H408.51V39.1397H375.832V40.4775ZM407.965 39.4212L372.503 89.3372L373.594 90.112L409.056 40.196L407.965 39.4212ZM372.503 90.1118L408.324 140.567L409.415 139.792L373.594 89.3374L372.503 90.1118ZM351.053 103.959H340.729V105.296H351.053V103.959ZM504.612 140.177L504.522 118.181L503.185 118.187L503.274 140.182L504.612 140.177ZM503.854 118.853H507.175V117.515H503.854V118.853ZM507.188 118.853C510.52 118.79 513.271 117.65 515.383 115.411L514.409 114.493C512.571 116.443 510.175 117.458 507.163 117.515L507.188 118.853ZM515.376 115.418C517.543 113.188 519.103 109.537 520.13 104.584L518.82 104.312C517.812 109.174 516.32 112.527 514.416 114.486L515.376 115.418ZM520.128 104.59C521.218 99.5663 521.908 92.8181 522.208 84.3617L520.871 84.3143C520.573 92.7359 519.886 99.3945 518.821 104.306L520.128 104.59ZM522.208 84.3636L523.914 39.8342L522.577 39.783L520.871 84.3124L522.208 84.3636ZM523.245 40.4775H599.466V39.1397H523.245V40.4775ZM573.651 140.179V61.7142H572.313V140.179H573.651ZM572.982 61.0453H548.203V62.3831H572.982V61.0453ZM547.535 61.679L545.919 92.3828L547.255 92.4531L548.871 61.7493L547.535 61.679ZM545.919 92.3845C545.502 100.731 544.489 107.894 542.889 113.881L544.181 114.227C545.813 108.124 546.835 100.863 547.256 92.4513L545.919 92.3845ZM542.889 113.881C541.288 119.868 539.074 124.754 536.264 128.56L537.34 129.355C540.275 125.38 542.55 120.33 544.181 114.227L542.889 113.881ZM536.263 128.561C533.514 132.303 530.133 135.07 526.114 136.876L526.662 138.096C530.902 136.191 534.463 133.272 537.341 129.353L536.263 128.561ZM526.118 136.874C522.148 138.625 517.544 139.51 512.293 139.51V140.848C517.694 140.848 522.488 139.938 526.658 138.098L526.118 136.874ZM512.293 139.51H503.943V140.848H512.293V139.51ZM702.66 61.7142V39.8086H701.323V61.7142H702.66ZM701.991 40.4775H792.756V39.1397H701.991V40.4775ZM792.087 39.8086V61.7142H793.425V39.8086H792.087ZM792.756 61.0453H760.526V62.3831H792.756V61.0453ZM759.857 61.7142V140.179H761.195V61.7142H759.857ZM734.042 61.0453H701.991V62.3831H734.042V61.0453ZM905.696 40.4775H932.988V39.1397H905.696V40.4775ZM932.319 39.8086V56.7764H933.657V39.8086H932.319ZM932.988 57.4453H934.245V56.1075H932.988V57.4453ZM934.853 57.0542C936.081 54.3645 937.842 51.631 940.146 48.8543L939.117 48C936.752 50.8494 934.922 53.682 933.636 56.4987L934.853 57.0542ZM940.146 48.8543C942.412 46.1239 945.385 43.8447 949.084 42.0247L948.493 40.8244C944.651 42.7152 941.519 45.1045 939.117 48L940.146 48.8543ZM949.091 42.0209C952.743 40.166 957.301 39.2206 962.794 39.2206V37.8828C957.154 37.8828 952.375 38.8526 948.486 40.8282L949.091 42.0209ZM962.794 39.2206C970.033 39.2206 976.642 41.1019 982.638 44.864L983.349 43.7308C977.135 39.832 970.278 37.8828 962.794 37.8828V39.2206ZM982.645 44.8681C988.682 48.5607 993.54 54.1699 997.205 61.7364L998.409 61.1533C994.652 53.3978 989.635 47.5755 983.343 43.7268L982.645 44.8681ZM997.205 61.7364C1000.86 69.2805 1002.7 78.7495 1002.7 90.1735H1004.04C1004.04 78.6146 1002.18 68.9312 998.409 61.1533L997.205 61.7364ZM1002.7 90.1735C1002.7 101.237 1000.92 110.561 997.38 118.171L998.593 118.735C1002.24 110.903 1004.04 101.375 1004.04 90.1735H1002.7ZM997.381 118.169C993.835 125.734 989.035 131.435 982.992 135.307L983.714 136.433C990 132.405 994.956 126.494 998.592 118.737L997.381 118.169ZM982.989 135.308C976.999 139.185 970.243 141.126 962.704 141.126V142.464C970.487 142.464 977.497 140.456 983.716 136.432L982.989 135.308ZM962.704 141.126C957.389 141.126 952.914 140.24 949.256 138.498L948.681 139.706C952.563 141.555 957.246 142.464 962.704 142.464V141.126ZM949.256 138.498C945.553 136.735 942.547 134.541 940.221 131.924L939.221 132.813C941.683 135.583 944.842 137.878 948.681 139.706L949.256 138.498ZM940.231 131.936C937.928 129.219 936.136 126.514 934.848 123.821L933.641 124.398C934.987 127.211 936.846 130.012 939.211 132.801L940.231 131.936ZM934.245 123.44H933.437V124.778H934.245V123.44ZM932.768 124.109V177.706H934.106V124.109H932.768ZM1115.95 40.4775H1143.69V39.1397H1115.95V40.4775ZM1143.03 39.8086V140.179H1144.36V39.8086H1143.03ZM340.06 104.628V140.179H341.398V104.628H340.06ZM350.504 105.01L375.283 140.562L376.38 139.797L351.602 104.245L350.504 105.01ZM598.797 39.8086V140.179H600.135V39.8086H598.797ZM733.373 61.7142V140.179H734.711V61.7142H733.373ZM905.027 39.8086V177.706H906.365V39.8086H905.027ZM1115.28 39.8086V140.179H1116.62V39.8086H1115.28ZM24.8931 135.601L24.2035 136.747L24.2104 136.751L24.8931 135.601ZM7.92528 117.376L6.73241 117.982L6.73432 117.985L7.92528 117.376ZM7.92528 63.3302L6.73611 62.7173L6.73242 62.7246L7.92528 63.3302ZM74.1807 43.3099L73.5957 44.513L73.6 44.5151L74.1807 43.3099ZM96.0863 76.9763V78.3141H97.4873L97.4227 76.9146L96.0863 76.9763ZM69.8714 76.9763L68.5471 77.1655L68.7112 78.3141H69.8714V76.9763ZM40.3348 63.779L41.1143 64.8663L41.1181 64.8636L40.3348 63.779ZM32.8833 73.9239L31.6412 73.427L31.6377 73.4357L32.8833 73.9239ZM32.8833 106.423L31.6334 106.9L31.6361 106.907L31.6389 106.914L32.8833 106.423ZM40.3348 116.837L39.5289 117.905L39.5385 117.912L40.3348 116.837ZM63.7666 115.94L64.6665 116.929L64.6762 116.92L63.7666 115.94ZM69.8714 103.371V102.033H68.7149L68.5477 103.177L69.8714 103.371ZM96.0863 103.371L97.4221 103.444L97.4993 102.033H96.0863V103.371ZM89.8917 123.66L91.0189 124.381L91.0223 124.376L89.8917 123.66ZM74.5398 137.306L75.1337 138.505L75.1425 138.501L74.5398 137.306ZM121.942 177.706V176.368H121.931L121.919 176.369L121.942 177.706ZM111.977 176.988L111.744 178.305L111.749 178.306L111.977 176.988ZM104.436 174.923L103.155 174.535L102.807 175.685L103.913 176.155L104.436 174.923ZM110.72 154.185L110.982 152.873L109.792 152.635L109.44 153.797L110.72 154.185ZM111.618 154.364L111.996 153.081L111.939 153.064L111.88 153.052L111.618 154.364ZM123.558 155.262L123.278 153.954L123.264 153.957L123.25 153.96L123.558 155.262ZM131.189 147.361L132.439 147.838L132.442 147.831L131.189 147.361ZM132.805 143.052L134.058 143.522L134.227 143.069L134.069 142.613L132.805 143.052ZM96.8943 39.8086V38.4708H95.0126L95.6308 40.2481L96.8943 39.8086ZM126.072 39.8086L127.36 39.4462L127.085 38.4708H126.072V39.8086ZM146.81 113.516L145.523 113.878L145.797 114.853H146.81V113.516ZM147.888 113.516V114.853H148.897L149.174 113.882L147.888 113.516ZM168.895 39.8086V38.4708H167.886L167.609 39.4419L168.895 39.8086ZM198.253 39.8086L199.515 40.2508L200.139 38.4708H198.253V39.8086ZM159.289 151.042L158.027 150.6L158.024 150.607L159.289 151.042ZM151.658 165.137L150.617 164.298L150.609 164.307L151.658 165.137ZM139.628 174.384L139.085 173.162L139.072 173.168L139.628 174.384ZM289.735 3L290.947 2.43296L290.26 0.964422L288.949 1.91808L289.735 3ZM298.264 21.2247L299.118 22.2543L299.914 21.5941L299.476 20.6577L298.264 21.2247ZM288.838 26.4318L289.24 27.7075L289.247 27.7053L289.254 27.7031L288.838 26.4318ZM276.538 28.5865L276.438 27.2524L276.437 27.2525L276.538 28.5865ZM259.121 29.3047L259.132 30.6425L259.145 30.6423L259.121 29.3047ZM240.178 33.0753L240.771 34.2748L240.777 34.2719L240.178 33.0753ZM224.108 64.2279L222.778 64.0919L222.627 65.5657H224.108V64.2279ZM225.186 64.2279V65.5657H226.027L226.392 64.8072L225.186 64.2279ZM237.754 50.1329L238.446 51.2779L238.45 51.2757L237.754 50.1329ZM280.488 50.7614L279.81 51.9142L279.818 51.9189L280.488 50.7614ZM300.778 91.969L299.44 91.9608L299.44 91.9689L299.44 91.9769L300.778 91.969ZM277.975 135.96L277.327 134.789L277.323 134.791L277.975 135.96ZM251.849 142.154L251.844 143.492L251.857 143.492L251.849 142.154ZM215.849 127.79L214.864 128.695L214.867 128.698L215.849 127.79ZM202.562 86.1335L201.224 86.1335L201.224 86.1379L202.562 86.1335ZM202.562 77.9638L201.224 77.9605V77.9638H202.562ZM258.313 6.41153L258.327 7.74926L258.33 7.74922L258.313 6.41153ZM271.69 6.41153L271.67 7.74917L271.68 7.74932H271.69V6.41153ZM282.194 5.78309L282.012 4.45772L282.009 4.45822L282.194 5.78309ZM262.982 117.286L263.767 118.369L263.774 118.364L263.781 118.359L262.982 117.286ZM272.498 92.9566L271.16 92.9426L271.16 92.9567L271.16 92.9707L272.498 92.9566ZM270.074 78.4127L268.84 78.9286L268.843 78.9352L270.074 78.4127ZM262.892 69.2554L262.135 70.3585L262.145 70.3653L262.892 69.2554ZM236.587 73.2056L237.637 74.0346L237.643 74.028L237.648 74.0213L236.587 73.2056ZM230.931 92.9566L229.594 92.938L229.594 92.9473V92.9566H230.931ZM236.498 113.156L235.426 113.957L235.432 113.965L236.498 113.156ZM433.289 177.706V176.368H433.278L433.266 176.369L433.289 177.706ZM423.324 176.988L423.091 178.305L423.095 178.306L423.324 176.988ZM415.782 174.923L414.502 174.535L414.153 175.685L415.26 176.155L415.782 174.923ZM422.067 154.185L422.329 152.873L421.139 152.635L420.786 153.797L422.067 154.185ZM422.964 154.364L423.343 153.081L423.285 153.064L423.227 153.052L422.964 154.364ZM434.905 155.262L434.625 153.954L434.611 153.957L434.597 153.96L434.905 155.262ZM442.536 147.361L443.786 147.838L443.789 147.831L442.536 147.361ZM444.152 143.052L445.404 143.522L445.574 143.069L445.415 142.613L444.152 143.052ZM408.241 39.8086V38.4708H406.359L406.978 40.2481L408.241 39.8086ZM437.419 39.8086L438.706 39.4462L438.432 38.4708H437.419V39.8086ZM458.157 113.516L456.869 113.878L457.144 114.853H458.157V113.516ZM459.234 113.516V114.853H460.244L460.521 113.882L459.234 113.516ZM480.242 39.8086V38.4708H479.232L478.956 39.4419L480.242 39.8086ZM509.599 39.8086L510.862 40.2508L511.485 38.4708H509.599V39.8086ZM470.636 151.042L469.374 150.6L469.371 150.607L470.636 151.042ZM463.005 165.137L461.963 164.298L461.956 164.307L463.005 165.137ZM450.975 174.384L450.432 173.162L450.419 173.168L450.975 174.384ZM633.222 70.7817V69.4439H631.884V70.7817H633.222ZM663.298 70.7817V72.1195L663.304 72.1194L663.298 70.7817ZM694.271 80.2082L693.397 81.2217L693.401 81.2251L694.271 80.2082ZM705.493 105.615L706.831 105.615L706.831 105.608L705.493 105.615ZM700.465 123.75L701.586 124.48L701.59 124.474L700.465 123.75ZM686.011 135.87L686.567 137.087L686.577 137.082L686.011 135.87ZM615.895 140.179H614.558V141.517H615.895V140.179ZM615.895 39.8086V38.4708H614.558V39.8086H615.895ZM642.38 39.8086H643.717V38.4708H642.38V39.8086ZM642.38 118.274H641.042V119.611H642.38V118.274ZM679.278 105.795L680.616 105.817L680.616 105.795L680.616 105.774L679.278 105.795ZM663.298 92.6873V94.025H663.306L663.315 94.0249L663.298 92.6873ZM633.222 92.6873H631.884V94.025H633.222V92.6873ZM820.946 177.706V176.368H820.935L820.923 176.369L820.946 177.706ZM810.981 176.988L810.748 178.305L810.753 178.306L810.981 176.988ZM803.44 174.923L802.159 174.535L801.811 175.685L802.917 176.155L803.44 174.923ZM809.724 154.185L809.986 152.873L808.796 152.635L808.444 153.797L809.724 154.185ZM810.622 154.364L811 153.081L810.943 153.064L810.884 153.052L810.622 154.364ZM822.562 155.262L822.282 153.954L822.268 153.957L822.254 153.96L822.562 155.262ZM830.193 147.361L831.443 147.838L831.446 147.831L830.193 147.361ZM831.809 143.052L833.062 143.522L833.231 143.069L833.073 142.613L831.809 143.052ZM795.898 39.8086V38.4708H794.017L794.635 40.2481L795.898 39.8086ZM825.076 39.8086L826.364 39.4462L826.089 38.4708H825.076V39.8086ZM845.814 113.516L844.526 113.878L844.801 114.853H845.814V113.516ZM846.892 113.516V114.853H847.901L848.178 113.882L846.892 113.516ZM867.899 39.8086V38.4708H866.89L866.613 39.4419L867.899 39.8086ZM897.257 39.8086L898.519 40.2508L899.143 38.4708H897.257V39.8086ZM858.293 151.042L857.031 150.6L857.028 150.607L858.293 151.042ZM850.662 165.137L849.621 164.298L849.613 164.307L850.662 165.137ZM838.632 174.384L838.089 173.162L838.076 173.168L838.632 174.384ZM972.49 105.525L973.746 105.984L973.748 105.979L972.49 105.525ZM972.49 74.8216L971.228 75.2651L971.231 75.2754L971.235 75.2857L972.49 74.8216ZM942.414 64.3177L943.23 65.3781L943.233 65.3758L942.414 64.3177ZM935.232 74.5523L933.981 74.0788L933.978 74.0882L935.232 74.5523ZM942.504 116.029L941.664 117.07L941.675 117.079L941.686 117.087L942.504 116.029ZM1032.91 70.7817V69.4439H1031.57V70.7817H1032.91ZM1062.98 70.7817V72.1195L1062.99 72.1194L1062.98 70.7817ZM1093.96 80.2082L1093.08 81.2217L1093.09 81.2251L1093.96 80.2082ZM1105.18 105.615L1106.52 105.615L1106.52 105.608L1105.18 105.615ZM1100.15 123.75L1101.27 124.48L1101.28 124.474L1100.15 123.75ZM1085.7 135.87L1086.25 137.087L1086.26 137.082L1085.7 135.87ZM1015.58 140.179H1014.24V141.517H1015.58V140.179ZM1015.58 39.8086V38.4708H1014.24V39.8086H1015.58ZM1042.07 39.8086H1043.4V38.4708H1042.07V39.8086ZM1042.07 118.274H1040.73V119.611H1042.07V118.274ZM1078.97 105.795L1080.3 105.817L1080.3 105.795L1080.3 105.774L1078.97 105.795ZM1062.98 92.6873V94.025H1062.99L1063 94.0249L1062.98 92.6873ZM1032.91 92.6873H1031.57V94.025H1032.91V92.6873ZM51.2876 140.817C41.2461 140.817 32.6939 138.675 25.5759 134.45L24.2104 136.751C31.8158 141.265 40.8599 143.492 51.2876 143.492V140.817ZM25.5828 134.454C18.4372 130.155 12.9539 124.267 9.11625 116.767L6.73432 117.985C10.7971 125.926 16.6257 132.188 24.2035 136.747L25.5828 134.454ZM9.11815 116.77C5.27788 109.206 3.33779 100.442 3.33779 90.4428H0.662208C0.662208 100.793 2.67231 109.984 6.73242 117.982L9.11815 116.77ZM3.33779 90.4428C3.33779 80.3212 5.27894 71.4979 9.11815 63.9358L6.73242 62.7246C2.67125 70.7238 0.662208 79.9756 0.662208 90.4428H3.33779ZM9.11443 63.943C13.0122 56.3802 18.5249 50.4939 25.6657 46.2559L24.3001 43.955C16.7175 48.4553 10.8585 54.7188 6.73613 62.7173L9.11443 63.943ZM25.6657 46.2559C32.7848 42.0307 41.3076 39.8895 51.2876 39.8895V37.2139C40.9182 37.2139 31.9045 39.4419 24.3001 43.955L25.6657 46.2559ZM51.2876 39.8895C59.8641 39.8895 67.2877 41.4458 73.5957 44.513L74.7657 42.1068C68.0261 38.8297 60.1877 37.2139 51.2876 37.2139V39.8895ZM73.6 44.5151C79.9811 47.5896 84.999 51.894 88.6888 57.4287L90.915 55.9446C86.9439 49.9879 81.5477 45.3745 74.7614 42.1047L73.6 44.5151ZM88.6888 57.4287C92.3678 62.9472 94.4006 69.4683 94.75 77.038L97.4227 76.9146C97.0538 68.9229 94.897 61.9176 90.915 55.9446L88.6888 57.4287ZM96.0863 75.6385H69.8714V78.3141H96.0863V75.6385ZM71.1958 76.7871C70.6946 73.2791 69.6229 70.1658 67.9565 67.474L65.6815 68.8823C67.1274 71.2179 68.0906 73.9701 68.5471 77.1655L71.1958 76.7871ZM67.9565 67.474C66.278 64.7626 64.0396 62.6522 61.2554 61.163L59.9934 63.5223C62.3565 64.7862 64.2477 66.5661 65.6815 68.8823L67.9565 67.474ZM61.2554 61.163C58.4572 59.6663 55.2411 58.94 51.6467 58.94V61.6155C54.8754 61.6155 57.6443 62.2658 59.9934 63.5223L61.2554 61.163ZM51.6467 58.94C47.0802 58.94 43.0302 60.1821 39.5515 62.6945L41.1181 64.8636C44.1033 62.7075 47.5946 61.6155 51.6467 61.6155V58.94ZM39.5553 62.6918C36.1313 65.1467 33.5089 68.7578 31.6412 73.427L34.1254 74.4207C35.8488 70.1122 38.194 66.9601 41.1143 64.8663L39.5553 62.6918ZM31.6377 73.4357C29.8245 78.0626 28.942 83.625 28.942 90.0837H31.6176C31.6176 83.854 32.4707 78.6431 34.1289 74.412L31.6377 73.4357ZM28.942 90.0837C28.942 96.5441 29.825 102.161 31.6334 106.9L34.1332 105.946C32.4703 101.588 31.6176 96.3118 31.6176 90.0837H28.942ZM31.6389 106.914C33.504 111.639 36.1196 115.332 39.5289 117.905L41.1407 115.769C38.2057 113.554 35.8536 110.304 34.1277 105.932L31.6389 106.914ZM39.5385 117.912C43.0178 120.489 47.0724 121.766 51.6467 121.766V119.091C47.6024 119.091 44.1158 117.973 41.1311 115.762L39.5385 117.912ZM51.6467 121.766C56.7399 121.766 61.1087 120.164 64.6665 116.929L62.8667 114.95C59.8409 117.7 56.1297 119.091 51.6467 119.091V121.766ZM64.6762 116.92C68.2342 113.621 70.3821 109.131 71.1952 103.564L68.5477 103.177C67.8046 108.264 65.8827 112.153 62.857 114.959L64.6762 116.92ZM69.8714 104.709H96.0863V102.033H69.8714V104.709ZM94.7505 103.298C94.3427 110.755 92.3373 117.292 88.7612 122.945L91.0223 124.376C94.8677 118.297 96.992 111.308 97.4221 103.444L94.7505 103.298ZM88.7645 122.94C85.1908 128.531 80.2603 132.922 73.9372 136.112L75.1425 138.501C81.867 135.108 87.171 130.401 91.0189 124.381L88.7645 122.94ZM73.946 136.108C67.6448 139.229 60.1064 140.817 51.2876 140.817V143.492C60.4242 143.492 68.3873 141.847 75.1337 138.505L73.946 136.108ZM121.919 176.369C118.463 176.427 115.225 176.192 112.205 175.67L111.749 178.306C114.953 178.861 118.359 179.105 121.965 179.044L121.919 176.369ZM112.209 175.67C109.217 175.142 106.809 174.477 104.958 173.691L103.913 176.155C106.012 177.045 108.632 177.756 111.744 178.305L112.209 175.67ZM105.716 175.311L112 154.572L109.44 153.797L103.155 174.535L105.716 175.311ZM110.458 155.496L111.355 155.676L111.88 153.052L110.982 152.873L110.458 155.496ZM111.239 155.647C116.039 157.062 120.27 157.414 123.866 156.564L123.25 153.96C120.263 154.666 116.533 154.419 111.996 153.081L111.239 155.647ZM123.838 156.57C127.803 155.72 130.616 152.617 132.439 147.838L129.939 146.885C128.291 151.203 126.016 153.367 123.278 153.954L123.838 156.57ZM132.442 147.831L134.058 143.522L131.553 142.582L129.937 146.892L132.442 147.831ZM134.069 142.613L98.1579 39.3691L95.6308 40.2481L131.542 143.492L134.069 142.613ZM96.8943 41.1464H126.072V38.4708H96.8943V41.1464ZM124.784 40.1709L145.523 113.878L148.098 113.153L127.36 39.4462L124.784 40.1709ZM146.81 114.853H147.888V112.178H146.81V114.853ZM149.174 113.882L170.182 40.1753L167.609 39.4419L146.601 113.149L149.174 113.882ZM168.895 41.1464H198.253V38.4708H168.895V41.1464ZM196.99 39.3663L158.027 150.6L160.552 151.485L199.515 40.2508L196.99 39.3663ZM158.024 150.607C156.214 155.862 153.742 160.421 150.617 164.298L152.7 165.977C156.039 161.834 158.654 156.996 160.554 151.478L158.024 150.607ZM150.609 164.307C147.576 168.141 143.743 171.092 139.085 173.162L140.172 175.607C145.21 173.368 149.396 170.154 152.708 165.967L150.609 164.307ZM139.072 173.168C134.443 175.282 128.749 176.368 121.942 176.368V179.044C129.021 179.044 135.117 177.916 140.184 175.601L139.072 173.168ZM288.524 3.56704L297.053 21.7918L299.476 20.6577L290.947 2.43296L288.524 3.56704ZM297.41 20.1952C294.726 22.4221 291.733 24.0757 288.421 25.1605L289.254 27.7031C292.885 26.5135 296.176 24.6958 299.118 22.2543L297.41 20.1952ZM288.435 25.1561C285.148 26.1939 281.156 26.8986 276.438 27.2524L276.638 29.9205C281.497 29.5561 285.704 28.8244 289.24 27.7075L288.435 25.1561ZM276.437 27.2525C271.743 27.609 265.966 27.8476 259.098 27.9671L259.145 30.6423C266.043 30.5223 271.877 30.2821 276.639 29.9204L276.437 27.2525ZM259.111 27.9669C251.264 28.0277 244.729 29.3041 239.58 31.8787L240.777 34.2719C245.443 31.9387 251.537 30.7013 259.132 30.6424L259.111 27.9669ZM239.586 31.8758C234.461 34.4067 230.574 38.3679 227.937 43.7048L230.335 44.8901C232.726 40.0522 236.2 36.532 240.771 34.2748L239.586 31.8758ZM227.937 43.7048C225.328 48.9844 223.625 55.799 222.778 64.0919L225.439 64.3639C226.268 56.2576 227.916 49.7852 230.335 44.8901L227.937 43.7048ZM224.108 65.5657H225.186V62.8901H224.108V65.5657ZM226.392 64.8072C229.219 58.9211 233.237 54.4263 238.446 51.2779L237.063 48.988C231.379 52.4232 227.018 57.3251 223.98 63.6486L226.392 64.8072ZM238.45 51.2757C243.701 48.0794 250.21 46.4432 258.044 46.4432V43.7676C249.838 43.7676 242.82 45.4832 237.059 48.9902L238.45 51.2757ZM258.044 46.4432C266.401 46.4432 273.641 48.282 279.81 51.9142L281.167 49.6086C274.528 45.6994 266.805 43.7676 258.044 43.7676V46.4432ZM279.818 51.9189C285.985 55.4927 290.809 60.6526 294.291 67.4419L296.672 66.221C292.971 59.0051 287.8 53.4516 281.159 49.6039L279.818 51.9189ZM294.291 67.4419C297.763 74.2127 299.499 82.3695 299.44 91.9608L302.116 91.9772C302.177 82.0571 300.381 73.4555 296.672 66.221L294.291 67.4419ZM299.44 91.9769C299.499 101.975 297.588 110.609 293.757 117.922L296.128 119.164C300.197 111.394 302.177 102.312 302.116 91.9612L299.44 91.9769ZM293.757 117.922C289.927 125.234 284.457 130.847 277.327 134.789L278.622 137.131C286.216 132.932 292.057 126.934 296.128 119.164L293.757 117.922ZM277.323 134.791C270.256 138.731 261.778 140.758 251.842 140.817L251.857 143.492C262.151 143.431 271.09 141.329 278.626 137.128L277.323 134.791ZM251.855 140.817C236.954 140.758 225.333 136.078 216.831 126.882L214.867 128.698C223.961 138.535 236.341 143.431 251.844 143.492L251.855 140.817ZM216.834 126.885C208.338 117.638 203.959 104.124 203.9 86.1291L201.224 86.1379C201.285 104.533 205.763 118.79 214.864 128.695L216.834 126.885ZM203.9 86.1335V77.9638H201.224V86.1335H203.9ZM203.9 77.9671C203.959 53.9177 208.669 36.3537 217.789 25.0263L215.705 23.3484C206.031 35.3631 201.284 53.6501 201.224 77.9605L203.9 77.9671ZM217.789 25.0263C226.879 13.7361 240.314 7.92584 258.327 7.74926L258.3 5.0738C239.683 5.25632 225.408 11.2966 215.705 23.3484L217.789 25.0263ZM258.33 7.74922C263.228 7.68948 267.675 7.68953 271.67 7.74917L271.71 5.07388C267.686 5.01382 263.214 5.01387 258.297 5.07383L258.33 7.74922ZM271.69 7.74932C275.744 7.74932 279.309 7.53778 282.38 7.10796L282.009 4.45822C279.094 4.86632 275.657 5.07373 271.69 5.07373V7.74932ZM282.376 7.10845C285.591 6.66717 288.328 5.67777 290.522 4.08192L288.949 1.91808C287.193 3.1951 284.902 4.06109 282.012 4.45772L282.376 7.10845ZM251.939 121.946C256.489 121.946 260.455 120.772 263.767 118.369L262.196 116.203C259.404 118.229 256.008 119.27 251.939 119.27V121.946ZM263.781 118.359C267.061 115.915 269.562 112.5 271.314 108.183L268.835 107.177C267.235 111.119 265.008 114.109 262.183 116.213L263.781 118.359ZM271.314 108.183C273.072 103.851 273.897 98.7586 273.836 92.9425L271.16 92.9707C271.219 98.5263 270.428 103.25 268.835 107.177L271.314 108.183ZM273.836 92.9705C273.897 87.0997 273.074 82.0571 271.306 77.8902L268.843 78.9352C270.427 82.6687 271.219 87.322 271.16 92.9426L273.836 92.9705ZM271.309 77.8969C269.548 73.6846 267.001 70.4085 263.639 68.1456L262.145 70.3653C265.008 72.2919 267.249 75.1207 268.84 78.9285L271.309 77.8969ZM263.649 68.1524C260.339 65.8808 256.383 64.7755 251.849 64.7755V67.451C255.934 67.451 259.34 68.4405 262.135 70.3585L263.649 68.1524ZM251.849 64.7755C248.45 64.7755 245.35 65.4059 242.577 66.6958L243.705 69.1218C246.079 68.0177 248.785 67.451 251.849 67.451V64.7755ZM242.577 66.6958C239.801 67.9869 237.449 69.892 235.527 72.39L237.648 74.0213C239.317 71.8509 241.334 70.2247 243.705 69.1218L242.577 66.6958ZM235.537 72.3767C233.617 74.8086 232.17 77.7537 231.173 81.1812L233.742 81.9286C234.66 78.7725 235.966 76.1514 237.637 74.0346L235.537 72.3767ZM231.173 81.1812C230.175 84.6136 229.655 88.5378 229.594 92.938L232.269 92.9752C232.328 88.7567 232.825 85.0798 233.742 81.9286L231.173 81.1812ZM229.594 92.9566C229.594 101.639 231.489 108.686 235.426 113.957L237.569 112.356C234.085 107.691 232.269 101.272 232.269 92.9566H229.594ZM235.432 113.965C239.469 119.284 245.02 121.946 251.939 121.946V119.27C245.811 119.27 241.068 116.964 237.563 112.348L235.432 113.965ZM433.266 176.369C429.809 176.427 426.572 176.192 423.552 175.67L423.095 178.306C426.3 178.861 429.706 179.105 433.312 179.044L433.266 176.369ZM423.556 175.67C420.563 175.142 418.156 174.477 416.305 173.691L415.26 176.155C417.359 177.045 419.979 177.756 423.091 178.305L423.556 175.67ZM417.063 175.311L423.347 154.572L420.786 153.797L414.502 174.535L417.063 175.311ZM421.804 155.496L422.702 155.676L423.227 153.052L422.329 152.873L421.804 155.496ZM422.586 155.647C427.386 157.062 431.616 157.414 435.213 156.564L434.597 153.96C431.61 154.666 427.88 154.419 423.343 153.081L422.586 155.647ZM435.185 156.57C439.15 155.72 441.962 152.617 443.786 147.838L441.286 146.885C439.638 151.203 437.363 153.367 434.625 153.954L435.185 156.57ZM443.789 147.831L445.404 143.522L442.899 142.582L441.283 146.892L443.789 147.831ZM445.415 142.613L409.505 39.3691L406.978 40.2481L442.888 143.492L445.415 142.613ZM408.241 41.1464H437.419V38.4708H408.241V41.1464ZM436.131 40.1709L456.869 113.878L459.445 113.153L438.706 39.4462L436.131 40.1709ZM458.157 114.853H459.234V112.178H458.157V114.853ZM460.521 113.882L481.529 40.1753L478.956 39.4419L457.948 113.149L460.521 113.882ZM480.242 41.1464H509.599V38.4708H480.242V41.1464ZM508.337 39.3663L469.374 150.6L471.899 151.485L510.862 40.2508L508.337 39.3663ZM469.371 150.607C467.561 155.862 465.088 160.421 461.963 164.298L464.047 165.977C467.386 161.834 470 156.996 471.901 151.478L469.371 150.607ZM461.956 164.307C458.923 168.141 455.089 171.092 450.432 173.162L451.518 175.607C456.556 173.368 460.743 170.154 464.054 165.967L461.956 164.307ZM450.419 173.168C445.79 175.282 440.095 176.368 433.289 176.368V179.044C440.368 179.044 446.464 177.916 451.531 175.601L450.419 173.168ZM633.222 72.1194H663.298V69.4439H633.222V72.1194ZM663.304 72.1194C676.387 72.0605 686.357 75.1545 693.397 81.2216L695.144 79.1948C687.461 72.5735 676.782 69.3831 663.292 69.4439L663.304 72.1194ZM693.401 81.2251C700.5 87.2936 704.097 95.3802 704.155 105.623L706.831 105.608C706.769 94.6627 702.884 85.8113 695.14 79.1914L693.401 81.2251ZM704.155 105.615C704.155 112.271 702.538 118.059 699.34 123.026L701.59 124.474C705.096 119.028 706.831 112.725 706.831 105.615H704.155ZM699.344 123.02C696.146 127.932 691.533 131.817 685.445 134.658L686.577 137.082C693.058 134.058 698.081 129.863 701.586 124.48L699.344 123.02ZM685.455 134.653C679.387 137.427 672.016 138.842 663.298 138.842V141.517C672.295 141.517 680.067 140.059 686.567 137.087L685.455 134.653ZM663.298 138.842H615.895V141.517H663.298V138.842ZM617.233 140.179V39.8086H614.558V140.179H617.233ZM615.895 41.1464H642.38V38.4708H615.895V41.1464ZM641.042 39.8086V118.274H643.717V39.8086H641.042ZM642.38 119.611H663.298V116.936H642.38V119.611ZM663.298 119.611C668.139 119.611 672.247 118.382 675.522 115.827L673.876 113.718C671.166 115.832 667.674 116.936 663.298 116.936V119.611ZM675.522 115.827C678.819 113.256 680.549 109.89 680.616 105.817L677.94 105.773C677.887 109.001 676.565 111.621 673.876 113.718L675.522 115.827ZM680.616 105.774C680.55 101.493 678.846 97.9489 675.548 95.2439L673.851 97.3128C676.537 99.5156 677.886 102.316 677.94 105.815L680.616 105.774ZM675.548 95.2439C672.267 92.5534 668.141 91.2864 663.28 91.3496L663.315 94.0249C667.671 93.9684 671.147 95.0954 673.851 97.3128L675.548 95.2439ZM663.298 91.3495H633.222V94.025H663.298V91.3495ZM634.56 92.6873V70.7817H631.884V92.6873H634.56ZM820.923 176.369C817.466 176.427 814.229 176.192 811.209 175.67L810.753 178.306C813.957 178.861 817.363 179.105 820.969 179.044L820.923 176.369ZM811.213 175.67C808.221 175.142 805.813 174.477 803.962 173.691L802.917 176.155C805.016 177.045 807.636 177.756 810.748 178.305L811.213 175.67ZM804.72 175.311L811.004 154.572L808.444 153.797L802.159 174.535L804.72 175.311ZM809.462 155.496L810.359 155.676L810.884 153.052L809.986 152.873L809.462 155.496ZM810.243 155.647C815.043 157.062 819.273 157.414 822.87 156.564L822.254 153.96C819.267 154.666 815.537 154.419 811 153.081L810.243 155.647ZM822.842 156.57C826.807 155.72 829.62 152.617 831.443 147.838L828.943 146.885C827.295 151.203 825.02 153.367 822.282 153.954L822.842 156.57ZM831.446 147.831L833.062 143.522L830.556 142.582L828.94 146.892L831.446 147.831ZM833.073 142.613L797.162 39.3691L794.635 40.2481L830.546 143.492L833.073 142.613ZM795.898 41.1464H825.076V38.4708H795.898V41.1464ZM823.788 40.1709L844.526 113.878L847.102 113.153L826.364 39.4462L823.788 40.1709ZM845.814 114.853H846.892V112.178H845.814V114.853ZM848.178 113.882L869.186 40.1753L866.613 39.4419L845.605 113.149L848.178 113.882ZM867.899 41.1464H897.257V38.4708H867.899V41.1464ZM895.994 39.3663L857.031 150.6L859.556 151.485L898.519 40.2508L895.994 39.3663ZM857.028 150.607C855.218 155.862 852.746 160.421 849.621 164.298L851.704 165.977C855.043 161.834 857.658 156.996 859.558 151.478L857.028 150.607ZM849.613 164.307C846.58 168.141 842.747 171.092 838.089 173.162L839.175 175.607C844.214 173.368 848.4 170.154 851.711 165.967L849.613 164.307ZM838.076 173.168C833.447 175.282 827.753 176.368 820.946 176.368V179.044C828.025 179.044 834.121 177.916 839.188 175.601L838.076 173.168ZM953.906 121.048C958.716 121.048 962.855 119.712 966.238 116.98L964.557 114.899C961.715 117.194 958.193 118.372 953.906 118.372V121.048ZM966.238 116.98C969.571 114.288 972.062 110.6 973.746 105.984L971.233 105.067C969.685 109.309 967.449 112.563 964.557 114.899L966.238 116.98ZM973.748 105.979C975.427 101.317 976.251 96.0114 976.251 90.0837H973.576C973.576 95.7672 972.785 100.756 971.231 105.072L973.748 105.979ZM976.251 90.0837C976.251 84.1572 975.427 78.9068 973.744 74.3576L971.235 75.2857C972.784 79.4748 973.576 84.399 973.576 90.0837H976.251ZM973.752 74.3782C972.128 69.756 969.665 66.062 966.328 63.3668L964.647 65.4482C967.534 67.7805 969.739 71.0292 971.228 75.2651L973.752 74.3782ZM966.328 63.3668C962.942 60.6322 958.771 59.2991 953.906 59.2991V61.9746C958.257 61.9746 961.808 63.1553 964.647 65.4482L966.328 63.3668ZM953.906 59.2991C949.158 59.2991 945.03 60.6028 941.596 63.2596L943.233 65.3758C946.143 63.1248 949.676 61.9746 953.906 61.9746V59.2991ZM941.599 63.2573C938.253 65.8314 935.727 69.4657 933.981 74.0789L936.483 75.0257C938.09 70.7809 940.352 67.5921 943.23 65.3781L941.599 63.2573ZM933.978 74.0882C932.293 78.6415 931.47 83.9831 931.47 90.0837H934.146C934.146 84.214 934.939 79.2014 936.487 75.0164L933.978 74.0882ZM931.47 90.0837C931.47 96.1317 932.325 101.476 934.071 106.089L936.573 105.142C934.967 100.897 934.146 95.8863 934.146 90.0837H931.47ZM934.071 106.089C935.815 110.699 938.335 114.382 941.664 117.07L943.345 114.989C940.449 112.649 938.181 109.39 936.573 105.142L934.071 106.089ZM941.686 117.087C945.117 119.742 949.213 121.048 953.906 121.048V118.372C949.74 118.372 946.236 117.225 943.323 114.971L941.686 117.087ZM1032.91 72.1194H1062.98V69.4439H1032.91V72.1194ZM1062.99 72.1194C1076.07 72.0605 1086.04 75.1545 1093.08 81.2216L1094.83 79.1948C1087.15 72.5735 1076.47 69.3831 1062.98 69.4439L1062.99 72.1194ZM1093.09 81.2251C1100.19 87.2936 1103.78 95.3802 1103.84 105.623L1106.52 105.608C1106.46 94.6627 1102.57 85.8113 1094.83 79.1914L1093.09 81.2251ZM1103.84 105.615C1103.84 112.271 1102.23 118.059 1099.03 123.026L1101.28 124.474C1104.78 119.028 1106.52 112.725 1106.52 105.615H1103.84ZM1099.03 123.02C1095.83 127.932 1091.22 131.817 1085.13 134.658L1086.26 137.082C1092.75 134.058 1097.77 129.863 1101.27 124.48L1099.03 123.02ZM1085.14 134.653C1079.07 137.427 1071.7 138.842 1062.98 138.842V141.517C1071.98 141.517 1079.75 140.059 1086.25 137.087L1085.14 134.653ZM1062.98 138.842H1015.58V141.517H1062.98V138.842ZM1016.92 140.179V39.8086H1014.24V140.179H1016.92ZM1015.58 41.1464H1042.07V38.4708H1015.58V41.1464ZM1040.73 39.8086V118.274H1043.4V39.8086H1040.73ZM1042.07 119.611H1062.98V116.936H1042.07V119.611ZM1062.98 119.611C1067.83 119.611 1071.93 118.382 1075.21 115.827L1073.56 113.718C1070.85 115.832 1067.36 116.936 1062.98 116.936V119.611ZM1075.21 115.827C1078.51 113.256 1080.24 109.89 1080.3 105.817L1077.63 105.773C1077.57 109.001 1076.25 111.621 1073.56 113.718L1075.21 115.827ZM1080.3 105.774C1080.24 101.493 1078.53 97.9489 1075.23 95.2439L1073.54 97.3128C1076.22 99.5156 1077.57 102.316 1077.63 105.815L1080.3 105.774ZM1075.23 95.2439C1071.95 92.5534 1067.83 91.2864 1062.97 91.3496L1063 94.0249C1067.36 93.9684 1070.83 95.0954 1073.54 97.3128L1075.23 95.2439ZM1062.98 91.3495H1032.91V94.025H1062.98V91.3495ZM1034.25 92.6873V70.7817H1031.57V92.6873H1034.25Z" fill="black" mask="url(#path-13-outside-1_847_15655)"/>
</svg>
