<svg width="324" height="177" viewBox="0 0 324 177" fill="none" xmlns="http://www.w3.org/2000/svg">
<path d="M9.43308 22.9902C21.5027 10.5268 38.5666 1 58.0966 1C66.3243 1 73.6614 1.72099 79.0689 7.34811C82.2528 10.6613 84.2969 22.2849 74.6131 30.2511L50.5 47.1875M20.3178 80.2892C12.0308 90.35 -2.70965 109.291 1.85963 133.484C7.55189 150.921 32.0702 154.32 50.4023 154.32C54.283 154.32 58.1637 154.32 62.0444 154.32C66.4275 154.32 70.5823 152.489 74.6131 151.13C102.639 139.916 113.492 119.283 111.5 82.6875M111 46.6875C109.631 25.5271 123.116 22.1078 129 18.6875C137.617 13.6787 153.565 13.8276 163.561 13.8276C172.599 13.8276 176.668 16.1629 182.011 22.1078C189.617 30.5701 181 46.6875 181 46.6875M137.073 124.602C125.622 138.542 121.172 160.325 130.286 169.591C140.722 176.965 154.244 176.832 167.106 176.277C178.599 175.78 188.639 169.306 198.004 164.433C203.244 161.707 207.096 155.947 211.384 152.11C217.915 146.264 217.478 147.617 220.595 140.161C234.909 119.996 230 99.6179 230 83.1875M323.409 154.931C323.409 159.1 318.964 162.886 314.949 164.84C304.689 169.834 291.46 172.006 287.153 160.293C281.762 145.629 300.956 129.705 307.371 119.996C315.524 109.54 315.433 106.304 318.865 97.4665C322.781 87.3842 322.352 70.2069 321.169 62.2406C318.654 45.3123 311.027 34.0478 295.154 24.2764C286.333 18.8461 280.591 16.6836 268.268 16.6836C247.86 20.0771 229.5 34.1875 229.5 46.6875M144.915 115.017C154.69 104.598 155.405 90.639 162.5 79.1875" stroke="#131313" stroke-width="0.373419" stroke-linecap="round"/>
<ellipse cx="9.4629" cy="23.1559" rx="0.935557" ry="0.995783" fill="#131313"/>
<ellipse cx="37.6923" cy="153.853" rx="1.06921" ry="0.995783" fill="#131313"/>
<circle cx="124.996" cy="20.6833" r="0.995783" fill="#131313"/>
<ellipse cx="184.679" cy="171.279" rx="1.06921" ry="0.995783" fill="#131313"/>
<ellipse cx="268.466" cy="16.9323" rx="1.06921" ry="0.995783" fill="#131313"/>
<ellipse cx="318.866" cy="97.591" rx="1.06921" ry="0.995783" fill="#131313"/>
<ellipse cx="319.934" cy="161.819" rx="1.06921" ry="0.995783" fill="#131313"/>
<ellipse cx="7.87131" cy="98.6833" rx="0.87131" ry="0.995783" fill="#131313"/>
</svg>
