<svg width="800" height="144" viewBox="0 0 800 144" fill="none" xmlns="http://www.w3.org/2000/svg">
<circle cx="2.7332" cy="102.612" r="2.7332" fill="#131313"/>
<circle cx="30.7332" cy="102.612" r="2.7332" fill="#131313"/>
<circle cx="66.7332" cy="102.612" r="2.7332" fill="#131313"/>
<circle cx="232.733" cy="102.612" r="2.7332" fill="#131313"/>
<circle cx="401.733" cy="140.612" r="2.7332" fill="#131313"/>
<circle cx="740.733" cy="102.612" r="2.7332" fill="#131313"/>
<circle cx="92.7332" cy="102.612" r="2.7332" fill="#131313"/>
<circle cx="259.733" cy="102.612" r="2.7332" fill="#131313"/>
<circle cx="429.733" cy="140.612" r="2.7332" fill="#131313"/>
<circle cx="766.733" cy="102.612" r="2.7332" fill="#131313"/>
<mask id="path-11-outside-1_935_17091" maskUnits="userSpaceOnUse" x="2.10938" y="0" width="798" height="141" fill="black">
<rect fill="white" x="2.10938" width="798" height="141"/>
<path d="M177.954 42.102V63.668H126V42.102H177.954ZM135.09 3.24762V102.879H108.8V3.24762H135.09ZM195.242 3.24762V102.879H169.132V3.24762H195.242ZM344.333 104.839C334.114 104.839 325.292 102.76 317.865 98.6012C310.439 94.4425 304.736 88.5312 300.755 80.8673C296.834 73.1439 294.874 64.0244 294.874 53.5088C294.874 43.2902 296.834 34.3192 300.755 26.5959C304.736 18.8725 310.32 12.8424 317.509 8.50543C324.757 4.16848 333.253 2 342.996 2C349.591 2 355.74 3.06939 361.443 5.20816C367.146 7.28752 372.137 10.4363 376.414 14.6544C380.692 18.8131 384.019 24.0709 386.395 30.4279C388.772 36.7254 389.96 44.1219 389.96 52.6176V60.1033H305.835V43.0823H376.593L363.76 47.538C363.76 42.4882 362.988 38.0918 361.443 34.3489C359.898 30.6061 357.581 27.7247 354.492 25.7047C351.462 23.6254 347.69 22.5857 343.174 22.5857C338.659 22.5857 334.827 23.6254 331.678 25.7047C328.589 27.7841 326.213 30.6061 324.549 34.1707C322.886 37.7353 322.054 41.8346 322.054 46.4687V58.4993C322.054 63.9056 323.004 68.5396 324.906 72.4013C326.807 76.2035 329.451 79.1444 332.837 81.2237C336.283 83.2437 340.233 84.2536 344.689 84.2536C347.779 84.2536 350.571 83.8081 353.066 82.9169C355.561 82.0258 357.7 80.7187 359.482 78.9958C361.324 77.2729 362.691 75.1936 363.582 72.7577L389.069 74.4509C387.821 80.5702 385.207 85.9171 381.227 90.4917C377.306 95.0069 372.226 98.5418 365.988 101.096C359.75 103.592 352.531 104.839 344.333 104.839ZM449.667 82.5605C454.183 82.5605 457.985 81.3128 461.074 78.8176C464.163 76.3224 466.51 72.8766 468.114 68.4802C469.718 64.0244 470.52 58.9151 470.52 53.1523C470.52 47.3895 469.718 42.3396 468.114 38.0027C466.57 33.6063 464.253 30.1605 461.163 27.6653C458.074 25.17 454.242 23.9224 449.667 23.9224C445.212 23.9224 441.409 25.1403 438.261 27.5762C435.171 29.9526 432.795 33.339 431.131 37.7353C429.527 42.0723 428.725 47.2113 428.725 53.1523C428.725 59.034 429.557 64.1729 431.22 68.5693C432.884 72.9657 435.26 76.4115 438.35 78.9067C441.498 81.3425 445.271 82.5605 449.667 82.5605ZM580.043 42.102V63.668H528.089V42.102H580.043ZM537.179 3.24762V102.879H510.89V3.24762H537.179ZM597.332 3.24762V102.879H571.221V3.24762H597.332ZM658.911 104.839C648.692 104.839 639.87 102.76 632.443 98.6012C625.017 94.4425 619.314 88.5312 615.333 80.8673C611.412 73.1439 609.452 64.0244 609.452 53.5088C609.452 43.2902 611.412 34.3192 615.333 26.5959C619.314 18.8725 624.898 12.8424 632.087 8.50543C639.335 4.16848 647.831 2 657.574 2C664.169 2 670.318 3.06939 676.021 5.20816C681.724 7.28752 686.715 10.4363 690.992 14.6544C695.27 18.8131 698.597 24.0709 700.973 30.4279C703.35 36.7254 704.538 44.1219 704.538 52.6176V60.1033H620.413V43.0823H691.171L678.338 47.538C678.338 42.4882 677.566 38.0918 676.021 34.3489C674.476 30.6061 672.159 27.7247 669.07 25.7047C666.04 23.6254 662.267 22.5857 657.752 22.5857C653.237 22.5857 649.405 23.6254 646.256 25.7047C643.167 27.7841 640.791 30.6061 639.127 34.1707C637.464 37.7353 636.632 41.8346 636.632 46.4687V58.4993C636.632 63.9056 637.582 68.5396 639.484 72.4013C641.385 76.2035 644.028 79.1444 647.415 81.2237C650.861 83.2437 654.811 84.2536 659.267 84.2536C662.357 84.2536 665.149 83.8081 667.644 82.9169C670.139 82.0258 672.278 80.7187 674.06 78.9958C675.902 77.2729 677.268 75.1936 678.16 72.7577L703.647 74.4509C702.399 80.5702 699.785 85.9171 695.805 90.4917C691.883 95.0069 686.804 98.5418 680.566 101.096C674.328 103.592 667.109 104.839 658.911 104.839Z"/>
</mask>
<path d="M29.3985 66.4305H28.7345V68.9477L29.976 66.758L29.3985 66.4305ZM65.2229 3.24762V2.58365H64.8361L64.6453 2.92013L65.2229 3.24762ZM92.4923 3.24762H93.1562V2.58365H92.4923V3.24762ZM66.2032 39.6068H66.8671V37.081L65.625 39.2802L66.2032 39.6068ZM3.10938 3.24762V2.58365H2.44541V3.24762H3.10938ZM29.3985 3.24762H30.0624V2.58365H29.3985V3.24762ZM201.391 24.9918H200.728V25.6558H201.391V24.9918ZM201.391 3.24762V2.58365H200.728V3.24762H201.391ZM291.487 3.24762H292.151V2.58365H291.487V3.24762ZM291.487 24.9918V25.6558H292.151V24.9918H291.487ZM259.495 24.9918V24.3278H258.831V24.9918H259.495ZM233.206 24.9918H233.87V24.3278H233.206V24.9918ZM401.812 3.24762V2.58365H401.148V3.24762H401.812ZM428.903 3.24762H429.567V2.58365H428.903V3.24762ZM428.903 20.0905H428.239V20.7544H428.903V20.0905ZM430.151 20.0905V20.7544H430.578L430.755 20.3662L430.151 20.0905ZM444.588 4.8517L444.881 5.4475L444.888 5.44368L444.588 4.8517ZM478.541 7.70339L478.188 8.26585L478.194 8.26981L478.541 7.70339ZM493.423 81.3128L494.024 81.5947L494.025 81.5928L493.423 81.3128ZM478.897 98.6012L478.539 98.0422L478.537 98.0438L478.897 98.6012ZM435.587 95.1257L435.081 95.5551L435.086 95.5611L435.091 95.5669L435.587 95.1257ZM430.151 86.9271L430.75 86.6406L430.57 86.2631H430.151V86.9271ZM429.349 86.9271V86.2631H428.685V86.9271H429.349ZM708.637 24.9918H707.973V25.6558H708.637V24.9918ZM708.637 3.24762V2.58365H707.973V3.24762H708.637ZM798.733 3.24762H799.397V2.58365H798.733V3.24762ZM798.733 24.9918V25.6558H799.397V24.9918H798.733ZM766.74 24.9918V24.3278H766.077V24.9918H766.74ZM740.451 24.9918H741.115V24.3278H740.451V24.9918ZM29.976 66.758L65.8005 3.57511L64.6453 2.92013L28.8209 66.1031L29.976 66.758ZM65.2229 3.91159H92.4923V2.58365H65.2229V3.91159ZM91.8283 3.24762V102.879H93.1562V3.24762H91.8283ZM65.625 39.2802L29.8897 102.552L31.046 103.205L66.7813 39.9333L65.625 39.2802ZM3.10938 3.91159H29.3985V2.58365H3.10938V3.91159ZM28.7345 3.24762V66.4305H30.0624V3.24762H28.7345ZM202.055 24.9918V3.24762H200.728V24.9918H202.055ZM201.391 3.91159H291.487V2.58365H201.391V3.91159ZM290.823 3.24762V24.9918H292.151V3.24762H290.823ZM291.487 24.3278H259.495V25.6558H291.487V24.3278ZM258.831 24.9918V102.879H260.159V24.9918H258.831ZM233.206 24.3278H201.391V25.6558H233.206V24.3278ZM401.812 3.91159H428.903V2.58365H401.812V3.91159ZM428.239 3.24762V20.0905H429.567V3.24762H428.239ZM428.903 20.7544H430.151V19.4265H428.903V20.7544ZM430.755 20.3662C431.974 17.6963 433.722 14.9829 436.009 12.2267L434.987 11.3787C432.64 14.2071 430.823 17.0188 429.547 19.8147L430.755 20.3662ZM436.009 12.2267C438.258 9.51636 441.209 7.25404 444.881 5.44745L444.295 4.25595C440.48 6.1328 437.372 8.50448 434.987 11.3787L436.009 12.2267ZM444.888 5.44368C448.513 3.60241 453.037 2.66397 458.49 2.66397V1.33603C452.892 1.33603 448.148 2.29872 444.287 4.25972L444.888 5.44368ZM458.49 2.66397C465.675 2.66397 472.236 4.53139 478.188 8.26582L478.894 7.14097C472.726 3.27087 465.919 1.33603 458.49 1.33603V2.66397ZM478.194 8.26981C484.187 11.9352 489.009 17.5031 492.647 25.0139L493.842 24.435C490.114 16.7367 485.133 10.9573 478.887 7.13698L478.194 8.26981ZM492.647 25.0139C496.275 32.5024 498.106 41.9016 498.106 53.2414H499.434C499.434 41.7677 497.582 32.1556 493.842 24.435L492.647 25.0139ZM498.106 53.2414C498.106 64.2235 496.334 73.4792 492.821 81.0328L494.025 81.5928C497.641 73.8186 499.434 64.36 499.434 53.2414H498.106ZM492.822 81.031C489.302 88.5401 484.537 94.1987 478.539 98.0422L479.255 99.1603C485.496 95.1616 490.415 89.2946 494.024 81.5946L492.822 81.031ZM478.537 98.0438C472.59 101.892 465.884 103.819 458.401 103.819V105.147C466.126 105.147 473.085 103.153 479.258 99.1587L478.537 98.0438ZM458.401 103.819C453.125 103.819 448.683 102.939 445.051 101.21L444.481 102.409C448.335 104.244 452.983 105.147 458.401 105.147V103.819ZM445.051 101.21C441.376 99.4598 438.392 97.2821 436.083 94.6846L435.091 95.5669C437.535 98.3164 440.67 100.594 444.481 102.409L445.051 101.21ZM436.094 94.6964C433.807 91.9993 432.029 89.3138 430.75 86.6406L429.552 87.2136C430.888 90.0062 432.733 92.7865 435.081 95.5551L436.094 94.6964ZM430.151 86.2631H429.349V87.5911H430.151V86.2631ZM428.685 86.9271V140.129H430.013V86.9271H428.685ZM709.301 24.9918V3.24762H707.973V24.9918H709.301ZM708.637 3.91159H798.733V2.58365H708.637V3.91159ZM798.069 3.24762V24.9918H799.397V3.24762H798.069ZM798.733 24.3278H766.74V25.6558H798.733V24.3278ZM766.077 24.9918V102.879H767.404V24.9918H766.077ZM740.451 24.3278H708.637V25.6558H740.451V24.3278ZM2.44541 3.24762V102.879H3.77334V3.24762H2.44541ZM65.5392 39.6068V102.879H66.8671V39.6068H65.5392ZM232.542 24.9918V102.879H233.87V24.9918H232.542ZM401.148 3.24762V140.129H402.476V3.24762H401.148ZM739.787 24.9918V102.879H741.115V24.9918H739.787ZM177.954 42.102H179.282V40.7741H177.954V42.102ZM177.954 63.668V64.9959H179.282V63.668H177.954ZM126 63.668H124.672V64.9959H126V63.668ZM126 42.102V40.7741H124.672V42.102H126ZM135.09 3.24762H136.417V1.91968H135.09V3.24762ZM135.09 102.879V104.207H136.417V102.879H135.09ZM108.8 102.879H107.472V104.207H108.8V102.879ZM108.8 3.24762V1.91968H107.472V3.24762H108.8ZM195.242 3.24762H196.57V1.91968H195.242V3.24762ZM195.242 102.879V104.207H196.57V102.879H195.242ZM169.132 102.879H167.804V104.207H169.132V102.879ZM169.132 3.24762V1.91968H167.804V3.24762H169.132ZM300.755 80.8673L299.571 81.4684L299.577 81.4793L300.755 80.8673ZM300.755 26.5959L299.575 25.9875L299.571 25.9947L300.755 26.5959ZM317.509 8.50543L316.827 7.36591L316.823 7.3684L317.509 8.50543ZM361.443 5.20816L360.977 6.4516L360.988 6.45576L361.443 5.20816ZM376.414 14.6544L375.482 15.6L375.489 15.6065L376.414 14.6544ZM386.395 30.4279L385.151 30.8929L385.153 30.8967L386.395 30.4279ZM389.96 60.1033V61.4313H391.288V60.1033H389.96ZM305.835 60.1033H304.507V61.4313H305.835V60.1033ZM305.835 43.0823V41.7543H304.507V43.0823H305.835ZM376.593 43.0823L377.028 44.3367L376.593 41.7543V43.0823ZM363.76 47.538H362.432V49.4048L364.196 48.7925L363.76 47.538ZM354.492 25.7047L353.741 26.7996L353.753 26.808L353.765 26.8162L354.492 25.7047ZM331.678 25.7047L330.947 24.5966L330.937 24.6031L331.678 25.7047ZM324.906 72.4013L323.714 72.9878L323.718 72.9952L324.906 72.4013ZM332.837 81.2237L332.142 82.3553L332.154 82.3625L332.165 82.3693L332.837 81.2237ZM359.482 78.9958L358.575 78.0261L358.567 78.0335L358.56 78.0411L359.482 78.9958ZM363.582 72.7577L363.67 71.4327L362.677 71.3668L362.335 72.3015L363.582 72.7577ZM389.069 74.4509L390.37 74.7162L390.674 73.2267L389.157 73.1259L389.069 74.4509ZM381.227 90.4917L380.225 89.62L380.224 89.621L381.227 90.4917ZM365.988 101.096L366.481 102.329L366.491 102.325L365.988 101.096ZM468.114 68.4802L469.362 68.9354L469.364 68.93L468.114 68.4802ZM468.114 38.0027L466.861 38.4429L466.865 38.4531L466.869 38.4633L468.114 38.0027ZM438.261 27.5762L439.07 28.6287L439.073 28.6265L438.261 27.5762ZM431.131 37.7353L429.889 37.2654L429.886 37.2747L431.131 37.7353ZM438.35 78.9067L437.515 79.9398L437.526 79.9485L437.537 79.9571L438.35 78.9067ZM580.043 42.102H581.371V40.7741H580.043V42.102ZM580.043 63.668V64.9959H581.371V63.668H580.043ZM528.089 63.668H526.761V64.9959H528.089V63.668ZM528.089 42.102V40.7741H526.761V42.102H528.089ZM537.179 3.24762H538.507V1.91968H537.179V3.24762ZM537.179 102.879V104.207H538.507V102.879H537.179ZM510.89 102.879H509.562V104.207H510.89V102.879ZM510.89 3.24762V1.91968H509.562V3.24762H510.89ZM597.332 3.24762H598.66V1.91968H597.332V3.24762ZM597.332 102.879V104.207H598.66V102.879H597.332ZM571.221 102.879H569.893V104.207H571.221V102.879ZM571.221 3.24762V1.91968H569.893V3.24762H571.221ZM615.333 80.8673L614.149 81.4684L614.155 81.4793L615.333 80.8673ZM615.333 26.5959L614.153 25.9875L614.149 25.9947L615.333 26.5959ZM632.087 8.50543L631.405 7.36591L631.401 7.3684L632.087 8.50543ZM676.021 5.20816L675.555 6.4516L675.566 6.45576L676.021 5.20816ZM690.992 14.6544L690.06 15.6L690.067 15.6065L690.992 14.6544ZM700.973 30.4279L699.729 30.8929L699.731 30.8967L700.973 30.4279ZM704.538 60.1033V61.4313H705.866V60.1033H704.538ZM620.413 60.1033H619.085V61.4313H620.413V60.1033ZM620.413 43.0823V41.7543H619.085V43.0823H620.413ZM691.171 43.0823L691.606 44.3367L691.171 41.7543V43.0823ZM678.338 47.538H677.01V49.4048L678.773 48.7925L678.338 47.538ZM669.07 25.7047L668.318 26.7996L668.331 26.808L668.343 26.8162L669.07 25.7047ZM646.256 25.7047L645.524 24.5966L645.515 24.6031L646.256 25.7047ZM639.484 72.4013L638.292 72.9878L638.296 72.9952L639.484 72.4013ZM647.415 81.2237L646.72 82.3553L646.732 82.3625L646.743 82.3693L647.415 81.2237ZM674.06 78.9958L673.153 78.0261L673.145 78.0335L673.137 78.0411L674.06 78.9958ZM678.16 72.7577L678.248 71.4327L677.255 71.3668L676.913 72.3015L678.16 72.7577ZM703.647 74.4509L704.948 74.7162L705.252 73.2267L703.735 73.1259L703.647 74.4509ZM695.805 90.4917L694.803 89.62L694.802 89.621L695.805 90.4917ZM680.566 101.096L681.059 102.329L681.069 102.325L680.566 101.096ZM176.626 42.102V63.668H179.282V42.102H176.626ZM177.954 62.34H126V64.9959H177.954V62.34ZM127.328 63.668V42.102H124.672V63.668H127.328ZM126 43.4299H177.954V40.7741H126V43.4299ZM133.762 3.24762V102.879H136.417V3.24762H133.762ZM135.09 101.551H108.8V104.207H135.09V101.551ZM110.128 102.879V3.24762H107.472V102.879H110.128ZM108.8 4.57555H135.09V1.91968H108.8V4.57555ZM193.915 3.24762V102.879H196.57V3.24762H193.915ZM195.242 101.551H169.132V104.207H195.242V101.551ZM170.46 102.879V3.24762H167.804V102.879H170.46ZM169.132 4.57555H195.242V1.91968H169.132V4.57555ZM344.333 103.511C334.296 103.511 325.706 101.47 318.514 97.4426L317.217 99.7599C324.877 104.05 333.932 106.167 344.333 106.167V103.511ZM318.514 97.4426C311.318 93.4125 305.797 87.6927 301.934 80.2552L299.577 81.4793C303.675 89.3696 309.561 95.4726 317.217 99.7599L318.514 97.4426ZM301.939 80.2661C298.131 72.7648 296.202 63.8597 296.202 53.5088H293.546C293.546 64.1892 295.537 73.523 299.571 81.4684L301.939 80.2661ZM296.202 53.5088C296.202 43.4617 298.128 34.7034 301.939 27.197L299.571 25.9947C295.54 33.9351 293.546 43.1187 293.546 53.5088H296.202ZM301.936 27.2042C305.808 19.6915 311.225 13.8478 318.195 9.64247L316.823 7.3684C309.416 11.837 303.664 18.0536 299.575 25.9875L301.936 27.2042ZM318.191 9.64495C325.203 5.44921 333.455 3.32794 342.996 3.32794V0.672065C333.05 0.672065 324.311 2.88774 316.827 7.36592L318.191 9.64495ZM342.996 3.32794C349.445 3.32794 355.434 4.37314 360.977 6.45154L361.909 3.96478C356.045 1.76564 349.737 0.672065 342.996 0.672065V3.32794ZM360.988 6.45576C366.514 8.47057 371.342 11.517 375.482 15.5999L377.347 13.7089C372.932 9.35551 367.778 6.10447 361.898 3.96055L360.988 6.45576ZM375.489 15.6065C379.607 19.6107 382.834 24.6945 385.151 30.8929L387.639 29.9629C385.204 23.4474 381.777 18.0156 377.34 13.7023L375.489 15.6065ZM385.153 30.8967C387.46 37.0108 388.632 44.2419 388.632 52.6176H391.288C391.288 44.002 390.083 36.4399 387.638 29.959L385.153 30.8967ZM388.632 52.6176V60.1033H391.288V52.6176H388.632ZM389.96 58.7754H305.835V61.4313H389.96V58.7754ZM307.163 60.1033V43.0823H304.507V60.1033H307.163ZM305.835 44.4102H376.593V41.7543H305.835V44.4102ZM376.157 41.8278L363.324 46.2836L364.196 48.7925L377.028 44.3367L376.157 41.8278ZM365.088 47.538C365.088 42.3559 364.296 37.7802 362.671 33.8424L360.215 34.8555C361.68 38.4033 362.432 42.6205 362.432 47.538H365.088ZM362.671 33.8424C361.034 29.8771 358.554 26.7739 355.219 24.5933L353.765 26.8162C356.609 28.6754 358.763 31.3351 360.215 34.8555L362.671 33.8424ZM355.243 24.6098C351.946 22.347 347.896 21.2578 343.174 21.2578V23.9136C347.483 23.9136 350.978 24.9037 353.741 26.7996L355.243 24.6098ZM343.174 21.2578C338.451 21.2578 334.352 22.3477 330.947 24.5966L332.41 26.8128C335.302 24.903 338.867 23.9136 343.174 23.9136V21.2578ZM330.937 24.6031C327.636 26.8249 325.105 29.8387 323.346 33.6091L325.753 34.7323C327.32 31.3735 329.542 28.7433 332.42 26.8064L330.937 24.6031ZM323.346 33.6091C321.587 37.3782 320.726 41.6748 320.726 46.4687H323.382C323.382 41.9945 324.184 38.0925 325.753 34.7323L323.346 33.6091ZM320.726 46.4687V58.4993H323.382V46.4687H320.726ZM320.726 58.4993C320.726 64.0582 321.703 68.903 323.714 72.9878L326.097 71.8148C324.306 68.1762 323.382 63.753 323.382 58.4993H320.726ZM323.718 72.9952C325.722 77.003 328.53 80.1371 332.142 82.3553L333.532 80.0921C330.371 78.1516 327.892 75.404 326.093 71.8074L323.718 72.9952ZM332.165 82.3693C335.838 84.522 340.025 85.5816 344.689 85.5816V82.9257C340.442 82.9257 336.728 81.9653 333.508 80.0781L332.165 82.3693ZM344.689 85.5816C347.906 85.5816 350.853 85.1176 353.513 84.1675L352.62 81.6663C350.289 82.4986 347.651 82.9257 344.689 82.9257V85.5816ZM353.513 84.1675C356.174 83.2172 358.478 81.8138 360.405 79.9506L358.56 78.0411C356.922 79.6237 354.949 80.8343 352.62 81.6663L353.513 84.1675ZM360.39 79.9656C362.388 78.0964 363.868 75.8395 364.829 73.214L362.335 72.3015C361.513 74.5476 360.261 76.4495 358.575 78.0261L360.39 79.9656ZM363.494 74.0828L388.981 75.7759L389.157 73.1259L363.67 71.4327L363.494 74.0828ZM387.768 74.1856C386.564 80.0873 384.05 85.2237 380.225 89.6201L382.228 91.3634C386.364 86.6106 389.078 81.0531 390.37 74.7162L387.768 74.1856ZM380.224 89.621C376.456 93.9605 371.555 97.3816 365.485 99.8676L366.491 102.325C372.897 99.7021 378.156 96.0534 382.229 91.3624L380.224 89.621ZM365.495 99.8635C359.444 102.284 352.399 103.511 344.333 103.511V106.167C352.664 106.167 360.056 104.9 366.481 102.329L365.495 99.8635ZM449.667 83.8884C454.442 83.8884 458.551 82.5626 461.909 79.8507L460.24 77.7845C457.419 80.0631 453.923 81.2325 449.667 81.2325V83.8884ZM461.909 79.8507C465.217 77.1787 467.69 73.5174 469.362 68.9354L466.867 68.025C465.33 72.2357 463.11 75.466 460.24 77.7845L461.909 79.8507ZM469.364 68.93C471.03 64.3025 471.848 59.0363 471.848 53.1523H469.192C469.192 58.794 468.407 63.7463 466.865 68.0304L469.364 68.93ZM471.848 53.1523C471.848 47.2695 471.03 42.0577 469.36 37.542L466.869 38.4633C468.407 42.6215 469.192 47.5095 469.192 53.1523H471.848ZM469.367 37.5625C467.755 32.9744 465.31 29.3076 461.998 26.6322L460.329 28.6983C463.195 31.0135 465.384 34.2382 466.861 38.4429L469.367 37.5625ZM461.998 26.6322C458.637 23.9178 454.497 22.5945 449.667 22.5945V25.2504C453.987 25.2504 457.511 26.4223 460.329 28.6983L461.998 26.6322ZM449.667 22.5945C444.954 22.5945 440.857 23.8887 437.448 26.5258L439.073 28.6265C441.962 26.392 445.469 25.2504 449.667 25.2504V22.5945ZM437.451 26.5236C434.129 29.0787 431.622 32.6862 429.889 37.2654L432.373 38.2053C433.968 33.9917 436.213 30.8265 439.07 28.6287L437.451 26.5236ZM429.886 37.2747C428.214 41.7944 427.397 47.0967 427.397 53.1523H430.053C430.053 47.3259 430.84 42.3502 432.377 38.196L429.886 37.2747ZM427.397 53.1523C427.397 59.1557 428.246 64.4603 429.978 69.0393L432.462 68.0994C430.868 63.8856 430.053 58.9122 430.053 53.1523H427.397ZM429.978 69.0393C431.71 73.6154 434.211 77.2712 437.515 79.9398L439.184 77.8737C436.309 75.5518 434.058 72.3159 432.462 68.0994L429.978 69.0393ZM437.537 79.9571C440.943 82.5918 445.009 83.8884 449.667 83.8884V81.2325C445.533 81.2325 442.054 80.0933 439.162 77.8564L437.537 79.9571ZM578.716 42.102V63.668H581.371V42.102H578.716ZM580.043 62.34H528.089V64.9959H580.043V62.34ZM529.417 63.668V42.102H526.761V63.668H529.417ZM528.089 43.4299H580.043V40.7741H528.089V43.4299ZM535.851 3.24762V102.879H538.507V3.24762H535.851ZM537.179 101.551H510.89V104.207H537.179V101.551ZM512.218 102.879V3.24762H509.562V102.879H512.218ZM510.89 4.57555H537.179V1.91968H510.89V4.57555ZM596.004 3.24762V102.879H598.66V3.24762H596.004ZM597.332 101.551H571.221V104.207H597.332V101.551ZM572.549 102.879V3.24762H569.893V102.879H572.549ZM571.221 4.57555H597.332V1.91968H571.221V4.57555ZM658.911 103.511C648.874 103.511 640.284 101.47 633.092 97.4426L631.795 99.7599C639.455 104.05 648.51 106.167 658.911 106.167V103.511ZM633.092 97.4426C625.896 93.4125 620.375 87.6927 616.512 80.2552L614.155 81.4793C618.253 89.3697 624.139 95.4726 631.795 99.7599L633.092 97.4426ZM616.517 80.2661C612.709 72.7648 610.78 63.8597 610.78 53.5088H608.124C608.124 64.1892 610.115 73.523 614.149 81.4684L616.517 80.2661ZM610.78 53.5088C610.78 43.4617 612.706 34.7034 616.517 27.197L614.149 25.9947C610.118 33.9351 608.124 43.1187 608.124 53.5088H610.78ZM616.514 27.2042C620.386 19.6915 625.802 13.8478 632.773 9.64247L631.401 7.3684C623.994 11.837 618.242 18.0536 614.153 25.9875L616.514 27.2042ZM632.769 9.64495C639.781 5.44921 648.033 3.32794 657.574 3.32794V0.672065C647.628 0.672065 638.889 2.88774 631.405 7.36592L632.769 9.64495ZM657.574 3.32794C664.023 3.32794 670.012 4.37314 675.555 6.45154L676.487 3.96478C670.623 1.76564 664.315 0.672065 657.574 0.672065V3.32794ZM675.566 6.45576C681.092 8.47057 685.919 11.517 690.06 15.5999L691.925 13.7089C687.51 9.35551 682.356 6.10447 676.476 3.96055L675.566 6.45576ZM690.067 15.6065C694.185 19.6107 697.412 24.6945 699.729 30.8929L702.217 29.9629C699.781 23.4474 696.354 18.0156 691.918 13.7023L690.067 15.6065ZM699.731 30.8967C702.038 37.0108 703.21 44.2419 703.21 52.6176H705.866C705.866 44.002 704.661 36.4399 702.216 29.959L699.731 30.8967ZM703.21 52.6176V60.1033H705.866V52.6176H703.21ZM704.538 58.7754H620.413V61.4313H704.538V58.7754ZM621.741 60.1033V43.0823H619.085V60.1033H621.741ZM620.413 44.4102H691.171V41.7543H620.413V44.4102ZM690.735 41.8278L677.902 46.2836L678.773 48.7925L691.606 44.3367L690.735 41.8278ZM679.666 47.538C679.666 42.3559 678.874 37.7802 677.248 33.8424L674.793 34.8555C676.258 38.4034 677.01 42.6205 677.01 47.538H679.666ZM677.248 33.8424C675.612 29.8771 673.132 26.774 669.797 24.5933L668.343 26.8162C671.187 28.6754 673.34 31.3351 674.793 34.8555L677.248 33.8424ZM669.821 24.6098C666.524 22.347 662.474 21.2578 657.752 21.2578V23.9136C662.061 23.9136 665.556 24.9037 668.318 26.7996L669.821 24.6098ZM657.752 21.2578C653.029 21.2578 648.93 22.3477 645.525 24.5966L646.988 26.8128C649.88 24.903 653.445 23.9136 657.752 23.9136V21.2578ZM645.515 24.6031C642.214 26.8249 639.683 29.8387 637.924 33.6091L640.33 34.7323C641.898 31.3735 644.12 28.7433 646.998 26.8064L645.515 24.6031ZM637.924 33.6091C636.165 37.3782 635.304 41.6748 635.304 46.4687H637.96C637.96 41.9945 638.762 38.0925 640.33 34.7323L637.924 33.6091ZM635.304 46.4687V58.4993H637.96V46.4687H635.304ZM635.304 58.4993C635.304 64.0582 636.281 68.903 638.292 72.9878L640.675 71.8148C638.884 68.1762 637.96 63.753 637.96 58.4993H635.304ZM638.296 72.9952C640.3 77.003 643.107 80.1371 646.72 82.3553L648.11 80.0921C644.949 78.1516 642.47 75.4041 640.671 71.8074L638.296 72.9952ZM646.743 82.3693C650.416 84.522 654.603 85.5816 659.267 85.5816V82.9257C655.02 82.9257 651.306 81.9653 648.086 80.0781L646.743 82.3693ZM659.267 85.5816C662.484 85.5816 665.43 85.1176 668.091 84.1675L667.197 81.6663C664.867 82.4986 662.229 82.9257 659.267 82.9257V85.5816ZM668.091 84.1675C670.751 83.2172 673.056 81.8138 674.983 79.9506L673.137 78.0411C671.5 79.6237 669.527 80.8343 667.197 81.6663L668.091 84.1675ZM674.968 79.9656C676.966 78.0964 678.446 75.8395 679.407 73.214L676.913 72.3015C676.091 74.5476 674.839 76.4495 673.153 78.0261L674.968 79.9656ZM678.072 74.0828L703.559 75.7759L703.735 73.1259L678.248 71.4327L678.072 74.0828ZM702.346 74.1856C701.142 80.0873 698.628 85.2237 694.803 89.6201L696.806 91.3634C700.942 86.6106 703.656 81.0531 704.948 74.7162L702.346 74.1856ZM694.802 89.621C691.033 93.9605 686.133 97.3816 680.063 99.8676L681.069 102.325C687.475 99.7021 692.733 96.0534 696.807 91.3624L694.802 89.621ZM680.073 99.8635C674.022 102.284 666.977 103.511 658.911 103.511V106.167C667.242 106.167 674.634 104.9 681.059 102.329L680.073 99.8635Z" fill="black" mask="url(#path-11-outside-1_935_17091)"/>
</svg>
