<svg width="1553" height="553" viewBox="0 0 1553 553" fill="none" xmlns="http://www.w3.org/2000/svg">
<path d="M23.8112 220.843C69.4793 226.93 90.0586 254.398 144.95 295.974C190.645 330.585 210.956 361.886 244.535 374.886C278.114 387.887 305.458 396.311 344.471 390.226C386.905 383.608 406.429 335.725 441.519 338.502C476.609 341.279 491.383 357.497 524.944 360.859C616.022 369.982 643.289 305.578 672.022 292.982C696.2 279.013 703.922 209.399 751.499 211.559C810.972 214.259 902.362 193.906 1002.48 304.147C1044.26 350.16 1172.31 363.73 1198.48 337.212C1224.65 310.694 1228.43 250.304 1180.35 262.048C1142.25 271.356 1142.89 350.658 1183.23 365.096C1264.2 394.074 1368.74 391.312 1416.89 346.972C1455.41 311.5 1521.09 232.448 1546.02 200.482" stroke="#131313" stroke-width="1.5" stroke-linecap="round"/>
<ellipse cx="508.619" cy="358.309" rx="4.29495" ry="4" transform="rotate(4.52461 508.619 358.309)" fill="#131313"/>
<ellipse cx="225.586" cy="364.548" rx="4.29495" ry="4" transform="rotate(4.52461 225.586 364.548)" fill="#131313"/>
<ellipse cx="932.068" cy="246.914" rx="4.29495" ry="4" transform="rotate(4.52461 932.068 246.914)" fill="#131313"/>
<ellipse cx="1316.48" cy="383.665" rx="4.29495" ry="4" transform="rotate(4.52461 1316.48 383.665)" fill="#131313"/>
<ellipse cx="1520.62" cy="233.309" rx="4.29495" ry="4" transform="rotate(4.52461 1520.62 233.309)" fill="#131313"/>
</svg>
