<svg width="682" height="183" viewBox="0 0 682 183" fill="none" xmlns="http://www.w3.org/2000/svg">
<mask id="path-1-outside-1_171_1370" maskUnits="userSpaceOnUse" x="521.901" y="1" width="157" height="181" fill="black">
<rect fill="white" x="521.901" y="1" width="157" height="181"/>
<path d="M594.511 147.137C601.469 147.137 607.609 145.755 612.931 142.992C618.354 140.127 622.55 136.34 625.518 131.633C628.588 126.823 630.123 121.451 630.123 115.516V97.2491C628.69 98.1701 626.643 99.0399 623.983 99.8586C621.424 100.677 618.559 101.394 615.387 102.008C612.214 102.622 609.042 103.184 605.87 103.696C602.697 104.105 599.832 104.515 597.274 104.924C591.645 105.743 586.733 107.073 582.538 108.915C578.342 110.655 575.067 113.06 572.714 116.13C570.462 119.097 569.337 122.832 569.337 127.335C569.337 133.782 571.69 138.694 576.398 142.071C581.105 145.448 587.143 147.137 594.511 147.137Z"/>
</mask>
<path d="M551.531 174.306L551.059 175.348L551.067 175.352L551.074 175.355L551.531 174.306ZM529.12 104.924L530.122 105.474L530.126 105.467L529.12 104.924ZM588.371 75.9126L588.265 74.7738L588.262 74.774L588.371 75.9126ZM625.518 69.0051L626.152 69.9567L626.16 69.9514L625.518 69.0051ZM623.062 43.524L622.304 44.3811L622.314 44.3896L623.062 43.524ZM583.919 43.3705L584.596 44.2922L584.599 44.2899L583.919 43.3705ZM573.942 57.4926L573.85 58.6326L574.784 58.7074L575.041 57.8067L573.942 57.4926ZM529.887 53.9621L528.769 53.7209L528.494 54.9977L529.796 55.1021L529.887 53.9621ZM543.088 26.946L543.953 27.6942L543.958 27.6884L543.088 26.946ZM568.416 9.29351L568.837 10.3568L568.842 10.3547L568.416 9.29351ZM655.143 16.815L654.489 17.7533L654.497 17.7589L654.506 17.7644L655.143 16.815ZM632.118 152.816H633.262V151.672H632.118V152.816ZM630.89 152.816V151.672H630.189L629.871 152.297L630.89 152.816ZM619.838 167.092L620.587 167.956L620.593 167.951L620.598 167.946L619.838 167.092ZM603.26 176.609L603.637 177.688L603.645 177.686L603.652 177.683L603.26 176.609ZM580.849 178.842C570.137 178.842 560.522 176.973 551.987 173.258L551.074 175.355C559.936 179.212 569.867 181.129 580.849 181.129V178.842ZM552.002 173.264C543.596 169.461 537.015 163.872 532.228 156.492L530.309 157.737C535.346 165.501 542.273 171.374 551.059 175.348L552.002 173.264ZM532.228 156.492C527.463 149.145 525.044 139.96 525.044 128.87H522.757C522.757 140.293 525.25 149.938 530.309 157.737L532.228 156.492ZM525.044 128.87C525.044 119.382 526.761 111.604 530.122 105.474L528.117 104.374C524.52 110.934 522.757 119.12 522.757 128.87H525.044ZM530.126 105.467C533.517 99.184 538.147 94.1069 544.026 90.2212L542.765 88.313C536.568 92.4092 531.681 97.7702 528.113 104.381L530.126 105.467ZM544.026 90.2212C549.951 86.3046 556.692 83.3335 564.259 81.3156L563.669 79.1055C555.887 81.1809 548.915 84.2476 542.765 88.313L544.026 90.2212ZM564.259 81.3156C571.868 79.2866 579.941 77.8643 588.479 77.0511L588.262 74.774C579.609 75.5982 571.411 77.0412 563.669 79.1055L564.259 81.3156ZM588.476 77.0514C598.413 76.1294 606.42 75.206 612.489 74.2802L612.144 72.019C606.138 72.9352 598.181 73.8537 588.265 74.7738L588.476 77.0514ZM612.489 74.2802C618.576 73.3516 623.178 71.9397 626.152 69.9567L624.883 68.0535C622.332 69.7544 618.133 71.1055 612.144 72.019L612.489 74.2802ZM626.16 69.9514C629.352 67.7856 630.959 64.6612 630.959 60.7161H628.672C628.672 63.9342 627.415 66.3358 624.876 68.0587L626.16 69.9514ZM630.959 60.7161V59.9486H628.672V60.7161H630.959ZM630.959 59.9486C630.959 52.6235 628.611 46.8054 623.809 42.6585L622.314 44.3896C626.518 48.02 628.672 53.1516 628.672 59.9486H630.959ZM623.819 42.6671C619.142 38.5341 612.593 36.5474 604.335 36.5474V38.8347C612.245 38.8347 618.181 40.7366 622.304 44.381L623.819 42.6671ZM604.335 36.5474C595.677 36.5474 588.609 38.4773 583.239 42.4512L584.599 44.2899C589.463 40.6911 596.005 38.8347 604.335 38.8347V36.5474ZM583.242 42.4489C578.033 46.2759 574.552 51.1927 572.842 57.1784L575.041 57.8067C576.606 52.3311 579.777 47.8332 584.596 44.2922L583.242 42.4489ZM574.033 56.3525L529.979 52.822L529.796 55.1021L573.85 58.6326L574.033 56.3525ZM531.005 54.2032C533.219 43.9398 537.538 35.1121 543.953 27.6942L542.223 26.1979C535.54 33.9253 531.058 43.1082 528.769 53.7209L531.005 54.2032ZM543.958 27.6884C550.374 20.1695 558.657 14.3886 568.837 10.3568L567.995 8.23019C557.503 12.3851 548.901 18.3726 542.218 26.2036L543.958 27.6884ZM568.842 10.3547C579.119 6.22401 591.044 4.14367 604.642 4.14367V1.85633C590.814 1.85633 578.589 3.97166 567.989 8.23235L568.842 10.3547ZM604.642 4.14367C614.068 4.14367 623.079 5.25847 631.678 7.48419L632.251 5.26981C623.454 2.99286 614.25 1.85633 604.642 1.85633V4.14367ZM631.678 7.48419C640.257 9.7046 647.857 13.1304 654.489 17.7533L655.797 15.8767C648.922 11.0849 641.069 7.55208 632.251 5.26981L631.678 7.48419ZM654.506 17.7644C661.206 22.2647 666.504 28.1114 670.409 35.3192L672.42 34.2298C668.342 26.7016 662.793 20.5753 655.781 15.8656L654.506 17.7644ZM670.409 35.3192C674.292 42.4884 676.257 51.0428 676.257 61.0231H678.544C678.544 50.7413 676.519 41.7967 672.42 34.2298L670.409 35.3192ZM633.262 176.762V152.816H630.975V176.762H633.262ZM632.118 151.672H630.89V153.96H632.118V151.672ZM629.871 152.297C627.174 157.592 623.578 162.237 619.078 166.237L620.598 167.946C625.308 163.76 629.081 158.888 631.909 153.335L629.871 152.297ZM619.089 166.227C614.602 170.116 609.201 173.222 602.868 175.534L603.652 177.683C610.214 175.288 615.865 172.049 620.587 167.956L619.089 166.227ZM602.883 175.529C596.583 177.729 589.245 178.842 580.849 178.842V181.129C589.441 181.129 597.044 179.991 603.637 177.688L602.883 175.529ZM676.257 61.0231V176.609H678.544V61.0231H676.257ZM612.931 142.992L613.985 145.022L613.992 145.018L613.999 145.015L612.931 142.992ZM625.518 131.633L623.59 130.402L623.583 130.413L625.518 131.633ZM630.123 97.2491H632.41V93.0594L628.886 95.325L630.123 97.2491ZM623.983 99.8586L623.31 97.6724L623.298 97.6762L623.286 97.6801L623.983 99.8586ZM605.87 103.696L606.162 105.965L606.198 105.96L606.234 105.954L605.87 103.696ZM597.274 104.924L597.603 107.188L597.619 107.185L597.635 107.183L597.274 104.924ZM582.538 108.915L583.414 111.028L583.436 111.019L583.457 111.009L582.538 108.915ZM572.714 116.13L570.898 114.738L570.891 114.747L572.714 116.13ZM594.511 149.424C601.777 149.424 608.289 147.979 613.985 145.022L611.877 140.962C606.93 143.531 601.162 144.849 594.511 144.849V149.424ZM613.999 145.015C619.74 141.982 624.25 137.933 627.453 132.853L623.583 130.413C620.85 134.748 616.969 138.272 611.862 140.97L613.999 145.015ZM627.446 132.864C630.76 127.671 632.41 121.869 632.41 115.516H627.835C627.835 121.033 626.415 125.976 623.59 130.402L627.446 132.864ZM632.41 115.516V97.2491H627.835V115.516H632.41ZM628.886 95.325C627.704 96.085 625.881 96.8815 623.31 97.6724L624.655 102.045C627.406 101.198 629.676 100.255 631.36 99.1732L628.886 95.325ZM623.286 97.6801C620.829 98.4663 618.053 99.1618 614.952 99.7619L615.821 104.253C619.065 103.625 622.02 102.888 624.68 102.037L623.286 97.6801ZM614.952 99.7619C611.803 100.371 608.654 100.93 605.505 101.438L606.234 105.954C609.43 105.439 612.626 104.872 615.821 104.253L614.952 99.7619ZM605.577 101.428C602.387 101.839 599.498 102.252 596.912 102.665L597.635 107.183C600.166 106.778 603.008 106.372 606.162 105.965L605.577 101.428ZM596.945 102.661C591.159 103.502 586.041 104.879 581.618 106.821L583.457 111.009C587.426 109.267 592.131 107.984 597.603 107.188L596.945 102.661ZM581.662 106.802C577.16 108.669 573.536 111.298 570.898 114.738L574.529 117.521C576.599 114.822 579.524 112.641 583.414 111.028L581.662 106.802ZM570.891 114.747C568.279 118.19 567.049 122.44 567.049 127.335H571.624C571.624 123.225 572.645 120.004 574.536 117.512L570.891 114.747ZM567.049 127.335C567.049 134.423 569.684 140.07 575.064 143.93L577.731 140.213C573.697 137.318 571.624 133.142 571.624 127.335H567.049ZM575.064 143.93C580.254 147.653 586.795 149.424 594.511 149.424V144.849C587.491 144.849 581.956 143.243 577.731 140.213L575.064 143.93Z" fill="black" mask="url(#path-1-outside-1_171_1370)"/>
<circle cx="632.023" cy="175.809" r="4.02351" fill="black"/>
<circle cx="677.023" cy="175.809" r="4.02351" fill="black"/>
<mask id="path-5-outside-2_171_1370" maskUnits="userSpaceOnUse" x="347.599" y="0" width="167" height="183" fill="black">
<rect fill="white" x="347.599" width="167" height="183"/>
<path d="M389.741 168.934C402.328 176.404 417.371 180.139 434.87 180.139C450.22 180.139 463.473 177.376 474.627 171.85C485.781 166.222 494.531 158.444 500.876 148.518C507.22 138.489 510.751 126.926 511.467 113.827H466.645C465.315 122.935 461.835 130.098 456.207 135.317C450.579 140.434 443.671 142.992 435.484 142.992C428.116 142.992 421.669 140.945 416.143 136.852C410.72 132.759 406.473 126.823 403.403 119.046C400.435 111.269 398.951 101.956 398.951 91.1091C398.951 80.2617 400.435 71.0517 403.403 63.4791C406.473 55.8041 410.72 50.0222 416.143 46.1335C421.669 42.1425 428.116 40.147 435.484 40.147C441.317 40.147 446.434 41.3239 450.834 43.6775C455.235 46.0312 458.765 49.357 461.426 53.6551C464.087 57.9531 465.826 62.9674 466.645 68.6981H511.467C510.853 55.3947 507.271 43.831 500.722 34.007C494.173 24.183 485.27 16.5592 474.013 11.1355C462.859 5.71184 449.811 3 434.87 3C417.474 3 402.482 6.73517 389.895 14.2055C377.308 21.6759 367.586 32.0627 360.73 45.366C353.976 58.6694 350.599 74.1217 350.599 91.7231C350.599 109.12 353.976 124.47 360.73 137.773C367.484 150.974 377.154 161.361 389.741 168.934Z"/>
</mask>
<path d="M389.741 168.934C402.328 176.404 417.371 180.139 434.87 180.139C450.22 180.139 463.473 177.376 474.627 171.85C485.781 166.222 494.531 158.444 500.876 148.518C507.22 138.489 510.751 126.926 511.467 113.827H466.645C465.315 122.935 461.835 130.098 456.207 135.317C450.579 140.434 443.671 142.992 435.484 142.992C428.116 142.992 421.669 140.945 416.143 136.852C410.72 132.759 406.473 126.823 403.403 119.046C400.435 111.269 398.951 101.956 398.951 91.1091C398.951 80.2617 400.435 71.0517 403.403 63.4791C406.473 55.8041 410.72 50.0222 416.143 46.1335C421.669 42.1425 428.116 40.147 435.484 40.147C441.317 40.147 446.434 41.3239 450.834 43.6775C455.235 46.0312 458.765 49.357 461.426 53.6551C464.087 57.9531 465.826 62.9674 466.645 68.6981H511.467C510.853 55.3947 507.271 43.831 500.722 34.007C494.173 24.183 485.27 16.5592 474.013 11.1355C462.859 5.71184 449.811 3 434.87 3C417.474 3 402.482 6.73517 389.895 14.2055C377.308 21.6759 367.586 32.0627 360.73 45.366C353.976 58.6694 350.599 74.1217 350.599 91.7231C350.599 109.12 353.976 124.47 360.73 137.773C367.484 150.974 377.154 161.361 389.741 168.934Z" stroke="black" stroke-width="4.5747" mask="url(#path-5-outside-2_171_1370)"/>
<mask id="path-6-outside-3_171_1370" maskUnits="userSpaceOnUse" x="173.223" y="0" width="167" height="183" fill="black">
<rect fill="white" x="173.223" width="167" height="183"/>
<path d="M215.365 168.934C227.952 176.404 242.995 180.139 260.494 180.139C275.844 180.139 289.096 177.376 300.251 171.85C311.405 166.222 320.155 158.444 326.499 148.518C332.844 138.489 336.374 126.926 337.091 113.827H292.269C290.938 122.935 287.459 130.098 281.831 135.317C276.202 140.434 269.295 142.992 261.108 142.992C253.74 142.992 247.293 140.945 241.767 136.852C236.344 132.759 232.097 126.823 229.027 119.046C226.059 111.269 224.575 101.956 224.575 91.1091C224.575 80.2617 226.059 71.0517 229.027 63.4791C232.097 55.8041 236.344 50.0222 241.767 46.1335C247.293 42.1425 253.74 40.147 261.108 40.147C266.941 40.147 272.058 41.3239 276.458 43.6775C280.859 46.0312 284.389 49.357 287.05 53.6551C289.71 57.9531 291.45 62.9674 292.269 68.6981H337.091C336.477 55.3947 332.895 43.831 326.346 34.007C319.796 24.183 310.893 16.5592 299.637 11.1355C288.482 5.71184 275.435 3 260.494 3C243.098 3 228.106 6.73517 215.519 14.2055C202.932 21.6759 193.21 32.0627 186.354 45.366C179.6 58.6694 176.223 74.1217 176.223 91.7231C176.223 109.12 179.6 124.47 186.354 137.773C193.108 150.974 202.778 161.361 215.365 168.934Z"/>
</mask>
<path d="M215.365 168.934C227.952 176.404 242.995 180.139 260.494 180.139C275.844 180.139 289.096 177.376 300.251 171.85C311.405 166.222 320.155 158.444 326.499 148.518C332.844 138.489 336.374 126.926 337.091 113.827H292.269C290.938 122.935 287.459 130.098 281.831 135.317C276.202 140.434 269.295 142.992 261.108 142.992C253.74 142.992 247.293 140.945 241.767 136.852C236.344 132.759 232.097 126.823 229.027 119.046C226.059 111.269 224.575 101.956 224.575 91.1091C224.575 80.2617 226.059 71.0517 229.027 63.4791C232.097 55.8041 236.344 50.0222 241.767 46.1335C247.293 42.1425 253.74 40.147 261.108 40.147C266.941 40.147 272.058 41.3239 276.458 43.6775C280.859 46.0312 284.389 49.357 287.05 53.6551C289.71 57.9531 291.45 62.9674 292.269 68.6981H337.091C336.477 55.3947 332.895 43.831 326.346 34.007C319.796 24.183 310.893 16.5592 299.637 11.1355C288.482 5.71184 275.435 3 260.494 3C243.098 3 228.106 6.73517 215.519 14.2055C202.932 21.6759 193.21 32.0627 186.354 45.366C179.6 58.6694 176.223 74.1217 176.223 91.7231C176.223 109.12 179.6 124.47 186.354 137.773C193.108 150.974 202.778 161.361 215.365 168.934Z" stroke="black" stroke-width="4.5747" mask="url(#path-6-outside-3_171_1370)"/>
<circle cx="109.984" cy="175.809" r="4.02351" fill="black"/>
<circle cx="156.024" cy="175.809" r="4.02351" fill="black"/>
<mask id="path-9-outside-4_171_1370" maskUnits="userSpaceOnUse" x="0" y="1" width="157" height="181" fill="black">
<rect fill="white" y="1" width="157" height="181"/>
<path d="M91.0301 142.992C85.7087 145.755 79.5687 147.137 72.6101 147.137C65.2421 147.137 59.2044 145.448 54.4971 142.071C49.7897 138.694 47.436 133.782 47.436 127.335C47.436 122.832 48.5617 119.097 50.813 116.13C53.1667 113.06 56.4414 110.655 60.6371 108.915C64.8327 107.073 69.7447 105.743 75.3731 104.924C77.9314 104.515 80.7967 104.105 83.9691 103.696C87.1414 103.184 90.3138 102.622 93.4861 102.008C96.6584 101.394 99.5238 100.677 102.082 99.8586C104.743 99.0399 106.789 98.1701 108.222 97.2491V115.516C108.222 121.451 106.687 126.823 103.617 131.633C100.649 136.34 96.4538 140.127 91.0301 142.992Z"/>
</mask>
<path d="M29.63 174.306L29.1586 175.348L29.1661 175.352L29.1736 175.355L29.63 174.306ZM7.21901 104.924L8.22182 105.474L8.22546 105.467L7.21901 104.924ZM66.4701 75.9126L66.3644 74.7738L66.3616 74.774L66.4701 75.9126ZM103.617 69.0051L104.252 69.9567L104.259 69.9514L103.617 69.0051ZM101.161 43.524L100.404 44.3811L100.414 44.3896L101.161 43.524ZM62.0186 43.3705L62.6957 44.2922L62.6989 44.2899L62.0186 43.3705ZM52.041 57.4926L51.9497 58.6326L52.8834 58.7074L53.1407 57.8067L52.041 57.4926ZM7.98651 53.9621L6.86854 53.7209L6.59315 54.9977L7.89515 55.1021L7.98651 53.9621ZM21.1875 26.946L22.0526 27.6942L22.0575 27.6884L21.1875 26.946ZM46.515 9.29351L46.9362 10.3568L46.9416 10.3547L46.515 9.29351ZM110.064 6.377L109.778 7.48419L110.064 6.377ZM133.243 16.815L132.589 17.7533L132.597 17.7589L132.605 17.7644L133.243 16.815ZM149.514 34.7745L148.508 35.3192L149.514 34.7745ZM110.218 152.816H111.361V151.672H110.218V152.816ZM108.99 152.816V151.672H108.289L107.971 152.297L108.99 152.816ZM97.9376 167.092L98.6866 167.956L98.692 167.951L98.6974 167.946L97.9376 167.092ZM81.3596 176.609L81.7366 177.688L81.7442 177.686L81.7518 177.683L81.3596 176.609ZM58.9486 178.842C48.2359 178.842 38.6216 176.973 30.0865 173.258L29.1736 175.355C38.0351 179.212 47.9666 181.129 58.9486 181.129V178.842ZM30.1014 173.264C21.6954 169.461 15.1148 163.872 10.3275 156.492L8.40851 157.737C13.4452 165.501 20.3726 171.374 29.1586 175.348L30.1014 173.264ZM10.3275 156.492C5.56231 149.145 3.14367 139.96 3.14367 128.87H0.856326C0.856326 140.293 3.3497 149.938 8.40851 157.737L10.3275 156.492ZM3.14367 128.87C3.14367 119.382 4.86035 111.604 8.22179 105.474L6.21622 104.374C2.61898 110.934 0.856326 119.12 0.856326 128.87H3.14367ZM8.22546 105.467C11.6164 99.184 16.2467 94.1069 22.1252 90.2212L20.8639 88.313C14.667 92.4093 9.78024 97.7702 6.21255 104.381L8.22546 105.467ZM22.1252 90.2212C28.0502 86.3046 34.791 83.3335 42.3582 81.3156L41.7689 79.1055C33.986 81.1809 27.0142 84.2476 20.8639 88.313L22.1252 90.2212ZM42.3582 81.3156C49.9672 79.2866 58.04 77.8643 66.5785 77.0511L66.3616 74.774C57.7081 75.5982 49.5099 77.0412 41.7689 79.1055L42.3582 81.3156ZM66.5757 77.0514C76.5124 76.1294 84.5193 75.206 90.5885 74.2802L90.2436 72.019C84.2375 72.9352 76.2804 73.8537 66.3644 74.7738L66.5757 77.0514ZM90.5885 74.2802C96.6755 73.3517 101.277 71.9397 104.252 69.9567L102.983 68.0535C100.431 69.7544 96.232 71.1055 90.2436 72.019L90.5885 74.2802ZM104.259 69.9514C107.451 67.7856 109.059 64.6612 109.059 60.7161H106.771C106.771 63.9342 105.514 66.3358 102.975 68.0587L104.259 69.9514ZM109.059 60.7161V59.9486H106.771V60.7161H109.059ZM109.059 59.9486C109.059 52.6235 106.71 46.8054 101.909 42.6585L100.414 44.3896C104.617 48.02 106.771 53.1516 106.771 59.9486H109.059ZM101.918 42.6671C97.2417 38.5341 90.692 36.5474 82.4341 36.5474V38.8347C90.3448 38.8347 96.2798 40.7366 100.404 44.381L101.918 42.6671ZM82.4341 36.5474C73.7766 36.5474 66.7084 38.4773 61.3383 42.4512L62.6989 44.2899C67.5621 40.6911 74.1042 38.8347 82.4341 38.8347V36.5474ZM61.3414 42.4489C56.1325 46.2759 52.6516 51.1927 50.9414 57.1784L53.1407 57.8067C54.7052 52.3311 57.876 47.8332 62.6957 44.2922L61.3414 42.4489ZM52.1324 56.3525L8.07787 52.822L7.89515 55.1021L51.9497 58.6326L52.1324 56.3525ZM9.10447 54.2032C11.3181 43.9398 15.6371 35.1121 22.0525 27.6942L20.3225 26.1979C13.6393 33.9253 9.15755 43.1082 6.86854 53.7209L9.10447 54.2032ZM22.0575 27.6884C28.4737 20.1694 36.756 14.3886 46.9362 10.3568L46.0939 8.23019C35.6027 12.3851 27 18.3726 20.3175 26.2036L22.0575 27.6884ZM46.9416 10.3547C57.2178 6.22401 69.1434 4.14367 82.7411 4.14367V1.85633C68.9134 1.85633 56.6883 3.97166 46.0885 8.23235L46.9416 10.3547ZM82.7411 4.14367C92.1671 4.14367 101.178 5.25847 109.778 7.48419L110.351 5.26981C101.553 2.99286 92.3491 1.85633 82.7411 1.85633V4.14367ZM109.778 7.48419C118.356 9.7046 125.956 13.1304 132.589 17.7533L133.897 15.8767C127.021 11.0849 119.169 7.55208 110.351 5.26981L109.778 7.48419ZM132.605 17.7644C139.305 22.2647 144.604 28.1114 148.508 35.3192L150.519 34.2298C146.441 26.7016 140.893 20.5753 133.88 15.8656L132.605 17.7644ZM148.508 35.3192C152.391 42.4884 154.356 51.0428 154.356 61.0231H156.644C156.644 50.7413 154.618 41.7967 150.519 34.2298L148.508 35.3192ZM111.361 176.762V152.816H109.074V176.762H111.361ZM110.218 151.672H108.99V153.96H110.218V151.672ZM107.971 152.297C105.273 157.592 101.678 162.237 97.1778 166.237L98.6974 167.946C103.408 163.76 107.18 158.888 110.009 153.335L107.971 152.297ZM97.1886 166.227C92.7012 170.116 87.3 173.222 80.9674 175.534L81.7518 177.683C88.3131 175.288 93.964 172.049 98.6866 167.956L97.1886 166.227ZM80.9825 175.529C74.6822 177.729 67.3439 178.842 58.9486 178.842V181.129C67.5406 181.129 75.143 179.991 81.7366 177.688L80.9825 175.529ZM154.356 61.0231V176.762H156.644V61.0231H154.356ZM91.0301 142.992L92.0841 145.022L92.0914 145.018L92.0985 145.015L91.0301 142.992ZM103.617 131.633L101.689 130.402L101.682 130.413L103.617 131.633ZM108.222 97.2491H110.509V93.0594L106.985 95.325L108.222 97.2491ZM102.082 99.8586L101.409 97.6724L101.397 97.6762L101.385 97.6801L102.082 99.8586ZM83.9691 103.696L84.2618 105.965L84.2976 105.96L84.3333 105.954L83.9691 103.696ZM75.3731 104.924L75.7023 107.188L75.7184 107.185L75.7345 107.183L75.3731 104.924ZM60.6371 108.915L61.5131 111.028L61.5349 111.019L61.5565 111.009L60.6371 108.915ZM50.813 116.13L48.9978 114.738L48.9907 114.747L50.813 116.13ZM72.6101 149.424C79.8766 149.424 86.3885 147.979 92.0841 145.022L89.976 140.962C85.029 143.531 79.2609 144.849 72.6101 144.849V149.424ZM92.0985 145.015C97.8391 141.982 102.349 137.933 105.552 132.853L101.682 130.413C98.9494 134.748 95.0684 138.272 89.9616 140.97L92.0985 145.015ZM105.545 132.864C108.86 127.671 110.509 121.869 110.509 115.516H105.935C105.935 121.033 104.515 125.976 101.689 130.402L105.545 132.864ZM110.509 115.516V97.2491H105.935V115.516H110.509ZM106.985 95.325C105.803 96.085 103.98 96.8815 101.409 97.6724L102.755 102.045C105.506 101.198 107.776 100.255 109.459 99.1732L106.985 95.325ZM101.385 97.6801C98.9279 98.4663 96.1522 99.1618 93.0514 99.7619L93.9207 104.253C97.1647 103.625 100.12 102.888 102.779 102.037L101.385 97.6801ZM93.0514 99.7619C89.9024 100.371 86.7535 100.93 83.6049 101.438L84.3333 105.954C87.5293 105.439 90.7251 104.872 93.9207 104.253L93.0514 99.7619ZM83.6764 101.428C80.4861 101.839 77.5974 102.252 75.0117 102.665L75.7345 107.183C78.2654 106.778 81.1073 106.372 84.2618 105.965L83.6764 101.428ZM75.0438 102.661C69.2588 103.502 64.1404 104.879 59.7176 106.821L61.5565 111.009C65.5251 109.267 70.2306 107.984 75.7023 107.188L75.0438 102.661ZM59.761 106.802C55.2595 108.669 51.6354 111.298 48.9978 114.738L52.6283 117.521C54.6981 114.822 57.6233 112.641 61.5131 111.028L59.761 106.802ZM48.9907 114.747C46.3788 118.19 45.1487 122.44 45.1487 127.335H49.7234C49.7234 123.225 50.7446 120.004 52.6354 117.512L48.9907 114.747ZM45.1487 127.335C45.1487 134.423 47.7832 140.07 53.1637 143.93L55.8304 140.213C51.7962 137.318 49.7234 133.142 49.7234 127.335H45.1487ZM53.1637 143.93C58.3538 147.653 64.8943 149.424 72.6101 149.424V144.849C65.5899 144.849 60.0549 143.243 55.8304 140.213L53.1637 143.93Z" fill="black" mask="url(#path-9-outside-4_171_1370)"/>
</svg>
