<svg width="360" height="199" viewBox="0 0 360 199" fill="none" xmlns="http://www.w3.org/2000/svg">
<path d="M-12.0848 74.5173C-22.9044 87.6527 -30.622 98.6123 -25.2459 115.081C-17.8141 137.847 -1.24166 141.674 22.6928 141.674C27.7595 141.674 36.1813 138.872 44.6319 133.834C54.5452 126.196 66.7336 118.396 75.1842 106.857M100.211 55.3408C110.739 27.9143 115.325 25.4386 132.389 14.3877C149.452 3.3369 164.678 4.4745 177.729 4.4745C187.643 6.42465 194.322 10.5263 201.298 18.288C211.228 29.3364 208.607 44.196 208.607 44.196C208.607 44.196 207.469 50.4654 205.844 55.3408M190.568 102.632C179.03 122.621 162.128 128.959 151.24 142.285C147.413 153.866 146.654 170.815 158.553 182.913C172.179 192.54 174.154 194.289 191.868 197.864C210.557 198.839 229.733 198.221 251.673 194.289C268.899 191.201 286.16 182.15 291.757 177.139C300.285 169.507 311.85 155.286 314.72 142.285C319.92 118.721 314.402 91.3376 302.701 68.3418C295.543 47.6218 290.33 33.4997 294.101 24.4997C297.872 15.4997 297.195 9.61931 313.601 2.49976C328.196 -3.83386 361.206 7.67353 365.756 29.6127" stroke="#131313" stroke-width="0.487537" stroke-linecap="round"/>
<ellipse cx="21.0014" cy="141.797" rx="1.39596" ry="1.3001" fill="#131313"/>
<circle cx="156.603" cy="5.28695" r="1.46261" fill="#131313"/>
<ellipse cx="191.314" cy="197.701" rx="1.39596" ry="1.3001" fill="#131313"/>
<ellipse cx="309.948" cy="154.635" rx="1.39596" ry="1.3001" fill="#131313"/>
</svg>
