<svg width="1262" height="658" viewBox="0 0 1262 658" fill="none" xmlns="http://www.w3.org/2000/svg">
<path d="M311.65 368C287.15 421.5 254.651 434 224.151 457.5C198.151 473 172.239 481.621 156.651 481.621C83.0117 481.621 32.0235 469.845 9.15798 399.802C-7.38273 349.133 1.15087 325 29.6506 286.5C47.5904 266.71 74.6507 244.5 93.1507 227.5M342.65 272.5C375.04 188.117 441.651 124 494.151 90C546.651 56 593.497 59.5 633.651 59.5C664.151 65.5 684.7 78.1195 706.163 102C732.151 136 728.151 178.5 728.151 178.5C728.151 178.5 722.65 236 686.65 297M1212.15 88.9998C1198.15 21.4998 1099.15 -10 1050.65 4.49991C997.932 20.261 969.296 36.5001 979.65 107.5C990.005 178.5 1236.15 244 1257.65 357C1261.15 409 1261.97 361.41 1257.65 423.5C1248.82 463.5 1207.39 508.516 1181.15 532C1104.65 608.5 924.15 635.5 871.15 645C803.65 657.099 734.651 657.5 677.151 654.5C622.651 643.5 616.573 638.119 574.651 608.5C538.041 571.279 540.377 519.131 552.151 483.5L625.15 404C651.075 372.746 662.225 354.877 677.151 322.5" stroke="#131313" stroke-width="1.5" stroke-linecap="round"/>
<ellipse cx="151.445" cy="482" rx="4.29495" ry="4" fill="#131313"/>
<circle cx="568.65" cy="62" r="4.5" fill="#131313"/>
<ellipse cx="675.445" cy="654" rx="4.29495" ry="4" fill="#131313"/>
<ellipse cx="1212.45" cy="92" rx="4.29495" ry="4" fill="#131313"/>
<ellipse cx="1076.45" cy="594" rx="4.29495" ry="4" fill="#131313"/>
</svg>
