<svg width="360" height="200" viewBox="0 0 360 200" fill="none" xmlns="http://www.w3.org/2000/svg">
<path d="M-39.4996 84.5C-50.3192 97.6354 -54.3754 116.032 -48.9993 132.5C-41.5674 155.266 -13.9345 160 10 160C15.0667 160 32.0494 156.538 40.5 151.5C50.4132 143.862 77.5 126 76 102M85.5 71.5C96.0276 44.0735 115.325 25.4386 132.389 14.3878C149.453 3.33697 164.679 4.47457 177.73 4.47457C187.643 6.42471 194.322 10.5264 201.298 18.2881V18.2881C213.215 31.5473 200.384 49.8255 186.836 61.4132C181.97 65.575 178.063 69.3109 177.5 71M174.5 102C162.962 121.989 162.129 128.959 151.24 142.285C147.414 153.866 146.654 170.815 158.553 182.913C172.179 192.54 174.155 194.289 191.868 197.864C210.557 198.839 212.561 200.711 234.5 196.779C251.726 193.691 268.987 184.64 274.585 179.63C283.113 171.997 294.631 158.001 297.5 145C301.63 126.284 293.018 104.176 283.436 84.3493M365.756 29.6127C361.206 7.67359 316.593 2.46898 301.5 7.50012C289.5 11.5001 280.771 16 277 25C273.229 34 268.842 48.78 276 69.5C276.318 70.1248 276.638 70.754 276.961 71.3874" stroke="#131313" stroke-width="0.487537" stroke-linecap="round"/>
<circle cx="156.603" cy="5.28683" r="1.46261" fill="#131313"/>
<ellipse cx="191.314" cy="197.701" rx="1.39596" ry="1.3001" fill="#131313"/>
<ellipse cx="293.948" cy="154.636" rx="1.39596" ry="1.3001" fill="#131313"/>
</svg>
