<svg width="1297" height="758" viewBox="0 0 1297 758" fill="none" xmlns="http://www.w3.org/2000/svg">
<ellipse cx="65.5977" cy="335.844" rx="3.5" ry="4" fill="#131313"/>
<path d="M34.8752 89.1774C83.3583 39.1129 151.903 0.844238 230.354 0.844238C263.404 0.844238 292.877 3.7404 314.598 26.3442C327.388 39.653 335.599 86.3442 296.699 118.344L78.5986 319.344C45.3102 359.758 -13.9014 435.844 4.45309 533.024C27.3186 603.067 125.807 616.723 199.446 616.723C215.035 616.723 230.623 616.723 246.212 616.723C263.818 616.723 280.508 609.365 296.699 603.909C409.278 558.863 439.098 492.844 431.098 345.844M431.099 245.344C425.599 160.344 482.505 102.221 536.84 70.6384C571.455 50.5184 613.844 52.3719 653.997 52.3719C690.305 52.3719 706.647 61.7528 728.111 85.6332C758.663 119.626 739.598 178.344 736.098 193.844C732.597 209.344 681.572 308.344 651.097 365.844C624.597 415.844 601.099 421.344 579.099 458.844M547.598 497.344C501.598 553.344 483.725 640.844 520.334 678.065C562.256 707.684 616.572 707.152 668.237 704.92C714.405 702.925 754.979 675.418 792.599 655.844C820.599 636.844 829.599 627.344 846.098 607.844C854.815 597.542 879.599 566.844 883.098 559.844C940.598 478.844 936.599 403.344 936.599 337.344M1296.1 619.176C1296.1 635.921 1278.24 651.132 1262.12 658.981C1220.9 679.042 1167.76 687.764 1150.46 640.714C1128.8 581.81 1205.9 517.844 1231.67 478.844C1264.42 436.844 1264.06 423.844 1277.84 388.344C1293.57 347.844 1291.85 278.844 1287.1 246.844C1277 178.844 1246.36 133.595 1182.6 94.3442C1147.16 72.5309 1124.1 63.8442 1074.6 63.8442C992.622 77.4759 940.099 149.844 936.599 255.844" stroke="#131313" stroke-width="1.5" stroke-linecap="round"/>
<ellipse cx="34.9944" cy="89.8442" rx="3.75808" ry="4" fill="#131313"/>
<ellipse cx="148.393" cy="614.844" rx="4.29495" ry="4" fill="#131313"/>
<circle cx="514.098" cy="85.8442" r="4" fill="#131313"/>
<ellipse cx="738.828" cy="684.844" rx="4.29495" ry="4" fill="#131313"/>
<ellipse cx="1075.39" cy="64.8442" rx="4.29495" ry="4" fill="#131313"/>
<ellipse cx="1277.85" cy="388.844" rx="4.29495" ry="4" fill="#131313"/>
<ellipse cx="1282.14" cy="646.844" rx="4.29495" ry="4" fill="#131313"/>
</svg>
