<svg width="1217" height="654" viewBox="0 0 1217 654" fill="none" xmlns="http://www.w3.org/2000/svg">
<path d="M104.834 217.409C104.006 217.409 103.296 217.192 102.703 216.758C102.116 216.325 101.665 215.699 101.352 214.88C101.044 214.056 100.89 213.06 100.89 211.889C100.89 210.724 101.046 209.729 101.359 208.905C101.672 208.077 102.123 207.446 102.71 207.013C103.303 206.574 104.011 206.355 104.834 206.355C105.663 206.355 106.371 206.574 106.958 207.013C107.551 207.446 108.001 208.077 108.309 208.905C108.622 209.729 108.779 210.724 108.779 211.889C108.779 213.06 108.625 214.056 108.317 214.88C108.008 215.699 107.56 216.325 106.973 216.758C106.385 217.192 105.672 217.409 104.834 217.409ZM104.834 216.022C105.34 216.022 105.766 215.86 106.113 215.538C106.46 215.215 106.725 214.745 106.908 214.129C107.091 213.507 107.182 212.761 107.182 211.889C107.182 211.013 107.091 210.266 106.908 209.65C106.725 209.028 106.46 208.556 106.113 208.234C105.766 207.906 105.34 207.742 104.834 207.742C104.088 207.742 103.51 208.106 103.1 208.833C102.696 209.556 102.494 210.574 102.494 211.889C102.494 212.761 102.585 213.507 102.768 214.129C102.951 214.745 103.216 215.215 103.563 215.538C103.914 215.86 104.338 216.022 104.834 216.022ZM113.923 206.5V217.264H112.319V208.132H112.247L109.689 209.816V208.255L112.362 206.5H113.923Z" fill="#131313"/>
<path d="M318.369 369.764C292.369 405.264 254.869 429.264 224.369 452.764C198.369 468.264 172.458 476.886 156.869 476.886C83.2304 476.886 32.2422 465.109 9.37674 395.066C-7.16397 344.397 1.36963 320.264 29.8694 281.764C47.8092 261.974 74.8694 239.764 93.3695 222.764M395.369 211.264C427.759 126.881 441.869 119.264 494.369 85.2643C546.869 51.2643 593.716 54.7643 633.869 54.7643C664.369 60.7643 684.918 73.3838 706.382 97.2643C736.934 131.257 728.869 176.975 728.869 176.975C728.869 176.975 725.369 196.264 720.369 211.264M673.369 356.764C637.869 418.264 585.869 437.764 552.369 478.764C540.596 514.396 538.26 566.543 574.869 603.764C616.791 633.383 622.869 638.764 677.369 649.764C734.869 652.764 793.869 650.863 861.369 638.764C914.369 629.264 967.476 601.416 984.698 586.001C1010.94 562.517 1046.52 518.764 1055.35 478.764C1071.35 406.264 1054.37 322.015 1018.37 251.264C996.346 187.515 955.713 130.601 973.869 87.2643C992.026 43.9279 1004.87 28.8263 1055.35 6.92161C1100.25 -12.565 1198.37 16.7642 1212.37 84.2642" stroke="#131313" stroke-width="1.5" stroke-linecap="round"/>
<ellipse cx="151.664" cy="477.264" rx="4.29495" ry="4" fill="#131313"/>
<circle cx="568.869" cy="57.2643" r="4.5" fill="#131313"/>
<ellipse cx="675.664" cy="649.264" rx="4.29495" ry="4" fill="#131313"/>
<ellipse cx="1212.66" cy="87.2643" rx="4.29495" ry="4" fill="#131313"/>
<ellipse cx="1040.66" cy="516.764" rx="4.29495" ry="4" fill="#131313"/>
</svg>
