<svg width="1243" height="142" viewBox="0 0 1243 142" fill="none" xmlns="http://www.w3.org/2000/svg">
<mask id="path-1-outside-1_913_1925" maskUnits="userSpaceOnUse" x="0.586914" y="0" width="1240" height="141" fill="black">
<rect fill="white" x="0.586914" width="1240" height="141"/>
<path d="M144.852 105.073C134.611 105.073 125.768 102.989 118.325 98.8204C110.882 94.6522 105.166 88.7275 101.176 81.0461C97.2461 73.3053 95.2812 64.1651 95.2812 53.6256C95.2812 43.3839 97.2461 34.3925 101.176 26.6517C105.166 18.9108 110.763 12.867 117.968 8.52019C125.232 4.1734 133.747 2 143.513 2C150.122 2 156.285 3.07181 162.001 5.21544C167.718 7.29952 172.72 10.4554 177.007 14.6831C181.294 18.8513 184.629 24.121 187.01 30.4923C189.392 36.8041 190.583 44.2175 190.583 52.7324V60.2351H106.267V43.1754H177.185L164.324 47.6413C164.324 42.58 163.55 38.1737 162.001 34.4223C160.453 30.671 158.131 27.783 155.035 25.7585C151.998 23.6744 148.217 22.6324 143.691 22.6324C139.166 22.6324 135.325 23.6744 132.169 25.7585C129.073 27.8426 126.691 30.671 125.024 34.2437C123.357 37.8164 122.523 41.925 122.523 46.5695V58.6274C122.523 64.046 123.476 68.6905 125.381 72.561C127.287 76.3718 129.936 79.3193 133.33 81.4034C136.784 83.4279 140.744 84.4402 145.21 84.4402C148.306 84.4402 151.105 83.9936 153.606 83.1004C156.106 82.2073 158.25 80.8973 160.036 79.1705C161.882 77.4437 163.252 75.3596 164.145 72.9182L189.69 74.6153C188.439 80.7484 185.82 86.1075 181.83 90.6925C177.9 95.2179 172.809 98.7608 166.557 101.321C160.304 103.822 153.07 105.073 144.852 105.073ZM353.32 105.073C343.078 105.073 334.236 102.989 326.793 98.8204C319.349 94.6522 313.633 88.7275 309.644 81.0461C305.714 73.3053 303.749 64.1651 303.749 53.6256C303.749 43.3839 305.714 34.3925 309.644 26.6517C313.633 18.9108 319.23 12.867 326.435 8.52019C333.7 4.1734 342.215 2 351.98 2C358.59 2 364.753 3.07181 370.469 5.21544C376.185 7.29952 381.187 10.4554 385.474 14.6831C389.762 18.8513 393.096 24.121 395.478 30.4923C397.86 36.8041 399.051 44.2175 399.051 52.7324V60.2351H314.735V43.1754H385.653L372.791 47.6413C372.791 42.58 372.017 38.1737 370.469 34.4223C368.921 30.671 366.598 27.783 363.502 25.7585C360.465 23.6744 356.684 22.6324 352.159 22.6324C347.633 22.6324 343.793 23.6744 340.637 25.7585C337.54 27.8426 335.159 30.671 333.491 34.2437C331.824 37.8164 330.99 41.925 330.99 46.5695V58.6274C330.99 64.046 331.943 68.6905 333.849 72.561C335.754 76.3718 338.404 79.3193 341.798 81.4034C345.252 83.4279 349.211 84.4402 353.677 84.4402C356.774 84.4402 359.572 83.9936 362.073 83.1004C364.574 82.2073 366.718 80.8973 368.504 79.1705C370.35 77.4437 371.719 75.3596 372.613 72.9182L398.157 74.6153C396.907 80.7484 394.287 86.1075 390.297 90.6925C386.367 95.2179 381.276 98.7608 375.024 101.321C368.772 103.822 361.537 105.073 353.32 105.073ZM410.93 103.108V3.25045H498.104V103.108H471.755V25.044H436.921V103.108H410.93ZM559.822 105.073C549.581 105.073 540.738 102.989 533.295 98.8204C525.852 94.6522 520.136 88.7275 516.146 81.0461C512.216 73.3053 510.251 64.1651 510.251 53.6256C510.251 43.3839 512.216 34.3925 516.146 26.6517C520.136 18.9108 525.733 12.867 532.938 8.52019C540.202 4.1734 548.717 2 558.483 2C565.092 2 571.255 3.07181 576.971 5.21544C582.688 7.29952 587.69 10.4554 591.977 14.6831C596.264 18.8513 599.599 24.121 601.98 30.4923C604.362 36.8041 605.553 44.2175 605.553 52.7324V60.2351H521.237V43.1754H592.155L579.294 47.6413C579.294 42.58 578.52 38.1737 576.971 34.4223C575.423 30.671 573.101 27.783 570.005 25.7585C566.968 23.6744 563.187 22.6324 558.661 22.6324C554.136 22.6324 550.295 23.6744 547.139 25.7585C544.043 27.8426 541.661 30.671 539.994 34.2437C538.327 37.8164 537.493 41.925 537.493 46.5695V58.6274C537.493 64.046 538.446 68.6905 540.351 72.561C542.257 76.3718 544.906 79.3193 548.3 81.4034C551.754 83.4279 555.714 84.4402 560.18 84.4402C563.276 84.4402 566.075 83.9936 568.576 83.1004C571.076 82.2073 573.22 80.8973 575.006 79.1705C576.852 77.4437 578.222 75.3596 579.115 72.9182L604.66 74.6153C603.409 80.7484 600.789 86.1075 596.8 90.6925C592.87 95.2179 587.779 98.7608 581.527 101.321C575.274 103.822 568.04 105.073 559.822 105.073ZM665.396 82.7432C669.921 82.7432 673.732 81.4927 676.829 78.9918C679.925 76.4909 682.277 73.0373 683.885 68.631C685.492 64.1651 686.296 59.0442 686.296 53.2683C686.296 47.4925 685.492 42.4311 683.885 38.0843C682.336 33.678 680.014 30.2244 676.918 27.7235C673.821 25.2226 669.981 23.9721 665.396 23.9721C660.93 23.9721 657.119 25.1928 653.963 27.6342C650.867 30.016 648.485 33.41 646.818 37.8164C645.21 42.1632 644.406 47.3138 644.406 53.2683C644.406 59.1633 645.24 64.314 646.907 68.7203C648.574 73.1266 650.956 76.5803 654.053 79.0812C657.208 81.5225 660.99 82.7432 665.396 82.7432ZM772.22 105.073C761.978 105.073 753.136 102.989 745.692 98.8204C738.249 94.6522 732.533 88.7275 728.543 81.0461C724.613 73.3053 722.648 64.1651 722.648 53.6256C722.648 43.3839 724.613 34.3925 728.543 26.6517C732.533 18.9108 738.13 12.867 745.335 8.52019C752.6 4.1734 761.115 2 770.88 2C777.49 2 783.652 3.07181 789.369 5.21544C795.085 7.29952 800.087 10.4554 804.374 14.6831C808.661 18.8513 811.996 24.121 814.378 30.4923C816.76 36.8041 817.95 44.2175 817.95 52.7324V60.2351H733.635V43.1754H804.553L791.691 47.6413C791.691 42.58 790.917 38.1737 789.369 34.4223C787.821 30.671 785.498 27.783 782.402 25.7585C779.365 23.6744 775.584 22.6324 771.059 22.6324C766.533 22.6324 762.693 23.6744 759.537 25.7585C756.44 27.8426 754.059 30.671 752.391 34.2437C750.724 37.8164 749.89 41.925 749.89 46.5695V58.6274C749.89 64.046 750.843 68.6905 752.749 72.561C754.654 76.3718 757.304 79.3193 760.698 81.4034C764.151 83.4279 768.111 84.4402 772.577 84.4402C775.673 84.4402 778.472 83.9936 780.973 83.1004C783.474 82.2073 785.617 80.8973 787.404 79.1705C789.25 77.4437 790.619 75.3596 791.512 72.9182L817.057 74.6153C815.807 80.7484 813.187 86.1075 809.197 90.6925C805.267 95.2179 800.176 98.7608 793.924 101.321C787.672 103.822 780.437 105.073 772.22 105.073ZM821.88 132.314V81.2248H829.562C831.705 79.7957 833.492 77.5925 834.921 74.6153C836.35 71.5785 837.481 68.0058 838.315 63.8971C839.208 59.729 839.893 55.2631 840.369 50.4995C840.905 45.7359 841.352 40.9127 841.709 36.03L844.388 3.25045H920.844V81.2248H936.386V132.314H909.948V103.108H848.944V132.314H821.88ZM857.161 81.2248H894.764V24.5974H867.879L866.807 36.03C866.093 46.6886 865.051 55.7395 863.681 63.1826C862.312 70.5662 860.138 76.5803 857.161 81.2248ZM983.009 85.8693C987.059 85.8693 990.631 85.0654 993.728 83.4577C996.883 81.7905 999.325 79.5873 1001.05 76.8482C1002.84 74.0496 1003.73 70.9235 1003.73 67.4699V56.841C1002.9 57.377 1001.71 57.8831 1000.16 58.3595C998.67 58.8358 997.003 59.2526 995.157 59.6099C993.311 59.9672 991.465 60.2947 989.619 60.5924C987.773 60.8306 986.106 61.0688 984.617 61.3069C981.342 61.7833 978.484 62.5574 976.043 63.6292C973.601 64.6415 971.696 66.0408 970.326 67.8271C969.016 69.5539 968.361 71.7273 968.361 74.3473C968.361 78.0987 969.731 80.9568 972.47 82.9218C975.209 84.8868 978.722 85.8693 983.009 85.8693ZM1133.96 3.25045V103.108H1107.7V3.25045H1133.96ZM1121.09 47.1947V68.9883C1119.01 69.941 1116.36 70.8342 1113.15 71.6678C1109.99 72.5014 1106.68 73.1862 1103.23 73.7221C1099.84 74.1985 1096.59 74.4366 1093.5 74.4366C1079.15 74.4366 1067.86 71.4892 1059.64 65.5942C1051.43 59.6397 1047.35 50.172 1047.41 37.1912V3.16113H1073.4V37.1912C1073.4 41.0616 1074.05 44.1282 1075.36 46.3909C1076.67 48.6536 1078.79 50.2613 1081.71 51.214C1084.68 52.1668 1088.61 52.6431 1093.5 52.6431C1098.02 52.7027 1102.49 52.2561 1106.89 51.3034C1111.3 50.3506 1116.03 48.9811 1121.09 47.1947Z"/>
</mask>
<path d="M1.58691 25.044H0.92144V25.7094H1.58691V25.044ZM1.58691 3.25045V2.58497H0.92144V3.25045H1.58691ZM91.8871 3.25045H92.5526V2.58497H91.8871V3.25045ZM91.8871 25.044V25.7094H92.5526V25.044H91.8871ZM59.822 25.044V24.3785H59.1566V25.044H59.822ZM33.4733 25.044H34.1388V24.3785H33.4733V25.044ZM196.478 103.108L195.813 103.11L195.815 103.773H196.478V103.108ZM196.389 81.2248V80.5593H195.721L195.723 81.2275L196.389 81.2248ZM199.694 81.2248V81.8904L199.706 81.8901L199.694 81.2248ZM207.375 78.0093L206.897 77.5456L206.891 77.5528L207.375 78.0093ZM211.93 67.5592L211.28 67.4181L211.278 67.4241L211.93 67.5592ZM213.984 47.552L213.319 47.5265L213.319 47.5284L213.984 47.552ZM215.681 3.25045V2.58497H215.041L215.016 3.22497L215.681 3.25045ZM291.512 3.25045H292.178V2.58497H291.512V3.25045ZM265.163 25.044H265.829V24.3785H265.163V25.044ZM240.512 25.044V24.3785H239.88L239.847 25.009L240.512 25.044ZM238.904 55.5906L238.239 55.5556L238.239 55.5574L238.904 55.5906ZM229.168 91.9429L228.633 91.5476L228.632 91.549L229.168 91.9429ZM218.808 100.428L219.076 101.037L219.08 101.035L218.808 100.428ZM617.432 3.25045V2.58497H616.767V3.25045H617.432ZM644.585 3.25045H645.25V2.58497H644.585V3.25045ZM644.585 20.1315H643.919V20.797H644.585V20.1315ZM645.835 20.1315V20.797H646.263L646.441 20.4079L645.835 20.1315ZM660.305 4.85817L660.599 5.45531L660.606 5.45149L660.305 4.85817ZM694.335 7.71633L693.981 8.28007L693.988 8.28403L694.335 7.71633ZM709.251 81.4927L709.853 81.7752L709.854 81.7734L709.251 81.4927ZM694.692 98.8204L694.333 98.26L694.331 98.2617L694.692 98.8204ZM651.284 95.337L650.776 95.7673L650.781 95.7733L650.786 95.7791L651.284 95.337ZM645.835 87.1197L646.436 86.8326L646.255 86.4543H645.835V87.1197ZM645.031 87.1197V86.4543H644.366V87.1197H645.031ZM958.001 101.679L957.726 102.285L957.735 102.289L958.001 101.679ZM944.96 61.3069L945.544 61.6269L945.546 61.623L944.96 61.3069ZM979.437 44.4259L979.375 43.7633L979.374 43.7634L979.437 44.4259ZM1001.05 40.4066L1001.42 40.9603L1001.43 40.9573L1001.05 40.4066ZM999.623 25.5799L999.182 26.0786L999.188 26.0835L999.623 25.5799ZM976.847 25.4905L977.241 26.0268L977.242 26.0255L976.847 25.4905ZM971.041 33.7078L970.988 34.3711L971.531 34.4147L971.681 33.8906L971.041 33.7078ZM945.407 31.6535L944.756 31.5132L944.596 32.2561L945.354 32.3168L945.407 31.6535ZM953.088 15.9336L953.591 16.3689L953.594 16.3655L953.088 15.9336ZM967.826 5.66202L968.071 6.28075L968.074 6.27948L967.826 5.66202ZM1018.29 10.0386L1017.91 10.5846L1017.92 10.591L1018.29 10.0386ZM1004.89 89.174H1005.56V88.5086H1004.89V89.174ZM1004.18 89.174V88.5086H1003.77L1003.58 88.872L1004.18 89.174ZM997.747 97.4806L998.183 97.9835L998.189 97.978L997.747 97.4806ZM988.101 103.018L988.32 103.647L988.329 103.643L988.101 103.018ZM1176.65 66.5767H1175.98V69.0996L1177.23 66.9049L1176.65 66.5767ZM1212.56 3.25045V2.58497H1212.17L1211.98 2.92222L1212.56 3.25045ZM1239.89 3.25045H1240.55V2.58497H1239.89V3.25045ZM1213.54 39.6921H1214.2V37.1606L1212.96 39.3648L1213.54 39.6921ZM1177.72 103.108V103.773H1178.11L1178.3 103.435L1177.72 103.108ZM1150.3 103.108H1149.64V103.773H1150.3V103.108ZM1150.3 3.25045V2.58497H1149.64V3.25045H1150.3ZM1176.65 3.25045H1177.32V2.58497H1176.65V3.25045ZM2.25239 25.044V3.25045H0.92144V25.044H2.25239ZM1.58691 3.91592H91.8871V2.58497H1.58691V3.91592ZM91.2216 3.25045V25.044H92.5526V3.25045H91.2216ZM91.8871 24.3785H59.822V25.7094H91.8871V24.3785ZM59.1566 25.044V103.108H60.4875V25.044H59.1566ZM33.4733 24.3785H1.58691V25.7094H33.4733V24.3785ZM197.144 103.105L197.054 81.2221L195.723 81.2275L195.813 103.11L197.144 103.105ZM196.389 81.8903H199.694V80.5593H196.389V81.8903ZM199.706 81.8901C203.021 81.8276 205.758 80.6941 207.859 78.4659L206.891 77.5528C205.062 79.4928 202.678 80.5029 199.681 80.5594L199.706 81.8901ZM207.852 78.473C210.008 76.2542 211.56 72.6225 212.582 67.6943L211.278 67.4241C210.276 72.2613 208.791 75.5964 206.898 77.5456L207.852 78.473ZM212.58 67.7002C213.664 62.7024 214.351 55.9888 214.649 47.5756L213.319 47.5284C213.022 55.907 212.339 62.5314 211.28 67.4181L212.58 67.7002ZM214.649 47.5775L216.346 3.27592L215.016 3.22497L213.319 47.5265L214.649 47.5775ZM215.681 3.91592H291.512V2.58497H215.681V3.91592ZM290.847 3.25045V103.108H292.178V3.25045H290.847ZM265.163 24.3785H240.512V25.7094H265.163V24.3785ZM239.847 25.009L238.239 55.5556L239.569 55.6256L241.176 25.0789L239.847 25.009ZM238.239 55.5574C237.824 63.8616 236.817 70.9879 235.224 76.9443L236.51 77.288C238.133 71.2163 239.15 63.9922 239.569 55.6238L238.239 55.5574ZM235.224 76.9443C233.632 82.9003 231.429 87.7607 228.633 91.5476L229.704 92.3382C232.624 88.3842 234.887 83.3601 236.51 77.288L235.224 76.9443ZM228.632 91.549C225.898 95.272 222.533 98.0246 218.535 99.8211L219.08 101.035C223.299 99.1397 226.842 96.2355 229.705 92.3368L228.632 91.549ZM218.539 99.8192C214.589 101.562 210.01 102.442 204.785 102.442V103.773C210.159 103.773 214.927 102.867 219.076 101.037L218.539 99.8192ZM204.785 102.442H196.478V103.773H204.785V102.442ZM617.432 3.91592H644.585V2.58497H617.432V3.91592ZM643.919 3.25045V20.1315H645.25V3.25045H643.919ZM644.585 20.797H645.835V19.466H644.585V20.797ZM646.441 20.4079C647.662 17.7319 649.414 15.0123 651.706 12.2499L650.682 11.4C648.33 14.2348 646.509 17.0529 645.23 19.8551L646.441 20.4079ZM651.706 12.2499C653.961 9.53341 656.919 7.26596 660.599 5.45527L660.011 4.26106C656.188 6.14217 653.073 8.51924 650.682 11.4L651.706 12.2499ZM660.606 5.45149C664.239 3.60605 668.774 2.66547 674.238 2.66547V1.33453C668.628 1.33453 663.873 2.29939 660.003 4.26484L660.606 5.45149ZM674.238 2.66547C681.44 2.66547 688.016 4.53713 693.981 8.28003L694.688 7.15263C688.507 3.27375 681.685 1.33453 674.238 1.33453V2.66547ZM693.988 8.28403C699.994 11.9578 704.827 17.5383 708.473 25.0661L709.671 24.4859C705.934 16.7702 700.942 10.9776 694.682 7.14863L693.988 8.28403ZM708.473 25.0661C712.109 32.5716 713.944 41.9921 713.944 53.3577H715.275C715.275 41.8579 713.419 32.224 709.671 24.4859L708.473 25.0661ZM713.944 53.3577C713.944 64.3646 712.169 73.6413 708.647 81.2121L709.854 81.7734C713.478 73.9815 715.275 64.5015 715.275 53.3577H713.944ZM708.648 81.2103C705.12 88.7364 700.345 94.4079 694.333 98.26L695.051 99.3807C701.306 95.3729 706.236 89.4926 709.853 81.7752L708.648 81.2103ZM694.331 98.2617C688.371 102.118 681.65 104.05 674.149 104.05V105.381C681.892 105.381 688.866 103.383 695.054 99.3791L694.331 98.2617ZM674.149 104.05C668.861 104.05 664.409 103.168 660.77 101.435L660.197 102.637C664.06 104.476 668.719 105.381 674.149 105.381V104.05ZM660.77 101.435C657.086 99.6808 654.095 97.4982 651.781 94.8949L650.786 95.7791C653.236 98.5348 656.378 100.818 660.197 102.637L660.77 101.435ZM651.791 94.9066C649.499 92.2034 647.717 89.5118 646.436 86.8326L645.235 87.4069C646.574 90.2058 648.423 92.9924 650.776 95.7673L651.791 94.9066ZM645.835 86.4543H645.031V87.7852H645.835V86.4543ZM644.366 87.1197V140.442H645.697V87.1197H644.366ZM975.06 104.318C968.827 104.318 963.232 103.23 958.266 101.068L957.735 102.289C962.891 104.533 968.67 105.649 975.06 105.649V104.318ZM958.275 101.072C953.384 98.8595 949.555 95.6073 946.769 91.3128L945.652 92.0371C948.583 96.5553 952.614 99.9721 957.726 102.285L958.275 101.072ZM946.769 91.3128C943.996 87.0381 942.589 81.6937 942.589 75.2405H941.258C941.258 81.8872 942.709 87.4991 945.652 92.0371L946.769 91.3128ZM942.589 75.2405C942.589 69.7196 943.588 65.1936 945.544 61.6269L944.377 60.987C942.284 64.8038 941.258 69.5669 941.258 75.2405H942.589ZM945.546 61.623C947.519 57.9669 950.213 55.0127 953.634 52.7517L952.9 51.6414C949.294 54.0249 946.45 57.1443 944.375 60.9909L945.546 61.623ZM953.634 52.7517C957.081 50.4728 961.004 48.744 965.407 47.5698L965.064 46.2838C960.535 47.4914 956.478 49.2758 952.9 51.6414L953.634 52.7517ZM965.407 47.5698C969.834 46.3891 974.532 45.5615 979.5 45.0884L979.374 43.7634C974.338 44.243 969.568 45.0826 965.064 46.2838L965.407 47.5698ZM979.498 45.0885C985.28 44.5521 989.939 44.0147 993.471 43.476L993.27 42.1603C989.775 42.6934 985.145 43.2279 979.375 43.7633L979.498 45.0885ZM993.471 43.476C997.013 42.9358 999.69 42.1142 1001.42 40.9603L1000.68 39.8529C999.198 40.8426 996.755 41.6288 993.27 42.1603L993.471 43.476ZM1001.43 40.9573C1003.28 39.6971 1004.22 37.879 1004.22 35.5834H1002.89C1002.89 37.456 1002.16 38.8534 1000.68 39.8559L1001.43 40.9573ZM1004.22 35.5834V35.1369H1002.89V35.5834H1004.22ZM1004.22 35.1369C1004.22 30.8746 1002.85 27.4892 1000.06 25.0762L999.188 26.0835C1001.63 28.196 1002.89 31.1819 1002.89 35.1369H1004.22ZM1000.06 25.0812C997.342 22.6764 993.531 21.5203 988.726 21.5203V22.8513C993.329 22.8513 996.782 23.9579 999.182 26.0785L1000.06 25.0812ZM988.726 21.5203C983.688 21.5203 979.575 22.6433 976.451 24.9556L977.242 26.0255C980.072 23.9314 983.879 22.8513 988.726 22.8513V21.5203ZM976.453 24.9543C973.422 27.1811 971.396 30.042 970.401 33.525L971.681 33.8906C972.591 30.7044 974.436 28.0873 977.241 26.0268L976.453 24.9543ZM971.094 33.0444L945.46 30.9901L945.354 32.3168L970.988 34.3711L971.094 33.0444ZM946.057 31.7938C947.345 25.8218 949.858 20.6852 953.591 16.3689L952.585 15.4982C948.696 19.9946 946.088 25.3379 944.756 31.5132L946.057 31.7938ZM953.594 16.3655C957.328 11.9904 962.147 8.6267 968.071 6.28074L967.58 5.04331C961.476 7.46096 956.47 10.9449 952.582 15.5016L953.594 16.3655ZM968.074 6.27948C974.053 3.87596 980.992 2.66547 988.904 2.66547V1.33453C980.859 1.33453 973.745 2.56538 967.577 5.04457L968.074 6.27948ZM988.904 2.66547C994.389 2.66547 999.633 3.31415 1004.64 4.60923L1004.97 3.32074C999.851 1.99585 994.495 1.33453 988.904 1.33453V2.66547ZM1004.64 4.60923C1009.63 5.90123 1014.05 7.89463 1017.91 10.5845L1018.67 9.49264C1014.67 6.7044 1010.1 4.64873 1004.97 3.32074L1004.64 4.60923ZM1017.92 10.591C1021.82 13.2096 1024.9 16.6117 1027.17 20.8057L1028.34 20.1718C1025.97 15.7913 1022.74 12.2266 1018.66 9.48615L1017.92 10.591ZM1027.17 20.8057C1029.43 24.9773 1030.58 29.9548 1030.58 35.7621H1031.91C1031.91 29.7794 1030.73 24.5748 1028.34 20.1718L1027.17 20.8057ZM1030.58 35.7621V103.108H1031.91V35.7621H1030.58ZM1004.89 88.5086H1004.18V89.8395H1004.89V88.5086ZM1003.58 88.872C1002.02 91.953 999.923 94.6558 997.305 96.9832L998.189 97.978C1000.93 95.5417 1003.12 92.7069 1004.77 89.4761L1003.58 88.872ZM997.311 96.9777C994.7 99.2407 991.557 101.048 987.872 102.393L988.329 103.643C992.147 102.25 995.435 100.365 998.183 97.9835L997.311 96.9777ZM987.881 102.39C984.215 103.67 979.945 104.318 975.06 104.318V105.649C980.06 105.649 984.483 104.986 988.32 103.647L987.881 102.39ZM1177.23 66.9049L1213.13 3.57868L1211.98 2.92222L1176.07 66.2484L1177.23 66.9049ZM1212.56 3.91592H1239.89V2.58497H1212.56V3.91592ZM1239.22 3.25045V103.108H1240.55V3.25045H1239.22ZM1212.96 39.3648L1177.14 102.78L1178.3 103.435L1214.12 40.0193L1212.96 39.3648ZM1177.72 102.442H1150.3V103.773H1177.72V102.442ZM1150.97 103.108V3.25045H1149.64V103.108H1150.97ZM1150.3 3.91592H1176.65V2.58497H1150.3V3.91592ZM1175.98 3.25045V66.5767H1177.32V3.25045H1175.98ZM32.8078 25.044V103.108H34.1388V25.044H32.8078ZM264.498 25.044V103.108H265.829V25.044H264.498ZM616.767 3.25045V140.442H618.098V3.25045H616.767ZM1004.23 89.174V103.108H1005.56V89.174H1004.23ZM1212.87 39.6921V103.108H1214.2V39.6921H1212.87ZM101.176 81.0461L99.9893 81.6487L99.995 81.6596L101.176 81.0461ZM101.176 26.6517L99.993 26.0419L99.9894 26.0492L101.176 26.6517ZM117.968 8.52019L117.284 7.37808L117.28 7.38058L117.968 8.52019ZM162.001 5.21544L161.534 6.46169L161.546 6.46587L162.001 5.21544ZM177.007 14.6831L176.072 15.6308L176.079 15.6374L177.007 14.6831ZM187.01 30.4923L185.764 30.9584L185.765 30.9622L187.01 30.4923ZM190.583 60.2351V61.5661H191.914V60.2351H190.583ZM106.267 60.2351H104.936V61.5661H106.267V60.2351ZM106.267 43.1754V41.8445H104.936V43.1754H106.267ZM177.185 43.1754L177.622 44.4328L177.185 41.8445V43.1754ZM164.324 47.6413H162.993V49.5124L164.76 48.8986L164.324 47.6413ZM155.035 25.7585L154.282 26.8559L154.294 26.8643L154.306 26.8725L155.035 25.7585ZM132.169 25.7585L131.436 24.6478L131.426 24.6544L132.169 25.7585ZM125.381 72.561L124.187 73.1488L124.191 73.1562L125.381 72.561ZM133.33 81.4034L132.634 82.5376L132.646 82.5447L132.657 82.5516L133.33 81.4034ZM160.036 79.1705L159.127 78.1985L159.119 78.206L159.111 78.2135L160.036 79.1705ZM164.145 72.9182L164.233 71.5902L163.238 71.5241L162.895 72.4609L164.145 72.9182ZM189.69 74.6153L190.994 74.8811L191.298 73.3882L189.778 73.2872L189.69 74.6153ZM181.83 90.6925L180.826 89.8188L180.825 89.8198L181.83 90.6925ZM166.557 101.321L167.051 102.557L167.061 102.553L166.557 101.321ZM309.644 81.0461L308.457 81.6487L308.462 81.6596L309.644 81.0461ZM309.644 26.6517L308.46 26.0419L308.457 26.0492L309.644 26.6517ZM326.435 8.52019L325.752 7.37808L325.748 7.38058L326.435 8.52019ZM370.469 5.21544L370.002 6.46169L370.013 6.46587L370.469 5.21544ZM385.474 14.6831L384.54 15.6308L384.547 15.6374L385.474 14.6831ZM395.478 30.4923L394.231 30.9584L394.233 30.9622L395.478 30.4923ZM399.051 60.2351V61.5661H400.381V60.2351H399.051ZM314.735 60.2351H313.404V61.5661H314.735V60.2351ZM314.735 43.1754V41.8445H313.404V43.1754H314.735ZM385.653 43.1754L386.089 44.4328L385.653 41.8445V43.1754ZM372.791 47.6413H371.46V49.5124L373.228 48.8986L372.791 47.6413ZM363.502 25.7585L362.749 26.8559L362.761 26.8643L362.774 26.8725L363.502 25.7585ZM340.637 25.7585L339.903 24.6478L339.894 24.6544L340.637 25.7585ZM333.849 72.561L332.655 73.1488L332.658 73.1562L333.849 72.561ZM341.798 81.4034L341.101 82.5376L341.113 82.5447L341.125 82.5516L341.798 81.4034ZM368.504 79.1705L367.595 78.1985L367.587 78.206L367.579 78.2135L368.504 79.1705ZM372.613 72.9182L372.701 71.5902L371.705 71.5241L371.363 72.4609L372.613 72.9182ZM398.157 74.6153L399.461 74.8811L399.766 73.3882L398.246 73.2872L398.157 74.6153ZM390.297 90.6925L389.293 89.8188L389.293 89.8198L390.297 90.6925ZM375.024 101.321L375.518 102.557L375.529 102.553L375.024 101.321ZM410.93 103.108H409.599V104.439H410.93V103.108ZM410.93 3.25045V1.9195H409.599V3.25045H410.93ZM498.104 3.25045H499.435V1.9195H498.104V3.25045ZM498.104 103.108V104.439H499.435V103.108H498.104ZM471.755 103.108H470.424V104.439H471.755V103.108ZM471.755 25.044H473.086V23.713H471.755V25.044ZM436.921 25.044V23.713H435.59V25.044H436.921ZM436.921 103.108V104.439H438.252V103.108H436.921ZM516.146 81.0461L514.959 81.6487L514.965 81.6596L516.146 81.0461ZM516.146 26.6517L514.963 26.0419L514.959 26.0492L516.146 26.6517ZM532.938 8.52019L532.254 7.37808L532.25 7.38058L532.938 8.52019ZM576.971 5.21544L576.504 6.46169L576.516 6.46587L576.971 5.21544ZM591.977 14.6831L591.042 15.6308L591.049 15.6374L591.977 14.6831ZM601.98 30.4923L600.734 30.9584L600.735 30.9622L601.98 30.4923ZM605.553 60.2351V61.5661H606.884V60.2351H605.553ZM521.237 60.2351H519.906V61.5661H521.237V60.2351ZM521.237 43.1754V41.8445H519.906V43.1754H521.237ZM592.155 43.1754L592.592 44.4328L592.155 41.8445V43.1754ZM579.294 47.6413H577.963V49.5124L579.73 48.8986L579.294 47.6413ZM570.005 25.7585L569.251 26.8559L569.264 26.8643L569.276 26.8725L570.005 25.7585ZM547.139 25.7585L546.406 24.6478L546.396 24.6544L547.139 25.7585ZM540.351 72.561L539.157 73.1488L539.161 73.1562L540.351 72.561ZM548.3 81.4034L547.604 82.5376L547.616 82.5447L547.627 82.5516L548.3 81.4034ZM575.006 79.1705L574.097 78.1985L574.089 78.206L574.081 78.2135L575.006 79.1705ZM579.115 72.9182L579.203 71.5902L578.208 71.5241L577.865 72.4609L579.115 72.9182ZM604.66 74.6153L605.964 74.8811L606.268 73.3882L604.748 73.2872L604.66 74.6153ZM596.8 90.6925L595.796 89.8188L595.795 89.8198L596.8 90.6925ZM581.527 101.321L582.021 102.557L582.031 102.553L581.527 101.321ZM683.885 68.631L685.135 69.0872L685.137 69.0818L683.885 68.631ZM683.885 38.0843L682.629 38.5255L682.633 38.5358L682.636 38.546L683.885 38.0843ZM653.963 27.6342L654.775 28.6891L654.778 28.6869L653.963 27.6342ZM646.818 37.8164L645.573 37.3454L645.57 37.3547L646.818 37.8164ZM654.053 79.0812L653.216 80.1166L653.227 80.1253L653.238 80.1339L654.053 79.0812ZM728.543 81.0461L727.357 81.6487L727.362 81.6596L728.543 81.0461ZM728.543 26.6517L727.36 26.0419L727.357 26.0492L728.543 26.6517ZM745.335 8.52019L744.652 7.37808L744.648 7.38058L745.335 8.52019ZM789.369 5.21544L788.901 6.46169L788.913 6.46587L789.369 5.21544ZM804.374 14.6831L803.44 15.6308L803.446 15.6374L804.374 14.6831ZM814.378 30.4923L813.131 30.9584L813.133 30.9622L814.378 30.4923ZM817.95 60.2351V61.5661H819.281V60.2351H817.95ZM733.635 60.2351H732.304V61.5661H733.635V60.2351ZM733.635 43.1754V41.8445H732.304V43.1754H733.635ZM804.553 43.1754L804.989 44.4328L804.553 41.8445V43.1754ZM791.691 47.6413H790.36V49.5124L792.128 48.8986L791.691 47.6413ZM782.402 25.7585L781.649 26.8559L781.661 26.8643L781.674 26.8725L782.402 25.7585ZM759.537 25.7585L758.803 24.6478L758.794 24.6544L759.537 25.7585ZM752.749 72.561L751.554 73.1488L751.558 73.1562L752.749 72.561ZM760.698 81.4034L760.001 82.5376L760.013 82.5447L760.025 82.5516L760.698 81.4034ZM787.404 79.1705L786.495 78.1985L786.487 78.206L786.479 78.2135L787.404 79.1705ZM791.512 72.9182L791.601 71.5902L790.605 71.5241L790.262 72.4609L791.512 72.9182ZM817.057 74.6153L818.361 74.8811L818.666 73.3882L817.145 73.2872L817.057 74.6153ZM809.197 90.6925L808.193 89.8188L808.192 89.8198L809.197 90.6925ZM793.924 101.321L794.418 102.557L794.428 102.553L793.924 101.321ZM821.88 132.314H820.549V133.645H821.88V132.314ZM821.88 81.2248V79.8938H820.549V81.2248H821.88ZM829.562 81.2248V82.5557H829.965L830.3 82.3322L829.562 81.2248ZM834.921 74.6153L836.121 75.1912L836.125 75.182L834.921 74.6153ZM838.315 63.8971L837.013 63.6183L837.012 63.6254L837.01 63.6325L838.315 63.8971ZM840.369 50.4995L839.047 50.3507L839.046 50.3589L839.045 50.3671L840.369 50.4995ZM841.709 36.03L840.382 35.9216L840.382 35.9329L841.709 36.03ZM844.388 3.25045V1.9195H843.162L843.062 3.14201L844.388 3.25045ZM920.844 3.25045H922.175V1.9195H920.844V3.25045ZM920.844 81.2248H919.513V82.5557H920.844V81.2248ZM936.386 81.2248H937.717V79.8938H936.386V81.2248ZM936.386 132.314V133.645H937.717V132.314H936.386ZM909.948 132.314H908.617V133.645H909.948V132.314ZM909.948 103.108H911.279V101.777H909.948V103.108ZM848.944 103.108V101.777H847.613V103.108H848.944ZM848.944 132.314V133.645H850.275V132.314H848.944ZM857.161 81.2248L856.04 80.5065L854.727 82.5557H857.161V81.2248ZM894.764 81.2248V82.5557H896.095V81.2248H894.764ZM894.764 24.5974H896.095V23.2664H894.764V24.5974ZM867.879 24.5974V23.2664H866.667L866.554 24.4731L867.879 24.5974ZM866.807 36.03L865.482 35.9058L865.48 35.9234L865.479 35.941L866.807 36.03ZM863.681 63.1826L864.99 63.4253L864.99 63.4235L863.681 63.1826ZM993.728 83.4577L994.341 84.639L994.349 84.6345L993.728 83.4577ZM1001.05 76.8482L999.93 76.1321L999.926 76.1384L1001.05 76.8482ZM1003.73 56.841H1005.06V54.4032L1003.01 55.7215L1003.73 56.841ZM1000.16 58.3595L999.767 57.0874L999.76 57.0896L999.753 57.0918L1000.16 58.3595ZM989.619 60.5924L989.789 61.9124L989.81 61.9097L989.831 61.9064L989.619 60.5924ZM984.617 61.3069L984.809 62.624L984.818 62.6227L984.827 62.6212L984.617 61.3069ZM976.043 63.6292L976.552 64.8586L976.565 64.8534L976.578 64.8479L976.043 63.6292ZM970.326 67.8271L969.27 67.0173L969.266 67.0227L970.326 67.8271ZM1133.96 3.25045H1135.29V1.9195H1133.96V3.25045ZM1133.96 103.108V104.439H1135.29V103.108H1133.96ZM1107.7 103.108H1106.37V104.439H1107.7V103.108ZM1107.7 3.25045V1.9195H1106.37V3.25045H1107.7ZM1121.09 47.1947H1122.43V45.3136L1120.65 45.9397L1121.09 47.1947ZM1121.09 68.9883L1121.65 70.1987L1122.43 69.8432V68.9883H1121.09ZM1113.15 71.6678L1112.81 70.3794L1112.81 70.381L1113.15 71.6678ZM1103.23 73.7221L1103.42 75.0401L1103.43 75.0388L1103.44 75.0373L1103.23 73.7221ZM1059.64 65.5942L1058.86 66.6719L1058.87 66.6756L1059.64 65.5942ZM1047.41 37.1912L1048.74 37.1973V37.1912H1047.41ZM1047.41 3.16113V1.83018H1046.08V3.16113H1047.41ZM1073.4 3.16113H1074.73V1.83018H1073.4V3.16113ZM1081.71 51.214L1081.29 52.4793L1081.3 52.4817L1081.71 51.214ZM1093.5 52.6431L1093.51 51.3123L1093.5 51.3122H1093.5V52.6431ZM144.852 103.742C134.793 103.742 126.184 101.696 118.975 97.6591L117.675 99.9816C125.353 104.281 134.429 106.404 144.852 106.404V103.742ZM118.975 97.6591C111.762 93.6198 106.229 87.8871 102.357 80.4327L99.995 81.6596C104.102 89.5678 110.002 95.6846 117.675 99.9816L118.975 97.6591ZM102.363 80.4436C98.5459 72.9253 96.6121 64 96.6121 53.6256H93.9502C93.9502 64.3302 95.9464 73.6853 99.9894 81.6487L102.363 80.4436ZM96.6121 53.6256C96.6121 43.5558 98.5433 34.7776 102.363 27.2542L99.9894 26.0492C95.949 34.0075 93.9502 43.212 93.9502 53.6256H96.6121ZM102.359 27.2614C106.24 19.7316 111.669 13.8747 118.655 9.6598L117.28 7.38058C109.857 11.8593 104.091 18.09 99.9931 26.0419L102.359 27.2614ZM118.651 9.66229C125.679 5.45704 133.95 3.33095 143.513 3.33095V0.669053C133.544 0.669053 124.785 2.88976 117.284 7.37809L118.651 9.66229ZM143.513 3.33095C149.976 3.33095 155.979 4.37852 161.534 6.46164L162.469 3.96923C156.591 1.7651 150.269 0.669053 143.513 0.669053V3.33095ZM161.546 6.46587C167.084 8.48525 171.923 11.5386 176.072 15.6308L177.941 13.7354C173.517 9.37219 168.351 6.11378 162.457 3.965L161.546 6.46587ZM176.079 15.6374C180.207 19.6507 183.441 24.746 185.764 30.9584L188.257 30.0263C185.816 23.496 182.381 18.0519 177.935 13.7288L176.079 15.6374ZM185.765 30.9622C188.078 37.0902 189.252 44.3377 189.252 52.7324H191.914C191.914 44.0973 190.707 36.518 188.256 30.0224L185.765 30.9622ZM189.252 52.7324V60.2351H191.914V52.7324H189.252ZM190.583 58.9042H106.267V61.5661H190.583V58.9042ZM107.598 60.2351V43.1754H104.936V60.2351H107.598ZM106.267 44.5064H177.185V41.8445H106.267V44.5064ZM176.749 41.9181L163.887 46.384L164.76 48.8986L177.622 44.4328L176.749 41.9181ZM165.655 47.6413C165.655 42.4474 164.861 37.8614 163.232 33.9146L160.771 34.9301C162.239 38.4859 162.993 42.7126 162.993 47.6413H165.655ZM163.232 33.9146C161.592 29.9403 159.106 26.8301 155.763 24.6445L154.306 26.8725C157.156 28.7359 159.315 31.4016 160.771 34.9301L163.232 33.9146ZM155.788 24.6611C152.483 22.3932 148.423 21.3014 143.691 21.3014V23.9633C148.01 23.9633 151.513 24.9557 154.282 26.8559L155.788 24.6611ZM143.691 21.3014C138.957 21.3014 134.849 22.3939 131.436 24.6479L132.903 26.8691C135.801 24.955 139.375 23.9633 143.691 23.9633V21.3014ZM131.426 24.6544C128.118 26.8812 125.581 29.9019 123.818 33.6808L126.23 34.8065C127.801 31.4401 130.028 28.804 132.913 26.8626L131.426 24.6544ZM123.818 33.6808C122.055 37.4584 121.192 41.7648 121.192 46.5695H123.854C123.854 42.0852 124.658 38.1743 126.23 34.8065L123.818 33.6808ZM121.192 46.5695V58.6274H123.854V46.5695H121.192ZM121.192 58.6274C121.192 64.199 122.172 69.0548 124.187 73.1488L126.575 71.9731C124.78 68.3263 123.854 63.893 123.854 58.6274H121.192ZM124.191 73.1562C126.199 77.1732 129.013 80.3144 132.634 82.5376L134.027 80.2692C130.859 78.3243 128.374 75.5705 126.572 71.9657L124.191 73.1562ZM132.657 82.5516C136.338 84.7092 140.535 85.7712 145.21 85.7712V83.1093C140.952 83.1093 137.23 82.1467 134.004 80.2552L132.657 82.5516ZM145.21 85.7712C148.434 85.7712 151.387 85.3061 154.053 84.3539L153.158 81.847C150.822 82.6812 148.178 83.1093 145.21 83.1093V85.7712ZM154.053 84.3539C156.72 83.4014 159.03 81.9948 160.962 80.1274L159.111 78.2135C157.471 79.7998 155.493 81.0131 153.158 81.847L154.053 84.3539ZM160.946 80.1424C162.948 78.269 164.432 76.007 165.395 73.3755L162.895 72.4609C162.072 74.7122 160.816 76.6183 159.127 78.1985L160.946 80.1424ZM164.057 74.2462L189.602 75.9433L189.778 73.2872L164.233 71.5902L164.057 74.2462ZM188.386 74.3494C187.18 80.2645 184.66 85.4124 180.826 89.8188L182.834 91.5661C186.979 86.8025 189.699 81.2324 190.994 74.8811L188.386 74.3494ZM180.825 89.8198C177.048 94.169 172.137 97.5979 166.052 100.09L167.061 102.553C173.481 99.9237 178.752 96.2667 182.835 91.5651L180.825 89.8198ZM166.062 100.085C159.998 102.511 152.937 103.742 144.852 103.742V106.404C153.203 106.404 160.611 105.133 167.051 102.557L166.062 100.085ZM353.32 103.742C343.26 103.742 334.651 101.696 327.443 97.6591L326.142 99.9816C333.82 104.281 342.896 106.404 353.32 106.404V103.742ZM327.443 97.6591C320.23 93.6198 314.696 87.8871 310.825 80.4327L308.462 81.6596C312.57 89.5678 318.469 95.6846 326.142 99.9816L327.443 97.6591ZM310.83 80.4436C307.013 72.9253 305.08 64 305.08 53.6256H302.418C302.418 64.3302 304.414 73.6853 308.457 81.6487L310.83 80.4436ZM305.08 53.6256C305.08 43.5558 307.011 34.7776 310.83 27.2542L308.457 26.0492C304.416 34.0075 302.418 43.212 302.418 53.6256H305.08ZM310.827 27.2614C314.707 19.7316 320.137 13.8747 327.123 9.6598L325.748 7.38058C318.324 11.8593 312.559 18.09 308.46 26.0419L310.827 27.2614ZM327.119 9.66229C334.147 5.45704 342.418 3.33095 351.98 3.33095V0.669053C342.012 0.669053 333.253 2.88976 325.752 7.37809L327.119 9.66229ZM351.98 3.33095C358.443 3.33095 364.447 4.37852 370.002 6.46164L370.936 3.96923C365.059 1.7651 358.736 0.669053 351.98 0.669053V3.33095ZM370.013 6.46587C375.552 8.48525 380.39 11.5386 384.54 15.6308L386.409 13.7354C381.984 9.37219 376.819 6.11378 370.925 3.965L370.013 6.46587ZM384.547 15.6374C388.674 19.6507 391.909 24.746 394.231 30.9584L396.725 30.0263C394.283 23.496 390.849 18.0519 386.402 13.7288L384.547 15.6374ZM394.233 30.9622C396.545 37.0902 397.72 44.3377 397.72 52.7324H400.381C400.381 44.0973 399.174 36.518 396.723 30.0224L394.233 30.9622ZM397.72 52.7324V60.2351H400.381V52.7324H397.72ZM399.051 58.9042H314.735V61.5661H399.051V58.9042ZM316.066 60.2351V43.1754H313.404V60.2351H316.066ZM314.735 44.5064H385.653V41.8445H314.735V44.5064ZM385.216 41.9181L372.355 46.384L373.228 48.8986L386.089 44.4328L385.216 41.9181ZM374.122 47.6413C374.122 42.4474 373.328 37.8614 371.699 33.9146L369.239 34.9301C370.706 38.4859 371.46 42.7126 371.46 47.6413H374.122ZM371.699 33.9146C370.059 29.9403 367.573 26.8301 364.23 24.6445L362.774 26.8725C365.624 28.7359 367.782 31.4016 369.239 34.9301L371.699 33.9146ZM364.255 24.6611C360.951 22.3932 356.891 21.3014 352.159 21.3014V23.9633C356.477 23.9633 359.98 24.9557 362.749 26.8559L364.255 24.6611ZM352.159 21.3014C347.425 21.3014 343.317 22.3939 339.903 24.6479L341.37 26.8691C344.269 24.955 347.842 23.9633 352.159 23.9633V21.3014ZM339.894 24.6544C336.585 26.8812 334.049 29.9019 332.285 33.6808L334.697 34.8065C336.268 31.4401 338.496 28.804 341.38 26.8626L339.894 24.6544ZM332.285 33.6808C330.522 37.4584 329.66 41.7648 329.66 46.5695H332.321C332.321 42.0852 333.126 38.1743 334.697 34.8065L332.285 33.6808ZM329.66 46.5695V58.6274H332.321V46.5695H329.66ZM329.66 58.6274C329.66 64.199 330.639 69.0548 332.655 73.1488L335.043 71.9731C333.247 68.3263 332.321 63.893 332.321 58.6274H329.66ZM332.658 73.1562C334.667 77.1731 337.481 80.3144 341.101 82.5376L342.494 80.2692C339.327 78.3243 336.841 75.5705 335.039 71.9657L332.658 73.1562ZM341.125 82.5516C344.805 84.7092 349.003 85.7712 353.677 85.7712V83.1093C349.42 83.1093 345.698 82.1467 342.471 80.2552L341.125 82.5516ZM353.677 85.7712C356.901 85.7712 359.854 85.3061 362.521 84.3539L361.625 81.847C359.29 82.6812 356.646 83.1093 353.677 83.1093V85.7712ZM362.521 84.3539C365.188 83.4014 367.497 81.9948 369.429 80.1274L367.579 78.2135C365.938 79.7998 363.96 81.0131 361.625 81.847L362.521 84.3539ZM369.413 80.1424C371.416 78.269 372.9 76.007 373.862 73.3755L371.363 72.4609C370.539 74.7122 369.284 76.6183 367.595 78.1985L369.413 80.1424ZM372.524 74.2462L398.069 75.9433L398.246 73.2872L372.701 71.5902L372.524 74.2462ZM396.853 74.3494C395.647 80.2645 393.127 85.4124 389.293 89.8188L391.301 91.5661C395.446 86.8025 398.167 81.2324 399.461 74.8811L396.853 74.3494ZM389.293 89.8198C385.516 94.169 380.604 97.5979 374.52 100.09L375.529 102.553C381.949 99.9237 387.219 96.2667 391.302 91.5651L389.293 89.8198ZM374.53 100.085C368.465 102.511 361.404 103.742 353.32 103.742V106.404C361.67 106.404 369.078 105.133 375.518 102.557L374.53 100.085ZM412.261 103.108V3.25045H409.599V103.108H412.261ZM410.93 4.58139H498.104V1.9195H410.93V4.58139ZM496.773 3.25045V103.108H499.435V3.25045H496.773ZM498.104 101.777H471.755V104.439H498.104V101.777ZM473.086 103.108V25.044H470.424V103.108H473.086ZM471.755 23.713H436.921V26.3749H471.755V23.713ZM435.59 25.044V103.108H438.252V25.044H435.59ZM436.921 101.777H410.93V104.439H436.921V101.777ZM559.822 103.742C549.763 103.742 541.154 101.696 533.945 97.6591L532.645 99.9816C540.323 104.281 549.398 106.404 559.822 106.404V103.742ZM533.945 97.6591C526.732 93.6198 521.199 87.8871 517.327 80.4327L514.965 81.6596C519.072 89.5678 524.971 95.6846 532.645 99.9816L533.945 97.6591ZM517.333 80.4436C513.516 72.9253 511.582 64 511.582 53.6256H508.92C508.92 64.3302 510.916 73.6853 514.959 81.6487L517.333 80.4436ZM511.582 53.6256C511.582 43.5558 513.513 34.7776 517.333 27.2542L514.959 26.0492C510.919 34.0075 508.92 43.212 508.92 53.6256H511.582ZM517.329 27.2614C521.21 19.7316 526.639 13.8747 533.625 9.6598L532.25 7.38058C524.827 11.8593 519.061 18.09 514.963 26.0419L517.329 27.2614ZM533.621 9.66229C540.649 5.45704 548.92 3.33095 558.483 3.33095V0.669053C548.514 0.669053 539.755 2.88976 532.254 7.37809L533.621 9.66229ZM558.483 3.33095C564.946 3.33095 570.949 4.37852 576.504 6.46164L577.439 3.96923C571.561 1.7651 565.238 0.669053 558.483 0.669053V3.33095ZM576.516 6.46587C582.054 8.48525 586.892 11.5386 591.042 15.6308L592.911 13.7354C588.487 9.37219 583.321 6.11378 577.427 3.965L576.516 6.46587ZM591.049 15.6374C595.177 19.6507 598.411 24.746 600.734 30.9584L603.227 30.0263C600.786 23.4961 597.351 18.0519 592.905 13.7288L591.049 15.6374ZM600.735 30.9622C603.047 37.0902 604.222 44.3377 604.222 52.7324H606.884C606.884 44.0973 605.677 36.518 603.226 30.0224L600.735 30.9622ZM604.222 52.7324V60.2351H606.884V52.7324H604.222ZM605.553 58.9042H521.237V61.5661H605.553V58.9042ZM522.568 60.2351V43.1754H519.906V60.2351H522.568ZM521.237 44.5064H592.155V41.8445H521.237V44.5064ZM591.719 41.9181L578.857 46.384L579.73 48.8986L592.592 44.4328L591.719 41.9181ZM580.625 47.6413C580.625 42.4474 579.831 37.8614 578.202 33.9146L575.741 34.9301C577.209 38.4859 577.963 42.7126 577.963 47.6413H580.625ZM578.202 33.9146C576.562 29.9403 574.076 26.8301 570.733 24.6445L569.276 26.8725C572.126 28.7359 574.285 31.4016 575.741 34.9301L578.202 33.9146ZM570.758 24.6611C567.453 22.3932 563.393 21.3014 558.661 21.3014V23.9633C562.98 23.9633 566.483 24.9557 569.251 26.8559L570.758 24.6611ZM558.661 21.3014C553.927 21.3014 549.819 22.3939 546.406 24.6479L547.873 26.8691C550.771 24.955 554.345 23.9633 558.661 23.9633V21.3014ZM546.396 24.6544C543.088 26.8812 540.551 29.9019 538.788 33.6808L541.2 34.8065C542.771 31.4401 544.998 28.804 547.882 26.8626L546.396 24.6544ZM538.788 33.6808C537.025 37.4584 536.162 41.7648 536.162 46.5695H538.824C538.824 42.0852 539.628 38.1743 541.2 34.8065L538.788 33.6808ZM536.162 46.5695V58.6274H538.824V46.5695H536.162ZM536.162 58.6274C536.162 64.199 537.142 69.0548 539.157 73.1488L541.545 71.9731C539.75 68.3263 538.824 63.893 538.824 58.6274H536.162ZM539.161 73.1562C541.169 77.1732 543.983 80.3144 547.604 82.5376L548.997 80.2692C545.829 78.3243 543.344 75.5705 541.542 71.9657L539.161 73.1562ZM547.627 82.5516C551.308 84.7092 555.505 85.7712 560.18 85.7712V83.1093C555.922 83.1093 552.2 82.1467 548.974 80.2552L547.627 82.5516ZM560.18 85.7712C563.404 85.7712 566.357 85.3061 569.023 84.3539L568.128 81.847C565.792 82.6812 563.148 83.1093 560.18 83.1093V85.7712ZM569.023 84.3539C571.69 83.4014 574 81.9948 575.931 80.1274L574.081 78.2135C572.44 79.7998 570.463 81.0131 568.128 81.847L569.023 84.3539ZM575.916 80.1424C577.918 78.269 579.402 76.007 580.365 73.3755L577.865 72.4609C577.041 74.7122 575.786 76.6183 574.097 78.1985L575.916 80.1424ZM579.027 74.2462L604.572 75.9433L604.748 73.2872L579.203 71.5902L579.027 74.2462ZM603.356 74.3494C602.15 80.2645 599.63 85.4124 595.796 89.8188L597.804 91.5661C601.949 86.8025 604.669 81.2324 605.964 74.8811L603.356 74.3494ZM595.795 89.8198C592.018 94.169 587.107 97.5979 581.022 100.09L582.031 102.553C588.451 99.9237 593.722 96.2667 597.805 91.5651L595.795 89.8198ZM581.032 100.085C574.968 102.511 567.907 103.742 559.822 103.742V106.404C568.173 106.404 575.581 105.133 582.021 102.557L581.032 100.085ZM665.396 84.0741C670.182 84.0741 674.3 82.7453 677.665 80.0272L675.992 77.9564C673.165 80.2402 669.661 81.4122 665.396 81.4122V84.0741ZM677.665 80.0272C680.98 77.3492 683.459 73.6797 685.135 69.0872L682.634 68.1748C681.095 72.395 678.869 75.6327 675.992 77.9564L677.665 80.0272ZM685.137 69.0818C686.807 64.4438 687.627 59.1656 687.627 53.2683H684.965C684.965 58.9228 684.178 63.8864 682.632 68.1802L685.137 69.0818ZM687.627 53.2683C687.627 47.3722 686.807 42.1486 685.133 37.6226L682.636 38.546C684.178 42.7137 684.965 47.6127 684.965 53.2683H687.627ZM685.14 37.6432C683.525 33.0446 681.074 29.3695 677.754 26.6881L676.082 28.7589C678.954 31.0793 681.148 34.3114 682.629 38.5255L685.14 37.6432ZM677.754 26.6881C674.386 23.9675 670.237 22.6412 665.396 22.6412V25.3031C669.725 25.3031 673.257 26.4777 676.082 28.7589L677.754 26.6881ZM665.396 22.6412C660.672 22.6412 656.566 23.9383 653.149 26.5815L654.778 28.6869C657.673 26.4473 661.188 25.3031 665.396 25.3031V22.6412ZM653.152 26.5792C649.823 29.1401 647.31 32.7558 645.573 37.3454L648.063 38.2874C649.661 34.0643 651.911 30.8918 654.775 28.6891L653.152 26.5792ZM645.57 37.3547C643.894 41.8846 643.075 47.199 643.075 53.2683H645.737C645.737 47.4287 646.526 42.4417 648.066 38.2781L645.57 37.3547ZM643.075 53.2683C643.075 59.2854 643.926 64.602 645.662 69.1913L648.152 68.2493C646.554 64.026 645.737 59.0413 645.737 53.2683H643.075ZM645.662 69.1913C647.398 73.7779 649.905 77.4419 653.216 80.1166L654.889 78.0458C652.008 75.7186 649.751 72.4754 648.152 68.2493L645.662 69.1913ZM653.238 80.1339C656.652 82.7745 660.727 84.0741 665.396 84.0741V81.4122C661.252 81.4122 657.765 80.2705 654.867 78.0284L653.238 80.1339ZM772.22 103.742C762.16 103.742 753.551 101.696 746.343 97.6591L745.042 99.9816C752.72 104.281 761.796 106.404 772.22 106.404V103.742ZM746.343 97.6591C739.13 93.6198 733.596 87.8871 729.725 80.4327L727.362 81.6596C731.47 89.5678 737.369 95.6846 745.042 99.9816L746.343 97.6591ZM729.73 80.4436C725.913 72.9253 723.979 64 723.979 53.6256H721.318C721.318 64.3302 723.314 73.6853 727.357 81.6487L729.73 80.4436ZM723.979 53.6256C723.979 43.5558 725.911 34.7776 729.73 27.2542L727.357 26.0492C723.316 34.0075 721.318 43.212 721.318 53.6256H723.979ZM729.727 27.2614C733.607 19.7316 739.036 13.8747 746.023 9.6598L744.648 7.38058C737.224 11.8593 731.459 18.09 727.36 26.0419L729.727 27.2614ZM746.019 9.66229C753.047 5.45704 761.318 3.33095 770.88 3.33095V0.669053C760.912 0.669053 752.153 2.88976 744.652 7.37809L746.019 9.66229ZM770.88 3.33095C777.343 3.33095 783.346 4.37852 788.901 6.46164L789.836 3.96923C783.958 1.7651 777.636 0.669053 770.88 0.669053V3.33095ZM788.913 6.46587C794.452 8.48525 799.29 11.5386 803.44 15.6308L805.309 13.7354C800.884 9.37219 795.718 6.11378 789.825 3.965L788.913 6.46587ZM803.446 15.6374C807.574 19.6507 810.809 24.746 813.131 30.9584L815.624 30.0263C813.183 23.496 809.748 18.0519 805.302 13.7288L803.446 15.6374ZM813.133 30.9622C815.445 37.0902 816.62 44.3377 816.62 52.7324H819.281C819.281 44.0973 818.074 36.518 815.623 30.0224L813.133 30.9622ZM816.62 52.7324V60.2351H819.281V52.7324H816.62ZM817.95 58.9042H733.635V61.5661H817.95V58.9042ZM734.966 60.2351V43.1754H732.304V60.2351H734.966ZM733.635 44.5064H804.553V41.8445H733.635V44.5064ZM804.116 41.9181L791.254 46.384L792.128 48.8986L804.989 44.4328L804.116 41.9181ZM793.022 47.6413C793.022 42.4474 792.228 37.8614 790.599 33.9146L788.138 34.9301C789.606 38.4859 790.36 42.7126 790.36 47.6413H793.022ZM790.599 33.9146C788.959 29.9403 786.473 26.8301 783.13 24.6445L781.674 26.8725C784.524 28.7359 786.682 31.4016 788.138 34.9301L790.599 33.9146ZM783.155 24.6611C779.85 22.3932 775.791 21.3014 771.059 21.3014V23.9633C775.377 23.9633 778.88 24.9557 781.649 26.8559L783.155 24.6611ZM771.059 21.3014C766.324 21.3014 762.216 22.3939 758.803 24.6479L760.27 26.8691C763.169 24.955 766.742 23.9633 771.059 23.9633V21.3014ZM758.794 24.6544C755.485 26.8812 752.949 29.9019 751.185 33.6808L753.597 34.8065C755.168 31.4401 757.396 28.804 760.28 26.8626L758.794 24.6544ZM751.185 33.6808C749.422 37.4584 748.559 41.7648 748.559 46.5695H751.221C751.221 42.0852 752.026 38.1743 753.597 34.8065L751.185 33.6808ZM748.559 46.5695V58.6274H751.221V46.5695H748.559ZM748.559 58.6274C748.559 64.199 749.539 69.0548 751.554 73.1488L753.943 71.9731C752.147 68.3263 751.221 63.893 751.221 58.6274H748.559ZM751.558 73.1562C753.567 77.1732 756.381 80.3144 760.001 82.5376L761.394 80.2692C758.227 78.3243 755.741 75.5705 753.939 71.9657L751.558 73.1562ZM760.025 82.5516C763.705 84.7092 767.903 85.7712 772.577 85.7712V83.1093C768.32 83.1093 764.598 82.1467 761.371 80.2552L760.025 82.5516ZM772.577 85.7712C775.801 85.7712 778.754 85.3061 781.421 84.3539L780.525 81.847C778.19 82.6812 775.546 83.1093 772.577 83.1093V85.7712ZM781.421 84.3539C784.087 83.4014 786.397 81.9948 788.329 80.1274L786.479 78.2135C784.838 79.7998 782.86 81.0131 780.525 81.847L781.421 84.3539ZM788.313 80.1424C790.316 78.269 791.8 76.007 792.762 73.3755L790.262 72.4609C789.439 74.7122 788.184 76.6183 786.495 78.1985L788.313 80.1424ZM791.424 74.2462L816.969 75.9433L817.145 73.2872L791.601 71.5902L791.424 74.2462ZM815.753 74.3494C814.547 80.2645 812.027 85.4124 808.193 89.8188L810.201 91.5661C814.346 86.8025 817.066 81.2324 818.361 74.8811L815.753 74.3494ZM808.192 89.8198C804.415 94.169 799.504 97.5979 793.42 100.09L794.428 102.553C800.849 99.9237 806.119 96.2667 810.202 91.5651L808.192 89.8198ZM793.43 100.085C787.365 102.511 780.304 103.742 772.22 103.742V106.404C780.57 106.404 787.978 105.133 794.418 102.557L793.43 100.085ZM823.211 132.314V81.2248H820.549V132.314H823.211ZM821.88 82.5557H829.562V79.8938H821.88V82.5557ZM830.3 82.3322C832.691 80.7382 834.617 78.3242 836.121 75.1912L833.721 74.0393C832.367 76.8608 830.72 78.8532 828.823 80.1174L830.3 82.3322ZM836.125 75.182C837.609 72.0285 838.769 68.3501 839.619 64.1618L837.01 63.6325C836.193 67.6614 835.091 71.1284 833.716 74.0486L836.125 75.182ZM839.616 64.176C840.521 59.9541 841.213 55.4389 841.693 50.6319L839.045 50.3671C838.573 55.0874 837.895 59.5039 837.013 63.6183L839.616 64.176ZM841.692 50.6483C842.23 45.8671 842.678 41.0267 843.036 36.1272L840.382 35.9329C840.026 40.7987 839.58 45.6046 839.047 50.3507L841.692 50.6483ZM843.035 36.1385L845.715 3.35888L843.062 3.14201L840.382 35.9216L843.035 36.1385ZM844.388 4.58139H920.844V1.9195H844.388V4.58139ZM919.513 3.25045V81.2248H922.175V3.25045H919.513ZM920.844 82.5557H936.386V79.8938H920.844V82.5557ZM935.055 81.2248V132.314H937.717V81.2248H935.055ZM936.386 130.984H909.948V133.645H936.386V130.984ZM911.279 132.314V103.108H908.617V132.314H911.279ZM909.948 101.777H848.944V104.439H909.948V101.777ZM847.613 103.108V132.314H850.275V103.108H847.613ZM848.944 130.984H821.88V133.645H848.944V130.984ZM857.161 82.5557H894.764V79.8938H857.161V82.5557ZM896.095 81.2248V24.5974H893.433V81.2248H896.095ZM894.764 23.2664H867.879V25.9283H894.764V23.2664ZM866.554 24.4731L865.482 35.9058L868.132 36.1543L869.204 24.7216L866.554 24.4731ZM865.479 35.941C864.767 46.5676 863.73 55.5645 862.372 62.9418L864.99 63.4235C866.372 55.9144 867.418 46.8097 868.135 36.1191L865.479 35.941ZM862.372 62.9399C861.024 70.2116 858.898 76.0489 856.04 80.5065L858.281 81.943C861.378 77.1116 863.599 70.9208 864.99 63.4253L862.372 62.9399ZM983.009 87.2002C987.238 87.2002 991.027 86.3597 994.341 84.6389L993.114 82.2765C990.236 83.7711 986.879 84.5383 983.009 84.5383V87.2002ZM994.349 84.6345C997.69 82.8698 1000.31 80.5139 1002.18 77.558L999.926 76.1384C998.336 78.6607 996.077 80.7111 993.106 82.2809L994.349 84.6345ZM1002.17 77.5643C1004.1 74.5429 1005.06 71.1665 1005.06 67.4699H1002.4C1002.4 70.6805 1001.57 73.5562 999.93 76.1321L1002.17 77.5643ZM1005.06 67.4699V56.841H1002.4V67.4699H1005.06ZM1003.01 55.7215C1002.32 56.1637 1001.26 56.6272 999.767 57.0874L1000.55 59.6315C1002.15 59.139 1003.47 58.5902 1004.45 57.9606L1003.01 55.7215ZM999.753 57.0918C998.323 57.5493 996.708 57.954 994.904 58.3032L995.41 60.9166C997.297 60.5513 999.017 60.1223 1000.56 59.6271L999.753 57.0918ZM994.904 58.3032C993.071 58.6578 991.239 58.9829 989.407 59.2784L989.831 61.9064C991.691 61.6064 993.55 61.2765 995.41 60.9166L994.904 58.3032ZM989.449 59.2724C987.592 59.5119 985.911 59.752 984.407 59.9927L984.827 62.6212C986.3 62.3855 987.954 62.1492 989.789 61.9124L989.449 59.2724ZM984.426 59.9898C981.059 60.4795 978.081 61.2807 975.508 62.4105L976.578 64.8479C978.887 63.8341 981.625 63.0871 984.809 62.624L984.426 59.9898ZM975.533 62.3997C972.914 63.4858 970.805 65.0155 969.27 67.0173L971.383 68.6369C972.587 67.066 974.289 65.7971 976.552 64.8586L975.533 62.3997ZM969.266 67.0227C967.746 69.0261 967.03 71.4992 967.03 74.3473H969.692C969.692 71.9555 970.287 70.0817 971.387 68.6315L969.266 67.0227ZM967.03 74.3473C967.03 78.4714 968.563 81.7573 971.694 84.0033L973.246 81.8404C970.898 80.1564 969.692 77.7259 969.692 74.3473H967.03ZM971.694 84.0033C974.714 86.1698 978.52 87.2002 983.009 87.2002V84.5383C978.925 84.5383 975.704 83.6038 973.246 81.8404L971.694 84.0033ZM1132.63 3.25045V103.108H1135.29V3.25045H1132.63ZM1133.96 101.777H1107.7V104.439H1133.96V101.777ZM1109.03 103.108V3.25045H1106.37V103.108H1109.03ZM1107.7 4.58139H1133.96V1.9195H1107.7V4.58139ZM1119.76 47.1947V68.9883H1122.43V47.1947H1119.76ZM1120.54 67.7778C1118.55 68.6874 1115.98 69.5574 1112.81 70.3794L1113.48 72.9561C1116.74 72.1109 1119.47 71.1946 1121.65 70.1987L1120.54 67.7778ZM1112.81 70.381C1109.7 71.202 1106.44 71.8776 1103.03 72.4069L1103.44 75.0373C1106.93 74.4948 1110.28 73.8008 1113.49 72.9546L1112.81 70.381ZM1103.05 72.4041C1099.71 72.8727 1096.52 73.1057 1093.5 73.1057V75.7676C1096.66 75.7676 1099.97 75.5242 1103.42 75.0401L1103.05 72.4041ZM1093.5 73.1057C1079.31 73.1057 1068.33 70.1903 1060.42 64.5127L1058.87 66.6756C1067.39 72.788 1078.98 75.7676 1093.5 75.7676V73.1057ZM1060.43 64.5164C1052.65 58.8825 1048.68 49.8821 1048.74 37.1973L1046.08 37.1851C1046.02 50.4619 1050.2 60.3969 1058.86 66.6719L1060.43 64.5164ZM1048.74 37.1912V3.16113H1046.08V37.1912H1048.74ZM1047.41 4.49208H1073.4V1.83018H1047.41V4.49208ZM1072.07 3.16113V37.1912H1074.73V3.16113H1072.07ZM1072.07 37.1912C1072.07 41.1911 1072.74 44.5177 1074.21 47.0577L1076.52 45.724C1075.37 43.7386 1074.73 40.9321 1074.73 37.1912H1072.07ZM1074.21 47.0577C1075.71 49.6523 1078.12 51.4436 1081.29 52.4792L1082.12 49.9488C1079.46 49.0791 1077.63 47.6549 1076.52 45.724L1074.21 47.0577ZM1081.3 52.4817C1084.46 53.493 1088.54 53.9741 1093.5 53.9741V51.3122C1088.68 51.3122 1084.91 50.8405 1082.11 49.9464L1081.3 52.4817ZM1093.48 53.974C1098.1 54.0348 1102.67 53.5783 1107.17 52.6042L1106.61 50.0025C1102.3 50.9339 1097.94 51.3705 1093.51 51.3123L1093.48 53.974ZM1107.17 52.6042C1111.64 51.6377 1116.43 50.2514 1121.54 48.4498L1120.65 45.9397C1115.63 47.7108 1110.95 49.0636 1106.61 50.0025L1107.17 52.6042Z" fill="black" mask="url(#path-1-outside-1_913_1925)"/>
<circle cx="33.4617" cy="102.841" r="2.7332" fill="#131313"/>
<circle cx="265.462" cy="102.841" r="2.7332" fill="#131313"/>
<circle cx="617.462" cy="138.841" r="2.7332" fill="#131313"/>
<circle cx="1004.46" cy="102.841" r="2.7332" fill="#131313"/>
<circle cx="1213.46" cy="102.841" r="2.7332" fill="#131313"/>
<circle cx="59.4617" cy="102.841" r="2.7332" fill="#131313"/>
<circle cx="291.462" cy="102.841" r="2.7332" fill="#131313"/>
<circle cx="644.462" cy="138.841" r="2.7332" fill="#131313"/>
<circle cx="1031.46" cy="102.841" r="2.7332" fill="#131313"/>
<circle cx="1239.46" cy="102.841" r="2.7332" fill="#131313"/>
</svg>
