<svg width="569" height="154" viewBox="0 0 569 154" fill="none" xmlns="http://www.w3.org/2000/svg">
<path d="M62.0826 81.1645V98.4932H20.3362V81.1645H62.0826ZM27.64 49.9442V130H6.51617V49.9442H27.64ZM75.9742 49.9442V130H54.9936V49.9442H75.9742ZM123.558 131.575C115.49 131.575 108.497 129.857 102.577 126.42C96.7057 122.935 92.1706 118.113 88.9722 111.955C85.8215 105.749 84.2462 98.541 84.2462 90.3301C84.2462 82.0238 85.8215 74.7916 88.9722 68.6334C92.1706 62.4276 96.7057 57.6061 102.577 54.169C108.497 50.6841 115.49 48.9417 123.558 48.9417C131.673 48.9417 138.667 50.6841 144.539 54.169C150.458 57.6061 154.993 62.4276 158.144 68.6334C161.342 74.7916 162.941 82.0238 162.941 90.3301C162.941 98.541 161.342 105.749 158.144 111.955C154.993 118.113 150.458 122.935 144.539 126.42C138.667 129.857 131.673 131.575 123.558 131.575ZM123.701 114.247C127.377 114.247 130.456 113.22 132.938 111.168C135.421 109.067 137.283 106.203 138.524 102.575C139.813 98.9468 140.457 94.8175 140.457 90.1869C140.457 85.5086 139.813 81.3793 138.524 77.799C137.283 74.2187 135.421 71.4022 132.938 69.3495C130.456 67.2968 127.377 66.2704 123.701 66.2704C119.978 66.2704 116.851 67.2968 114.321 69.3495C111.838 71.4022 109.953 74.2187 108.664 77.799C107.423 81.3793 106.802 85.5086 106.802 90.1869C106.802 94.8175 107.423 98.9468 108.664 102.575C109.953 106.203 111.838 109.067 114.321 111.168C116.851 113.22 119.978 114.247 123.701 114.247ZM171.285 130V49.9442H205.298C215.18 49.9919 222.985 51.9014 228.713 55.6727C234.442 59.3962 237.306 64.719 237.306 71.6409C237.306 75.9373 235.683 79.5415 232.437 82.4534C229.238 85.3177 224.775 87.2749 219.046 88.3252C223.82 88.6593 227.902 89.7334 231.291 91.5474C234.68 93.3615 237.282 95.7245 239.096 98.6365C240.91 101.501 241.817 104.675 241.817 108.16C241.817 112.695 240.576 116.61 238.094 119.904C235.659 123.15 232.127 125.656 227.496 127.422C222.865 129.141 217.232 130 210.597 130H171.285ZM191.908 113.387H210.597C213.652 113.387 216.063 112.647 217.829 111.168C219.595 109.688 220.455 107.659 220.407 105.081C220.455 102.265 219.595 100.045 217.829 98.4216C216.063 96.7508 213.652 95.9154 210.597 95.9154H191.908V113.387ZM191.908 82.8831H205.799C209.141 82.9308 211.743 82.2386 213.604 80.8065C215.466 79.3266 216.397 77.3455 216.397 74.8632C216.397 72.4286 215.395 70.5191 213.39 69.1347C211.432 67.7026 208.735 66.9865 205.298 66.9865H191.908V82.8831ZM285.606 131.575C277.538 131.575 270.545 129.857 264.625 126.42C258.754 122.935 254.218 118.113 251.02 111.955C247.869 105.749 246.294 98.541 246.294 90.3301C246.294 82.0238 247.869 74.7916 251.02 68.6334C254.218 62.4276 258.754 57.6061 264.625 54.169C270.545 50.6841 277.538 48.9417 285.606 48.9417C293.721 48.9417 300.715 50.6841 306.587 54.169C312.506 57.6061 317.041 62.4276 320.192 68.6334C323.39 74.7916 324.989 82.0238 324.989 90.3301C324.989 98.541 323.39 105.749 320.192 111.955C317.041 118.113 312.506 122.935 306.587 126.42C300.715 129.857 293.721 131.575 285.606 131.575ZM285.749 114.247C289.425 114.247 292.504 113.22 294.986 111.168C297.469 109.067 299.33 106.203 300.572 102.575C301.861 98.9468 302.505 94.8175 302.505 90.1869C302.505 85.5086 301.861 81.3793 300.572 77.799C299.33 74.2187 297.469 71.4022 294.986 69.3495C292.504 67.2968 289.425 66.2704 285.749 66.2704C282.026 66.2704 278.899 67.2968 276.369 69.3495C273.886 71.4022 272.001 74.2187 270.712 77.799C269.471 81.3793 268.85 85.5086 268.85 90.1869C268.85 94.8175 269.471 98.9468 270.712 102.575C272.001 106.203 273.886 109.067 276.369 111.168C278.899 113.22 282.026 114.247 285.749 114.247ZM369.351 131.575C361.188 131.575 354.17 129.833 348.299 126.348C342.427 122.816 337.916 117.97 334.765 111.812C331.614 105.606 330.039 98.4455 330.039 90.3301C330.039 82.1193 331.614 74.9109 334.765 68.705C337.963 62.4992 342.498 57.6538 348.37 54.169C354.242 50.6841 361.235 48.9417 369.351 48.9417C376.321 48.9417 382.407 50.2068 387.61 52.7368C392.862 55.2669 397.015 58.8234 400.07 63.4062C403.125 67.989 404.796 73.3833 405.082 79.5892H384.173C383.791 76.9159 382.98 74.5768 381.739 72.5718C380.498 70.5668 378.851 69.0153 376.798 67.9174C374.745 66.8194 372.358 66.2704 369.637 66.2704C366.2 66.2704 363.193 67.2013 360.615 69.0631C358.085 70.8771 356.104 73.5743 354.672 77.1546C353.287 80.6872 352.595 84.9835 352.595 90.0437C352.595 95.1039 353.287 99.448 354.672 103.076C356.104 106.704 358.085 109.473 360.615 111.382C363.193 113.292 366.2 114.247 369.637 114.247C373.456 114.247 376.679 113.053 379.304 110.666C381.93 108.232 383.553 104.89 384.173 100.641H405.082C404.748 106.752 403.101 112.146 400.142 116.824C397.182 121.455 393.1 125.083 387.897 127.709C382.693 130.286 376.511 131.575 369.351 131.575ZM409.806 67.4161V49.9442H482.199V67.4161H456.493V130H435.369V67.4161H409.806ZM510.736 100.713L539.522 49.9442H561.433V130H540.309V79.1596L511.595 130H489.612V49.9442H510.736V100.713Z" fill="#F4F3EF"/>
<path fill-rule="evenodd" clip-rule="evenodd" d="M87.1018 111.885L87.0972 111.876C83.8564 105.492 82.2535 98.1098 82.2535 89.7585C82.2535 81.3143 83.8555 73.906 87.0988 67.5668L87.1003 67.5639C90.3903 61.1802 95.0674 56.2041 101.121 52.66C107.235 49.0613 114.425 47.2832 122.652 47.2832C130.924 47.2832 138.116 49.0601 144.184 52.6603C150.284 56.2036 154.962 61.1795 158.205 67.565C161.496 73.9047 163.123 81.3138 163.123 89.7585C163.123 98.1122 161.495 105.497 158.204 111.882C154.96 118.221 150.282 123.195 144.184 126.785L144.182 126.786C138.114 130.338 130.923 132.091 122.652 132.091C114.427 132.091 107.239 130.337 101.126 126.788L101.117 126.783C95.0678 123.193 90.3921 118.22 87.1018 111.885ZM157.238 68.0618C154.087 61.856 149.552 57.0345 143.633 53.5974C137.761 50.1125 130.768 48.3701 122.652 48.3701C114.585 48.3701 107.591 50.1125 101.672 53.5974C95.7999 57.0345 91.2648 61.856 88.0664 68.0618C84.9157 74.22 83.3404 81.4522 83.3404 89.7585C83.3404 97.9694 84.9157 105.178 88.0664 111.384C91.2648 117.542 95.7999 122.363 101.672 125.848C107.591 129.285 114.585 131.004 122.652 131.004C130.768 131.004 137.761 129.285 143.633 125.848C149.552 122.363 154.087 117.542 157.238 111.384C160.436 105.178 162.036 97.9694 162.036 89.7585C162.036 81.4522 160.436 74.22 157.238 68.0618ZM136.59 101.651L136.594 101.639C137.834 98.1491 138.464 94.1463 138.464 89.6153C138.464 85.0348 137.833 81.0342 136.595 77.5956L136.593 77.5895L136.591 77.5834C135.403 74.1577 133.644 71.5205 131.34 69.6155C129.08 67.7464 126.256 66.7857 122.795 66.7857C119.286 66.7857 116.412 67.7474 114.104 69.6189C111.8 71.5253 110.017 74.164 108.783 77.5896C107.591 81.0308 106.983 85.0336 106.983 89.6153C106.983 94.1475 107.59 98.1525 108.784 101.645C110.019 105.118 111.803 107.805 114.108 109.759C116.416 111.628 119.288 112.588 122.795 112.588C126.254 112.588 129.076 111.629 131.335 109.762C133.64 107.81 135.401 105.125 136.59 101.651ZM132.033 110.596C129.55 112.649 126.471 113.675 122.795 113.675C119.072 113.675 115.945 112.649 113.415 110.596C110.933 108.496 109.047 105.631 107.758 102.003C106.517 98.3751 105.896 94.2459 105.896 89.6153C105.896 84.937 106.517 80.8077 107.758 77.2274C109.047 73.6471 110.933 70.8306 113.415 68.7779C115.945 66.7252 119.072 65.6988 122.795 65.6988C126.471 65.6988 129.55 66.7252 132.033 68.7779C134.515 70.8306 136.377 73.6471 137.618 77.2274C138.907 80.8077 139.551 84.937 139.551 89.6153C139.551 94.2459 138.907 98.3751 137.618 102.003C136.377 105.631 134.515 108.496 132.033 110.596ZM249.15 111.885L249.145 111.876C245.904 105.492 244.301 98.1098 244.301 89.7585C244.301 81.3143 245.903 73.906 249.147 67.5668L249.148 67.5639C252.438 61.1806 257.115 56.2047 263.168 52.6607C269.282 49.0615 276.473 47.2832 284.7 47.2832C292.972 47.2832 300.163 49.06 306.231 52.66C312.331 56.2032 317.01 61.1793 320.253 67.565C323.544 73.9047 325.171 81.3138 325.171 89.7585C325.171 98.1122 323.543 105.497 320.252 111.882C317.008 118.221 312.33 123.195 306.232 126.785L306.23 126.786C300.162 130.338 292.971 132.091 284.7 132.091C276.475 132.091 269.287 130.337 263.174 126.788L263.165 126.783C257.116 123.193 252.44 118.22 249.15 111.885ZM319.286 111.384C322.484 105.178 324.084 97.9694 324.084 89.7585C324.084 81.4522 322.484 74.22 319.286 68.0618C316.135 61.856 311.6 57.0345 305.681 53.5974C299.809 50.1125 292.816 48.3701 284.7 48.3701C276.633 48.3701 269.639 50.1125 263.72 53.5974C257.848 57.0345 253.313 61.856 250.114 68.0618C246.964 74.22 245.388 81.4522 245.388 89.7585C245.388 97.9694 246.964 105.178 250.114 111.384C253.313 117.542 257.848 122.363 263.72 125.848C269.639 129.285 276.633 131.004 284.7 131.004C292.816 131.004 299.809 129.285 305.681 125.848C311.6 122.363 316.135 117.542 319.286 111.384ZM298.638 101.651L298.642 101.639C299.882 98.1491 300.512 94.1463 300.512 89.6153C300.512 85.0348 299.881 81.0342 298.643 77.5956L298.641 77.5895L298.639 77.5834C297.451 74.1577 295.692 71.5205 293.388 69.6155C291.128 67.7464 288.304 66.7857 284.843 66.7857C281.334 66.7857 278.46 67.7474 276.152 69.6189C273.848 71.5254 272.065 74.1642 270.831 77.5901C269.639 81.0312 269.031 85.0338 269.031 89.6153C269.031 94.1477 269.639 98.1529 270.833 101.646C272.067 105.119 273.851 107.805 276.156 109.759C278.464 111.628 281.336 112.588 284.843 112.588C288.301 112.588 291.123 111.629 293.383 109.763C295.688 107.811 297.449 105.125 298.638 101.651ZM294.081 110.596C291.598 112.649 288.519 113.675 284.843 113.675C281.12 113.675 277.993 112.649 275.463 110.596C272.981 108.496 271.095 105.631 269.806 102.003C268.565 98.3751 267.944 94.2459 267.944 89.6153C267.944 84.937 268.565 80.8077 269.806 77.2274C271.095 73.6471 272.981 70.8306 275.463 68.7779C277.993 66.7252 281.12 65.6988 284.843 65.6988C288.519 65.6988 291.598 66.7252 294.081 68.7779C296.563 70.8306 298.425 73.6471 299.666 77.2274C300.955 80.8077 301.599 84.937 301.599 89.6153C301.599 94.2459 300.955 98.3751 299.666 102.003C298.425 105.631 296.563 108.496 294.081 110.596ZM346.832 126.708L346.838 126.711C352.908 130.314 360.125 132.091 368.445 132.091C375.735 132.091 382.089 130.778 387.474 128.111L387.481 128.107C392.847 125.4 397.08 121.643 400.152 116.838L400.154 116.834C403.223 111.983 404.919 106.405 405.262 100.129L405.325 98.9829H382.328L382.192 99.9127C381.6 103.965 380.07 107.061 377.663 109.295C375.254 111.482 372.3 112.588 368.731 112.588C365.511 112.588 362.736 111.699 360.36 109.94C358.025 108.177 356.153 105.59 354.778 102.11C353.455 98.638 352.776 94.4345 352.776 89.4721C352.776 84.5074 353.456 80.3555 354.776 76.9846C356.149 73.5518 358.017 71.0418 360.342 69.3748L360.345 69.3726C362.723 67.6556 365.503 66.7857 368.731 66.7857C371.304 66.7857 373.509 67.3038 375.379 68.3042C377.261 69.3106 378.767 70.7278 379.909 72.5723C381.06 74.4325 381.828 76.625 382.192 79.1713L382.325 80.1045H405.315L405.262 78.9675C404.968 72.5901 403.247 66.9991 400.068 62.2317C396.899 57.4781 392.593 53.7966 387.179 51.1872C381.8 48.5722 375.546 47.2832 368.445 47.2832C360.171 47.2832 352.978 49.0609 346.91 52.6627C340.858 56.2541 336.183 61.2526 332.893 67.6355L332.89 67.6414C329.649 74.0249 328.046 81.4073 328.046 89.7585C328.046 98.0165 329.65 105.351 332.89 111.732L332.892 111.735C336.134 118.072 340.785 123.07 346.832 126.708ZM353.766 102.504C355.198 106.132 357.179 108.901 359.709 110.811C362.287 112.72 365.294 113.675 368.731 113.675C372.55 113.675 375.773 112.482 378.398 110.095C381.024 107.66 382.647 104.318 383.268 100.07H404.177C404.157 100.435 404.132 100.797 404.103 101.157C403.641 106.822 402.019 111.854 399.236 116.253C396.276 120.883 392.194 124.511 386.991 127.137C381.788 129.715 375.606 131.004 368.445 131.004C360.282 131.004 353.264 129.261 347.393 125.776C341.521 122.244 337.01 117.399 333.859 111.24C330.709 105.035 329.133 97.8739 329.133 89.7585C329.133 81.5477 330.709 74.3393 333.859 68.1334C337.058 61.9276 341.593 57.0822 347.464 53.5974C353.336 50.1125 360.33 48.3701 368.445 48.3701C375.415 48.3701 381.501 49.6351 386.705 52.1652C391.956 54.6953 396.109 58.2518 399.164 62.8346C402.04 67.1478 403.689 72.1798 404.112 77.9307C404.138 78.2902 404.16 78.6525 404.177 79.0176H383.268C382.886 76.3443 382.074 74.0051 380.833 72.0002C379.592 69.9952 377.945 68.4437 375.892 67.3458C373.839 66.2478 371.452 65.6988 368.731 65.6988C365.294 65.6988 362.287 66.6297 359.709 68.4915C357.179 70.3055 355.198 73.0027 353.766 76.583C352.381 80.1155 351.689 84.4119 351.689 89.4721C351.689 94.5323 352.381 98.8764 353.766 102.504ZM169.292 48.2863V130.516H209.691C216.414 130.516 222.183 129.646 226.968 127.87L226.978 127.867C231.757 126.043 235.475 123.428 238.058 119.985C240.695 116.484 241.998 112.334 241.998 107.589C241.998 103.905 241.036 100.528 239.11 97.4851C237.183 94.3954 234.433 91.9097 230.898 90.0181C228.762 88.8748 226.378 88.0197 223.754 87.4452C227.143 86.3024 229.986 84.7252 232.256 82.6921L232.257 82.6915C235.729 79.5769 237.487 75.6802 237.487 71.0699C237.487 63.7869 234.443 58.1191 228.403 54.192C222.437 50.2656 214.4 48.3346 204.398 48.2863H169.292ZM240.912 107.589C240.912 112.124 239.67 116.039 237.188 119.332C234.753 122.579 231.221 125.085 226.59 126.851C221.96 128.57 216.327 129.429 209.691 129.429H170.379V49.3732H204.392C214.274 49.4209 222.079 51.3304 227.808 55.1017C233.536 58.8252 236.4 64.1479 236.4 71.0699C236.4 75.3662 234.777 78.9704 231.531 81.8824C228.971 84.1751 225.6 85.8867 221.419 87.0171C220.376 87.2989 219.284 87.5446 218.141 87.7541C219.294 87.8348 220.407 87.9588 221.479 88.1259C224.846 88.6504 227.815 89.6006 230.385 90.9764C233.775 92.7904 236.376 95.1534 238.19 98.0654C240.005 100.93 240.912 104.104 240.912 107.589ZM218.415 104.492L218.414 104.511L218.415 104.53C218.457 106.824 217.708 108.521 216.225 109.763C214.711 111.032 212.575 111.729 209.691 111.729H192.089V96.4313H209.691C212.543 96.4313 214.66 97.206 216.177 98.6402L216.182 98.6456L216.188 98.6509C217.685 100.027 218.458 101.926 218.415 104.492ZM191.002 95.3444V112.816H209.691C212.746 112.816 215.157 112.076 216.923 110.597C218.69 109.117 219.549 107.088 219.501 104.51C219.549 101.693 218.69 99.4737 216.923 97.8506C215.157 96.1798 212.746 95.3444 209.691 95.3444H191.002ZM204.909 81.2252L204.901 81.2251H192.089V67.5023H204.392C207.692 67.5023 210.134 68.1913 211.842 69.4408L211.854 69.4496L211.866 69.458C213.578 70.6397 214.404 72.215 214.404 74.2921C214.404 76.4568 213.614 78.1164 212.029 79.3792C210.429 80.6068 208.102 81.2709 204.909 81.2252ZM191.002 66.4154V82.312H204.894C208.235 82.3598 210.837 81.6676 212.699 80.2355C214.56 78.7556 215.491 76.7745 215.491 74.2921C215.491 71.8575 214.489 69.948 212.484 68.5636C210.527 67.1315 207.829 66.4154 204.392 66.4154H191.002Z" fill="black"/>
<path d="M563.081 48.2863H539.449L512.384 96.0215V48.2863H489.086V130.516H512.79L539.783 82.723V130.516H563.081V129.429H561.994H540.87V78.5885L512.156 129.429H490.173V49.3732H511.297V100.142L540.082 49.3732H561.994H563.081V48.2863Z" fill="black"/>
<path d="M409.279 48.2863V67.932H434.843V130.516H435.93V129.429V66.8451H410.366V49.3732H482.76V66.8451H457.053V129.429V130.516H458.14V67.932H483.847V48.2863H409.279Z" fill="black"/>
<path d="M54.0878 97.9222H26.7342V129.429H5.61034H4.52344V130.516H27.8211V99.0091H53.0009V130.516H76.1553V48.2863H53.0009V79.5066H27.8211V48.2863H4.52344V49.3732H5.61034H26.7342V80.5935H54.0878V49.3732H75.0684V129.429H54.0878V97.9222Z" fill="black"/>
</svg>
