<svg width="1022" height="307" viewBox="0 0 1022 307" fill="none" xmlns="http://www.w3.org/2000/svg">
<rect x="202" y="0.992188" width="50" height="304" fill="#D9D9D9"/>
<rect x="783" y="0.992188" width="29" height="304" fill="#D9D9D9"/>
<rect x="797" y="254.992" width="51" height="577" transform="rotate(90 797 254.992)" fill="#D9D9D9"/>
<path d="M484.96 284.062C483.44 284.062 482.41 282.752 482.41 280.512C482.41 278.242 483.44 276.922 484.96 276.922C486.48 276.922 487.52 278.242 487.52 280.512C487.52 282.752 486.48 284.062 484.96 284.062ZM483.32 280.512C483.32 282.342 483.98 283.302 484.96 283.302C485.94 283.302 486.6 282.342 486.6 280.512C486.6 278.642 485.94 277.682 484.96 277.682C483.98 277.682 483.32 278.642 483.32 280.512ZM488.056 283.992V282.962H488.916V283.992H488.056ZM492.066 284.062C490.806 284.062 489.896 283.302 489.636 282.222L490.486 282.012C490.696 282.772 491.246 283.312 492.086 283.312C492.966 283.312 493.566 282.632 493.566 281.672C493.566 280.682 493.006 280.032 492.156 280.032C491.496 280.032 490.896 280.462 490.656 281.092H489.736L490.306 276.992H494.276L494.176 277.712H491.106L490.736 280.242C491.126 279.672 491.746 279.342 492.436 279.342C493.706 279.342 494.486 280.272 494.486 281.662C494.486 283.082 493.516 284.062 492.066 284.062ZM499.623 283.992L497.743 281.142L495.833 283.992H494.903L497.283 280.442L495.013 276.992H495.983L497.813 279.772L499.613 276.992H500.543L498.283 280.482L500.593 283.992H499.623Z" fill="black"/>
<rect x="809" y="0.992188" width="48" height="577" transform="rotate(90 809 0.992188)" fill="#D9D9D9"/>
<path d="M252.004 115.801C252.004 108.238 252.004 100.675 252.004 93.1122C252.004 73.0822 264.392 61.0347 282.395 53.5516C299.623 46.3903 319.196 46.4706 333.588 59.263C346.671 70.8926 343.491 95.9873 343.491 112.028C343.491 127.858 337.856 141.647 335.003 156.986C333.19 166.73 330.228 176.133 327.51 185.647C324.812 195.09 323.888 205.648 322.217 215.357C321.144 221.598 321.199 228.669 323.265 234.64C325.249 240.37 332.527 243.652 337.989 245.434C343.601 247.264 348.94 247.844 354.757 247.844C359.956 247.844 365.08 236.927 366.965 233.592C371.605 225.383 375.327 216.56 378.807 207.812C381.477 201.102 385.357 193.831 385.881 186.486C386.801 173.614 385.524 160.557 385.934 147.659C386.385 133.441 392.172 119.139 394.474 105.321C396.439 93.5362 401.475 77.1579 410.665 69.1662C417.003 63.6553 421.486 57.3655 429.738 54.1804C439.232 50.5161 451.873 51.1302 461.911 50.8793C466.505 50.7644 470.501 52.8614 474.12 55.5951C482.702 62.0798 489.342 74.6912 492.302 84.8857C495.888 97.2396 492.221 110.467 490.415 122.717C487.274 144.035 480.408 164.473 476.897 185.542C475.621 193.196 474.591 200.656 474.591 208.44C474.591 217.028 473.353 226.732 475.639 235.059C479.325 248.486 484.422 255.601 499.638 255.389C509.237 255.256 513.967 250.465 519.13 242.918C527.955 230.02 533.983 216.573 537.207 201.21C539.31 191.189 539.283 181.549 539.722 171.447C540.15 161.613 541.935 151.939 543.233 142.209C545.048 128.597 549.53 115.162 553.346 102.02C555.951 93.0474 559.75 79.6923 568.908 75.2444C571.857 73.8122 575.856 74.0714 579.073 74.3012C583.985 74.6521 583.055 85.065 583.055 88.0296C583.055 111.498 582.126 133.643 578.13 156.881C574.76 176.474 565.806 195.213 563.354 214.833C562.291 223.331 565.108 234.262 572.89 238.412C578.295 241.295 586.27 241.182 592.277 241.242C601.436 241.333 610.895 242.063 619.839 239.827C627.805 237.835 634.254 233.51 641.532 229.871C649.975 225.65 660.195 219.354 666.788 212.632C675.421 203.83 682.816 189.066 681.669 176.582C680.391 162.677 678.131 144.426 668.202 133.93C663.839 129.318 659.743 124.449 655.679 119.573C653.069 116.441 649.372 113.019 648.186 108.989C644.669 97.0288 645.94 86.0332 655.47 77.5499C663.955 69.996 675.929 65.0182 686.28 60.6777C697.447 55.9945 708.804 53.5177 720.967 54.7043C737.482 56.3156 749.298 67.1875 758.956 79.8554C767.48 91.0364 773.765 104.271 779.234 117.163C783.678 127.638 783.255 135.206 777.662 145.144C766.977 164.128 746.058 179.936 723.587 179.936" stroke="black" stroke-width="1.72244" stroke-linecap="round"/>
<mask id="path-7-outside-1_1052_1596" maskUnits="userSpaceOnUse" x="276.688" y="65.731" width="444" height="166" fill="black">
<rect fill="white" x="276.688" y="65.731" width="444" height="166"/>
<path d="M278.15 195.731V104.054H303.488V139.642H310.704L335.55 104.054H365.398L333.008 149.646L365.726 195.731H335.55L312.918 163.259H303.488V195.731H278.15ZM374.596 230.007C371.37 230.062 368.336 229.843 365.494 229.351C362.706 228.859 360.41 228.231 358.606 227.465L364.346 208.523L365.166 208.687C369.43 209.944 373.065 210.218 376.072 209.507C379.133 208.851 381.456 206.446 383.042 202.291L384.518 198.355L351.717 104.054H378.368L397.31 171.377H398.294L417.482 104.054H444.296L408.708 205.653C407.013 210.573 404.69 214.864 401.738 218.527C398.841 222.19 395.178 225.005 390.75 226.973C386.322 228.996 380.937 230.007 374.596 230.007ZM435.772 195.731L435.69 175.641H438.724C441.621 175.586 443.972 174.602 445.776 172.689C447.634 170.775 449.028 167.577 449.958 163.095C450.942 158.557 451.57 152.435 451.844 144.726L453.402 104.054H523.02V195.731H498.83V124.062H476.198L474.722 152.107C474.339 159.76 473.41 166.347 471.934 171.869C470.458 177.39 468.408 181.927 465.784 185.481C463.215 188.98 460.044 191.576 456.272 193.271C452.554 194.911 448.263 195.731 443.398 195.731H435.772ZM579.765 197.535C570.362 197.535 562.244 195.622 555.411 191.795C548.577 187.968 543.329 182.529 539.667 175.477C536.059 168.37 534.255 159.979 534.255 150.302C534.255 140.9 536.059 132.645 539.667 125.538C543.329 118.432 548.468 112.883 555.083 108.892C561.752 104.901 569.57 102.906 578.535 102.906C584.603 102.906 590.261 103.89 595.509 105.858C600.757 107.771 605.349 110.669 609.285 114.55C613.221 118.377 616.283 123.215 618.469 129.064C620.656 134.859 621.749 141.665 621.749 149.482V156.371H544.341V140.708H609.449L597.641 144.808C597.641 140.162 596.931 136.116 595.509 132.672C594.088 129.228 591.956 126.577 589.113 124.718C586.325 122.805 582.854 121.848 578.699 121.848C574.544 121.848 571.018 122.805 568.121 124.718C565.278 126.632 563.092 129.228 561.561 132.508C560.03 135.788 559.265 139.56 559.265 143.824V154.895C559.265 159.869 560.14 164.133 561.889 167.687C563.638 171.185 566.071 173.891 569.187 175.805C572.358 177.663 575.993 178.593 580.093 178.593C582.936 178.593 585.505 178.183 587.801 177.363C590.097 176.543 592.065 175.34 593.705 173.755C595.4 172.169 596.657 170.256 597.477 168.015L620.929 169.573C619.781 175.203 617.376 180.123 613.713 184.333C610.105 188.488 605.431 191.74 599.691 194.091C593.951 196.387 587.309 197.535 579.765 197.535ZM559.921 91.5899C556.422 91.5899 553.443 90.3872 550.983 87.9819C548.523 85.5765 547.32 82.7338 547.375 79.4538C547.32 76.0644 548.523 73.2217 550.983 70.9257C553.443 68.575 556.422 67.3723 559.921 67.3177C563.31 67.3723 566.208 68.575 568.613 70.9257C571.073 73.2217 572.303 76.0644 572.303 79.4538C572.303 82.7338 571.073 85.5765 568.613 87.9819C566.208 90.3872 563.31 91.5899 559.921 91.5899ZM596.329 91.5899C592.885 91.5899 589.933 90.3872 587.473 87.9819C585.013 85.5765 583.783 82.7338 583.783 79.4538C583.783 76.0644 585.013 73.2217 587.473 70.9257C589.933 68.575 592.885 67.3723 596.329 67.3177C599.773 67.3723 602.698 68.575 605.103 70.9257C607.509 73.2217 608.711 76.0644 608.711 79.4538C608.711 82.7338 607.509 85.5765 605.103 87.9819C602.698 90.3872 599.773 91.5899 596.329 91.5899ZM630.976 195.731V104.054H656.314V139.642H663.531L688.377 104.054H718.225L685.835 149.646L718.553 195.731H688.377L665.745 163.259H656.314V195.731H630.976Z"/>
</mask>
<path d="M278.15 195.731V104.054H303.488V139.642H310.704L335.55 104.054H365.398L333.008 149.646L365.726 195.731H335.55L312.918 163.259H303.488V195.731H278.15ZM374.596 230.007C371.37 230.062 368.336 229.843 365.494 229.351C362.706 228.859 360.41 228.231 358.606 227.465L364.346 208.523L365.166 208.687C369.43 209.944 373.065 210.218 376.072 209.507C379.133 208.851 381.456 206.446 383.042 202.291L384.518 198.355L351.717 104.054H378.368L397.31 171.377H398.294L417.482 104.054H444.296L408.708 205.653C407.013 210.573 404.69 214.864 401.738 218.527C398.841 222.19 395.178 225.005 390.75 226.973C386.322 228.996 380.937 230.007 374.596 230.007ZM435.772 195.731L435.69 175.641H438.724C441.621 175.586 443.972 174.602 445.776 172.689C447.634 170.775 449.028 167.577 449.958 163.095C450.942 158.557 451.57 152.435 451.844 144.726L453.402 104.054H523.02V195.731H498.83V124.062H476.198L474.722 152.107C474.339 159.76 473.41 166.347 471.934 171.869C470.458 177.39 468.408 181.927 465.784 185.481C463.215 188.98 460.044 191.576 456.272 193.271C452.554 194.911 448.263 195.731 443.398 195.731H435.772ZM579.765 197.535C570.362 197.535 562.244 195.622 555.411 191.795C548.577 187.968 543.329 182.529 539.667 175.477C536.059 168.37 534.255 159.979 534.255 150.302C534.255 140.9 536.059 132.645 539.667 125.538C543.329 118.432 548.468 112.883 555.083 108.892C561.752 104.901 569.57 102.906 578.535 102.906C584.603 102.906 590.261 103.89 595.509 105.858C600.757 107.771 605.349 110.669 609.285 114.55C613.221 118.377 616.283 123.215 618.469 129.064C620.656 134.859 621.749 141.665 621.749 149.482V156.371H544.341V140.708H609.449L597.641 144.808C597.641 140.162 596.931 136.116 595.509 132.672C594.088 129.228 591.956 126.577 589.113 124.718C586.325 122.805 582.854 121.848 578.699 121.848C574.544 121.848 571.018 122.805 568.121 124.718C565.278 126.632 563.092 129.228 561.561 132.508C560.03 135.788 559.265 139.56 559.265 143.824V154.895C559.265 159.869 560.14 164.133 561.889 167.687C563.638 171.185 566.071 173.891 569.187 175.805C572.358 177.663 575.993 178.593 580.093 178.593C582.936 178.593 585.505 178.183 587.801 177.363C590.097 176.543 592.065 175.34 593.705 173.755C595.4 172.169 596.657 170.256 597.477 168.015L620.929 169.573C619.781 175.203 617.376 180.123 613.713 184.333C610.105 188.488 605.431 191.74 599.691 194.091C593.951 196.387 587.309 197.535 579.765 197.535ZM559.921 91.5899C556.422 91.5899 553.443 90.3872 550.983 87.9819C548.523 85.5765 547.32 82.7338 547.375 79.4538C547.32 76.0644 548.523 73.2217 550.983 70.9257C553.443 68.575 556.422 67.3723 559.921 67.3177C563.31 67.3723 566.208 68.575 568.613 70.9257C571.073 73.2217 572.303 76.0644 572.303 79.4538C572.303 82.7338 571.073 85.5765 568.613 87.9819C566.208 90.3872 563.31 91.5899 559.921 91.5899ZM596.329 91.5899C592.885 91.5899 589.933 90.3872 587.473 87.9819C585.013 85.5765 583.783 82.7338 583.783 79.4538C583.783 76.0644 585.013 73.2217 587.473 70.9257C589.933 68.575 592.885 67.3723 596.329 67.3177C599.773 67.3723 602.698 68.575 605.103 70.9257C607.509 73.2217 608.711 76.0644 608.711 79.4538C608.711 82.7338 607.509 85.5765 605.103 87.9819C602.698 90.3872 599.773 91.5899 596.329 91.5899ZM630.976 195.731V104.054H656.314V139.642H663.531L688.377 104.054H718.225L685.835 149.646L718.553 195.731H688.377L665.745 163.259H656.314V195.731H630.976Z" fill="#F4F3EF"/>
<path d="M278.15 195.731H277.301V196.58H278.15V195.731ZM278.15 104.054V103.205H277.301V104.054H278.15ZM303.488 104.054H304.336V103.205H303.488V104.054ZM303.488 139.642H302.639V140.491H303.488V139.642ZM310.704 139.642V140.491H311.146L311.4 140.128L310.704 139.642ZM335.55 104.054V103.205H335.108L334.854 103.568L335.55 104.054ZM365.398 104.054L366.09 104.545L367.042 103.205H365.398V104.054ZM333.008 149.646L332.316 149.155L331.967 149.646L332.316 150.138L333.008 149.646ZM365.726 195.731V196.58H367.37L366.418 195.24L365.726 195.731ZM335.55 195.731L334.854 196.216L335.107 196.58H335.55V195.731ZM312.918 163.259L313.614 162.773L313.361 162.41H312.918V163.259ZM303.488 163.259V162.41H302.639V163.259H303.488ZM303.488 195.731V196.58H304.336V195.731H303.488ZM278.998 195.731V104.054H277.301V195.731H278.998ZM278.15 104.903H303.488V103.205H278.15V104.903ZM302.639 104.054V139.642H304.336V104.054H302.639ZM303.488 140.491H310.704V138.794H303.488V140.491ZM311.4 140.128L336.246 104.54L334.854 103.568L310.008 139.157L311.4 140.128ZM335.55 104.903H365.398V103.205H335.55V104.903ZM364.707 103.563L332.316 149.155L333.7 150.138L366.09 104.545L364.707 103.563ZM332.316 150.138L365.035 196.222L366.418 195.24L333.7 149.155L332.316 150.138ZM365.726 194.882H335.55V196.58H365.726V194.882ZM336.246 195.246L313.614 162.773L312.222 163.744L334.854 196.216L336.246 195.246ZM312.918 162.41H303.488V164.107H312.918V162.41ZM302.639 163.259V195.731H304.336V163.259H302.639ZM303.488 194.882H278.15V196.58H303.488V194.882ZM374.596 230.007V229.159H374.588L374.581 229.159L374.596 230.007ZM365.494 229.351L365.346 230.187L365.349 230.187L365.494 229.351ZM358.606 227.465L357.793 227.219L357.572 227.949L358.274 228.246L358.606 227.465ZM364.346 208.523L364.512 207.691L363.757 207.54L363.533 208.277L364.346 208.523ZM365.166 208.687L365.406 207.873L365.369 207.862L365.332 207.855L365.166 208.687ZM376.072 209.507L375.894 208.677L375.885 208.679L375.877 208.681L376.072 209.507ZM383.042 202.291L383.835 202.594L383.836 202.589L383.042 202.291ZM384.518 198.355L385.312 198.653L385.42 198.366L385.319 198.076L384.518 198.355ZM351.717 104.054V103.205H350.524L350.916 104.333L351.717 104.054ZM378.368 104.054L379.185 103.824L379.01 103.205H378.368V104.054ZM397.31 171.377L396.493 171.607L396.667 172.225H397.31V171.377ZM398.294 171.377V172.225H398.934L399.11 171.609L398.294 171.377ZM417.482 104.054V103.205H416.842L416.666 103.821L417.482 104.054ZM444.296 104.054L445.097 104.335L445.493 103.205H444.296V104.054ZM408.708 205.653L407.907 205.373L407.906 205.377L408.708 205.653ZM401.738 218.527L401.077 217.995L401.072 218.001L401.738 218.527ZM390.75 226.973L390.405 226.198L390.397 226.201L390.75 226.973ZM374.581 229.159C371.403 229.213 368.423 228.997 365.638 228.515L365.349 230.187C368.25 230.69 371.338 230.911 374.61 230.856L374.581 229.159ZM365.641 228.516C362.891 228.03 360.662 227.416 358.937 226.684L358.274 228.246C360.157 229.045 362.52 229.688 365.346 230.187L365.641 228.516ZM359.418 227.711L365.158 208.769L363.533 208.277L357.793 227.219L359.418 227.711ZM364.179 209.355L364.999 209.519L365.332 207.855L364.512 207.691L364.179 209.355ZM364.926 209.501C369.273 210.783 373.067 211.089 376.267 210.333L375.877 208.681C373.063 209.346 369.586 209.106 365.406 207.873L364.926 209.501ZM376.249 210.337C379.7 209.597 382.194 206.894 383.835 202.594L382.249 201.989C380.719 205.997 378.566 208.105 375.894 208.677L376.249 210.337ZM383.836 202.589L385.312 198.653L383.723 198.057L382.247 201.993L383.836 202.589ZM385.319 198.076L352.519 103.775L350.916 104.333L383.716 198.634L385.319 198.076ZM351.717 104.903H378.368V103.205H351.717V104.903ZM377.551 104.284L396.493 171.607L398.127 171.147L379.185 103.824L377.551 104.284ZM397.31 172.225H398.294V170.528H397.31V172.225ZM399.11 171.609L418.298 104.287L416.666 103.821L397.478 171.144L399.11 171.609ZM417.482 104.903H444.296V103.205H417.482V104.903ZM443.496 103.774L407.907 205.373L409.509 205.934L445.097 104.335L443.496 103.774ZM407.906 205.377C406.24 210.214 403.961 214.416 401.077 217.995L402.399 219.06C405.419 215.313 407.787 210.933 409.51 205.929L407.906 205.377ZM401.072 218.001C398.264 221.552 394.713 224.283 390.405 226.198L391.094 227.749C395.643 225.727 399.418 222.828 402.403 219.054L401.072 218.001ZM390.397 226.201C386.108 228.161 380.851 229.159 374.596 229.159V230.856C381.023 230.856 386.536 229.831 391.102 227.745L390.397 226.201ZM435.772 195.731L434.923 195.734L434.926 196.58H435.772V195.731ZM435.69 175.641V174.792H434.838L434.841 175.644L435.69 175.641ZM438.724 175.641V176.489H438.732L438.74 176.489L438.724 175.641ZM445.776 172.689L445.167 172.097L445.158 172.107L445.776 172.689ZM449.958 163.095L449.128 162.915L449.127 162.922L449.958 163.095ZM451.844 144.726L450.996 144.694L450.996 144.696L451.844 144.726ZM453.402 104.054V103.205H452.585L452.554 104.022L453.402 104.054ZM523.02 104.054H523.869V103.205H523.02V104.054ZM523.02 195.731V196.58H523.869V195.731H523.02ZM498.83 195.731H497.982V196.58H498.83V195.731ZM498.83 124.062H499.679V123.214H498.83V124.062ZM476.198 124.062V123.214H475.393L475.351 124.018L476.198 124.062ZM474.722 152.107L473.875 152.062L473.874 152.064L474.722 152.107ZM465.784 185.481L465.101 184.977L465.1 184.979L465.784 185.481ZM456.272 193.271L456.614 194.047L456.62 194.045L456.272 193.271ZM436.62 195.727L436.538 175.637L434.841 175.644L434.923 195.734L436.62 195.727ZM435.69 176.489H438.724V174.792H435.69V176.489ZM438.74 176.489C441.839 176.431 444.416 175.368 446.393 173.271L445.158 172.107C443.528 173.836 441.402 174.742 438.708 174.792L438.74 176.489ZM446.384 173.28C448.41 171.195 449.847 167.808 450.789 163.267L449.127 162.922C448.21 167.347 446.859 170.356 445.167 172.097L446.384 173.28ZM450.787 163.274C451.786 158.666 452.418 152.487 452.692 144.757L450.996 144.696C450.723 152.382 450.097 158.448 449.128 162.915L450.787 163.274ZM452.692 144.759L454.25 104.087L452.554 104.022L450.996 144.694L452.692 144.759ZM453.402 104.903H523.02V103.205H453.402V104.903ZM522.172 104.054V195.731H523.869V104.054H522.172ZM523.02 194.882H498.83V196.58H523.02V194.882ZM499.679 195.731V124.062H497.982V195.731H499.679ZM498.83 123.214H476.198V124.911H498.83V123.214ZM475.351 124.018L473.875 152.062L475.569 152.151L477.045 124.107L475.351 124.018ZM473.874 152.064C473.494 159.677 472.571 166.202 471.114 171.65L472.754 172.088C474.249 166.493 475.185 159.843 475.569 152.149L473.874 152.064ZM471.114 171.65C469.658 177.097 467.647 181.53 465.101 184.977L466.466 185.985C469.169 182.325 471.258 177.683 472.754 172.088L471.114 171.65ZM465.1 184.979C462.613 188.365 459.556 190.865 455.924 192.497L456.62 194.045C460.532 192.287 463.816 189.594 466.468 185.983L465.1 184.979ZM455.929 192.495C452.339 194.079 448.168 194.882 443.398 194.882V196.58C448.358 196.58 452.77 195.743 456.614 194.047L455.929 192.495ZM443.398 194.882H435.772V196.58H443.398V194.882ZM555.411 191.795L555.825 191.055L555.411 191.795ZM539.667 175.477L538.91 175.861L538.914 175.868L539.667 175.477ZM539.667 125.538L538.912 125.149L538.91 125.154L539.667 125.538ZM555.083 108.892L554.647 108.164L554.644 108.166L555.083 108.892ZM595.509 105.858L595.211 106.653L595.219 106.655L595.509 105.858ZM609.285 114.55L608.69 115.154L608.694 115.159L609.285 114.55ZM618.469 129.064L617.675 129.361L617.676 129.364L618.469 129.064ZM621.749 156.371V157.219H622.598V156.371H621.749ZM544.341 156.371H543.492V157.219H544.341V156.371ZM544.341 140.708V139.86H543.492V140.708H544.341ZM609.449 140.708L609.728 141.51L609.449 139.86V140.708ZM597.641 144.808H596.793V146.001L597.92 145.61L597.641 144.808ZM589.113 124.718L588.633 125.418L588.641 125.423L588.649 125.428L589.113 124.718ZM568.121 124.718L567.653 124.01L567.647 124.014L568.121 124.718ZM561.889 167.687L561.128 168.061L561.13 168.066L561.889 167.687ZM569.187 175.805L568.743 176.528L568.75 176.532L568.758 176.537L569.187 175.805ZM593.705 173.755L593.125 173.135L593.115 173.145L593.705 173.755ZM597.477 168.015L597.533 167.168L596.899 167.126L596.68 167.723L597.477 168.015ZM620.929 169.573L621.761 169.742L621.955 168.79L620.986 168.726L620.929 169.573ZM613.713 184.333L613.073 183.776L613.073 183.776L613.713 184.333ZM599.691 194.091L600.006 194.879L600.013 194.876L599.691 194.091ZM547.375 79.4538L548.223 79.4679L548.223 79.454L548.223 79.4401L547.375 79.4538ZM550.983 70.9257L551.562 71.5461L551.569 71.5392L550.983 70.9257ZM559.921 67.3177L559.935 66.4692L559.921 66.469L559.908 66.4692L559.921 67.3177ZM568.613 70.9257L568.02 71.5326L568.027 71.5394L568.034 71.546L568.613 70.9257ZM568.613 87.9819L568.02 87.3751L568.013 87.3819L568.613 87.9819ZM587.473 70.9257L588.052 71.5461L588.059 71.5392L587.473 70.9257ZM596.329 67.3177L596.343 66.4692L596.329 66.469L596.316 66.4692L596.329 67.3177ZM605.103 70.9257L604.51 71.5326L604.517 71.5395L605.103 70.9257ZM579.765 196.686C570.478 196.686 562.509 194.797 555.825 191.055L554.996 192.535C561.979 196.446 570.246 198.384 579.765 198.384V196.686ZM555.825 191.055C549.139 187.31 544.007 181.993 540.42 175.086L538.914 175.868C542.651 183.065 548.016 188.626 554.996 192.535L555.825 191.055ZM540.423 175.093C536.887 168.128 535.103 159.873 535.103 150.302H533.406C533.406 160.084 535.23 168.612 538.91 175.861L540.423 175.093ZM535.103 150.302C535.103 141.009 536.886 132.89 540.423 125.922L538.91 125.154C535.232 132.4 533.406 140.79 533.406 150.302H535.103ZM540.421 125.927C544.014 118.955 549.046 113.525 555.521 109.619L554.644 108.166C547.89 112.24 542.644 117.908 538.912 125.15L540.421 125.927ZM555.518 109.62C562.037 105.72 569.699 103.755 578.535 103.755V102.057C569.44 102.057 561.467 104.083 554.647 108.164L555.518 109.62ZM578.535 103.755C584.51 103.755 590.066 104.723 595.211 106.653L595.807 105.064C590.456 103.057 584.696 102.057 578.535 102.057V103.755ZM595.219 106.655C600.353 108.527 604.841 111.359 608.69 115.154L609.881 113.946C605.857 109.978 601.161 107.015 595.8 105.061L595.219 106.655ZM608.694 115.159C612.528 118.886 615.526 123.613 617.675 129.361L619.264 128.767C617.04 122.816 613.914 117.867 609.877 113.942L608.694 115.159ZM617.676 129.364C619.818 135.041 620.901 141.742 620.901 149.482H622.598C622.598 141.588 621.494 134.677 619.263 128.765L617.676 129.364ZM620.901 149.482V156.371H622.598V149.482H620.901ZM621.749 155.522H544.341V157.219H621.749V155.522ZM545.189 156.371V140.708H543.492V156.371H545.189ZM544.341 141.557H609.449V139.86H544.341V141.557ZM609.171 139.907L597.363 144.007L597.92 145.61L609.728 141.51L609.171 139.907ZM598.49 144.808C598.49 140.077 597.766 135.917 596.294 132.349L594.725 132.996C596.095 136.315 596.793 140.246 596.793 144.808H598.49ZM596.294 132.349C594.814 128.762 592.577 125.969 589.578 124.008L588.649 125.428C591.334 127.184 593.362 129.694 594.725 132.996L596.294 132.349ZM589.593 124.019C586.634 121.988 582.986 121 578.699 121V122.697C582.722 122.697 586.016 123.622 588.633 125.418L589.593 124.019ZM578.699 121C574.411 121 570.715 121.988 567.653 124.01L568.589 125.426C571.322 123.621 574.677 122.697 578.699 122.697V121ZM567.647 124.014C564.669 126.019 562.384 128.738 560.792 132.149L562.33 132.867C563.799 129.719 565.887 127.245 568.595 125.422L567.647 124.014ZM560.792 132.149C559.2 135.56 558.416 139.458 558.416 143.824H560.113C560.113 139.663 560.86 136.017 562.33 132.867L560.792 132.149ZM558.416 143.824V154.895H560.113V143.824H558.416ZM558.416 154.895C558.416 159.967 559.308 164.366 561.128 168.061L562.65 167.312C560.971 163.901 560.113 159.772 560.113 154.895H558.416ZM561.13 168.066C562.945 171.696 565.482 174.526 568.743 176.528L569.631 175.082C566.659 173.257 564.331 170.674 562.648 167.307L561.13 168.066ZM568.758 176.537C572.073 178.48 575.86 179.441 580.093 179.441V177.744C576.126 177.744 572.642 176.847 569.616 175.073L568.758 176.537ZM580.093 179.441C583.017 179.441 585.685 179.02 588.087 178.162L587.516 176.564C585.325 177.346 582.854 177.744 580.093 177.744V179.441ZM588.087 178.162C590.488 177.304 592.562 176.04 594.295 174.365L593.115 173.145C591.568 174.64 589.706 175.781 587.516 176.564L588.087 178.162ZM594.285 174.374C596.079 172.696 597.41 170.669 598.274 168.306L596.68 167.723C595.905 169.843 594.72 171.643 593.125 173.135L594.285 174.374ZM597.421 168.861L620.873 170.419L620.986 168.726L597.533 167.168L597.421 168.861ZM620.098 169.403C618.978 174.895 616.637 179.68 613.073 183.776L614.354 184.89C618.115 180.567 620.585 175.512 621.761 169.742L620.098 169.403ZM613.073 183.776C609.562 187.819 605.003 190.999 599.37 193.306L600.013 194.876C605.86 192.482 610.648 189.156 614.354 184.889L613.073 183.776ZM599.376 193.303C593.756 195.551 587.224 196.686 579.765 196.686V198.384C587.394 198.384 594.147 197.223 600.006 194.879L599.376 193.303ZM559.921 90.7414C556.64 90.7414 553.874 89.6226 551.576 87.3751L550.39 88.5886C553.011 91.1519 556.205 92.4385 559.921 92.4385V90.7414ZM551.576 87.3751C549.274 85.1239 548.173 82.5022 548.223 79.4679L546.526 79.4396C546.468 82.9654 547.772 86.0291 550.39 88.5886L551.576 87.3751ZM548.223 79.4401C548.172 76.2886 549.279 73.677 551.562 71.546L550.404 70.3054C547.767 72.7665 546.468 75.8402 546.526 79.4675L548.223 79.4401ZM551.569 71.5392C553.87 69.3408 556.642 68.2175 559.934 68.1661L559.908 66.4692C556.202 66.5271 553.016 67.8092 550.397 70.3122L551.569 71.5392ZM559.907 68.1661C563.082 68.2173 565.771 69.3348 568.02 71.5326L569.206 70.3188C566.644 67.8152 563.539 66.5273 559.935 66.4692L559.907 68.1661ZM568.034 71.546C570.321 73.6803 571.454 76.2977 571.454 79.4538H573.152C573.152 75.8311 571.825 72.7632 569.192 70.3054L568.034 71.546ZM571.454 79.4538C571.454 82.4933 570.325 85.1207 568.02 87.3751L569.206 88.5886C571.821 86.0323 573.152 82.9744 573.152 79.4538H571.454ZM568.013 87.3819C565.766 89.6287 563.084 90.7414 559.921 90.7414V92.4385C563.536 92.4385 566.649 91.1457 569.213 88.5819L568.013 87.3819ZM596.329 90.7414C593.107 90.7414 590.368 89.6253 588.066 87.3751L586.88 88.5886C589.499 91.1492 592.664 92.4385 596.329 92.4385V90.7414ZM588.066 87.3751C585.761 85.1207 584.632 82.4933 584.632 79.4538H582.935C582.935 82.9744 584.266 86.0323 586.88 88.5886L588.066 87.3751ZM584.632 79.4538C584.632 76.2977 585.765 73.6803 588.052 71.546L586.894 70.3054C584.261 72.7632 582.935 75.8311 582.935 79.4538H584.632ZM588.059 71.5392C590.363 69.3382 593.109 68.2174 596.343 68.1661L596.316 66.4692C592.661 66.5272 589.504 67.8118 586.887 70.3122L588.059 71.5392ZM596.316 68.1661C599.549 68.2174 602.264 69.3376 604.51 71.5326L605.696 70.3188C603.132 67.8124 599.998 66.5272 596.343 66.4692L596.316 68.1661ZM604.517 71.5395C606.751 73.672 607.863 76.2913 607.863 79.4538H609.56C609.56 75.8376 608.266 72.7715 605.689 70.3119L604.517 71.5395ZM607.863 79.4538C607.863 82.4996 606.756 85.129 604.503 87.3819L605.703 88.5819C608.261 86.024 609.56 82.968 609.56 79.4538H607.863ZM604.503 87.3819C602.259 89.6259 599.551 90.7414 596.329 90.7414V92.4385C599.995 92.4385 603.137 91.1486 605.703 88.5819L604.503 87.3819ZM630.976 195.731H630.128V196.58H630.976V195.731ZM630.976 104.054V103.205H630.128V104.054H630.976ZM656.314 104.054H657.163V103.205H656.314V104.054ZM656.314 139.642H655.466V140.491H656.314V139.642ZM663.531 139.642V140.491H663.973L664.226 140.128L663.531 139.642ZM688.377 104.054V103.205H687.934L687.681 103.568L688.377 104.054ZM718.225 104.054L718.917 104.545L719.869 103.205H718.225V104.054ZM685.835 149.646L685.143 149.155L684.794 149.646L685.143 150.138L685.835 149.646ZM718.553 195.731V196.58H720.196L719.245 195.24L718.553 195.731ZM688.377 195.731L687.681 196.216L687.934 196.58H688.377V195.731ZM665.745 163.259L666.441 162.773L666.187 162.41H665.745V163.259ZM656.314 163.259V162.41H655.466V163.259H656.314ZM656.314 195.731V196.58H657.163V195.731H656.314ZM631.825 195.731V104.054H630.128V195.731H631.825ZM630.976 104.903H656.314V103.205H630.976V104.903ZM655.466 104.054V139.642H657.163V104.054H655.466ZM656.314 140.491H663.531V138.794H656.314V140.491ZM664.226 140.128L689.073 104.54L687.681 103.568L662.835 139.157L664.226 140.128ZM688.377 104.903H718.225V103.205H688.377V104.903ZM717.533 103.563L685.143 149.155L686.526 150.138L718.917 104.545L717.533 103.563ZM685.143 150.138L717.861 196.222L719.245 195.24L686.527 149.155L685.143 150.138ZM718.553 194.882H688.377V196.58H718.553V194.882ZM689.073 195.246L666.441 162.773L665.048 163.744L687.681 196.216L689.073 195.246ZM665.745 162.41H656.314V164.107H665.745V162.41ZM655.466 163.259V195.731H657.163V163.259H655.466ZM656.314 194.882H630.976V196.58H656.314V194.882Z" fill="#F4F3EF" mask="url(#path-7-outside-1_1052_1596)"/>
<path fill-rule="evenodd" clip-rule="evenodd" d="M631.156 194.477H655.983V162.659H665.223L687.399 194.477H716.967L684.908 149.322L716.645 104.649H687.399L663.054 139.519H655.983V104.649H631.156V194.477ZM657.706 137.797V102.926H629.434V196.199H657.706V164.382H664.324L686.5 196.199H720.302L687.021 149.322L718.953 104.649H685.366L662.156 137.797H657.706Z" fill="black"/>
<path fill-rule="evenodd" clip-rule="evenodd" d="M538.513 175.418L538.509 175.411C534.828 168.159 533.02 159.659 533.02 149.965C533.02 140.529 534.831 132.165 538.509 124.92L538.514 124.911C542.243 117.674 547.496 111.995 554.26 107.914L554.266 107.911C561.107 103.818 569.082 101.802 578.129 101.802C584.262 101.802 590.01 102.796 595.36 104.801C600.726 106.759 605.433 109.728 609.465 113.703C613.525 117.652 616.653 122.617 618.872 128.552C621.103 134.466 622.195 141.348 622.195 149.161V157.633H561.105C561.398 160.934 562.161 163.792 563.362 166.233C564.94 169.386 567.105 171.782 569.856 173.475C572.666 175.119 575.915 175.962 579.656 175.962C582.276 175.962 584.594 175.584 586.629 174.857C588.664 174.13 590.378 173.077 591.796 171.705L591.807 171.696L591.817 171.686C593.275 170.322 594.359 168.678 595.072 166.728L594.866 167.258L621.357 168.954V169.19C620.174 174.989 617.688 180.083 613.899 184.438C610.166 188.737 605.353 192.072 599.512 194.464L599.505 194.467L599.499 194.469C593.631 196.816 586.899 197.967 579.335 197.967C569.886 197.967 561.63 196.043 554.63 192.123C547.637 188.207 542.258 182.629 538.516 175.425L538.513 175.418ZM561.819 166.998C560.489 164.296 559.674 161.174 559.377 157.633C559.329 157.069 559.295 156.495 559.274 155.91H620.472V149.161C620.472 141.501 619.401 134.833 617.258 129.155C615.116 123.423 612.116 118.683 608.26 114.933C604.403 111.13 599.903 108.291 594.761 106.416C589.619 104.488 584.075 103.524 578.129 103.524C569.345 103.524 561.685 105.479 555.15 109.389C548.669 113.3 543.634 118.736 540.045 125.7C536.51 132.663 534.742 140.751 534.742 149.965C534.742 159.446 536.51 167.668 540.045 174.631C543.634 181.541 548.776 186.871 555.471 190.62C562.167 194.37 570.121 196.244 579.335 196.244C586.727 196.244 593.235 195.12 598.859 192.87C604.483 190.567 609.063 187.38 612.598 183.309C615.814 179.613 618.04 175.359 619.277 170.546C619.421 169.987 619.552 169.42 619.669 168.846L596.664 167.373C595.86 169.569 594.654 171.39 592.994 172.944C591.387 174.497 589.458 175.676 587.209 176.479C584.959 177.283 582.441 177.684 579.656 177.684C575.639 177.684 572.077 176.774 568.97 174.953C565.917 173.078 563.533 170.426 561.819 166.998ZM596.654 140.564C596.595 139.978 596.522 139.404 596.435 138.842C596.091 136.61 595.533 134.56 594.761 132.69C593.369 129.315 591.28 126.717 588.494 124.896C585.762 123.022 582.361 122.084 578.29 122.084C574.219 122.084 570.764 123.022 567.925 124.896C565.14 126.771 562.997 129.315 561.498 132.529C560.597 134.459 559.967 136.564 559.607 138.842C559.518 139.405 559.445 139.979 559.389 140.564H596.654ZM561.352 138.842H594.691C594.363 136.834 593.853 135.005 593.169 133.347C591.895 130.261 590.018 127.951 587.552 126.338L587.535 126.327L587.52 126.316C585.134 124.68 582.093 123.807 578.29 123.807C574.492 123.807 571.385 124.677 568.88 126.33C566.373 128.02 564.432 130.313 563.058 133.258C562.267 134.954 561.695 136.813 561.352 138.842ZM559.891 66.9307L559.918 66.9311C563.669 66.9916 566.925 68.338 569.597 70.9424C572.35 73.5185 573.745 76.7565 573.745 80.5447C573.745 84.2441 572.337 87.4643 569.618 90.1264C566.941 92.7999 563.667 94.1585 559.891 94.1585C556.021 94.1585 552.667 92.8098 549.929 90.1323C547.205 87.4695 545.821 84.2453 545.875 80.5446C545.821 76.7562 547.192 73.5141 549.95 70.9367C552.682 68.3286 556.018 66.9912 559.864 66.9311L559.891 66.9307ZM551.133 72.1886C548.722 74.4383 547.544 77.2237 547.597 80.5447C547.544 83.7586 548.722 86.5439 551.133 88.9008C553.543 91.2576 556.462 92.4361 559.891 92.4361C563.212 92.4361 566.051 91.2576 568.407 88.9008C570.818 86.5439 572.023 83.7586 572.023 80.5447C572.023 77.2237 570.818 74.4383 568.407 72.1886C566.051 69.8853 563.212 68.7069 559.891 68.6533C556.462 68.7069 553.543 69.8853 551.133 72.1886ZM595.565 66.9307L595.592 66.9311C599.392 66.9914 602.679 68.3349 605.358 70.9494C608.058 73.53 609.42 76.7665 609.42 80.5447C609.42 84.234 608.046 87.4522 605.38 90.1187C602.695 92.8031 599.39 94.1585 595.565 94.1585C591.741 94.1585 588.416 92.8042 585.683 90.1323C582.959 87.4691 581.549 84.2468 581.549 80.5447C581.549 76.7532 582.947 73.5127 585.705 70.9356C588.432 68.3335 591.739 66.9914 595.537 66.9311L595.565 66.9307ZM604.162 72.1886C601.805 69.8853 598.939 68.7069 595.565 68.6533C592.19 68.7069 589.298 69.8853 586.887 72.1886C584.477 74.4383 583.272 77.2237 583.272 80.5447C583.272 83.7586 584.477 86.5439 586.887 88.9008C589.298 91.2576 592.19 92.4361 595.565 92.4361C598.939 92.4361 601.805 91.2576 604.162 88.9008C606.519 86.5439 607.697 83.7586 607.697 80.5447C607.697 77.2237 606.519 74.4383 604.162 72.1886Z" fill="black"/>
<path fill-rule="evenodd" clip-rule="evenodd" d="M438.246 194.477H445.718C450.486 194.477 454.69 193.673 458.333 192.066C462.029 190.406 465.135 187.862 467.653 184.433C470.224 180.952 472.233 176.506 473.679 171.096C475.125 165.686 476.036 159.231 476.411 151.732L477.857 124.253H500.033V194.477H523.735V104.649H455.521L453.994 144.501C453.726 152.053 453.11 158.053 452.146 162.499C451.235 166.891 449.87 170.024 448.048 171.899C446.281 173.774 443.977 174.738 441.138 174.792H438.166L438.246 194.477ZM441.121 173.069H438.166L438.164 196.199H445.718C450.678 196.199 455.128 195.363 459.028 193.642L459.039 193.637C463.02 191.849 466.357 189.108 469.041 185.453C471.771 181.755 473.857 177.099 475.343 171.541C476.829 165.982 477.752 159.403 478.131 151.823M478.131 151.818L479.491 125.976H498.31V196.199H525.458V102.926H453.863L452.273 144.435L452.273 144.44C452.006 151.948 451.396 157.831 450.463 162.134L450.461 162.141L450.459 162.149C449.573 166.423 448.295 169.173 446.813 170.699L446.804 170.708L446.795 170.718C445.382 172.216 443.542 173.02 441.121 173.069" fill="black"/>
<path fill-rule="evenodd" clip-rule="evenodd" d="M355.232 117.484L382.898 197.026L381.674 200.29C381.673 200.292 381.673 200.294 381.672 200.296C380.232 204.067 378.302 205.818 376.093 206.291L376.075 206.295L376.058 206.299C373.503 206.903 370.264 206.702 366.255 205.519L366.181 205.498L363.769 205.015L357.243 226.552L358.667 227.157C360.595 227.974 362.981 228.62 365.79 229.115L365.795 229.116C368.695 229.618 371.771 229.839 375.022 229.784C381.401 229.783 386.929 228.766 391.544 226.659C396.121 224.623 399.933 221.698 402.949 217.888C405.976 214.131 408.341 209.749 410.059 204.764L410.06 204.76L445.731 102.926H417.029L417.012 104.708L398.422 169.932L380.008 102.926H350.168L350.767 104.649H378.704L397.264 170.614H398.228L417.029 104.649H443.303L408.432 204.199C406.771 209.02 404.495 213.224 401.602 216.813C398.764 220.402 395.175 223.161 390.836 225.089C386.497 227.071 381.221 228.062 375.008 228.062C371.847 228.115 368.874 227.901 366.089 227.419C363.357 226.937 361.108 226.321 359.34 225.571L364.964 207.011L365.768 207.172C369.946 208.404 373.508 208.671 376.454 207.975C379.453 207.332 381.73 204.975 383.283 200.905L384.73 197.048L356.456 115.761L355.232 117.484Z" fill="black"/>
<path d="M335.106 194.477L312.93 162.659H303.691V194.477H278.863V196.199H305.413V164.382H312.031L334.207 196.199H368.009L334.728 149.322L357.153 117.757L356.458 115.761L332.615 149.322L364.674 194.477H335.106Z" fill="black"/>
<path d="M309.863 137.797H305.413V102.926H278.863V104.649H303.691V139.519H310.761L335.106 104.649H366.465L367.689 102.926H334.208L309.863 137.797Z" fill="black"/>
<path d="M264.727 200.284C264.076 200.284 263.517 200.114 263.051 199.773C262.588 199.432 262.234 198.939 261.988 198.295C261.745 197.647 261.624 196.862 261.624 195.942C261.624 195.025 261.747 194.242 261.994 193.594C262.24 192.943 262.594 192.446 263.056 192.105C263.522 191.76 264.079 191.588 264.727 191.588C265.379 191.588 265.936 191.76 266.398 192.105C266.864 192.446 267.219 192.943 267.461 193.594C267.708 194.242 267.831 195.025 267.831 195.942C267.831 196.862 267.709 197.647 267.467 198.295C267.224 198.939 266.872 199.432 266.41 199.773C265.948 200.114 265.387 200.284 264.727 200.284ZM264.727 199.193C265.125 199.193 265.461 199.066 265.733 198.812C266.006 198.558 266.215 198.189 266.359 197.704C266.503 197.215 266.575 196.628 266.575 195.942C266.575 195.252 266.503 194.665 266.359 194.18C266.215 193.691 266.006 193.32 265.733 193.066C265.461 192.808 265.125 192.679 264.727 192.679C264.14 192.679 263.685 192.965 263.363 193.537C263.045 194.106 262.886 194.907 262.886 195.942C262.886 196.628 262.958 197.215 263.102 197.704C263.246 198.189 263.454 198.558 263.727 198.812C264.004 199.066 264.337 199.193 264.727 199.193ZM268.82 200.17V199.25L271.684 196.271C271.987 195.953 272.238 195.673 272.435 195.43C272.635 195.184 272.785 194.951 272.884 194.731C272.986 194.511 273.037 194.278 273.037 194.032C273.037 193.748 272.971 193.503 272.838 193.299C272.706 193.094 272.526 192.937 272.298 192.827C272.071 192.717 271.813 192.662 271.525 192.662C271.222 192.662 270.959 192.725 270.735 192.85C270.512 192.971 270.337 193.145 270.212 193.373C270.091 193.596 270.03 193.86 270.03 194.163H268.814C268.814 193.647 268.931 193.196 269.166 192.81C269.405 192.423 269.731 192.124 270.144 191.912C270.561 191.696 271.031 191.588 271.554 191.588C272.088 191.588 272.558 191.694 272.963 191.906C273.369 192.118 273.685 192.406 273.912 192.77C274.14 193.13 274.253 193.537 274.253 193.992C274.253 194.307 274.195 194.614 274.077 194.913C273.964 195.212 273.761 195.548 273.469 195.919C273.181 196.287 272.779 196.73 272.264 197.249L270.582 199.011V199.079H274.39V200.17H268.82Z" fill="black"/>
<path d="M395.638 186.505C394.986 186.505 394.427 186.334 393.961 185.993C393.499 185.652 393.144 185.16 392.898 184.515C392.655 183.868 392.534 183.083 392.534 182.162C392.534 181.245 392.657 180.463 392.904 179.815C393.15 179.163 393.504 178.667 393.967 178.326C394.433 177.981 394.99 177.809 395.638 177.809C396.289 177.809 396.846 177.981 397.309 178.326C397.775 178.667 398.129 179.163 398.371 179.815C398.618 180.463 398.741 181.245 398.741 182.162C398.741 183.083 398.62 183.868 398.377 184.515C398.135 185.16 397.782 185.652 397.32 185.993C396.858 186.334 396.297 186.505 395.638 186.505ZM395.638 185.414C396.035 185.414 396.371 185.287 396.644 185.033C396.916 184.779 397.125 184.409 397.269 183.924C397.413 183.436 397.485 182.848 397.485 182.162C397.485 181.473 397.413 180.885 397.269 180.4C397.125 179.912 396.916 179.54 396.644 179.286C396.371 179.029 396.035 178.9 395.638 178.9C395.05 178.9 394.596 179.186 394.273 179.758C393.955 180.327 393.796 181.128 393.796 182.162C393.796 182.848 393.868 183.436 394.012 183.924C394.156 184.409 394.364 184.779 394.637 185.033C394.914 185.287 395.247 185.414 395.638 185.414ZM402.68 186.505C402.108 186.505 401.6 186.408 401.156 186.215C400.713 186.018 400.363 185.745 400.105 185.396C399.847 185.048 399.711 184.644 399.696 184.186H400.98C400.999 184.436 401.084 184.652 401.236 184.834C401.388 185.016 401.587 185.158 401.833 185.26C402.083 185.359 402.361 185.408 402.668 185.408C403.002 185.408 403.297 185.349 403.555 185.232C403.813 185.114 404.014 184.953 404.158 184.749C404.305 184.54 404.379 184.299 404.379 184.027C404.379 183.742 404.307 183.492 404.163 183.276C404.019 183.057 403.809 182.886 403.532 182.765C403.256 182.644 402.922 182.583 402.532 182.583H401.81V181.537H402.532C402.843 181.537 403.117 181.48 403.356 181.367C403.595 181.253 403.78 181.096 403.913 180.895C404.05 180.694 404.118 180.457 404.118 180.184C404.118 179.923 404.059 179.696 403.942 179.502C403.824 179.305 403.659 179.154 403.447 179.048C403.235 178.938 402.985 178.883 402.697 178.883C402.42 178.883 402.163 178.932 401.924 179.031C401.685 179.129 401.49 179.271 401.338 179.457C401.191 179.639 401.113 179.86 401.105 180.122H399.872C399.883 179.663 400.016 179.262 400.27 178.917C400.527 178.568 400.869 178.297 401.293 178.104C401.721 177.907 402.195 177.809 402.714 177.809C403.256 177.809 403.724 177.915 404.118 178.127C404.516 178.335 404.823 178.616 405.038 178.968C405.254 179.317 405.362 179.698 405.362 180.111C405.362 180.592 405.23 180.997 404.965 181.327C404.699 181.653 404.345 181.874 403.902 181.992V182.054C404.463 182.142 404.896 182.365 405.203 182.725C405.514 183.085 405.669 183.532 405.669 184.066C405.669 184.533 405.539 184.949 405.277 185.317C405.02 185.684 404.665 185.974 404.214 186.186C403.767 186.399 403.256 186.505 402.68 186.505Z" fill="black"/>
<path d="M401.661 107.273C401.009 107.273 400.45 107.102 399.984 106.761C399.522 106.42 399.168 105.928 398.921 105.284C398.679 104.636 398.558 103.851 398.558 102.93C398.558 102.013 398.681 101.231 398.927 100.583C399.173 99.9313 399.528 99.435 399.99 99.0939C400.456 98.7491 401.013 98.5767 401.661 98.5767C402.313 98.5767 402.87 98.7491 403.332 99.0939C403.798 99.435 404.152 99.9313 404.395 100.583C404.641 101.231 404.764 102.013 404.764 102.93C404.764 103.851 404.643 104.636 404.401 105.284C404.158 105.928 403.806 106.42 403.343 106.761C402.881 107.102 402.32 107.273 401.661 107.273ZM401.661 106.182C402.059 106.182 402.394 106.055 402.667 105.801C402.94 105.547 403.148 105.177 403.292 104.692C403.436 104.204 403.508 103.616 403.508 102.93C403.508 102.241 403.436 101.654 403.292 101.168C403.148 100.68 402.94 100.308 402.667 100.054C402.394 99.7968 402.059 99.668 401.661 99.668C401.074 99.668 400.619 99.9541 400.297 100.526C399.979 101.095 399.819 101.896 399.819 102.93C399.819 103.616 399.891 104.204 400.035 104.692C400.179 105.177 400.388 105.547 400.661 105.801C400.937 106.055 401.271 106.182 401.661 106.182ZM405.583 105.505V104.476L409.237 98.6904H410.05V100.214H409.527L406.913 104.351V104.42H411.932V105.505H405.583ZM409.584 107.159V105.193L409.596 104.721V98.6904H410.812V107.159H409.584Z" fill="black"/>
<path d="M433.524 164.113C432.873 164.113 432.314 163.942 431.848 163.601C431.385 163.26 431.031 162.768 430.785 162.123C430.542 161.475 430.421 160.691 430.421 159.77C430.421 158.853 430.544 158.071 430.79 157.423C431.037 156.771 431.391 156.275 431.853 155.934C432.319 155.589 432.876 155.417 433.524 155.417C434.176 155.417 434.733 155.589 435.195 155.934C435.661 156.275 436.016 156.771 436.258 157.423C436.504 158.071 436.628 158.853 436.628 159.77C436.628 160.691 436.506 161.475 436.264 162.123C436.021 162.768 435.669 163.26 435.207 163.601C434.744 163.942 434.184 164.113 433.524 164.113ZM433.524 163.021C433.922 163.021 434.257 162.894 434.53 162.641C434.803 162.387 435.012 162.017 435.156 161.532C435.3 161.043 435.372 160.456 435.372 159.77C435.372 159.081 435.3 158.493 435.156 158.008C435.012 157.52 434.803 157.148 434.53 156.894C434.257 156.637 433.922 156.508 433.524 156.508C432.937 156.508 432.482 156.794 432.16 157.366C431.842 157.934 431.683 158.736 431.683 159.77C431.683 160.456 431.755 161.043 431.899 161.532C432.043 162.017 432.251 162.387 432.524 162.641C432.801 162.894 433.134 163.021 433.524 163.021ZM440.413 164.113C439.894 164.113 439.428 164.014 439.015 163.817C438.606 163.616 438.278 163.342 438.032 162.993C437.785 162.641 437.654 162.241 437.639 161.794H438.878C438.909 162.154 439.07 162.451 439.361 162.686C439.653 162.921 440.004 163.038 440.413 163.038C440.739 163.038 441.027 162.963 441.277 162.811C441.527 162.66 441.724 162.453 441.868 162.192C442.012 161.926 442.084 161.623 442.084 161.282C442.084 160.941 442.01 160.636 441.862 160.367C441.715 160.094 441.51 159.88 441.249 159.725C440.991 159.569 440.693 159.492 440.356 159.492C440.098 159.492 439.841 159.537 439.583 159.628C439.326 159.715 439.117 159.829 438.958 159.969L437.781 159.799L438.259 155.53H442.914V156.627H439.327L439.06 158.997H439.106C439.269 158.834 439.487 158.702 439.759 158.599C440.036 158.493 440.333 158.44 440.652 158.44C441.167 158.44 441.626 158.563 442.027 158.81C442.433 159.052 442.751 159.386 442.982 159.81C443.213 160.231 443.329 160.714 443.329 161.259C443.329 161.809 443.204 162.3 442.954 162.732C442.704 163.16 442.359 163.497 441.919 163.743C441.483 163.99 440.981 164.113 440.413 164.113Z" fill="black"/>
<path d="M433.524 213.203C432.873 213.203 432.314 213.032 431.848 212.691C431.385 212.35 431.031 211.857 430.785 211.213C430.542 210.565 430.421 209.781 430.421 208.86C430.421 207.943 430.544 207.161 430.79 206.513C431.037 205.861 431.391 205.365 431.853 205.024C432.319 204.679 432.876 204.506 433.524 204.506C434.176 204.506 434.733 204.679 435.195 205.024C435.661 205.365 436.016 205.861 436.258 206.513C436.504 207.161 436.628 207.943 436.628 208.86C436.628 209.781 436.506 210.565 436.264 211.213C436.021 211.857 435.669 212.35 435.207 212.691C434.744 213.032 434.184 213.203 433.524 213.203ZM433.524 212.111C433.922 212.111 434.257 211.984 434.53 211.73C434.803 211.477 435.012 211.107 435.156 210.622C435.3 210.133 435.372 209.546 435.372 208.86C435.372 208.171 435.3 207.583 435.156 207.098C435.012 206.609 434.803 206.238 434.53 205.984C434.257 205.727 433.922 205.598 433.524 205.598C432.937 205.598 432.482 205.884 432.16 206.456C431.842 207.024 431.683 207.826 431.683 208.86C431.683 209.546 431.755 210.133 431.899 210.622C432.043 211.107 432.251 211.477 432.524 211.73C432.801 211.984 433.134 212.111 433.524 212.111ZM440.549 213.203C440.174 213.203 439.803 213.136 439.435 213.004C439.068 212.871 438.736 212.651 438.441 212.344C438.145 212.034 437.906 211.617 437.725 211.094C437.546 210.571 437.457 209.921 437.457 209.144C437.457 208.405 437.531 207.75 437.679 207.178C437.831 206.602 438.045 206.117 438.321 205.723C438.602 205.325 438.939 205.024 439.333 204.819C439.727 204.611 440.17 204.506 440.663 204.506C441.167 204.506 441.614 204.607 442.004 204.808C442.395 205.005 442.711 205.277 442.954 205.626C443.2 205.975 443.353 206.373 443.414 206.82H442.164C442.076 206.467 441.906 206.181 441.652 205.961C441.398 205.738 441.069 205.626 440.663 205.626C440.042 205.626 439.557 205.897 439.208 206.439C438.863 206.977 438.691 207.727 438.691 208.69H438.753C438.901 208.451 439.081 208.246 439.293 208.076C439.505 207.901 439.742 207.769 440.004 207.678C440.269 207.587 440.551 207.542 440.851 207.542C441.339 207.542 441.783 207.661 442.181 207.9C442.582 208.138 442.901 208.468 443.136 208.889C443.374 209.305 443.494 209.785 443.494 210.327C443.494 210.865 443.37 211.352 443.124 211.787C442.882 212.223 442.539 212.568 442.095 212.822C441.656 213.076 441.141 213.203 440.549 213.203ZM440.544 212.128C440.87 212.128 441.159 212.049 441.413 211.89C441.671 211.73 441.876 211.516 442.027 211.247C442.179 210.975 442.255 210.671 442.255 210.338C442.255 210.012 442.181 209.717 442.033 209.451C441.889 209.186 441.69 208.976 441.436 208.82C441.186 208.661 440.898 208.582 440.572 208.582C440.25 208.582 439.958 208.663 439.697 208.826C439.435 208.989 439.227 209.205 439.072 209.474C438.92 209.743 438.844 210.035 438.844 210.349C438.844 210.664 438.918 210.957 439.066 211.23C439.214 211.503 439.415 211.721 439.668 211.884C439.926 212.047 440.218 212.128 440.544 212.128Z" fill="black"/>
<path d="M591.989 212.341C591.337 212.341 590.778 212.171 590.312 211.83C589.85 211.489 589.496 210.996 589.25 210.352C589.007 209.704 588.886 208.92 588.886 207.999C588.886 207.082 589.009 206.299 589.255 205.651C589.502 205 589.856 204.503 590.318 204.162C590.784 203.817 591.341 203.645 591.989 203.645C592.641 203.645 593.198 203.817 593.66 204.162C594.126 204.503 594.481 205 594.723 205.651C594.969 206.299 595.092 207.082 595.092 207.999C595.092 208.92 594.971 209.704 594.729 210.352C594.486 210.996 594.134 211.489 593.672 211.83C593.209 212.171 592.648 212.341 591.989 212.341ZM591.989 211.25C592.387 211.25 592.722 211.123 592.995 210.869C593.268 210.615 593.476 210.246 593.62 209.761C593.764 209.272 593.836 208.685 593.836 207.999C593.836 207.309 593.764 206.722 593.62 206.237C593.476 205.748 593.268 205.377 592.995 205.123C592.722 204.865 592.387 204.736 591.989 204.736C591.402 204.736 590.947 205.022 590.625 205.595C590.307 206.163 590.148 206.964 590.148 207.999C590.148 208.685 590.22 209.272 590.364 209.761C590.508 210.246 590.716 210.615 590.989 210.869C591.265 211.123 591.599 211.25 591.989 211.25ZM596.138 212.228L599.833 204.918V204.856H595.559V203.759H601.163V204.901L597.474 212.228H596.138Z" fill="black"/>
<path d="M616.102 212.341C615.451 212.341 614.892 212.171 614.426 211.83C613.963 211.489 613.609 210.996 613.363 210.352C613.12 209.704 612.999 208.92 612.999 207.999C612.999 207.082 613.122 206.299 613.369 205.651C613.615 205 613.969 204.503 614.431 204.162C614.897 203.817 615.454 203.645 616.102 203.645C616.754 203.645 617.311 203.817 617.773 204.162C618.239 204.503 618.594 205 618.836 205.651C619.083 206.299 619.206 207.082 619.206 207.999C619.206 208.92 619.084 209.704 618.842 210.352C618.599 210.996 618.247 211.489 617.785 211.83C617.323 212.171 616.762 212.341 616.102 212.341ZM616.102 211.25C616.5 211.25 616.836 211.123 617.108 210.869C617.381 210.615 617.59 210.246 617.734 209.761C617.878 209.272 617.95 208.685 617.95 207.999C617.95 207.309 617.878 206.722 617.734 206.237C617.59 205.748 617.381 205.377 617.108 205.123C616.836 204.865 616.5 204.736 616.102 204.736C615.515 204.736 615.06 205.022 614.738 205.595C614.42 206.163 614.261 206.964 614.261 207.999C614.261 208.685 614.333 209.272 614.477 209.761C614.621 210.246 614.829 210.615 615.102 210.869C615.379 211.123 615.712 211.25 616.102 211.25ZM623.048 212.341C622.457 212.341 621.934 212.239 621.479 212.034C621.028 211.83 620.674 211.549 620.416 211.193C620.163 210.833 620.036 210.424 620.036 209.965C620.036 209.613 620.109 209.285 620.257 208.982C620.409 208.679 620.613 208.427 620.871 208.226C621.129 208.025 621.419 207.897 621.741 207.84V207.789C621.32 207.686 620.981 207.461 620.723 207.112C620.469 206.76 620.342 206.358 620.342 205.907C620.342 205.471 620.458 205.083 620.689 204.742C620.924 204.401 621.244 204.134 621.65 203.941C622.059 203.744 622.525 203.645 623.048 203.645C623.563 203.645 624.024 203.744 624.429 203.941C624.838 204.134 625.159 204.401 625.39 204.742C625.625 205.083 625.742 205.471 625.742 205.907C625.742 206.358 625.613 206.76 625.356 207.112C625.102 207.461 624.768 207.686 624.355 207.789V207.84C624.674 207.897 624.961 208.025 625.219 208.226C625.477 208.427 625.681 208.679 625.833 208.982C625.985 209.285 626.06 209.613 626.06 209.965C626.06 210.424 625.932 210.833 625.674 211.193C625.416 211.549 625.06 211.83 624.605 212.034C624.154 212.239 623.635 212.341 623.048 212.341ZM623.048 211.295C623.397 211.295 623.7 211.239 623.957 211.125C624.215 211.007 624.414 210.843 624.554 210.63C624.694 210.418 624.764 210.172 624.764 209.892C624.764 209.596 624.689 209.336 624.537 209.113C624.389 208.885 624.187 208.707 623.929 208.579C623.671 208.446 623.378 208.38 623.048 208.38C622.715 208.38 622.417 208.444 622.156 208.573C621.898 208.702 621.695 208.88 621.547 209.107C621.4 209.335 621.326 209.596 621.326 209.892C621.326 210.172 621.396 210.418 621.536 210.63C621.676 210.843 621.875 211.007 622.133 211.125C622.391 211.239 622.696 211.295 623.048 211.295ZM623.048 207.362C623.328 207.362 623.577 207.305 623.793 207.192C624.012 207.078 624.185 206.921 624.31 206.72C624.439 206.519 624.503 206.284 624.503 206.015C624.503 205.75 624.44 205.519 624.315 205.322C624.194 205.125 624.024 204.971 623.804 204.861C623.588 204.752 623.336 204.697 623.048 204.697C622.756 204.697 622.5 204.752 622.281 204.861C622.061 204.971 621.89 205.125 621.769 205.322C621.648 205.519 621.587 205.75 621.587 206.015C621.587 206.284 621.65 206.519 621.775 206.72C621.9 206.921 622.07 207.078 622.286 207.192C622.506 207.305 622.76 207.362 623.048 207.362Z" fill="black"/>
<path d="M683.278 95.2155C682.626 95.2155 682.068 95.045 681.601 94.7039C681.139 94.3629 680.785 93.8703 680.539 93.2262C680.296 92.5782 680.175 91.7939 680.175 90.8731C680.175 89.9561 680.298 89.1736 680.544 88.5257C680.791 87.874 681.145 87.3776 681.607 87.0366C682.073 86.6917 682.63 86.5193 683.278 86.5193C683.93 86.5193 684.487 86.6917 684.949 87.0366C685.415 87.3776 685.77 87.874 686.012 88.5257C686.258 89.1736 686.382 89.9561 686.382 90.8731C686.382 91.7939 686.26 92.5782 686.018 93.2262C685.775 93.8703 685.423 94.3629 684.961 94.7039C684.498 95.045 683.938 95.2155 683.278 95.2155ZM683.278 94.1242C683.676 94.1242 684.011 93.9973 684.284 93.7434C684.557 93.4895 684.765 93.1201 684.909 92.6351C685.053 92.1463 685.125 91.5589 685.125 90.8731C685.125 90.1835 685.053 89.5961 684.909 89.1111C684.765 88.6223 684.557 88.251 684.284 87.9971C684.011 87.7394 683.676 87.6106 683.278 87.6106C682.691 87.6106 682.236 87.8967 681.914 88.4689C681.596 89.0372 681.437 89.8386 681.437 90.8731C681.437 91.5589 681.509 92.1463 681.653 92.6351C681.797 93.1201 682.005 93.4895 682.278 93.7434C682.554 93.9973 682.888 94.1242 683.278 94.1242ZM690.156 86.5136C690.534 86.5174 690.906 86.5875 691.27 86.7239C691.637 86.8566 691.969 87.0763 692.264 87.3833C692.564 87.6902 692.802 88.1051 692.98 88.628C693.158 89.1471 693.247 89.7951 693.247 90.5719C693.247 91.3107 693.174 91.9682 693.026 92.5441C692.878 93.1201 692.664 93.607 692.384 94.0048C692.107 94.4027 691.772 94.7058 691.378 94.9142C690.983 95.1189 690.542 95.2212 690.053 95.2212C689.549 95.2212 689.1 95.1208 688.706 94.9199C688.312 94.7191 687.994 94.4444 687.751 94.0958C687.509 93.7434 687.355 93.3398 687.291 92.8851H688.553C688.636 93.2451 688.805 93.5388 689.059 93.7661C689.316 93.9897 689.648 94.1015 690.053 94.1015C690.671 94.1015 691.152 93.8305 691.497 93.2887C691.846 92.7468 692.022 91.9909 692.025 91.0209H691.963C691.815 91.2596 691.635 91.4661 691.423 91.6404C691.211 91.8109 690.972 91.9416 690.707 92.0326C690.442 92.1235 690.161 92.169 689.866 92.169C689.373 92.169 688.926 92.0496 688.524 91.8109C688.123 91.5722 687.804 91.2444 687.569 90.8276C687.334 90.407 687.215 89.9277 687.211 89.3896C687.215 88.8516 687.338 88.3647 687.581 87.9289C687.827 87.4932 688.17 87.1483 688.61 86.8945C689.049 86.6368 689.564 86.5099 690.156 86.5136ZM690.161 87.5936C689.839 87.5936 689.549 87.6731 689.292 87.8323C689.034 87.9914 688.831 88.2055 688.683 88.4745C688.536 88.7436 688.462 89.0429 688.462 89.3726C688.462 89.7022 688.532 89.9997 688.672 90.2649C688.816 90.5302 689.015 90.7424 689.269 90.9015C689.523 91.0569 689.811 91.1345 690.133 91.1345C690.459 91.1345 690.75 91.0531 691.008 90.8901C691.27 90.7234 691.478 90.5055 691.633 90.2365C691.789 89.9637 691.866 89.67 691.866 89.3555C691.866 89.0448 691.792 88.7549 691.645 88.4859C691.497 88.2169 691.294 88.0009 691.037 87.838C690.783 87.675 690.491 87.5936 690.161 87.5936Z" fill="black"/>
<path d="M715.259 86.6333V95.1021H713.997V87.9178H713.94L711.928 89.2421V88.0144L714.031 86.6333H715.259ZM719.454 95.2157C718.802 95.2157 718.243 95.0452 717.777 94.7042C717.315 94.3632 716.96 93.8706 716.714 93.2264C716.472 92.5785 716.35 91.7941 716.35 90.8733C716.35 89.9564 716.473 89.1739 716.72 88.5259C716.966 87.8742 717.32 87.3778 717.783 87.0368C718.249 86.692 718.806 86.5196 719.454 86.5196C720.105 86.5196 720.662 86.692 721.125 87.0368C721.591 87.3778 721.945 87.8742 722.188 88.5259C722.434 89.1739 722.557 89.9564 722.557 90.8733C722.557 91.7941 722.436 92.5785 722.193 93.2264C721.951 93.8706 721.598 94.3632 721.136 94.7042C720.674 95.0452 720.113 95.2157 719.454 95.2157ZM719.454 94.1244C719.852 94.1244 720.187 93.9975 720.46 93.7436C720.733 93.4898 720.941 93.1203 721.085 92.6353C721.229 92.1465 721.301 91.5592 721.301 90.8733C721.301 90.1837 721.229 89.5964 721.085 89.1114C720.941 88.6226 720.733 88.2512 720.46 87.9974C720.187 87.7397 719.852 87.6109 719.454 87.6109C718.866 87.6109 718.412 87.8969 718.09 88.4691C717.771 89.0375 717.612 89.8389 717.612 90.8733C717.612 91.5592 717.684 92.1465 717.828 92.6353C717.972 93.1203 718.181 93.4898 718.453 93.7436C718.73 93.9975 719.063 94.1244 719.454 94.1244Z" fill="black"/>
<path d="M266.454 107.273C265.802 107.273 265.243 107.102 264.777 106.761C264.315 106.42 263.961 105.928 263.714 105.284C263.472 104.636 263.351 103.851 263.351 102.93C263.351 102.013 263.474 101.231 263.72 100.583C263.966 99.9313 264.321 99.435 264.783 99.0939C265.249 98.7491 265.806 98.5767 266.454 98.5767C267.106 98.5767 267.663 98.7491 268.125 99.0939C268.591 99.435 268.945 99.9313 269.188 100.583C269.434 101.231 269.557 102.013 269.557 102.93C269.557 103.851 269.436 104.636 269.194 105.284C268.951 105.928 268.599 106.42 268.136 106.761C267.674 107.102 267.113 107.273 266.454 107.273ZM266.454 106.182C266.852 106.182 267.187 106.055 267.46 105.801C267.733 105.547 267.941 105.177 268.085 104.692C268.229 104.204 268.301 103.616 268.301 102.93C268.301 102.241 268.229 101.654 268.085 101.168C267.941 100.68 267.733 100.308 267.46 100.054C267.187 99.7968 266.852 99.668 266.454 99.668C265.867 99.668 265.412 99.9541 265.09 100.526C264.772 101.095 264.612 101.896 264.612 102.93C264.612 103.616 264.684 104.204 264.828 104.692C264.972 105.177 265.181 105.547 265.454 105.801C265.73 106.055 266.064 106.182 266.454 106.182ZM273.604 98.6904V107.159H272.342V99.9749H272.286L270.273 101.299V100.072L272.376 98.6904H273.604Z" fill="black"/>
<circle cx="281.021" cy="104.049" r="2.58365" fill="black"/>
<circle cx="281.021" cy="195.337" r="2.58365" fill="black"/>
<circle cx="399.009" cy="171.223" r="2.58365" fill="black"/>
<circle cx="417.095" cy="104.049" r="2.58365" fill="black"/>
<circle cx="437.763" cy="173.807" r="2.58365" fill="black"/>
<circle cx="437.763" cy="195.338" r="2.58365" fill="black"/>
<circle cx="595.369" cy="168.64" r="2.58365" fill="black"/>
<circle cx="620.341" cy="168.64" r="2.58365" fill="black"/>
<circle cx="685.791" cy="105.771" r="2.58365" fill="black"/>
<circle cx="717.658" cy="104.049" r="2.58365" fill="black"/>
<path d="M176.619 155.992L173.257 150.896L169.842 155.992H168.179L172.435 149.644L168.376 143.475H170.11L173.383 148.446L176.601 143.475H178.264L174.223 149.715L178.354 155.992H176.619Z" fill="black"/>
<path d="M0 103.992H1021.5" stroke="black"/>
<path d="M0 194.992H1021.5" stroke="black"/>
<path d="M0 48.9922H1021.5" stroke="black"/>
<path d="M0 254.992H1021.5" stroke="black"/>
<path d="M0 305.992H1021.5" stroke="black"/>
<path d="M0 0.992188H1021.5" stroke="black"/>
<path d="M281 0.992188L281 305.992" stroke="black"/>
<path d="M718 -0.0078125L718 304.992" stroke="black"/>
<path d="M783 0.992188L783 305.992" stroke="black"/>
<path d="M252 0.992188L252 305.992" stroke="black"/>
<path d="M202 0.992188L202 305.992" stroke="black"/>
<path d="M812 0.992188L812 305.992" stroke="black"/>
<path d="M186.354 103.639C186.158 103.443 185.842 103.443 185.646 103.639L182.464 106.821C182.269 107.016 182.269 107.332 182.464 107.528C182.66 107.723 182.976 107.723 183.172 107.528L186 104.699L188.828 107.528C189.024 107.723 189.34 107.723 189.536 107.528C189.731 107.332 189.731 107.016 189.536 106.821L186.354 103.639ZM185.646 194.846C185.842 195.041 186.158 195.041 186.354 194.846L189.536 191.664C189.731 191.468 189.731 191.152 189.536 190.957C189.34 190.761 189.024 190.761 188.828 190.957L186 193.785L183.172 190.957C182.976 190.761 182.66 190.761 182.464 190.957C182.269 191.152 182.269 191.468 182.464 191.664L185.646 194.846ZM185.5 103.992V194.492H186.5V103.992H185.5Z" fill="black"/>
<path d="M508.354 255.639C508.158 255.443 507.842 255.443 507.646 255.639L504.464 258.821C504.269 259.016 504.269 259.332 504.464 259.528C504.66 259.723 504.976 259.723 505.172 259.528L508 256.699L510.828 259.528C511.024 259.723 511.34 259.723 511.536 259.528C511.731 259.332 511.731 259.016 511.536 258.821L508.354 255.639ZM507.646 305.346C507.842 305.541 508.158 305.541 508.354 305.346L511.536 302.164C511.731 301.969 511.731 301.652 511.536 301.457C511.34 301.261 511.024 301.261 510.828 301.457L508 304.285L505.172 301.457C504.976 301.261 504.66 301.261 504.464 301.457C504.269 301.652 504.269 301.969 504.464 302.164L507.646 305.346ZM507.5 255.992V304.992H508.5V255.992H507.5Z" fill="black"/>
<path d="M484.96 28.0622C483.44 28.0622 482.41 26.7522 482.41 24.5122C482.41 22.2422 483.44 20.9222 484.96 20.9222C486.48 20.9222 487.52 22.2422 487.52 24.5122C487.52 26.7522 486.48 28.0622 484.96 28.0622ZM483.32 24.5122C483.32 26.3422 483.98 27.3022 484.96 27.3022C485.94 27.3022 486.6 26.3422 486.6 24.5122C486.6 22.6422 485.94 21.6822 484.96 21.6822C483.98 21.6822 483.32 22.6422 483.32 24.5122ZM488.056 27.9922V26.9622H488.916V27.9922H488.056ZM492.066 28.0622C490.806 28.0622 489.896 27.3022 489.636 26.2222L490.486 26.0122C490.696 26.7722 491.246 27.3122 492.086 27.3122C492.966 27.3122 493.566 26.6322 493.566 25.6722C493.566 24.6822 493.006 24.0322 492.156 24.0322C491.496 24.0322 490.896 24.4622 490.656 25.0922H489.736L490.306 20.9922H494.276L494.176 21.7122H491.106L490.736 24.2422C491.126 23.6722 491.746 23.3422 492.436 23.3422C493.706 23.3422 494.486 24.2722 494.486 25.6622C494.486 27.0822 493.516 28.0622 492.066 28.0622ZM499.623 27.9922L497.743 25.1422L495.833 27.9922H494.903L497.283 24.4422L495.013 20.9922H495.983L497.813 23.7722L499.613 20.9922H500.543L498.283 24.4822L500.593 27.9922H499.623Z" fill="black"/>
<path d="M508.354 0.638634C508.158 0.443372 507.842 0.443372 507.646 0.638634L504.464 3.82061C504.269 4.01588 504.269 4.33246 504.464 4.52772C504.66 4.72298 504.976 4.72298 505.172 4.52772L508 1.69929L510.828 4.52772C511.024 4.72298 511.34 4.72298 511.536 4.52772C511.731 4.33246 511.731 4.01588 511.536 3.82061L508.354 0.638634ZM507.646 49.3457C507.842 49.541 508.158 49.541 508.354 49.3457L511.536 46.1638C511.731 45.9685 511.731 45.6519 511.536 45.4567C511.34 45.2614 511.024 45.2614 510.828 45.4567L508 48.2851L505.172 45.4567C504.976 45.2614 504.66 45.2614 504.464 45.4567C504.269 45.6519 504.269 45.9685 504.464 46.1638L507.646 49.3457ZM507.5 0.992188V48.9922H508.5V0.992188H507.5Z" fill="black"/>
<path d="M219.96 165.062C218.44 165.062 217.41 163.752 217.41 161.512C217.41 159.242 218.44 157.922 219.96 157.922C221.48 157.922 222.52 159.242 222.52 161.512C222.52 163.752 221.48 165.062 219.96 165.062ZM218.32 161.512C218.32 163.342 218.98 164.302 219.96 164.302C220.94 164.302 221.6 163.342 221.6 161.512C221.6 159.642 220.94 158.682 219.96 158.682C218.98 158.682 218.32 159.642 218.32 161.512ZM223.056 164.992V163.962H223.916V164.992H223.056ZM227.066 165.062C225.806 165.062 224.896 164.302 224.636 163.222L225.486 163.012C225.696 163.772 226.246 164.312 227.086 164.312C227.966 164.312 228.566 163.632 228.566 162.672C228.566 161.682 228.006 161.032 227.156 161.032C226.496 161.032 225.896 161.462 225.656 162.092H224.736L225.306 157.992H229.276L229.176 158.712H226.106L225.736 161.242C226.126 160.672 226.746 160.342 227.436 160.342C228.706 160.342 229.486 161.272 229.486 162.662C229.486 164.082 228.516 165.062 227.066 165.062ZM234.623 164.992L232.743 162.142L230.833 164.992H229.903L232.283 161.442L230.013 157.992H230.983L232.813 160.772L234.613 157.992H235.543L233.283 161.482L235.593 164.992H234.623Z" fill="black"/>
<path d="M201.646 149.639C201.451 149.834 201.451 150.15 201.646 150.346L204.828 153.528C205.024 153.723 205.34 153.723 205.536 153.528C205.731 153.332 205.731 153.016 205.536 152.821L202.707 149.992L205.536 147.164C205.731 146.968 205.731 146.652 205.536 146.457C205.34 146.261 205.024 146.261 204.828 146.457L201.646 149.639ZM252.354 150.346C252.549 150.15 252.549 149.834 252.354 149.639L249.172 146.457C248.976 146.261 248.66 146.261 248.464 146.457C248.269 146.652 248.269 146.968 248.464 147.164L251.293 149.992L248.464 152.821C248.269 153.016 248.269 153.332 248.464 153.528C248.66 153.723 248.976 153.723 249.172 153.528L252.354 150.346ZM202 150.492L252 150.492L252 149.492L202 149.492L202 150.492Z" fill="black"/>
<path d="M787.96 165.062C786.44 165.062 785.41 163.752 785.41 161.512C785.41 159.242 786.44 157.922 787.96 157.922C789.48 157.922 790.52 159.242 790.52 161.512C790.52 163.752 789.48 165.062 787.96 165.062ZM786.32 161.512C786.32 163.342 786.98 164.302 787.96 164.302C788.94 164.302 789.6 163.342 789.6 161.512C789.6 159.642 788.94 158.682 787.96 158.682C786.98 158.682 786.32 159.642 786.32 161.512ZM791.056 164.992V163.962H791.916V164.992H791.056ZM792.78 164.772C792.78 161.342 796.57 161.942 796.57 159.882C796.57 159.152 796.03 158.682 795.25 158.682C794.37 158.682 793.87 159.272 793.69 159.962L792.85 159.752C793.14 158.722 793.97 157.922 795.36 157.922C796.57 157.922 797.48 158.592 797.48 159.852C797.48 162.312 794.1 161.852 793.67 164.252H797.64L797.44 164.992H792.78V164.772ZM800.691 165.062C799.431 165.062 798.521 164.302 798.261 163.222L799.111 163.012C799.321 163.772 799.871 164.312 800.711 164.312C801.591 164.312 802.191 163.632 802.191 162.672C802.191 161.682 801.631 161.032 800.781 161.032C800.121 161.032 799.521 161.462 799.281 162.092H798.361L798.931 157.992H802.901L802.801 158.712H799.731L799.361 161.242C799.751 160.672 800.371 160.342 801.061 160.342C802.331 160.342 803.111 161.272 803.111 162.662C803.111 164.082 802.141 165.062 800.691 165.062ZM808.248 164.992L806.368 162.142L804.458 164.992H803.528L805.908 161.442L803.638 157.992H804.608L806.438 160.772L808.238 157.992H809.168L806.908 161.482L809.218 164.992H808.248Z" fill="black"/>
<path d="M782.646 149.639C782.451 149.834 782.451 150.15 782.646 150.346L785.828 153.528C786.024 153.723 786.34 153.723 786.536 153.528C786.731 153.332 786.731 153.016 786.536 152.821L783.707 149.992L786.536 147.164C786.731 146.968 786.731 146.652 786.536 146.457C786.34 146.261 786.024 146.261 785.828 146.457L782.646 149.639ZM812.354 150.346C812.549 150.15 812.549 149.834 812.354 149.639L809.172 146.457C808.976 146.261 808.66 146.261 808.464 146.457C808.269 146.652 808.269 146.969 808.464 147.164L811.293 149.992L808.464 152.821C808.269 153.016 808.269 153.332 808.464 153.528C808.66 153.723 808.976 153.723 809.172 153.528L812.354 150.346ZM783 150.492L812 150.492L812 149.492L783 149.492L783 150.492Z" fill="black"/>
</svg>
