<svg width="1298" height="801" viewBox="0 0 1298 801" fill="none" xmlns="http://www.w3.org/2000/svg">
<ellipse cx="86.5" cy="392" rx="3.5" ry="4" fill="#131313"/>
<path d="M35.7768 132.333C84.26 82.2687 152.804 44 231.255 44C264.305 44 293.778 46.8962 315.5 69.5C328.289 82.8088 335.791 96.6645 335.791 115.157C338.698 188.688 301.725 226.592 233.5 294M207 310.5C167.385 335.754 83.9127 389.094 55.6807 423.369C22.3923 463.783 -11.186 525.512 5.35472 576.18C28.2202 646.223 126.709 659.879 200.348 659.879C215.936 659.879 231.525 659.879 247.113 659.879C264.72 659.879 281.41 652.521 297.601 647.065C410.179 602.018 471.139 543.342 451 389M439.5 286.5C444.5 227.5 483.406 145.377 537.742 113.794C572.357 93.6741 614.745 95.5277 654.899 95.5277C691.206 95.5277 707.549 104.909 729.013 128.789C759.565 162.781 745.5 203 745.5 203C745.5 203 736.5 228 722.5 250.5M548.5 540.5C502.5 596.5 484.626 684 521.236 721.221C563.158 750.84 617.474 750.307 669.139 748.075C715.307 746.081 755.636 720.074 793.255 700.501C814.303 689.55 829.778 666.415 847 651C873.238 627.516 871.48 632.954 884 603C941.5 522 937.5 410 937.5 344M1297 662.332C1297 679.076 1279.14 694.288 1263.02 702.137C1221.8 722.197 1168.66 730.92 1151.36 683.87C1129.7 624.966 1206.81 561 1232.58 522C1265.32 480 1264.96 467 1278.75 431.5C1294.48 391 1292.75 322 1288 290C1277.9 222 1247.26 176.751 1183.5 137.5C1148.07 115.687 1125 107 1075.5 107C993.524 120.632 942 214 938.5 320M608.5 444C647.763 402.149 663.555 372.976 688.5 321.5" stroke="#131313" stroke-width="1.5" stroke-linecap="round"/>
<ellipse cx="35.8968" cy="133" rx="3.75808" ry="4" fill="#131313"/>
<ellipse cx="149.295" cy="658" rx="4.29495" ry="4" fill="#131313"/>
<circle cx="515" cy="129" r="4" fill="#131313"/>
<ellipse cx="739.73" cy="728" rx="4.29495" ry="4" fill="#131313"/>
<ellipse cx="1076.29" cy="108" rx="4.29495" ry="4" fill="#131313"/>
<ellipse cx="1278.75" cy="432" rx="4.29495" ry="4" fill="#131313"/>
<ellipse cx="1283.04" cy="690" rx="4.29495" ry="4" fill="#131313"/>
</svg>
