<svg width="320" height="174" viewBox="0 0 320 174" fill="none" xmlns="http://www.w3.org/2000/svg">
<path d="M9.5332 21.9729C21.4295 9.68859 38.2483 0.298584 57.4978 0.298584C65.6073 0.298584 72.8391 1.00922 78.169 6.55553C81.3071 9.82111 83.1477 13.2209 83.1477 17.7585C83.8611 35.8007 74.7891 45.1013 58.0486 61.6412M51.5463 65.6898C49.5958 66.9332 47.2119 68.4542 44.5912 70.1591M101 42.5C102.227 28.0232 105.168 21.7495 118.5 14C126.993 9.06315 141.647 8 151.5 8C160.409 8 168.733 9.64045 174 15.5C181.497 23.8407 180 31.5 180 31.5M135.34 122.125C124.053 135.866 119.668 157.336 128.651 166.469C138.937 173.736 152.264 173.605 164.942 173.058C176.27 172.568 186.165 166.187 195.396 161.384C200.56 158.697 206.274 154.782 210.5 151C216.938 145.238 217.5 144.5 222.5 138.5C236.609 118.625 231 91.1944 231 75M319 152.019C319 156.128 314.619 159.86 310.662 161.786C300.549 166.708 287.51 168.848 283.265 157.304C277.951 142.85 296.869 127.155 303.192 117.586C311.228 107.28 311.138 104.09 314.521 95.3796C318.38 85.4421 317.958 68.5115 316.792 60.6597C314.313 43.9745 306.795 32.8718 291.15 23.2407C282.456 17.8884 276.796 15.7569 264.65 15.7569C244.536 19.1017 231.648 40.4907 230.789 66.5M102.5 73C109.5 114.5 101.4 137.22 73.7771 148.273C69.8042 149.612 65.7091 151.417 61.3889 151.417C57.5639 151.417 53.739 151.417 49.914 151.417C31.8452 151.417 7.67903 148.066 2.06852 130.88C-1.99008 118.447 6.24903 103.301 14.417 93.3845C18.8073 88.0545 28.6419 80.8455 37.7309 74.7026M150.062 98.4467C159.696 88.1776 167.879 67.1307 174 54.5" stroke="#131313" stroke-width="0.368056" stroke-linecap="round"/>
<ellipse cx="9.56275" cy="22.1366" rx="0.922121" ry="0.981481" fill="#131313"/>
<ellipse cx="37.3878" cy="150.956" rx="1.05385" ry="0.981481" fill="#131313"/>
<ellipse cx="182.263" cy="168.132" rx="1.05385" ry="0.981481" fill="#131313"/>
<ellipse cx="264.845" cy="16.0023" rx="1.05385" ry="0.981481" fill="#131313"/>
<ellipse cx="314.521" cy="95.5023" rx="1.05385" ry="0.981481" fill="#131313"/>
<ellipse cx="315.575" cy="158.808" rx="1.05385" ry="0.981481" fill="#131313"/>
</svg>
