<svg width="741" height="179" viewBox="0 0 741 179" fill="none" xmlns="http://www.w3.org/2000/svg">
<circle cx="173.723" cy="139.902" r="2.7332" fill="#131313"/>
<circle cx="322.723" cy="139.902" r="2.7332" fill="#131313"/>
<circle cx="501.723" cy="175.902" r="2.7332" fill="#131313"/>
<circle cx="709.723" cy="139.902" r="2.7332" fill="#131313"/>
<circle cx="200.723" cy="139.902" r="2.7332" fill="#131313"/>
<circle cx="349.723" cy="139.902" r="2.7332" fill="#131313"/>
<circle cx="528.723" cy="175.902" r="2.7332" fill="#131313"/>
<circle cx="737.723" cy="139.902" r="2.7332" fill="#131313"/>
<mask id="path-9-outside-1_1023_23107" maskUnits="userSpaceOnUse" x="0" y="0" width="739" height="177" fill="black">
<rect fill="white" width="739" height="177"/>
<path d="M88.5312 3L96.9972 21.0905C94.2049 23.4075 91.0858 25.1304 87.64 26.2592C84.2536 27.3285 80.184 28.0415 75.4312 28.3979C70.7378 28.7544 64.975 28.992 58.1428 29.1109C50.4789 29.1703 44.2111 30.4179 39.3394 32.8537C34.5272 35.2301 30.8734 38.9433 28.3782 43.9931C25.883 49.043 24.2195 55.6376 23.3877 63.7768H24.4571C27.3682 57.7169 31.527 53.0532 36.9333 49.7857C42.399 46.4587 49.1124 44.7952 57.0734 44.7952C65.5691 44.7952 72.9954 46.6666 79.3523 50.4095C85.7092 54.0929 90.67 59.4101 94.2346 66.3611C97.7992 73.3122 99.5518 81.6296 99.4924 91.3135C99.5518 101.413 97.621 110.206 93.6999 117.692C89.7788 125.177 84.1645 130.94 76.857 134.98C69.609 139.02 60.9648 141.07 50.9244 141.129C35.8342 141.07 23.9224 136.317 15.1891 126.871C6.45578 117.365 2.05941 103.582 2 85.521V77.4115C2.05941 53.4097 6.75283 35.6163 16.0803 24.0313C25.4077 12.4462 39.1612 6.56462 57.3407 6.38639C62.2124 6.32698 66.6385 6.32698 70.619 6.38639C74.5995 6.38639 78.075 6.17845 81.0455 5.76258C84.0754 5.34671 86.5706 4.42585 88.5312 3ZM51.0135 119.741C55.2911 119.741 58.9448 118.642 61.9748 116.444C65.0047 114.186 67.3514 111.008 69.0149 106.909C70.6784 102.809 71.4804 97.9378 71.421 92.2938C71.4804 86.5904 70.6784 81.7781 69.0149 77.857C67.3514 73.8766 64.975 70.8466 61.8856 68.7673C58.8557 66.6879 55.202 65.6482 50.9244 65.6482C47.7163 65.6482 44.8349 66.2423 42.2802 67.4305C39.7256 68.6187 37.5571 70.3713 35.7748 72.6883C33.9925 74.9459 32.626 77.7085 31.6755 80.9761C30.7249 84.2437 30.2199 88.0162 30.1605 92.2938C30.1605 100.73 32.0022 107.414 35.6857 112.345C39.4285 117.276 44.5378 119.741 51.0135 119.741ZM261.594 141.129C251.553 141.129 242.85 138.99 235.483 134.713C228.175 130.376 222.531 124.375 218.551 116.711C214.63 108.988 212.669 100.017 212.669 89.7985C212.669 79.4611 214.63 70.4605 218.551 62.7965C222.531 55.0732 228.175 49.0727 235.483 44.7952C242.85 40.4582 251.553 38.2898 261.594 38.2898C271.693 38.2898 280.397 40.4582 287.704 44.7952C295.071 49.0727 300.715 55.0732 304.636 62.7965C308.617 70.4605 310.607 79.4611 310.607 89.7985C310.607 100.017 308.617 108.988 304.636 116.711C300.715 124.375 295.071 130.376 287.704 134.713C280.397 138.99 271.693 141.129 261.594 141.129ZM261.772 119.563C266.346 119.563 270.178 118.286 273.268 115.731C276.357 113.117 278.674 109.552 280.219 105.037C281.823 100.522 282.625 95.3831 282.625 89.6203C282.625 83.7981 281.823 78.6591 280.219 74.2033C278.674 69.7475 276.357 66.2423 273.268 63.6877C270.178 61.133 266.346 59.8557 261.772 59.8557C257.138 59.8557 253.246 61.133 250.098 63.6877C247.008 66.2423 244.662 69.7475 243.058 74.2033C241.513 78.6591 240.741 83.7981 240.741 89.6203C240.741 95.3831 241.513 100.522 243.058 105.037C244.662 109.552 247.008 113.117 250.098 115.731C253.246 118.286 257.138 119.563 261.772 119.563ZM443.746 141.129C433.527 141.129 424.705 139.05 417.278 134.891C409.852 130.732 404.149 124.821 400.168 117.157C396.247 109.434 394.287 100.314 394.287 89.7985C394.287 79.5799 396.247 70.609 400.168 62.8856C404.149 55.1623 409.733 49.1321 416.922 44.7952C424.17 40.4582 432.666 38.2898 442.409 38.2898C449.004 38.2898 455.152 39.3591 460.856 41.4979C466.559 43.5773 471.55 46.726 475.827 50.9442C480.105 55.1029 483.432 60.3607 485.808 66.7176C488.185 73.0151 489.373 80.4117 489.373 88.9074V96.3931H405.248V79.372H476.006L463.173 83.8278C463.173 78.7779 462.401 74.3815 460.856 70.6387C459.311 66.8958 456.994 64.0144 453.905 61.9945C450.875 59.9151 447.102 58.8754 442.587 58.8754C438.072 58.8754 434.24 59.9151 431.091 61.9945C428.002 64.0738 425.626 66.8958 423.962 70.4605C422.299 74.0251 421.467 78.1244 421.467 82.7584V94.789C421.467 100.195 422.417 104.829 424.319 108.691C426.22 112.493 428.863 115.434 432.25 117.513C435.696 119.533 439.646 120.543 444.102 120.543C447.191 120.543 449.984 120.098 452.479 119.207C454.974 118.315 457.113 117.008 458.895 115.286C460.737 113.563 462.104 111.483 462.995 109.047L488.482 110.741C487.234 116.86 484.62 122.207 480.64 126.781C476.718 131.297 471.639 134.832 465.401 137.386C459.163 139.881 451.944 141.129 443.746 141.129ZM549.08 118.85C553.595 118.85 557.398 117.603 560.487 115.107C563.576 112.612 565.923 109.166 567.527 104.77C569.131 100.314 569.933 95.2049 569.933 89.4421C569.933 83.6793 569.131 78.6294 567.527 74.2924C565.982 69.8961 563.666 66.4503 560.576 63.955C557.487 61.4598 553.655 60.2122 549.08 60.2122C544.625 60.2122 540.822 61.4301 537.673 63.8659C534.584 66.2423 532.208 69.6287 530.544 74.0251C528.94 78.362 528.138 83.501 528.138 89.4421C528.138 95.3237 528.97 100.463 530.633 104.859C532.297 109.255 534.673 112.701 537.763 115.196C540.911 117.632 544.684 118.85 549.08 118.85ZM627.502 70.2822H657.356C670.545 70.2228 680.793 73.3419 688.101 79.6394C695.467 85.9369 699.181 94.3434 699.24 104.859C699.24 111.691 697.576 117.692 694.25 122.86C690.923 127.97 686.14 131.98 679.902 134.891C673.664 137.743 666.148 139.169 657.356 139.169H610.303V39.5374H636.592V117.424H657.356C661.93 117.424 665.703 116.266 668.673 113.949C671.644 111.632 673.159 108.661 673.218 105.037C673.159 101.176 671.644 98.0269 668.673 95.591C665.703 93.1552 661.93 91.967 657.356 92.0264H627.502V70.2822Z"/>
</mask>
<path d="M105.641 139.169L104.977 139.171L104.98 139.833H105.641V139.169ZM105.552 117.335V116.671H104.886L104.888 117.338L105.552 117.335ZM108.85 117.335V117.999L108.862 117.999L108.85 117.335ZM116.513 114.127L116.037 113.664L116.03 113.672L116.513 114.127ZM121.058 103.701L120.409 103.56L120.408 103.566L121.058 103.701ZM123.108 83.7387L122.445 83.7133L122.444 83.7151L123.108 83.7387ZM124.801 39.5374V38.8734H124.162L124.138 39.512L124.801 39.5374ZM200.46 39.5374H201.124V38.8734H200.46V39.5374ZM174.171 61.2816H174.835V60.6176H174.171V61.2816ZM149.575 61.2816V60.6176H148.945L148.912 61.2467L149.575 61.2816ZM147.971 91.7591L147.308 91.7242L147.308 91.7259L147.971 91.7591ZM138.258 128.029L137.724 127.635L137.723 127.636L138.258 128.029ZM127.92 136.495L128.188 137.103L128.192 137.101L127.92 136.495ZM390.811 39.5374H391.475V38.8734H390.811V39.5374ZM390.811 61.2816V61.9455H391.475V61.2816H390.811ZM349.461 61.2816V60.6176H348.798V61.2816H349.461ZM322.816 39.5374V38.8734H322.152V39.5374H322.816ZM501.225 39.5374V38.8734H500.561V39.5374H501.225ZM528.316 39.5374H528.98V38.8734H528.316V39.5374ZM528.316 56.3802H527.652V57.0442H528.316V56.3802ZM529.564 56.3802V57.0442H529.991L530.168 56.6559L529.564 56.3802ZM544.001 41.1414L544.294 41.7372L544.301 41.7334L544.001 41.1414ZM577.954 43.9931L577.601 44.5556L577.607 44.5596L577.954 43.9931ZM592.836 117.603L593.437 117.884L593.438 117.883L592.836 117.603ZM578.31 134.891L577.952 134.332L577.949 134.334L578.31 134.891ZM535 131.415L534.494 131.845L534.499 131.851L534.504 131.857L535 131.415ZM529.564 123.217L530.163 122.93L529.982 122.553H529.564V123.217ZM528.762 123.217V122.553H528.098V123.217H528.762ZM709.934 39.5374V38.8734H709.27V39.5374H709.934ZM737.471 39.5374H738.135V38.8734H737.471V39.5374ZM106.305 139.166L106.216 117.333L104.888 117.338L104.977 139.171L106.305 139.166ZM105.552 117.999H108.85V116.671H105.552V117.999ZM108.862 117.999C112.169 117.937 114.9 116.806 116.997 114.583L116.03 113.672C114.205 115.607 111.827 116.615 108.837 116.671L108.862 117.999ZM116.99 114.59C119.14 112.376 120.689 108.752 121.709 103.835L120.408 103.566C119.408 108.392 117.927 111.72 116.037 113.664L116.99 114.59ZM121.707 103.841C122.789 98.8548 123.474 92.1563 123.772 83.7622L122.444 83.7151C122.148 92.0747 121.467 98.6842 120.409 103.56L121.707 103.841ZM123.771 83.7641L125.465 39.5628L124.138 39.512L122.445 83.7133L123.771 83.7641ZM124.801 40.2013H200.46V38.8734H124.801V40.2013ZM199.796 39.5374V139.169H201.124V39.5374H199.796ZM174.171 60.6176H149.575V61.9455H174.171V60.6176ZM148.912 61.2467L147.308 91.7242L148.634 91.794L150.238 61.3165L148.912 61.2467ZM147.308 91.7259C146.894 100.011 145.889 107.122 144.3 113.064L145.583 113.407C147.202 107.349 148.217 100.142 148.634 91.7922L147.308 91.7259ZM144.3 113.064C142.711 119.007 140.514 123.856 137.724 127.635L138.792 128.424C141.705 124.478 143.963 119.466 145.583 113.407L144.3 113.064ZM137.723 127.636C134.995 131.351 131.638 134.097 127.648 135.889L128.192 137.101C132.402 135.21 135.936 132.312 138.793 128.422L137.723 127.636ZM127.652 135.888C123.712 137.626 119.142 138.505 113.929 138.505V139.833C119.291 139.833 124.049 138.929 128.188 137.103L127.652 135.888ZM113.929 138.505H105.641V139.833H113.929V138.505ZM390.147 39.5374V61.2816H391.475V39.5374H390.147ZM390.811 60.6176H349.461V61.9455H390.811V60.6176ZM348.798 61.2816V139.169H350.125V61.2816H348.798ZM322.816 40.2013H390.811V38.8734H322.816V40.2013ZM501.225 40.2013H528.316V38.8734H501.225V40.2013ZM527.652 39.5374V56.3802H528.98V39.5374H527.652ZM528.316 57.0442H529.564V55.7162H528.316V57.0442ZM530.168 56.6559C531.387 53.9861 533.135 51.2726 535.422 48.5165L534.4 47.6685C532.053 50.4968 530.236 53.3086 528.96 56.1045L530.168 56.6559ZM535.422 48.5165C537.671 45.8061 540.622 43.5438 544.294 41.7372L543.708 40.5457C539.893 42.4226 536.785 44.7942 534.4 47.6685L535.422 48.5165ZM544.301 41.7334C547.926 39.8922 552.45 38.9537 557.903 38.9537V37.6258C552.305 37.6258 547.561 38.5885 543.7 40.5495L544.301 41.7334ZM557.903 38.9537C565.088 38.9537 571.649 40.8211 577.601 44.5556L578.307 43.4307C572.139 39.5606 565.332 37.6258 557.903 37.6258V38.9537ZM577.607 44.5596C583.6 48.225 588.422 53.7929 592.06 61.3037L593.255 60.7248C589.526 53.0265 584.546 47.247 578.3 43.4267L577.607 44.5596ZM592.06 61.3037C595.687 68.7921 597.519 78.1913 597.519 89.5312H598.847C598.847 78.0575 596.995 68.4454 593.255 60.7248L592.06 61.3037ZM597.519 89.5312C597.519 100.513 595.747 109.769 592.234 117.323L593.438 117.883C597.054 110.108 598.847 100.65 598.847 89.5312H597.519ZM592.235 117.321C588.715 124.83 583.95 130.488 577.952 134.332L578.668 135.45C584.909 131.451 589.828 125.584 593.437 117.884L592.235 117.321ZM577.949 134.334C572.003 138.181 565.297 140.109 557.814 140.109V141.437C565.539 141.437 572.498 139.443 578.671 135.448L577.949 134.334ZM557.814 140.109C552.538 140.109 548.096 139.229 544.464 137.5L543.893 138.699C547.747 140.534 552.396 141.437 557.814 141.437V140.109ZM544.464 137.5C540.789 135.75 537.805 133.572 535.496 130.974L534.504 131.857C536.948 134.606 540.083 136.884 543.893 138.699L544.464 137.5ZM535.506 130.986C533.22 128.289 531.441 125.604 530.163 122.93L528.965 123.503C530.301 126.296 532.146 129.076 534.494 131.845L535.506 130.986ZM529.564 122.553H528.762V123.881H529.564V122.553ZM528.098 123.217V176.419H529.426V123.217H528.098ZM709.934 40.2013H737.471V38.8734H709.934V40.2013ZM736.807 39.5374V139.169H738.135V39.5374H736.807ZM173.507 61.2816V139.169H174.835V61.2816H173.507ZM322.152 39.5374V139.169H323.48V39.5374H322.152ZM500.561 39.5374V176.419H501.889V39.5374H500.561ZM709.27 39.5374V139.169H710.598V39.5374H709.27ZM88.5312 3L89.7339 2.43714L89.0518 0.97942L87.7501 1.92605L88.5312 3ZM96.9972 21.0905L97.8451 22.1124L98.6349 21.4571L98.1999 20.5276L96.9972 21.0905ZM87.64 26.2592L88.0399 27.5255L88.0467 27.5233L88.0534 27.5211L87.64 26.2592ZM75.4312 28.3979L75.3319 27.0737L75.3306 27.0738L75.4312 28.3979ZM58.1428 29.1109L58.1531 30.4388L58.1659 30.4386L58.1428 29.1109ZM39.3394 32.8537L39.9274 34.0444L39.9333 34.0414L39.3394 32.8537ZM23.3877 63.7768L22.0667 63.6418L21.9172 65.1047H23.3877V63.7768ZM24.4571 63.7768V65.1047H25.2924L25.6541 64.3518L24.4571 63.7768ZM36.9333 49.7857L37.6202 50.9221L37.6237 50.92L36.9333 49.7857ZM79.3523 50.4095L78.6785 51.5538L78.6865 51.5585L79.3523 50.4095ZM99.4924 91.3135L98.1645 91.3054L98.1644 91.3133L98.1645 91.3213L99.4924 91.3135ZM76.857 134.98L76.2145 133.818L76.2105 133.82L76.857 134.98ZM50.9244 141.129L50.9192 142.457L50.9323 142.457L50.9244 141.129ZM15.1891 126.871L14.2112 127.769L14.214 127.772L15.1891 126.871ZM2 85.521H0.672058L0.672072 85.5254L2 85.521ZM2 77.4115L0.672065 77.4082V77.4115H2ZM57.3407 6.38639L57.3538 7.71427L57.3569 7.71423L57.3407 6.38639ZM70.619 6.38639L70.5991 7.71418L70.6091 7.71433H70.619V6.38639ZM81.0455 5.76258L80.8649 4.44698L80.8614 4.44747L81.0455 5.76258ZM61.9748 116.444L62.7546 117.519L62.7614 117.514L62.7682 117.509L61.9748 116.444ZM71.421 92.2938L70.0931 92.2799L70.093 92.2938L70.0931 92.3077L71.421 92.2938ZM69.0149 77.857L67.7896 78.3691L67.7924 78.3757L69.0149 77.857ZM61.8856 68.7673L61.1342 69.8622L61.1442 69.8689L61.8856 68.7673ZM35.7748 72.6883L36.8171 73.5112L36.8222 73.5046L36.8273 73.498L35.7748 72.6883ZM30.1605 92.2938L28.8327 92.2753L28.8326 92.2845V92.2938H30.1605ZM35.6857 112.345L34.6218 113.139L34.6279 113.148L35.6857 112.345ZM235.483 134.713L234.805 135.855L234.816 135.861L235.483 134.713ZM218.551 116.711L217.367 117.313L217.372 117.323L218.551 116.711ZM218.551 62.7965L217.37 62.1882L217.369 62.1917L218.551 62.7965ZM235.483 44.7952L236.154 45.9412L236.156 45.9395L235.483 44.7952ZM287.704 44.7952L287.027 45.9372L287.038 45.9436L287.704 44.7952ZM304.636 62.7965L303.452 63.3977L303.458 63.4086L304.636 62.7965ZM304.636 116.711L303.456 116.103L303.454 116.107L304.636 116.711ZM287.704 134.713L288.375 135.859L288.378 135.857L287.704 134.713ZM273.268 115.731L274.114 116.755L274.12 116.75L274.125 116.745L273.268 115.731ZM280.219 105.037L278.967 104.593L278.965 104.6L278.962 104.607L280.219 105.037ZM280.219 74.2033L278.964 74.6383L278.967 74.6457L278.969 74.6531L280.219 74.2033ZM250.098 63.6877L249.261 62.6564L249.251 62.6643L250.098 63.6877ZM243.058 74.2033L241.808 73.7535L241.805 73.7609L241.803 73.7684L243.058 74.2033ZM243.058 105.037L241.801 105.467L241.804 105.475L241.806 105.482L243.058 105.037ZM250.098 115.731L249.24 116.745L249.25 116.754L249.261 116.762L250.098 115.731ZM400.168 117.157L398.984 117.758L398.99 117.769L400.168 117.157ZM400.168 62.8856L398.988 62.2773L398.984 62.2845L400.168 62.8856ZM416.922 44.7952L416.24 43.6557L416.236 43.6582L416.922 44.7952ZM460.856 41.4979L460.39 42.7413L460.401 42.7455L460.856 41.4979ZM475.827 50.9442L474.895 51.8897L474.902 51.8963L475.827 50.9442ZM485.808 66.7176L484.564 67.1826L484.566 67.1864L485.808 66.7176ZM489.373 96.3931V97.721H490.701V96.3931H489.373ZM405.248 96.3931H403.92V97.721H405.248V96.3931ZM405.248 79.372V78.0441H403.92V79.372H405.248ZM476.006 79.372L476.441 80.6265L476.006 78.0441V79.372ZM463.173 83.8278H461.845V85.6946L463.608 85.0823L463.173 83.8278ZM453.905 61.9945L453.153 63.0894L453.166 63.0978L453.178 63.1059L453.905 61.9945ZM431.091 61.9945L430.359 60.8863L430.35 60.8928L431.091 61.9945ZM424.319 108.691L423.127 109.278L423.131 109.285L424.319 108.691ZM432.25 117.513L431.555 118.645L431.567 118.652L431.578 118.659L432.25 117.513ZM458.895 115.286L457.988 114.316L457.98 114.323L457.972 114.331L458.895 115.286ZM462.995 109.047L463.083 107.722L462.09 107.657L461.748 108.591L462.995 109.047ZM488.482 110.741L489.783 111.006L490.087 109.516L488.57 109.416L488.482 110.741ZM480.64 126.781L479.638 125.91L479.637 125.911L480.64 126.781ZM465.401 137.386L465.894 138.619L465.904 138.615L465.401 137.386ZM567.527 104.77L568.775 105.225L568.777 105.22L567.527 104.77ZM567.527 74.2924L566.274 74.7326L566.278 74.7429L566.282 74.7531L567.527 74.2924ZM537.673 63.8659L538.483 64.9185L538.486 64.9163L537.673 63.8659ZM530.544 74.0251L529.302 73.5551L529.299 73.5644L530.544 74.0251ZM537.763 115.196L536.928 116.23L536.939 116.238L536.95 116.247L537.763 115.196ZM627.502 70.2822V68.9543H626.174V70.2822H627.502ZM657.356 70.2822V71.6102L657.362 71.6102L657.356 70.2822ZM688.101 79.6394L687.234 80.6453L687.238 80.6488L688.101 79.6394ZM699.24 104.859H700.568V104.852L699.24 104.859ZM694.25 122.86L695.362 123.585L695.366 123.579L694.25 122.86ZM679.902 134.891L680.454 136.099L680.464 136.094L679.902 134.891ZM610.303 139.169H608.975V140.496H610.303V139.169ZM610.303 39.5374V38.2094H608.975V39.5374H610.303ZM636.592 39.5374H637.92V38.2094H636.592V39.5374ZM636.592 117.424H635.264V118.752H636.592V117.424ZM673.218 105.037L674.546 105.059L674.546 105.038L674.546 105.017L673.218 105.037ZM657.356 92.0264V93.3544H657.364L657.373 93.3542L657.356 92.0264ZM627.502 92.0264H626.174V93.3544H627.502V92.0264ZM87.3284 3.56286L95.7944 21.6533L98.1999 20.5276L89.7339 2.43714L87.3284 3.56286ZM96.1492 20.0685C93.4853 22.279 90.5137 23.9204 87.2266 24.9972L88.0534 27.5211C91.658 26.3403 94.9245 24.5359 97.8451 22.1124L96.1492 20.0685ZM87.2402 24.9929C83.9781 26.023 80.015 26.7225 75.3319 27.0737L75.5305 29.7221C80.3531 29.3604 84.5292 28.6341 88.0399 27.5255L87.2402 24.9929ZM75.3306 27.0738C70.6716 27.4277 64.9364 27.6646 58.1197 27.7831L58.1659 30.4386C65.0135 30.3195 70.8039 30.0811 75.5318 29.722L75.3306 27.0738ZM58.1325 27.783C50.3432 27.8433 43.8568 29.1103 38.7455 31.666L39.9333 34.0414C44.5653 31.7254 50.6145 30.4972 58.1531 30.4387L58.1325 27.783ZM38.7514 31.663C33.6641 34.1753 29.8053 38.1073 27.1877 43.4049L29.5687 44.5814C31.9416 39.7792 35.3903 36.2849 39.9274 34.0444L38.7514 31.663ZM27.1877 43.4049C24.5981 48.6456 22.9079 55.41 22.0667 63.6418L24.7088 63.9118C25.5311 55.8652 27.1678 49.4405 29.5687 44.5814L27.1877 43.4049ZM23.3877 65.1047H24.4571V62.4489H23.3877V65.1047ZM25.6541 64.3518C28.4609 58.5091 32.4493 54.0474 37.6202 50.9221L36.2464 48.6492C30.6046 52.059 26.2755 56.9248 23.2601 63.2018L25.6541 64.3518ZM37.6237 50.92C42.8362 47.7472 49.2968 46.1231 57.0734 46.1231V43.4673C48.928 43.4673 41.9619 45.1702 36.2428 48.6513L37.6237 50.92ZM57.0734 46.1231C65.3686 46.1231 72.5551 47.9484 78.6785 51.5538L80.026 49.2651C73.4357 45.3848 65.7695 43.4673 57.0734 43.4673V46.1231ZM78.6865 51.5585C84.8088 55.1059 89.5969 60.2278 93.053 66.9671L95.4162 65.7552C91.743 58.5924 86.6096 53.0799 80.0181 49.2605L78.6865 51.5585ZM93.053 66.9671C96.4995 73.688 98.2229 81.7847 98.1645 91.3054L100.82 91.3216C100.881 81.4745 99.0989 72.9364 95.4162 65.7552L93.053 66.9671ZM98.1645 91.3213C98.2229 101.246 96.3259 109.816 92.5236 117.076L94.8762 118.308C98.916 110.595 100.881 101.58 100.82 91.3057L98.1645 91.3213ZM92.5236 117.076C88.7216 124.334 83.2916 129.905 76.2146 133.818L77.4995 136.142C85.0375 131.975 90.836 126.021 94.8762 118.308L92.5236 117.076ZM76.2105 133.82C69.1949 137.731 60.78 139.743 50.9166 139.801L50.9323 142.457C61.1496 142.397 70.0231 140.31 77.5036 136.14L76.2105 133.82ZM50.9297 139.801C36.1384 139.743 24.6038 135.098 16.1642 125.969L14.214 127.772C23.241 137.536 35.53 142.396 50.9192 142.457L50.9297 139.801ZM16.167 125.972C7.7336 116.793 3.38668 103.379 3.32793 85.5166L0.672072 85.5254C0.732136 103.785 5.17795 117.937 14.2112 127.769L16.167 125.972ZM3.32794 85.521V77.4115H0.672065V85.521H3.32794ZM3.32793 77.4148C3.38702 53.5425 8.06184 36.1079 17.1146 24.8641L15.0459 23.1985C5.44382 35.1246 0.7318 53.2769 0.672069 77.4082L3.32793 77.4148ZM17.1146 24.8641C26.1377 13.657 39.4744 7.88955 57.3538 7.71426L57.3277 5.05852C38.8479 5.23969 24.6777 11.2355 15.0459 23.1985L17.1146 24.8641ZM57.3569 7.71423C62.2191 7.65493 66.6329 7.65498 70.5991 7.71418L70.6388 5.0586C66.644 4.99898 62.2057 4.99903 57.3246 5.05855L57.3569 7.71423ZM70.619 7.71433C74.6425 7.71433 78.1821 7.50434 81.2296 7.07769L80.8614 4.44747C77.9678 4.85256 74.5565 5.05846 70.619 5.05846V7.71433ZM81.2261 7.07818C84.4174 6.64015 87.1341 5.65804 89.3122 4.07395L87.7501 1.92605C86.0072 3.19366 83.7334 4.05327 80.8649 4.44698L81.2261 7.07818ZM51.0135 121.069C55.5296 121.069 59.4664 119.904 62.7546 117.519L61.195 115.369C58.4232 117.38 55.0525 118.413 51.0135 118.413V121.069ZM62.7682 117.509C66.0239 115.083 68.5064 111.693 70.2454 107.408L67.7844 106.409C66.1964 110.323 63.9855 113.29 61.1813 115.379L62.7682 117.509ZM70.2454 107.408C71.9905 103.108 72.8096 98.0531 72.7489 92.2798L70.0931 92.3077C70.1512 97.8224 69.3663 102.511 67.7844 106.409L70.2454 107.408ZM72.7489 92.3076C72.8096 86.48 71.9921 81.4746 70.2374 77.3384L67.7924 78.3757C69.3647 82.0817 70.1513 86.7007 70.0931 92.2799L72.7489 92.3076ZM70.2401 77.345C68.4928 73.1638 65.9644 69.9119 62.6271 67.6656L61.1442 69.8689C63.9856 71.7814 66.21 74.5893 67.7896 78.3691L70.2401 77.345ZM62.637 67.6724C59.3514 65.4175 55.425 64.3203 50.9244 64.3203V66.9762C54.9789 66.9762 58.3601 67.9583 61.1342 69.8622L62.637 67.6724ZM50.9244 64.3203C47.5496 64.3203 44.4731 64.9461 41.7202 66.2265L42.8403 68.6346C45.1967 67.5386 47.8829 66.9762 50.9244 66.9762V64.3203ZM41.7202 66.2265C38.9647 67.5081 36.6296 69.3991 34.7222 71.8787L36.8273 73.498C38.4846 71.3436 40.4865 69.7294 42.8403 68.6346L41.7202 66.2265ZM34.7325 71.8655C32.8267 74.2795 31.3902 77.2029 30.4004 80.6052L32.9506 81.347C33.8619 78.2142 35.1582 75.6124 36.8171 73.5112L34.7325 71.8655ZM30.4004 80.6052C29.4092 84.0123 28.8934 87.9076 28.8327 92.2753L31.4883 92.3122C31.5465 88.1249 32.0406 84.4751 32.9506 81.347L30.4004 80.6052ZM28.8326 92.2938C28.8326 100.912 30.7135 107.907 34.6218 113.139L36.7496 111.55C33.2909 106.92 31.4884 100.548 31.4884 92.2938H28.8326ZM34.6279 113.148C38.6351 118.427 44.1449 121.069 51.0135 121.069V118.413C44.9308 118.413 40.222 116.125 36.7434 111.542L34.6279 113.148ZM261.594 139.801C251.745 139.801 243.28 137.705 236.15 133.564L234.816 135.861C242.419 140.276 251.361 142.457 261.594 142.457V139.801ZM236.16 133.571C229.07 129.362 223.597 123.547 219.729 116.099L217.372 117.323C221.465 125.204 227.281 131.389 234.805 135.855L236.16 133.571ZM219.735 116.11C215.924 108.604 213.997 99.8456 213.997 89.7985H211.341C211.341 100.189 213.335 109.372 217.367 117.313L219.735 116.11ZM213.997 89.7985C213.997 79.6296 215.925 70.8441 219.733 63.4014L217.369 62.1917C213.334 70.0769 211.341 79.2927 211.341 89.7985H213.997ZM219.731 63.4049C223.599 55.8993 229.069 50.088 236.154 45.9412L234.812 43.6492C227.281 48.0574 221.463 54.2471 217.37 62.1882L219.731 63.4049ZM236.156 45.9395C243.286 41.7423 251.748 39.6177 261.594 39.6177V36.9618C251.358 36.9618 242.413 39.1741 234.809 43.6508L236.156 45.9395ZM261.594 39.6177C271.5 39.6177 279.96 41.7431 287.027 45.9371L288.382 43.6532C280.834 39.1733 271.887 36.9618 261.594 36.9618V39.6177ZM287.038 45.9436C294.179 50.0902 299.645 55.8988 303.452 63.3977L305.82 62.1954C301.785 54.2476 295.964 48.0553 288.371 43.6468L287.038 45.9436ZM303.458 63.4086C307.323 70.8496 309.279 79.6325 309.279 89.7985H311.935C311.935 79.2898 309.911 70.0713 305.815 62.1845L303.458 63.4086ZM309.279 89.7985C309.279 99.8427 307.324 108.598 303.456 116.103L305.817 117.32C309.91 109.378 311.935 100.192 311.935 89.7985H309.279ZM303.454 116.107C299.647 123.548 294.179 129.36 287.031 133.568L288.378 135.857C295.964 131.391 301.783 125.203 305.819 117.316L303.454 116.107ZM287.034 133.567C279.966 137.704 271.503 139.801 261.594 139.801V142.457C271.883 142.457 280.828 140.277 288.375 135.859L287.034 133.567ZM261.772 120.891C266.609 120.891 270.753 119.534 274.114 116.755L272.421 114.708C269.603 117.038 266.084 118.235 261.772 118.235V120.891ZM274.125 116.745C277.429 113.95 279.867 110.168 281.475 105.467L278.962 104.607C277.481 108.937 275.286 112.284 272.41 114.717L274.125 116.745ZM281.47 105.482C283.134 100.798 283.953 95.5048 283.953 89.6203H281.297C281.297 95.2614 280.512 100.246 278.967 104.593L281.47 105.482ZM283.953 89.6203C283.953 83.6787 283.135 78.3824 281.468 73.7535L278.969 74.6531C280.511 78.9358 281.297 83.9175 281.297 89.6203H283.953ZM281.473 73.7684C279.863 69.1238 277.422 65.3995 274.114 62.6643L272.421 64.711C275.292 67.0852 277.485 70.3713 278.964 74.6383L281.473 73.7684ZM274.114 62.6643C270.753 59.8853 266.609 58.5278 261.772 58.5278V61.1836C266.084 61.1836 269.603 62.3808 272.421 64.711L274.114 62.6643ZM261.772 58.5278C256.879 58.5278 252.68 59.8828 249.261 62.6565L250.934 64.7189C253.813 62.3833 257.397 61.1836 261.772 61.1836V58.5278ZM249.251 62.6643C245.948 65.3961 243.478 69.1148 241.808 73.7535L244.307 74.6531C245.845 70.3803 248.069 67.0886 250.944 64.711L249.251 62.6643ZM241.803 73.7684C240.2 78.3924 239.413 83.6834 239.413 89.6203H242.068C242.068 83.9127 242.826 78.9257 244.312 74.6383L241.803 73.7684ZM239.413 89.6203C239.413 95.5 240.2 100.788 241.801 105.467L244.314 104.607C242.825 100.256 242.068 95.2663 242.068 89.6203H239.413ZM241.806 105.482C243.474 110.177 245.941 113.953 249.24 116.745L250.955 114.717C248.076 112.281 245.849 108.928 244.309 104.593L241.806 105.482ZM249.261 116.762C252.68 119.536 256.879 120.891 261.772 120.891V118.235C257.397 118.235 253.813 117.036 250.934 114.7L249.261 116.762ZM443.746 139.801C433.709 139.801 425.119 137.76 417.927 133.732L416.63 136.05C424.29 140.34 433.345 142.457 443.746 142.457V139.801ZM417.927 133.732C410.731 129.702 405.21 123.982 401.347 116.545L398.99 117.769C403.088 125.659 408.974 131.762 416.63 136.05L417.927 133.732ZM401.352 116.556C397.544 109.055 395.615 100.149 395.615 89.7985H392.959C392.959 100.479 394.95 109.813 398.984 117.758L401.352 116.556ZM395.615 89.7985C395.615 79.7515 397.541 70.9931 401.352 63.4868L398.984 62.2845C394.953 70.2248 392.959 79.4084 392.959 89.7985H395.615ZM401.349 63.494C405.221 55.9812 410.637 50.1376 417.608 45.9322L416.236 43.6582C408.829 48.1267 403.077 54.3434 398.988 62.2773L401.349 63.494ZM417.604 45.9347C424.616 41.739 432.868 39.6177 442.409 39.6177V36.9618C432.463 36.9618 423.724 39.1775 416.24 43.6557L417.604 45.9347ZM442.409 39.6177C448.857 39.6177 454.847 40.6629 460.39 42.7413L461.322 40.2545C455.458 38.0554 449.15 36.9618 442.409 36.9618V39.6177ZM460.401 42.7455C465.927 44.7603 470.754 47.8068 474.895 51.8897L476.76 49.9986C472.345 45.6453 467.191 42.3942 461.311 40.2503L460.401 42.7455ZM474.902 51.8963C479.02 55.9005 482.247 60.9843 484.564 67.1826L487.052 66.2526C484.616 59.7372 481.189 54.3053 476.753 49.992L474.902 51.8963ZM484.566 67.1864C486.873 73.3006 488.045 80.5316 488.045 88.9074H490.701C490.701 80.2918 489.496 72.7296 487.051 66.2488L484.566 67.1864ZM488.045 88.9074V96.3931H490.701V88.9074H488.045ZM489.373 95.0651H405.248V97.721H489.373V95.0651ZM406.576 96.3931V79.372H403.92V96.3931H406.576ZM405.248 80.7H476.006V78.0441H405.248V80.7ZM475.57 78.1176L462.737 82.5733L463.608 85.0823L476.441 80.6265L475.57 78.1176ZM464.501 83.8278C464.501 78.6456 463.709 74.07 462.083 70.1321L459.628 71.1453C461.093 74.6931 461.845 78.9102 461.845 83.8278H464.501ZM462.083 70.1321C460.447 66.1668 457.967 63.0637 454.632 60.883L453.178 63.1059C456.022 64.9652 458.176 67.6248 459.628 71.1453L462.083 70.1321ZM454.656 60.8996C451.359 58.6368 447.309 57.5475 442.587 57.5475V60.2034C446.896 60.2034 450.391 61.1935 453.153 63.0894L454.656 60.8996ZM442.587 57.5475C437.864 57.5475 433.765 58.6375 430.36 60.8864L431.823 63.1026C434.715 61.1928 438.28 60.2034 442.587 60.2034V57.5475ZM430.35 60.8928C427.049 63.1146 424.518 66.1285 422.759 69.8989L425.165 71.022C426.733 67.6632 428.955 65.0331 431.833 63.0961L430.35 60.8928ZM422.759 69.8989C421 73.6679 420.139 77.9646 420.139 82.7584H422.795C422.795 78.2842 423.597 74.3822 425.165 71.022L422.759 69.8989ZM420.139 82.7584V94.789H422.795V82.7584H420.139ZM420.139 94.789C420.139 100.348 421.116 105.193 423.127 109.278L425.51 108.104C423.719 104.466 422.795 100.043 422.795 94.789H420.139ZM423.131 109.285C425.135 113.293 427.942 116.427 431.555 118.645L432.945 116.382C429.784 114.441 427.305 111.694 425.506 108.097L423.131 109.285ZM431.578 118.659C435.251 120.812 439.438 121.871 444.102 121.871V119.215C439.855 119.215 436.141 118.255 432.921 116.368L431.578 118.659ZM444.102 121.871C447.319 121.871 450.266 121.407 452.926 120.457L452.032 117.956C449.702 118.788 447.064 119.215 444.102 119.215V121.871ZM452.926 120.457C455.586 119.507 457.891 118.104 459.818 116.24L457.972 114.331C456.335 115.913 454.362 117.124 452.032 117.956L452.926 120.457ZM459.803 116.255C461.801 114.386 463.281 112.129 464.242 109.504L461.748 108.591C460.926 110.837 459.673 112.739 457.988 114.316L459.803 116.255ZM462.907 110.373L488.394 112.066L488.57 109.416L463.083 107.722L462.907 110.373ZM487.181 110.475C485.977 116.377 483.463 121.513 479.638 125.91L481.641 127.653C485.777 122.9 488.491 117.343 489.783 111.006L487.181 110.475ZM479.637 125.911C475.868 130.25 470.968 133.671 464.898 136.157L465.904 138.615C472.31 135.992 477.568 132.343 481.642 127.652L479.637 125.911ZM464.908 136.153C458.857 138.574 451.812 139.801 443.746 139.801V142.457C452.077 142.457 459.469 141.189 465.894 138.619L464.908 136.153ZM549.08 120.178C553.855 120.178 557.964 118.852 561.321 116.14L559.653 114.074C556.832 116.353 553.336 117.522 549.08 117.522V120.178ZM561.321 116.14C564.63 113.468 567.103 109.807 568.775 105.225L566.28 104.315C564.743 108.525 562.523 111.756 559.653 114.074L561.321 116.14ZM568.777 105.22C570.443 100.592 571.261 95.326 571.261 89.4421H568.605C568.605 95.0837 567.82 100.036 566.278 104.32L568.777 105.22ZM571.261 89.4421C571.261 83.5593 570.443 78.3475 568.773 73.8318L566.282 74.7531C567.82 78.9113 568.605 83.7993 568.605 89.4421H571.261ZM568.78 73.8522C567.168 69.2641 564.723 65.5973 561.411 62.922L559.742 64.9881C562.608 67.3032 564.797 70.528 566.274 74.7326L568.78 73.8522ZM561.411 62.922C558.05 60.2075 553.91 58.8842 549.08 58.8842V61.5401C553.4 61.5401 556.924 62.7121 559.742 64.9881L561.411 62.922ZM549.08 58.8842C544.367 58.8842 540.27 60.1784 536.861 62.8156L538.486 64.9163C541.374 62.6818 544.882 61.5401 549.08 61.5401V58.8842ZM536.864 62.8134C533.542 65.3684 531.035 68.976 529.302 73.5551L531.786 74.495C533.381 70.2815 535.626 67.1162 538.483 64.9185L536.864 62.8134ZM529.299 73.5644C527.627 78.0841 526.81 83.3864 526.81 89.4421H529.466C529.466 83.6156 530.253 78.64 531.79 74.4857L529.299 73.5644ZM526.81 89.4421C526.81 95.4455 527.659 100.75 529.391 105.329L531.875 104.389C530.281 100.175 529.466 95.2019 529.466 89.4421H526.81ZM529.391 105.329C531.123 109.905 533.624 113.561 536.928 116.23L538.597 114.163C535.722 111.842 533.471 108.606 531.875 104.389L529.391 105.329ZM536.95 116.247C540.356 118.882 544.422 120.178 549.08 120.178V117.522C544.945 117.522 541.467 116.383 538.575 114.146L536.95 116.247ZM627.502 71.6102H657.356V68.9543H627.502V71.6102ZM657.362 71.6102C670.349 71.5517 680.245 74.6228 687.234 80.6453L688.967 78.6334C681.341 72.0609 670.741 68.894 657.35 68.9543L657.362 71.6102ZM687.238 80.6488C694.284 86.6726 697.855 94.6995 697.912 104.867L700.568 104.852C700.507 93.9873 696.65 85.2012 688.963 78.63L687.238 80.6488ZM697.912 104.859C697.912 111.466 696.307 117.211 693.133 122.142L695.366 123.579C698.846 118.173 700.568 111.917 700.568 104.859H697.912ZM693.137 122.136C689.962 127.011 685.383 130.868 679.34 133.688L680.464 136.094C686.897 133.092 691.883 128.928 695.362 123.585L693.137 122.136ZM679.35 133.683C673.327 136.437 666.01 137.841 657.356 137.841V140.496C666.287 140.496 674.001 139.049 680.454 136.099L679.35 133.683ZM657.356 137.841H610.303V140.496H657.356V137.841ZM611.631 139.169V39.5374H608.975V139.169H611.631ZM610.303 40.8653H636.592V38.2094H610.303V40.8653ZM635.264 39.5374V117.424H637.92V39.5374H635.264ZM636.592 118.752H657.356V116.096H636.592V118.752ZM657.356 118.752C662.161 118.752 666.24 117.531 669.49 114.996L667.857 112.902C665.166 115 661.7 116.096 657.356 116.096V118.752ZM669.49 114.996C672.763 112.443 674.48 109.103 674.546 105.059L671.891 105.016C671.838 108.22 670.525 110.82 667.857 112.902L669.49 114.996ZM674.546 105.017C674.481 100.767 672.79 97.2492 669.515 94.5642L667.831 96.6179C670.498 98.8045 671.837 101.584 671.891 105.058L674.546 105.017ZM669.515 94.5642C666.259 91.8936 662.164 90.6359 657.338 90.6986L657.373 93.3542C661.697 93.2981 665.147 94.4168 667.831 96.6179L669.515 94.5642ZM657.356 90.6985H627.502V93.3544H657.356V90.6985ZM628.83 92.0264V70.2822H626.174V92.0264H628.83Z" fill="black" mask="url(#path-9-outside-1_1023_23107)"/>
</svg>
