<svg width="1071" height="666" viewBox="0 0 1071 666" fill="none" xmlns="http://www.w3.org/2000/svg">
<circle cx="601.511" cy="637.848" r="3.68084" fill="black"/>
<circle cx="454.302" cy="394.681" r="3.68084" fill="black"/>
<path d="M9.2184 84.2143C47.6937 37.051 102.089 1 164.346 1C190.574 1 204.768 3.07798 222.006 24.3719C232.155 36.9095 247.304 50.6126 247.304 68.0337C247.304 117.687 217.259 174.113 179.756 206.724C155.09 228.173 135.838 254.703 109.641 274.528C78.203 298.319 61.297 320.187 38.8925 352.476C12.4755 390.547 -8.05042 454.608 5.07597 502.34C23.2216 568.324 101.38 581.189 159.819 581.189C172.189 581.189 184.56 581.189 196.931 581.189C210.903 581.189 224.148 574.257 236.997 569.117C263.802 558.395 294.486 535.435 308.397 509.532C323.388 481.618 327.403 456.242 327.403 424.905C327.403 385.652 318.658 348.636 315.974 309.715C313.291 270.806 311.081 218.262 327.917 183.095M358.12 123.5C399.62 46 488.677 49.5417 520.542 49.5417C549.355 49.5417 585.92 69.5 594.62 126.5M600.12 171C600.12 211.5 591.62 217 586.42 226.372C579.682 247.261 563.644 263.706 553.931 283.132C532.903 325.188 483.965 357.112 454.62 393.5M398.12 533C388.777 566.566 383.571 613.061 414.47 638.976C447.738 666.879 490.842 666.377 531.843 664.274C568.481 662.396 600.485 637.896 630.339 619.457C647.042 609.14 662.661 589.614 676.328 575.093C692.764 550.082 710.995 530.558 720.931 502.34C742.955 439.793 779.693 379.705 786.942 314.466C791.913 269.728 795.134 220.861 810.185 178.216C824.594 137.391 834.727 89.5265 876.448 68.0337C912.083 49.6764 951.833 71.8838 979.953 92.433C1030.55 129.409 1044.67 199.43 1044.67 257.577C1044.67 289.022 1042.84 321.352 1028.49 350.038C1013.8 379.423 999.285 408.41 986.887 438.902C966.416 489.251 937.339 548.299 954.526 603.79C968.254 648.113 1010.43 639.896 1043.13 620.998C1055.93 613.604 1070.1 599.274 1070.1 583.5" stroke="black" stroke-width="1.5" stroke-linecap="round"/>
<circle cx="848.534" cy="92.3464" r="3.68084" fill="black"/>
<circle cx="96.0344" cy="285.735" r="3.68084" fill="black"/>
<circle cx="203.302" cy="580.681" r="3.68084" fill="black"/>
<circle cx="397.302" cy="534.681" r="3.68084" fill="black"/>
<circle cx="978.392" cy="460.329" r="3.68084" fill="black"/>
</svg>
