<svg width="327" height="187" viewBox="0 0 327 187" fill="none" xmlns="http://www.w3.org/2000/svg">
<ellipse cx="3.46953" cy="84.983" rx="0.860153" ry="0.983032" fill="#131313"/>
<path d="M13.1737 22.1207C25.0888 9.81695 41.9341 0.412109 61.214 0.412109C69.3363 0.412109 76.5796 1.12386 81.9179 6.67894C85.061 9.94968 86.9044 13.3548 86.9044 17.8996C87.6189 35.9703 47.8958 37.8774 28.1122 52.5C20.2948 57.6858 14.786 65.1193 10.4039 72.1279C5.72717 79.6079 1.52943 87.6268 1.09022 96.4375C0.505667 108.164 2.84491 122.462 5.6972 131.2C11.3166 148.413 35.5208 151.769 53.6182 151.769C57.4492 151.769 61.2803 151.769 65.1113 151.769C69.4383 151.769 73.5399 149.961 77.5191 148.62C105.186 137.55 103.575 128.126 101.609 92M97.6092 78C93.1092 44.5 123.182 25.3263 136.536 17.5646C145.042 12.6199 155.46 13.0755 165.328 13.0755C174.251 13.0755 178.267 15.3809 183.542 21.2497C187.164 25.2797 188.82 29.6686 189.563 33.1323C190.461 37.3127 189.93 41.6809 188.325 45.6436C187.348 48.0544 185.859 50.9689 183.609 54M139.179 122.431C127.875 136.193 123.482 157.697 132.479 166.845C142.782 174.124 156.13 173.993 168.828 173.444C180.174 172.954 190.085 166.563 199.33 161.752C204.503 159.061 209.877 154.288 214.109 150.5C220.558 144.729 223.532 140.361 226.609 133C240.74 113.094 261.609 104.22 261.609 88M323.129 152.372C323.129 156.487 318.741 160.226 314.778 162.154C304.649 167.085 291.589 169.228 287.338 157.665C282.015 143.189 300.963 127.469 307.297 117.884C315.345 107.563 315.255 104.368 318.643 95.6433C322.509 85.6901 327.278 67.8643 326.109 60C323.627 43.2885 322.279 32.1463 306.609 22.5C298.636 17.592 294.504 19.5754 284.527 19.9455C282.625 20.016 280.761 20.5526 279.113 21.5039C270.275 26.6039 261.395 30.1981 260.609 54M148.609 108.5C158.258 98.2147 167.105 86.3049 174.109 75" stroke="#131313" stroke-width="0.368637" stroke-linecap="round"/>
<ellipse cx="13.2029" cy="22.2845" rx="0.923578" ry="0.983032" fill="#131313"/>
<ellipse cx="41.0711" cy="151.307" rx="1.05552" ry="0.983032" fill="#131313"/>
<circle cx="130.946" cy="21.3015" r="0.983032" fill="#131313"/>
<ellipse cx="186.177" cy="168.511" rx="1.05552" ry="0.983032" fill="#131313"/>
<ellipse cx="272.665" cy="24.983" rx="1.05552" ry="0.983032" fill="#131313"/>
<ellipse cx="318.643" cy="95.7662" rx="1.05552" ry="0.983032" fill="#131313"/>
<ellipse cx="319.698" cy="159.172" rx="1.05552" ry="0.983032" fill="#131313"/>
</svg>
