<svg width="324" height="189" viewBox="0 0 324 189" fill="none" xmlns="http://www.w3.org/2000/svg">
<ellipse cx="7.87131" cy="97.9958" rx="0.87131" ry="0.995783" fill="#131313"/>
<path d="M9.43308 22.3027C21.5027 9.83933 38.5666 0.3125 58.0966 0.3125C66.3243 0.3125 73.6614 1.03349 79.0689 6.66061C82.2528 9.97378 84.2969 21.5974 74.6131 29.5636L41 54.5M20.3178 79.6017C12.0308 89.6625 -2.70965 108.604 1.85963 132.796C7.55189 150.233 32.0702 153.633 50.4023 153.633C54.283 153.633 58.1637 153.633 62.0444 153.633C66.4275 153.633 70.5823 151.801 74.6131 150.443C102.639 139.229 113.492 118.595 111.5 82M109.5 55C108.131 33.8396 123.116 21.4203 129 18C137.617 12.9912 153.565 13.1401 163.561 13.1401C172.599 13.1401 183.157 21.5551 188.5 27.5C198.004 39.5 189.989 55.0797 189.989 55.0797M137.073 123.914C125.622 137.855 121.172 159.638 130.286 168.904C140.722 176.277 154.244 176.145 167.106 175.589C178.599 175.093 188.639 168.618 198.004 163.746C203.244 161.019 207.096 155.26 211.384 151.423C217.915 145.576 217.478 146.93 220.595 139.473C234.909 119.309 229 101.43 229 85M323.409 154.244C323.409 158.412 318.964 162.199 314.949 164.153C304.689 169.147 291.46 171.318 287.153 159.605C281.762 144.942 300.956 129.017 307.371 119.309C315.524 108.853 315.433 105.617 318.865 96.779C322.781 86.6967 322.352 69.5194 321.169 61.5531C318.654 44.6248 311.027 33.3603 295.154 23.5889C286.333 18.1586 280.591 15.9961 268.268 15.9961C247.86 19.3896 230 36.5 229 54M144.915 114.33C154.69 103.911 175.405 84.9515 182.5 73.5" stroke="#131313" stroke-width="0.373419" stroke-linecap="round"/>
<ellipse cx="9.4629" cy="22.4684" rx="0.935557" ry="0.995783" fill="#131313"/>
<ellipse cx="37.6923" cy="153.165" rx="1.06921" ry="0.995783" fill="#131313"/>
<circle cx="124.996" cy="19.9958" r="0.995783" fill="#131313"/>
<ellipse cx="184.679" cy="170.591" rx="1.06921" ry="0.995783" fill="#131313"/>
<ellipse cx="268.466" cy="16.2448" rx="1.06921" ry="0.995783" fill="#131313"/>
<ellipse cx="318.866" cy="96.9035" rx="1.06921" ry="0.995783" fill="#131313"/>
<ellipse cx="319.934" cy="161.132" rx="1.06921" ry="0.995783" fill="#131313"/>
</svg>
