<svg width="1516" height="541" viewBox="0 0 1516 541" fill="none" xmlns="http://www.w3.org/2000/svg">
<path d="M23.3354 216.026C69.0034 222.113 89.5828 249.58 144.474 291.157C190.169 325.767 210.48 357.069 244.059 370.069C277.638 383.069 304.511 385.41 343.996 385.409C351.495 385.409 371.983 385.409 396.496 381.183C431.184 375.202 425.496 374.183 444.996 370.069C464.076 366.044 520.803 352.69 571.495 299.33C599.495 269.856 630.495 212.183 663.495 206.742C722.235 197.059 838.995 222.683 914.473 299.33C954.07 339.541 1135.28 358.913 1161.45 332.395C1187.63 305.877 1191.4 245.487 1143.33 257.231C1105.22 266.539 1105.87 345.841 1146.21 360.279C1227.17 389.257 1331.72 386.495 1379.86 342.155C1418.38 306.683 1484.06 227.631 1509 195.665" stroke="black" stroke-width="1.5" stroke-linecap="round"/>
<ellipse cx="420.593" cy="375.509" rx="4.29495" ry="4" transform="rotate(4.52461 420.593 375.509)" fill="black"/>
<ellipse cx="156.593" cy="299.509" rx="4.29495" ry="4" transform="rotate(4.52461 156.593 299.509)" fill="black"/>
<ellipse cx="844.063" cy="242.097" rx="4.29495" ry="4" transform="rotate(4.52461 844.063 242.097)" fill="black"/>
<ellipse cx="1228.47" cy="378.848" rx="4.29495" ry="4" transform="rotate(4.52461 1228.47 378.848)" fill="black"/>
<ellipse cx="1432.62" cy="228.492" rx="4.29495" ry="4" transform="rotate(4.52461 1432.62 228.492)" fill="black"/>
</svg>
