<svg width="996" height="144" viewBox="0 0 996 144" fill="none" xmlns="http://www.w3.org/2000/svg">
<mask id="path-1-outside-1_878_9645" maskUnits="userSpaceOnUse" x="2.1543" y="0" width="991" height="141" fill="black">
<rect fill="white" x="2.1543" width="991" height="141"/>
<path d="M51.2749 83.0075C55.8151 83.0075 59.6385 81.7529 62.745 79.2439C65.8515 76.7348 68.2112 73.2699 69.8242 68.8491C71.4372 64.3686 72.2436 59.231 72.2436 53.4362C72.2436 47.6414 71.4372 42.5635 69.8242 38.2025C68.2709 33.7817 65.9411 30.3168 62.8346 27.8077C59.7281 25.2986 55.8749 24.0441 51.2749 24.0441C46.7944 24.0441 42.971 25.2687 39.8048 27.7181C36.6983 30.1077 34.3087 33.5129 32.636 37.9336C31.023 42.2947 30.2165 47.4622 30.2165 53.4362C30.2165 59.3504 31.0529 64.5179 32.7256 68.9387C34.3983 73.3595 36.7879 76.8244 39.8944 79.3335C43.0606 81.7828 46.8541 83.0075 51.2749 83.0075ZM157.911 105.41C147.815 105.41 139.063 103.259 131.655 98.9581C124.307 94.597 118.632 88.5633 114.629 80.8568C110.686 73.0906 108.715 64.0699 108.715 53.7946C108.715 43.3998 110.686 34.3492 114.629 26.6428C118.632 18.8766 124.307 12.8428 131.655 8.54153C139.063 4.18051 147.815 2 157.911 2C168.067 2 176.819 4.18051 184.167 8.54153C191.574 12.8428 197.25 18.8766 201.193 26.6428C205.195 34.3492 207.196 43.3998 207.196 53.7946C207.196 64.0699 205.195 73.0906 201.193 80.8568C197.25 88.5633 191.574 94.597 184.167 98.9581C176.819 103.259 168.067 105.41 157.911 105.41ZM158.09 83.7244C162.69 83.7244 166.543 82.44 169.65 79.8711C172.756 77.2426 175.086 73.6582 176.639 69.1179C178.252 64.5777 179.059 59.4102 179.059 53.6154C179.059 47.7609 178.252 42.5934 176.639 38.1129C175.086 33.6323 172.756 30.1077 169.65 27.5389C166.543 24.97 162.69 23.6856 158.09 23.6856C153.43 23.6856 149.517 24.97 146.351 27.5389C143.245 30.1077 140.885 33.6323 139.272 38.1129C137.719 42.5934 136.942 47.7609 136.942 53.6154C136.942 59.4102 137.719 64.5777 139.272 69.1179C140.885 73.6582 143.245 77.2426 146.351 79.8711C149.517 82.44 153.43 83.7244 158.09 83.7244ZM379.785 37.6648V59.7089H318.85V37.6648H379.785ZM466.976 42.3245V64.0102H414.733V42.3245H466.976ZM423.873 3.25454V103.439H397.439V3.25454H423.873ZM484.36 3.25454V103.439H458.105V3.25454H484.36ZM562.948 37.6648V59.7089H502.013V37.6648H562.948ZM628.722 83.0075C633.262 83.0075 637.086 81.7529 640.192 79.2439C643.299 76.7348 645.658 73.2699 647.271 68.8491C648.884 64.3686 649.691 59.231 649.691 53.4362C649.691 47.6414 648.884 42.5635 647.271 38.2025C645.718 33.7817 643.388 30.3168 640.282 27.8077C637.175 25.2986 633.322 24.0441 628.722 24.0441C624.242 24.0441 620.418 25.2687 617.252 27.7181C614.145 30.1077 611.756 33.5129 610.083 37.9336C608.47 42.2947 607.664 47.4622 607.664 53.4362C607.664 59.3504 608.5 64.5179 610.173 68.9387C611.845 73.3595 614.235 76.8244 617.342 79.3335C620.508 81.7828 624.301 83.0075 628.722 83.0075ZM735.358 105.41C725.262 105.41 716.51 103.259 709.102 98.9581C701.754 94.597 696.079 88.5633 692.076 80.8568C688.133 73.0906 686.162 64.0699 686.162 53.7946C686.162 43.3998 688.133 34.3492 692.076 26.6428C696.079 18.8766 701.754 12.8428 709.102 8.54153C716.51 4.18051 725.262 2 735.358 2C745.514 2 754.266 4.18051 761.614 8.54153C769.021 12.8428 774.697 18.8766 778.64 26.6428C782.642 34.3492 784.643 43.3998 784.643 53.7946C784.643 64.0699 782.642 73.0906 778.64 80.8568C774.697 88.5633 769.021 94.597 761.614 98.9581C754.266 103.259 745.514 105.41 735.358 105.41ZM735.537 83.7244C740.137 83.7244 743.99 82.44 747.097 79.8711C750.203 77.2426 752.533 73.6582 754.086 69.1179C755.699 64.5777 756.506 59.4102 756.506 53.6154C756.506 47.7609 755.699 42.5934 754.086 38.1129C752.533 33.6323 750.203 30.1077 747.097 27.5389C743.99 24.97 740.137 23.6856 735.537 23.6856C730.877 23.6856 726.964 24.97 723.798 27.5389C720.692 30.1077 718.332 33.6323 716.719 38.1129C715.166 42.5934 714.389 47.7609 714.389 53.6154C714.389 59.4102 715.166 64.5777 716.719 69.1179C718.332 73.6582 720.692 77.2426 723.798 79.8711C726.964 82.44 730.877 83.7244 735.537 83.7244Z"/>
</mask>
<path d="M3.1543 3.25454V2.58689H2.48664V3.25454H3.1543ZM30.3958 3.25454H31.0634V2.58689H30.3958V3.25454ZM30.3958 20.1908H29.7281V20.8585H30.3958V20.1908ZM31.6503 20.1908V20.8585H32.0794L32.2576 20.4681L31.6503 20.1908ZM46.1671 4.86752L46.4619 5.46663L46.4695 5.46279L46.1671 4.86752ZM80.3085 7.73504L79.9537 8.30062L79.9602 8.3046L80.3085 7.73504ZM95.2734 81.7529L95.878 82.0363L95.8788 82.0345L95.2734 81.7529ZM80.667 99.1373L80.3068 98.5751L80.3043 98.5768L80.667 99.1373ZM37.1165 95.6425L36.6073 96.0743L36.6123 96.0802L36.6175 96.0861L37.1165 95.6425ZM31.6503 87.3984L32.2526 87.1103L32.0711 86.7307H31.6503V87.3984ZM30.8438 87.3984V86.7307H30.1761V87.3984H30.8438ZM219.473 3.25454V2.58689H218.805V3.25454H219.473ZM247.162 3.25454H247.83V2.58689H247.162V3.25454ZM247.162 42.1453H246.495V42.813H247.162V42.1453ZM255.048 42.1453V42.813H255.396L255.596 42.5275L255.048 42.1453ZM282.2 3.25454V2.58689H281.852L281.653 2.87235L282.2 3.25454ZM314.818 3.25454L315.362 3.64122L316.111 2.58689H314.818V3.25454ZM279.422 53.0777L278.878 52.6911L278.603 53.0776L278.878 53.4642L279.422 53.0777ZM315.176 103.439V104.106H316.469L315.721 103.052L315.176 103.439ZM282.2 103.439L281.652 103.82L281.852 104.106H282.2V103.439ZM257.468 67.953L258.015 67.5712L257.816 67.2853H257.468V67.953ZM247.162 67.953V67.2853H246.495V67.953H247.162ZM580.601 3.25454V2.58689H579.934V3.25454H580.601ZM607.843 3.25454H608.511V2.58689H607.843V3.25454ZM607.843 20.1908H607.175V20.8585H607.843V20.1908ZM609.097 20.1908V20.8585H609.527L609.705 20.4681L609.097 20.1908ZM623.614 4.86752L623.909 5.46663L623.917 5.46279L623.614 4.86752ZM657.756 7.73504L657.401 8.30062L657.407 8.3046L657.756 7.73504ZM672.721 81.7529L673.325 82.0363L673.326 82.0345L672.721 81.7529ZM658.114 99.1373L657.754 98.5751L657.751 98.5768L658.114 99.1373ZM614.564 95.6425L614.054 96.0743L614.059 96.0802L614.065 96.0861L614.564 95.6425ZM609.097 87.3984L609.7 87.1103L609.518 86.7307H609.097V87.3984ZM608.291 87.3984V86.7307H607.623V87.3984H608.291ZM790.916 103.439L790.249 103.441L790.251 104.106H790.916V103.439ZM790.827 81.4841V80.8165H790.156L790.159 81.4868L790.827 81.4841ZM794.142 81.4841V82.1519L794.155 82.1516L794.142 81.4841ZM801.849 78.2581L801.37 77.7929L801.363 77.8001L801.849 78.2581ZM806.419 67.7738L805.766 67.6323L805.765 67.6382L806.419 67.7738ZM808.48 47.7011L807.813 47.6756L807.813 47.6775L808.48 47.7011ZM810.182 3.25454V2.58689H809.54L809.515 3.22898L810.182 3.25454ZM886.261 3.25454H886.929V2.58689H886.261V3.25454ZM859.826 25.1194H860.494V24.4517H859.826V25.1194ZM835.094 25.1194V24.4517H834.461L834.427 25.0843L835.094 25.1194ZM833.481 55.766L832.814 55.7309L832.814 55.7327L833.481 55.766ZM823.714 92.2373L823.176 91.8407L823.175 91.8421L823.714 92.2373ZM813.319 100.75L813.588 101.361L813.592 101.359L813.319 100.75ZM896.656 103.439L895.988 103.441L895.991 104.106H896.656V103.439ZM896.566 81.4841V80.8165H895.896L895.899 81.4868L896.566 81.4841ZM899.882 81.4841V82.1519L899.895 82.1516L899.882 81.4841ZM907.589 78.2581L907.11 77.7929L907.103 77.8001L907.589 78.2581ZM912.159 67.7738L911.506 67.6323L911.505 67.6382L912.159 67.7738ZM914.22 47.7011L913.552 47.6756L913.552 47.6775L914.22 47.7011ZM915.922 3.25454V2.58689H915.28L915.255 3.22898L915.922 3.25454ZM992.001 3.25454H992.669V2.58689H992.001V3.25454ZM965.566 25.1194H966.234V24.4517H965.566V25.1194ZM940.834 25.1194V24.4517H940.2L940.167 25.0843L940.834 25.1194ZM939.221 55.766L938.554 55.7309L938.554 55.7327L939.221 55.766ZM929.453 92.2373L928.916 91.8407L928.915 91.8421L929.453 92.2373ZM919.059 100.75L919.328 101.361L919.332 101.359L919.059 100.75ZM3.82195 140.896V3.25454H2.48664V140.896H3.82195ZM3.1543 3.92219H30.3958V2.58689H3.1543V3.92219ZM29.7281 3.25454V20.1908H31.0634V3.25454H29.7281ZM30.3958 20.8585H31.6503V19.5232H30.3958V20.8585ZM32.2576 20.4681C33.4833 17.7834 35.2409 15.0549 37.5407 12.2834L36.5131 11.4308C34.1531 14.2748 32.3264 17.1022 31.0429 19.9136L32.2576 20.4681ZM37.5407 12.2834C39.8022 9.55807 42.7701 7.28319 46.4619 5.46658L45.8723 4.26847C42.0369 6.15573 38.9113 8.54058 36.5131 11.4308L37.5407 12.2834ZM46.4695 5.46279C50.1146 3.61131 54.6636 2.66765 60.1463 2.66765V1.33235C54.5173 1.33235 49.7469 2.30037 45.8648 4.27226L46.4695 5.46279ZM60.1463 2.66765C67.3716 2.66765 73.9689 4.54544 79.9537 8.30059L80.6634 7.1695C74.4612 3.27792 67.617 1.33235 60.1463 1.33235V2.66765ZM79.9602 8.3046C85.9861 11.9904 90.8351 17.5892 94.4933 25.1416L95.6951 24.5595C91.9455 16.8185 86.9374 11.007 80.6569 7.16548L79.9602 8.3046ZM94.4933 25.1416C98.1407 32.6716 99.9824 42.123 99.9824 53.5258H101.318C101.318 41.9884 99.4555 32.323 95.6951 24.5595L94.4933 25.1416ZM99.9824 53.5258C99.9824 64.5688 98.2009 73.8758 94.668 81.4714L95.8788 82.0345C99.5148 74.2171 101.318 64.7061 101.318 53.5258H99.9824ZM94.6689 81.4696C91.1295 89.0203 86.3382 94.7104 80.3068 98.5751L81.0272 99.6994C87.3022 95.6785 92.2486 89.779 95.878 82.0363L94.6689 81.4696ZM80.3043 98.5768C74.3248 102.446 67.5819 104.384 60.0567 104.384V105.719C67.8249 105.719 74.8222 103.714 81.0297 99.6978L80.3043 98.5768ZM60.0567 104.384C54.7517 104.384 50.2853 103.499 46.6334 101.76L46.0593 102.966C49.9346 104.811 54.6085 105.719 60.0567 105.719V104.384ZM46.6334 101.76C42.9377 100.001 39.9371 97.8108 37.6155 95.1989L36.6175 96.0861C39.0751 98.8508 42.2278 101.142 46.0593 102.966L46.6334 101.76ZM37.6258 95.2107C35.3264 92.4987 33.5381 89.7983 32.2526 87.1103L31.048 87.6864C32.391 90.4946 34.2469 93.2902 36.6073 96.0743L37.6258 95.2107ZM31.6503 86.7307H30.8438V88.066H31.6503V86.7307ZM219.473 3.92219H247.162V2.58689H219.473V3.92219ZM246.495 3.25454V42.1453H247.83V3.25454H246.495ZM247.162 42.813H255.048V41.4776H247.162V42.813ZM255.596 42.5275L282.747 3.63674L281.653 2.87235L254.501 41.7631L255.596 42.5275ZM282.2 3.92219H314.818V2.58689H282.2V3.92219ZM314.274 2.86787L278.878 52.6911L279.966 53.4644L315.362 3.64122L314.274 2.86787ZM278.878 53.4642L314.632 103.825L315.721 103.052L279.966 52.6912L278.878 53.4642ZM315.176 102.771H282.2V104.106H315.176V102.771ZM282.748 103.057L258.015 67.5712L256.92 68.3348L281.652 103.82L282.748 103.057ZM257.468 67.2853H247.162V68.6206H257.468V67.2853ZM246.495 67.953V103.439H247.83V67.953H246.495ZM580.601 3.92219H607.843V2.58689H580.601V3.92219ZM607.175 3.25454V20.1908H608.511V3.25454H607.175ZM607.843 20.8585H609.097V19.5232H607.843V20.8585ZM609.705 20.4681C610.93 17.7834 612.688 15.0549 614.988 12.2834L613.96 11.4308C611.6 14.2748 609.773 17.1022 608.49 19.9136L609.705 20.4681ZM614.988 12.2834C617.249 9.55807 620.217 7.28319 623.909 5.46658L623.319 4.26847C619.484 6.15573 616.359 8.54058 613.96 11.4308L614.988 12.2834ZM623.917 5.46279C627.562 3.61131 632.111 2.66765 637.593 2.66765V1.33235C631.964 1.33235 627.194 2.30037 623.312 4.27226L623.917 5.46279ZM637.593 2.66765C644.819 2.66765 651.416 4.54544 657.401 8.30059L658.111 7.1695C651.908 3.27792 645.064 1.33235 637.593 1.33235V2.66765ZM657.407 8.3046C663.433 11.9904 668.282 17.5892 671.94 25.1416L673.142 24.5595C669.393 16.8185 664.385 11.007 658.104 7.16548L657.407 8.3046ZM671.94 25.1416C675.588 32.6716 677.43 42.123 677.43 53.5258H678.765C678.765 41.9884 676.903 32.3229 673.142 24.5595L671.94 25.1416ZM677.43 53.5258C677.43 64.5688 675.648 73.8758 672.115 81.4714L673.326 82.0345C676.962 74.2171 678.765 64.7061 678.765 53.5258H677.43ZM672.116 81.4696C668.577 89.0203 663.785 94.7104 657.754 98.5751L658.474 99.6994C664.749 95.6785 669.696 89.779 673.325 82.0363L672.116 81.4696ZM657.751 98.5768C651.772 102.446 645.029 104.384 637.504 104.384V105.719C645.272 105.719 652.269 103.714 658.477 99.6978L657.751 98.5768ZM637.504 104.384C632.199 104.384 627.732 103.499 624.081 101.76L623.506 102.966C627.382 104.811 632.056 105.719 637.504 105.719V104.384ZM624.081 101.76C620.385 100.001 617.384 97.8108 615.063 95.1989L614.065 96.0861C616.522 98.8508 619.675 101.142 623.506 102.966L624.081 101.76ZM615.073 95.2107C612.774 92.4987 610.985 89.7983 609.7 87.1103L608.495 87.6864C609.838 90.4946 611.694 93.2902 614.054 96.0743L615.073 95.2107ZM609.097 86.7307H608.291V88.066H609.097V86.7307ZM607.623 87.3984V140.896H608.959V87.3984H607.623ZM791.584 103.436L791.494 81.4814L790.159 81.4868L790.249 103.441L791.584 103.436ZM790.827 82.1518H794.142V80.8165H790.827V82.1518ZM794.155 82.1516C797.48 82.0889 800.227 80.9517 802.334 78.7162L801.363 77.8001C799.528 79.7464 797.137 80.7598 794.13 80.8166L794.155 82.1516ZM802.328 78.7234C804.49 76.4972 806.047 72.8537 807.073 67.9093L805.765 67.6382C804.759 72.4913 803.27 75.8373 801.37 77.7929L802.328 78.7234ZM807.071 67.9153C808.159 62.9011 808.848 56.1655 809.147 47.7248L807.813 47.6775C807.514 56.0834 806.83 62.7296 805.766 67.6323L807.071 67.9153ZM809.147 47.7267L810.85 3.2801L809.515 3.22898L807.813 47.6756L809.147 47.7267ZM810.182 3.92219H886.261V2.58689H810.182V3.92219ZM885.594 3.25454V103.439H886.929V3.25454H885.594ZM859.826 24.4517H835.094V25.787H859.826V24.4517ZM834.427 25.0843L832.814 55.7309L834.148 55.8011L835.761 25.1545L834.427 25.0843ZM832.814 55.7327C832.398 64.0641 831.387 71.2137 829.789 77.1896L831.079 77.5345C832.708 71.4429 833.728 64.1952 834.148 55.7994L832.814 55.7327ZM829.789 77.1896C828.192 83.1652 825.982 88.0415 823.176 91.8407L824.251 92.6339C827.18 88.667 829.451 83.6264 831.079 77.5345L829.789 77.1896ZM823.175 91.8421C820.432 95.5774 817.057 98.3389 813.045 100.141L813.592 101.359C817.825 99.4577 821.379 96.544 824.252 92.6325L823.175 91.8421ZM813.049 100.139C809.087 101.888 804.492 102.771 799.25 102.771V104.106C804.642 104.106 809.426 103.197 813.588 101.361L813.049 100.139ZM799.25 102.771H790.916V104.106H799.25V102.771ZM897.324 103.436L897.234 81.4814L895.899 81.4868L895.988 103.441L897.324 103.436ZM896.566 82.1518H899.882V80.8165H896.566V82.1518ZM899.895 82.1516C903.22 82.0889 905.967 80.9517 908.074 78.7162L907.103 77.8001C905.268 79.7464 902.876 80.7598 899.87 80.8166L899.895 82.1516ZM908.067 78.7234C910.23 76.4972 911.787 72.8537 912.812 67.9093L911.505 67.6382C910.499 72.4913 909.009 75.8373 907.11 77.7929L908.067 78.7234ZM912.811 67.9153C913.898 62.9011 914.588 56.1655 914.887 47.7248L913.552 47.6775C913.254 56.0834 912.569 62.7296 911.506 67.6323L912.811 67.9153ZM914.887 47.7267L916.589 3.2801L915.255 3.22898L913.552 47.6756L914.887 47.7267ZM915.922 3.92219H992.001V2.58689H915.922V3.92219ZM991.334 3.25454V103.439H992.669V3.25454H991.334ZM965.566 24.4517H940.834V25.787H965.566V24.4517ZM940.167 25.0843L938.554 55.7309L939.888 55.8011L941.501 25.1545L940.167 25.0843ZM938.554 55.7327C938.138 64.0641 937.127 71.2137 935.529 77.1896L936.819 77.5345C938.448 71.4429 939.468 64.1952 939.888 55.7994L938.554 55.7327ZM935.529 77.1896C933.932 83.1652 931.722 88.0415 928.916 91.8407L929.99 92.6339C932.92 88.667 935.191 83.6264 936.819 77.5345L935.529 77.1896ZM928.915 91.8421C926.172 95.5774 922.797 98.3389 918.785 100.141L919.332 101.359C923.565 99.4577 927.119 96.544 929.992 92.6325L928.915 91.8421ZM918.789 100.139C914.827 101.888 910.232 102.771 904.99 102.771V104.106C910.381 104.106 915.166 103.197 919.328 101.361L918.789 100.139ZM904.99 102.771H896.656V104.106H904.99V102.771ZM30.1761 87.3984V140.896H31.5115V87.3984H30.1761ZM218.805 3.25454V105.052H220.141V3.25454H218.805ZM579.934 3.25454V140.896H581.269V3.25454H579.934ZM859.159 25.1194V103.439H860.494V25.1194H859.159ZM964.899 25.1194V103.439H966.234V25.1194H964.899ZM69.8242 68.8491L71.0786 69.3068L71.0805 69.3014L69.8242 68.8491ZM69.8242 38.2025L68.5644 38.6451L68.568 38.6554L68.5718 38.6657L69.8242 38.2025ZM39.8048 27.7181L40.619 28.7765L40.6218 28.7743L39.8048 27.7181ZM32.636 37.9336L31.3871 37.4611L31.3836 37.4704L32.636 37.9336ZM39.8944 79.3335L39.0554 80.3723L39.0663 80.3811L39.0774 80.3896L39.8944 79.3335ZM131.655 98.9581L130.974 100.106L130.985 100.113L131.655 98.9581ZM114.629 80.8568L113.438 81.4613L113.444 81.4723L114.629 80.8568ZM114.629 26.6428L113.442 26.031L113.44 26.0346L114.629 26.6428ZM131.655 8.54153L132.33 9.69392L132.333 9.69224L131.655 8.54153ZM184.167 8.54153L183.485 9.68988L183.496 9.69629L184.167 8.54153ZM201.193 26.6428L200.002 27.2473L200.008 27.2582L201.193 26.6428ZM201.193 80.8568L200.006 80.2451L200.004 80.2486L201.193 80.8568ZM184.167 98.9581L184.841 100.11L184.844 100.109L184.167 98.9581ZM169.65 79.8711L170.501 80.9002L170.507 80.8954L170.512 80.8905L169.65 79.8711ZM176.639 69.1179L175.381 68.6709L175.378 68.6783L175.376 68.6857L176.639 69.1179ZM176.639 38.1129L175.378 38.5502L175.38 38.5577L175.383 38.5651L176.639 38.1129ZM146.351 27.5389L145.51 26.5019L145.5 26.5098L146.351 27.5389ZM139.272 38.1129L138.016 37.6606L138.013 37.668L138.01 37.6755L139.272 38.1129ZM139.272 69.1179L138.009 69.5501L138.011 69.5576L138.014 69.5649L139.272 69.1179ZM146.351 79.8711L145.489 80.8905L145.499 80.8994L145.51 80.9081L146.351 79.8711ZM379.785 37.6648H381.121V36.3295H379.785V37.6648ZM379.785 59.7089V61.0442H381.121V59.7089H379.785ZM318.85 59.7089H317.515V61.0442H318.85V59.7089ZM318.85 37.6648V36.3295H317.515V37.6648H318.85ZM466.976 42.3245H468.311V40.9892H466.976V42.3245ZM466.976 64.0102V65.3455H468.311V64.0102H466.976ZM414.733 64.0102H413.398V65.3455H414.733V64.0102ZM414.733 42.3245V40.9892H413.398V42.3245H414.733ZM423.873 3.25454H425.209V1.91924H423.873V3.25454ZM423.873 103.439V104.774H425.209V103.439H423.873ZM397.439 103.439H396.103V104.774H397.439V103.439ZM397.439 3.25454V1.91924H396.103V3.25454H397.439ZM484.36 3.25454H485.696V1.91924H484.36V3.25454ZM484.36 103.439V104.774H485.696V103.439H484.36ZM458.105 103.439H456.769V104.774H458.105V103.439ZM458.105 3.25454V1.91924H456.769V3.25454H458.105ZM562.948 37.6648H564.284V36.3295H562.948V37.6648ZM562.948 59.7089V61.0442H564.284V59.7089H562.948ZM502.013 59.7089H500.678V61.0442H502.013V59.7089ZM502.013 37.6648V36.3295H500.678V37.6648H502.013ZM647.271 68.8491L648.526 69.3068L648.528 69.3014L647.271 68.8491ZM647.271 38.2025L646.011 38.6451L646.015 38.6554L646.019 38.6657L647.271 38.2025ZM617.252 27.7181L618.066 28.7765L618.069 28.7743L617.252 27.7181ZM610.083 37.9336L608.834 37.4611L608.831 37.4704L610.083 37.9336ZM617.342 79.3335L616.503 80.3723L616.513 80.3811L616.525 80.3896L617.342 79.3335ZM709.102 98.9581L708.421 100.106L708.432 100.113L709.102 98.9581ZM692.076 80.8568L690.886 81.4613L690.891 81.4723L692.076 80.8568ZM692.076 26.6428L690.889 26.031L690.888 26.0346L692.076 26.6428ZM709.102 8.54153L709.777 9.69392L709.78 9.69224L709.102 8.54153ZM761.614 8.54153L760.932 9.68988L760.943 9.69629L761.614 8.54153ZM778.64 26.6428L777.449 27.2473L777.455 27.2582L778.64 26.6428ZM778.64 80.8568L777.453 80.2451L777.451 80.2486L778.64 80.8568ZM761.614 98.9581L762.288 100.11L762.291 100.109L761.614 98.9581ZM747.097 79.8711L747.948 80.9002L747.954 80.8954L747.959 80.8905L747.097 79.8711ZM754.086 69.1179L752.828 68.6709L752.826 68.6783L752.823 68.6857L754.086 69.1179ZM754.086 38.1129L752.825 38.5502L752.827 38.5577L752.83 38.5651L754.086 38.1129ZM723.798 27.5389L722.957 26.5019L722.947 26.5098L723.798 27.5389ZM716.719 38.1129L715.463 37.6606L715.46 37.668L715.457 37.6755L716.719 38.1129ZM716.719 69.1179L715.456 69.5501L715.458 69.5576L715.461 69.5649L716.719 69.1179ZM723.798 79.8711L722.936 80.8905L722.946 80.8994L722.957 80.9081L723.798 79.8711ZM51.2749 84.3428C56.0763 84.3428 60.2078 83.0096 63.584 80.2826L61.906 78.2051C59.0692 80.4963 55.5539 81.6722 51.2749 81.6722V84.3428ZM63.584 80.2826C66.9105 77.5959 69.3975 73.9143 71.0786 69.3068L68.5698 68.3914C67.0249 72.6254 64.7924 75.8737 61.906 78.2051L63.584 80.2826ZM71.0805 69.3014C72.7557 64.6482 73.5789 59.3528 73.5789 53.4362H70.9083C70.9083 59.1091 70.1186 64.089 68.5678 68.3968L71.0805 69.3014ZM73.5789 53.4362C73.5789 47.5207 72.756 42.28 71.0766 37.7392L68.5718 38.6657C70.1183 42.847 70.9083 47.762 70.9083 53.4362H73.5789ZM71.084 37.7598C69.463 33.1463 67.0043 29.4591 63.6736 26.7689L61.9956 28.8465C64.8778 31.1745 67.0789 34.4171 68.5644 38.6451L71.084 37.7598ZM63.6736 26.7689C60.2942 24.0394 56.1315 22.7088 51.2749 22.7088V25.3794C55.6183 25.3794 59.162 26.5578 61.9956 28.8465L63.6736 26.7689ZM51.2749 22.7088C46.5358 22.7088 42.4157 24.0101 38.9878 26.6619L40.6218 28.7743C43.5263 26.5274 47.0529 25.3794 51.2749 25.3794V22.7088ZM38.9907 26.6597C35.6506 29.229 33.1294 32.8565 31.3871 37.4611L33.8849 38.4062C35.4881 34.1692 37.746 30.9864 40.619 28.7765L38.9907 26.6597ZM31.3836 37.4704C29.7027 42.0152 28.8812 47.3469 28.8812 53.4362H31.5518C31.5518 47.5774 32.3434 42.5741 33.8884 38.3968L31.3836 37.4704ZM28.8812 53.4362C28.8812 59.4729 29.7345 64.8069 31.4767 69.4113L33.9745 68.4661C32.3713 64.229 31.5518 59.228 31.5518 53.4362H28.8812ZM31.4767 69.4113C33.2178 74.0128 35.7331 77.6889 39.0554 80.3723L40.7334 78.2947C37.8428 75.9599 35.5788 72.7061 33.9745 68.4661L31.4767 69.4113ZM39.0774 80.3896C42.5021 83.039 46.591 84.3428 51.2749 84.3428V81.6722C47.1172 81.6722 43.6192 80.5267 40.7115 78.2773L39.0774 80.3896ZM157.911 104.075C148.008 104.075 139.496 101.967 132.326 97.8033L130.985 100.113C138.63 104.552 147.622 106.745 157.911 106.745V104.075ZM132.337 97.8098C125.207 93.5781 119.704 87.7305 115.814 80.2414L113.444 81.4723C117.56 89.3961 123.408 95.616 130.974 100.106L132.337 97.8098ZM115.82 80.2524C111.988 72.7043 110.05 63.8974 110.05 53.7946H107.38C107.38 64.2424 109.385 73.4769 113.439 81.4613L115.82 80.2524ZM110.05 53.7946C110.05 43.5692 111.989 34.735 115.818 27.251L113.44 26.0346C109.384 33.9635 107.38 43.2305 107.38 53.7946H110.05ZM115.816 27.2545C119.706 19.7072 125.206 13.8637 132.33 9.69392L130.981 7.38915C123.408 11.8219 117.558 18.0459 113.442 26.031L115.816 27.2545ZM132.333 9.69224C139.502 5.47172 148.011 3.3353 157.911 3.3353V0.664696C147.619 0.664696 138.624 2.8893 130.978 7.39083L132.333 9.69224ZM157.911 3.3353C167.872 3.3353 176.379 5.47253 183.485 9.68983L184.848 7.39324C177.258 2.8885 168.261 0.664696 157.911 0.664696V3.3353ZM183.496 9.69629C190.677 13.8659 196.174 19.7067 200.002 27.2472L202.383 26.0383C198.326 18.0464 192.472 11.8197 184.837 7.38678L183.496 9.69629ZM200.008 27.2582C203.894 34.7406 205.861 43.5722 205.861 53.7946H208.532C208.532 43.2275 206.497 33.9579 202.378 26.0273L200.008 27.2582ZM205.861 53.7946C205.861 63.8945 203.895 72.6987 200.006 80.2451L202.379 81.4686C206.495 73.4825 208.532 64.2453 208.532 53.7946H205.861ZM200.004 80.2486C196.176 87.7311 190.677 93.5759 183.489 97.8074L184.844 100.109C192.472 95.6182 198.324 89.3955 202.381 81.465L200.004 80.2486ZM183.492 97.8057C176.385 101.966 167.875 104.075 157.911 104.075V106.745C168.258 106.745 177.252 104.553 184.841 100.11L183.492 97.8057ZM158.09 85.0597C162.954 85.0597 167.121 83.6946 170.501 80.9002L168.799 78.8421C165.965 81.1853 162.426 82.3891 158.09 82.3891V85.0597ZM170.512 80.8905C173.834 78.0801 176.286 74.2774 177.903 69.5501L175.376 68.6857C173.887 73.0389 171.679 76.4051 168.787 78.8518L170.512 80.8905ZM177.898 69.5649C179.571 64.8554 180.394 59.5325 180.394 53.6154H177.724C177.724 59.2878 176.934 64.2999 175.381 68.6709L177.898 69.5649ZM180.394 53.6154C180.394 47.6408 179.571 42.3151 177.896 37.6606L175.383 38.5651C176.933 42.8716 177.724 47.8809 177.724 53.6154H180.394ZM177.901 37.6755C176.282 33.0051 173.827 29.2602 170.501 26.5098L168.799 28.5679C171.686 30.9552 173.89 34.2596 175.378 38.5502L177.901 37.6755ZM170.501 26.5098C167.121 23.7154 162.954 22.3503 158.09 22.3503V25.0209C162.426 25.0209 165.965 26.2247 168.799 28.5679L170.501 26.5098ZM158.09 22.3503C153.17 22.3503 148.947 23.7129 145.51 26.5019L147.192 28.5758C150.087 26.2272 153.691 25.0209 158.09 25.0209V22.3503ZM145.5 26.5098C142.178 29.2567 139.695 32.9961 138.016 37.6606L140.528 38.5651C142.075 34.2686 144.311 30.9586 147.202 28.5679L145.5 26.5098ZM138.01 37.6755C136.398 42.3252 135.607 47.6456 135.607 53.6154H138.277C138.277 47.8761 139.039 42.8615 140.534 38.5502L138.01 37.6755ZM135.607 53.6154C135.607 59.5277 136.399 64.8453 138.009 69.5501L140.535 68.6857C139.038 64.3101 138.277 59.2927 138.277 53.6154H135.607ZM138.014 69.5649C139.691 74.2864 142.171 78.0835 145.489 80.8905L147.214 78.8518C144.318 76.4016 142.079 73.0299 140.53 68.6709L138.014 69.5649ZM145.51 80.9081C148.947 83.6971 153.17 85.0597 158.09 85.0597V82.3891C153.691 82.3891 150.087 81.1828 147.192 78.8342L145.51 80.9081ZM378.45 37.6648V59.7089H381.121V37.6648H378.45ZM379.785 58.3736H318.85V61.0442H379.785V58.3736ZM320.186 59.7089V37.6648H317.515V59.7089H320.186ZM318.85 39.0001H379.785V36.3295H318.85V39.0001ZM465.641 42.3245V64.0102H468.311V42.3245H465.641ZM466.976 62.6749H414.733V65.3455H466.976V62.6749ZM416.069 64.0102V42.3245H413.398V64.0102H416.069ZM414.733 43.6598H466.976V40.9892H414.733V43.6598ZM422.538 3.25454V103.439H425.209V3.25454H422.538ZM423.873 102.103H397.439V104.774H423.873V102.103ZM398.774 103.439V3.25454H396.103V103.439H398.774ZM397.439 4.58984H423.873V1.91924H397.439V4.58984ZM483.025 3.25454V103.439H485.696V3.25454H483.025ZM484.36 102.103H458.105V104.774H484.36V102.103ZM459.44 103.439V3.25454H456.769V103.439H459.44ZM458.105 4.58984H484.36V1.91924H458.105V4.58984ZM561.613 37.6648V59.7089H564.284V37.6648H561.613ZM562.948 58.3736H502.013V61.0442H562.948V58.3736ZM503.349 59.7089V37.6648H500.678V59.7089H503.349ZM502.013 39.0001H562.948V36.3295H502.013V39.0001ZM628.722 84.3428C633.523 84.3428 637.655 83.0096 641.031 80.2826L639.353 78.2051C636.516 80.4963 633.001 81.6722 628.722 81.6722V84.3428ZM641.031 80.2826C644.358 77.5959 646.845 73.9143 648.526 69.3068L646.017 68.3914C644.472 72.6254 642.24 75.8737 639.353 78.2051L641.031 80.2826ZM648.528 69.3014C650.203 64.6482 651.026 59.3528 651.026 53.4362H648.355C648.355 59.1091 647.566 64.089 646.015 68.3968L648.528 69.3014ZM651.026 53.4362C651.026 47.5207 650.203 42.28 648.524 37.7392L646.019 38.6657C647.565 42.847 648.355 47.7621 648.355 53.4362H651.026ZM648.531 37.7598C646.91 33.1463 644.451 29.4591 641.121 26.7689L639.443 28.8465C642.325 31.1745 644.526 34.4171 646.011 38.6451L648.531 37.7598ZM641.121 26.7689C637.741 24.0394 633.579 22.7088 628.722 22.7088V25.3794C633.065 25.3794 636.609 26.5578 639.443 28.8465L641.121 26.7689ZM628.722 22.7088C623.983 22.7088 619.863 24.0101 616.435 26.6619L618.069 28.7743C620.974 26.5274 624.5 25.3794 628.722 25.3794V22.7088ZM616.438 26.6597C613.098 29.2289 610.577 32.8565 608.834 37.4611L611.332 38.4062C612.935 34.1692 615.193 30.9864 618.066 28.7765L616.438 26.6597ZM608.831 37.4704C607.15 42.0152 606.328 47.3469 606.328 53.4362H608.999C608.999 47.5774 609.791 42.5741 611.336 38.3968L608.831 37.4704ZM606.328 53.4362C606.328 59.4729 607.182 64.8069 608.924 69.4113L611.422 68.4661C609.818 64.229 608.999 59.228 608.999 53.4362H606.328ZM608.924 69.4113C610.665 74.0128 613.18 77.6889 616.503 80.3723L618.181 78.2947C615.29 75.9599 613.026 72.7061 611.422 68.4661L608.924 69.4113ZM616.525 80.3896C619.949 83.039 624.038 84.3428 628.722 84.3428V81.6722C624.564 81.6722 621.066 80.5267 618.159 78.2773L616.525 80.3896ZM735.358 104.075C725.455 104.075 716.943 101.967 709.773 97.8033L708.432 100.113C716.077 104.552 725.069 106.745 735.358 106.745V104.075ZM709.784 97.8098C702.654 93.5781 697.151 87.7305 693.261 80.2414L690.891 81.4723C695.007 89.3961 700.855 95.616 708.421 100.106L709.784 97.8098ZM693.267 80.2524C689.435 72.7043 687.497 63.8974 687.497 53.7946H684.827C684.827 64.2424 686.832 73.4769 690.886 81.4613L693.267 80.2524ZM687.497 53.7946C687.497 43.5692 689.436 34.735 693.265 27.251L690.888 26.0346C686.831 33.9635 684.827 43.2305 684.827 53.7946H687.497ZM693.263 27.2545C697.153 19.7072 702.653 13.8637 709.777 9.69392L708.428 7.38915C700.855 11.8219 695.005 18.0459 690.889 26.031L693.263 27.2545ZM709.78 9.69224C716.949 5.47172 725.458 3.3353 735.358 3.3353V0.664696C725.066 0.664696 716.071 2.8893 708.425 7.39083L709.78 9.69224ZM735.358 3.3353C745.319 3.3353 753.826 5.47253 760.932 9.68983L762.295 7.39324C754.705 2.8885 745.708 0.664696 735.358 0.664696V3.3353ZM760.943 9.69629C768.124 13.8659 773.621 19.7067 777.449 27.2472L779.83 26.0383C775.773 18.0464 769.919 11.8197 762.284 7.38678L760.943 9.69629ZM777.455 27.2582C781.341 34.7406 783.308 43.5722 783.308 53.7946H785.979C785.979 43.2275 783.944 33.9579 779.825 26.0273L777.455 27.2582ZM783.308 53.7946C783.308 63.8945 781.342 72.6987 777.453 80.2451L779.827 81.4686C783.942 73.4825 785.979 64.2453 785.979 53.7946H783.308ZM777.451 80.2486C773.623 87.7311 768.124 93.5759 760.936 97.8074L762.291 100.109C769.919 95.6182 775.771 89.3955 779.828 81.465L777.451 80.2486ZM760.939 97.8057C753.832 101.966 745.323 104.075 735.358 104.075V106.745C745.705 106.745 754.699 104.553 762.288 100.11L760.939 97.8057ZM735.537 85.0597C740.401 85.0597 744.568 83.6946 747.948 80.9002L746.246 78.8421C743.412 81.1853 739.873 82.3891 735.537 82.3891V85.0597ZM747.959 80.8905C751.281 78.0801 753.733 74.2774 755.35 69.5501L752.823 68.6857C751.334 73.0389 749.126 76.4051 746.234 78.8518L747.959 80.8905ZM755.345 69.5649C757.018 64.8554 757.841 59.5325 757.841 53.6154H755.171C755.171 59.2878 754.381 64.2999 752.828 68.6709L755.345 69.5649ZM757.841 53.6154C757.841 47.6408 757.018 42.3151 755.343 37.6606L752.83 38.5651C754.38 42.8716 755.171 47.8809 755.171 53.6154H757.841ZM755.348 37.6755C753.729 33.0051 751.274 29.2602 747.948 26.5098L746.246 28.5679C749.133 30.9552 751.337 34.2596 752.825 38.5502L755.348 37.6755ZM747.948 26.5098C744.568 23.7154 740.401 22.3503 735.537 22.3503V25.0209C739.873 25.0209 743.412 26.2247 746.246 28.5679L747.948 26.5098ZM735.537 22.3503C730.617 22.3503 726.395 23.7129 722.957 26.5019L724.64 28.5758C727.534 26.2272 731.138 25.0209 735.537 25.0209V22.3503ZM722.947 26.5098C719.625 29.2567 717.142 32.9961 715.463 37.6606L717.975 38.5651C719.522 34.2686 721.758 30.9586 724.649 28.5679L722.947 26.5098ZM715.457 37.6755C713.846 42.3252 713.054 47.6456 713.054 53.6154H715.725C715.725 47.8761 716.486 42.8615 717.981 38.5502L715.457 37.6755ZM713.054 53.6154C713.054 59.5277 713.846 64.8453 715.456 69.5501L717.982 68.6857C716.486 64.3101 715.725 59.2927 715.725 53.6154H713.054ZM715.461 69.5649C717.138 74.2864 719.618 78.0835 722.936 80.8905L724.661 78.8518C721.765 76.4016 719.526 73.0299 717.977 68.6709L715.461 69.5649ZM722.957 80.9081C726.395 83.6971 730.617 85.0597 735.537 85.0597V82.3891C731.138 82.3891 727.534 81.1828 724.64 78.8342L722.957 80.9081Z" fill="black" mask="url(#path-1-outside-1_878_9645)"/>
<circle cx="2.7332" cy="141.172" r="2.7332" fill="#131313"/>
<circle cx="219.733" cy="105.172" r="2.7332" fill="#131313"/>
<circle cx="859.733" cy="105.172" r="2.7332" fill="#131313"/>
<circle cx="965.733" cy="105.172" r="2.7332" fill="#131313"/>
<circle cx="580.733" cy="140.172" r="2.7332" fill="#131313"/>
<circle cx="30.7332" cy="141.172" r="2.7332" fill="#131313"/>
<circle cx="246.733" cy="105.172" r="2.7332" fill="#131313"/>
<circle cx="886.733" cy="105.172" r="2.7332" fill="#131313"/>
<circle cx="992.733" cy="105.172" r="2.7332" fill="#131313"/>
<circle cx="607.733" cy="140.172" r="2.7332" fill="#131313"/>
</svg>
