<svg width="908" height="172" viewBox="0 0 908 172" fill="none" xmlns="http://www.w3.org/2000/svg">
<mask id="path-1-outside-1_236_3269" maskUnits="userSpaceOnUse" x="0" y="0" width="905" height="168" fill="black">
<rect fill="white" width="905" height="168"/>
<path d="M61.318 107.315L88.5016 37.4661H109.834L70.6792 138.1H52.1367L13.7916 37.4661H34.9444L61.318 107.315ZM28.5536 37.4661V138.1H2V37.4661H28.5536ZM95.5226 138.1V37.4661H121.716V138.1H95.5226ZM183.374 140.08C173.233 140.08 164.442 137.92 157.001 133.599C149.62 129.218 143.919 123.158 139.899 115.417C135.938 107.615 133.958 98.5543 133.958 88.2329C133.958 77.7915 135.938 68.7003 139.899 60.9592C143.919 53.1582 149.62 47.0974 157.001 42.7768C164.442 38.3962 173.233 36.2059 183.374 36.2059C193.576 36.2059 202.367 38.3962 209.748 42.7768C217.189 47.0974 222.89 53.1582 226.85 60.9592C230.871 68.7003 232.881 77.7915 232.881 88.2329C232.881 98.5543 230.871 107.615 226.85 115.417C222.89 123.158 217.189 129.218 209.748 133.599C202.367 137.92 193.576 140.08 183.374 140.08ZM183.554 118.297C188.175 118.297 192.046 117.007 195.166 114.426C198.286 111.786 200.627 108.186 202.187 103.625C203.807 99.0643 204.617 93.8737 204.617 88.0529C204.617 82.1721 203.807 76.9814 202.187 72.4808C200.627 67.9802 198.286 64.4397 195.166 61.8594C192.046 59.279 188.175 57.9888 183.554 57.9888C178.874 57.9888 174.943 59.279 171.763 61.8594C168.642 64.4397 166.272 67.9802 164.652 72.4808C163.092 76.9814 162.312 82.1721 162.312 88.0529C162.312 93.8737 163.092 99.0643 164.652 103.625C166.272 108.186 168.642 111.786 171.763 114.426C174.943 117.007 178.874 118.297 183.554 118.297ZM272.756 116.047H310.651V58.979H283.558L282.478 70.5005C281.758 81.242 280.707 90.3632 279.327 97.8642C277.947 105.305 275.757 111.366 272.756 116.047ZM399.583 120.727C403.664 120.727 407.264 119.917 410.385 118.297C413.565 116.617 416.026 114.396 417.766 111.636C419.566 108.816 420.466 105.665 420.466 102.185V91.4733C419.626 92.0134 418.426 92.5235 416.866 93.0035C415.366 93.4836 413.685 93.9037 411.825 94.2637C409.965 94.6238 408.105 94.9538 406.244 95.2538C404.384 95.4939 402.704 95.7339 401.204 95.9739C397.903 96.454 395.023 97.2341 392.562 98.3143C390.102 99.3344 388.182 100.745 386.802 102.545C385.482 104.285 384.821 106.475 384.821 109.116C384.821 112.896 386.202 115.777 388.962 117.757C391.722 119.737 395.263 120.727 399.583 120.727ZM549.364 2.0013C556.264 2.0013 562.895 3.17146 569.256 5.51178C575.677 7.79208 581.408 11.5126 586.449 16.6733C591.549 21.774 595.57 28.5549 598.51 37.016C601.451 45.4171 602.921 55.7085 602.921 67.8902C602.921 79.2317 601.631 89.343 599.05 98.2242C596.53 107.105 592.869 114.666 588.069 120.907C583.328 127.148 577.597 131.919 570.876 135.219C564.216 138.46 556.745 140.08 548.463 140.08C539.582 140.08 531.691 138.34 524.79 134.859C517.889 131.319 512.369 126.548 508.228 120.547C504.087 114.546 501.567 107.856 500.667 100.475H528.571C529.651 105.275 531.931 109.026 535.412 111.726C538.952 114.426 543.303 115.777 548.463 115.777C557.225 115.777 563.856 111.966 568.356 104.345C572.857 96.664 575.107 86.2826 575.107 73.2009H574.297C572.317 77.1014 569.616 80.4919 566.196 83.3722C562.775 86.1926 558.875 88.3529 554.494 89.8531C550.114 91.3533 545.463 92.1034 540.542 92.1034C532.621 92.1034 525.54 90.2432 519.299 86.5227C513.059 82.8022 508.168 77.7015 504.628 71.2206C501.087 64.6797 499.287 57.2087 499.227 48.8076C499.287 39.7464 501.417 31.7053 505.618 24.6844C509.818 17.6034 515.669 12.0527 523.17 8.03212C530.731 3.95157 539.462 1.9413 549.364 2.0013ZM549.544 24.5043C545.283 24.5043 541.413 25.5545 537.932 27.6548C534.452 29.695 531.721 32.5154 529.741 36.1159C527.761 39.6564 526.771 43.6469 526.771 48.0875C526.771 52.5281 527.731 56.5186 529.651 60.0591C531.631 63.5996 534.332 66.42 537.752 68.5202C541.172 70.5605 545.043 71.5807 549.364 71.5807C553.744 71.5807 557.645 70.5305 561.065 68.4302C564.546 66.2699 567.306 63.4196 569.346 59.8791C571.387 56.2786 572.407 52.2881 572.407 47.9075C572.407 43.6469 571.417 39.7464 569.436 36.2059C567.456 32.6054 564.756 29.755 561.335 27.6548C557.915 25.5545 553.984 24.5043 549.544 24.5043ZM669.53 139.9C658.128 139.9 648.377 137.199 640.276 131.799C632.235 126.338 626.054 118.507 621.733 108.306C617.473 98.0442 615.342 85.6525 615.342 71.1306C615.342 56.6687 617.503 44.307 621.823 34.0456C626.144 23.7242 632.325 15.8332 640.366 10.3724C648.467 4.9117 658.188 2.18133 669.53 2.18133C680.931 2.18133 690.653 4.9117 698.694 10.3724C706.795 15.8332 712.976 23.6942 717.236 33.9556C721.557 44.217 723.717 56.6086 723.717 71.1306C723.717 85.6525 721.587 98.0442 717.326 108.306C713.066 118.507 706.885 126.338 698.784 131.799C690.743 137.199 680.991 139.9 669.53 139.9ZM669.53 116.497C674.99 116.497 679.581 114.756 683.302 111.276C687.082 107.736 689.932 102.575 691.853 95.7939C693.833 89.013 694.823 80.7919 694.823 71.1306C694.823 61.4093 693.833 53.1582 691.853 46.3773C689.932 39.5964 687.082 34.4357 683.302 30.8952C679.581 27.2947 674.99 25.4945 669.53 25.4945C661.429 25.4945 655.188 29.485 650.807 37.4661C646.427 45.3871 644.236 56.6086 644.236 71.1306C644.236 80.7919 645.196 89.013 647.117 95.7939C649.097 102.575 651.977 107.736 655.758 111.276C659.538 114.756 664.129 116.497 669.53 116.497ZM800.677 72.0307V94.1737H739.469V72.0307H800.677Z"/>
</mask>
<path d="M61.318 107.315L88.5016 37.4661H109.834L70.6792 138.1H52.1367L13.7916 37.4661H34.9444L61.318 107.315ZM28.5536 37.4661V138.1H2V37.4661H28.5536ZM95.5226 138.1V37.4661H121.716V138.1H95.5226ZM183.374 140.08C173.233 140.08 164.442 137.92 157.001 133.599C149.62 129.218 143.919 123.158 139.899 115.417C135.938 107.615 133.958 98.5543 133.958 88.2329C133.958 77.7915 135.938 68.7003 139.899 60.9592C143.919 53.1582 149.62 47.0974 157.001 42.7768C164.442 38.3962 173.233 36.2059 183.374 36.2059C193.576 36.2059 202.367 38.3962 209.748 42.7768C217.189 47.0974 222.89 53.1582 226.85 60.9592C230.871 68.7003 232.881 77.7915 232.881 88.2329C232.881 98.5543 230.871 107.615 226.85 115.417C222.89 123.158 217.189 129.218 209.748 133.599C202.367 137.92 193.576 140.08 183.374 140.08ZM183.554 118.297C188.175 118.297 192.046 117.007 195.166 114.426C198.286 111.786 200.627 108.186 202.187 103.625C203.807 99.0643 204.617 93.8737 204.617 88.0529C204.617 82.1721 203.807 76.9814 202.187 72.4808C200.627 67.9802 198.286 64.4397 195.166 61.8594C192.046 59.279 188.175 57.9888 183.554 57.9888C178.874 57.9888 174.943 59.279 171.763 61.8594C168.642 64.4397 166.272 67.9802 164.652 72.4808C163.092 76.9814 162.312 82.1721 162.312 88.0529C162.312 93.8737 163.092 99.0643 164.652 103.625C166.272 108.186 168.642 111.786 171.763 114.426C174.943 117.007 178.874 118.297 183.554 118.297ZM272.756 116.047H310.651V58.979H283.558L282.478 70.5005C281.758 81.242 280.707 90.3632 279.327 97.8642C277.947 105.305 275.757 111.366 272.756 116.047ZM399.583 120.727C403.664 120.727 407.264 119.917 410.385 118.297C413.565 116.617 416.026 114.396 417.766 111.636C419.566 108.816 420.466 105.665 420.466 102.185V91.4733C419.626 92.0134 418.426 92.5235 416.866 93.0035C415.366 93.4836 413.685 93.9037 411.825 94.2637C409.965 94.6238 408.105 94.9538 406.244 95.2538C404.384 95.4939 402.704 95.7339 401.204 95.9739C397.903 96.454 395.023 97.2341 392.562 98.3143C390.102 99.3344 388.182 100.745 386.802 102.545C385.482 104.285 384.821 106.475 384.821 109.116C384.821 112.896 386.202 115.777 388.962 117.757C391.722 119.737 395.263 120.727 399.583 120.727ZM549.364 2.0013C556.264 2.0013 562.895 3.17146 569.256 5.51178C575.677 7.79208 581.408 11.5126 586.449 16.6733C591.549 21.774 595.57 28.5549 598.51 37.016C601.451 45.4171 602.921 55.7085 602.921 67.8902C602.921 79.2317 601.631 89.343 599.05 98.2242C596.53 107.105 592.869 114.666 588.069 120.907C583.328 127.148 577.597 131.919 570.876 135.219C564.216 138.46 556.745 140.08 548.463 140.08C539.582 140.08 531.691 138.34 524.79 134.859C517.889 131.319 512.369 126.548 508.228 120.547C504.087 114.546 501.567 107.856 500.667 100.475H528.571C529.651 105.275 531.931 109.026 535.412 111.726C538.952 114.426 543.303 115.777 548.463 115.777C557.225 115.777 563.856 111.966 568.356 104.345C572.857 96.664 575.107 86.2826 575.107 73.2009H574.297C572.317 77.1014 569.616 80.4919 566.196 83.3722C562.775 86.1926 558.875 88.3529 554.494 89.8531C550.114 91.3533 545.463 92.1034 540.542 92.1034C532.621 92.1034 525.54 90.2432 519.299 86.5227C513.059 82.8022 508.168 77.7015 504.628 71.2206C501.087 64.6797 499.287 57.2087 499.227 48.8076C499.287 39.7464 501.417 31.7053 505.618 24.6844C509.818 17.6034 515.669 12.0527 523.17 8.03212C530.731 3.95157 539.462 1.9413 549.364 2.0013ZM549.544 24.5043C545.283 24.5043 541.413 25.5545 537.932 27.6548C534.452 29.695 531.721 32.5154 529.741 36.1159C527.761 39.6564 526.771 43.6469 526.771 48.0875C526.771 52.5281 527.731 56.5186 529.651 60.0591C531.631 63.5996 534.332 66.42 537.752 68.5202C541.172 70.5605 545.043 71.5807 549.364 71.5807C553.744 71.5807 557.645 70.5305 561.065 68.4302C564.546 66.2699 567.306 63.4196 569.346 59.8791C571.387 56.2786 572.407 52.2881 572.407 47.9075C572.407 43.6469 571.417 39.7464 569.436 36.2059C567.456 32.6054 564.756 29.755 561.335 27.6548C557.915 25.5545 553.984 24.5043 549.544 24.5043ZM669.53 139.9C658.128 139.9 648.377 137.199 640.276 131.799C632.235 126.338 626.054 118.507 621.733 108.306C617.473 98.0442 615.342 85.6525 615.342 71.1306C615.342 56.6687 617.503 44.307 621.823 34.0456C626.144 23.7242 632.325 15.8332 640.366 10.3724C648.467 4.9117 658.188 2.18133 669.53 2.18133C680.931 2.18133 690.653 4.9117 698.694 10.3724C706.795 15.8332 712.976 23.6942 717.236 33.9556C721.557 44.217 723.717 56.6086 723.717 71.1306C723.717 85.6525 721.587 98.0442 717.326 108.306C713.066 118.507 706.885 126.338 698.784 131.799C690.743 137.199 680.991 139.9 669.53 139.9ZM669.53 116.497C674.99 116.497 679.581 114.756 683.302 111.276C687.082 107.736 689.932 102.575 691.853 95.7939C693.833 89.013 694.823 80.7919 694.823 71.1306C694.823 61.4093 693.833 53.1582 691.853 46.3773C689.932 39.5964 687.082 34.4357 683.302 30.8952C679.581 27.2947 674.99 25.4945 669.53 25.4945C661.429 25.4945 655.188 29.485 650.807 37.4661C646.427 45.3871 644.236 56.6086 644.236 71.1306C644.236 80.7919 645.196 89.013 647.117 95.7939C649.097 102.575 651.977 107.736 655.758 111.276C659.538 114.756 664.129 116.497 669.53 116.497ZM800.677 72.0307V94.1737H739.469V72.0307H800.677Z" fill="#F4F3EF"/>
<path d="M237.202 116.047V115.387H236.542V116.047H237.202ZM244.943 116.047V116.706H245.142L245.308 116.595L244.943 116.047ZM250.343 109.386L250.938 109.671L250.94 109.667L250.343 109.386ZM253.764 98.5843L253.119 98.4461L253.118 98.4532L253.764 98.5843ZM255.834 85.0825L255.179 85.0088L255.178 85.0169L255.834 85.0825ZM257.184 70.5005L256.527 70.4468L256.527 70.4524L257.184 70.5005ZM259.885 37.4661V36.8067H259.277L259.227 37.4124L259.885 37.4661ZM336.935 37.4661H337.594V36.8067H336.935V37.4661ZM336.935 116.047H336.276V116.706H336.935V116.047ZM352.597 116.047H353.257V115.387H352.597V116.047ZM325.954 138.1H326.613V137.44H325.954V138.1ZM264.475 138.1V137.44H263.816V138.1H264.475ZM374.38 136.659L374.108 137.26L374.117 137.264L374.38 136.659ZM361.238 95.9739L361.816 96.291L361.819 96.2871L361.238 95.9739ZM395.983 78.9616L395.922 78.3051L395.92 78.3052L395.983 78.9616ZM417.766 74.9111L418.132 75.4598L418.136 75.4567L417.766 74.9111ZM416.326 59.9691L415.889 60.4632L415.895 60.4681L416.326 59.9691ZM393.373 59.8791L393.763 60.4105L393.765 60.4091L393.373 59.8791ZM387.522 68.1602L387.469 68.8175L388.007 68.8606L388.156 68.3413L387.522 68.1602ZM361.688 66.0899L361.044 65.9509L360.885 66.687L361.636 66.7472L361.688 66.0899ZM369.429 50.2478L369.928 50.6791L369.931 50.6758L369.429 50.2478ZM384.281 39.8964L384.524 40.5095L384.527 40.5082L384.281 39.8964ZM435.138 44.307L434.761 44.848L434.771 44.8544L435.138 44.307ZM421.636 124.058H422.296V123.398H421.636V124.058ZM420.916 124.058V123.398H420.512L420.329 123.758L420.916 124.058ZM414.435 132.429L414.867 132.927L414.873 132.922L414.435 132.429ZM404.714 138.01L404.932 138.632L404.94 138.629L404.714 138.01ZM837.582 37.4661L838.168 37.1629L837.983 36.8067H837.582V37.4661ZM855.855 72.7508L855.269 73.054L855.844 74.1629L856.435 73.0633L855.855 72.7508ZM874.847 37.4661V36.8067H874.453L874.267 37.1535L874.847 37.4661ZM903.561 37.4661L904.132 37.7963L904.704 36.8067H903.561V37.4661ZM874.397 87.8728L873.827 87.5426L873.633 87.8775L873.831 88.21L874.397 87.8728ZM855.855 103.355L856.408 102.996L855.836 102.114L855.291 103.013L855.855 103.355ZM837.582 87.8728L838.149 88.2107L838.346 87.8796L838.154 87.5449L837.582 87.8728ZM808.688 37.4661V36.8067H807.55L808.116 37.794L808.688 37.4661ZM237.202 116.706H244.943V115.387H237.202V116.706ZM245.308 116.595C247.591 115.073 249.461 112.749 250.938 109.671L249.749 109.1C248.346 112.024 246.615 114.14 244.577 115.498L245.308 116.595ZM250.94 109.667C252.407 106.548 253.562 102.895 254.41 98.7154L253.118 98.4532C252.286 102.554 251.16 106.102 249.747 109.105L250.94 109.667ZM254.409 98.7225C255.314 94.4952 256.008 89.9702 256.49 85.1481L255.178 85.0169C254.7 89.7961 254.014 94.2722 253.119 98.4461L254.409 98.7225ZM256.489 85.1562C257.03 80.3468 257.481 75.4777 257.842 70.5486L256.527 70.4524C256.167 75.3647 255.718 80.2168 255.179 85.0088L256.489 85.1562ZM257.841 70.5542L260.542 37.5198L259.227 37.4124L256.527 70.4468L257.841 70.5542ZM259.885 38.1254H336.935V36.8067H259.885V38.1254ZM336.276 37.4661V116.047H337.594V37.4661H336.276ZM336.935 116.706H352.597V115.387H336.935V116.706ZM351.938 116.047V167.534H353.257V116.047H351.938ZM325.954 137.44H264.475V138.759H325.954V137.44ZM391.572 139.33C385.289 139.33 379.65 138.234 374.643 136.055L374.117 137.264C379.312 139.525 385.134 140.649 391.572 140.649V139.33ZM374.652 136.059C369.721 133.828 365.86 130.549 363.052 126.219L361.945 126.937C364.898 131.488 368.958 134.93 374.108 137.26L374.652 136.059ZM363.052 126.219C360.256 121.909 358.837 116.521 358.837 110.016H357.519C357.519 116.713 358.98 122.366 361.945 126.937L363.052 126.219ZM358.837 110.016C358.837 104.451 359.844 99.8875 361.816 96.291L360.66 95.6569C358.552 99.5013 357.519 104.299 357.519 110.016H358.837ZM361.819 96.2871C363.808 92.601 366.524 89.6224 369.973 87.3428L369.246 86.2426C365.614 88.6436 362.749 91.7859 360.658 95.6608L361.819 96.2871ZM369.973 87.3428C373.449 85.0454 377.402 83.3027 381.841 82.1191L381.501 80.8449C376.938 82.0616 372.851 83.8594 369.246 86.2426L369.973 87.3428ZM381.841 82.1191C386.303 80.9291 391.038 80.095 396.045 79.618L395.92 78.3052C390.847 78.7885 386.04 79.6346 381.501 80.8449L381.841 82.1191ZM396.044 79.6182C401.871 79.0776 406.566 78.5361 410.124 77.9933L409.925 76.6896C406.403 77.2269 401.737 77.7656 395.922 78.3051L396.044 79.6182ZM410.124 77.9933C413.693 77.4489 416.389 76.6212 418.132 75.4597L417.4 74.3625C415.902 75.3613 413.437 76.1539 409.925 76.6896L410.124 77.9933ZM418.136 75.4567C420.004 74.1889 420.946 72.3603 420.946 70.0505H419.627C419.627 71.9412 418.888 73.353 417.396 74.3655L418.136 75.4567ZM420.946 70.0505V69.6004H419.627V70.0505H420.946ZM420.946 69.6004C420.946 65.3076 419.569 61.8993 416.757 59.4701L415.895 60.4681C418.363 62.5995 419.627 65.6121 419.627 69.6004H420.946ZM416.762 59.475C414.023 57.0539 410.185 55.8893 405.344 55.8893V57.208C409.985 57.208 413.468 58.3237 415.889 60.4632L416.762 59.475ZM405.344 55.8893C400.269 55.8893 396.127 57.0206 392.98 59.3491L393.765 60.4091C396.619 58.2969 400.458 57.208 405.344 57.208V55.8893ZM392.982 59.3477C389.93 61.5904 387.89 64.4716 386.888 67.979L388.156 68.3413C389.074 65.1279 390.935 62.4883 393.763 60.4105L392.982 59.3477ZM387.574 67.5029L361.741 65.4327L361.636 66.7472L387.469 68.8175L387.574 67.5029ZM362.333 66.2289C363.631 60.2088 366.165 55.0305 369.928 50.6791L368.931 49.8165C365.013 54.3463 362.386 59.7294 361.044 65.9509L362.333 66.2289ZM369.931 50.6758C373.695 46.2652 378.553 42.8743 384.524 40.5094L384.039 39.2834C377.888 41.7192 372.845 45.2292 368.928 49.8198L369.931 50.6758ZM384.527 40.5082C390.555 38.0854 397.549 36.8653 405.524 36.8653V35.5465C397.417 35.5465 390.25 36.7868 384.035 39.2846L384.527 40.5082ZM405.524 36.8653C411.053 36.8653 416.338 37.5191 421.381 38.8245L421.712 37.5478C416.554 36.2129 411.157 35.5465 405.524 35.5465V36.8653ZM421.381 38.8245C426.413 40.1269 430.871 42.1363 434.761 44.8479L435.515 43.766C431.485 40.957 426.881 38.8858 421.712 37.5478L421.381 38.8245ZM434.771 44.8544C438.701 47.4944 441.809 50.9242 444.1 55.1525L445.259 54.5244C442.869 50.1114 439.616 46.5203 435.506 43.7596L434.771 44.8544ZM444.1 55.1525C446.378 59.3584 447.531 64.3766 447.531 70.2305H448.849C448.849 64.2028 447.662 58.9596 445.259 54.5244L444.1 55.1525ZM447.531 70.2305V138.1H448.849V70.2305H447.531ZM421.636 123.398H420.916V124.717H421.636V123.398ZM420.329 123.758C418.746 126.865 416.637 129.59 413.997 131.936L414.873 132.922C417.635 130.467 419.846 127.612 421.504 124.357L420.329 123.758ZM414.004 131.931C411.371 134.212 408.203 136.034 404.488 137.39L404.94 138.629C408.787 137.225 412.099 135.326 414.867 132.927L414.004 131.931ZM404.497 137.387C400.801 138.678 396.496 139.33 391.572 139.33V140.649C396.61 140.649 401.066 139.982 404.931 138.632L404.497 137.387ZM836.997 37.7693L855.269 73.054L856.44 72.4476L838.168 37.1629L836.997 37.7693ZM856.435 73.0633L875.428 37.7786L874.267 37.1535L855.274 72.4383L856.435 73.0633ZM874.847 38.1254H903.561V36.8067H874.847V38.1254ZM902.99 37.1359L873.827 87.5426L874.968 88.2031L904.132 37.7963L902.99 37.1359ZM873.831 88.21L903.715 138.437L904.848 137.762L874.964 87.5357L873.831 88.21ZM808.175 138.438L838.149 88.2107L837.016 87.535L807.042 137.762L808.175 138.438ZM838.154 87.5449L809.261 37.1382L808.116 37.794L837.01 88.2008L838.154 87.5449ZM808.688 38.1254H837.582V36.8067H808.688V38.1254ZM263.816 138.1V167.534H265.135V138.1H263.816ZM236.542 116.047V167.534H237.861V116.047H236.542ZM420.977 124.058V138.1H422.296V124.058H420.977ZM855.291 103.013L834.237 137.758L835.365 138.441L856.419 103.697L855.291 103.013ZM855.302 103.714L877.84 138.458L878.946 137.741L856.408 102.996L855.302 103.714ZM325.294 138.1V167.534H326.613V138.1H325.294ZM61.318 107.315L60.0842 107.781L61.2993 110.999L62.5469 107.794L61.318 107.315ZM88.5016 37.4661V36.1473H87.5998L87.2727 36.9878L88.5016 37.4661ZM109.834 37.4661L111.063 37.9443L111.763 36.1473H109.834V37.4661ZM70.6792 138.1V139.418H71.5812L71.9082 138.578L70.6792 138.1ZM52.1367 138.1L50.9044 138.569L51.228 139.418H52.1367V138.1ZM13.7916 37.4661V36.1473H11.8779L12.5593 37.9356L13.7916 37.4661ZM34.9444 37.4661L36.1782 37.0002L35.8561 36.1473H34.9444V37.4661ZM28.5536 37.4661H29.8723V36.1473H28.5536V37.4661ZM28.5536 138.1V139.418H29.8723V138.1H28.5536ZM2 138.1H0.681254V139.418H2V138.1ZM2 37.4661V36.1473H0.681254V37.4661H2ZM95.5226 138.1H94.2038V139.418H95.5226V138.1ZM95.5226 37.4661V36.1473H94.2038V37.4661H95.5226ZM121.716 37.4661H123.035V36.1473H121.716V37.4661ZM121.716 138.1V139.418H123.035V138.1H121.716ZM157.001 133.599L156.328 134.733L156.339 134.739L157.001 133.599ZM139.899 115.417L138.723 116.014L138.728 116.024L139.899 115.417ZM139.899 60.9592L138.726 60.3551L138.725 60.3586L139.899 60.9592ZM157.001 42.7768L157.667 43.9149L157.67 43.9132L157.001 42.7768ZM209.748 42.7768L209.075 43.9109L209.086 43.9172L209.748 42.7768ZM226.85 60.9592L225.674 61.5562L225.68 61.5671L226.85 60.9592ZM226.85 115.417L225.678 114.812L225.676 114.816L226.85 115.417ZM209.748 133.599L210.414 134.737L210.417 134.735L209.748 133.599ZM195.166 114.426L196.006 115.443L196.012 115.438L196.018 115.433L195.166 114.426ZM202.187 103.625L200.944 103.183L200.942 103.191L200.939 103.198L202.187 103.625ZM202.187 72.4808L200.941 72.9127L200.943 72.9201L200.946 72.9275L202.187 72.4808ZM171.763 61.8594L170.932 60.8352L170.922 60.8431L171.763 61.8594ZM164.652 72.4808L163.411 72.0341L163.408 72.0415L163.406 72.0488L164.652 72.4808ZM164.652 103.625L163.404 104.052L163.407 104.059L163.409 104.066L164.652 103.625ZM171.763 114.426L170.911 115.433L170.921 115.442L170.932 115.451L171.763 114.426ZM272.756 116.047L271.646 115.335L270.345 117.365H272.756V116.047ZM310.651 116.047V117.365H311.97V116.047H310.651ZM310.651 58.979H311.97V57.6602H310.651V58.979ZM283.558 58.979V57.6602H282.357L282.245 58.8559L283.558 58.979ZM282.478 70.5005L281.165 70.3774L281.163 70.3948L281.162 70.4123L282.478 70.5005ZM279.327 97.8642L280.624 98.1047L280.624 98.1028L279.327 97.8642ZM410.385 118.297L410.993 119.467L411.001 119.463L410.385 118.297ZM417.766 111.636L416.654 110.926L416.65 110.933L417.766 111.636ZM420.466 91.4733H421.785V89.0578L419.753 90.364L420.466 91.4733ZM416.866 93.0035L416.478 91.7431L416.471 91.7453L416.464 91.7475L416.866 93.0035ZM406.244 95.2538L406.413 96.5617L406.434 96.5591L406.454 96.5558L406.244 95.2538ZM401.204 95.9739L401.393 97.279L401.403 97.2776L401.412 97.2761L401.204 95.9739ZM392.562 98.3143L393.068 99.5324L393.08 99.5272L393.093 99.5218L392.562 98.3143ZM386.802 102.545L385.755 101.742L385.751 101.748L386.802 102.545ZM549.364 2.0013L549.356 3.32005H549.364V2.0013ZM569.256 5.51178L568.801 6.74941L568.808 6.75199L568.815 6.75448L569.256 5.51178ZM586.449 16.6733L585.505 17.5947L585.511 17.6003L585.516 17.6058L586.449 16.6733ZM598.51 37.016L597.265 37.4489L597.266 37.4517L598.51 37.016ZM599.05 98.2242L597.784 97.8563L597.782 97.8642L599.05 98.2242ZM588.069 120.907L587.023 120.103L587.019 120.11L588.069 120.907ZM570.876 135.219L571.453 136.405L571.458 136.403L570.876 135.219ZM524.79 134.859L524.188 136.033L524.196 136.037L524.79 134.859ZM500.667 100.475V99.1558H499.178L499.358 100.634L500.667 100.475ZM528.571 100.475L529.857 100.185L529.626 99.1558H528.571V100.475ZM535.412 111.726L534.603 112.768L534.612 112.775L535.412 111.726ZM568.356 104.345L569.492 105.016L569.494 105.012L568.356 104.345ZM575.107 73.2009H576.426V71.8821H575.107V73.2009ZM574.297 73.2009V71.8821H573.487L573.121 72.6039L574.297 73.2009ZM566.196 83.3722L567.035 84.3898L567.045 84.381L566.196 83.3722ZM504.628 71.2206L503.468 71.8484L503.47 71.8528L504.628 71.2206ZM499.227 48.8076L497.908 48.7989L497.908 48.8079L497.908 48.817L499.227 48.8076ZM505.618 24.6844L506.749 25.3614L506.752 25.3572L505.618 24.6844ZM523.17 8.03212L523.793 9.19443L523.796 9.19264L523.17 8.03212ZM537.932 27.6548L538.599 28.7924L538.606 28.7882L538.613 28.7838L537.932 27.6548ZM529.741 36.1159L530.892 36.7597L530.896 36.7514L529.741 36.1159ZM529.651 60.0591L528.492 60.6878L528.496 60.6954L528.5 60.7029L529.651 60.0591ZM537.752 68.5202L537.062 69.644L537.069 69.6485L537.076 69.6528L537.752 68.5202ZM561.065 68.4302L561.755 69.554L561.761 69.5507L561.065 68.4302ZM569.346 59.8791L570.489 60.5376L570.494 60.5292L569.346 59.8791ZM569.436 36.2059L568.281 36.8414L568.285 36.8497L569.436 36.2059ZM640.276 131.799L639.535 132.89L639.544 132.896L640.276 131.799ZM621.733 108.306L620.515 108.811L620.519 108.82L621.733 108.306ZM621.823 34.0456L623.039 34.5574L623.04 34.5548L621.823 34.0456ZM640.366 10.3724L639.629 9.27891L639.625 9.28147L640.366 10.3724ZM698.694 10.3724L697.953 11.4634L697.956 11.4659L698.694 10.3724ZM717.236 33.9556L716.018 34.4613L716.021 34.4674L717.236 33.9556ZM717.326 108.306L718.543 108.814L718.544 108.811L717.326 108.306ZM698.784 131.799L699.519 132.893L699.521 132.892L698.784 131.799ZM683.302 111.276L684.203 112.239L684.203 112.239L683.302 111.276ZM691.853 95.7939L690.587 95.4242L690.584 95.4346L691.853 95.7939ZM691.853 46.3773L690.584 46.7366L690.587 46.7469L691.853 46.3773ZM683.302 30.8952L682.384 31.8428L682.392 31.8504L682.4 31.8577L683.302 30.8952ZM650.807 37.4661L651.961 38.1043L651.963 38.1006L650.807 37.4661ZM647.117 95.7939L645.848 96.1532L645.851 96.1636L647.117 95.7939ZM655.758 111.276L654.856 112.239L654.865 112.246L655.758 111.276ZM800.677 72.0307H801.996V70.712H800.677V72.0307ZM800.677 94.1737V95.4924H801.996V94.1737H800.677ZM739.469 94.1737H738.15V95.4924H739.469V94.1737ZM739.469 72.0307V70.712H738.15V72.0307H739.469ZM62.5469 107.794L89.7306 37.9444L87.2727 36.9878L60.089 106.837L62.5469 107.794ZM88.5016 38.7848H109.834V36.1473H88.5016V38.7848ZM108.605 36.9879L69.4502 137.621L71.9082 138.578L111.063 37.9443L108.605 36.9879ZM70.6792 136.781H52.1367V139.418H70.6792V136.781ZM53.3691 137.63L15.0239 36.9965L12.5593 37.9356L50.9044 138.569L53.3691 137.63ZM13.7916 38.7848H34.9444V36.1473H13.7916V38.7848ZM33.7107 37.9319L60.0842 107.781L62.5517 106.85L36.1782 37.0002L33.7107 37.9319ZM27.2348 37.4661V138.1H29.8723V37.4661H27.2348ZM28.5536 136.781H2V139.418H28.5536V136.781ZM3.31875 138.1V37.4661H0.681254V138.1H3.31875ZM2 38.7848H28.5536V36.1473H2V38.7848ZM96.8413 138.1V37.4661H94.2038V138.1H96.8413ZM95.5226 38.7848H121.716V36.1473H95.5226V38.7848ZM120.397 37.4661V138.1H123.035V37.4661H120.397ZM121.716 136.781H95.5226V139.418H121.716V136.781ZM183.374 138.761C173.424 138.761 164.87 136.643 157.663 132.459L156.339 134.739C164.014 139.196 173.042 141.399 183.374 141.399V138.761ZM157.674 132.465C150.508 128.212 144.978 122.335 141.069 114.809L138.728 116.024C142.86 123.98 148.732 130.225 156.328 134.733L157.674 132.465ZM141.074 114.82C137.223 107.234 135.276 98.384 135.276 88.2329H132.639C132.639 98.7246 134.653 107.997 138.723 116.014L141.074 114.82ZM135.276 88.2329C135.276 77.9588 137.224 69.0812 141.073 61.5599L138.725 60.3586C134.652 68.3193 132.639 77.6242 132.639 88.2329H135.276ZM141.071 61.5634C144.98 53.9786 150.508 48.1056 157.667 43.9149L156.335 41.6387C148.732 46.0891 142.858 52.3378 138.726 60.3551L141.071 61.5634ZM157.67 43.9132C164.875 39.6714 173.427 37.5246 183.374 37.5246V34.8872C173.039 34.8872 164.008 37.121 156.332 41.6404L157.67 43.9132ZM183.374 37.5246C193.384 37.5246 201.933 39.6722 209.075 43.9108L210.421 41.6427C202.801 37.1202 193.768 34.8872 183.374 34.8872V37.5246ZM209.086 43.9172C216.303 48.1078 221.827 53.9781 225.674 61.5562L228.026 60.3622C223.952 52.3383 218.075 46.087 210.41 41.6363L209.086 43.9172ZM225.68 61.5671C229.585 69.0867 231.562 77.9617 231.562 88.2329H234.2C234.2 77.6213 232.156 68.3138 228.021 60.3514L225.68 61.5671ZM231.562 88.2329C231.562 98.381 229.587 107.228 225.678 114.812L228.022 116.021C232.155 108.003 234.2 98.7275 234.2 88.2329H231.562ZM225.676 114.816C221.829 122.336 216.303 128.21 209.079 132.463L210.417 134.735C218.075 130.227 223.951 123.979 228.024 116.017L225.676 114.816ZM209.082 132.461C201.939 136.642 193.387 138.761 183.374 138.761V141.399C193.765 141.399 202.795 139.197 210.414 134.737L209.082 132.461ZM183.554 119.616C188.436 119.616 192.616 118.246 196.006 115.443L194.326 113.41C191.475 115.768 187.914 116.978 183.554 116.978V119.616ZM196.018 115.433C199.35 112.613 201.811 108.797 203.435 104.052L200.939 103.198C199.442 107.574 197.222 110.959 194.314 113.42L196.018 115.433ZM203.43 104.066C205.109 99.3386 205.936 93.9945 205.936 88.0529H203.298C203.298 93.7528 202.505 98.7901 200.944 103.183L203.43 104.066ZM205.936 88.0529C205.936 82.0535 205.11 76.7066 203.428 72.0341L200.946 72.9275C202.504 77.2562 203.298 82.2907 203.298 88.0529H205.936ZM203.433 72.0488C201.808 67.3607 199.344 63.6027 196.006 60.8431L194.326 62.8756C197.229 65.2767 199.446 68.5996 200.941 72.9127L203.433 72.0488ZM196.006 60.8431C192.616 58.0399 188.436 56.6701 183.554 56.6701V59.3076C187.914 59.3076 191.475 60.5181 194.326 62.8756L196.006 60.8431ZM183.554 56.6701C178.617 56.6701 174.38 58.0374 170.932 60.8353L172.594 62.8834C175.506 60.5206 179.131 59.3076 183.554 59.3076V56.6701ZM170.922 60.8431C167.589 63.5993 165.097 67.3518 163.411 72.0341L165.893 72.9275C167.447 68.6085 169.695 65.2801 172.603 62.8756L170.922 60.8431ZM163.406 72.0488C161.788 76.7166 160.993 82.0582 160.993 88.0529H163.63C163.63 82.2859 164.396 77.2462 165.898 72.9127L163.406 72.0488ZM160.993 88.0529C160.993 93.9897 161.788 99.3287 163.404 104.052L165.9 103.198C164.395 98.8 163.63 93.7576 163.63 88.0529H160.993ZM163.409 104.066C165.093 108.806 167.582 112.617 170.911 115.433L172.615 113.42C169.702 110.956 167.451 107.565 165.895 103.183L163.409 104.066ZM170.932 115.451C174.38 118.248 178.617 119.616 183.554 119.616V116.978C179.131 116.978 175.506 115.765 172.594 113.402L170.932 115.451ZM272.756 117.365H310.651V114.728H272.756V117.365ZM311.97 116.047V58.979H309.333V116.047H311.97ZM310.651 57.6602H283.558V60.2977H310.651V57.6602ZM282.245 58.8559L281.165 70.3774L283.791 70.6236L284.871 59.1021L282.245 58.8559ZM281.162 70.4123C280.444 81.122 279.398 90.1898 278.03 97.6256L280.624 98.1028C282.016 90.5365 283.071 81.3619 283.793 70.5887L281.162 70.4123ZM278.031 97.6237C276.671 104.954 274.528 110.84 271.646 115.335L273.867 116.758C276.986 111.892 279.223 105.657 280.624 98.1047L278.031 97.6237ZM399.583 122.046C403.841 122.046 407.656 121.2 410.993 119.467L409.777 117.127C406.873 118.635 403.487 119.409 399.583 119.409V122.046ZM411.001 119.463C414.364 117.686 417.006 115.315 418.881 112.339L416.65 110.933C415.046 113.478 412.767 115.547 409.769 117.131L411.001 119.463ZM418.877 112.346C420.819 109.304 421.785 105.906 421.785 102.185H419.147C419.147 105.424 418.314 108.327 416.654 110.927L418.877 112.346ZM421.785 102.185V91.4733H419.147V102.185H421.785ZM419.753 90.364C419.057 90.8113 417.986 91.279 416.478 91.7431L417.254 94.264C418.866 93.7679 420.195 93.2156 421.179 92.5826L419.753 90.364ZM416.464 91.7475C415.022 92.2089 413.393 92.6169 411.574 92.969L412.076 95.5584C413.977 95.1904 415.709 94.7583 417.268 94.2595L416.464 91.7475ZM411.574 92.969C409.728 93.3264 407.881 93.6541 406.034 93.9519L406.454 96.5558C408.328 96.2535 410.202 95.9211 412.076 95.5584L411.574 92.969ZM406.076 93.9459C404.205 94.1873 402.511 94.4292 400.995 94.6718L401.412 97.2761C402.896 97.0386 404.563 96.8005 406.413 96.5617L406.076 93.9459ZM401.014 94.6689C397.623 95.1621 394.624 95.9691 392.032 97.1068L393.093 99.5218C395.422 98.4991 398.183 97.7459 401.393 97.279L401.014 94.6689ZM392.057 97.0961C389.421 98.1893 387.299 99.7287 385.755 101.742L387.848 103.347C389.065 101.76 390.784 100.479 393.068 99.5324L392.057 97.0961ZM385.751 101.748C384.223 103.762 383.503 106.249 383.503 109.116H386.14C386.14 106.701 386.74 104.808 387.852 103.342L385.751 101.748ZM383.503 109.116C383.503 113.266 385.045 116.57 388.193 118.828L389.731 116.685C387.358 114.983 386.14 112.527 386.14 109.116H383.503ZM388.193 118.828C391.232 121.008 395.062 122.046 399.583 122.046V119.409C395.463 119.409 392.213 118.466 389.731 116.685L388.193 118.828ZM549.364 3.32005C556.112 3.32005 562.589 4.46373 568.801 6.74941L569.712 4.27414C563.202 1.87919 556.417 0.682559 549.364 0.682559V3.32005ZM568.815 6.75448C575.035 8.96348 580.597 12.5694 585.505 17.5947L587.392 15.7518C582.219 10.4558 576.319 6.62068 569.698 4.26907L568.815 6.75448ZM585.516 17.6058C590.446 22.5359 594.374 29.1314 597.265 37.4489L599.756 36.5831C596.766 27.9784 592.652 21.0121 587.381 15.7408L585.516 17.6058ZM597.266 37.4517C600.143 45.6717 601.602 55.806 601.602 67.8902H604.24C604.24 55.611 602.759 45.1626 599.755 36.5804L597.266 37.4517ZM601.602 67.8902C601.602 79.1342 600.323 89.1181 597.784 97.8563L600.317 98.5922C602.938 89.568 604.24 79.3292 604.24 67.8902H601.602ZM597.782 97.8642C595.299 106.612 591.706 114.016 587.023 120.103L589.114 121.711C594.033 115.317 597.761 107.599 600.319 98.5843L597.782 97.8642ZM587.019 120.11C582.396 126.195 576.823 130.83 570.295 134.035L571.458 136.403C578.372 133.008 584.26 128.101 589.119 121.705L587.019 120.11ZM570.3 134.033C563.839 137.176 556.568 138.761 548.463 138.761V141.399C556.921 141.399 564.592 139.743 571.453 136.405L570.3 134.033ZM548.463 138.761C539.758 138.761 532.075 137.056 525.384 133.682L524.196 136.037C531.307 139.623 539.407 141.399 548.463 141.399V138.761ZM525.392 133.686C518.672 130.238 513.322 125.608 509.313 119.798L507.143 121.296C511.415 127.488 517.106 132.399 524.188 136.033L525.392 133.686ZM509.313 119.798C505.296 113.977 502.851 107.489 501.976 100.315L499.358 100.634C500.283 108.222 502.878 115.116 507.143 121.296L509.313 119.798ZM500.667 101.793H528.571V99.1558H500.667V101.793ZM527.284 100.764C528.423 105.826 530.852 109.858 534.603 112.768L536.22 110.684C533.01 108.194 530.879 104.724 529.857 100.185L527.284 100.764ZM534.612 112.775C538.418 115.677 543.062 117.095 548.463 117.095V114.458C543.544 114.458 539.487 113.176 536.211 110.677L534.612 112.775ZM548.463 117.095C557.697 117.095 564.757 113.033 569.492 105.016L567.221 103.674C562.954 110.899 556.752 114.458 548.463 114.458V117.095ZM569.494 105.012C574.156 97.0552 576.426 86.4142 576.426 73.2009H573.788C573.788 86.1511 571.557 96.2729 567.218 103.678L569.494 105.012ZM575.107 71.8821H574.297V74.5196H575.107V71.8821ZM573.121 72.6039C571.223 76.3431 568.635 79.5945 565.346 82.3635L567.045 84.381C570.598 81.3892 573.411 77.8597 575.473 73.7979L573.121 72.6039ZM565.357 82.3548C562.064 85.0699 558.304 87.1543 554.067 88.6055L554.922 91.1007C559.445 89.5515 563.487 87.3154 567.035 84.3897L565.357 82.3548ZM554.067 88.6055C549.832 90.0557 545.327 90.7847 540.542 90.7847V93.4222C545.599 93.4222 550.395 92.6509 554.922 91.1007L554.067 88.6055ZM540.542 90.7847C532.837 90.7847 525.993 88.9778 519.975 85.3899L518.624 87.6554C525.087 91.5085 532.406 93.4222 540.542 93.4222V90.7847ZM519.975 85.3899C513.94 81.7922 509.214 76.8659 505.785 70.5884L503.47 71.8528C507.122 78.5371 512.177 83.8121 518.624 87.6554L519.975 85.3899ZM505.787 70.5929C502.362 64.2654 500.604 57.0116 500.546 48.7982L497.908 48.817C497.969 57.4058 499.812 65.094 503.468 71.8484L505.787 70.5929ZM500.546 48.8163C500.604 39.9646 502.682 32.1591 506.749 25.3614L504.486 24.0073C500.152 31.2515 497.97 39.5282 497.908 48.7989L500.546 48.8163ZM506.752 25.3572C510.826 18.4901 516.496 13.1054 523.793 9.19443L522.547 6.86981C514.842 10.9999 508.811 16.7167 504.483 24.0115L506.752 25.3572ZM523.796 9.19264C531.135 5.23229 539.642 3.26115 549.356 3.32003L549.372 0.682583C539.283 0.62144 530.327 2.67085 522.544 6.87159L523.796 9.19264ZM549.544 23.1856C545.055 23.1856 540.947 24.2952 537.251 26.5257L538.613 28.7838C541.878 26.8137 545.511 25.8231 549.544 25.8231V23.1856ZM537.265 26.5171C533.576 28.6799 530.678 31.6756 528.585 35.4804L530.896 36.7514C532.764 33.3553 535.328 30.7101 538.599 28.7924L537.265 26.5171ZM528.59 35.4721C526.489 39.2276 525.452 43.4434 525.452 48.0875H528.089C528.089 43.8504 529.032 40.0851 530.892 36.7596L528.59 35.4721ZM525.452 48.0875C525.452 52.7247 526.456 56.9351 528.492 60.6878L530.81 59.4304C529.005 56.1022 528.089 52.3315 528.089 48.0875H525.452ZM528.5 60.7029C530.589 64.4379 533.447 67.4245 537.062 69.644L538.442 67.3964C535.216 65.4155 532.673 62.7612 530.802 59.4154L528.5 60.7029ZM537.076 69.6528C540.718 71.8252 544.826 72.8994 549.364 72.8994V70.2619C545.26 70.2619 541.627 69.2958 538.428 67.3877L537.076 69.6528ZM549.364 72.8994C553.965 72.8994 558.108 71.7933 561.755 69.554L560.375 67.3064C557.181 69.2677 553.524 70.2619 549.364 70.2619V72.8994ZM561.761 69.5507C565.425 67.2759 568.34 64.267 570.489 60.5375L568.204 59.2206C566.272 62.5721 563.666 65.2639 560.37 67.3098L561.761 69.5507ZM570.494 60.5292C572.653 56.7188 573.725 52.5021 573.725 47.9075H571.088C571.088 52.074 570.12 55.8384 568.199 59.2289L570.494 60.5292ZM573.725 47.9075C573.725 43.4333 572.683 39.3094 570.587 35.5622L568.285 36.8497C570.15 40.1834 571.088 43.8605 571.088 47.9075H573.725ZM570.592 35.5704C568.504 31.7745 565.645 28.7538 562.025 26.531L560.645 28.7785C563.866 30.7562 566.408 33.4363 568.281 36.8414L570.592 35.5704ZM562.025 26.531C558.375 24.2899 554.201 23.1856 549.544 23.1856V25.8231C553.767 25.8231 557.454 26.819 560.645 28.7785L562.025 26.531ZM669.53 138.581C658.343 138.581 648.857 135.934 641.007 130.701L639.544 132.896C647.897 138.465 657.913 141.219 669.53 141.219V138.581ZM641.017 130.708C633.214 125.409 627.183 117.792 622.948 107.791L620.519 108.82C624.924 119.221 631.256 127.267 639.535 132.89L641.017 130.708ZM622.951 107.8C618.774 97.7398 616.661 85.5297 616.661 71.1306H614.024C614.024 85.7754 616.171 98.3486 620.515 108.811L622.951 107.8ZM616.661 71.1306C616.661 56.7943 618.803 44.6162 623.039 34.5574L620.608 33.5339C616.202 43.9978 614.024 56.543 614.024 71.1306H616.661ZM623.04 34.5548C627.277 24.4328 633.308 16.7597 641.107 11.4634L639.625 9.28147C631.342 14.9067 625.011 23.0156 620.607 33.5364L623.04 34.5548ZM641.103 11.4659C648.953 6.17452 658.407 3.50007 669.53 3.50007V0.862583C657.969 0.862583 647.981 3.64887 639.629 9.27892L641.103 11.4659ZM669.53 3.50007C680.714 3.50007 690.166 6.17537 697.953 11.4634L699.435 9.28147C691.139 3.64803 681.149 0.862583 669.53 0.862583V3.50007ZM697.956 11.4659C705.815 16.7629 711.843 24.405 716.018 34.4613L718.454 33.4499C714.108 22.9835 707.775 14.9034 699.431 9.27892L697.956 11.4659ZM716.021 34.4674C720.256 44.5256 722.398 56.7334 722.398 71.1306H725.036C725.036 56.4839 722.858 43.9084 718.452 33.4439L716.021 34.4674ZM722.398 71.1306C722.398 85.5297 720.285 97.7398 716.108 107.8L718.544 108.811C722.888 98.3486 725.036 85.7754 725.036 71.1306H722.398ZM716.109 107.797C711.935 117.793 705.907 125.407 698.047 130.705L699.521 132.892C707.863 127.269 714.197 119.221 718.543 108.814L716.109 107.797ZM698.048 130.704C690.262 135.934 680.778 138.581 669.53 138.581V141.219C681.204 141.219 691.223 138.465 699.519 132.893L698.048 130.704ZM669.53 117.815C675.299 117.815 680.219 115.965 684.203 112.239L682.401 110.313C678.943 113.547 674.682 115.178 669.53 115.178V117.815ZM684.203 112.239C688.211 108.485 691.159 103.085 693.122 96.1532L690.584 95.4346C688.706 102.065 685.953 106.986 682.4 110.313L684.203 112.239ZM693.119 96.1636C695.144 89.2277 696.142 80.8745 696.142 71.1306H693.504C693.504 80.7093 692.522 88.7983 690.587 95.4242L693.119 96.1636ZM696.142 71.1306C696.142 61.3276 695.144 52.9441 693.119 46.0076L690.587 46.7469C692.522 53.3722 693.504 61.491 693.504 71.1306H696.142ZM693.122 46.0179C691.159 39.0865 688.211 33.6859 684.203 29.9326L682.4 31.8577C685.953 35.1854 688.706 40.1062 690.584 46.7366L693.122 46.0179ZM684.219 29.9475C680.238 26.095 675.312 24.1757 669.53 24.1757V26.8132C674.669 26.8132 678.924 28.4944 682.384 31.8428L684.219 29.9475ZM669.53 24.1757C660.879 24.1757 654.228 28.4921 649.651 36.8315L651.963 38.1006C656.147 30.4779 661.978 26.8132 669.53 26.8132V24.1757ZM649.653 36.8279C645.118 45.0283 642.918 56.5065 642.918 71.1306H645.555C645.555 56.7107 647.735 45.746 651.961 38.1043L649.653 36.8279ZM642.918 71.1306C642.918 80.8718 643.885 89.2212 645.848 96.1532L648.386 95.4346C646.508 88.8048 645.555 80.712 645.555 71.1306H642.918ZM645.851 96.1636C647.874 103.092 650.852 108.488 654.856 112.239L656.659 110.313C653.103 106.983 650.32 102.058 648.383 95.4242L645.851 96.1636ZM654.865 112.246C658.902 115.963 663.817 117.815 669.53 117.815V115.178C664.441 115.178 660.175 113.55 656.651 110.306L654.865 112.246ZM799.359 72.0307V94.1737H801.996V72.0307H799.359ZM800.677 92.8549H739.469V95.4924H800.677V92.8549ZM740.788 94.1737V72.0307H738.15V94.1737H740.788ZM739.469 73.3495H800.677V70.712H739.469V73.3495Z" fill="black" mask="url(#path-1-outside-1_236_3269)"/>
<circle cx="237.366" cy="169.061" r="2.79436" fill="black"/>
<circle cx="264.191" cy="169.061" r="2.79436" fill="black"/>
<circle cx="326.562" cy="169.061" r="2.79436" fill="black"/>
<circle cx="353.388" cy="169.061" r="2.79436" fill="black"/>
<circle cx="421.794" cy="138.211" r="2.79436" fill="black"/>
<circle cx="808.087" cy="138.211" r="2.79436" fill="black"/>
<circle cx="877.834" cy="138.211" r="2.79436" fill="black"/>
<circle cx="447.949" cy="138.211" r="2.79436" fill="black"/>
<circle cx="834.913" cy="138.211" r="2.79436" fill="black"/>
<circle cx="904.66" cy="138.211" r="2.79436" fill="black"/>
</svg>
