<svg width="311" height="203" viewBox="0 0 311 203" fill="none" xmlns="http://www.w3.org/2000/svg">
<path d="M9.31263 25.1083C20.9015 11.4445 37.2855 1 56.0374 1C63.9373 1 68.2124 1.60202 73.4044 7.77116C76.4615 11.4035 81.0243 15.3734 81.0243 20.4206C81.0243 34.8059 71.9749 51.1532 60.6789 60.6011C53.2493 66.8152 47.4507 74.5012 39.5599 80.2449C30.0909 87.1373 20.8185 95.1847 14.0702 104.539C6.11335 115.569 -1.91279 132.416 2.0409 146.245C7.50638 165.362 31.0478 169.088 48.6496 169.088C52.3757 169.088 56.1019 169.088 59.828 169.088C64.0364 169.088 68.0257 167.08 71.896 165.591C79.1032 162.227 94.7176 150.8 99.5176 132C104.318 113.2 101.018 102.333 99.0176 99M99.5176 66.5019C102.518 45.8961 116.309 28.6682 129.296 20.0485C137.57 14.5573 147.702 15.0632 157.3 15.0632C165.979 15.0632 169.885 17.6234 175.015 24.141C182.318 33.4184 180.39 45.8961 180.39 45.8961C180.39 45.8961 178.837 55.4485 175.49 66.5019C173.404 73.3927 173.874 74.1107 170.949 79.7387C164.615 91.9228 158.913 106.587 150.075 117.129C141.141 127.785 127.246 141.26 123.409 154.52C120.594 164.245 117.344 184.555 126.094 194.714C136.115 202.798 149.098 202.652 161.447 202.043C172.483 201.499 182.122 194.401 191.114 189.059C196.145 186.07 200.265 183.407 204.382 179.2C210.653 172.79 212.017 156.02 215.01 147.845C221.643 129.724 223.309 110.716 225.492 91.8154C226.989 78.8542 227.959 64.6966 232.493 52.3417C236.833 40.5142 239.885 26.6473 252.452 20.4206C263.185 15.1022 275.157 21.536 283.627 27.4894C298.868 38.2019 306.214 49.5806 308.629 68.1395C309.765 76.873 310.177 95.7048 306.417 106.758C303.122 116.447 303.209 119.995 295.381 131.458C289.221 142.102 270.792 159.56 275.969 175.636C280.104 188.477 292.806 186.097 302.657 180.622C306.512 178.48 310.78 174.328 310.78 169.758" stroke="#131313" stroke-width="0.358542" stroke-linecap="round"/>
<ellipse cx="9.3436" cy="25.2903" rx="0.898285" ry="1.0917" fill="#131313"/>
<ellipse cx="36.4446" cy="168.576" rx="1.02661" ry="1.0917" fill="#131313"/>
<ellipse cx="123.937" cy="23.7893" rx="1.02661" ry="0.955236" fill="#131313"/>
<ellipse cx="172.468" cy="199.665" rx="1.02661" ry="1.0917" fill="#131313"/>
<ellipse cx="258.023" cy="18.4673" rx="1.02661" ry="1.0917" fill="#131313"/>
<ellipse cx="306.417" cy="106.895" rx="1.02661" ry="1.0917" fill="#131313"/>
<ellipse cx="307.445" cy="177.309" rx="1.02661" ry="1.0917" fill="#131313"/>
</svg>
