<svg width="1490" height="766" viewBox="0 0 1490 766" fill="none" xmlns="http://www.w3.org/2000/svg">
<path d="M639.598 635.56C667.234 641.547 694.857 646.52 722.913 650.143C771.094 656.365 814.808 660.584 858.994 635.854C877.011 625.77 915.416 601.734 907.395 574.956C899.352 548.1 855.521 529.295 831.159 523.446C817.532 520.174 795.415 518.412 785.524 531.454C776.755 543.015 780.559 565.436 783.808 578.199C793.61 616.703 831.35 641.98 865.923 655.997C910.642 674.128 960.329 689.41 1009.43 681.028C1027.38 677.963 1044.2 668.592 1052.99 652.321C1058.76 641.646 1059.47 630.715 1052.8 620.098C1047.45 611.601 1034.64 599.386 1023.74 605.731C994.704 622.649 1032.11 677.982 1047.34 689.893C1072.49 709.568 1102.82 711.015 1133.28 706.142C1148.1 703.774 1163.21 699.225 1175.05 689.641C1187.79 679.319 1197.53 665.51 1209.9 654.641C1232.95 634.382 1258.1 610.898 1286.78 599.281C1314.2 588.179 1349.41 590.933 1378.24 594.206C1405.51 597.301 1428.07 612.633 1451.3 626.031C1465.99 634.507 1478.54 639.777 1484.96 656.181" stroke="#131313" stroke-width="1.3" stroke-linecap="round"/>
<path d="M858.805 156.396C849.146 170.994 810.676 222.27 802.593 233.872C792.489 248.374 672.594 355.226 617.818 343.457C550.932 329.087 540.39 255.487 527.953 234.117C510.577 204.26 479.016 182.531 457.452 181.025C431.714 179.227 425.836 179.481 412.299 181.025C365.49 186.362 343.445 207.593 328.38 221.616C313.315 235.639 299.236 253.083 296.485 262.755C288.857 289.572 287.808 306.415 289.337 322.432C292.863 359.362 315.132 378.809 337.643 375.159C347.779 373.516 356.246 362.204 359.447 345.324C363.388 324.542 360.332 317.843 353.067 303.368C339.319 275.974 297.659 250.879 274.451 245.892C251.577 240.978 208.941 242.495 186.685 259.223C169.281 272.305 166.304 271.56 148.439 282.399C126.937 295.445 107.621 305.127 83.4746 327.657C49.0754 359.753 32.9086 436.021 35.8522 478.699C39.0232 524.672 88.679 633.019 169.556 615.629C203.091 608.418 212.554 603.454 233.859 615.029C264.353 631.596 263.167 667.835 296.548 672.815C353.067 681.246 397.573 632.849 420.509 607.918C462.468 562.31 524.952 556.381 556.422 587.851C581.035 612.465 625.746 628.898 642.165 636.196" stroke="#131313" stroke-width="1.36825" stroke-linecap="round"/>
<circle cx="640.681" cy="634.681" r="3.68084" fill="#131313"/>
<circle cx="907.681" cy="573.681" r="3.68084" fill="#131313"/>
<circle cx="1274.68" cy="605.681" r="3.68084" fill="#131313"/>
<circle cx="1033.68" cy="605.681" r="3.68084" fill="#131313"/>
<circle cx="494.681" cy="568.681" r="3.68084" fill="#131313"/>
<circle cx="101.681" cy="599.681" r="3.68084" fill="#131313"/>
</svg>
