<svg width="1217" height="654" viewBox="0 0 1217 654" fill="none" xmlns="http://www.w3.org/2000/svg">
<path d="M104.834 217.409C104.005 217.409 103.295 217.192 102.703 216.758C102.115 216.325 101.665 215.699 101.352 214.88C101.043 214.056 100.889 213.06 100.889 211.889C100.889 210.724 101.046 209.729 101.359 208.905C101.672 208.077 102.122 207.446 102.71 207.013C103.302 206.574 104.01 206.355 104.834 206.355C105.662 206.355 106.37 206.574 106.958 207.013C107.55 207.446 108.001 208.077 108.309 208.905C108.622 209.729 108.778 210.724 108.778 211.889C108.778 213.06 108.624 214.056 108.316 214.88C108.008 215.699 107.56 216.325 106.972 216.758C106.385 217.192 105.672 217.409 104.834 217.409ZM104.834 216.022C105.34 216.022 105.766 215.86 106.113 215.538C106.459 215.215 106.724 214.745 106.907 214.129C107.09 213.507 107.182 212.761 107.182 211.889C107.182 211.013 107.09 210.266 106.907 209.65C106.724 209.028 106.459 208.556 106.113 208.234C105.766 207.906 105.34 207.742 104.834 207.742C104.087 207.742 103.509 208.106 103.1 208.833C102.695 209.556 102.493 210.574 102.493 211.889C102.493 212.761 102.585 213.507 102.768 214.129C102.951 214.745 103.216 215.215 103.562 215.538C103.914 215.86 104.338 216.022 104.834 216.022ZM113.922 206.5V217.264H112.318V208.132H112.246L109.689 209.816V208.255L112.362 206.5H113.922Z" fill="#131313"/>
<path d="M329.37 341.764C304.87 395.264 254.869 429.264 224.369 452.764C198.369 468.264 172.458 476.886 156.869 476.886C83.2304 476.886 32.2422 465.109 9.37674 395.066C-7.16397 344.397 1.36963 320.264 29.8694 281.764C47.8092 261.974 74.8694 239.764 93.3695 222.764M362.87 247.264C395.26 162.881 441.869 119.264 494.369 85.2643C546.869 51.2643 593.716 54.7643 633.869 54.7643C664.369 60.7643 684.918 73.3838 706.382 97.2643C732.37 131.264 728.37 173.764 728.37 173.764C728.37 173.764 726.812 194.764 723.87 211.264C714.064 266.246 714.285 269.347 687.87 327.764C652.37 389.264 585.869 437.764 552.369 478.764C540.596 514.396 538.26 566.543 574.869 603.764C616.791 633.383 622.869 638.764 677.369 649.764C734.869 652.764 793.869 650.863 861.369 638.764C914.369 629.264 967.476 601.416 984.698 586.001C1010.94 562.517 1046.52 518.764 1055.35 478.764C1059.67 416.674 1055.1 384.385 1042.87 328.264M1212.37 84.2642C1198.37 16.7642 1100.25 -12.565 1055.35 6.92161C1004.87 28.8263 991.37 39.7642 973.869 87.2643C960.87 144.764 985.527 196.706 1018.37 246.764" stroke="#131313" stroke-width="1.5" stroke-linecap="round"/>
<ellipse cx="151.664" cy="477.264" rx="4.29495" ry="4" fill="#131313"/>
<circle cx="568.869" cy="57.2643" r="4.5" fill="#131313"/>
<ellipse cx="675.664" cy="649.264" rx="4.29495" ry="4" fill="#131313"/>
<ellipse cx="1212.67" cy="87.2643" rx="4.29495" ry="4" fill="#131313"/>
<ellipse cx="1040.67" cy="516.764" rx="4.29495" ry="4" fill="#131313"/>
</svg>
