<svg width="962" height="145" viewBox="0 0 962 145" fill="none" xmlns="http://www.w3.org/2000/svg">
<circle cx="2.7332" cy="133.855" r="2.7332" fill="#131313"/>
<circle cx="91.7332" cy="133.855" r="2.7332" fill="#131313"/>
<circle cx="437.733" cy="102.855" r="2.7332" fill="#131313"/>
<circle cx="862.733" cy="141.855" r="2.7332" fill="#131313"/>
<circle cx="30.7332" cy="133.855" r="2.7332" fill="#131313"/>
<circle cx="118.733" cy="133.855" r="2.7332" fill="#131313"/>
<circle cx="464.733" cy="102.855" r="2.7332" fill="#131313"/>
<circle cx="890.733" cy="141.855" r="2.7332" fill="#131313"/>
<mask id="path-9-outside-1_954_22077" maskUnits="userSpaceOnUse" x="2.17969" y="0" width="960" height="144" fill="black">
<rect fill="white" x="2.17969" width="960" height="144"/>
<path d="M38.8142 82.0197H76.7942V24.8241H49.6398L48.5573 36.3715C47.8356 47.137 46.7831 56.2787 45.3998 63.7965C44.0165 71.2542 41.8213 77.3286 38.8142 82.0197ZM174.586 106.107C164.422 106.107 155.611 103.942 148.153 99.6114C140.756 95.221 135.042 89.1466 131.013 81.3882C127.043 73.5697 125.059 64.4882 125.059 54.1436C125.059 43.6788 127.043 34.5672 131.013 26.8088C135.042 18.9903 140.756 12.9159 148.153 8.58561C155.611 4.1952 164.422 2 174.586 2C184.81 2 193.621 4.1952 201.019 8.58561C208.476 12.9159 214.19 18.9903 218.159 26.8088C222.189 34.5672 224.204 43.6788 224.204 54.1436C224.204 64.4882 222.189 73.5697 218.159 81.3882C214.19 89.1466 208.476 95.221 201.019 99.6114C193.621 103.942 184.81 106.107 174.586 106.107ZM174.767 84.2751C179.398 84.2751 183.277 82.982 186.404 80.3959C189.532 77.7496 191.877 74.1411 193.441 69.5702C195.065 64.9994 195.877 59.797 195.877 53.9632C195.877 48.0692 195.065 42.8669 193.441 38.3562C191.877 33.8455 189.532 30.2971 186.404 27.711C183.277 25.1248 179.398 23.8318 174.767 23.8318C170.075 23.8318 166.136 25.1248 162.949 27.711C159.821 30.2971 157.445 33.8455 155.822 38.3562C154.258 42.8669 153.476 48.0692 153.476 53.9632C153.476 59.797 154.258 64.9994 155.822 69.5702C157.445 74.1411 159.821 77.7496 162.949 80.3959C166.136 82.982 170.075 84.2751 174.767 84.2751ZM281.941 106.107C271.656 106.107 262.815 103.912 255.418 99.5212C248.02 95.0707 242.337 88.9662 238.367 81.2078C234.398 73.3893 232.413 64.3679 232.413 54.1436C232.413 43.7991 234.398 34.7176 238.367 26.899C242.397 19.0805 248.11 12.976 255.508 8.58561C262.906 4.1952 271.716 2 281.941 2C290.721 2 298.39 3.59378 304.945 6.78134C311.561 9.96889 316.793 14.4495 320.642 20.2232C324.492 25.9969 326.597 32.793 326.957 40.6115H300.615C300.134 37.2436 299.111 34.2966 297.548 31.7706C295.984 29.2446 293.909 27.29 291.323 25.9067C288.737 24.5234 285.73 23.8318 282.302 23.8318C277.971 23.8318 274.182 25.0045 270.935 27.3501C267.747 29.6355 265.251 33.0336 263.447 37.5443C261.703 41.9948 260.831 47.4077 260.831 53.7828C260.831 60.1579 261.703 65.6309 263.447 70.2017C265.251 74.7726 267.747 78.2608 270.935 80.6665C274.182 83.0722 277.971 84.2751 282.302 84.2751C287.113 84.2751 291.173 82.7715 294.48 79.7644C297.788 76.6971 299.833 72.4871 300.615 67.1344H326.957C326.536 74.8327 324.461 81.6288 320.733 87.5228C317.004 93.3566 311.862 97.9274 305.306 101.235C298.751 104.483 290.962 106.107 281.941 106.107ZM352.939 141.832C349.391 141.892 346.053 141.651 342.925 141.11C339.858 140.569 337.332 139.877 335.347 139.035L341.662 118.196L342.564 118.376C347.256 119.759 351.255 120.06 354.563 119.278C357.931 118.556 360.487 115.91 362.231 111.339L363.855 107.009L327.769 3.26299H357.089L377.928 77.3286H379.011L400.121 3.26299H429.621L390.468 115.038C388.604 120.451 386.048 125.172 382.8 129.202C379.612 133.231 375.583 136.329 370.711 138.494C365.84 140.719 359.916 141.832 352.939 141.832ZM600.396 106.107C590.111 106.107 581.27 103.912 573.873 99.5212C566.475 95.0707 560.792 88.9662 556.822 81.2078C552.853 73.3893 550.868 64.3679 550.868 54.1436C550.868 43.7991 552.853 34.7176 556.822 26.899C560.852 19.0805 566.565 12.976 573.963 8.58561C581.361 4.1952 590.171 2 600.396 2C609.177 2 616.845 3.59378 623.4 6.78134C630.016 9.96889 635.248 14.4495 639.097 20.2232C642.947 25.9969 645.052 32.793 645.412 40.6115H619.07C618.589 37.2436 617.566 34.2966 616.003 31.7706C614.439 29.2446 612.364 27.29 609.778 25.9067C607.192 24.5234 604.185 23.8318 600.757 23.8318C596.426 23.8318 592.637 25.0045 589.39 27.3501C586.202 29.6355 583.706 33.0336 581.902 37.5443C580.158 41.9948 579.286 47.4077 579.286 53.7828C579.286 60.1579 580.158 65.6309 581.902 70.2017C583.706 74.7726 586.202 78.2608 589.39 80.6665C592.637 83.0722 596.426 84.2751 600.757 84.2751C605.568 84.2751 609.628 82.7715 612.935 79.7644C616.243 76.6971 618.288 72.4871 619.07 67.1344H645.412C644.991 74.8327 642.917 81.6288 639.188 87.5228C635.459 93.3566 630.317 97.9274 623.761 101.235C617.206 104.483 609.417 106.107 600.396 106.107ZM702.879 106.107C692.594 106.107 683.753 103.912 676.356 99.5212C668.958 95.0707 663.275 88.9662 659.305 81.2078C655.336 73.3893 653.351 64.3679 653.351 54.1436C653.351 43.7991 655.336 34.7176 659.305 26.899C663.335 19.0805 669.049 12.976 676.446 8.58561C683.844 4.1952 692.654 2 702.879 2C711.66 2 719.328 3.59378 725.883 6.78134C732.499 9.96889 737.731 14.4495 741.581 20.2232C745.43 25.9969 747.535 32.793 747.895 40.6115H721.553C721.072 37.2436 720.049 34.2966 718.486 31.7706C716.922 29.2446 714.847 27.29 712.261 25.9067C709.675 24.5234 706.668 23.8318 703.24 23.8318C698.909 23.8318 695.12 25.0045 691.873 27.3501C688.685 29.6355 686.189 33.0336 684.385 37.5443C682.641 41.9948 681.769 47.4077 681.769 53.7828C681.769 60.1579 682.641 65.6309 684.385 70.2017C686.189 74.7726 688.685 78.2608 691.873 80.6665C695.12 83.0722 698.909 84.2751 703.24 84.2751C708.051 84.2751 712.111 82.7715 715.418 79.7644C718.726 76.6971 720.771 72.4871 721.553 67.1344H747.895C747.474 74.8327 745.4 81.6288 741.671 87.5228C737.942 93.3566 732.8 97.9274 726.244 101.235C719.689 104.483 711.9 106.107 702.879 106.107ZM805.362 106.107C795.077 106.107 786.236 103.912 778.839 99.5212C771.441 95.0707 765.758 88.9662 761.788 81.2078C757.819 73.3893 755.834 64.3679 755.834 54.1436C755.834 43.7991 757.819 34.7176 761.788 26.899C765.818 19.0805 771.531 12.976 778.929 8.58561C786.327 4.1952 795.137 2 805.362 2C814.143 2 821.811 3.59378 828.366 6.78134C834.982 9.96889 840.214 14.4495 844.063 20.2232C847.913 25.9969 850.018 32.793 850.378 40.6115H824.036C823.555 37.2436 822.532 34.2966 820.969 31.7706C819.405 29.2446 817.33 27.29 814.744 25.9067C812.158 24.5234 809.151 23.8318 805.723 23.8318C801.392 23.8318 797.603 25.0045 794.356 27.3501C791.168 29.6355 788.672 33.0336 786.868 37.5443C785.124 41.9948 784.252 47.4077 784.252 53.7828C784.252 60.1579 785.124 65.6309 786.868 70.2017C788.672 74.7726 791.168 78.2608 794.356 80.6665C797.603 83.0722 801.392 84.2751 805.723 84.2751C810.534 84.2751 814.594 82.7715 817.901 79.7644C821.209 76.6971 823.254 72.4871 824.036 67.1344H850.378C849.957 74.8327 847.883 81.6288 844.154 87.5228C840.425 93.3566 835.283 97.9274 828.727 101.235C822.172 104.483 814.383 106.107 805.362 106.107ZM910.912 83.5534C915.483 83.5534 919.332 82.2904 922.459 79.7644C925.587 77.2384 927.962 73.7501 929.586 69.2996C931.21 64.7889 932.022 59.6166 932.022 53.7828C932.022 47.9489 931.21 42.8368 929.586 38.4464C928.023 33.9959 925.677 30.5076 922.55 27.9816C919.422 25.4556 915.543 24.1926 910.912 24.1926C906.401 24.1926 902.552 25.4255 899.365 27.8914C896.237 30.2971 893.832 33.7252 892.148 38.1758C890.524 42.5662 889.712 47.7685 889.712 53.7828C889.712 59.7369 890.554 64.9392 892.238 69.3898C893.922 73.8403 896.327 77.3286 899.455 79.8546C902.642 82.3204 906.461 83.5534 910.912 83.5534Z"/>
</mask>
<path d="M3.17969 82.0197V81.3476H2.50754V82.0197H3.17969ZM10.9381 82.0197V82.6919H11.1416L11.3109 82.579L10.9381 82.0197ZM16.3509 75.3439L16.9569 75.6348L16.9591 75.6301L16.3509 75.3439ZM19.779 64.5182L19.1218 64.3774L19.1203 64.3846L19.779 64.5182ZM21.854 50.9861L21.186 50.911L21.1852 50.9193L21.854 50.9861ZM23.2072 36.3715L22.5372 36.3167L22.5368 36.3224L23.2072 36.3715ZM25.9136 3.26299V2.59084H25.2941L25.2437 3.20823L25.9136 3.26299ZM103.137 3.26299H103.809V2.59084H103.137V3.26299ZM103.137 82.0197H102.465V82.6919H103.137V82.0197ZM118.834 82.0197H119.506V81.3476H118.834V82.0197ZM92.1306 104.122H92.8027V103.45H92.1306V104.122ZM30.5145 104.122V103.45H29.8423V104.122H30.5145ZM506.934 3.26299H507.606V2.59084H506.934V3.26299ZM506.934 25.2752V25.9473H507.606V25.2752H506.934ZM465.075 25.2752V24.603H464.403V25.2752H465.075ZM438.101 3.26299V2.59084H437.429V3.26299H438.101ZM862.467 3.26299V2.59084H861.795V3.26299H862.467ZM889.892 3.26299H890.564V2.59084H889.892V3.26299ZM889.892 20.3134H889.22V20.9856H889.892V20.3134ZM891.155 20.3134V20.9856H891.587L891.767 20.5926L891.155 20.3134ZM905.77 4.88684L906.067 5.48999L906.074 5.48612L905.77 4.88684ZM940.141 7.77369L939.784 8.34308L939.791 8.34709L940.141 7.77369ZM955.207 82.2904L955.816 82.5757L955.816 82.5738L955.207 82.2904ZM940.502 99.7919L940.14 99.2259L940.137 99.2276L940.502 99.7919ZM896.658 96.2735L896.146 96.7082L896.151 96.7142L896.156 96.7201L896.658 96.2735ZM891.155 87.9738L891.762 87.6838L891.579 87.3017H891.155V87.9738ZM890.343 87.9738V87.3017H889.671V87.9738H890.343ZM3.85184 133.622V82.0197H2.50754V133.622H3.85184ZM3.17969 82.6919H10.9381V81.3476H3.17969V82.6919ZM11.3109 82.579C13.601 81.0523 15.4757 78.7206 16.9569 75.6348L15.745 75.053C14.3393 77.9815 12.6054 80.1003 10.5652 81.4605L11.3109 82.579ZM16.9591 75.6301C18.4302 72.5039 19.5876 68.842 20.4378 64.6519L19.1203 64.3846C18.2865 68.4942 17.1584 72.0494 15.7427 75.0577L16.9591 75.6301ZM20.4363 64.6591C21.3442 60.4219 22.0395 55.8863 22.5228 51.053L21.1852 50.9193C20.7062 55.7088 20.0181 60.1946 19.1218 64.3774L20.4363 64.6591ZM22.5219 51.0613C23.0642 46.241 23.5161 41.3608 23.8775 36.4205L22.5368 36.3224C22.1766 41.2456 21.7263 46.1085 21.186 50.911L22.5219 51.0613ZM23.8771 36.4263L26.5835 3.31776L25.2437 3.20823L22.5373 36.3167L23.8771 36.4263ZM25.9136 3.93515H103.137V2.59084H25.9136V3.93515ZM102.465 3.26299V82.0197H103.809V3.26299H102.465ZM103.137 82.6919H118.834V81.3476H103.137V82.6919ZM118.162 82.0197V133.622H119.506V82.0197H118.162ZM92.1306 103.45H30.5145V104.794H92.1306V103.45ZM506.262 3.26299V25.2752H507.606V3.26299H506.262ZM506.934 24.603H465.075V25.9473H506.934V24.603ZM464.403 25.2752V104.122H465.747V25.2752H464.403ZM438.101 3.93515H506.934V2.59084H438.101V3.93515ZM862.467 3.93515H889.892V2.59084H862.467V3.93515ZM889.22 3.26299V20.3134H890.564V3.26299H889.22ZM889.892 20.9856H891.155V19.6413H889.892V20.9856ZM891.767 20.5926C893 17.8898 894.77 15.1429 897.085 12.3527L896.051 11.4943C893.675 14.3575 891.836 17.204 890.544 20.0343L891.767 20.5926ZM897.085 12.3527C899.362 9.609 902.35 7.3188 906.067 5.48994L905.473 4.28375C901.612 6.18373 898.465 8.58465 896.051 11.4943L897.085 12.3527ZM906.074 5.48612C909.744 3.62216 914.324 2.67215 919.843 2.67215V1.32785C914.176 1.32785 909.374 2.3024 905.465 4.28757L906.074 5.48612ZM919.843 2.67215C927.117 2.67215 933.759 4.56259 939.784 8.34304L940.499 7.20433C934.255 3.28653 927.364 1.32785 919.843 1.32785V2.67215ZM939.791 8.34709C945.857 12.0577 950.739 17.6942 954.422 25.2976L955.632 24.7115C951.857 16.9184 946.815 11.0677 940.492 7.20029L939.791 8.34709ZM954.422 25.2976C958.094 32.8783 959.948 42.3934 959.948 53.873H961.292C961.292 42.2579 959.417 32.5273 955.632 24.7115L954.422 25.2976ZM959.948 53.873C959.948 64.9904 958.154 74.3602 954.598 82.0069L955.816 82.5738C959.477 74.7038 961.292 65.1286 961.292 53.873H959.948ZM954.598 82.0051C951.035 89.6067 946.212 95.3351 940.14 99.2259L940.865 100.358C947.182 96.3098 952.162 90.3706 955.816 82.5757L954.598 82.0051ZM940.137 99.2276C934.117 103.123 927.329 105.074 919.753 105.074V106.418C927.574 106.418 934.618 104.4 940.867 100.356L940.137 99.2276ZM919.753 105.074C914.412 105.074 909.916 104.183 906.239 102.433L905.661 103.646C909.563 105.504 914.268 106.418 919.753 106.418V105.074ZM906.239 102.433C902.519 100.661 899.498 98.4564 897.161 95.827L896.156 96.7201C898.63 99.5035 901.804 101.81 905.661 103.646L906.239 102.433ZM897.171 95.8389C894.856 93.1085 893.056 90.3899 891.762 87.6838L890.549 88.2638C891.901 91.0909 893.769 93.9054 896.146 96.7082L897.171 95.8389ZM891.155 87.3017H890.343V88.646H891.155V87.3017ZM889.671 87.9738V141.832H891.015V87.9738H889.671ZM29.8423 104.122V133.622H31.1867V104.122H29.8423ZM91.4584 104.122V133.622H92.8027V104.122H91.4584ZM437.429 3.26299V104.122H438.773V3.26299H437.429ZM861.795 3.26299V141.832H863.139V3.26299H861.795ZM38.8142 82.0197L37.6824 81.2943L36.3557 83.364H38.8142V82.0197ZM76.7942 82.0197V83.364H78.1385V82.0197H76.7942ZM76.7942 24.8241H78.1385V23.4798H76.7942V24.8241ZM49.6398 24.8241V23.4798H48.4157L48.3014 24.6986L49.6398 24.8241ZM48.5573 36.3715L47.2188 36.246L47.2172 36.2638L47.216 36.2816L48.5573 36.3715ZM45.3998 63.7965L46.7216 64.0417L46.7219 64.0398L45.3998 63.7965ZM148.153 99.6114L147.467 100.768L147.478 100.774L148.153 99.6114ZM131.013 81.3882L129.814 81.9968L129.82 82.0079L131.013 81.3882ZM131.013 26.8088L129.818 26.193L129.816 26.1965L131.013 26.8088ZM148.153 8.58561L148.833 9.74577L148.835 9.74407L148.153 8.58561ZM201.019 8.58561L200.333 9.7417L200.344 9.74815L201.019 8.58561ZM218.159 26.8088L216.961 27.4174L216.966 27.4284L218.159 26.8088ZM218.159 81.3882L216.964 80.7724L216.963 80.7759L218.159 81.3882ZM201.019 99.6114L201.698 100.772L201.701 100.77L201.019 99.6114ZM186.404 80.3959L187.261 81.4319L187.267 81.427L187.272 81.4221L186.404 80.3959ZM193.441 69.5702L192.174 69.1202L192.171 69.1276L192.169 69.1351L193.441 69.5702ZM193.441 38.3562L192.171 38.7965L192.173 38.804L192.176 38.8115L193.441 38.3562ZM162.949 27.711L162.102 26.667L162.092 26.675L162.949 27.711ZM155.822 38.3562L154.557 37.9009L154.554 37.9084L154.551 37.9159L155.822 38.3562ZM155.822 69.5702L154.55 70.0053L154.552 70.0128L154.555 70.0202L155.822 69.5702ZM162.949 80.3959L162.08 81.4221L162.091 81.4311L162.102 81.4398L162.949 80.3959ZM255.418 99.5212L254.725 100.673L254.732 100.677L255.418 99.5212ZM238.367 81.2078L237.169 81.8164L237.171 81.8201L238.367 81.2078ZM238.367 26.899L237.172 26.2832L237.169 26.2905L238.367 26.899ZM304.945 6.78134L304.357 7.99031L304.362 7.9924L304.945 6.78134ZM326.957 40.6115V41.9559H328.365L328.3 40.5496L326.957 40.6115ZM300.615 40.6115L299.284 40.8017L299.449 41.9559H300.615V40.6115ZM270.935 27.3501L271.718 28.4426L271.722 28.4399L270.935 27.3501ZM263.447 37.5443L262.199 37.045L262.195 37.0538L263.447 37.5443ZM263.447 70.2017L262.191 70.681L262.194 70.6881L262.196 70.6953L263.447 70.2017ZM270.935 80.6665L270.125 81.7396L270.134 81.7467L270.935 80.6665ZM294.48 79.7644L295.385 80.7591L295.394 80.7501L294.48 79.7644ZM300.615 67.1344V65.7901H299.453L299.285 66.9401L300.615 67.1344ZM326.957 67.1344L328.3 67.2078L328.377 65.7901H326.957V67.1344ZM320.733 87.5228L321.865 88.2468L321.869 88.2415L320.733 87.5228ZM305.306 101.235L305.903 102.44L305.912 102.435L305.306 101.235ZM352.939 141.832V140.487H352.928L352.916 140.487L352.939 141.832ZM342.925 141.11L342.692 142.434L342.696 142.434L342.925 141.11ZM335.347 139.035L334.061 138.645L333.711 139.801L334.822 140.272L335.347 139.035ZM341.662 118.196L341.926 116.877L340.73 116.638L340.376 117.806L341.662 118.196ZM342.564 118.376L342.945 117.087L342.887 117.07L342.828 117.058L342.564 118.376ZM354.563 119.278L354.281 117.964L354.267 117.967L354.254 117.97L354.563 119.278ZM362.231 111.339L363.487 111.819L363.49 111.811L362.231 111.339ZM363.855 107.009L365.114 107.481L365.284 107.026L365.125 106.567L363.855 107.009ZM327.769 3.26299V1.91869H325.878L326.5 3.70463L327.769 3.26299ZM357.089 3.26299L358.383 2.89889L358.107 1.91869H357.089V3.26299ZM377.928 77.3286L376.634 77.6927L376.91 78.6729H377.928V77.3286ZM379.011 77.3286V78.6729H380.025L380.304 77.6971L379.011 77.3286ZM400.121 3.26299V1.91869H399.106L398.828 2.89452L400.121 3.26299ZM429.621 3.26299L430.89 3.7074L431.516 1.91869H429.621V3.26299ZM390.468 115.038L389.199 114.594L389.197 114.6L390.468 115.038ZM382.8 129.202L381.753 128.358L381.745 128.368L382.8 129.202ZM370.711 138.494L370.165 137.265L370.153 137.271L370.711 138.494ZM573.873 99.5212L573.18 100.673L573.187 100.677L573.873 99.5212ZM556.822 81.2078L555.624 81.8164L555.626 81.8201L556.822 81.2078ZM556.822 26.899L555.627 26.2832L555.624 26.2905L556.822 26.899ZM623.4 6.78134L622.812 7.99031L622.817 7.9924L623.4 6.78134ZM645.412 40.6115V41.9559H646.82L646.755 40.5496L645.412 40.6115ZM619.07 40.6115L617.739 40.8017L617.904 41.9559H619.07V40.6115ZM589.39 27.3501L590.173 28.4426L590.177 28.4399L589.39 27.3501ZM581.902 37.5443L580.654 37.045L580.65 37.0538L581.902 37.5443ZM581.902 70.2017L580.646 70.681L580.649 70.6881L580.651 70.6953L581.902 70.2017ZM589.39 80.6665L588.58 81.7396L588.589 81.7467L589.39 80.6665ZM612.935 79.7644L613.84 80.7591L613.849 80.7501L612.935 79.7644ZM619.07 67.1344V65.7901H617.908L617.74 66.9401L619.07 67.1344ZM645.412 67.1344L646.755 67.2078L646.832 65.7901H645.412V67.1344ZM639.188 87.5228L640.32 88.2468L640.324 88.2415L639.188 87.5228ZM623.761 101.235L624.358 102.44L624.367 102.435L623.761 101.235ZM676.356 99.5212L675.663 100.673L675.67 100.677L676.356 99.5212ZM659.305 81.2078L658.107 81.8164L658.109 81.8201L659.305 81.2078ZM659.305 26.899L658.11 26.2832L658.107 26.2905L659.305 26.899ZM725.883 6.78134L725.295 7.99031L725.3 7.9924L725.883 6.78134ZM747.895 40.6115V41.9559H749.303L749.238 40.5496L747.895 40.6115ZM721.553 40.6115L720.222 40.8017L720.387 41.9559H721.553V40.6115ZM691.873 27.3501L692.656 28.4426L692.66 28.4399L691.873 27.3501ZM684.385 37.5443L683.137 37.045L683.133 37.0538L684.385 37.5443ZM684.385 70.2017L683.129 70.681L683.132 70.6881L683.134 70.6953L684.385 70.2017ZM691.873 80.6665L691.063 81.7396L691.072 81.7467L691.873 80.6665ZM715.418 79.7644L716.323 80.7591L716.333 80.7501L715.418 79.7644ZM721.553 67.1344V65.7901H720.391L720.223 66.9401L721.553 67.1344ZM747.895 67.1344L749.238 67.2078L749.315 65.7901H747.895V67.1344ZM741.671 87.5228L742.803 88.2468L742.807 88.2415L741.671 87.5228ZM726.244 101.235L726.841 102.44L726.85 102.435L726.244 101.235ZM778.839 99.5212L778.146 100.673L778.153 100.677L778.839 99.5212ZM761.788 81.2078L760.59 81.8164L760.592 81.8201L761.788 81.2078ZM761.788 26.899L760.593 26.2832L760.59 26.2905L761.788 26.899ZM828.366 6.78134L827.778 7.99031L827.783 7.9924L828.366 6.78134ZM850.378 40.6115V41.9559H851.786L851.721 40.5496L850.378 40.6115ZM824.036 40.6115L822.705 40.8017L822.87 41.9559H824.036V40.6115ZM794.356 27.3501L795.139 28.4426L795.143 28.4399L794.356 27.3501ZM786.868 37.5443L785.62 37.045L785.616 37.0538L786.868 37.5443ZM786.868 70.2017L785.612 70.681L785.615 70.6881L785.617 70.6953L786.868 70.2017ZM794.356 80.6665L793.546 81.7396L793.555 81.7467L794.356 80.6665ZM817.901 79.7644L818.806 80.7591L818.815 80.7501L817.901 79.7644ZM824.036 67.1344V65.7901H822.874L822.706 66.9401L824.036 67.1344ZM850.378 67.1344L851.721 67.2078L851.798 65.7901H850.378V67.1344ZM844.154 87.5228L845.286 88.2468L845.29 88.2415L844.154 87.5228ZM828.727 101.235L829.324 102.44L829.333 102.435L828.727 101.235ZM929.586 69.2996L930.849 69.7603L930.851 69.7549L929.586 69.2996ZM929.586 38.4464L928.318 38.892L928.322 38.9024L928.325 38.9127L929.586 38.4464ZM899.365 27.8914L900.184 28.9569L900.187 28.9547L899.365 27.8914ZM892.148 38.1758L890.89 37.7L890.887 37.7094L892.148 38.1758ZM899.455 79.8546L898.61 80.9004L898.621 80.9093L898.632 80.9179L899.455 79.8546ZM38.8142 83.364H76.7942V80.6754H38.8142V83.364ZM78.1385 82.0197V24.8241H75.4499V82.0197H78.1385ZM76.7942 23.4798H49.6398V26.1684H76.7942V23.4798ZM48.3014 24.6986L47.2188 36.246L49.8957 36.497L50.9783 24.9496L48.3014 24.6986ZM47.216 36.2816C46.4964 47.0148 45.4487 56.102 44.0777 63.5533L46.7219 64.0398C48.1174 56.4554 49.1747 47.2593 49.8986 36.4614L47.216 36.2816ZM44.078 63.5514C42.7157 70.896 40.5685 76.792 37.6824 81.2943L39.9459 82.7452C43.0741 77.8653 45.3173 71.6124 46.7216 64.0417L44.078 63.5514ZM174.586 104.763C164.616 104.763 156.047 102.64 148.828 98.4489L147.478 100.774C155.175 105.243 164.228 107.451 174.586 107.451V104.763ZM148.84 98.4554C141.661 94.1952 136.122 88.3083 132.206 80.7686L129.82 82.0079C133.963 89.985 139.85 96.2469 147.467 100.767L148.84 98.4554ZM132.211 80.7797C128.354 73.1808 126.403 64.3145 126.403 54.1436H123.714C123.714 64.6618 125.733 73.9586 129.814 81.9968L132.211 80.7797ZM126.403 54.1436C126.403 43.8494 128.355 34.9555 132.21 27.4211L129.816 26.1965C125.732 34.1789 123.714 43.5083 123.714 54.1436H126.403ZM132.208 27.4247C136.124 19.8266 141.661 13.9437 148.833 9.74577L147.474 7.42546C139.851 11.8881 133.961 18.154 129.818 26.193L132.208 27.4247ZM148.835 9.74407C156.053 5.49512 164.62 3.3443 174.586 3.3443V0.655698C164.224 0.655698 155.169 2.89529 147.471 7.42715L148.835 9.74407ZM174.586 3.3443C184.615 3.3443 193.179 5.49593 200.333 9.74165L201.705 7.42958C194.064 2.89448 185.006 0.655698 174.586 0.655698V3.3443ZM200.344 9.74815C207.573 13.9459 213.107 19.826 216.961 27.4174L219.358 26.2003C215.273 18.1545 209.38 11.8859 201.694 7.42308L200.344 9.74815ZM216.966 27.4284C220.879 34.9612 222.859 43.8523 222.859 54.1436H225.548C225.548 43.5053 223.499 34.1733 219.352 26.1892L216.966 27.4284ZM222.859 54.1436C222.859 64.3116 220.88 73.1752 216.964 80.7724L219.354 82.0041C223.498 73.9642 225.548 64.6648 225.548 54.1436H222.859ZM216.963 80.7759C213.109 88.3088 207.573 94.193 200.337 98.453L201.701 100.77C209.38 96.249 215.271 89.9845 219.356 82.0005L216.963 80.7759ZM200.34 98.4513C193.185 102.64 184.618 104.763 174.586 104.763V107.451C185.003 107.451 194.058 105.244 201.698 100.772L200.34 98.4513ZM174.767 85.6194C179.664 85.6194 183.859 84.2451 187.261 81.4319L185.547 79.3599C182.695 81.7189 179.131 82.9308 174.767 82.9308V85.6194ZM187.272 81.4221C190.616 78.5927 193.085 74.7645 194.713 70.0053L192.169 69.1351C190.67 73.5176 188.447 76.9065 185.536 79.3697L187.272 81.4221ZM194.708 70.0202C196.392 65.279 197.221 59.9202 197.221 53.9632H194.532C194.532 59.6739 193.737 64.7198 192.174 69.1202L194.708 70.0202ZM197.221 53.9632C197.221 47.9484 196.393 42.5868 194.706 37.9009L192.176 38.8115C193.737 43.147 194.532 48.1901 194.532 53.9632H197.221ZM194.711 37.9159C193.081 33.214 190.609 29.4439 187.261 26.675L185.547 28.7469C188.454 31.1503 190.673 34.477 192.171 38.7965L194.711 37.9159ZM187.261 26.675C183.859 23.8617 179.664 22.4875 174.767 22.4875V25.1761C179.131 25.1761 182.695 26.3879 185.547 28.7469L187.261 26.675ZM174.767 22.4875C169.813 22.4875 165.562 23.8592 162.102 26.667L163.795 28.7549C166.71 26.3905 170.337 25.1761 174.767 25.1761V22.4875ZM162.092 26.675C158.748 29.4404 156.247 33.205 154.557 37.9009L157.086 38.8115C158.644 34.486 160.895 31.1538 163.805 28.7469L162.092 26.675ZM154.551 37.9159C152.929 42.597 152.132 47.9532 152.132 53.9632H154.82C154.82 48.1853 155.587 43.1368 157.092 38.7965L154.551 37.9159ZM152.132 53.9632C152.132 59.9153 152.929 65.2688 154.55 70.0053L157.094 69.1351C155.587 64.7299 154.82 59.6788 154.82 53.9632H152.132ZM154.555 70.0202C156.244 74.7735 158.741 78.5962 162.08 81.4221L163.817 79.3697C160.902 76.903 158.647 73.5086 157.088 69.1202L154.555 70.0202ZM162.102 81.4398C165.562 84.2476 169.813 85.6194 174.767 85.6194V82.9308C170.337 82.9308 166.71 81.7164 163.795 79.3519L162.102 81.4398ZM281.941 104.763C271.85 104.763 263.256 102.61 256.104 98.3652L254.732 100.677C262.374 105.213 271.462 107.451 281.941 107.451V104.763ZM256.111 98.3693C248.93 94.0494 243.42 88.1328 239.564 80.5955L237.171 81.8201C241.253 89.7996 247.11 96.0919 254.725 100.673L256.111 98.3693ZM239.566 80.5993C235.707 72.9983 233.758 64.1915 233.758 54.1436H231.069C231.069 64.5443 233.089 73.7803 237.169 81.8164L239.566 80.5993ZM233.758 54.1436C233.758 43.9727 235.708 35.1065 239.566 27.5076L237.169 26.2905C233.088 34.3287 231.069 43.6255 231.069 54.1436H233.758ZM239.562 27.5149C243.479 19.9153 249.019 14.0003 256.194 9.74165L254.822 7.42958C247.202 11.9518 241.315 18.2457 237.172 26.2832L239.562 27.5149ZM256.194 9.74165C263.348 5.49593 271.912 3.3443 281.941 3.3443V0.655698C271.521 0.655698 262.463 2.89448 254.822 7.42958L256.194 9.74165ZM281.941 3.3443C290.559 3.3443 298.019 4.90819 304.357 7.9903L305.533 5.57238C298.761 2.27937 290.884 0.655698 281.941 0.655698V3.3443ZM304.362 7.9924C310.774 11.0818 315.816 15.4072 319.524 20.9689L321.761 19.4775C317.77 13.4918 312.348 8.85595 305.529 5.57028L304.362 7.9924ZM319.524 20.9689C323.221 26.5142 325.263 33.0671 325.615 40.6735L328.3 40.5496C327.93 32.5189 325.762 25.4796 321.761 19.4775L319.524 20.9689ZM326.957 39.2672H300.615V41.9559H326.957V39.2672ZM301.946 40.4214C301.442 36.8964 300.365 33.768 298.691 31.063L296.405 32.4782C297.858 34.8252 298.825 37.5907 299.284 40.8017L301.946 40.4214ZM298.691 31.063C297.004 28.3384 294.755 26.2178 291.957 24.7213L290.689 27.0921C293.063 28.3622 294.964 30.1507 296.405 32.4782L298.691 31.063ZM291.957 24.7213C289.145 23.2173 285.913 22.4875 282.302 22.4875V25.1761C285.546 25.1761 288.328 25.8295 290.689 27.0921L291.957 24.7213ZM282.302 22.4875C277.713 22.4875 273.643 23.7357 270.147 26.2603L271.722 28.4399C274.721 26.2734 278.23 25.1761 282.302 25.1761V22.4875ZM270.151 26.2576C266.711 28.7244 264.075 32.3531 262.199 37.045L264.695 38.0435C266.427 33.7141 268.783 30.5466 271.718 28.4426L270.151 26.2576ZM262.195 37.0538C260.373 41.7032 259.486 47.2926 259.486 53.7828H262.175C262.175 47.5227 263.032 42.2865 264.698 38.0348L262.195 37.0538ZM259.486 53.7828C259.486 60.2746 260.374 65.9185 262.191 70.681L264.703 69.7225C263.032 65.3432 262.175 60.0412 262.175 53.7828H259.486ZM262.196 70.6953C264.071 75.4432 266.699 79.154 270.125 81.7395L271.744 79.5935C268.795 77.3677 266.432 74.1019 264.697 69.7081L262.196 70.6953ZM270.134 81.7467C273.631 84.3365 277.705 85.6194 282.302 85.6194V82.9308C278.238 82.9308 274.734 81.8079 271.735 79.5863L270.134 81.7467ZM282.302 85.6194C287.42 85.6194 291.81 84.0092 295.385 80.7591L293.576 78.7697C290.536 81.5338 286.806 82.9308 282.302 82.9308V85.6194ZM295.394 80.7501C298.97 77.4349 301.128 72.9222 301.945 67.3287L299.285 66.9401C298.538 72.052 296.607 75.9594 293.566 78.7786L295.394 80.7501ZM300.615 68.4787H326.957V65.7901H300.615V68.4787ZM325.615 67.061C325.205 74.5548 323.19 81.124 319.597 86.8041L321.869 88.2415C325.733 82.1337 327.868 75.1106 328.3 67.2078L325.615 67.061ZM319.6 86.7988C316.009 92.4171 311.054 96.829 304.7 100.035L305.912 102.435C312.669 99.0259 317.999 94.2961 321.865 88.2468L319.6 86.7988ZM304.709 100.031C298.377 103.168 290.802 104.763 281.941 104.763V107.451C291.122 107.451 299.124 105.798 305.903 102.44L304.709 100.031ZM352.916 140.487C349.442 140.546 346.19 140.311 343.155 139.785L342.696 142.434C345.916 142.992 349.339 143.237 352.962 143.176L352.916 140.487ZM343.159 139.786C340.152 139.255 337.732 138.586 335.872 137.797L334.822 140.272C336.932 141.167 339.564 141.882 342.692 142.434L343.159 139.786ZM336.634 139.425L342.949 118.585L340.376 117.806L334.061 138.645L336.634 139.425ZM341.399 119.514L342.301 119.694L342.828 117.058L341.926 116.877L341.399 119.514ZM342.184 119.665C347.007 121.087 351.258 121.44 354.872 120.586L354.254 117.97C351.252 118.679 347.504 118.431 342.945 117.087L342.184 119.665ZM354.845 120.593C358.829 119.739 361.655 116.62 363.487 111.819L360.975 110.86C359.319 115.2 357.033 117.374 354.281 117.964L354.845 120.593ZM363.49 111.811L365.114 107.481L362.596 106.537L360.972 110.867L363.49 111.811ZM365.125 106.567L329.039 2.82136L326.5 3.70463L362.585 107.451L365.125 106.567ZM327.769 4.6073H357.089V1.91869H327.769V4.6073ZM355.795 3.6271L376.634 77.6927L379.222 76.9645L358.383 2.89889L355.795 3.6271ZM377.928 78.6729H379.011V75.9843H377.928V78.6729ZM380.304 77.6971L401.414 3.63147L398.828 2.89452L377.718 76.9601L380.304 77.6971ZM400.121 4.6073H429.621V1.91869H400.121V4.6073ZM428.352 2.81858L389.199 114.594L391.737 115.482L430.89 3.7074L428.352 2.81858ZM389.197 114.6C387.378 119.881 384.893 124.462 381.753 128.358L383.846 130.045C387.202 125.882 389.829 121.02 391.739 115.476L389.197 114.6ZM381.745 128.368C378.698 132.22 374.846 135.185 370.165 137.265L371.257 139.722C376.32 137.472 380.526 134.242 383.854 130.036L381.745 128.368ZM370.153 137.271C365.501 139.396 359.779 140.487 352.939 140.487V143.176C360.052 143.176 366.178 142.042 371.27 139.716L370.153 137.271ZM600.396 104.763C590.305 104.763 581.711 102.61 574.559 98.3652L573.187 100.677C580.829 105.213 589.917 107.451 600.396 107.451V104.763ZM574.566 98.3693C567.385 94.0494 561.875 88.1328 558.019 80.5955L555.626 81.8201C559.708 89.7996 565.565 96.0919 573.18 100.673L574.566 98.3693ZM558.021 80.5993C554.162 72.9983 552.213 64.1915 552.213 54.1436H549.524C549.524 64.5443 551.544 73.7803 555.624 81.8164L558.021 80.5993ZM552.213 54.1436C552.213 43.9727 554.163 35.1065 558.021 27.5076L555.624 26.2905C551.543 34.3287 549.524 43.6255 549.524 54.1436H552.213ZM558.017 27.5149C561.934 19.9153 567.474 14.0003 574.649 9.74165L573.277 7.42958C565.657 11.9518 559.77 18.2457 555.627 26.2832L558.017 27.5149ZM574.649 9.74165C581.803 5.49593 590.367 3.3443 600.396 3.3443V0.655698C589.976 0.655698 580.918 2.89448 573.277 7.42958L574.649 9.74165ZM600.396 3.3443C609.014 3.3443 616.474 4.90819 622.812 7.9903L623.988 5.57238C617.216 2.27937 609.339 0.655698 600.396 0.655698V3.3443ZM622.817 7.9924C629.229 11.0818 634.271 15.4072 637.979 20.9689L640.216 19.4775C636.226 13.4918 630.803 8.85595 623.984 5.57028L622.817 7.9924ZM637.979 20.9689C641.676 26.5142 643.718 33.0671 644.07 40.6735L646.755 40.5496C646.385 32.5189 644.217 25.4796 640.216 19.4775L637.979 20.9689ZM645.412 39.2672H619.07V41.9559H645.412V39.2672ZM620.401 40.4214C619.897 36.8964 618.82 33.768 617.146 31.063L614.86 32.4782C616.313 34.8252 617.281 37.5908 617.739 40.8017L620.401 40.4214ZM617.146 31.063C615.459 28.3385 613.21 26.2178 610.412 24.7213L609.144 27.0921C611.518 28.3622 613.419 30.1507 614.86 32.4782L617.146 31.063ZM610.412 24.7213C607.6 23.2173 604.368 22.4875 600.757 22.4875V25.1761C604.001 25.1761 606.783 25.8295 609.144 27.0921L610.412 24.7213ZM600.757 22.4875C596.168 22.4875 592.098 23.7357 588.603 26.2603L590.177 28.4399C593.176 26.2734 596.685 25.1761 600.757 25.1761V22.4875ZM588.606 26.2576C585.166 28.7244 582.53 32.3531 580.654 37.045L583.15 38.0435C584.882 33.714 587.238 30.5466 590.173 28.4426L588.606 26.2576ZM580.65 37.0538C578.828 41.7032 577.941 47.2926 577.941 53.7828H580.63C580.63 47.5227 581.487 42.2865 583.153 38.0348L580.65 37.0538ZM577.941 53.7828C577.941 60.2746 578.829 65.9185 580.646 70.681L583.158 69.7225C581.487 65.3432 580.63 60.0412 580.63 53.7828H577.941ZM580.651 70.6953C582.526 75.4432 585.154 79.154 588.58 81.7395L590.199 79.5935C587.25 77.3677 584.887 74.1019 583.152 69.7081L580.651 70.6953ZM588.589 81.7467C592.086 84.3365 596.16 85.6194 600.757 85.6194V82.9308C596.693 82.9308 593.189 81.8079 590.19 79.5863L588.589 81.7467ZM600.757 85.6194C605.875 85.6194 610.265 84.0092 613.84 80.7591L612.031 78.7697C608.991 81.5338 605.261 82.9308 600.757 82.9308V85.6194ZM613.849 80.7501C617.425 77.4349 619.583 72.9223 620.4 67.3287L617.74 66.9401C616.993 72.052 615.062 75.9594 612.021 78.7786L613.849 80.7501ZM619.07 68.4787H645.412V65.7901H619.07V68.4787ZM644.07 67.061C643.66 74.5548 641.645 81.124 638.052 86.8041L640.324 88.2415C644.188 82.1337 646.323 75.1106 646.755 67.2078L644.07 67.061ZM638.055 86.7988C634.464 92.4171 629.509 96.829 623.156 100.035L624.367 102.435C631.124 99.0259 636.454 94.2961 640.32 88.2468L638.055 86.7988ZM623.164 100.031C616.833 103.168 609.257 104.763 600.396 104.763V107.451C609.577 107.451 617.579 105.798 624.358 102.44L623.164 100.031ZM702.879 104.763C692.788 104.763 684.195 102.61 677.042 98.3652L675.67 100.677C683.312 105.213 692.4 107.451 702.879 107.451V104.763ZM677.049 98.3693C669.868 94.0494 664.358 88.1328 660.502 80.5955L658.109 81.8201C662.191 89.7996 668.048 96.0919 675.663 100.673L677.049 98.3693ZM660.504 80.5993C656.645 72.9983 654.696 64.1915 654.696 54.1436H652.007C652.007 64.5443 654.027 73.7803 658.107 81.8164L660.504 80.5993ZM654.696 54.1436C654.696 43.9727 656.646 35.1065 660.504 27.5076L658.107 26.2905C654.026 34.3287 652.007 43.6255 652.007 54.1436H654.696ZM660.5 27.5149C664.417 19.9153 669.957 14.0003 677.132 9.74165L675.76 7.42958C668.14 11.9518 662.253 18.2457 658.11 26.2832L660.5 27.5149ZM677.132 9.74165C684.286 5.49593 692.85 3.3443 702.879 3.3443V0.655698C692.459 0.655698 683.401 2.89448 675.76 7.42958L677.132 9.74165ZM702.879 3.3443C711.497 3.3443 718.957 4.90819 725.295 7.9903L726.471 5.57238C719.699 2.27937 711.822 0.655698 702.879 0.655698V3.3443ZM725.3 7.9924C731.712 11.0818 736.754 15.4072 740.462 20.9689L742.699 19.4775C738.709 13.4918 733.286 8.85595 726.467 5.57028L725.3 7.9924ZM740.462 20.9689C744.159 26.5142 746.202 33.0671 746.553 40.6735L749.238 40.5496C748.868 32.5189 746.7 25.4796 742.699 19.4775L740.462 20.9689ZM747.895 39.2672H721.553V41.9559H747.895V39.2672ZM722.884 40.4214C722.38 36.8964 721.303 33.768 719.629 31.063L717.343 32.4782C718.796 34.8252 719.764 37.5908 720.222 40.8017L722.884 40.4214ZM719.629 31.063C717.942 28.3385 715.693 26.2178 712.895 24.7213L711.627 27.0921C714.001 28.3622 715.902 30.1507 717.343 32.4782L719.629 31.063ZM712.895 24.7213C710.083 23.2173 706.851 22.4875 703.24 22.4875V25.1761C706.484 25.1761 709.266 25.8295 711.627 27.0921L712.895 24.7213ZM703.24 22.4875C698.651 22.4875 694.581 23.7357 691.086 26.2603L692.66 28.4399C695.659 26.2734 699.168 25.1761 703.24 25.1761V22.4875ZM691.089 26.2576C687.649 28.7244 685.013 32.3531 683.137 37.045L685.633 38.0435C687.365 33.714 689.721 30.5466 692.656 28.4426L691.089 26.2576ZM683.133 37.0538C681.311 41.7032 680.424 47.2926 680.424 53.7828H683.113C683.113 47.5227 683.97 42.2865 685.637 38.0348L683.133 37.0538ZM680.424 53.7828C680.424 60.2746 681.312 65.9185 683.129 70.681L685.641 69.7225C683.97 65.3432 683.113 60.0412 683.113 53.7828H680.424ZM683.134 70.6953C685.009 75.4432 687.637 79.154 691.063 81.7395L692.682 79.5935C689.733 77.3677 687.37 74.1019 685.635 69.7081L683.134 70.6953ZM691.072 81.7467C694.569 84.3365 698.643 85.6194 703.24 85.6194V82.9308C699.176 82.9308 695.672 81.8079 692.673 79.5863L691.072 81.7467ZM703.24 85.6194C708.358 85.6194 712.748 84.0092 716.323 80.7591L714.514 78.7697C711.474 81.5338 707.744 82.9308 703.24 82.9308V85.6194ZM716.333 80.7501C719.908 77.4349 722.066 72.9223 722.883 67.3287L720.223 66.9401C719.476 72.052 717.545 75.9594 714.504 78.7786L716.333 80.7501ZM721.553 68.4787H747.895V65.7901H721.553V68.4787ZM746.553 67.061C746.143 74.5548 744.128 81.124 740.535 86.8041L742.807 88.2415C746.671 82.1337 748.806 75.1106 749.238 67.2078L746.553 67.061ZM740.538 86.7988C736.947 92.4171 731.992 96.829 725.639 100.035L726.85 102.435C733.607 99.0259 738.937 94.2961 742.803 88.2468L740.538 86.7988ZM725.647 100.031C719.316 103.168 711.74 104.763 702.879 104.763V107.451C712.06 107.451 720.062 105.798 726.841 102.44L725.647 100.031ZM805.362 104.763C795.271 104.763 786.677 102.61 779.525 98.3652L778.153 100.677C785.795 105.213 794.883 107.451 805.362 107.451V104.763ZM779.532 98.3693C772.351 94.0494 766.841 88.1328 762.985 80.5955L760.592 81.8201C764.674 89.7996 770.531 96.0919 778.146 100.673L779.532 98.3693ZM762.987 80.5993C759.128 72.9983 757.179 64.1915 757.179 54.1436H754.49C754.49 64.5443 756.51 73.7803 760.59 81.8164L762.987 80.5993ZM757.179 54.1436C757.179 43.9727 759.129 35.1065 762.987 27.5076L760.59 26.2905C756.509 34.3287 754.49 43.6255 754.49 54.1436H757.179ZM762.983 27.5149C766.9 19.9153 772.44 14.0003 779.615 9.74165L778.243 7.42958C770.623 11.9518 764.736 18.2457 760.593 26.2832L762.983 27.5149ZM779.615 9.74165C786.769 5.49593 795.333 3.3443 805.362 3.3443V0.655698C794.942 0.655698 785.884 2.89448 778.243 7.42958L779.615 9.74165ZM805.362 3.3443C813.98 3.3443 821.44 4.90819 827.778 7.9903L828.954 5.57238C822.182 2.27937 814.305 0.655698 805.362 0.655698V3.3443ZM827.783 7.9924C834.195 11.0818 839.237 15.4072 842.945 20.9689L845.182 19.4775C841.192 13.4918 835.769 8.85595 828.95 5.57028L827.783 7.9924ZM842.945 20.9689C846.642 26.5142 848.684 33.0671 849.036 40.6735L851.721 40.5496C851.351 32.5189 849.183 25.4796 845.182 19.4775L842.945 20.9689ZM850.378 39.2672H824.036V41.9559H850.378V39.2672ZM825.367 40.4214C824.863 36.8964 823.786 33.768 822.112 31.063L819.826 32.4782C821.279 34.8252 822.247 37.5908 822.705 40.8017L825.367 40.4214ZM822.112 31.063C820.425 28.3385 818.176 26.2178 815.378 24.7213L814.11 27.0921C816.484 28.3622 818.385 30.1507 819.826 32.4782L822.112 31.063ZM815.378 24.7213C812.566 23.2173 809.334 22.4875 805.723 22.4875V25.1761C808.967 25.1761 811.749 25.8295 814.11 27.0921L815.378 24.7213ZM805.723 22.4875C801.134 22.4875 797.064 23.7357 793.569 26.2603L795.143 28.4399C798.142 26.2734 801.651 25.1761 805.723 25.1761V22.4875ZM793.572 26.2576C790.132 28.7244 787.496 32.3531 785.62 37.045L788.116 38.0435C789.848 33.714 792.204 30.5466 795.139 28.4426L793.572 26.2576ZM785.616 37.0538C783.794 41.7032 782.907 47.2926 782.907 53.7828H785.596C785.596 47.5227 786.453 42.2865 788.119 38.0348L785.616 37.0538ZM782.907 53.7828C782.907 60.2746 783.795 65.9185 785.612 70.681L788.124 69.7225C786.453 65.3432 785.596 60.0412 785.596 53.7828H782.907ZM785.617 70.6953C787.492 75.4432 790.12 79.154 793.546 81.7395L795.165 79.5935C792.216 77.3677 789.853 74.1019 788.118 69.7081L785.617 70.6953ZM793.555 81.7467C797.052 84.3365 801.126 85.6194 805.723 85.6194V82.9308C801.659 82.9308 798.155 81.8079 795.156 79.5863L793.555 81.7467ZM805.723 85.6194C810.841 85.6194 815.231 84.0092 818.806 80.7591L816.997 78.7697C813.957 81.5338 810.227 82.9308 805.723 82.9308V85.6194ZM818.815 80.7501C822.391 77.4349 824.549 72.9223 825.366 67.3287L822.706 66.9401C821.959 72.052 820.028 75.9594 816.987 78.7786L818.815 80.7501ZM824.036 68.4787H850.378V65.7901H824.036V68.4787ZM849.036 67.061C848.626 74.5548 846.611 81.124 843.018 86.8041L845.29 88.2415C849.154 82.1337 851.289 75.1106 851.721 67.2078L849.036 67.061ZM843.021 86.7988C839.43 92.4171 834.475 96.829 828.122 100.035L829.333 102.435C836.09 99.0259 841.42 94.2961 845.286 88.2468L843.021 86.7988ZM828.13 100.031C821.799 103.168 814.223 104.763 805.362 104.763V107.451C814.543 107.451 822.545 105.798 829.324 102.44L828.13 100.031ZM910.912 84.8977C915.746 84.8977 919.905 83.5555 923.304 80.8102L921.615 78.7186C918.759 81.0252 915.22 82.2091 910.912 82.2091V84.8977ZM923.304 80.8102C926.653 78.1053 929.157 74.3989 930.849 69.7603L928.323 68.8388C926.768 73.1013 924.521 76.3715 921.615 78.7186L923.304 80.8102ZM930.851 69.7549C932.538 65.0704 933.366 59.7393 933.366 53.7828H930.678C930.678 59.494 929.883 64.5074 928.321 68.8442L930.851 69.7549ZM933.366 53.7828C933.366 47.8275 932.538 42.5514 930.847 37.9801L928.325 38.9127C929.882 43.1222 930.678 48.0704 930.678 53.7828H933.366ZM930.855 38.0008C929.223 33.3562 926.747 29.6441 923.394 26.9358L921.705 29.0274C924.607 31.3711 926.822 34.6356 928.318 38.892L930.855 38.0008ZM923.394 26.9358C919.992 24.1879 915.801 22.8483 910.912 22.8483V25.5369C915.285 25.5369 918.852 26.7233 921.705 29.0274L923.394 26.9358ZM910.912 22.8483C906.141 22.8483 901.993 24.1584 898.542 26.8281L900.187 28.9547C903.111 26.6927 906.662 25.5369 910.912 25.5369V22.8483ZM898.545 26.8259C895.182 29.4124 892.644 33.0644 890.89 37.7L893.405 38.6515C895.019 34.386 897.292 31.1817 900.184 28.9569L898.545 26.8259ZM890.887 37.7094C889.194 42.2848 888.367 47.6525 888.367 53.7828H891.056C891.056 47.8845 891.853 42.8475 893.408 38.6421L890.887 37.7094ZM888.367 53.7828C888.367 59.8602 889.226 65.2301 890.98 69.8655L893.495 68.914C891.881 64.6483 891.056 59.6136 891.056 53.7828H888.367ZM890.98 69.8655C892.733 74.4981 895.265 78.1989 898.61 80.9004L900.3 78.8088C897.389 76.4583 895.11 73.1826 893.495 68.914L890.98 69.8655ZM898.632 80.9179C902.08 83.5851 906.197 84.8977 910.912 84.8977V82.2091C906.726 82.2091 903.205 81.0558 900.277 78.7913L898.632 80.9179Z" fill="black" mask="url(#path-9-outside-1_954_22077)"/>
</svg>
