<svg width="312" height="203" viewBox="0 0 312 203" fill="none" xmlns="http://www.w3.org/2000/svg">
<path d="M9.79554 25.1083C21.3844 11.4445 37.7684 1 56.5203 1C64.4202 1 68.6953 1.60202 73.8874 7.77116C76.9444 11.4035 78 12.5 81.5072 20.4206C89.637 38.7806 75.5 50.5 64 61.5M53.5 89C40.4988 117 -8.55408 107.5 2.5238 146.245C7.98929 165.361 31.5308 169.088 49.1325 169.088C52.8586 169.088 56.5848 169.088 60.3109 169.088C64.5193 169.088 68.5086 167.08 72.3789 165.591C79.5861 162.227 95.2005 150.8 100 132C104.8 113.2 100.5 100.833 98.5 97.5M99.5 61C104 44.5 116.791 28.6682 129.779 20.0485C138.053 14.5573 148.185 15.0632 157.783 15.0632C160.376 15.0632 162.543 15.2917 164.444 15.7861C173.537 18.1511 178.655 28.3544 178.974 37.7452C179.506 53.4269 168 64 168 64M166 89C163 98.5 159.396 106.587 150.557 117.129C141.623 127.785 127.729 141.26 123.891 154.52C121.077 164.245 117.826 184.555 126.577 194.714C136.598 202.798 149.581 202.652 161.93 202.043C172.966 201.499 182.605 194.401 191.597 189.059C196.628 186.07 200.748 183.407 204.864 179.2C211.136 172.79 212.5 156.02 215.493 147.845C222.126 129.724 235.817 106.901 238 88M236 63.5C232.5 42 240.368 26.6473 252.934 20.4206C263.668 15.1022 275.64 21.536 284.11 27.4894C299.351 38.2019 306.697 49.5806 309.112 68.1395C310.248 76.873 310.659 95.7048 306.9 106.758C303.604 116.447 303.692 119.995 295.864 131.458C289.704 142.102 271.275 159.56 276.452 175.636C280.587 188.477 293.289 186.097 303.14 180.622C306.995 178.48 311.263 174.328 311.263 169.758" stroke="#131313" stroke-width="0.358542" stroke-linecap="round"/>
<ellipse cx="9.82602" cy="25.2899" rx="0.898285" ry="1.0917" fill="#131313"/>
<ellipse cx="36.929" cy="168.576" rx="1.02661" ry="1.0917" fill="#131313"/>
<ellipse cx="124.419" cy="23.7892" rx="1.02661" ry="0.955236" fill="#131313"/>
<ellipse cx="172.95" cy="199.665" rx="1.02661" ry="1.0917" fill="#131313"/>
<ellipse cx="258.507" cy="18.4677" rx="1.02661" ry="1.0917" fill="#131313"/>
<ellipse cx="306.9" cy="106.894" rx="1.02661" ry="1.0917" fill="#131313"/>
<ellipse cx="307.927" cy="177.309" rx="1.02661" ry="1.0917" fill="#131313"/>
</svg>
