<svg width="419" height="196" viewBox="0 0 419 196" fill="none" xmlns="http://www.w3.org/2000/svg">
<path d="M12.8636 81.0633C2.0441 94.1987 -2.01213 112.595 3.36401 129.063C10.7958 151.829 38.4288 156.563 62.3633 156.563C67.43 156.563 91.4126 154.601 99.8633 149.563C109.777 141.925 127.363 124.562 129.863 97.5625M137.363 62.0635C149.863 36.0635 161.363 22.0625 184.752 10.951C208.141 -0.160446 217.042 1.03779 230.093 1.03779C240.006 2.98794 246.685 7.08958 253.661 14.8513C253.872 15.0853 254.078 15.3173 254.281 15.5473C262.951 25.3907 264.139 40.7883 254.863 50.0635V50.0635M234.863 87.0635C223.325 107.053 214.492 125.522 203.604 138.848C199.777 150.429 199.018 167.378 210.917 179.476C224.542 189.103 226.518 190.852 244.232 194.427C262.921 195.402 264.924 197.275 286.863 193.342C304.09 190.254 321.351 181.203 326.948 176.193C335.476 168.56 346.994 154.564 349.863 141.563C353.994 122.847 346.945 110.39 337.363 90.5635M327.363 62.0635C320.205 41.3436 325.593 30.5632 329.363 21.5632C333.134 12.5632 341.863 8.06335 353.863 4.06335C368.957 -0.967793 413.569 4.23682 418.12 26.176" stroke="#131313" stroke-width="0.487537" stroke-linecap="round"/>
<ellipse cx="230.483" cy="191.435" rx="1.48256" ry="1.27717" fill="#131313"/>
<ellipse cx="345.483" cy="153.998" rx="1.48256" ry="1.27717" fill="#131313"/>
<circle cx="209.56" cy="2.46261" r="1.46261" fill="#131313"/>
</svg>
