<svg width="532" height="306" viewBox="0 0 532 306" fill="none" xmlns="http://www.w3.org/2000/svg">
<ellipse cx="35.6218" cy="4" rx="4.29495" ry="4" fill="#131313"/>
<path d="M521.023 227.682C520.325 228.629 519.397 229.103 518.24 229.103C517.083 229.103 516.155 228.631 515.457 227.689C514.764 226.742 514.417 225.438 514.417 223.778C514.417 222.098 514.764 220.782 515.457 219.83C516.155 218.873 517.083 218.395 518.24 218.395C519.397 218.395 520.325 218.873 521.023 219.83C521.727 220.782 522.078 222.098 522.078 223.778C522.078 225.433 521.727 226.734 521.023 227.682ZM515.779 223.778C515.779 225.121 516.001 226.156 516.446 226.883C516.89 227.606 517.488 227.967 518.24 227.967C518.992 227.967 519.59 227.606 520.035 226.883C520.479 226.156 520.701 225.121 520.701 223.778C520.701 222.406 520.479 221.356 520.035 220.628C519.595 219.901 518.997 219.537 518.24 219.537C517.483 219.537 516.883 219.901 516.438 220.628C515.999 221.356 515.779 222.406 515.779 223.778ZM522.876 225.221L527.557 218.497H529.131V225.221H530.706L530.508 226.297H529.131V229H527.806V226.297H522.876V225.221ZM524.18 225.221H527.806V219.94L524.18 225.221Z" fill="#131313"/>
<path d="M35.3268 6.5C20.6601 60.1667 -10.3872 180 5.32702 227.5C27.327 294 119.827 306.5 209.827 304.5C281.827 302.9 446 267.667 511 233" stroke="#131313"/>
</svg>
