<svg width="581" height="118" viewBox="0 0 581 118" fill="none" xmlns="http://www.w3.org/2000/svg">
<mask id="path-1-outside-1_783_16045" maskUnits="userSpaceOnUse" x="0" y="0" width="579" height="118" fill="black">
<rect fill="white" width="579" height="118"/>
<path d="M159.454 116C148.127 116 138.347 113.695 130.114 109.085C121.882 104.475 115.56 97.922 111.147 89.4263C106.801 80.8648 104.627 70.7556 104.627 59.0988C104.627 47.7712 106.801 37.8267 111.147 29.2652C115.56 20.7036 121.75 14.0191 129.719 9.21144C137.754 4.40381 147.172 2 157.972 2C165.282 2 172.099 3.18544 178.421 5.55633C184.744 7.86135 190.276 11.3518 195.017 16.0277C199.759 20.6378 203.447 26.4662 206.081 33.513C208.716 40.4939 210.033 48.6932 210.033 58.1109V66.409H116.778V47.5407H195.215L180.99 52.4801C180.99 46.8822 180.133 42.0087 178.421 37.8596C176.709 33.7106 174.14 30.5165 170.716 28.2773C167.357 25.9723 163.175 24.8198 158.17 24.8198C153.165 24.8198 148.917 25.9723 145.426 28.2773C142.002 30.5823 139.367 33.7106 137.523 37.662C135.679 41.6135 134.757 46.1577 134.757 51.2946V64.6309C134.757 70.6239 135.811 75.7608 137.919 80.0416C140.026 84.2565 142.957 87.5165 146.711 89.8215C150.53 92.0607 154.91 93.1802 159.849 93.1802C163.274 93.1802 166.369 92.6863 169.135 91.6984C171.901 90.7106 174.272 89.2617 176.248 87.3518C178.289 85.4419 179.804 83.1369 180.792 80.4367L209.045 82.3137C207.662 89.0971 204.764 95.0243 200.352 100.095C196.005 105.101 190.374 109.019 183.459 111.851C176.544 114.617 168.542 116 159.454 116ZM272.861 116C261.6 116 251.919 113.596 243.818 108.789C235.718 103.915 229.494 97.2305 225.147 88.7348C220.801 80.1733 218.627 70.2946 218.627 59.0988C218.627 47.7712 220.801 37.8267 225.147 29.2652C229.56 20.7036 235.816 14.0191 243.917 9.21144C252.017 4.40381 261.666 2 272.861 2C282.477 2 290.873 3.74523 298.052 7.2357C305.296 10.7262 311.026 15.6326 315.241 21.9549C319.456 28.2773 321.761 35.7192 322.156 44.2808H293.31C292.783 40.5927 291.664 37.3657 289.951 34.5997C288.239 31.8336 285.967 29.6932 283.135 28.1785C280.303 26.6638 277.01 25.9064 273.257 25.9064C268.515 25.9064 264.366 27.1906 260.809 29.7591C257.319 32.2617 254.586 35.9827 252.61 40.922C250.7 45.7955 249.745 51.7227 249.745 58.7036C249.745 65.6846 250.7 71.6776 252.61 76.6828C254.586 81.688 257.319 85.5078 260.809 88.1421C264.366 90.7764 268.515 92.0936 273.257 92.0936C278.525 92.0936 282.971 90.4471 286.593 87.1543C290.215 83.7955 292.454 79.1854 293.31 73.3241H322.156C321.695 81.7539 319.423 89.1958 315.34 95.6499C311.257 102.038 305.626 107.043 298.447 110.666C291.269 114.222 282.74 116 272.861 116ZM455.815 37.4645H488.908C503.529 37.3986 514.889 40.8562 522.99 47.8371C531.156 54.818 535.272 64.1369 535.338 75.7938C535.338 83.3674 533.494 90.0191 529.806 95.7487C526.118 101.412 520.816 105.858 513.901 109.085C506.986 112.246 498.655 113.827 488.908 113.827H436.749V3.38302H465.891V89.7227H488.908C493.979 89.7227 498.161 88.4385 501.454 85.87C504.747 83.3016 506.426 80.0087 506.492 75.9913C506.426 71.7106 504.747 68.2201 501.454 65.5199C498.161 62.8198 493.979 61.5026 488.908 61.5685H455.815V37.4645Z"/>
</mask>
<path d="M1 27.487H0V28.487H1V27.487ZM1 3.38302V2.38302H0V3.38302H1ZM100.873 3.38302H101.873V2.38302H100.873V3.38302ZM100.873 27.487V28.487H101.873V27.487H100.873ZM65.409 27.487V26.487H64.409V27.487H65.409ZM36.2669 27.487H37.2669V26.487H36.2669V27.487ZM324.626 27.487H323.626V28.487H324.626V27.487ZM324.626 3.38302V2.38302H323.626V3.38302H324.626ZM424.499 3.38302H425.499V2.38302H424.499V3.38302ZM424.499 27.487V28.487H425.499V27.487H424.499ZM389.035 27.487V26.487H388.035V27.487H389.035ZM359.893 27.487H360.893V26.487H359.893V27.487ZM547.192 3.38302V2.38302H546.192V3.38302H547.192ZM577.718 3.38302H578.718V2.38302H577.718V3.38302ZM2 27.487V3.38302H0V27.487H2ZM1 4.38302H100.873V2.38302H1V4.38302ZM99.8735 3.38302V27.487H101.873V3.38302H99.8735ZM100.873 26.487H65.409V28.487H100.873V26.487ZM64.409 27.487V113.827H66.409V27.487H64.409ZM36.2669 26.487H1V28.487H36.2669V26.487ZM325.626 27.487V3.38302H323.626V27.487H325.626ZM324.626 4.38302H424.499V2.38302H324.626V4.38302ZM423.499 3.38302V27.487H425.499V3.38302H423.499ZM424.499 26.487H389.035V28.487H424.499V26.487ZM388.035 27.487V113.827H390.035V27.487H388.035ZM359.893 26.487H324.626V28.487H359.893V26.487ZM547.192 4.38302H577.718V2.38302H547.192V4.38302ZM576.718 3.38302V113.827H578.718V3.38302H576.718ZM35.2669 27.487V113.827H37.2669V27.487H35.2669ZM358.893 27.487V113.827H360.893V27.487H358.893ZM546.192 3.38302V113.827H548.192V3.38302H546.192ZM111.147 89.4263L109.364 90.3317L109.368 90.34L109.372 90.3482L111.147 89.4263ZM111.147 29.2652L109.37 28.3489L109.364 28.3598L111.147 29.2652ZM129.719 9.21144L128.692 7.4952L128.686 7.49896L129.719 9.21144ZM178.421 5.55633L177.719 7.42898L177.727 7.4322L177.736 7.43534L178.421 5.55633ZM195.017 16.0277L193.613 17.4518L193.618 17.4568L193.623 17.4617L195.017 16.0277ZM206.081 33.513L204.208 34.2133L204.21 34.2191L206.081 33.513ZM210.033 66.409V68.409H212.033V66.409H210.033ZM116.778 66.409H114.778V68.409H116.778V66.409ZM116.778 47.5407V45.5407H114.778V47.5407H116.778ZM195.215 47.5407L195.871 49.4301L195.215 45.5407V47.5407ZM180.99 52.4801H178.99V55.2916L181.646 54.3694L180.99 52.4801ZM170.716 28.2773L169.584 29.9263L169.603 29.939L169.621 29.9512L170.716 28.2773ZM145.426 28.2773L144.324 26.6084L144.317 26.6132L144.31 26.6181L145.426 28.2773ZM137.919 80.0416L136.124 80.925L136.13 80.936L137.919 80.0416ZM146.711 89.8215L145.664 91.5258L145.681 91.5365L145.699 91.5469L146.711 89.8215ZM176.248 87.3518L174.882 85.8913L174.87 85.9025L174.858 85.9138L176.248 87.3518ZM180.792 80.4367L180.925 78.4411L179.429 78.3418L178.914 79.7496L180.792 80.4367ZM209.045 82.3137L211.005 82.7132L211.462 80.4699L209.178 80.3181L209.045 82.3137ZM200.352 100.095L198.843 98.7825L198.842 98.7839L200.352 100.095ZM183.459 111.851L184.202 113.708L184.21 113.705L184.217 113.702L183.459 111.851ZM243.818 108.789L242.787 110.502L242.797 110.508L243.818 108.789ZM225.147 88.7348L223.364 89.6402L223.367 89.6458L225.147 88.7348ZM225.147 29.2652L223.37 28.3489L223.364 28.3598L225.147 29.2652ZM298.052 7.2357L297.177 9.03436L297.184 9.03747L298.052 7.2357ZM322.156 44.2808V46.2808H324.25L324.154 44.1886L322.156 44.2808ZM293.31 44.2808L291.33 44.5636L291.576 46.2808H293.31V44.2808ZM260.809 29.7591L261.975 31.3845L261.98 31.3805L260.809 29.7591ZM252.61 40.922L250.753 40.1792L250.748 40.1923L252.61 40.922ZM252.61 76.6828L250.741 77.3959L250.746 77.4065L250.75 77.4172L252.61 76.6828ZM260.809 88.1421L259.605 89.7385L259.612 89.7439L259.619 89.7492L260.809 88.1421ZM286.593 87.1543L287.938 88.6341L287.945 88.6275L287.953 88.6208L286.593 87.1543ZM293.31 73.3241V71.3241H291.581L291.331 73.035L293.31 73.3241ZM322.156 73.3241L324.153 73.4333L324.268 71.3241H322.156V73.3241ZM315.34 95.6499L317.025 96.727L317.03 96.7192L315.34 95.6499ZM298.447 110.666L299.335 112.458L299.342 112.454L299.348 112.451L298.447 110.666ZM455.815 37.4645V35.4645H453.815V37.4645H455.815ZM488.908 37.4645L488.908 39.4645L488.917 39.4645L488.908 37.4645ZM522.99 47.8371L521.684 49.3521L521.69 49.3573L522.99 47.8371ZM535.338 75.7938L537.338 75.7938L537.338 75.7825L535.338 75.7938ZM529.806 95.7487L531.482 96.8401L531.488 96.8312L529.806 95.7487ZM513.901 109.085L514.733 110.904L514.74 110.901L514.747 110.897L513.901 109.085ZM436.749 113.827H434.749V115.827H436.749V113.827ZM436.749 3.38302V1.38302H434.749V3.38302H436.749ZM465.891 3.38302H467.891V1.38302H465.891V3.38302ZM465.891 89.7227H463.891V91.7227H465.891V89.7227ZM506.492 75.9913L508.492 76.0241L508.492 75.9923L508.492 75.9606L506.492 75.9913ZM488.908 61.5685V63.5685H488.921L488.934 63.5683L488.908 61.5685ZM455.815 61.5685H453.815V63.5685H455.815V61.5685ZM159.454 114C148.4 114 138.971 111.752 131.092 107.34L129.137 110.83C137.723 115.638 147.853 118 159.454 118V114ZM131.092 107.34C123.205 102.923 117.158 96.6592 112.922 88.5045L109.372 90.3482C113.962 99.1848 120.559 106.026 129.137 110.83L131.092 107.34ZM112.931 88.521C108.754 80.2938 106.627 70.5075 106.627 59.0988H102.627C102.627 71.0038 104.848 81.4358 109.364 90.3317L112.931 88.521ZM106.627 59.0988C106.627 48.0295 108.75 38.4053 112.931 30.1706L109.364 28.3598C104.851 37.2481 102.627 47.5129 102.627 59.0988H106.627ZM112.925 30.1814C117.174 21.937 123.112 15.5333 130.752 10.9239L128.686 7.49896C120.389 12.5048 113.945 19.4702 109.37 28.3489L112.925 30.1814ZM130.746 10.9277C138.425 6.33272 147.477 4 157.972 4V0C146.866 0 137.082 2.4749 128.692 7.49521L130.746 10.9277ZM157.972 4C165.063 4 171.639 5.14902 177.719 7.42898L179.123 3.68367C172.559 1.22187 165.502 0 157.972 0V4ZM177.736 7.43534C183.792 9.64314 189.078 12.9796 193.613 17.4518L196.422 14.6037C191.473 9.72409 185.695 6.07956 179.106 3.67731L177.736 7.43534ZM193.623 17.4617C198.126 21.839 201.663 27.4053 204.208 34.2133L207.955 32.8127C205.231 25.5271 201.393 19.4366 196.411 14.5937L193.623 17.4617ZM204.21 34.2191C206.74 40.9239 208.033 48.8738 208.033 58.1109H212.033C212.033 48.5126 210.691 40.064 207.953 32.8069L204.21 34.2191ZM208.033 58.1109V66.409H212.033V58.1109H208.033ZM210.033 64.409H116.778V68.409H210.033V64.409ZM118.778 66.409V47.5407H114.778V66.409H118.778ZM116.778 49.5407H195.215V45.5407H116.778V49.5407ZM194.559 45.6514L180.334 50.5907L181.646 54.3694L195.871 49.4301L194.559 45.6514ZM182.99 52.4801C182.99 46.6829 182.103 41.5394 180.27 37.0966L176.572 38.6226C178.163 42.4779 178.99 47.0814 178.99 52.4801H182.99ZM180.27 37.0966C178.419 32.6126 175.605 29.0846 171.81 26.6034L169.621 29.9512C172.676 31.9484 174.998 34.8085 176.572 38.6226L180.27 37.0966ZM171.847 26.6283C168.086 24.047 163.486 22.8198 158.17 22.8198V26.8198C162.864 26.8198 166.628 27.8976 169.584 29.9263L171.847 26.6283ZM158.17 22.8198C152.851 22.8198 148.201 24.048 144.324 26.6084L146.528 29.9462C149.632 27.8965 153.478 26.8198 158.17 26.8198V22.8198ZM144.31 26.6181C140.566 29.1376 137.7 32.5548 135.711 36.8163L139.336 38.5078C141.035 34.8663 143.437 32.027 146.543 29.9365L144.31 26.6181ZM135.711 36.8163C133.723 41.0756 132.757 45.917 132.757 51.2946H136.757C136.757 46.3984 137.635 42.1514 139.336 38.5078L135.711 36.8163ZM132.757 51.2946V64.6309H136.757V51.2946H132.757ZM132.757 64.6309C132.757 70.8538 133.851 76.3082 136.124 80.925L139.713 79.1582C137.771 75.2135 136.757 70.394 136.757 64.6309H132.757ZM136.13 80.936C138.392 85.4606 141.57 89.0117 145.664 91.5258L147.757 88.1172C144.344 86.0212 141.66 83.0524 139.707 79.1472L136.13 80.936ZM145.699 91.5469C149.86 93.986 154.596 95.1802 159.849 95.1802V91.1802C155.223 91.1802 151.201 90.1353 147.722 88.0961L145.699 91.5469ZM159.849 95.1802C163.466 95.1802 166.793 94.6585 169.808 93.5819L168.463 89.815C165.945 90.7141 163.082 91.1802 159.849 91.1802V95.1802ZM169.808 93.5819C172.823 92.505 175.444 90.9109 177.638 88.7898L174.858 85.9138C173.101 87.6125 170.979 88.9161 168.463 89.815L169.808 93.5819ZM177.614 88.8124C179.891 86.6822 181.578 84.1098 182.67 81.1239L178.914 79.7496C178.03 82.1641 176.688 84.2017 174.882 85.8913L177.614 88.8124ZM180.659 82.4323L208.913 84.3093L209.178 80.3181L180.925 78.4411L180.659 82.4323ZM207.085 81.9141C205.769 88.3698 203.022 93.9798 198.843 98.7825L201.861 101.408C206.507 96.0687 209.555 89.8243 211.005 82.7132L207.085 81.9141ZM198.842 98.7839C194.725 103.524 189.364 107.272 182.701 110L184.217 113.702C191.385 110.767 197.285 106.677 201.862 101.407L198.842 98.7839ZM182.716 109.994C176.083 112.647 168.342 114 159.454 114V118C168.742 118 177.005 116.587 184.202 113.708L182.716 109.994ZM272.861 114C261.888 114 252.575 111.66 244.839 107.069L242.797 110.508C251.262 115.532 261.311 118 272.861 118V114ZM244.849 107.075C237.072 102.396 231.106 95.9906 226.928 87.8239L223.367 89.6458C227.882 98.4704 234.363 105.434 242.787 110.502L244.849 107.075ZM226.931 87.8295C222.748 79.5916 220.627 70.0322 220.627 59.0988H216.627C216.627 70.5571 218.853 80.755 223.364 89.6402L226.931 87.8295ZM220.627 59.0988C220.627 48.0295 222.75 38.4053 226.931 30.1706L223.364 28.3598C218.851 37.2481 216.627 47.5129 216.627 59.0988H220.627ZM226.925 30.1814C231.17 21.9456 237.167 15.5429 244.938 10.9313L242.896 7.49154C234.465 12.4952 227.95 19.4617 223.37 28.3489L226.925 30.1814ZM244.938 10.9313C252.675 6.33898 261.957 4 272.861 4V0C261.374 0 251.359 2.46865 242.896 7.49154L244.938 10.9313ZM272.861 4C282.235 4 290.322 5.70076 297.177 9.03435L298.927 5.43706C291.425 1.78971 282.718 0 272.861 0V4ZM297.184 9.03747C304.125 12.382 309.572 17.0574 313.577 23.0643L316.905 20.8455C312.48 14.2078 306.467 9.07037 298.92 5.43394L297.184 9.03747ZM313.577 23.0643C317.565 29.047 319.778 36.127 320.158 44.373L324.154 44.1886C323.744 35.3115 321.346 27.5076 316.905 20.8455L313.577 23.0643ZM322.156 42.2808H293.31V46.2808H322.156V42.2808ZM295.29 43.9979C294.73 40.0762 293.529 36.5793 291.652 33.5469L288.251 35.6524C289.798 38.1521 290.837 41.1092 291.33 44.5636L295.29 43.9979ZM291.652 33.5469C289.757 30.4855 287.225 28.0981 284.078 26.4149L282.192 29.9421C284.709 31.2884 286.722 33.1818 288.251 35.6524L291.652 33.5469ZM284.078 26.4149C280.911 24.7207 277.284 23.9064 273.257 23.9064V27.9064C276.737 27.9064 279.696 28.6069 282.192 29.9421L284.078 26.4149ZM273.257 23.9064C268.13 23.9064 263.564 25.3029 259.638 28.1377L261.98 31.3805C265.168 29.0784 268.899 27.9064 273.257 27.9064V23.9064ZM259.644 28.1337C255.777 30.9062 252.837 34.9703 250.753 40.1792L254.467 41.6648C256.335 36.995 258.861 33.6172 261.975 31.3845L259.644 28.1337ZM250.748 40.1923C248.722 45.3616 247.745 51.5515 247.745 58.7036H251.745C251.745 51.8939 252.678 46.2294 254.472 41.6518L250.748 40.1923ZM247.745 58.7036C247.745 65.8582 248.723 72.1056 250.741 77.3959L254.479 75.9698C252.678 71.2497 251.745 65.511 251.745 58.7036H247.745ZM250.75 77.4172C252.829 82.6858 255.76 86.8366 259.605 89.7385L262.014 86.5457C258.878 84.179 256.342 80.6903 254.47 75.9485L250.75 77.4172ZM259.619 89.7492C263.545 92.6574 268.119 94.0936 273.257 94.0936V90.0936C268.911 90.0936 265.186 88.8955 262 86.535L259.619 89.7492ZM273.257 94.0936C278.981 94.0936 283.918 92.2885 287.938 88.6341L285.247 85.6744C282.023 88.6058 278.069 90.0936 273.257 90.0936V94.0936ZM287.953 88.6208C291.973 84.8931 294.381 79.8328 295.289 73.6132L291.331 73.035C290.527 78.5381 288.457 82.6979 285.233 85.6877L287.953 88.6208ZM293.31 75.3241H322.156V71.3241H293.31V75.3241ZM320.159 73.2149C319.715 81.3405 317.531 88.4447 313.65 94.5806L317.03 96.7192C321.314 89.9469 323.675 82.1673 324.153 73.4333L320.159 73.2149ZM313.655 94.5728C309.776 100.64 304.425 105.409 297.546 108.88L299.348 112.451C306.827 108.678 312.737 103.436 317.025 96.727L313.655 94.5728ZM297.559 108.873C290.714 112.265 282.502 114 272.861 114V118C282.978 118 291.824 116.179 299.335 112.458L297.559 108.873ZM455.815 39.4645H488.908V35.4645H455.815V39.4645ZM488.917 39.4645C503.233 39.4 514.064 42.7854 521.684 49.3521L524.295 46.3221C515.714 38.9269 503.824 35.3973 488.899 35.4645L488.917 39.4645ZM521.69 49.3573C529.374 55.9261 533.275 64.6733 533.338 75.8051L537.338 75.7825C537.269 63.6006 532.938 53.71 524.289 46.3168L521.69 49.3573ZM533.338 75.7938C533.338 83.0278 531.582 89.2947 528.124 94.6662L531.488 96.8312C535.406 90.7434 537.338 83.707 537.338 75.7938H533.338ZM528.13 94.6574C524.671 99.9689 519.677 104.183 513.055 107.273L514.747 110.897C521.956 107.533 527.564 102.856 531.482 96.84L528.13 94.6574ZM513.07 107.266C506.478 110.279 498.446 111.827 488.908 111.827V115.827C498.864 115.827 507.494 114.213 514.733 110.904L513.07 107.266ZM488.908 111.827H436.749V115.827H488.908V111.827ZM438.749 113.827V3.38302H434.749V113.827H438.749ZM436.749 5.38302H465.891V1.38302H436.749V5.38302ZM463.891 3.38302V89.7227H467.891V3.38302H463.891ZM465.891 91.7227H488.908V87.7227H465.891V91.7227ZM488.908 91.7227C494.327 91.7227 498.969 90.3445 502.684 87.447L500.224 84.293C497.353 86.5325 493.632 87.7227 488.908 87.7227V91.7227ZM502.684 87.447C506.432 84.5236 508.416 80.6731 508.492 76.0241L504.493 75.9586C504.437 79.3442 503.062 82.0795 500.224 84.293L502.684 87.447ZM508.492 75.9606C508.417 71.0952 506.473 67.0489 502.722 63.9734L500.186 67.0665C503.021 69.3913 504.436 72.326 504.492 76.0221L508.492 75.9606ZM502.722 63.9734C498.998 60.9196 494.33 59.4979 488.882 59.5686L488.934 63.5683C493.628 63.5073 497.324 64.7199 500.186 67.0665L502.722 63.9734ZM488.908 59.5685H455.815V63.5685H488.908V59.5685ZM457.815 61.5685V37.4645H453.815V61.5685H457.815Z" fill="#131313" mask="url(#path-1-outside-1_783_16045)"/>
<circle cx="36.1301" cy="112.372" r="2.9614" fill="#131313"/>
<circle cx="359.98" cy="112.372" r="2.9614" fill="#131313"/>
<circle cx="547.667" cy="112.372" r="2.9614" fill="#131313"/>
<circle cx="65.5708" cy="112.372" r="2.9614" fill="#131313"/>
<circle cx="389.422" cy="112.372" r="2.9614" fill="#131313"/>
<circle cx="577.108" cy="112.372" r="2.9614" fill="#131313"/>
</svg>
