<svg width="239" height="225" viewBox="0 0 239 225" fill="none" xmlns="http://www.w3.org/2000/svg">
<path d="M19.1648 71.9939C24.6511 65.358 30.3975 60.6002 36.2859 54.3436C43.1482 47.0521 56.2514 37.6601 64.6041 32.8529C75.2371 26.7334 81.7864 23.5239 92.2372 17.1225C102.446 10.8696 114.53 6.93716 125.808 3.84702C136.582 0.894897 146.693 0.745259 157.7 0.745259C170.236 0.745259 182.885 0.664677 195.076 4.3433C210.572 9.01918 232.559 16.0759 237.151 35.9812C240.654 51.1609 236.088 67.9253 223.499 76.1179C215.489 81.3306 206.18 84.9831 197.146 87.2843C184.409 90.5285 171.155 94.0717 158.26 96.2794C143.112 98.8727 126.676 100.027 112.156 105.709C92.3223 113.47 72.6504 121.995 52.8475 129.654C46.3962 132.149 40.6451 135.822 34.3276 138.587C29.3231 140.778 21.8361 145.858 17.8184 149.97C7.7248 160.3 1 168.544 1 183.607C1 191.549 4.25326 202.4 10.7161 207.384C22.8702 216.759 35.3181 219.879 49.6204 222.442C79.9544 227.877 116.841 216.077 140.971 195.66C146.983 190.572 153.876 186.33 159.603 180.957C165.286 175.625 168.986 169.741 175.773 165.883C180.93 162.951 186.083 158.15 190.824 154.344C193.521 152.179 197.242 150.578 199.44 148.141" stroke="#131313" stroke-width="0.917366" stroke-linecap="round"/>
<path d="M34.9587 208.209C34.445 208.209 34.0046 208.075 33.6373 207.806C33.2729 207.537 32.9937 207.149 32.7996 206.641C32.6085 206.131 32.5129 205.513 32.5129 204.787C32.5129 204.064 32.61 203.448 32.8041 202.937C32.9982 202.423 33.2774 202.032 33.6417 201.763C34.009 201.492 34.448 201.356 34.9587 201.356C35.4723 201.356 35.9113 201.492 36.2756 201.763C36.6429 202.032 36.9221 202.423 37.1132 202.937C37.3073 203.448 37.4044 204.064 37.4044 204.787C37.4044 205.513 37.3088 206.131 37.1177 206.641C36.9266 207.149 36.6489 207.537 36.2845 207.806C35.9202 208.075 35.4783 208.209 34.9587 208.209ZM34.9587 207.349C35.2722 207.349 35.5365 207.249 35.7515 207.049C35.9665 206.849 36.1307 206.558 36.2442 206.176C36.3577 205.79 36.4144 205.328 36.4144 204.787C36.4144 204.244 36.3577 203.781 36.2442 203.398C36.1307 203.013 35.9665 202.721 35.7515 202.52C35.5365 202.317 35.2722 202.216 34.9587 202.216C34.4958 202.216 34.1374 202.441 33.8836 202.892C33.6328 203.34 33.5074 203.972 33.5074 204.787C33.5074 205.328 33.5641 205.79 33.6776 206.176C33.791 206.558 33.9553 206.849 34.1703 207.049C34.3883 207.249 34.6511 207.349 34.9587 207.349ZM38.1838 208.12V207.394L40.4413 205.047C40.6802 204.796 40.8773 204.575 41.0326 204.384C41.1909 204.19 41.3088 204.006 41.3865 203.833C41.4671 203.66 41.5074 203.476 41.5074 203.282C41.5074 203.058 41.4552 202.865 41.3507 202.704C41.2461 202.543 41.1043 202.419 40.9251 202.332C40.7459 202.246 40.5429 202.202 40.3159 202.202C40.077 202.202 39.8695 202.252 39.6933 202.35C39.5171 202.446 39.3797 202.583 39.2812 202.762C39.1856 202.939 39.1379 203.146 39.1379 203.385H38.1793C38.1793 202.979 38.2719 202.623 38.457 202.319C38.6451 202.014 38.902 201.778 39.2275 201.611C39.5559 201.441 39.9262 201.356 40.3383 201.356C40.7594 201.356 41.1297 201.439 41.4492 201.607C41.7687 201.774 42.0181 202.001 42.1972 202.288C42.3764 202.571 42.466 202.892 42.466 203.251C42.466 203.498 42.4197 203.74 42.3271 203.976C42.2376 204.212 42.0778 204.476 41.8479 204.769C41.6209 205.059 41.3044 205.408 40.8982 205.817L39.5724 207.206V207.26H42.5735V208.12H38.1838Z" fill="#131313"/>
<path d="M16.6115 84.6706C16.0979 84.6706 15.6574 84.5363 15.2901 84.2675C14.9258 83.9987 14.6466 83.6105 14.4525 83.1029C14.2613 82.5922 14.1658 81.9741 14.1658 81.2484C14.1658 80.5258 14.2628 79.9091 14.4569 79.3985C14.651 78.8848 14.9302 78.4937 15.2946 78.2249C15.6619 77.9531 16.1008 77.8173 16.6115 77.8173C17.1251 77.8173 17.5641 77.9531 17.9284 78.2249C18.2957 78.4937 18.5749 78.8848 18.766 79.3985C18.9601 79.9091 19.0572 80.5258 19.0572 81.2484C19.0572 81.9741 18.9616 82.5922 18.7705 83.1029C18.5794 83.6105 18.3017 83.9987 17.9374 84.2675C17.573 84.5363 17.1311 84.6706 16.6115 84.6706ZM16.6115 83.8106C16.925 83.8106 17.1893 83.7106 17.4043 83.5105C17.6193 83.3104 17.7836 83.0193 17.8971 82.637C18.0105 82.2518 18.0673 81.7889 18.0673 81.2484C18.0673 80.7049 18.0105 80.2421 17.8971 79.8598C17.7836 79.4746 17.6193 79.182 17.4043 78.9819C17.1893 78.7788 16.925 78.6773 16.6115 78.6773C16.1486 78.6773 15.7903 78.9028 15.5364 79.3537C15.2856 79.8016 15.1602 80.4332 15.1602 81.2484C15.1602 81.7889 15.2169 82.2518 15.3304 82.637C15.4439 83.0193 15.6081 83.3104 15.8231 83.5105C16.0411 83.7106 16.3039 83.8106 16.6115 83.8106ZM22.2465 77.9069V84.5811H21.2521V78.9192H21.2073L19.6216 79.9629V78.9953L21.2789 77.9069H22.2465Z" fill="#131313"/>
</svg>
