<svg width="273" height="107" viewBox="0 0 273 107" fill="none" xmlns="http://www.w3.org/2000/svg">
<path d="M0.816406 35.3794C0.816406 31.5538 0.816406 27.7281 0.816406 23.9025C0.816406 13.7703 7.08293 7.676 16.1897 3.89065C24.9049 0.268091 34.8058 0.308736 42.0858 6.77977C48.704 12.6627 47.0953 25.3569 47.0953 33.471C47.0953 41.4788 44.2449 48.454 42.8014 56.2129C41.8843 61.1423 40.3861 65.8989 39.0111 70.7115C37.6464 75.4879 37.179 80.829 36.334 85.7402C35.7909 88.8971 35.8186 92.474 36.8641 95.4943C37.8676 98.3933 41.5491 100.053 44.3122 100.954C47.1512 101.88 49.8517 102.174 52.7941 102.174C55.4239 102.174 58.0163 96.6514 58.9699 94.9642C61.317 90.8116 63.1996 86.3485 64.9602 81.9234C66.3105 78.5294 68.2731 74.8511 68.5384 71.1356C69.0035 64.6244 68.3578 58.0195 68.5649 51.4949C68.7933 44.303 71.7204 37.0679 72.8854 30.0783C73.8789 24.117 76.4266 15.832 81.0756 11.7894C84.2815 9.00162 86.5492 5.81993 90.7237 4.20872C95.5261 2.35515 101.921 2.6658 106.998 2.53886C109.322 2.48077 111.344 3.5415 113.174 4.92438C117.516 8.20465 120.874 14.5842 122.371 19.7411C124.186 25.9903 122.331 32.6813 121.417 38.8782C119.828 49.6617 116.355 60.0006 114.579 70.6585C113.934 74.5302 113.413 78.3038 113.413 82.2415C113.413 86.5856 112.786 91.4943 113.943 95.7064C115.807 102.499 118.385 106.097 126.082 105.991C130.938 105.923 133.331 103.499 135.942 99.6822C140.407 93.1574 143.456 86.3551 145.087 78.5837C146.151 73.5147 146.137 68.6386 146.359 63.5285C146.575 58.5537 147.479 53.66 148.135 48.7383C149.053 41.8527 151.321 35.0562 153.251 28.4084C154.568 23.8697 156.49 17.114 161.123 14.864C162.614 14.1395 164.637 14.2706 166.265 14.3869C168.749 14.5644 168.279 19.8317 168.279 21.3314C168.279 33.2029 167.809 44.4049 165.788 56.1599C164.083 66.071 159.554 75.5501 158.313 85.4752C157.776 89.7737 159.201 95.3032 163.137 97.4027C165.871 98.8609 169.906 98.8036 172.944 98.834C177.577 98.8804 182.362 99.2495 186.886 98.1184C190.916 97.1109 194.178 94.923 197.86 93.0823C202.131 90.9469 207.301 87.7619 210.635 84.3619C215.003 79.9091 218.743 72.441 218.163 66.126C217.517 59.0921 216.374 49.8599 211.351 44.5504C209.144 42.2171 207.072 39.7544 205.016 37.2878C203.696 35.7036 201.826 33.9722 201.226 31.9337C199.447 25.8837 200.09 20.3215 204.91 16.0303C209.202 12.2091 215.26 9.69106 220.496 7.49543C226.145 5.12641 231.89 3.87351 238.042 4.47378C246.397 5.28882 252.374 10.7884 257.259 17.1965C261.571 22.8524 264.75 29.5472 267.517 36.0686C269.765 41.3675 269.551 45.1956 266.721 50.2226C261.317 59.8259 250.734 67.8224 239.368 67.8224" stroke="white" stroke-width="0.871298" stroke-linecap="round"/>
<mask id="path-2-outside-1_1052_1558" maskUnits="userSpaceOnUse" x="13.2686" y="9.44043" width="225" height="84" fill="black">
<rect fill="white" x="13.2686" y="9.44043" width="225" height="84"/>
<path d="M14.0433 75.4404V29.0655H26.8607V47.0679H30.511L43.0795 29.0655H58.1783L41.7936 52.1285L58.3442 75.4404H43.0795L31.6309 59.0142H26.8607V75.4404H14.0433ZM62.8307 92.7792C61.1992 92.8068 59.6644 92.6962 58.2264 92.4473C56.8161 92.1985 55.6547 91.8804 54.7421 91.4933L57.6457 81.9113L58.0605 81.9943C60.2175 82.6303 62.0564 82.7686 63.5774 82.4091C65.126 82.0773 66.3013 80.8605 67.1032 78.7589L67.8499 76.7678L51.2577 29.0655H64.7388L74.3208 63.1208H74.8185L84.5249 29.0655H98.089L80.0865 80.4595C79.2293 82.9484 78.054 85.1192 76.5607 86.9719C75.0951 88.8247 73.2423 90.2489 71.0024 91.2444C68.7624 92.2676 66.0385 92.7792 62.8307 92.7792ZM93.7767 75.4404L93.7352 65.2778H95.27C96.7356 65.2501 97.9247 64.7523 98.8373 63.7845C99.7775 62.8166 100.483 61.1989 100.953 58.9313C101.451 56.636 101.769 53.5389 101.907 49.6397L102.695 29.0655H137.912V75.4404H125.675V39.1867H114.226L113.48 53.3729C113.286 57.2444 112.816 60.5767 112.069 63.3697C111.323 66.1627 110.286 68.4579 108.958 70.2554C107.659 72.0252 106.055 73.3388 104.147 74.196C102.266 75.0256 100.095 75.4404 97.6343 75.4404H93.7767ZM166.616 76.353C161.86 76.353 157.753 75.3851 154.296 73.4494C150.84 71.5136 148.185 68.7621 146.332 65.1948C144.507 61.5999 143.594 57.355 143.594 52.4604C143.594 47.704 144.507 43.5283 146.332 39.9333C148.185 36.3384 150.784 33.5315 154.13 31.5128C157.504 29.4941 161.459 28.4848 165.994 28.4848C169.063 28.4848 171.925 28.9825 174.58 29.9781C177.235 30.9459 179.558 32.4116 181.549 34.375C183.54 36.3107 185.089 38.7581 186.195 41.717C187.301 44.6483 187.854 48.0911 187.854 52.0456V55.5299H148.697V47.6072H181.632L175.659 49.6812C175.659 47.3306 175.299 45.2843 174.58 43.5421C173.861 41.7999 172.783 40.4587 171.345 39.5185C169.934 38.5507 168.178 38.0667 166.077 38.0667C163.975 38.0667 162.191 38.5507 160.726 39.5185C159.288 40.4864 158.182 41.7999 157.407 43.4592C156.633 45.1184 156.246 47.0265 156.246 49.1834V54.7833C156.246 57.2997 156.688 59.4567 157.573 61.2542C158.458 63.024 159.689 64.3929 161.265 65.3607C162.869 66.3009 164.708 66.7711 166.782 66.7711C168.22 66.7711 169.52 66.5637 170.681 66.1489C171.843 65.734 172.838 65.1257 173.668 64.3237C174.525 63.5218 175.161 62.5539 175.576 61.4201L187.439 62.2082C186.858 65.0565 185.642 67.5454 183.789 69.6747C181.964 71.7763 179.599 73.4217 176.696 74.6108C173.792 75.7723 170.432 76.353 166.616 76.353ZM156.578 22.7605C154.808 22.7605 153.301 22.1521 152.056 20.9354C150.812 19.7186 150.204 18.2806 150.231 16.6214C150.204 14.9069 150.812 13.4689 152.056 12.3075C153.301 11.1184 154.808 10.51 156.578 10.4823C158.292 10.51 159.758 11.1184 160.975 12.3075C162.219 13.4689 162.841 14.9069 162.841 16.6214C162.841 18.2806 162.219 19.7186 160.975 20.9354C159.758 22.1521 158.292 22.7605 156.578 22.7605ZM174.995 22.7605C173.253 22.7605 171.76 22.1521 170.515 20.9354C169.271 19.7186 168.649 18.2806 168.649 16.6214C168.649 14.9069 169.271 13.4689 170.515 12.3075C171.76 11.1184 173.253 10.51 174.995 10.4823C176.737 10.51 178.217 11.1184 179.433 12.3075C180.65 13.4689 181.259 14.9069 181.259 16.6214C181.259 18.2806 180.65 19.7186 179.433 20.9354C178.217 22.1521 176.737 22.7605 174.995 22.7605ZM192.521 75.4404V29.0655H205.339V47.0679H208.989L221.557 29.0655H236.656L220.272 52.1285L236.822 75.4404H221.557L210.109 59.0142H205.339V75.4404H192.521Z"/>
</mask>
<path d="M14.0433 75.4404V29.0655H26.8607V47.0679H30.511L43.0795 29.0655H58.1783L41.7936 52.1285L58.3442 75.4404H43.0795L31.6309 59.0142H26.8607V75.4404H14.0433ZM62.8307 92.7792C61.1992 92.8068 59.6644 92.6962 58.2264 92.4473C56.8161 92.1985 55.6547 91.8804 54.7421 91.4933L57.6457 81.9113L58.0605 81.9943C60.2175 82.6303 62.0564 82.7686 63.5774 82.4091C65.126 82.0773 66.3013 80.8605 67.1032 78.7589L67.8499 76.7678L51.2577 29.0655H64.7388L74.3208 63.1208H74.8185L84.5249 29.0655H98.089L80.0865 80.4595C79.2293 82.9484 78.054 85.1192 76.5607 86.9719C75.0951 88.8247 73.2423 90.2489 71.0024 91.2444C68.7624 92.2676 66.0385 92.7792 62.8307 92.7792ZM93.7767 75.4404L93.7352 65.2778H95.27C96.7356 65.2501 97.9247 64.7523 98.8373 63.7845C99.7775 62.8166 100.483 61.1989 100.953 58.9313C101.451 56.636 101.769 53.5389 101.907 49.6397L102.695 29.0655H137.912V75.4404H125.675V39.1867H114.226L113.48 53.3729C113.286 57.2444 112.816 60.5767 112.069 63.3697C111.323 66.1627 110.286 68.4579 108.958 70.2554C107.659 72.0252 106.055 73.3388 104.147 74.196C102.266 75.0256 100.095 75.4404 97.6343 75.4404H93.7767ZM166.616 76.353C161.86 76.353 157.753 75.3851 154.296 73.4494C150.84 71.5136 148.185 68.7621 146.332 65.1948C144.507 61.5999 143.594 57.355 143.594 52.4604C143.594 47.704 144.507 43.5283 146.332 39.9333C148.185 36.3384 150.784 33.5315 154.13 31.5128C157.504 29.4941 161.459 28.4848 165.994 28.4848C169.063 28.4848 171.925 28.9825 174.58 29.9781C177.235 30.9459 179.558 32.4116 181.549 34.375C183.54 36.3107 185.089 38.7581 186.195 41.717C187.301 44.6483 187.854 48.0911 187.854 52.0456V55.5299H148.697V47.6072H181.632L175.659 49.6812C175.659 47.3306 175.299 45.2843 174.58 43.5421C173.861 41.7999 172.783 40.4587 171.345 39.5185C169.934 38.5507 168.178 38.0667 166.077 38.0667C163.975 38.0667 162.191 38.5507 160.726 39.5185C159.288 40.4864 158.182 41.7999 157.407 43.4592C156.633 45.1184 156.246 47.0265 156.246 49.1834V54.7833C156.246 57.2997 156.688 59.4567 157.573 61.2542C158.458 63.024 159.689 64.3929 161.265 65.3607C162.869 66.3009 164.708 66.7711 166.782 66.7711C168.22 66.7711 169.52 66.5637 170.681 66.1489C171.843 65.734 172.838 65.1257 173.668 64.3237C174.525 63.5218 175.161 62.5539 175.576 61.4201L187.439 62.2082C186.858 65.0565 185.642 67.5454 183.789 69.6747C181.964 71.7763 179.599 73.4217 176.696 74.6108C173.792 75.7723 170.432 76.353 166.616 76.353ZM156.578 22.7605C154.808 22.7605 153.301 22.1521 152.056 20.9354C150.812 19.7186 150.204 18.2806 150.231 16.6214C150.204 14.9069 150.812 13.4689 152.056 12.3075C153.301 11.1184 154.808 10.51 156.578 10.4823C158.292 10.51 159.758 11.1184 160.975 12.3075C162.219 13.4689 162.841 14.9069 162.841 16.6214C162.841 18.2806 162.219 19.7186 160.975 20.9354C159.758 22.1521 158.292 22.7605 156.578 22.7605ZM174.995 22.7605C173.253 22.7605 171.76 22.1521 170.515 20.9354C169.271 19.7186 168.649 18.2806 168.649 16.6214C168.649 14.9069 169.271 13.4689 170.515 12.3075C171.76 11.1184 173.253 10.51 174.995 10.4823C176.737 10.51 178.217 11.1184 179.433 12.3075C180.65 13.4689 181.259 14.9069 181.259 16.6214C181.259 18.2806 180.65 19.7186 179.433 20.9354C178.217 22.1521 176.737 22.7605 174.995 22.7605ZM192.521 75.4404V29.0655H205.339V47.0679H208.989L221.557 29.0655H236.656L220.272 52.1285L236.822 75.4404H221.557L210.109 59.0142H205.339V75.4404H192.521Z" fill="black"/>
<path d="M14.0433 75.4404H13.6141V75.8697H14.0433V75.4404ZM14.0433 29.0655V28.6363H13.6141V29.0655H14.0433ZM26.8607 29.0655H27.29V28.6363H26.8607V29.0655ZM26.8607 47.0679H26.4315V47.4972H26.8607V47.0679ZM30.511 47.0679V47.4972H30.7348L30.8629 47.3137L30.511 47.0679ZM43.0795 29.0655V28.6363H42.8557L42.7275 28.8198L43.0795 29.0655ZM58.1783 29.0655L58.5282 29.3141L59.0098 28.6363H58.1783V29.0655ZM41.7936 52.1285L41.4437 51.8799L41.2671 52.1284L41.4436 52.377L41.7936 52.1285ZM58.3442 75.4404V75.8697H59.1754L58.6942 75.1919L58.3442 75.4404ZM43.0795 75.4404L42.7274 75.6859L42.8555 75.8697H43.0795V75.4404ZM31.6309 59.0142L31.9831 58.7688L31.855 58.585H31.6309V59.0142ZM26.8607 59.0142V58.585H26.4315V59.0142H26.8607ZM26.8607 75.4404V75.8697H27.29V75.4404H26.8607ZM14.4726 75.4404V29.0655H13.6141V75.4404H14.4726ZM14.0433 29.4947H26.8607V28.6363H14.0433V29.4947ZM26.4315 29.0655V47.0679H27.29V29.0655H26.4315ZM26.8607 47.4972H30.511V46.6387H26.8607V47.4972ZM30.8629 47.3137L43.4315 29.3112L42.7275 28.8198L30.159 46.8222L30.8629 47.3137ZM43.0795 29.4947H58.1783V28.6363H43.0795V29.4947ZM57.8284 28.8169L41.4437 51.8799L42.1435 52.3771L58.5282 29.3141L57.8284 28.8169ZM41.4436 52.377L57.9942 75.6889L58.6942 75.1919L42.1436 51.88L41.4436 52.377ZM58.3442 75.0112H43.0795V75.8697H58.3442V75.0112ZM43.4316 75.195L31.9831 58.7688L31.2788 59.2597L42.7274 75.6859L43.4316 75.195ZM31.6309 58.585H26.8607V59.4435H31.6309V58.585ZM26.4315 59.0142V75.4404H27.29V59.0142H26.4315ZM26.8607 75.0112H14.0433V75.8697H26.8607V75.0112ZM62.8307 92.7792V92.3499L62.8235 92.35L62.8307 92.7792ZM58.2264 92.4473L58.1518 92.87L58.1532 92.8703L58.2264 92.4473ZM54.7421 91.4933L54.3313 91.3688L54.2195 91.7378L54.5745 91.8884L54.7421 91.4933ZM57.6457 81.9113L57.7299 81.4904L57.3479 81.414L57.2349 81.7869L57.6457 81.9113ZM58.0605 81.9943L58.1819 81.5826L58.1635 81.5772L58.1447 81.5734L58.0605 81.9943ZM63.5774 82.4091L63.4874 81.9893L63.4786 81.9914L63.5774 82.4091ZM67.1032 78.7589L67.5043 78.9119L67.5051 78.9096L67.1032 78.7589ZM67.8499 76.7678L68.2518 76.9185L68.3062 76.7733L68.2553 76.6268L67.8499 76.7678ZM51.2578 29.0655V28.6363H50.654L50.8523 29.2065L51.2578 29.0655ZM64.7388 29.0655L65.152 28.9492L65.064 28.6363H64.7388V29.0655ZM74.3208 63.1208L73.9076 63.2371L73.9956 63.55H74.3208V63.1208ZM74.8185 63.1208V63.55H75.1425L75.2313 63.2384L74.8185 63.1208ZM84.5249 29.0655V28.6363H84.2009L84.1121 28.9478L84.5249 29.0655ZM98.089 29.0655L98.4941 29.2074L98.6941 28.6363H98.089V29.0655ZM80.0865 80.4595L79.6814 80.3176L79.6807 80.3197L80.0865 80.4595ZM76.5607 86.9719L76.2265 86.7026L76.2241 86.7056L76.5607 86.9719ZM71.0024 91.2444L70.828 90.8521L70.824 90.854L71.0024 91.2444ZM62.8235 92.35C61.2158 92.3772 59.7081 92.2682 58.2996 92.0244L58.1532 92.8703C59.6207 93.1243 61.1826 93.2364 62.838 93.2084L62.8235 92.35ZM58.301 92.0246C56.9099 91.7791 55.7825 91.4684 54.9097 91.0981L54.5745 91.8884C55.5269 92.2925 56.7224 92.6178 58.1518 92.87L58.301 92.0246ZM55.1529 91.6178L58.0565 82.0358L57.2349 81.7869L54.3313 91.3688L55.1529 91.6178ZM57.5615 82.3323L57.9763 82.4152L58.1447 81.5734L57.7299 81.4904L57.5615 82.3323ZM57.9391 82.406C60.1382 83.0545 62.0575 83.2094 63.6761 82.8268L63.4786 81.9914C62.0554 82.3278 60.2968 82.2062 58.1819 81.5826L57.9391 82.406ZM63.6673 82.8288C65.4127 82.4548 66.6742 81.0873 67.5042 78.9119L66.7022 78.6058C65.9284 80.6337 64.8392 81.6997 63.4874 81.9894L63.6673 82.8288ZM67.5051 78.9096L68.2518 76.9185L67.4479 76.6171L66.7013 78.6081L67.5051 78.9096ZM68.2553 76.6268L51.6632 28.9245L50.8523 29.2065L67.4444 76.9088L68.2553 76.6268ZM51.2578 29.4947H64.7388V28.6363H51.2578V29.4947ZM64.3256 29.1818L73.9076 63.2371L74.734 63.0045L65.152 28.9492L64.3256 29.1818ZM74.3208 63.55H74.8185V62.6916H74.3208V63.55ZM75.2313 63.2384L84.9377 29.1832L84.1121 28.9478L74.4057 63.0031L75.2313 63.2384ZM84.5249 29.4947H98.089V28.6363H84.5249V29.4947ZM97.6839 28.9236L79.6814 80.3176L80.4916 80.6014L98.4941 29.2074L97.6839 28.9236ZM79.6807 80.3197C78.8379 82.7665 77.6854 84.8924 76.2265 86.7026L76.8949 87.2413C78.4225 85.3459 79.6206 83.1302 80.4924 80.5993L79.6807 80.3197ZM76.2241 86.7056C74.8032 88.5018 73.0069 89.8838 70.828 90.8522L71.1767 91.6367C73.4776 90.614 75.387 89.1476 76.8974 87.2382L76.2241 86.7056ZM70.824 90.854C68.6543 91.8451 65.9948 92.3499 62.8307 92.3499V93.2084C66.0822 93.2084 68.8706 92.6901 71.1807 91.6348L70.824 90.854ZM93.7767 75.4404L93.3474 75.4422L93.3492 75.8697H93.7767V75.4404ZM93.7352 65.2778V64.8485H93.3042L93.306 65.2795L93.7352 65.2778ZM95.27 65.2778V65.7071L95.2781 65.7069L95.27 65.2778ZM98.8373 63.7845L98.5293 63.4854L98.5249 63.49L98.8373 63.7845ZM100.953 58.9313L100.533 58.8403L100.532 58.8442L100.953 58.9313ZM101.907 49.6397L101.478 49.6233L101.478 49.6245L101.907 49.6397ZM102.695 29.0655V28.6363H102.282L102.266 29.0491L102.695 29.0655ZM137.912 29.0655H138.341V28.6363H137.912V29.0655ZM137.912 75.4404V75.8697H138.341V75.4404H137.912ZM125.675 75.4404H125.246V75.8697H125.675V75.4404ZM125.675 39.1867H126.104V38.7574H125.675V39.1867ZM114.226 39.1867V38.7574H113.819L113.798 39.1641L114.226 39.1867ZM113.48 53.3729L113.051 53.3504L113.051 53.3515L113.48 53.3729ZM112.069 63.3697L111.655 63.2588L112.069 63.3697ZM108.958 70.2554L108.613 70.0004L108.612 70.0013L108.958 70.2554ZM104.147 74.196L104.32 74.5888L104.323 74.5876L104.147 74.196ZM94.2059 75.4387L94.1644 65.276L93.306 65.2795L93.3474 75.4422L94.2059 75.4387ZM93.7352 65.707H95.27V64.8485H93.7352V65.707ZM95.2781 65.7069C96.8461 65.6773 98.1494 65.1398 99.1496 64.0789L98.5249 63.49C97.7 64.3649 96.6251 64.8229 95.2619 64.8486L95.2781 65.7069ZM99.1451 64.0836C100.17 63.0288 100.897 61.3154 101.373 59.0184L100.532 58.8442C100.068 61.0824 99.3851 62.6045 98.5294 63.4854L99.1451 64.0836ZM101.372 59.0223C101.878 56.6912 102.197 53.5652 102.336 49.6549L101.478 49.6245C101.34 53.5125 101.023 56.5809 100.533 58.8403L101.372 59.0223ZM102.336 49.6561L103.124 29.0819L102.266 29.0491L101.478 49.6233L102.336 49.6561ZM102.695 29.4947H137.912V28.6363H102.695V29.4947ZM137.482 29.0655V75.4404H138.341V29.0655H137.482ZM137.912 75.0112H125.675V75.8697H137.912V75.0112ZM126.104 75.4404V39.1867H125.246V75.4404H126.104ZM125.675 38.7574H114.226V39.6159H125.675V38.7574ZM113.798 39.1641L113.051 53.3504L113.908 53.3955L114.655 39.2092L113.798 39.1641ZM113.051 53.3515C112.859 57.2023 112.391 60.503 111.655 63.2588L112.484 63.4805C113.241 60.6503 113.714 57.2866 113.909 53.3944L113.051 53.3515ZM111.655 63.2588C110.918 66.0144 109.901 68.2569 108.613 70.0004L109.304 70.5104C110.671 68.659 111.727 66.311 112.484 63.4805L111.655 63.2588ZM108.612 70.0013C107.354 71.7145 105.808 72.9791 103.971 73.8045L104.323 74.5876C106.302 73.6984 107.963 72.3359 109.304 70.5095L108.612 70.0013ZM103.973 73.8033C102.157 74.6046 100.047 75.0112 97.6343 75.0112V75.8697C100.144 75.8697 102.375 75.4467 104.32 74.5887L103.973 73.8033ZM97.6343 75.0112H93.7767V75.8697H97.6343V75.0112ZM146.332 65.1948L145.949 65.3891L145.951 65.3927L146.332 65.1948ZM146.332 39.9333L145.951 39.7367L145.949 39.739L146.332 39.9333ZM154.13 31.5128L153.91 31.1445L153.909 31.1453L154.13 31.5128ZM174.58 29.9781L174.429 30.38L174.433 30.3813L174.58 29.9781ZM181.549 34.375L181.247 34.6806L181.25 34.6827L181.549 34.375ZM186.195 41.717L185.793 41.8673L185.793 41.8685L186.195 41.717ZM187.854 55.5299V55.9591H188.283V55.5299H187.854ZM148.697 55.5299H148.267V55.9591H148.697V55.5299ZM148.697 47.6072V47.1779H148.267V47.6072H148.697ZM181.632 47.6072L181.773 48.0127L181.632 47.1779V47.6072ZM175.659 49.6812H175.229V50.2846L175.799 50.0867L175.659 49.6812ZM171.345 39.5185L171.102 39.8725L171.11 39.8778L171.345 39.5185ZM160.726 39.5185L160.489 39.1603L160.486 39.1624L160.726 39.5185ZM157.407 43.4592L157.018 43.2776L157.407 43.4592ZM157.573 61.2542L157.188 61.4438L157.189 61.4461L157.573 61.2542ZM161.265 65.3607L161.04 65.7266L161.048 65.731L161.265 65.3607ZM173.668 64.3237L173.374 64.0102L173.369 64.0151L173.668 64.3237ZM175.576 61.4201L175.604 60.9918L175.283 60.9705L175.173 61.2726L175.576 61.4201ZM187.439 62.2082L187.86 62.294L187.958 61.8125L187.468 61.7799L187.439 62.2082ZM183.789 69.6747L183.465 69.3929L183.465 69.3932L183.789 69.6747ZM176.696 74.6108L176.855 75.0094L176.858 75.008L176.696 74.6108ZM150.231 16.6214L150.661 16.6286L150.66 16.6145L150.231 16.6214ZM152.056 12.3075L152.349 12.6213L152.353 12.6178L152.056 12.3075ZM156.578 10.4823L156.585 10.0529L156.571 10.0532L156.578 10.4823ZM160.975 12.3075L160.675 12.6145L160.682 12.6213L160.975 12.3075ZM160.975 20.9354L160.675 20.6284L160.671 20.6319L160.975 20.9354ZM170.515 12.3075L170.808 12.6213L170.812 12.6178L170.515 12.3075ZM174.995 10.4823L175.002 10.0529L174.988 10.0532L174.995 10.4823ZM179.433 12.3075L179.133 12.6145L179.137 12.618L179.433 12.3075ZM166.616 75.9238C161.918 75.9238 157.887 74.9682 154.506 73.0749L154.087 73.8239C157.619 75.8021 161.801 76.7822 166.616 76.7822V75.9238ZM154.506 73.0749C151.124 71.1807 148.528 68.4911 146.713 64.997L145.951 65.3927C147.842 69.0331 150.556 71.8466 154.087 73.8239L154.506 73.0749ZM146.715 65.0005C144.926 61.4773 144.024 57.3018 144.024 52.4604H143.165C143.165 57.4083 144.088 61.7224 145.949 65.3891L146.715 65.0005ZM144.024 52.4604C144.024 47.7594 144.925 43.6525 146.715 40.1276L145.949 39.739C144.089 43.4041 143.165 47.6485 143.165 52.4604H144.024ZM146.714 40.13C148.531 36.6031 151.077 33.8565 154.352 31.8804L153.909 31.1453C150.492 33.2066 147.838 36.0737 145.951 39.7367L146.714 40.13ZM154.351 31.8812C157.648 29.9081 161.524 28.914 165.994 28.914V28.0555C161.393 28.0555 157.36 29.0801 153.91 31.1445L154.351 31.8812ZM165.994 28.914C169.016 28.914 171.827 29.404 174.429 30.38L174.731 29.5762C172.024 28.5611 169.111 28.0555 165.994 28.0555V28.914ZM174.433 30.3813C177.031 31.3283 179.301 32.7609 181.247 34.6806L181.85 34.0693C179.815 32.0622 177.439 30.5635 174.727 29.5748L174.433 30.3813ZM181.25 34.6827C183.189 36.5685 184.706 38.9596 185.793 41.8673L186.597 41.5667C185.471 38.5565 183.891 36.0529 181.848 34.0672L181.25 34.6827ZM185.793 41.8685C186.877 44.7405 187.425 48.1299 187.425 52.0456H188.283C188.283 48.0524 187.725 44.556 186.596 41.5654L185.793 41.8685ZM187.425 52.0456V55.5299H188.283V52.0456H187.425ZM187.854 55.1007H148.697V55.9591H187.854V55.1007ZM149.126 55.5299V47.6072H148.267V55.5299H149.126ZM148.697 48.0364H181.632V47.1779H148.697V48.0364ZM181.491 47.2017L175.518 49.2757L175.799 50.0867L181.773 48.0127L181.491 47.2017ZM176.088 49.6812C176.088 47.2879 175.722 45.1836 174.977 43.3784L174.183 43.7059C174.876 45.385 175.229 47.3734 175.229 49.6812H176.088ZM174.977 43.3784C174.228 41.5643 173.097 40.1514 171.58 39.1593L171.11 39.8778C172.468 40.7661 173.494 42.0356 174.183 43.7059L174.977 43.3784ZM171.588 39.1646C170.091 38.1374 168.245 37.6375 166.077 37.6375V38.496C168.112 38.496 169.778 38.9639 171.102 39.8724L171.588 39.1646ZM166.077 37.6375C163.908 37.6375 162.038 38.1377 160.489 39.1603L160.962 39.8767C162.345 38.9636 164.042 38.496 166.077 38.496V37.6375ZM160.486 39.1624C158.98 40.1763 157.824 41.5519 157.018 43.2776L157.796 43.6407C158.54 42.048 159.596 40.7965 160.965 39.8746L160.486 39.1624ZM157.018 43.2776C156.213 45.0029 155.817 46.9748 155.817 49.1834H156.675C156.675 47.0781 157.053 45.2338 157.796 43.6407L157.018 43.2776ZM155.817 49.1834V54.7833H156.675V49.1834H155.817ZM155.817 54.7833C155.817 57.3491 156.268 59.5742 157.188 61.4438L157.958 61.0646C157.109 59.3392 156.675 57.2504 156.675 54.7833H155.817ZM157.189 61.4461C158.108 63.2824 159.391 64.7138 161.04 65.7265L161.49 64.9949C159.986 64.0719 158.809 62.7656 157.957 61.0622L157.189 61.4461ZM161.048 65.731C162.725 66.7142 164.641 67.2003 166.782 67.2003V66.3418C164.775 66.3418 163.013 65.8877 161.482 64.9904L161.048 65.731ZM166.782 67.2003C168.261 67.2003 169.611 66.9869 170.825 66.5531L170.537 65.7446C169.429 66.1404 168.179 66.3418 166.782 66.3418V67.2003ZM170.825 66.5531C172.04 66.1192 173.089 65.4796 173.966 64.6323L173.369 64.0151C172.587 64.7717 171.645 65.3489 170.537 65.7446L170.825 66.5531ZM173.961 64.6372C174.869 63.7879 175.542 62.7627 175.979 61.5676L175.173 61.2726C174.78 62.3451 174.181 63.2556 173.374 64.0103L173.961 64.6372ZM175.547 61.8484L187.411 62.6365L187.468 61.7799L175.604 60.9918L175.547 61.8484ZM187.018 62.1225C186.452 64.9005 185.268 67.3212 183.465 69.3929L184.113 69.9564C186.016 67.7695 187.265 65.2126 187.86 62.294L187.018 62.1225ZM183.465 69.3932C181.689 71.4381 179.383 73.0467 176.533 74.2136L176.858 75.008C179.816 73.7968 182.238 72.1146 184.113 69.9561L183.465 69.3932ZM176.536 74.2123C173.693 75.3495 170.389 75.9238 166.616 75.9238V76.7822C170.475 76.7822 173.891 76.195 176.855 75.0094L176.536 74.2123ZM156.578 22.3313C154.918 22.3313 153.519 21.7653 152.357 20.6285L151.756 21.2423C153.082 22.5389 154.698 23.1897 156.578 23.1897V22.3313ZM152.357 20.6285C151.192 19.4897 150.635 18.1635 150.66 16.6286L149.802 16.6143C149.772 18.3978 150.432 19.9476 151.756 21.2423L152.357 20.6285ZM150.66 16.6145C150.635 15.0203 151.194 13.6992 152.349 12.6213L151.764 11.9937C150.43 13.2386 149.773 14.7935 149.802 16.6283L150.66 16.6145ZM152.353 12.6178C153.517 11.5057 154.919 10.9376 156.584 10.9115L156.571 10.0532C154.697 10.0824 153.085 10.731 151.76 11.9971L152.353 12.6178ZM156.571 10.9115C158.177 10.9374 159.537 11.5027 160.675 12.6145L161.275 12.0005C159.979 10.734 158.408 10.0826 156.585 10.0532L156.571 10.9115ZM160.682 12.6213C161.839 13.7009 162.412 15.0249 162.412 16.6214H163.271C163.271 14.7889 162.6 13.237 161.268 11.9937L160.682 12.6213ZM162.412 16.6214C162.412 18.159 161.841 19.488 160.675 20.6285L161.275 21.2423C162.597 19.9492 163.271 18.4023 163.271 16.6214H162.412ZM160.671 20.6319C159.535 21.7684 158.178 22.3313 156.578 22.3313V23.1897C158.407 23.1897 159.981 22.5358 161.278 21.2389L160.671 20.6319ZM174.995 22.3313C173.365 22.3313 171.979 21.7667 170.815 20.6285L170.215 21.2423C171.54 22.5375 173.141 23.1897 174.995 23.1897V22.3313ZM170.815 20.6285C169.649 19.488 169.078 18.159 169.078 16.6214H168.219C168.219 18.4023 168.893 19.9492 170.215 21.2423L170.815 20.6285ZM169.078 16.6214C169.078 15.0249 169.651 13.7009 170.808 12.6213L170.222 11.9937C168.89 13.237 168.219 14.7889 168.219 16.6214H169.078ZM170.812 12.6178C171.977 11.5044 173.366 10.9375 175.002 10.9115L174.988 10.0532C173.139 10.0825 171.542 10.7323 170.219 11.9971L170.812 12.6178ZM174.988 10.9115C176.624 10.9375 177.997 11.5041 179.133 12.6145L179.733 12.0005C178.436 10.7326 176.851 10.0825 175.002 10.0532L174.988 10.9115ZM179.137 12.618C180.267 13.6967 180.829 15.0217 180.829 16.6214H181.688C181.688 14.7922 181.033 13.2412 179.73 11.997L179.137 12.618ZM180.829 16.6214C180.829 18.1622 180.269 19.4923 179.13 20.6319L179.737 21.2389C181.031 19.945 181.688 18.3991 181.688 16.6214H180.829ZM179.13 20.6319C177.995 21.767 176.625 22.3313 174.995 22.3313V23.1897C176.849 23.1897 178.439 22.5373 179.737 21.2389L179.13 20.6319ZM192.521 75.4404H192.092V75.8697H192.521V75.4404ZM192.521 29.0655V28.6363H192.092V29.0655H192.521ZM205.339 29.0655H205.768V28.6363H205.339V29.0655ZM205.339 47.0679H204.909V47.4972H205.339V47.0679ZM208.989 47.0679V47.4972H209.213L209.341 47.3137L208.989 47.0679ZM221.557 29.0655V28.6363H221.334L221.205 28.8198L221.557 29.0655ZM236.656 29.0655L237.006 29.3141L237.488 28.6363H236.656V29.0655ZM220.272 52.1285L219.922 51.8799L219.745 52.1284L219.922 52.377L220.272 52.1285ZM236.822 75.4404V75.8697H237.653L237.172 75.1919L236.822 75.4404ZM221.557 75.4404L221.205 75.6859L221.333 75.8697H221.557V75.4404ZM210.109 59.0142L210.461 58.7688L210.333 58.585H210.109V59.0142ZM205.339 59.0142V58.585H204.909V59.0142H205.339ZM205.339 75.4404V75.8697H205.768V75.4404H205.339ZM192.951 75.4404V29.0655H192.092V75.4404H192.951ZM192.521 29.4947H205.339V28.6363H192.521V29.4947ZM204.909 29.0655V47.0679H205.768V29.0655H204.909ZM205.339 47.4972H208.989V46.6387H205.339V47.4972ZM209.341 47.3137L221.909 29.3112L221.205 28.8198L208.637 46.8222L209.341 47.3137ZM221.557 29.4947H236.656V28.6363H221.557V29.4947ZM236.306 28.8169L219.922 51.8799L220.621 52.3771L237.006 29.3141L236.306 28.8169ZM219.922 52.377L236.472 75.6889L237.172 75.1919L220.622 51.88L219.922 52.377ZM236.822 75.0112H221.557V75.8697H236.822V75.0112ZM221.91 75.195L210.461 58.7688L209.757 59.2597L221.205 75.6859L221.91 75.195ZM210.109 58.585H205.339V59.4435H210.109V58.585ZM204.909 59.0142V75.4404H205.768V59.0142H204.909ZM205.339 75.0112H192.521V75.8697H205.339V75.0112Z" fill="black" mask="url(#path-2-outside-1_1052_1558)"/>
<path fill-rule="evenodd" clip-rule="evenodd" d="M192.613 75.178H205.172V59.0831H209.846L221.064 75.178H236.02L219.804 52.3362L235.858 29.7383H221.064L208.749 47.3777H205.172V29.7383H192.613V75.178ZM206.043 46.5064V28.867H191.742V76.0493H206.043V59.9544H209.391L220.609 76.0493H237.708L220.872 52.3364L237.025 29.7383H220.035L208.294 46.5064H206.043Z" fill="white"/>
<path fill-rule="evenodd" clip-rule="evenodd" d="M145.749 65.537L145.747 65.5334C143.884 61.8653 142.97 57.5654 142.97 52.6614C142.97 47.8883 143.886 43.6573 145.747 39.9925L145.749 39.9878C147.636 36.3272 150.293 33.4546 153.715 31.3902L153.717 31.3886C157.178 29.318 161.212 28.298 165.789 28.298C168.891 28.298 171.799 28.8012 174.505 29.8154C177.219 30.8058 179.6 32.3077 181.64 34.3182C183.694 36.316 185.276 38.8274 186.398 41.8295C187.527 44.8214 188.079 48.3026 188.079 52.2549V56.5403H157.177C157.325 58.2101 157.711 59.6558 158.319 60.8908C159.117 62.4858 160.212 63.6979 161.604 64.5544C163.025 65.3855 164.669 65.8121 166.561 65.8121C167.886 65.8121 169.059 65.621 170.088 65.2532C171.118 64.8856 171.985 64.3527 172.702 63.659L172.707 63.654L172.713 63.6492C173.45 62.9594 173.998 62.1275 174.359 61.141L174.255 61.4094L187.655 62.2671V62.3867C187.057 65.32 185.8 67.8966 183.883 70.0998C181.994 72.2744 179.56 73.9613 176.605 75.1714L176.602 75.1728L176.598 75.1741C173.63 76.3612 170.225 76.9434 166.398 76.9434C161.619 76.9434 157.442 75.9701 153.901 73.9873C150.364 72.0062 147.643 69.1845 145.75 65.5406L145.749 65.537ZM157.538 61.2778C156.865 59.9108 156.453 58.3317 156.303 56.5403C156.279 56.2552 156.261 55.9648 156.251 55.669H187.208V52.2549C187.208 48.3802 186.666 45.0068 185.582 42.1346C184.498 39.2354 182.981 36.8374 181.03 34.9407C179.079 33.0169 176.803 31.5808 174.202 30.6325C171.601 29.657 168.796 29.1693 165.789 29.1693C161.345 29.1693 157.47 30.1583 154.165 32.1363C150.886 34.1143 148.339 36.8645 146.524 40.387C144.735 43.9094 143.841 48.0009 143.841 52.6614C143.841 57.4573 144.735 61.6165 146.524 65.139C148.339 68.6343 150.94 71.3304 154.327 73.2271C157.714 75.1238 161.738 76.0721 166.398 76.0721C170.138 76.0721 173.43 75.5031 176.275 74.3651C179.12 73.2 181.437 71.5878 183.225 69.5285C184.851 67.6593 185.978 65.5074 186.604 63.0727C186.676 62.7898 186.742 62.5031 186.802 62.2126L175.164 61.4676C174.758 62.5785 174.148 63.4997 173.308 64.2855C172.495 65.0712 171.52 65.6673 170.381 66.0738C169.243 66.4802 167.97 66.6834 166.561 66.6834C164.529 66.6834 162.727 66.2228 161.155 65.3015C159.611 64.3532 158.405 63.012 157.538 61.2778ZM175.16 47.906C175.129 47.6098 175.092 47.3194 175.049 47.0347C174.874 45.906 174.592 44.8687 174.202 43.923C173.497 42.2159 172.441 40.9018 171.032 39.9805C169.65 39.0322 167.929 38.558 165.87 38.558C163.811 38.558 162.063 39.0322 160.627 39.9805C159.218 40.9289 158.134 42.2159 157.375 43.8417C156.92 44.8181 156.601 45.8824 156.419 47.0347C156.374 47.3198 156.337 47.6102 156.309 47.906H175.16ZM157.302 47.0347H174.166C174.001 46.0193 173.743 45.0938 173.397 44.2553C172.752 42.6942 171.803 41.5256 170.555 40.7098L170.547 40.7044L170.539 40.6989C169.332 39.8709 167.794 39.4293 165.87 39.4293C163.949 39.4293 162.377 39.8698 161.11 40.7057C159.842 41.5604 158.86 42.7208 158.165 44.2101C157.765 45.0682 157.475 46.0084 157.302 47.0347ZM156.563 10.6585L156.577 10.6587C158.474 10.6893 160.121 11.3704 161.472 12.6879C162.865 13.991 163.571 15.6289 163.571 17.5452C163.571 19.4165 162.859 21.0455 161.483 22.3921C160.129 23.7445 158.473 24.4318 156.563 24.4318C154.605 24.4318 152.908 23.7495 151.523 22.3951C150.146 21.0481 149.445 19.4171 149.473 17.5452C149.445 15.6288 150.139 13.9888 151.534 12.685C152.916 11.3657 154.604 10.6891 156.549 10.6587L156.563 10.6585ZM152.132 13.3182C150.913 14.4563 150.317 15.8652 150.344 17.5452C150.317 19.1709 150.913 20.5799 152.132 21.7721C153.352 22.9643 154.828 23.5605 156.563 23.5605C158.243 23.5605 159.679 22.9643 160.871 21.7721C162.09 20.5799 162.7 19.1709 162.7 17.5452C162.7 15.8652 162.09 14.4563 160.871 13.3182C159.679 12.1531 158.243 11.557 156.563 11.5299C154.828 11.557 153.352 12.1531 152.132 13.3182ZM174.608 10.6585L174.622 10.6587C176.544 10.6892 178.207 11.3688 179.562 12.6914C180.928 13.9968 181.617 15.634 181.617 17.5452C181.617 19.4114 180.922 21.0394 179.573 22.3882C178.216 23.7461 176.543 24.4318 174.608 24.4318C172.674 24.4318 170.992 23.7467 169.61 22.3951C168.232 21.0479 167.519 19.4179 167.519 17.5452C167.519 15.6273 168.226 13.9881 169.621 12.6844C171 11.3682 172.673 10.6892 174.595 10.6587L174.608 10.6585ZM178.957 13.3182C177.765 12.1531 176.315 11.557 174.608 11.5299C172.901 11.557 171.438 12.1531 170.219 13.3182C169 14.4563 168.39 15.8652 168.39 17.5452C168.39 19.1709 169 20.5799 170.219 21.7721C171.438 22.9643 172.901 23.5605 174.608 23.5605C176.315 23.5605 177.765 22.9643 178.957 21.7721C180.15 20.5799 180.746 19.1709 180.746 17.5452C180.746 15.8652 180.15 14.4563 178.957 13.3182Z" fill="white"/>
<path fill-rule="evenodd" clip-rule="evenodd" d="M95.0295 75.178H98.8093C101.221 75.178 103.348 74.7715 105.19 73.9587C107.06 73.1187 108.632 71.8316 109.905 70.0975C111.206 68.3363 112.222 66.0873 112.953 63.3506C113.685 60.614 114.146 57.3489 114.335 53.5555L115.067 39.6554H126.284V75.178H138.274V29.7383H103.768L102.996 49.8976C102.86 53.7181 102.549 56.7528 102.061 59.0018C101.6 61.2236 100.909 62.8087 99.988 63.7571C99.0938 64.7054 97.9287 65.1932 96.4927 65.2203H94.9888L95.0295 75.178ZM96.484 64.349H94.9889L94.9881 76.0493H98.8093C101.318 76.0493 103.569 75.6262 105.542 74.7558L105.547 74.7534C107.561 73.8487 109.249 72.4624 110.607 70.6132C111.988 68.7429 113.043 66.3874 113.795 63.5757C114.547 60.7641 115.013 57.4358 115.205 53.6013M115.205 53.599L115.893 40.5267H125.413V76.0493H139.146V28.867H102.929L102.125 49.8642L102.125 49.8667C101.99 53.6645 101.681 56.6409 101.209 58.8171L101.208 58.821L101.208 58.8249C100.759 60.9872 100.113 62.3781 99.363 63.15L99.3585 63.1546L99.3541 63.1594C98.6393 63.9174 97.7083 64.3242 96.484 64.349" fill="white"/>
<path fill-rule="evenodd" clip-rule="evenodd" d="M53.0381 36.2312L67.0333 76.4674L66.4141 78.1188C66.4137 78.1197 66.4134 78.1206 66.4131 78.1214C65.6845 80.0292 64.7082 80.9147 63.5908 81.1542L63.5819 81.1561L63.573 81.1582C62.281 81.4636 60.6423 81.362 58.6142 80.764L58.5769 80.7529L57.3568 80.5089L54.0554 91.4035L54.776 91.7092C55.751 92.1228 56.9582 92.4492 58.3789 92.6999L58.3818 92.7004C59.8484 92.9543 61.4048 93.0658 63.0491 93.0383C66.2761 93.0376 69.0721 92.5232 71.4068 91.4575C73.7223 90.4276 75.6502 88.9481 77.1758 87.0205C78.707 85.1199 79.9038 82.9035 80.7726 80.3818L80.7734 80.3796L98.8174 28.867H84.2985L84.29 29.7682L74.8861 62.7619L65.5714 28.867H50.4767L50.7797 29.7383H64.9114L74.3001 63.1068H74.7878L84.2985 29.7383H97.589L79.9496 80.0959C79.1096 82.5345 77.958 84.6615 76.4949 86.4769C75.0588 88.2923 73.2434 89.6878 71.0486 90.6632C68.8539 91.6658 66.1849 92.167 63.0418 92.167C61.4432 92.1941 59.9393 92.0858 58.5304 91.8419C57.1485 91.598 56.0104 91.2864 55.1163 90.9071L57.9613 81.5184L58.3678 81.5997C60.4813 82.2229 62.2831 82.3584 63.7734 82.0061C65.2908 81.681 66.4423 80.4887 67.2281 78.4295L67.9597 76.4786L53.6574 35.3594L53.0381 36.2312Z" fill="white"/>
<path d="M42.8564 75.178L31.6387 59.0831H26.9647V75.178H14.4058V76.0493H27.836V59.9544H31.1839L42.4016 76.0493H59.5004L42.6651 52.3364L54.0085 36.3694L53.6572 35.3594L41.5964 52.3362L57.8132 75.178H42.8564Z" fill="white"/>
<path d="M30.087 46.5064H27.836V28.867H14.4058V29.7383H26.9647V47.3777H30.5413L42.8564 29.7383H58.7195L59.3385 28.867H42.402L30.087 46.5064Z" fill="white"/>
<path d="M7.25282 78.0571C6.92314 78.0571 6.64041 77.9708 6.40465 77.7983C6.17081 77.6258 5.99159 77.3766 5.867 77.0508C5.74433 76.723 5.68299 76.3262 5.68299 75.8605C5.68299 75.3966 5.74529 75.0008 5.86988 74.673C5.99447 74.3434 6.17368 74.0923 6.40753 73.9198C6.64329 73.7453 6.92505 73.6581 7.25282 73.6581C7.5825 73.6581 7.86426 73.7453 8.09811 73.9198C8.33387 74.0923 8.51309 74.3434 8.63576 74.673C8.76035 75.0008 8.82264 75.3966 8.82264 75.8605C8.82264 76.3262 8.76131 76.723 8.63863 77.0508C8.51596 77.3766 8.3377 77.6258 8.10386 77.7983C7.87001 77.9708 7.58633 78.0571 7.25282 78.0571ZM7.25282 77.505C7.45408 77.505 7.62371 77.4408 7.76172 77.3124C7.89972 77.184 8.00515 76.9971 8.07798 76.7518C8.15082 76.5045 8.18724 76.2074 8.18724 75.8605C8.18724 75.5116 8.15082 75.2145 8.07798 74.9692C8.00515 74.7219 7.89972 74.5341 7.76172 74.4056C7.62371 74.2753 7.45408 74.2101 7.25282 74.2101C6.95572 74.2101 6.72571 74.3549 6.56278 74.6443C6.40178 74.9318 6.32127 75.3372 6.32127 75.8605C6.32127 76.2074 6.35769 76.5045 6.43053 76.7518C6.50337 76.9971 6.60879 77.184 6.74679 77.3124C6.88672 77.4408 7.05539 77.505 7.25282 77.505ZM9.32292 77.9996V77.5338L10.772 76.0272C10.9253 75.8662 11.0518 75.7244 11.1515 75.6017C11.2531 75.4771 11.3288 75.3592 11.3786 75.2481C11.4304 75.1369 11.4563 75.019 11.4563 74.8944C11.4563 74.7507 11.4227 74.627 11.3556 74.5235C11.2886 74.42 11.1975 74.3405 11.0825 74.2849C10.9675 74.2293 10.8372 74.2015 10.6915 74.2015C10.5381 74.2015 10.4049 74.2331 10.2918 74.2964C10.1788 74.3577 10.0906 74.4459 10.0273 74.5609C9.96599 74.674 9.93532 74.8072 9.93532 74.9606H9.32004C9.32004 74.6999 9.37946 74.4718 9.4983 74.2763C9.61906 74.0808 9.7839 73.9293 9.99283 73.822C10.2037 73.7127 10.4413 73.6581 10.7059 73.6581C10.9761 73.6581 11.2138 73.7118 11.4189 73.8191C11.624 73.9265 11.784 74.0721 11.899 74.2561C12.014 74.4382 12.0716 74.6443 12.0716 74.8743C12.0716 75.0334 12.0418 75.1886 11.9824 75.3401C11.9249 75.4915 11.8224 75.6611 11.6748 75.849C11.5291 76.0349 11.3259 76.2592 11.0653 76.5218L10.2142 77.413V77.4475H12.1406V77.9996H9.32292Z" fill="white"/>
<path d="M73.4738 71.0866C73.1441 71.0866 72.8614 71.0003 72.6257 70.8278C72.3918 70.6553 72.2126 70.4061 72.088 70.0803C71.9653 69.7525 71.904 69.3557 71.904 68.8899C71.904 68.4261 71.9663 68.0303 72.0909 67.7025C72.2155 67.3728 72.3947 67.1217 72.6285 66.9492C72.8643 66.7748 73.1461 66.6876 73.4738 66.6876C73.8035 66.6876 74.0853 66.7748 74.3191 66.9492C74.5549 67.1217 74.7341 67.3728 74.8568 67.7025C74.9814 68.0303 75.0437 68.4261 75.0437 68.8899C75.0437 69.3557 74.9823 69.7525 74.8596 70.0803C74.737 70.4061 74.5587 70.6553 74.3249 70.8278C74.091 71.0003 73.8073 71.0866 73.4738 71.0866ZM73.4738 70.5345C73.6751 70.5345 73.8447 70.4703 73.9827 70.3419C74.1207 70.2135 74.2262 70.0266 74.299 69.7812C74.3718 69.534 74.4082 69.2369 74.4082 68.8899C74.4082 68.5411 74.3718 68.244 74.299 67.9987C74.2262 67.7514 74.1207 67.5636 73.9827 67.4351C73.8447 67.3048 73.6751 67.2396 73.4738 67.2396C73.1767 67.2396 72.9467 67.3843 72.7838 67.6738C72.6228 67.9613 72.5423 68.3667 72.5423 68.8899C72.5423 69.2369 72.5787 69.534 72.6515 69.7812C72.7244 70.0266 72.8298 70.2135 72.9678 70.3419C73.1077 70.4703 73.2764 70.5345 73.4738 70.5345ZM77.0361 71.0866C76.7467 71.0866 76.4898 71.0377 76.2656 70.9399C76.0413 70.8403 75.864 70.7022 75.7337 70.5259C75.6033 70.3496 75.5343 70.1454 75.5267 69.9135H76.1765C76.186 70.04 76.2292 70.1493 76.3058 70.2413C76.3825 70.3333 76.4831 70.4051 76.6077 70.4569C76.7342 70.5067 76.8751 70.5317 77.0304 70.5317C77.199 70.5317 77.3486 70.5019 77.4789 70.4425C77.6092 70.3831 77.7108 70.3016 77.7837 70.1981C77.8584 70.0927 77.8958 69.971 77.8958 69.833C77.8958 69.6892 77.8594 69.5627 77.7865 69.4535C77.7137 69.3423 77.6073 69.2561 77.4674 69.1947C77.3275 69.1334 77.1588 69.1027 76.9614 69.1027H76.5962V68.5737H76.9614C77.1185 68.5737 77.2575 68.5449 77.3783 68.4874C77.499 68.4299 77.5929 68.3504 77.66 68.2488C77.729 68.1472 77.7635 68.0274 77.7635 67.8894C77.7635 67.7571 77.7338 67.6421 77.6744 67.5444C77.615 67.4447 77.5316 67.368 77.4243 67.3144C77.3169 67.2588 77.1904 67.231 77.0447 67.231C76.9048 67.231 76.7745 67.2559 76.6537 67.3057C76.533 67.3556 76.4343 67.4275 76.3576 67.5214C76.2828 67.6134 76.2435 67.7255 76.2397 67.8578H75.6158C75.6216 67.6258 75.6886 67.4227 75.8171 67.2482C75.9474 67.0719 76.1199 66.9349 76.3346 66.8371C76.5512 66.7374 76.7908 66.6876 77.0534 66.6876C77.3275 66.6876 77.5642 66.7413 77.7635 66.8486C77.9648 66.954 78.1201 67.0959 78.2293 67.2741C78.3386 67.4505 78.3932 67.6431 78.3932 67.852C78.3932 68.0955 78.3261 68.3005 78.1919 68.4673C78.0578 68.6321 77.8785 68.7443 77.6543 68.8037V68.8353C77.938 68.8794 78.1574 68.9925 78.3127 69.1746C78.4699 69.3567 78.5484 69.5829 78.5484 69.8531C78.5484 70.0889 78.4823 70.2997 78.3501 70.4857C78.2197 70.6716 78.0405 70.8182 77.8124 70.9255C77.5862 71.0329 77.3275 71.0866 77.0361 71.0866Z" fill="white"/>
<path d="M76.5202 31.007C76.1905 31.007 75.9077 30.9207 75.672 30.7482C75.4381 30.5757 75.2589 30.3265 75.1343 30.0007C75.0117 29.6729 74.9503 29.2761 74.9503 28.8104C74.9503 28.3465 75.0126 27.9507 75.1372 27.6229C75.2618 27.2932 75.441 27.0421 75.6749 26.8696C75.9106 26.6952 76.1924 26.608 76.5202 26.608C76.8498 26.608 77.1316 26.6952 77.3654 26.8696C77.6012 27.0421 77.7804 27.2932 77.9031 27.6229C78.0277 27.9507 78.09 28.3465 78.09 28.8104C78.09 29.2761 78.0286 29.6729 77.906 30.0007C77.7833 30.3265 77.605 30.5757 77.3712 30.7482C77.1373 30.9207 76.8537 31.007 76.5202 31.007ZM76.5202 30.4549C76.7214 30.4549 76.891 30.3907 77.0291 30.2623C77.1671 30.1339 77.2725 29.947 77.3453 29.7017C77.4182 29.4544 77.4546 29.1573 77.4546 28.8104C77.4546 28.4615 77.4182 28.1644 77.3453 27.9191C77.2725 27.6718 77.1671 27.484 77.0291 27.3555C76.891 27.2252 76.7214 27.16 76.5202 27.16C76.2231 27.16 75.993 27.3047 75.8301 27.5942C75.6691 27.8817 75.5886 28.2871 75.5886 28.8104C75.5886 29.1573 75.625 29.4544 75.6979 29.7017C75.7707 29.947 75.8761 30.1339 76.0141 30.2623C76.1541 30.3907 76.3227 30.4549 76.5202 30.4549ZM78.504 30.1128V29.5924L80.3527 26.6655H80.7639V27.436H80.4993L79.1768 29.5291V29.5636H81.7155V30.1128H78.504ZM80.5281 30.9495V29.9547L80.5338 29.716V26.6655H81.1491V30.9495H80.5281Z" fill="white"/>
<path d="M92.6388 59.7598C92.3092 59.7598 92.0264 59.6736 91.7907 59.5011C91.5568 59.3286 91.3776 59.0794 91.253 58.7535C91.1303 58.4258 91.069 58.029 91.069 57.5632C91.069 57.0994 91.1313 56.7036 91.2559 56.3758C91.3805 56.0461 91.5597 55.795 91.7935 55.6225C92.0293 55.4481 92.3111 55.3609 92.6388 55.3609C92.9685 55.3609 93.2503 55.4481 93.4841 55.6225C93.7199 55.795 93.8991 56.0461 94.0218 56.3758C94.1464 56.7036 94.2087 57.0994 94.2087 57.5632C94.2087 58.029 94.1473 58.4258 94.0247 58.7535C93.902 59.0794 93.7237 59.3286 93.4899 59.5011C93.256 59.6736 92.9724 59.7598 92.6388 59.7598ZM92.6388 59.2078C92.8401 59.2078 93.0097 59.1436 93.1477 59.0152C93.2857 58.8868 93.3912 58.6999 93.464 58.4545C93.5368 58.2073 93.5733 57.9102 93.5733 57.5632C93.5733 57.2144 93.5368 56.9173 93.464 56.6719C93.3912 56.4247 93.2857 56.2368 93.1477 56.1084C93.0097 55.9781 92.8401 55.9129 92.6388 55.9129C92.3417 55.9129 92.1117 56.0576 91.9488 56.347C91.7878 56.6346 91.7073 57.04 91.7073 57.5632C91.7073 57.9102 91.7437 58.2073 91.8165 58.4545C91.8894 58.6999 91.9948 58.8868 92.1328 59.0152C92.2727 59.1436 92.4414 59.2078 92.6388 59.2078ZM96.1235 59.7598C95.8609 59.7598 95.6251 59.71 95.4162 59.6103C95.2092 59.5087 95.0434 59.3698 94.9188 59.1934C94.7942 59.0152 94.7281 58.813 94.7204 58.5868H95.3472C95.3625 58.7689 95.444 58.9193 95.5916 59.0382C95.7392 59.157 95.9165 59.2164 96.1235 59.2164C96.2883 59.2164 96.434 59.1781 96.5605 59.1014C96.687 59.0248 96.7867 58.9203 96.8595 58.788C96.9324 58.6539 96.9688 58.5005 96.9688 58.328C96.9688 58.1555 96.9314 58.0012 96.8567 57.8651C96.7819 57.7271 96.6784 57.6188 96.5461 57.5402C96.4158 57.4616 96.2653 57.4223 96.0948 57.4223C95.9644 57.4223 95.8341 57.4453 95.7037 57.4914C95.5734 57.5354 95.468 57.5929 95.3875 57.6639L94.7923 57.5776L95.0338 55.4184H97.3886V55.9733H95.5744L95.4392 57.1722H95.4622C95.5446 57.0898 95.6549 57.0227 95.7929 56.971C95.9328 56.9173 96.0833 56.8904 96.2443 56.8904C96.5049 56.8904 96.7369 56.9527 96.94 57.0773C97.1451 57.2 97.3061 57.3687 97.4231 57.5834C97.54 57.7961 97.5984 58.0405 97.5984 58.3165C97.5984 58.5944 97.5352 58.8427 97.4087 59.0612C97.2822 59.2778 97.1078 59.4484 96.8854 59.573C96.665 59.6975 96.411 59.7598 96.1235 59.7598Z" fill="white"/>
<path d="M92.6388 84.5917C92.3092 84.5917 92.0264 84.5054 91.7907 84.3329C91.5568 84.1604 91.3776 83.9112 91.253 83.5854C91.1303 83.2576 91.069 82.8608 91.069 82.3951C91.069 81.9312 91.1313 81.5354 91.2559 81.2076C91.3805 80.878 91.5597 80.6269 91.7935 80.4544C92.0293 80.2799 92.3111 80.1927 92.6388 80.1927C92.9685 80.1927 93.2503 80.2799 93.4841 80.4544C93.7199 80.6269 93.8991 80.878 94.0218 81.2076C94.1464 81.5354 94.2087 81.9312 94.2087 82.3951C94.2087 82.8608 94.1473 83.2576 94.0247 83.5854C93.902 83.9112 93.7237 84.1604 93.4899 84.3329C93.256 84.5054 92.9724 84.5917 92.6388 84.5917ZM92.6388 84.0397C92.8401 84.0397 93.0097 83.9754 93.1477 83.847C93.2857 83.7186 93.3912 83.5317 93.464 83.2864C93.5368 83.0391 93.5733 82.742 93.5733 82.3951C93.5733 82.0462 93.5368 81.7491 93.464 81.5038C93.3912 81.2565 93.2857 81.0687 93.1477 80.9403C93.0097 80.8099 92.8401 80.7447 92.6388 80.7447C92.3417 80.7447 92.1117 80.8895 91.9488 81.1789C91.7878 81.4664 91.7073 81.8718 91.7073 82.3951C91.7073 82.742 91.7437 83.0391 91.8165 83.2864C91.8894 83.5317 91.9948 83.7186 92.1328 83.847C92.2727 83.9754 92.4414 84.0397 92.6388 84.0397ZM96.1925 84.5917C96.0027 84.5917 95.8149 84.5581 95.629 84.4911C95.4431 84.424 95.2753 84.3128 95.1258 84.1575C94.9763 84.0004 94.8556 83.7895 94.7636 83.525C94.6735 83.2605 94.6284 82.9318 94.6284 82.5388C94.6284 82.1651 94.6658 81.8335 94.7406 81.544C94.8172 81.2527 94.9255 81.0073 95.0655 80.808C95.2073 80.6067 95.3779 80.4544 95.5772 80.3509C95.7766 80.2454 96.0008 80.1927 96.25 80.1927C96.5049 80.1927 96.7311 80.2435 96.9285 80.3451C97.126 80.4448 97.286 80.5828 97.4087 80.7591C97.5333 80.9355 97.6109 81.1367 97.6416 81.3629H97.009C96.965 81.1846 96.8787 81.0399 96.7503 80.9288C96.6219 80.8157 96.4551 80.7591 96.25 80.7591C95.9357 80.7591 95.6903 80.8962 95.514 81.1703C95.3395 81.4424 95.2523 81.822 95.2523 82.3088H95.284C95.3587 82.1881 95.4498 82.0846 95.5571 81.9983C95.6644 81.9101 95.7842 81.8431 95.9165 81.797C96.0507 81.751 96.1935 81.728 96.3449 81.728C96.5922 81.728 96.8164 81.7884 97.0177 81.9092C97.2208 82.0299 97.3819 82.1967 97.5007 82.4095C97.6214 82.6203 97.6818 82.8628 97.6818 83.1369C97.6818 83.409 97.6195 83.6553 97.4949 83.8758C97.3723 84.0962 97.1988 84.2706 96.9745 84.399C96.7522 84.5275 96.4915 84.5917 96.1925 84.5917ZM96.1896 84.0483C96.3545 84.0483 96.5011 84.008 96.6295 83.9275C96.7599 83.847 96.8634 83.7387 96.94 83.6026C97.0167 83.4646 97.055 83.3113 97.055 83.1426C97.055 82.9778 97.0177 82.8283 96.9429 82.6941C96.8701 82.5599 96.7695 82.4535 96.641 82.375C96.5145 82.2944 96.3688 82.2542 96.204 82.2542C96.0411 82.2542 95.8935 82.2954 95.7612 82.3778C95.629 82.4602 95.5236 82.5695 95.445 82.7056C95.3683 82.8417 95.33 82.9893 95.33 83.1484C95.33 83.3075 95.3673 83.456 95.4421 83.594C95.5168 83.732 95.6184 83.8422 95.7469 83.9247C95.8772 84.0071 96.0248 84.0483 96.1896 84.0483Z" fill="white"/>
<path d="M172.8 84.1561C172.47 84.1561 172.187 84.0699 171.952 83.8974C171.718 83.7249 171.539 83.4757 171.414 83.1498C171.291 82.8221 171.23 82.4253 171.23 81.9595C171.23 81.4957 171.292 81.0999 171.417 80.7721C171.541 80.4424 171.721 80.1913 171.954 80.0188C172.19 79.8444 172.472 79.7572 172.8 79.7572C173.129 79.7572 173.411 79.8444 173.645 80.0188C173.881 80.1913 174.06 80.4424 174.183 80.7721C174.307 81.0999 174.37 81.4957 174.37 81.9595C174.37 82.4253 174.308 82.8221 174.186 83.1498C174.063 83.4757 173.885 83.7249 173.651 83.8974C173.417 84.0699 173.133 84.1561 172.8 84.1561ZM172.8 83.6041C173.001 83.6041 173.171 83.5399 173.309 83.4115C173.447 83.2831 173.552 83.0962 173.625 82.8508C173.698 82.6036 173.734 82.3065 173.734 81.9595C173.734 81.6107 173.698 81.3136 173.625 81.0682C173.552 80.821 173.447 80.6331 173.309 80.5047C173.171 80.3744 173.001 80.3092 172.8 80.3092C172.503 80.3092 172.273 80.4539 172.11 80.7433C171.949 81.0309 171.868 81.4363 171.868 81.9595C171.868 82.3065 171.905 82.6036 171.977 82.8508C172.05 83.0962 172.156 83.2831 172.294 83.4115C172.434 83.5399 172.602 83.6041 172.8 83.6041ZM174.899 84.0986L176.767 80.4012V80.3696H174.605V79.8147H177.44V80.3926L175.574 84.0986H174.899Z" fill="white"/>
<path d="M184.996 84.1561C184.667 84.1561 184.384 84.0699 184.148 83.8974C183.914 83.7249 183.735 83.4757 183.61 83.1498C183.488 82.8221 183.426 82.4253 183.426 81.9595C183.426 81.4957 183.489 81.0999 183.613 80.7721C183.738 80.4424 183.917 80.1913 184.151 80.0188C184.387 79.8444 184.668 79.7572 184.996 79.7572C185.326 79.7572 185.608 79.8444 185.842 80.0188C186.077 80.1913 186.256 80.4424 186.379 80.7721C186.504 81.0999 186.566 81.4957 186.566 81.9595C186.566 82.4253 186.505 82.8221 186.382 83.1498C186.259 83.4757 186.081 83.7249 185.847 83.8974C185.613 84.0699 185.33 84.1561 184.996 84.1561ZM184.996 83.6041C185.197 83.6041 185.367 83.5399 185.505 83.4115C185.643 83.2831 185.749 83.0962 185.821 82.8508C185.894 82.6036 185.931 82.3065 185.931 81.9595C185.931 81.6107 185.894 81.3136 185.821 81.0682C185.749 80.821 185.643 80.6331 185.505 80.5047C185.367 80.3744 185.197 80.3092 184.996 80.3092C184.699 80.3092 184.469 80.4539 184.306 80.7433C184.145 81.0309 184.065 81.4363 184.065 81.9595C184.065 82.3065 184.101 82.6036 184.174 82.8508C184.247 83.0962 184.352 83.2831 184.49 83.4115C184.63 83.5399 184.799 83.6041 184.996 83.6041ZM188.51 84.1561C188.211 84.1561 187.946 84.1044 187.716 84.0009C187.488 83.8974 187.309 83.7555 187.178 83.5754C187.05 83.3933 186.986 83.1863 186.986 82.9543C186.986 82.7761 187.023 82.6103 187.098 82.4569C187.175 82.3036 187.278 82.1761 187.408 82.0745C187.539 81.9729 187.685 81.9078 187.848 81.879V81.8531C187.636 81.8014 187.464 81.6874 187.334 81.511C187.205 81.3327 187.141 81.1296 187.141 80.9015C187.141 80.6811 187.2 80.4846 187.316 80.3121C187.435 80.1396 187.597 80.0044 187.802 79.9067C188.009 79.807 188.245 79.7572 188.51 79.7572C188.77 79.7572 189.003 79.807 189.208 79.9067C189.415 80.0044 189.577 80.1396 189.694 80.3121C189.813 80.4846 189.872 80.6811 189.872 80.9015C189.872 81.1296 189.807 81.3327 189.677 81.511C189.549 81.6874 189.38 81.8014 189.171 81.8531V81.879C189.332 81.9078 189.478 81.9729 189.608 82.0745C189.738 82.1761 189.842 82.3036 189.918 82.4569C189.995 82.6103 190.033 82.7761 190.033 82.9543C190.033 83.1863 189.968 83.3933 189.838 83.5754C189.708 83.7555 189.527 83.8974 189.297 84.0009C189.069 84.1044 188.807 84.1561 188.51 84.1561ZM188.51 83.6271C188.686 83.6271 188.839 83.5984 188.97 83.5409C189.1 83.4814 189.201 83.3981 189.272 83.2907C189.342 83.1834 189.378 83.0588 189.378 82.917C189.378 82.7674 189.34 82.6361 189.263 82.5231C189.188 82.4081 189.086 82.318 188.955 82.2528C188.825 82.1857 188.676 82.1522 188.51 82.1522C188.341 82.1522 188.19 82.1847 188.058 82.2499C187.928 82.3151 187.825 82.4052 187.751 82.5202C187.676 82.6352 187.638 82.7674 187.638 82.917C187.638 83.0588 187.674 83.1834 187.745 83.2907C187.816 83.3981 187.916 83.4814 188.047 83.5409C188.177 83.5984 188.331 83.6271 188.51 83.6271ZM188.51 81.6375C188.651 81.6375 188.777 81.6088 188.886 81.5513C188.997 81.4938 189.085 81.4142 189.148 81.3126C189.213 81.211 189.246 81.0922 189.246 80.9561C189.246 80.8219 189.214 80.705 189.151 80.6053C189.089 80.5057 189.003 80.428 188.892 80.3725C188.783 80.3169 188.655 80.2891 188.51 80.2891C188.362 80.2891 188.233 80.3169 188.121 80.3725C188.01 80.428 187.924 80.5057 187.863 80.6053C187.801 80.705 187.771 80.8219 187.771 80.9561C187.771 81.0922 187.802 81.211 187.866 81.3126C187.929 81.4142 188.015 81.4938 188.124 81.5513C188.236 81.6088 188.364 81.6375 188.51 81.6375Z" fill="white"/>
<path d="M218.977 24.9079C218.647 24.9079 218.365 24.8217 218.129 24.6491C217.895 24.4766 217.716 24.2275 217.591 23.9016C217.469 23.5738 217.407 23.1771 217.407 22.7113C217.407 22.2474 217.47 21.8516 217.594 21.5239C217.719 21.1942 217.898 20.9431 218.132 20.7706C218.368 20.5962 218.649 20.5089 218.977 20.5089C219.307 20.5089 219.589 20.5962 219.822 20.7706C220.058 20.9431 220.237 21.1942 220.36 21.5239C220.485 21.8516 220.547 22.2474 220.547 22.7113C220.547 23.1771 220.486 23.5738 220.363 23.9016C220.24 24.2275 220.062 24.4766 219.828 24.6491C219.594 24.8217 219.311 24.9079 218.977 24.9079ZM218.977 24.3559C219.178 24.3559 219.348 24.2917 219.486 24.1632C219.624 24.0348 219.729 23.8479 219.802 23.6026C219.875 23.3553 219.911 23.0582 219.911 22.7113C219.911 22.3624 219.875 22.0654 219.802 21.82C219.729 21.5727 219.624 21.3849 219.486 21.2565C219.348 21.1261 219.178 21.061 218.977 21.061C218.68 21.061 218.45 21.2057 218.287 21.4951C218.126 21.7826 218.046 22.188 218.046 22.7113C218.046 23.0582 218.082 23.3553 218.155 23.6026C218.228 23.8479 218.333 24.0348 218.471 24.1632C218.611 24.2917 218.78 24.3559 218.977 24.3559ZM222.456 20.5061C222.648 20.508 222.836 20.5434 223.02 20.6124C223.205 20.6795 223.373 20.7907 223.523 20.946C223.674 21.1012 223.795 21.3111 223.885 21.5756C223.975 21.8382 224.02 22.166 224.02 22.5589C224.02 22.9327 223.983 23.2652 223.908 23.5566C223.833 23.8479 223.725 24.0942 223.583 24.2955C223.443 24.4968 223.273 24.6501 223.074 24.7555C222.875 24.859 222.652 24.9108 222.404 24.9108C222.149 24.9108 221.922 24.86 221.723 24.7584C221.523 24.6568 221.362 24.5178 221.24 24.3415C221.117 24.1632 221.04 23.9591 221.007 23.7291H221.645C221.687 23.9112 221.773 24.0597 221.901 24.1747C222.031 24.2878 222.199 24.3444 222.404 24.3444C222.717 24.3444 222.96 24.2073 223.135 23.9332C223.311 23.6591 223.4 23.2767 223.402 22.7861H223.37C223.296 22.9068 223.204 23.0113 223.097 23.0994C222.99 23.1857 222.869 23.2518 222.735 23.2978C222.601 23.3438 222.459 23.3668 222.309 23.3668C222.06 23.3668 221.834 23.3065 221.631 23.1857C221.428 23.0649 221.267 22.8991 221.148 22.6883C221.029 22.4755 220.969 22.2331 220.967 21.9609C220.969 21.6887 221.031 21.4424 221.154 21.222C221.278 21.0016 221.452 20.8271 221.674 20.6987C221.896 20.5684 222.157 20.5042 222.456 20.5061ZM222.459 21.0523C222.296 21.0523 222.149 21.0926 222.019 21.1731C221.889 21.2536 221.786 21.3619 221.711 21.498C221.637 21.6341 221.599 21.7855 221.599 21.9523C221.599 22.119 221.635 22.2695 221.706 22.4037C221.778 22.5378 221.879 22.6452 222.007 22.7257C222.136 22.8043 222.282 22.8436 222.444 22.8436C222.609 22.8436 222.757 22.8023 222.887 22.7199C223.02 22.6356 223.125 22.5254 223.204 22.3893C223.282 22.2513 223.321 22.1027 223.321 21.9436C223.321 21.7865 223.284 21.6398 223.209 21.5037C223.135 21.3677 223.032 21.2584 222.902 21.176C222.773 21.0936 222.626 21.0523 222.459 21.0523Z" fill="white"/>
<path d="M235.153 20.5664V24.8504H234.515V21.2162H234.486L233.468 21.8861V21.2651L234.532 20.5664H235.153ZM237.275 24.9079C236.945 24.9079 236.663 24.8217 236.427 24.6491C236.193 24.4766 236.014 24.2275 235.889 23.9016C235.767 23.5738 235.705 23.1771 235.705 22.7113C235.705 22.2474 235.768 21.8516 235.892 21.5239C236.017 21.1942 236.196 20.9431 236.43 20.7706C236.666 20.5962 236.947 20.5089 237.275 20.5089C237.605 20.5089 237.887 20.5962 238.12 20.7706C238.356 20.9431 238.535 21.1942 238.658 21.5239C238.783 21.8516 238.845 22.2474 238.845 22.7113C238.845 23.1771 238.784 23.5738 238.661 23.9016C238.538 24.2275 238.36 24.4766 238.126 24.6491C237.892 24.8217 237.609 24.9079 237.275 24.9079ZM237.275 24.3559C237.476 24.3559 237.646 24.2917 237.784 24.1632C237.922 24.0348 238.027 23.8479 238.1 23.6026C238.173 23.3553 238.21 23.0582 238.21 22.7113C238.21 22.3624 238.173 22.0654 238.1 21.82C238.027 21.5727 237.922 21.3849 237.784 21.2565C237.646 21.1261 237.476 21.061 237.275 21.061C236.978 21.061 236.748 21.2057 236.585 21.4951C236.424 21.7826 236.344 22.188 236.344 22.7113C236.344 23.0582 236.38 23.3553 236.453 23.6026C236.526 23.8479 236.631 24.0348 236.769 24.1632C236.909 24.2917 237.078 24.3559 237.275 24.3559Z" fill="white"/>
<path d="M8.12599 31.007C7.7963 31.007 7.51358 30.9207 7.27782 30.7482C7.04398 30.5757 6.86476 30.3265 6.74017 30.0007C6.6175 29.6729 6.55616 29.2761 6.55616 28.8104C6.55616 28.3465 6.61846 27.9507 6.74305 27.6229C6.86763 27.2932 7.04685 27.0421 7.2807 26.8696C7.51646 26.6952 7.79822 26.608 8.12599 26.608C8.45567 26.608 8.73743 26.6952 8.97128 26.8696C9.20704 27.0421 9.38626 27.2932 9.50893 27.6229C9.63352 27.9507 9.69581 28.3465 9.69581 28.8104C9.69581 29.2761 9.63448 29.6729 9.5118 30.0007C9.38913 30.3265 9.21087 30.5757 8.97703 30.7482C8.74318 30.9207 8.4595 31.007 8.12599 31.007ZM8.12599 30.4549C8.32725 30.4549 8.49688 30.3907 8.63489 30.2623C8.77289 30.1339 8.87831 29.947 8.95115 29.7017C9.02399 29.4544 9.06041 29.1573 9.06041 28.8104C9.06041 28.4615 9.02399 28.1644 8.95115 27.9191C8.87831 27.6718 8.77289 27.484 8.63489 27.3555C8.49688 27.2252 8.32725 27.16 8.12599 27.16C7.82889 27.16 7.59888 27.3047 7.43595 27.5942C7.27495 27.8817 7.19444 28.2871 7.19444 28.8104C7.19444 29.1573 7.23086 29.4544 7.3037 29.7017C7.37653 29.947 7.48196 30.1339 7.61996 30.2623C7.75989 30.3907 7.92856 30.4549 8.12599 30.4549ZM11.7429 26.6655V30.9495H11.1046V27.3153H11.0759L10.0581 27.9852V27.3642L11.1219 26.6655H11.7429Z" fill="white"/>
<circle cx="15.4951" cy="29.4346" r="1.30695" fill="white"/>
<circle cx="15.4951" cy="75.6133" r="1.30695" fill="white"/>
<circle cx="75.1799" cy="63.4152" r="1.30695" fill="white"/>
<circle cx="84.3272" cy="29.4346" r="1.30695" fill="white"/>
<circle cx="94.7828" cy="64.7221" r="1.30695" fill="white"/>
<circle cx="94.7828" cy="75.6133" r="1.30695" fill="white"/>
<circle cx="174.509" cy="62.1084" r="1.30695" fill="white"/>
<circle cx="187.14" cy="62.1084" r="1.30695" fill="white"/>
<circle cx="220.248" cy="30.306" r="1.30695" fill="white"/>
<circle cx="236.369" cy="29.4346" r="1.30695" fill="white"/>
</svg>
