<svg width="1322" height="663" viewBox="0 0 1322 663" fill="none" xmlns="http://www.w3.org/2000/svg">
<path d="M425.176 293.475C403.176 415.975 359.677 454.32 321.676 476.975C295.676 492.475 251.765 486.096 236.176 486.096C162.537 486.096 39.5415 464.518 16.676 394.475C-22.3246 317.975 18.1763 226.475 64.6761 181.475C82.6159 161.685 119.176 142.475 147.176 135.975M428.676 269.975C461.066 185.592 493.176 128.475 545.676 94.4748C598.176 60.4748 645.022 63.9748 685.176 63.9748C715.676 69.9748 733.212 74.5942 754.676 98.4747C780.664 132.475 751.176 178.475 751.176 178.475C751.176 178.475 728.176 211.475 710.176 234.475M1178.68 365.475C1181.18 417.475 1171.18 483.975 1154.18 508.475C1092.5 597.36 975.675 639.975 922.675 649.475C855.175 661.574 786.176 661.975 728.676 658.975C674.176 647.975 655.382 647.475 619.676 610.975C574.677 564.974 607.903 459.606 619.676 423.975L655.176 334.475M1176.18 278.975C1171.18 224.975 1137.18 172.475 1112.68 114.475C1083.88 46.3036 1157.48 -13.6254 1220.68 3.97464C1283.88 21.5746 1304.51 41.6414 1316.68 63.9748" stroke="#131313" stroke-width="1.5" stroke-linecap="round"/>
<ellipse cx="202.971" cy="486.475" rx="4.29495" ry="4" fill="#131313"/>
<circle cx="514.176" cy="117.975" r="4.5" fill="#131313"/>
<ellipse cx="726.971" cy="658.475" rx="4.29495" ry="4" fill="#131313"/>
<ellipse cx="1088.97" cy="575.476" rx="4.29495" ry="4" fill="#131313"/>
<ellipse cx="1316.97" cy="66.4746" rx="4.29495" ry="4" fill="#131313"/>
</svg>
