<svg width="770" height="183" viewBox="0 0 770 183" fill="none" xmlns="http://www.w3.org/2000/svg">
<path fill-rule="evenodd" clip-rule="evenodd" d="M695.39 136.697C702.861 140.88 711.735 142.972 722.014 142.972C730.261 142.972 737.523 141.717 743.798 139.207C750.073 136.637 755.182 133.081 759.127 128.54C762.697 124.437 765.174 119.716 766.559 114.378C766.727 113.729 766.879 113.071 767.015 112.404L741.377 110.701C740.481 113.151 739.106 115.243 737.254 116.976C735.461 118.709 733.309 120.023 730.799 120.92C728.289 121.816 725.481 122.265 722.373 122.265C717.891 122.265 713.917 121.249 710.45 119.217C707.044 117.125 704.385 114.167 702.472 110.342C700.998 107.347 700.092 103.89 699.754 99.9713C699.698 99.3175 699.657 98.6508 699.633 97.9713H767.911V90.4413C767.911 81.8954 766.716 74.455 764.326 68.1202C761.935 61.7257 758.589 56.4368 754.286 52.2535C749.983 48.0104 744.963 44.843 739.226 42.7513C733.489 40.5999 727.303 39.5242 720.67 39.5242C710.869 39.5242 702.323 41.7055 695.032 46.0681C687.801 50.4307 682.183 56.4966 678.179 64.2656C674.235 72.0346 672.263 81.0587 672.263 91.3377C672.263 101.916 674.235 111.089 678.179 118.858C682.183 126.567 687.92 132.514 695.39 136.697ZM739.92 40.8758C733.943 38.6354 727.52 37.5242 720.67 37.5242C710.564 37.5242 701.651 39.7766 694.005 44.3519L693.999 44.3556C686.439 48.9165 680.569 55.2631 676.401 63.3493L676.396 63.3602C672.285 71.4561 670.263 80.8004 670.263 91.3377C670.263 102.164 672.282 111.66 676.396 119.763L676.4 119.772L676.404 119.78C680.585 127.83 686.597 134.065 694.413 138.442C702.237 142.823 711.462 144.972 722.014 144.972C730.461 144.972 737.983 143.687 744.54 141.064L744.548 141.061L744.556 141.058C751.083 138.385 756.462 134.658 760.637 129.851C764.873 124.981 767.653 119.286 768.975 112.803L769.432 110.56L740.014 108.606L739.499 110.013C738.707 112.178 737.504 114.002 735.887 115.515L735.875 115.526L735.864 115.538C734.289 117.059 732.387 118.229 730.127 119.036C727.865 119.844 725.289 120.265 722.373 120.265C718.212 120.265 714.601 119.327 711.48 117.502C708.424 115.621 706.018 112.959 704.264 109.454C702.939 106.761 702.093 103.61 701.762 99.9713H769.911V90.4413C769.911 81.7148 768.692 74.0251 766.197 67.4141C763.718 60.7859 760.224 55.2387 755.685 50.8247C751.179 46.3826 745.918 43.064 739.92 40.8758ZM700.017 78.8495C700.42 76.3381 701.119 74.0166 702.114 71.8852C703.787 68.2995 706.177 65.4608 709.285 63.3692C712.452 61.2775 716.307 60.2317 720.849 60.2317C725.391 60.2317 729.186 61.2775 732.234 63.3692C735.341 65.4011 737.672 68.2995 739.226 72.0645C740.078 74.1286 740.696 76.3903 741.081 78.8495C741.183 79.5023 741.269 80.1689 741.338 80.8495H699.762C699.827 80.17 699.911 79.5033 700.017 78.8495ZM702.044 78.8495C702.427 76.6278 703.058 74.5911 703.926 72.731C705.453 69.459 707.608 66.9114 710.392 65.0348C713.172 63.2006 716.623 62.2317 720.849 62.2317C725.08 62.2317 728.457 63.2028 731.102 65.0182L731.12 65.0309L731.139 65.0431C733.877 66.833 735.961 69.3975 737.377 72.8275C738.127 74.6457 738.69 76.6508 739.055 78.8495H702.044Z" fill="black"/>
<path fill-rule="evenodd" clip-rule="evenodd" d="M552.991 170.313H580.153V141H641.379V170.313H667.913V119.038H652.315V40.7793H575.581L572.892 73.6782C572.533 78.5787 572.085 83.4194 571.547 88.2004C571.069 92.9813 570.382 97.4635 569.485 101.647C568.649 105.77 567.513 109.356 566.079 112.404C564.645 115.392 562.852 117.603 560.7 119.038H552.991V170.313ZM560.064 117.038H550.991V172.313H582.153V143H639.379V172.313H669.913V117.038H654.315V40.7793H573.999L570.898 73.5153L570.898 73.5238L570.897 73.5323C570.54 78.4074 570.094 83.2222 569.56 87.9768L569.558 87.9891L569.557 88.0014C569.085 92.7172 568.409 97.1253 567.53 101.228L567.527 101.238L567.525 101.249C566.714 105.25 565.623 108.674 564.272 111.545C563.07 114.049 561.651 115.842 560.064 117.038ZM588.4 119.038C588.811 118.397 589.206 117.73 589.586 117.038C591.972 112.691 593.758 107.322 594.944 100.93C596.318 93.4594 597.364 84.3756 598.081 73.6782L599.157 62.2039H626.14V119.038H588.4ZM591.85 117.038H624.14V64.2039H600.978L600.077 73.812C600.076 73.8206 600.076 73.8292 600.075 73.8378C599.355 84.5722 598.302 93.7284 596.911 101.292L596.91 101.294C595.782 107.38 594.107 112.642 591.85 117.038Z" fill="black"/>
<path fill-rule="evenodd" clip-rule="evenodd" d="M520.225 79.8636V40.7793H546.49V141H520.225V101.557H485.981V141H459.536V40.7793H485.981V79.8636H520.225ZM518.225 77.8636V38.7793H548.49V143H518.225V103.557H487.981V143H457.536V38.7793H487.981V77.8636H518.225Z" fill="black"/>
<path fill-rule="evenodd" clip-rule="evenodd" d="M376.929 136.697C384.399 140.88 393.274 142.972 403.553 142.972C411.8 142.972 419.061 141.717 425.336 139.207C431.611 136.637 436.721 133.081 440.665 128.54C444.235 124.437 446.712 119.716 448.097 114.378C448.265 113.729 448.417 113.071 448.553 112.404L422.916 110.701C422.019 113.151 420.645 115.243 418.792 116.976C416.999 118.709 414.848 120.023 412.338 120.92C409.828 121.816 407.019 122.265 403.911 122.265C399.429 122.265 395.455 121.249 391.989 119.217C388.582 117.125 385.923 114.167 384.011 110.342C382.536 107.347 381.63 103.89 381.292 99.9713C381.236 99.3175 381.196 98.6508 381.171 97.9713H449.45V90.4413C449.45 81.8954 448.255 74.455 445.864 68.1202C443.474 61.7257 440.127 56.4368 435.824 52.2535C431.521 48.0104 426.501 44.843 420.764 42.7513C415.027 40.5999 408.842 39.5242 402.208 39.5242C392.407 39.5242 383.861 41.7055 376.57 46.0681C369.339 50.4307 363.721 56.4966 359.717 64.2656C355.773 72.0346 353.801 81.0587 353.801 91.3377C353.801 101.916 355.773 111.089 359.717 118.858C363.721 126.567 369.459 132.514 376.929 136.697ZM447.736 67.4154C450.23 74.0261 451.45 81.7153 451.45 90.4413V99.9713H383.3C383.631 103.608 384.477 106.758 385.801 109.45C387.555 112.957 389.961 115.62 393.018 117.502C396.139 119.327 399.751 120.265 403.911 120.265C406.827 120.265 409.403 119.844 411.665 119.036C413.926 118.229 415.828 117.059 417.402 115.538L417.414 115.526L417.426 115.515C419.043 114.002 420.245 112.178 421.037 110.013L421.552 108.606L450.97 110.56L450.513 112.803C449.191 119.286 446.412 124.981 442.175 129.851C438.001 134.658 432.621 138.385 426.094 141.058L426.086 141.061L426.079 141.064C419.522 143.687 412 144.972 403.553 144.972C393 144.972 383.775 142.823 375.952 138.442C368.136 134.065 362.124 127.83 357.942 119.78L357.938 119.772L357.934 119.763C353.82 111.66 351.801 102.164 351.801 91.3377C351.801 80.8004 353.824 71.4561 357.934 63.3602L357.94 63.3493C362.107 55.2631 367.977 48.9165 375.537 44.3556L375.543 44.3519C383.19 39.7766 392.102 37.5242 402.208 37.5242C409.058 37.5242 415.481 38.6352 421.458 40.8754C427.456 43.0635 432.717 46.3823 437.224 50.8246C441.762 55.2389 445.257 60.7867 447.736 67.4154ZM381.555 78.8495C381.958 76.3381 382.657 74.0166 383.652 71.8852C385.325 68.2995 387.716 65.4608 390.823 63.3692C393.991 61.2775 397.845 60.2317 402.387 60.2317C406.929 60.2317 410.724 61.2775 413.772 63.3692C416.88 65.4011 419.21 68.2995 420.764 72.0645C421.616 74.1286 422.234 76.3903 422.619 78.8495C422.721 79.5023 422.807 80.1689 422.876 80.8495H381.3C381.365 80.17 381.45 79.5033 381.555 78.8495ZM383.582 78.8495C383.966 76.6278 384.596 74.5911 385.464 72.731C386.992 69.4585 389.147 66.9105 391.932 65.0339C394.712 63.2003 398.162 62.2317 402.387 62.2317C406.619 62.2317 409.995 63.2028 412.64 65.0182L412.659 65.0309L412.677 65.0431C415.415 66.833 417.5 69.3975 418.915 72.8275C419.666 74.6457 420.228 76.6508 420.593 78.8495H383.582Z" fill="black"/>
<path fill-rule="evenodd" clip-rule="evenodd" d="M250.038 180.471H277.737V124.954H278.544C278.904 125.706 279.301 126.458 279.737 127.21C280.894 129.207 282.319 131.204 284.012 133.201C286.403 135.89 289.48 138.131 293.245 139.924C297.01 141.717 301.582 142.613 306.961 142.613C314.61 142.613 321.483 140.641 327.579 136.697C333.734 132.753 338.605 126.956 342.19 119.306C345.776 111.597 347.569 102.185 347.569 91.0688C347.569 79.5945 345.716 70.0326 342.011 62.3831C338.306 54.7336 333.376 49.0263 327.22 45.2613C321.124 41.4366 314.401 39.5242 307.05 39.5242C301.493 39.5242 296.831 40.4804 293.066 42.3927C289.301 44.2454 286.253 46.5761 283.923 49.3849C282.019 51.6784 280.475 53.952 279.289 56.2057C279.023 56.712 278.774 57.2174 278.544 57.7217H277.289V40.7792H250.038V180.471ZM279.289 52.2764V38.7792H248.038V180.471H279.737V130.929C280.567 132.124 281.484 133.312 282.487 134.494L282.502 134.512L282.517 134.53C285.111 137.448 288.417 139.84 292.386 141.73C296.485 143.682 301.368 144.613 306.961 144.613C314.973 144.613 322.226 142.542 328.663 138.378C335.181 134.2 340.282 128.09 344.001 120.155L344.004 120.15C347.744 112.108 349.569 102.39 349.569 91.0688C349.569 79.3929 347.686 69.5104 343.811 61.5112C339.971 53.5831 334.805 47.5591 328.273 43.5608C321.854 39.536 314.765 37.5242 307.05 37.5242C301.279 37.5242 296.29 38.5149 292.172 40.6036C288.197 42.5613 284.917 45.0549 282.383 48.1077C281.232 49.4951 280.2 50.8846 279.289 52.2764ZM309.65 116.796C306.542 119.306 302.718 120.561 298.176 120.561C293.753 120.561 289.958 119.336 286.791 116.886C283.683 114.376 281.293 110.91 279.62 106.487C277.946 102.065 277.11 96.8956 277.11 90.9792C277.11 85.003 277.916 79.8336 279.53 75.471C281.203 71.0486 283.594 67.6421 286.701 65.2517C289.869 62.8014 293.694 61.5763 298.176 61.5763C302.777 61.5763 306.632 62.8313 309.74 65.3413C312.847 67.8513 315.178 71.3175 316.732 75.7399C318.345 80.1025 319.152 85.1823 319.152 90.9792C319.152 96.7761 318.345 101.916 316.732 106.398C315.118 110.82 312.758 114.286 309.65 116.796ZM314.852 105.716C313.34 109.857 311.171 112.997 308.393 115.24C305.69 117.424 302.326 118.561 298.176 118.561C294.155 118.561 290.808 117.459 288.031 115.317C285.255 113.069 283.058 109.923 281.49 105.78C279.921 101.632 279.11 96.7122 279.11 90.9792C279.11 85.1797 279.893 80.2592 281.403 76.1735C282.972 72.0291 285.164 68.9574 287.921 66.8369L287.925 66.8336C290.701 64.6866 294.081 63.5763 298.176 63.5763C302.393 63.5763 305.784 64.7173 308.483 66.8972C311.255 69.136 313.393 72.2692 314.845 76.4029L314.85 76.4183L314.856 76.4337C316.37 80.5271 317.152 85.363 317.152 90.9792C317.152 96.5917 316.371 101.493 314.852 105.716Z" fill="black"/>
<path fill-rule="evenodd" clip-rule="evenodd" d="M229.44 0.982422L239.639 22.7753L238.449 23.7622C235.447 26.2534 232.087 28.1092 228.382 29.323L228.372 29.3263L228.362 29.3296C224.769 30.4643 220.515 31.2016 215.63 31.5681C210.857 31.9306 205.018 32.1707 198.122 32.2907L198.113 32.2908L198.103 32.2909C190.583 32.3492 184.607 33.575 180.067 35.8448L180.059 35.8493C175.632 38.0351 172.266 41.4405 169.94 46.1473C168.344 49.3782 167.081 53.3296 166.176 58.0276C168.79 54.5317 171.97 51.6424 175.715 49.3781C181.595 45.8003 188.727 44.0681 197.012 44.0681C205.857 44.0681 213.687 46.0191 220.432 49.989C227.177 53.8989 232.425 59.5404 236.173 66.8491C239.935 74.185 241.742 82.8801 241.682 92.8622C241.742 103.28 239.748 112.456 235.627 120.324C231.504 128.195 225.58 134.279 217.885 138.535C210.244 142.793 201.204 144.911 190.838 144.972L190.829 144.972L190.819 144.972C175.189 144.911 162.639 139.967 153.411 129.987L153.407 129.982C144.17 119.929 139.673 105.509 139.613 87.0415L139.613 87.0349L139.613 78.8725C139.673 54.5335 144.422 36.0944 154.218 23.9271C164.059 11.7048 178.521 5.61647 197.258 5.43217C202.166 5.37233 206.631 5.37219 210.652 5.43204C214.585 5.43152 217.98 5.22545 220.849 4.82386L220.854 4.82311C223.659 4.43816 225.835 3.6041 227.48 2.40814L229.44 0.982422ZM210.638 7.43204C206.634 7.37228 202.181 7.37228 197.281 7.43204C178.994 7.61133 165.159 13.5278 155.776 25.1813C146.394 36.8349 141.672 54.7336 141.613 78.8774V87.0349C141.672 105.203 146.095 119.067 154.88 128.629C163.665 138.131 175.647 142.912 190.827 142.972C200.926 142.912 209.622 140.851 216.913 136.787C224.263 132.723 229.911 126.926 233.855 119.396C237.799 111.866 239.742 103.021 239.682 92.8617C239.742 83.1205 237.979 74.7538 234.393 67.7617C230.807 60.7695 225.817 55.4209 219.423 51.7156C213.028 47.9506 205.558 46.0681 197.012 46.0681C189.004 46.0681 182.251 47.7415 176.753 51.0881C172.02 53.9487 168.237 57.8729 165.406 62.8609C164.983 63.6043 164.583 64.3714 164.203 65.162H163.127C163.144 64.9974 163.161 64.8334 163.178 64.67C163.233 64.1613 163.291 63.6586 163.352 63.162C163.391 62.8451 163.431 62.5306 163.473 62.2186C164.387 55.3702 165.945 49.7178 168.147 45.2613C170.657 40.1816 174.332 36.4465 179.173 34.056C184.074 31.6057 190.378 30.3507 198.088 30.291C204.96 30.1714 210.757 29.9324 215.478 29.5738C220.259 29.2153 224.353 28.4981 227.759 27.4224C231.226 26.2869 234.363 24.5538 237.172 22.2231L228.656 4.02561C228.123 4.41311 227.551 4.76353 226.94 5.07687C225.288 5.92334 223.35 6.49923 221.126 6.80454C218.138 7.22288 214.642 7.43204 210.638 7.43204ZM209.444 93.8479L209.445 93.8269C209.502 88.2768 208.719 83.7271 207.183 80.1067L207.179 80.0968C205.632 76.395 203.47 73.6816 200.736 71.8412L200.728 71.8362L200.721 71.8311C198.058 70.0037 194.794 69.0445 190.827 69.0445C187.85 69.0445 185.246 69.5945 182.975 70.6508C180.707 71.7054 178.777 73.2599 177.173 75.3458L177.165 75.3557L177.157 75.3656C175.55 77.401 174.281 79.9378 173.384 83.0218C172.49 86.0953 171.999 89.7009 171.94 93.8623C171.942 102.063 173.734 108.31 177.095 112.814C180.462 117.246 184.997 119.458 190.916 119.458C194.855 119.458 198.1 118.454 200.757 116.53C203.461 114.512 205.613 111.636 207.171 107.797C208.721 103.977 209.502 99.3515 209.445 93.8688L209.444 93.8479ZM175.498 114.017C171.792 109.057 169.94 102.334 169.94 93.8478C170 89.5449 170.508 85.75 171.464 82.4631C172.42 79.1762 173.794 76.3973 175.587 74.1263C177.38 71.7956 179.561 70.0326 182.131 68.8374C184.701 67.6422 187.599 67.0445 190.827 67.0445C195.129 67.0445 198.805 68.0904 201.853 70.1821C204.96 72.2737 207.351 75.3216 209.024 79.3256C210.697 83.2699 211.504 88.1106 211.444 93.8478C211.504 99.5251 210.697 104.426 209.024 108.549C207.351 112.673 204.99 115.87 201.942 118.141C198.894 120.352 195.219 121.458 190.916 121.458C184.402 121.458 179.263 118.978 175.498 114.017Z" fill="black"/>
<path fill-rule="evenodd" clip-rule="evenodd" d="M24.9837 136.518C32.3942 140.821 41.1493 142.972 51.2491 142.972C61.4086 142.972 70.1637 140.821 77.5145 136.518C84.9249 132.155 90.6023 126.119 94.5466 118.41C98.5506 110.641 100.553 101.617 100.553 91.3377C100.553 80.9392 98.5506 71.8852 94.5466 64.176C90.6023 56.4069 84.9249 50.371 77.5145 46.0681C70.1637 41.7055 61.4086 39.5242 51.2491 39.5242C41.1493 39.5242 32.3942 41.7055 24.9837 46.0681C17.633 50.371 11.9556 56.4069 7.95159 64.176C4.0073 71.8852 2.03516 80.9392 2.03516 91.3377C2.03516 101.617 4.0073 110.641 7.95159 118.41C11.9556 126.119 17.633 132.155 24.9837 136.518ZM23.9734 44.3421C31.7404 39.7707 40.8573 37.5242 51.2491 37.5242C61.6959 37.5242 70.8151 39.7687 78.5267 44.3432C86.2705 48.8415 92.2117 55.1623 96.326 63.2629C100.501 71.306 102.553 80.685 102.553 91.3377C102.553 101.878 100.499 111.225 96.3265 119.322C92.2105 127.366 86.2689 133.685 78.5291 138.241L78.5248 138.244C70.8133 142.758 61.695 144.972 51.2491 144.972C40.86 144.972 31.7455 142.757 23.9795 138.247L23.9712 138.243L23.963 138.238C16.2859 133.681 10.3498 127.366 6.1767 119.332L6.17244 119.324L6.16825 119.315C2.05805 111.219 0.0351562 101.875 0.0351562 91.3377C0.0351562 80.6855 2.05632 71.3075 6.17109 63.265L6.1738 63.2597C10.3469 55.1627 16.2863 48.8418 23.9734 44.3421ZM62.9923 117.424C59.8847 119.994 56.03 121.278 51.4284 121.278C46.7669 121.278 42.8525 119.994 39.6852 117.424C36.5775 114.794 34.2169 111.209 32.6034 106.667C31.0496 102.125 30.2727 96.9554 30.2727 91.1585C30.2727 85.3018 31.0496 80.1324 32.6034 75.6502C34.2169 71.1681 36.5775 67.6421 39.6852 65.0724C42.8525 62.5026 46.7669 61.2177 51.4284 61.2177C56.03 61.2177 59.8847 62.5026 62.9923 65.0724C66.0999 67.6421 68.4306 71.1681 69.9845 75.6502C71.598 80.1324 72.4048 85.3018 72.4048 91.1585C72.4048 96.9554 71.598 102.125 69.9845 106.667C68.4306 111.209 66.0999 114.794 62.9923 117.424ZM61.7096 115.889C59.012 118.117 55.63 119.278 51.4284 119.278C47.1649 119.278 43.7194 118.115 40.9612 115.884C38.1793 113.524 36.006 110.265 34.4919 106.008C33.0249 101.715 32.2727 96.7745 32.2727 91.1585C32.2727 85.4795 33.0258 80.5428 34.4891 76.3167C36.002 72.1191 38.1733 68.9202 40.9524 66.6197C43.7121 64.3836 47.1604 63.2177 51.4284 63.2177C55.6342 63.2177 59.0188 64.3818 61.7178 66.6137C64.4966 68.9115 66.6396 72.1076 68.0948 76.3053L68.0987 76.3165L68.1027 76.3277C69.6224 80.5492 70.4048 85.4816 70.4048 91.1585C70.4048 96.7721 69.6233 101.709 68.0998 105.997L68.0959 106.008L68.0921 106.019C66.6357 110.276 64.4908 113.533 61.7096 115.889Z" fill="black"/>
<circle cx="248.913" cy="179.913" r="2.91315" fill="black"/>
<circle cx="278.913" cy="179.913" r="2.91315" fill="black"/>
<circle cx="574.913" cy="41.9131" r="2.91315" fill="black"/>
<circle cx="652.913" cy="41.9131" r="2.91315" fill="black"/>
</svg>
