<svg width="863" height="174" viewBox="0 0 863 174" fill="none" xmlns="http://www.w3.org/2000/svg">
<mask id="path-1-outside-1_1098_14909" maskUnits="userSpaceOnUse" x="0" y="0" width="863" height="174" fill="black">
<rect fill="white" width="863" height="174"/>
<path d="M129.147 115.489C133.704 115.489 137.541 114.23 140.658 111.712C143.776 109.194 146.144 105.717 147.762 101.28C149.381 96.7841 150.19 91.6282 150.19 85.8129C150.19 79.9975 149.381 74.9016 147.762 70.5251C146.204 66.0887 143.866 62.6114 140.748 60.0935C137.631 57.5755 133.764 56.3165 129.147 56.3165C124.651 56.3165 120.814 57.5455 117.637 60.0035C114.519 62.4016 112.121 65.8189 110.442 70.2553C108.824 74.6318 108.014 79.8177 108.014 85.8129C108.014 91.7481 108.854 96.934 110.532 101.37C112.211 105.807 114.609 109.284 117.727 111.802C120.904 114.26 124.711 115.489 129.147 115.489ZM219.525 137.881C213.17 137.881 207.445 136.772 202.349 134.554C197.313 132.276 193.356 128.918 190.478 124.482C187.601 120.045 186.162 114.53 186.162 107.935C186.162 102.3 187.181 97.6234 189.219 93.9064C191.258 90.1294 194.045 87.0719 197.583 84.7337C201.12 82.3956 205.136 80.627 209.633 79.428C214.129 78.2289 218.895 77.3896 223.931 76.91C229.747 76.3704 234.423 75.8309 237.96 75.2913C241.497 74.7517 244.075 73.9424 245.694 72.8632C247.373 71.7242 248.212 70.1054 248.212 68.0071V67.5575C248.212 63.4208 246.893 60.2134 244.255 57.9352C241.677 55.657 238.02 54.5179 233.284 54.5179C228.308 54.5179 224.321 55.627 221.324 57.8453C218.386 60.0035 216.437 62.7613 215.478 66.1186L189.669 64.0503C190.988 57.9352 193.566 52.6594 197.403 48.223C201.24 43.7266 206.186 40.2793 212.241 37.8813C218.356 35.4232 225.43 34.1942 233.464 34.1942C239.039 34.1942 244.375 34.8537 249.471 36.1726C254.567 37.4916 259.093 39.5299 263.05 42.2877C267.067 44.9856 270.244 48.4928 272.582 52.8093C274.921 57.1258 276.09 62.2517 276.09 68.187V135.993H249.561V121.964H248.841C247.223 125.141 245.064 127.929 242.367 130.327C239.669 132.665 236.431 134.524 232.654 135.903C228.877 137.222 224.501 137.881 219.525 137.881ZM227.529 118.637C231.605 118.637 235.202 117.827 238.32 116.209C241.497 114.53 243.955 112.312 245.694 109.554C247.493 106.736 248.392 103.589 248.392 100.111V89.41C247.553 89.9495 246.353 90.4591 244.795 90.9388C243.296 91.4184 241.617 91.838 239.759 92.1977C237.9 92.5575 236.042 92.8872 234.183 93.187C232.325 93.4268 230.646 93.6666 229.147 93.9064C225.85 94.386 222.972 95.1654 220.514 96.2445C218.056 97.2637 216.138 98.6726 214.759 100.471C213.44 102.21 212.78 104.398 212.78 107.036C212.78 110.813 214.159 113.691 216.917 115.669C219.675 117.647 223.212 118.637 227.529 118.637ZM340.298 170.165V2H368.086V170.165H340.298ZM340.298 137.971C332.624 137.971 325.58 136.712 319.165 134.194C312.81 131.676 307.325 128.139 302.708 123.583C298.092 118.966 294.525 113.481 292.007 107.126C289.489 100.771 288.23 93.7865 288.23 86.1726C288.23 78.4987 289.489 71.4843 292.007 65.1294C294.525 58.7146 298.092 53.199 302.708 48.5827C307.325 43.9664 312.81 40.4292 319.165 37.9712C325.58 35.4532 332.624 34.1942 340.298 34.1942H345.514V137.971H340.298ZM340.298 116.209H343.446V55.9568H340.298C335.382 55.9568 331.156 57.3057 327.618 60.0035C324.141 62.7014 321.473 66.3285 319.615 70.8848C317.816 75.4412 316.917 80.5371 316.917 86.1726C316.917 90.3692 317.427 94.2961 318.446 97.9531C319.465 101.55 320.994 104.728 323.032 107.486C325.07 110.183 327.528 112.312 330.406 113.87C333.284 115.429 336.581 116.209 340.298 116.209ZM368.086 137.971H362.96V34.1942H368.086C375.82 34.1942 382.864 35.4532 389.219 37.9712C395.634 40.4292 401.149 43.9664 405.766 48.5827C410.382 53.199 413.949 58.7146 416.467 65.1294C419.045 71.4843 420.334 78.4987 420.334 86.1726C420.334 93.7865 419.045 100.771 416.467 107.126C413.949 113.481 410.382 118.966 405.766 123.583C401.149 128.139 395.634 131.676 389.219 134.194C382.864 136.712 375.82 137.971 368.086 137.971ZM368.086 116.209C371.863 116.209 375.19 115.429 378.068 113.87C381.006 112.312 383.464 110.183 385.442 107.486C387.48 104.728 389.039 101.55 390.118 97.9531C391.197 94.2961 391.737 90.3692 391.737 86.1726C391.737 80.5371 390.808 75.4412 388.949 70.8848C387.091 66.3285 384.393 62.7014 380.856 60.0035C377.379 57.3057 373.122 55.9568 368.086 55.9568H365.118V116.209H368.086ZM480.586 170.165V2H508.374V170.165H480.586ZM480.586 137.971C472.912 137.971 465.868 136.712 459.453 134.194C453.098 131.676 447.612 128.139 442.996 123.583C438.38 118.966 434.812 113.481 432.295 107.126C429.777 100.771 428.518 93.7865 428.518 86.1726C428.518 78.4987 429.777 71.4843 432.295 65.1294C434.812 58.7146 438.38 53.199 442.996 48.5827C447.612 43.9664 453.098 40.4292 459.453 37.9712C465.868 35.4532 472.912 34.1942 480.586 34.1942H485.802V137.971H480.586ZM480.586 116.209H483.733V55.9568H480.586C475.67 55.9568 471.443 57.3057 467.906 60.0035C464.429 62.7014 461.761 66.3285 459.902 70.8848C458.104 75.4412 457.205 80.5371 457.205 86.1726C457.205 90.3692 457.714 94.2961 458.733 97.9531C459.753 101.55 461.281 104.728 463.32 107.486C465.358 110.183 467.816 112.312 470.694 113.87C473.571 115.429 476.869 116.209 480.586 116.209ZM508.374 137.971H503.248V34.1942H508.374C516.107 34.1942 523.152 35.4532 529.507 37.9712C535.922 40.4292 541.437 43.9664 546.053 48.5827C550.67 53.199 554.237 58.7146 556.755 65.1294C559.333 71.4843 560.622 78.4987 560.622 86.1726C560.622 93.7865 559.333 100.771 556.755 107.126C554.237 113.481 550.67 118.966 546.053 123.583C541.437 128.139 535.922 131.676 529.507 134.194C523.152 136.712 516.107 137.971 508.374 137.971ZM508.374 116.209C512.151 116.209 515.478 115.429 518.356 113.87C521.293 112.312 523.751 110.183 525.73 107.486C527.768 104.728 529.327 101.55 530.406 97.9531C531.485 94.2961 532.025 90.3692 532.025 86.1726C532.025 80.5371 531.095 75.4412 529.237 70.8848C527.378 66.3285 524.681 62.7014 521.143 60.0035C517.666 57.3057 513.41 55.9568 508.374 55.9568H505.406V116.209H508.374Z"/>
</mask>
<path d="M69.615 35.4532H70.2851V34.7832H69.615V35.4532ZM69.615 57.3956V58.0656H70.2851V57.3956H69.615ZM27.8885 57.3956V56.7256H27.2184V57.3956H27.8885ZM1 35.4532V34.7832H0.329979V35.4532H1ZM80.856 35.4532V34.7832H80.186V35.4532H80.856ZM108.194 35.4532H108.864V34.7832H108.194V35.4532ZM108.194 52.4496H107.524V53.1196H108.194V52.4496ZM109.453 52.4496V53.1196H109.884L110.063 52.7278L109.453 52.4496ZM124.021 37.0719L124.317 37.6731L124.325 37.6693L124.021 37.0719ZM158.284 39.9496L157.928 40.5172L157.934 40.5212L158.284 39.9496ZM173.302 114.23L173.909 114.514L173.91 114.513L173.302 114.23ZM158.644 131.676L158.282 131.112L158.28 131.114L158.644 131.676ZM114.939 128.169L114.428 128.602L114.433 128.608L114.438 128.614L114.939 128.169ZM109.453 119.896L110.058 119.606L109.875 119.226H109.453V119.896ZM108.644 119.896V119.226H107.974V119.896H108.644ZM599.471 99.2121H598.801V101.752L600.053 99.5426L599.471 99.2121ZM635.622 35.4532V34.7832H635.231L635.039 35.1227L635.622 35.4532ZM663.14 35.4532H663.81V34.7832H663.14V35.4532ZM663.14 135.993V136.663H663.81V135.993H663.14ZM636.611 135.993H635.941V136.663H636.611V135.993ZM636.611 72.1438H637.281V69.595L636.028 71.8143L636.611 72.1438ZM572.942 35.4532V34.7832H572.272V35.4532H572.942ZM599.471 35.4532H600.141V34.7832H599.471V35.4532ZM669.435 57.3956H668.765V58.0656H669.435V57.3956ZM669.435 35.4532V34.7832H668.765V35.4532H669.435ZM760.352 35.4532H761.022V34.7832H760.352V35.4532ZM760.352 57.3956V58.0656H761.022V57.3956H760.352ZM728.068 57.3956V56.7256H727.398V57.3956H728.068ZM701.539 57.3956H702.209V56.7256H701.539V57.3956ZM798.032 99.2121H797.362V101.752L798.614 99.5426L798.032 99.2121ZM834.183 35.4532V34.7832H833.792L833.6 35.1227L834.183 35.4532ZM861.701 35.4532H862.371V34.7832H861.701V35.4532ZM835.172 72.1438H835.842V69.595L834.588 71.8143L835.172 72.1438ZM799.111 135.993V136.663H799.502L799.694 136.322L799.111 135.993ZM771.503 135.993H770.833V136.663H771.503V135.993ZM771.503 35.4532V34.7832H770.833V35.4532H771.503ZM798.032 35.4532H798.702V34.7832H798.032V35.4532ZM68.945 35.4532V57.3956H70.2851V35.4532H68.945ZM69.615 56.7256H27.8885V58.0656H69.615V56.7256ZM27.2184 57.3956V135.993H28.5585V57.3956H27.2184ZM1 36.1232H69.615V34.7832H1V36.1232ZM80.856 36.1232H108.194V34.7832H80.856V36.1232ZM107.524 35.4532V52.4496H108.864V35.4532H107.524ZM108.194 53.1196H109.453V51.7796H108.194V53.1196ZM110.063 52.7278C111.293 50.0336 113.057 47.2955 115.364 44.5141L114.333 43.6584C111.965 46.5126 110.132 49.35 108.844 52.1713L110.063 52.7278ZM115.364 44.5141C117.634 41.7791 120.612 39.4962 124.317 37.6731L123.726 36.4707C119.877 38.3647 116.74 40.758 114.333 43.6584L115.364 44.5141ZM124.325 37.6693C127.983 35.8112 132.548 34.8642 138.05 34.8642V33.5242C132.401 33.5242 127.614 34.4957 123.718 36.4745L124.325 37.6693ZM138.05 34.8642C145.301 34.8642 151.922 36.7487 157.928 40.5172L158.64 39.382C152.416 35.4767 145.547 33.5242 138.05 33.5242V34.8642ZM157.934 40.5212C163.982 44.22 168.848 49.8387 172.519 57.4179L173.725 56.8338C169.962 49.0653 164.936 43.2331 158.634 39.378L157.934 40.5212ZM172.519 57.4179C176.179 64.9747 178.028 74.4596 178.028 85.9028H179.368C179.368 74.3245 177.499 64.6247 173.725 56.8338L172.519 57.4179ZM178.028 85.9028C178.028 96.985 176.24 106.325 172.694 113.948L173.91 114.513C177.558 106.668 179.368 97.1227 179.368 85.9028H178.028ZM172.695 113.946C169.143 121.523 164.335 127.233 158.282 131.112L159.005 132.24C165.303 128.205 170.266 122.285 173.909 114.514L172.695 113.946ZM158.28 131.114C152.279 134.996 145.512 136.941 137.96 136.941V138.281C145.756 138.281 152.778 136.269 159.008 132.239L158.28 131.114ZM137.96 136.941C132.636 136.941 128.154 136.054 124.489 134.309L123.913 135.518C127.802 137.37 132.493 138.281 137.96 138.281V136.941ZM124.489 134.309C120.781 132.542 117.769 130.345 115.44 127.724L114.438 128.614C116.904 131.389 120.068 133.687 123.913 135.518L124.489 134.309ZM115.45 127.736C113.142 125.014 111.348 122.304 110.058 119.606L108.849 120.185C110.196 123.003 112.059 125.808 114.428 128.602L115.45 127.736ZM109.453 119.226H108.644V120.566H109.453V119.226ZM107.974 119.896V173.583H109.314V119.896H107.974ZM600.053 99.5426L636.205 35.7837L635.039 35.1227L598.888 98.8817L600.053 99.5426ZM635.622 36.1232H663.14V34.7832H635.622V36.1232ZM662.47 35.4532V135.993H663.81V35.4532H662.47ZM663.14 135.323H636.611V136.663H663.14V135.323ZM637.281 135.993V72.1438H635.941V135.993H637.281ZM636.028 71.8143L599.966 135.663L601.133 136.322L637.194 72.4733L636.028 71.8143ZM572.942 36.1232H599.471V34.7832H572.942V36.1232ZM598.801 35.4532V99.2121H600.141V35.4532H598.801ZM670.105 57.3956V35.4532H668.765V57.3956H670.105ZM669.435 36.1232H760.352V34.7832H669.435V36.1232ZM759.682 35.4532V57.3956H761.022V35.4532H759.682ZM760.352 56.7256H728.068V58.0656H760.352V56.7256ZM727.398 57.3956V135.993H728.738V57.3956H727.398ZM701.539 56.7256H669.435V58.0656H701.539V56.7256ZM798.614 99.5426L834.765 35.7837L833.6 35.1227L797.449 98.8817L798.614 99.5426ZM834.183 36.1232H861.701V34.7832H834.183V36.1232ZM861.031 35.4532V135.993H862.371V35.4532H861.031ZM834.588 71.8143L798.527 135.663L799.694 136.322L835.755 72.4733L834.588 71.8143ZM799.111 135.323H771.503V136.663H799.111V135.323ZM772.173 135.993V35.4532H770.833V135.993H772.173ZM771.503 36.1232H798.032V34.7832H771.503V36.1232ZM797.362 35.4532V99.2121H798.702V35.4532H797.362ZM0.329979 35.4532V135.993H1.67002V35.4532H0.329979ZM80.186 35.4532V173.583H81.5261V35.4532H80.186ZM572.272 35.4532V135.993H573.612V35.4532H572.272ZM700.869 57.3956V135.993H702.209V57.3956H700.869ZM834.502 72.1438V135.993H835.842V72.1438H834.502ZM147.762 101.28L149.021 101.74L149.023 101.734L147.762 101.28ZM147.762 70.5251L146.498 70.9693L146.502 70.9797L146.506 70.99L147.762 70.5251ZM117.637 60.0035L118.454 61.0657L118.457 61.0634L117.637 60.0035ZM110.442 70.2553L109.189 69.7811L109.186 69.7905L110.442 70.2553ZM117.727 111.802L116.885 112.845L116.895 112.853L116.907 112.862L117.727 111.802ZM202.349 134.554L201.796 135.775L201.805 135.779L201.814 135.783L202.349 134.554ZM189.219 93.9064L190.394 94.5507L190.398 94.5428L189.219 93.9064ZM223.931 76.91L223.808 75.5757L223.804 75.576L223.931 76.91ZM245.694 72.8632L246.437 73.9783L246.446 73.9721L245.694 72.8632ZM244.255 57.9352L243.368 58.9393L243.373 58.9444L243.379 58.9494L244.255 57.9352ZM221.324 57.8453L222.117 58.9252L222.121 58.9224L221.324 57.8453ZM215.478 66.1186L215.371 67.4544L216.465 67.5421L216.767 66.4868L215.478 66.1186ZM189.669 64.0503L188.359 63.7678L188.036 65.2638L189.562 65.3861L189.669 64.0503ZM197.403 48.223L198.416 49.0996L198.422 49.0928L197.403 48.223ZM212.241 37.8813L212.734 39.1272L212.741 39.1246L212.241 37.8813ZM263.05 42.2877L262.284 43.3871L262.293 43.3937L262.303 43.4001L263.05 42.2877ZM276.09 135.993V137.333H277.43V135.993H276.09ZM249.561 135.993H248.221V137.333H249.561V135.993ZM249.561 121.964H250.901V120.624H249.561V121.964ZM248.841 121.964V120.624H248.02L247.647 121.356L248.841 121.964ZM242.367 130.327L243.244 131.34L243.251 131.334L243.257 131.329L242.367 130.327ZM232.654 135.903L233.096 137.168L233.105 137.165L233.114 137.162L232.654 135.903ZM238.32 116.209L238.937 117.398L238.946 117.393L238.32 116.209ZM245.694 109.554L244.564 108.833L244.56 108.839L245.694 109.554ZM248.392 89.41H249.732V86.9555L247.667 88.2828L248.392 89.41ZM244.795 90.9388L244.401 89.658L244.393 89.6602L244.386 89.6625L244.795 90.9388ZM234.183 93.187L234.355 94.516L234.376 94.5133L234.397 94.5099L234.183 93.187ZM229.147 93.9064L229.34 95.2325L229.35 95.2311L229.359 95.2296L229.147 93.9064ZM220.514 96.2445L221.027 97.4824L221.04 97.4771L221.053 97.4715L220.514 96.2445ZM214.759 100.471L213.695 99.6558L213.691 99.6612L214.759 100.471ZM340.298 170.165H338.958V171.505H340.298V170.165ZM340.298 2V0.659959H338.958V2H340.298ZM368.086 2H369.426V0.659959H368.086V2ZM368.086 170.165V171.505H369.426V170.165H368.086ZM319.165 134.194L318.672 135.44L318.676 135.441L319.165 134.194ZM302.708 123.583L301.761 124.53L301.767 124.536L302.708 123.583ZM292.007 65.1294L293.253 65.6231L293.254 65.6191L292.007 65.1294ZM319.165 37.9712L319.649 39.221L319.655 39.2186L319.165 37.9712ZM345.514 34.1942H346.854V32.8542H345.514V34.1942ZM345.514 137.971V139.311H346.854V137.971H345.514ZM343.446 116.209V117.549H344.786V116.209H343.446ZM343.446 55.9568H344.786V54.6167H343.446V55.9568ZM327.618 60.0035L326.806 58.938L326.797 58.9448L327.618 60.0035ZM319.615 70.8848L318.374 70.3787L318.371 70.3857L318.368 70.3928L319.615 70.8848ZM318.446 97.9531L317.155 98.3129L317.156 98.3184L318.446 97.9531ZM323.032 107.486L321.954 108.282L321.963 108.293L323.032 107.486ZM362.96 137.971H361.62V139.311H362.96V137.971ZM362.96 34.1942V32.8542H361.62V34.1942H362.96ZM389.219 37.9712L388.725 39.217L388.732 39.2198L388.74 39.2225L389.219 37.9712ZM416.467 65.1294L415.22 65.6191L415.223 65.6261L415.225 65.6332L416.467 65.1294ZM416.467 107.126L415.225 106.622L415.221 106.632L416.467 107.126ZM405.766 123.583L406.707 124.536L406.713 124.53L405.766 123.583ZM389.219 134.194L388.729 132.947L388.725 132.948L389.219 134.194ZM378.068 113.87L377.44 112.687L377.43 112.692L378.068 113.87ZM385.442 107.486L384.364 106.689L384.361 106.693L385.442 107.486ZM390.118 97.9531L391.402 98.3382L391.404 98.3324L390.118 97.9531ZM380.856 60.0035L380.034 61.0623L380.043 61.069L380.856 60.0035ZM365.118 55.9568V54.6167H363.778V55.9568H365.118ZM365.118 116.209H363.778V117.549H365.118V116.209ZM480.586 170.165H479.246V171.505H480.586V170.165ZM480.586 2V0.659959H479.246V2H480.586ZM508.374 2H509.714V0.659959H508.374V2ZM508.374 170.165V171.505H509.714V170.165H508.374ZM459.453 134.194L458.959 135.44L458.963 135.441L459.453 134.194ZM442.996 123.583L442.048 124.53L442.055 124.536L442.996 123.583ZM432.295 65.1294L433.54 65.6231L433.542 65.6191L432.295 65.1294ZM459.453 37.9712L459.936 39.221L459.942 39.2186L459.453 37.9712ZM485.802 34.1942H487.142V32.8542H485.802V34.1942ZM485.802 137.971V139.311H487.142V137.971H485.802ZM483.733 116.209V117.549H485.073V116.209H483.733ZM483.733 55.9568H485.073V54.6167H483.733V55.9568ZM467.906 60.0035L467.093 58.938L467.085 58.9448L467.906 60.0035ZM459.902 70.8848L458.662 70.3787L458.659 70.3857L458.656 70.3928L459.902 70.8848ZM458.733 97.9531L457.442 98.3129L457.444 98.3184L458.733 97.9531ZM463.32 107.486L462.242 108.282L462.25 108.293L463.32 107.486ZM503.248 137.971H501.908V139.311H503.248V137.971ZM503.248 34.1942V32.8542H501.908V34.1942H503.248ZM529.507 37.9712L529.013 39.217L529.02 39.2198L529.027 39.2225L529.507 37.9712ZM556.755 65.1294L555.507 65.6191L555.51 65.6261L555.513 65.6332L556.755 65.1294ZM556.755 107.126L555.513 106.622L555.509 106.632L556.755 107.126ZM546.053 123.583L546.995 124.536L547.001 124.53L546.053 123.583ZM529.507 134.194L529.017 132.947L529.013 132.948L529.507 134.194ZM518.356 113.87L517.727 112.687L517.717 112.692L518.356 113.87ZM525.73 107.486L524.652 106.689L524.649 106.693L525.73 107.486ZM530.406 97.9531L531.69 98.3382L531.691 98.3324L530.406 97.9531ZM521.143 60.0035L520.322 61.0623L520.331 61.069L521.143 60.0035ZM505.406 55.9568V54.6167H504.066V55.9568H505.406ZM505.406 116.209H504.066V117.549H505.406V116.209ZM129.147 116.829C133.966 116.829 138.112 115.491 141.5 112.755L139.816 110.67C136.969 112.969 133.442 114.149 129.147 114.149V116.829ZM141.5 112.755C144.838 110.058 147.334 106.364 149.021 101.74L146.504 100.821C144.953 105.07 142.713 108.33 139.816 110.67L141.5 112.755ZM149.023 101.734C150.704 97.0647 151.531 91.7505 151.531 85.8129H148.85C148.85 91.5059 148.058 96.5035 146.502 100.827L149.023 101.734ZM151.531 85.8129C151.531 79.8764 150.705 74.6171 149.019 70.0603L146.506 70.99C148.058 75.1861 148.85 80.1186 148.85 85.8129H151.531ZM149.027 70.0809C147.4 65.451 144.933 61.7507 141.59 59.051L139.906 61.1359C142.799 63.4722 145.007 66.7263 146.498 70.9693L149.027 70.0809ZM141.59 59.051C138.199 56.3118 134.021 54.9764 129.147 54.9764V57.6565C133.506 57.6565 137.062 58.8392 139.906 61.1359L141.59 59.051ZM129.147 54.9764C124.391 54.9764 120.257 56.2824 116.817 58.9436L118.457 61.0634C121.371 58.8086 124.91 57.6565 129.147 57.6565V54.9764ZM116.82 58.9414C113.468 61.5198 110.937 65.1602 109.189 69.7811L111.696 70.7296C113.305 66.4776 115.57 63.2835 118.454 61.0657L116.82 58.9414ZM109.186 69.7905C107.499 74.3514 106.674 79.702 106.674 85.8129H109.354C109.354 79.9333 110.149 74.9123 111.699 70.7202L109.186 69.7905ZM106.674 85.8129C106.674 91.871 107.531 97.2239 109.279 101.845L111.786 100.896C110.177 96.644 109.354 91.6252 109.354 85.8129H106.674ZM109.279 101.845C111.026 106.463 113.55 110.152 116.885 112.845L118.568 110.76C115.668 108.417 113.396 105.151 111.786 100.896L109.279 101.845ZM116.907 112.862C120.343 115.521 124.447 116.829 129.147 116.829V114.149C124.975 114.149 121.464 112.999 118.546 110.742L116.907 112.862ZM219.525 136.541C213.328 136.541 207.788 135.46 202.884 133.325L201.814 135.783C207.101 138.084 213.012 139.221 219.525 139.221V136.541ZM202.901 133.333C198.088 131.155 194.334 127.964 191.602 123.753L189.354 125.211C192.378 129.873 196.538 133.396 201.796 135.775L202.901 133.333ZM191.602 123.753C188.897 119.581 187.502 114.335 187.502 107.935H184.822C184.822 114.725 186.304 120.509 189.354 125.211L191.602 123.753ZM187.502 107.935C187.502 102.453 188.494 98.0158 190.394 94.5507L188.044 93.262C185.868 97.231 184.822 102.146 184.822 107.935H187.502ZM190.398 94.5428C192.333 90.9577 194.971 88.0664 198.321 85.8516L196.844 83.6158C193.12 86.0773 190.182 89.3011 188.04 93.27L190.398 94.5428ZM198.321 85.8516C201.727 83.6007 205.608 81.8881 209.978 80.7228L209.288 78.1332C204.665 79.3659 200.513 81.1905 196.844 83.6158L198.321 85.8516ZM209.978 80.7228C214.397 79.5444 219.09 78.7172 224.058 78.244L223.804 75.576C218.701 76.062 213.861 76.9135 209.288 78.1332L209.978 80.7228ZM224.055 78.2443C229.883 77.7036 234.588 77.1612 238.162 76.616L237.758 73.9666C234.258 74.5005 229.611 75.0372 223.808 75.5757L224.055 78.2443ZM238.162 76.616C241.757 76.0676 244.571 75.2226 246.437 73.9782L244.951 71.7483C243.58 72.6622 241.238 73.4358 237.758 73.9666L238.162 76.616ZM246.446 73.9721C248.507 72.5735 249.552 70.5314 249.552 68.0071H246.872C246.872 69.6795 246.238 70.8748 244.942 71.7544L246.446 73.9721ZM249.552 68.0071V67.5575H246.872V68.0071H249.552ZM249.552 67.5575C249.552 63.1114 248.119 59.5018 245.131 56.921L243.379 58.9494C245.667 60.925 246.872 63.7302 246.872 67.5575H249.552ZM245.143 56.9311C242.241 54.3667 238.224 53.1779 233.284 53.1779V55.858C237.817 55.858 241.114 56.9474 243.368 58.9393L245.143 56.9311ZM233.284 53.1779C228.116 53.1779 223.821 54.3301 220.526 56.7681L222.121 58.9224C224.821 56.924 228.5 55.858 233.284 55.858V53.1779ZM220.53 56.7654C217.364 59.0911 215.234 62.0944 214.19 65.7505L216.767 66.4868C217.641 63.4282 219.407 60.9159 222.117 58.9252L220.53 56.7654ZM215.585 64.7829L189.776 62.7145L189.562 65.3861L215.371 67.4544L215.585 64.7829ZM190.979 64.3328C192.254 58.4224 194.736 53.3547 198.416 49.0996L196.389 47.3464C192.395 51.9642 189.722 57.448 188.359 63.7678L190.979 64.3328ZM198.422 49.0928C202.103 44.7793 206.861 41.453 212.734 39.1271L211.747 36.6354C205.51 39.1056 200.376 42.6739 196.383 47.3531L198.422 49.0928ZM212.741 39.1246C218.666 36.7428 225.565 35.5343 233.464 35.5343V32.8542C225.295 32.8542 218.046 34.1037 211.741 36.6379L212.741 39.1246ZM233.464 35.5343C238.933 35.5343 244.155 36.181 249.135 37.4699L249.807 34.8753C244.595 33.5264 239.146 32.8542 233.464 32.8542V35.5343ZM249.135 37.4699C254.091 38.7526 258.469 40.7283 262.284 43.3871L263.816 41.1884C259.717 38.3316 255.043 36.2305 249.807 34.8753L249.135 37.4699ZM262.303 43.4001C266.137 45.9753 269.168 49.3187 271.404 53.4475L273.761 52.1711C271.321 47.6668 267.997 43.9958 263.797 41.1753L262.303 43.4001ZM271.404 53.4475C273.616 57.5311 274.75 62.4283 274.75 68.187H277.43C277.43 62.0751 276.225 56.7206 273.761 52.1711L271.404 53.4475ZM274.75 68.187V135.993H277.43V68.187H274.75ZM276.09 134.653H249.561V137.333H276.09V134.653ZM250.901 135.993V121.964H248.221V135.993H250.901ZM249.561 120.624H248.841V123.304H249.561V120.624ZM247.647 121.356C246.106 124.382 244.051 127.037 241.476 129.326L243.257 131.329C246.078 128.821 248.34 125.9 250.035 122.572L247.647 121.356ZM241.489 129.315C238.929 131.533 235.838 133.314 232.195 134.644L233.114 137.162C237.025 135.734 240.409 133.797 243.244 131.34L241.489 129.315ZM232.213 134.638C228.607 135.897 224.386 136.541 219.525 136.541V139.221C224.616 139.221 229.147 138.547 233.096 137.168L232.213 134.638ZM227.529 119.977C231.786 119.977 235.601 119.13 238.937 117.398L237.702 115.019C234.804 116.524 231.425 117.297 227.529 117.297V119.977ZM238.946 117.393C242.309 115.617 244.951 113.245 246.828 110.268L244.56 108.839C242.959 111.379 240.686 113.443 237.694 115.024L238.946 117.393ZM246.824 110.275C248.765 107.233 249.732 103.833 249.732 100.111H247.052C247.052 103.344 246.22 106.239 244.564 108.833L246.824 110.275ZM249.732 100.111V89.41H247.052V100.111H249.732ZM247.667 88.2828C246.975 88.728 245.907 89.1946 244.401 89.658L245.189 92.2195C246.8 91.7237 248.13 91.1711 249.116 90.5372L247.667 88.2828ZM244.386 89.6625C242.947 90.1231 241.321 90.5305 239.504 90.8821L240.013 93.5134C241.914 93.1455 243.645 92.7136 245.203 92.215L244.386 89.6625ZM239.504 90.8821C237.659 91.2392 235.814 91.5665 233.97 91.864L234.397 94.5099C236.269 94.2079 238.141 93.8757 240.013 93.5134L239.504 90.8821ZM234.012 91.8579C232.143 92.0991 230.45 92.3408 228.936 92.5832L229.359 95.2296C230.842 94.9923 232.507 94.7544 234.355 94.516L234.012 91.8579ZM228.954 92.5803C225.565 93.0733 222.567 93.88 219.975 95.0175L221.053 97.4715C223.378 96.4508 226.135 95.6987 229.34 95.2325L228.954 92.5803ZM220.001 95.0067C217.364 96.1001 215.241 97.6403 213.695 99.6558L215.822 101.286C217.035 99.7048 218.749 98.4272 221.027 97.4824L220.001 95.0067ZM213.691 99.6612C212.161 101.678 211.44 104.168 211.44 107.036H214.12C214.12 104.628 214.719 102.741 215.826 101.281L213.691 99.6612ZM211.44 107.036C211.44 111.188 212.984 114.496 216.136 116.758L217.698 114.58C215.335 112.885 214.12 110.438 214.12 107.036H211.44ZM216.136 116.758C219.177 118.939 223.008 119.977 227.529 119.977V117.297C223.416 117.297 220.173 116.356 217.698 114.58L216.136 116.758ZM341.638 170.165V2H338.958V170.165H341.638ZM340.298 3.34004H368.086V0.659959H340.298V3.34004ZM366.746 2V170.165H369.426V2H366.746ZM368.086 168.825H340.298V171.505H368.086V168.825ZM340.298 136.631C332.773 136.631 325.897 135.397 319.655 132.947L318.676 135.441C325.263 138.027 332.476 139.311 340.298 139.311V136.631ZM319.659 132.948C313.462 130.493 308.131 127.052 303.65 122.629L301.767 124.536C306.518 129.226 312.158 132.859 318.672 135.44L319.659 132.948ZM303.656 122.635C299.175 118.154 295.707 112.825 293.253 106.632L290.761 107.619C293.343 114.136 297.009 119.778 301.761 124.53L303.656 122.635ZM293.253 106.632C290.804 100.451 289.57 93.6367 289.57 86.1726H286.89C286.89 93.9363 288.174 101.09 290.761 107.619L293.253 106.632ZM289.57 86.1726C289.57 78.6471 290.804 71.8027 293.253 65.6231L290.761 64.6358C288.174 71.166 286.89 78.3503 286.89 86.1726H289.57ZM293.254 65.6191C295.709 59.3661 299.177 54.009 303.656 49.5302L301.761 47.6351C297.007 52.389 293.341 58.063 290.76 64.6398L293.254 65.6191ZM303.656 49.5302C308.134 45.0517 313.46 41.6147 319.649 39.221L318.682 36.7214C312.16 39.2437 306.515 42.8811 301.761 47.6351L303.656 49.5302ZM319.655 39.2186C325.897 36.7684 332.773 35.5343 340.298 35.5343V32.8542C332.476 32.8542 325.263 34.138 318.676 36.7238L319.655 39.2186ZM340.298 35.5343H345.514V32.8542H340.298V35.5343ZM344.174 34.1942V137.971H346.854V34.1942H344.174ZM345.514 136.631H340.298V139.311H345.514V136.631ZM340.298 117.549H343.446V114.868H340.298V117.549ZM344.786 116.209V55.9568H342.106V116.209H344.786ZM343.446 54.6167H340.298V57.2968H343.446V54.6167ZM340.298 54.6167C335.121 54.6167 330.601 56.0433 326.806 58.938L328.431 61.069C331.71 58.5681 335.643 57.2968 340.298 57.2968V54.6167ZM326.797 58.9448C323.113 61.8033 320.311 65.6308 318.374 70.3787L320.856 71.3909C322.636 67.0261 325.17 63.5994 328.44 61.0623L326.797 58.9448ZM318.368 70.3928C316.499 75.1275 315.577 80.3937 315.577 86.1726H318.257C318.257 80.6805 319.133 75.7548 320.861 71.3768L318.368 70.3928ZM315.577 86.1726C315.577 90.4781 316.1 94.5271 317.155 98.3129L319.737 97.5934C318.753 94.065 318.257 90.2603 318.257 86.1726H315.577ZM317.156 98.3184C318.216 102.057 319.812 105.383 321.954 108.282L324.11 106.689C322.176 104.072 320.714 101.044 319.735 97.5878L317.156 98.3184ZM321.963 108.293C324.113 111.139 326.716 113.396 329.768 115.049L331.044 112.692C328.341 111.228 326.028 109.228 324.101 106.678L321.963 108.293ZM329.768 115.049C332.867 116.727 336.389 117.549 340.298 117.549V114.868C336.773 114.868 333.701 114.131 331.044 112.692L329.768 115.049ZM368.086 136.631H362.96V139.311H368.086V136.631ZM364.3 137.971V34.1942H361.62V137.971H364.3ZM362.96 35.5343H368.086V32.8542H362.96V35.5343ZM368.086 35.5343C375.673 35.5343 382.547 36.7689 388.725 39.217L389.713 36.7254C383.181 34.1375 375.967 32.8542 368.086 32.8542V35.5343ZM388.74 39.2225C394.988 41.6168 400.342 45.0538 404.818 49.5302L406.713 47.6351C401.957 42.8789 396.28 39.2416 389.699 36.7199L388.74 39.2225ZM404.818 49.5302C409.297 54.009 412.765 59.3661 415.22 65.6191L417.715 64.6398C415.133 58.063 411.467 52.389 406.713 47.6351L404.818 49.5302ZM415.225 65.6332C417.731 71.8101 418.994 78.6509 418.994 86.1726H421.674C421.674 78.3465 420.359 71.1586 417.709 64.6257L415.225 65.6332ZM418.994 86.1726C418.994 93.6328 417.732 100.444 415.225 106.622L417.709 107.63C420.359 101.098 421.674 93.9401 421.674 86.1726H418.994ZM415.221 106.632C412.768 112.825 409.299 118.154 404.818 122.635L406.713 124.53C411.465 119.778 415.131 114.136 417.713 107.619L415.221 106.632ZM404.824 122.629C400.345 127.05 394.986 130.491 388.729 132.947L389.709 135.441C396.282 132.861 401.954 129.228 406.707 124.536L404.824 122.629ZM388.725 132.948C382.547 135.396 375.673 136.631 368.086 136.631V139.311C375.967 139.311 383.181 138.028 389.713 135.44L388.725 132.948ZM368.086 117.549C372.051 117.549 375.604 116.729 378.706 115.049L377.43 112.692C374.776 114.129 371.675 114.868 368.086 114.868V117.549ZM378.696 115.054C381.813 113.4 384.426 111.138 386.523 108.278L384.361 106.693C382.502 109.229 380.198 111.223 377.44 112.687L378.696 115.054ZM386.52 108.282C388.658 105.389 390.283 102.069 391.402 98.3382L388.835 97.5681C387.796 101.031 386.303 104.067 384.364 106.689L386.52 108.282ZM391.404 98.3324C392.522 94.5405 393.077 90.4848 393.077 86.1726H390.397C390.397 90.2536 389.872 94.0517 388.833 97.5739L391.404 98.3324ZM393.077 86.1726C393.077 80.3885 392.123 75.1174 390.19 70.3787L387.708 71.3909C389.493 75.765 390.397 80.6856 390.397 86.1726H393.077ZM390.19 70.3787C388.251 65.6252 385.415 61.7959 381.668 58.938L380.043 61.069C383.37 63.6069 385.93 67.0318 387.708 71.3909L390.19 70.3787ZM381.677 58.9448C377.932 56.0389 373.374 54.6167 368.086 54.6167V57.2968C372.869 57.2968 376.825 58.5725 380.034 61.0623L381.677 58.9448ZM368.086 54.6167H365.118V57.2968H368.086V54.6167ZM363.778 55.9568V116.209H366.458V55.9568H363.778ZM365.118 117.549H368.086V114.868H365.118V117.549ZM481.926 170.165V2H479.246V170.165H481.926ZM480.586 3.34004H508.374V0.659959H480.586V3.34004ZM507.034 2V170.165H509.714V2H507.034ZM508.374 168.825H480.586V171.505H508.374V168.825ZM480.586 136.631C473.061 136.631 466.185 135.397 459.942 132.947L458.963 135.441C465.551 138.027 472.763 139.311 480.586 139.311V136.631ZM459.946 132.948C453.75 130.493 448.419 127.052 443.937 122.629L442.055 124.536C446.806 129.226 452.446 132.859 458.959 135.44L459.946 132.948ZM443.943 122.635C439.463 118.154 435.994 112.825 433.54 106.632L431.049 107.619C433.631 114.136 437.297 119.778 442.048 124.53L443.943 122.635ZM433.54 106.632C431.091 100.451 429.858 93.6367 429.858 86.1726H427.178C427.178 93.9363 428.462 101.09 431.049 107.619L433.54 106.632ZM429.858 86.1726C429.858 78.6471 431.092 71.8027 433.54 65.6231L431.049 64.6358C428.461 71.166 427.178 78.3503 427.178 86.1726H429.858ZM433.542 65.6191C435.996 59.3661 439.465 54.009 443.943 49.5302L442.048 47.6351C437.295 52.389 433.629 58.063 431.047 64.6398L433.542 65.6191ZM443.943 49.5302C448.422 45.0517 453.748 41.6147 459.936 39.221L458.969 36.7214C452.448 39.2437 446.802 42.8811 442.048 47.6351L443.943 49.5302ZM459.942 39.2186C466.185 36.7684 473.061 35.5343 480.586 35.5343V32.8542C472.763 32.8542 465.551 34.138 458.963 36.7238L459.942 39.2186ZM480.586 35.5343H485.802V32.8542H480.586V35.5343ZM484.462 34.1942V137.971H487.142V34.1942H484.462ZM485.802 136.631H480.586V139.311H485.802V136.631ZM480.586 117.549H483.733V114.868H480.586V117.549ZM485.073 116.209V55.9568H482.393V116.209H485.073ZM483.733 54.6167H480.586V57.2968H483.733V54.6167ZM480.586 54.6167C475.409 54.6167 470.889 56.0433 467.093 58.938L468.719 61.069C471.998 58.5681 475.931 57.2968 480.586 57.2968V54.6167ZM467.085 58.9448C463.4 61.8033 460.598 65.6308 458.662 70.3787L461.143 71.3909C462.924 67.0261 465.457 63.5994 468.727 61.0623L467.085 58.9448ZM458.656 70.3928C456.787 75.1275 455.865 80.3937 455.865 86.1726H458.545C458.545 80.6805 459.421 75.7548 461.149 71.3768L458.656 70.3928ZM455.865 86.1726C455.865 90.4781 456.387 94.5271 457.442 98.3129L460.024 97.5934C459.041 94.065 458.545 90.2603 458.545 86.1726H455.865ZM457.444 98.3184C458.503 102.057 460.099 105.383 462.242 108.282L464.397 106.689C462.463 104.072 461.002 101.044 460.023 97.5878L457.444 98.3184ZM462.25 108.293C464.4 111.139 467.004 113.396 470.056 115.049L471.332 112.692C468.628 111.228 466.316 109.228 464.389 106.678L462.25 108.293ZM470.056 115.049C473.154 116.727 476.677 117.549 480.586 117.549V114.868C477.061 114.868 473.988 114.131 471.332 112.692L470.056 115.049ZM508.374 136.631H503.248V139.311H508.374V136.631ZM504.588 137.971V34.1942H501.908V137.971H504.588ZM503.248 35.5343H508.374V32.8542H503.248V35.5343ZM508.374 35.5343C515.96 35.5343 522.835 36.7689 529.013 39.217L530 36.7254C523.469 34.1375 516.254 32.8542 508.374 32.8542V35.5343ZM529.027 39.2225C535.276 41.6168 540.629 45.0538 545.106 49.5302L547.001 47.6351C542.245 42.8789 536.567 39.2416 529.986 36.7199L529.027 39.2225ZM545.106 49.5302C549.585 54.009 553.053 59.3661 555.507 65.6191L558.002 64.6398C555.421 58.063 551.755 52.389 547.001 47.6351L545.106 49.5302ZM555.513 65.6332C558.019 71.8101 559.282 78.6509 559.282 86.1726H561.962C561.962 78.3466 560.647 71.1586 557.997 64.6257L555.513 65.6332ZM559.282 86.1726C559.282 93.6328 558.019 100.444 555.513 106.622L557.997 107.63C560.646 101.098 561.962 93.9401 561.962 86.1726H559.282ZM555.509 106.632C553.055 112.825 549.587 118.154 545.106 122.635L547.001 124.53C551.753 119.778 555.419 114.136 558.001 107.619L555.509 106.632ZM545.112 122.629C540.633 127.05 535.274 130.491 529.017 132.947L529.996 135.441C536.569 132.861 542.241 129.228 546.995 124.536L545.112 122.629ZM529.013 132.948C522.835 135.396 515.96 136.631 508.374 136.631V139.311C516.254 139.311 523.469 138.028 530 135.44L529.013 132.948ZM508.374 117.549C512.339 117.549 515.892 116.729 518.994 115.049L517.717 112.692C515.064 114.129 511.962 114.868 508.374 114.868V117.549ZM518.984 115.054C522.101 113.4 524.713 111.138 526.81 108.278L524.649 106.693C522.789 109.229 520.486 111.223 517.727 112.687L518.984 115.054ZM526.807 108.282C528.946 105.389 530.57 102.069 531.689 98.3382L529.122 97.5681C528.083 101.031 526.59 104.067 524.652 106.689L526.807 108.282ZM531.691 98.3324C532.81 94.5405 533.365 90.4848 533.365 86.1726H530.685C530.685 90.2536 530.16 94.0517 529.121 97.5739L531.691 98.3324ZM533.365 86.1726C533.365 80.3885 532.411 75.1174 530.478 70.3787L527.996 71.3909C529.78 75.765 530.685 80.6856 530.685 86.1726H533.365ZM530.478 70.3787C528.539 65.6252 525.703 61.7959 521.956 58.938L520.331 61.069C523.658 63.6069 526.218 67.0318 527.996 71.3909L530.478 70.3787ZM521.965 58.9448C518.219 56.0388 513.662 54.6167 508.374 54.6167V57.2968C513.157 57.2968 517.113 58.5725 520.322 61.0623L521.965 58.9448ZM508.374 54.6167H505.406V57.2968H508.374V54.6167ZM504.066 55.9568V116.209H506.746V55.9568H504.066ZM505.406 117.549H508.374V114.868H505.406V117.549Z" fill="black" mask="url(#path-1-outside-1_1098_14909)"/>
</svg>
