<svg width="419" height="196" viewBox="0 0 419 196" fill="none" xmlns="http://www.w3.org/2000/svg">
<path d="M12.8636 81.0586C2.0441 94.194 -2.01213 112.59 3.36401 129.059C10.7958 151.824 38.4288 156.559 62.3633 156.559C67.43 156.559 84.4126 153.097 92.8633 148.059C102.777 140.421 126.363 127.559 124.863 103.559M130.363 80.5586C140.891 53.132 167.688 21.9972 184.752 10.9464C201.816 -0.104437 217.042 1.03316 230.093 1.03316C240.006 2.98331 246.685 7.08495 253.661 14.8467V14.8467C265.845 28.4026 255.016 48.2035 244.105 62.8038C237.624 71.4765 231.586 79.8897 230.863 82.0586M222.363 103.559C210.825 123.548 214.492 125.517 203.604 138.844C199.777 150.425 199.018 167.374 210.917 179.472C224.542 189.098 226.518 190.847 244.232 194.423C262.921 195.398 264.924 197.27 286.863 193.337C304.09 190.25 321.351 181.198 326.948 176.188C335.476 168.555 346.994 154.56 349.863 141.559C353.994 122.842 351.445 117.385 341.863 97.5586M418.12 26.1713C413.569 4.23219 368.957 -0.972425 353.863 4.05872C341.863 8.05872 333.134 12.5586 329.363 21.5586C325.593 30.5586 321.205 45.3386 328.363 66.0586C328.681 66.6834 331.041 71.9252 331.363 72.5586" stroke="#131313" stroke-width="0.487537" stroke-linecap="round"/>
<ellipse cx="231.483" cy="191.277" rx="1.48256" ry="1.27714" fill="#131313"/>
<ellipse cx="344.483" cy="154.983" rx="1.48256" ry="1.27714" fill="#131313"/>
<circle cx="194.463" cy="5.46261" r="1.46261" fill="#131313"/>
</svg>
