<svg width="883" height="176" viewBox="0 0 883 176" fill="none" xmlns="http://www.w3.org/2000/svg">
<mask id="path-1-outside-1_706_13011" maskUnits="userSpaceOnUse" x="0" y="0" width="884" height="176" fill="black">
<rect fill="white" width="884" height="176"/>
<path d="M176.405 37.4603V59.4196H134.646V138.077H107.737V37.4603H176.405ZM235.983 117.558C240.543 117.558 244.383 116.298 247.503 113.778C250.623 111.258 252.993 107.778 254.613 103.338C256.233 98.8385 257.043 93.6786 257.043 87.8588C257.043 82.039 256.233 76.9391 254.613 72.5592C253.053 68.1194 250.713 64.6395 247.593 62.1195C244.473 59.5996 240.603 58.3397 235.983 58.3397C231.483 58.3397 227.643 59.5696 224.463 62.0296C221.344 64.4295 218.944 67.8494 217.264 72.2893C215.644 76.6691 214.834 81.859 214.834 87.8588C214.834 93.7986 215.674 98.9885 217.354 103.428C219.034 107.868 221.434 111.348 224.553 113.868C227.733 116.328 231.543 117.558 235.983 117.558ZM315.181 68.5094H345.33C358.65 68.4494 368.999 71.5993 376.379 77.9591C383.819 84.3189 387.569 92.8087 387.629 103.428C387.629 110.328 385.949 116.388 382.589 121.608C379.229 126.768 374.399 130.818 368.099 133.757C361.799 136.637 354.21 138.077 345.33 138.077H297.811V37.4603H324.361V116.118H345.33C349.95 116.118 353.76 114.948 356.76 112.608C359.76 110.268 361.289 107.268 361.349 103.608C361.289 99.7084 359.76 96.5285 356.76 94.0686C353.76 91.6087 349.95 90.4087 345.33 90.4687H315.181V68.5094ZM527.575 2.0013C534.474 2.0013 541.104 3.17127 547.464 5.5112C553.884 7.79114 559.614 11.511 564.654 16.6709C569.753 21.7707 573.773 28.5505 576.713 37.0103C579.653 45.41 581.123 55.6997 581.123 67.8794C581.123 79.219 579.833 89.3288 577.253 98.2085C574.733 107.088 571.073 114.648 566.273 120.888C561.534 127.128 555.804 131.898 549.084 135.197C542.424 138.437 534.954 140.057 526.675 140.057C517.795 140.057 509.905 138.317 503.005 134.837C496.106 131.298 490.586 126.528 486.446 120.528C482.306 114.528 479.786 107.838 478.886 100.458H506.785C507.865 105.258 510.145 109.008 513.625 111.708C517.165 114.408 521.515 115.758 526.675 115.758C535.434 115.758 542.064 111.948 546.564 104.328C551.064 96.6485 553.314 86.2688 553.314 73.1892H552.504C550.524 77.0891 547.824 80.479 544.404 83.3589C540.984 86.1788 537.084 88.3388 532.704 89.8387C528.325 91.3387 523.675 92.0887 518.755 92.0887C510.835 92.0887 503.755 90.2287 497.516 86.5088C491.276 82.7889 486.386 77.6891 482.846 71.2093C479.306 64.6695 477.506 57.1997 477.446 48.7999C477.506 39.7402 479.636 31.7004 483.836 24.6806C488.036 17.6009 493.886 12.051 501.385 8.03113C508.945 3.95125 517.675 1.94131 527.575 2.0013ZM527.755 24.5006C523.495 24.5006 519.625 25.5506 516.145 27.6506C512.665 29.6905 509.935 32.5104 507.955 36.1103C505.975 39.6502 504.985 43.6401 504.985 48.08C504.985 52.5198 505.945 56.5097 507.865 60.0496C509.845 63.5895 512.545 66.4094 515.965 68.5094C519.385 70.5493 523.255 71.5693 527.575 71.5693C531.954 71.5693 535.854 70.5193 539.274 68.4194C542.754 66.2594 545.514 63.4095 547.554 59.8696C549.594 56.2697 550.614 52.2798 550.614 47.9C550.614 43.6401 549.624 39.7402 547.644 36.2003C545.664 32.6004 542.964 29.7505 539.544 27.6506C536.124 25.5506 532.194 24.5006 527.755 24.5006ZM647.721 139.877C636.321 139.877 626.572 137.177 618.472 131.778C610.432 126.318 604.252 118.488 599.933 108.288C595.673 98.0285 593.543 85.6389 593.543 71.1193C593.543 56.6597 595.703 44.3001 600.022 34.0404C604.342 23.7207 610.522 15.8309 618.562 10.3711C626.662 4.91122 636.381 2.1813 647.721 2.1813C659.121 2.1813 668.841 4.91122 676.88 10.3711C684.98 15.8309 691.16 23.6907 695.42 33.9504C699.74 44.2101 701.9 56.5997 701.9 71.1193C701.9 85.6389 699.77 98.0285 695.51 108.288C691.25 118.488 685.07 126.318 676.97 131.778C668.931 137.177 659.181 139.877 647.721 139.877ZM647.721 116.478C653.181 116.478 657.771 114.738 661.491 111.258C665.271 107.718 668.121 102.558 670.04 95.7786C672.02 88.9988 673.01 80.779 673.01 71.1193C673.01 61.3996 672.02 53.1498 670.04 46.37C668.121 39.5902 665.271 34.4304 661.491 30.8905C657.771 27.2906 653.181 25.4906 647.721 25.4906C639.621 25.4906 633.382 29.4805 629.002 37.4603C624.622 45.38 622.432 56.5997 622.432 71.1193C622.432 80.779 623.392 88.9988 625.312 95.7786C627.292 102.558 630.172 107.718 633.952 111.258C637.731 114.738 642.321 116.478 647.721 116.478ZM778.847 72.0193V94.1586H717.649V72.0193H778.847Z"/>
</mask>
<path d="M176.405 37.4603V59.4196H134.646V138.077H107.737V37.4603H176.405ZM235.983 117.558C240.543 117.558 244.383 116.298 247.503 113.778C250.623 111.258 252.993 107.778 254.613 103.338C256.233 98.8385 257.043 93.6786 257.043 87.8588C257.043 82.039 256.233 76.9391 254.613 72.5592C253.053 68.1194 250.713 64.6395 247.593 62.1195C244.473 59.5996 240.603 58.3397 235.983 58.3397C231.483 58.3397 227.643 59.5696 224.463 62.0296C221.344 64.4295 218.944 67.8494 217.264 72.2893C215.644 76.6691 214.834 81.859 214.834 87.8588C214.834 93.7986 215.674 98.9885 217.354 103.428C219.034 107.868 221.434 111.348 224.553 113.868C227.733 116.328 231.543 117.558 235.983 117.558ZM315.181 68.5094H345.33C358.65 68.4494 368.999 71.5993 376.379 77.9591C383.819 84.3189 387.569 92.8087 387.629 103.428C387.629 110.328 385.949 116.388 382.589 121.608C379.229 126.768 374.399 130.818 368.099 133.757C361.799 136.637 354.21 138.077 345.33 138.077H297.811V37.4603H324.361V116.118H345.33C349.95 116.118 353.76 114.948 356.76 112.608C359.76 110.268 361.289 107.268 361.349 103.608C361.289 99.7084 359.76 96.5285 356.76 94.0686C353.76 91.6087 349.95 90.4087 345.33 90.4687H315.181V68.5094ZM527.575 2.0013C534.474 2.0013 541.104 3.17127 547.464 5.5112C553.884 7.79114 559.614 11.511 564.654 16.6709C569.753 21.7707 573.773 28.5505 576.713 37.0103C579.653 45.41 581.123 55.6997 581.123 67.8794C581.123 79.219 579.833 89.3288 577.253 98.2085C574.733 107.088 571.073 114.648 566.273 120.888C561.534 127.128 555.804 131.898 549.084 135.197C542.424 138.437 534.954 140.057 526.675 140.057C517.795 140.057 509.905 138.317 503.005 134.837C496.106 131.298 490.586 126.528 486.446 120.528C482.306 114.528 479.786 107.838 478.886 100.458H506.785C507.865 105.258 510.145 109.008 513.625 111.708C517.165 114.408 521.515 115.758 526.675 115.758C535.434 115.758 542.064 111.948 546.564 104.328C551.064 96.6485 553.314 86.2688 553.314 73.1892H552.504C550.524 77.0891 547.824 80.479 544.404 83.3589C540.984 86.1788 537.084 88.3388 532.704 89.8387C528.325 91.3387 523.675 92.0887 518.755 92.0887C510.835 92.0887 503.755 90.2287 497.516 86.5088C491.276 82.7889 486.386 77.6891 482.846 71.2093C479.306 64.6695 477.506 57.1997 477.446 48.7999C477.506 39.7402 479.636 31.7004 483.836 24.6806C488.036 17.6009 493.886 12.051 501.385 8.03113C508.945 3.95125 517.675 1.94131 527.575 2.0013ZM527.755 24.5006C523.495 24.5006 519.625 25.5506 516.145 27.6506C512.665 29.6905 509.935 32.5104 507.955 36.1103C505.975 39.6502 504.985 43.6401 504.985 48.08C504.985 52.5198 505.945 56.5097 507.865 60.0496C509.845 63.5895 512.545 66.4094 515.965 68.5094C519.385 70.5493 523.255 71.5693 527.575 71.5693C531.954 71.5693 535.854 70.5193 539.274 68.4194C542.754 66.2594 545.514 63.4095 547.554 59.8696C549.594 56.2697 550.614 52.2798 550.614 47.9C550.614 43.6401 549.624 39.7402 547.644 36.2003C545.664 32.6004 542.964 29.7505 539.544 27.6506C536.124 25.5506 532.194 24.5006 527.755 24.5006ZM647.721 139.877C636.321 139.877 626.572 137.177 618.472 131.778C610.432 126.318 604.252 118.488 599.933 108.288C595.673 98.0285 593.543 85.6389 593.543 71.1193C593.543 56.6597 595.703 44.3001 600.022 34.0404C604.342 23.7207 610.522 15.8309 618.562 10.3711C626.662 4.91122 636.381 2.1813 647.721 2.1813C659.121 2.1813 668.841 4.91122 676.88 10.3711C684.98 15.8309 691.16 23.6907 695.42 33.9504C699.74 44.2101 701.9 56.5997 701.9 71.1193C701.9 85.6389 699.77 98.0285 695.51 108.288C691.25 118.488 685.07 126.318 676.97 131.778C668.931 137.177 659.181 139.877 647.721 139.877ZM647.721 116.478C653.181 116.478 657.771 114.738 661.491 111.258C665.271 107.718 668.121 102.558 670.04 95.7786C672.02 88.9988 673.01 80.779 673.01 71.1193C673.01 61.3996 672.02 53.1498 670.04 46.37C668.121 39.5902 665.271 34.4304 661.491 30.8905C657.771 27.2906 653.181 25.4906 647.721 25.4906C639.621 25.4906 633.382 29.4805 629.002 37.4603C624.622 45.38 622.432 56.5997 622.432 71.1193C622.432 80.779 623.392 88.9988 625.312 95.7786C627.292 102.558 630.172 107.718 633.952 111.258C637.731 114.738 642.321 116.478 647.721 116.478ZM778.847 72.0193V94.1586H717.649V72.0193H778.847Z" fill="#F4F3EF"/>
<path d="M27.5492 101.268H26.8787V103.811L28.1325 101.599L27.5492 101.268ZM63.7282 37.4603V36.7897H63.3375L63.1449 37.1295L63.7282 37.4603ZM91.2674 37.4603H91.9379V36.7897H91.2674V37.4603ZM64.7181 138.077H64.0476V138.748H64.7181V138.077ZM64.7181 74.1792H65.3887V71.8305L64.1487 73.8252L64.7181 74.1792ZM1 138.077H0.329462V138.748H1V138.077ZM1 37.4603V36.7897H0.329462V37.4603H1ZM27.5492 37.4603H28.2198V36.7897H27.5492V37.4603ZM187.655 37.4603V36.7897H186.984V37.4603H187.655ZM215.014 37.4603H215.684V36.7897H215.014V37.4603ZM215.014 54.4698H214.343V55.1403H215.014V54.4698ZM216.274 54.4698V55.1403H216.705L216.884 54.7482L216.274 54.4698ZM230.853 39.0802L231.149 39.6819L231.157 39.6781L230.853 39.0802ZM265.142 41.9601L264.786 42.5282L264.792 42.5322L265.142 41.9601ZM280.172 116.298L280.779 116.583L280.78 116.581L280.172 116.298ZM265.502 133.757L265.14 133.193L265.138 133.194L265.502 133.757ZM221.764 130.248L221.252 130.681L221.257 130.687L221.262 130.693L221.764 130.248ZM216.274 121.968L216.879 121.678L216.696 121.297H216.274V121.968ZM215.464 121.968V121.297H214.793V121.968H215.464ZM398.428 37.4603V36.7897H397.758V37.4603H398.428ZM426.238 37.4603H426.908V36.7897H426.238V37.4603ZM815.746 37.4603L816.342 37.1519L816.154 36.7897H815.746V37.4603ZM834.016 72.7392L833.42 73.0476L834.004 74.1753L834.606 73.0571L834.016 72.7392ZM853.005 37.4603V36.7897H852.605L852.415 37.1425L853.005 37.4603ZM881.714 37.4603L882.295 37.7961L882.877 36.7897H881.714V37.4603ZM852.555 87.8588L851.975 87.523L851.778 87.8635L851.979 88.2017L852.555 87.8588ZM834.016 103.338L834.607 103.023L834.028 101.938L833.43 103.012L834.016 103.338ZM815.746 87.8588L816.327 88.1932L816.519 87.8594L816.328 87.5253L815.746 87.8588ZM786.857 37.4603V36.7897H785.7L786.275 37.7937L786.857 37.4603ZM91.2674 138.077V138.748H91.9379V138.077H91.2674ZM24.996 138.077V138.748H25.3687L25.5654 138.431L24.996 138.077ZM28.1325 101.599L64.3115 37.791L63.1449 37.1295L26.9659 100.938L28.1325 101.599ZM63.7282 38.1308H91.2674V36.7897H63.7282V38.1308ZM65.3887 138.077V74.1792H64.0476V138.077H65.3887ZM1.67054 138.077V37.4603H0.329462V138.077H1.67054ZM1 38.1308H27.5492V36.7897H1V38.1308ZM26.8787 37.4603V101.268H28.2198V37.4603H26.8787ZM187.655 38.1308H215.014V36.7897H187.655V38.1308ZM214.343 37.4603V54.4698H215.684V37.4603H214.343ZM215.014 55.1403H216.274V53.7992H215.014V55.1403ZM216.884 54.7482C218.115 52.0519 219.88 49.3117 222.19 46.5282L221.158 45.6718C218.787 48.5282 216.953 51.3678 215.664 54.1913L216.884 54.7482ZM222.19 46.5282C224.461 43.791 227.442 41.5063 231.149 39.6819L230.557 38.4786C226.705 40.374 223.566 42.7692 221.158 45.6718L222.19 46.5282ZM231.157 39.6781C234.818 37.8186 239.386 36.8708 244.893 36.8708V35.5298C239.24 35.5298 234.449 36.502 230.55 38.4824L231.157 39.6781ZM244.893 36.8708C252.149 36.8708 258.775 38.7567 264.786 42.5281L265.499 41.3921C259.27 37.4838 252.396 35.5298 244.893 35.5298V36.8708ZM264.792 42.5322C270.844 46.2338 275.714 51.8569 279.388 59.4419L280.595 58.8573C276.83 51.0829 271.8 45.2462 265.492 41.3881L264.792 42.5322ZM279.388 59.4419C283.051 67.0045 284.901 76.4967 284.901 87.9488H286.242C286.242 76.3615 284.372 66.6543 280.595 58.8573L279.388 59.4419ZM284.901 87.9488C284.901 99.0395 283.112 108.387 279.564 116.015L280.78 116.581C284.432 108.73 286.242 99.1774 286.242 87.9488H284.901ZM279.565 116.013C276.01 123.597 271.198 129.311 265.141 133.193L265.864 134.322C272.166 130.284 277.134 124.359 280.779 116.583L279.565 116.013ZM265.138 133.194C259.133 137.08 252.361 139.027 244.803 139.027V140.368C252.605 140.368 259.632 138.354 265.867 134.32L265.138 133.194ZM244.803 139.027C239.475 139.027 234.989 138.138 231.322 136.392L230.745 137.603C234.637 139.456 239.331 140.368 244.803 140.368V139.027ZM231.322 136.392C227.61 134.624 224.596 132.425 222.265 129.802L221.262 130.693C223.731 133.47 226.897 135.77 230.745 137.603L231.322 136.392ZM222.275 129.814C219.966 127.09 218.17 124.378 216.879 121.678L215.669 122.257C217.018 125.077 218.882 127.885 221.252 130.681L222.275 129.814ZM216.274 121.297H215.464V122.638H216.274V121.297ZM214.793 121.968V175.696H216.134V121.968H214.793ZM398.428 38.1308H426.238V36.7897H398.428V38.1308ZM425.567 37.4603V138.077H426.908V37.4603H425.567ZM815.151 37.7686L833.42 73.0476L834.611 72.4309L816.342 37.1519L815.151 37.7686ZM834.606 73.0571L853.596 37.7781L852.415 37.1425L833.425 72.4214L834.606 73.0571ZM853.005 38.1308H881.714V36.7897H853.005V38.1308ZM881.134 37.1245L851.975 87.523L853.136 88.1946L882.295 37.7961L881.134 37.1245ZM851.979 88.2017L881.858 138.42L883.011 137.734L853.131 87.5159L851.979 88.2017ZM833.43 103.012L814.08 137.751L815.252 138.404L834.601 103.665L833.43 103.012ZM816.328 87.5253L787.439 37.1268L786.275 37.7937L815.164 88.1923L816.328 87.5253ZM786.857 38.1308H815.746V36.7897H786.857V38.1308ZM186.984 37.4603V175.696H188.325V37.4603H186.984ZM90.5968 37.4603V138.077H91.9379V37.4603H90.5968ZM64.1487 73.8252L24.4265 137.723L25.5654 138.431L65.2876 74.5332L64.1487 73.8252ZM397.758 37.4603V138.077H399.099V37.4603H397.758ZM1 138.748H24.996V137.407H1V138.748ZM64.7181 138.748H91.2674V137.407H64.7181V138.748ZM815.165 87.5244L786.276 137.743L787.438 138.412L816.327 88.1932L815.165 87.5244ZM833.424 103.654L851.964 138.393L853.147 137.762L834.607 103.023L833.424 103.654ZM176.405 37.4603H177.746V36.1192H176.405V37.4603ZM176.405 59.4196V60.7607H177.746V59.4196H176.405ZM134.646 59.4196V58.0786H133.305V59.4196H134.646ZM134.646 138.077V139.418H135.987V138.077H134.646ZM107.737 138.077H106.396V139.418H107.737V138.077ZM107.737 37.4603V36.1192H106.396V37.4603H107.737ZM254.613 103.338L255.872 103.798L255.874 103.793L254.613 103.338ZM254.613 72.5592L253.347 73.0038L253.351 73.0142L253.355 73.0245L254.613 72.5592ZM224.463 62.0296L225.281 63.0925L225.284 63.0903L224.463 62.0296ZM217.264 72.2893L216.009 71.8146L216.006 71.824L217.264 72.2893ZM224.553 113.868L223.711 114.911L223.722 114.92L223.733 114.929L224.553 113.868ZM315.181 68.5094V67.1683H313.84V68.5094H315.181ZM345.33 68.5094V69.8504L345.336 69.8504L345.33 68.5094ZM376.379 77.9591L375.504 78.975L375.508 78.9785L376.379 77.9591ZM387.629 103.428L388.97 103.428L388.97 103.421L387.629 103.428ZM382.589 121.608L383.713 122.34L383.717 122.334L382.589 121.608ZM368.099 133.757L368.657 134.977L368.666 134.973L368.099 133.757ZM297.811 138.077H296.47V139.418H297.811V138.077ZM297.811 37.4603V36.1192H296.47V37.4603H297.811ZM324.361 37.4603H325.702V36.1192H324.361V37.4603ZM324.361 116.118H323.019V117.459H324.361V116.118ZM361.349 103.608L362.69 103.63L362.691 103.609L362.69 103.588L361.349 103.608ZM345.33 90.4687V91.8098H345.339L345.347 91.8097L345.33 90.4687ZM315.181 90.4687H313.84V91.8098H315.181V90.4687ZM527.575 2.0013L527.566 3.34238H527.575V2.0013ZM547.464 5.5112L547.001 6.76979L547.008 6.77241L547.015 6.77495L547.464 5.5112ZM564.654 16.6709L563.694 17.6079L563.7 17.6136L563.705 17.6192L564.654 16.6709ZM576.713 37.0103L575.446 37.4505L575.447 37.4533L576.713 37.0103ZM577.253 98.2085L575.965 97.8343L575.963 97.8424L577.253 98.2085ZM566.273 120.888L565.211 120.07L565.206 120.077L566.273 120.888ZM549.084 135.197L549.671 136.403L549.675 136.401L549.084 135.197ZM503.005 134.837L502.393 136.031L502.401 136.035L503.005 134.837ZM478.886 100.458V99.1174H477.372L477.555 100.621L478.886 100.458ZM506.785 100.458L508.094 100.164L507.858 99.1174H506.785V100.458ZM513.625 111.708L512.803 112.768L512.812 112.774L513.625 111.708ZM546.564 104.328L547.719 105.01L547.721 105.006L546.564 104.328ZM553.314 73.1892H554.655V71.8481H553.314V73.1892ZM552.504 73.1892V71.8481H551.681L551.308 72.5821L552.504 73.1892ZM544.404 83.3589L545.257 84.3937L545.268 84.3847L544.404 83.3589ZM482.846 71.2093L481.667 71.8477L481.669 71.8522L482.846 71.2093ZM477.446 48.7999L476.105 48.7911L476.105 48.8003L476.105 48.8095L477.446 48.7999ZM483.836 24.6806L484.987 25.3692L484.989 25.3649L483.836 24.6806ZM501.385 8.03113L502.019 9.21312L502.022 9.2113L501.385 8.03113ZM516.145 27.6506L516.823 28.8075L516.831 28.8032L516.838 28.7988L516.145 27.6506ZM507.955 36.1103L509.126 36.765L509.13 36.7566L507.955 36.1103ZM507.865 60.0496L506.686 60.689L506.691 60.6967L506.695 60.7043L507.865 60.0496ZM515.965 68.5094L515.263 69.6522L515.271 69.6567L515.278 69.6611L515.965 68.5094ZM539.274 68.4194L539.976 69.5622L539.982 69.5588L539.274 68.4194ZM547.554 59.8696L548.716 60.5392L548.721 60.5308L547.554 59.8696ZM547.644 36.2003L546.469 36.8466L546.474 36.855L547.644 36.2003ZM618.472 131.778L617.719 132.887L617.728 132.893L618.472 131.778ZM599.933 108.288L598.694 108.802L598.698 108.811L599.933 108.288ZM600.022 34.0404L601.258 34.5608L601.26 34.5582L600.022 34.0404ZM618.562 10.3711L617.812 9.25903L617.809 9.26163L618.562 10.3711ZM676.88 10.3711L676.127 11.4805L676.131 11.4831L676.88 10.3711ZM695.42 33.9504L694.181 34.4646L694.184 34.4708L695.42 33.9504ZM695.51 108.288L696.747 108.805L696.748 108.802L695.51 108.288ZM676.97 131.778L677.718 132.891L677.72 132.89L676.97 131.778ZM661.491 111.258L662.407 112.237L662.407 112.237L661.491 111.258ZM670.04 95.7786L668.753 95.4026L668.75 95.4132L670.04 95.7786ZM670.04 46.37L668.75 46.7354L668.753 46.7459L670.04 46.37ZM661.491 30.8905L660.558 31.8542L660.566 31.8618L660.574 31.8693L661.491 30.8905ZM629.002 37.4603L630.175 38.1093L630.177 38.1055L629.002 37.4603ZM625.312 95.7786L624.021 96.144L624.024 96.1545L625.312 95.7786ZM633.952 111.258L633.035 112.237L633.043 112.245L633.952 111.258ZM778.847 72.0193H780.188V70.6782H778.847V72.0193ZM778.847 94.1586V95.4997H780.188V94.1586H778.847ZM717.649 94.1586H716.308V95.4997H717.649V94.1586ZM717.649 72.0193V70.6782H716.308V72.0193H717.649ZM175.064 37.4603V59.4196H177.746V37.4603H175.064ZM176.405 58.0786H134.646V60.7607H176.405V58.0786ZM133.305 59.4196V138.077H135.987V59.4196H133.305ZM134.646 136.736H107.737V139.418H134.646V136.736ZM109.078 138.077V37.4603H106.396V138.077H109.078ZM107.737 38.8013H176.405V36.1192H107.737V38.8013ZM235.983 118.899C240.805 118.899 244.955 117.56 248.345 114.821L246.66 112.735C243.811 115.036 240.281 116.217 235.983 116.217V118.899ZM248.345 114.821C251.686 112.123 254.184 108.425 255.872 103.798L253.353 102.879C251.801 107.131 249.559 110.393 246.66 112.735L248.345 114.821ZM255.874 103.793C257.557 99.1193 258.384 93.801 258.384 87.8588H255.701C255.701 93.5563 254.908 98.5577 253.351 102.884L255.874 103.793ZM258.384 87.8588C258.384 81.9178 257.557 76.6544 255.87 72.094L253.355 73.0245C254.908 77.2238 255.701 82.1602 255.701 87.8588H258.384ZM255.878 72.1147C254.25 67.4812 251.781 63.7781 248.435 61.0763L246.75 63.1628C249.645 65.5009 251.855 68.7575 253.347 73.0038L255.878 72.1147ZM248.435 61.0763C245.041 58.335 240.861 56.9986 235.983 56.9986V59.6807C240.345 59.6807 243.904 60.8643 246.75 63.1628L248.435 61.0763ZM235.983 56.9986C231.224 56.9986 227.086 58.3056 223.643 60.9688L225.284 63.0903C228.201 60.8337 231.743 59.6807 235.983 59.6807V56.9986ZM223.646 60.9666C220.291 63.5469 217.759 67.1902 216.009 71.8147L218.518 72.7638C220.128 68.5086 222.396 65.312 225.281 63.0925L223.646 60.9666ZM216.006 71.824C214.318 76.3885 213.493 81.7432 213.493 87.8588H216.175C216.175 81.9747 216.97 76.9498 218.521 72.7545L216.006 71.824ZM213.493 87.8588C213.493 93.9216 214.35 99.2787 216.099 103.903L218.608 102.954C216.998 98.6983 216.175 93.6756 216.175 87.8588H213.493ZM216.099 103.903C217.848 108.524 220.374 112.216 223.711 114.911L225.396 112.825C222.493 110.48 220.219 107.212 218.608 102.954L216.099 103.903ZM223.733 114.929C227.172 117.59 231.279 118.899 235.983 118.899V116.217C231.807 116.217 228.294 115.066 225.374 112.807L223.733 114.929ZM315.181 69.8504H345.33V67.1683H315.181V69.8504ZM345.336 69.8504C358.451 69.7913 368.446 72.8929 375.504 78.975L377.255 76.9432C369.552 70.3056 358.848 67.1074 345.324 67.1683L345.336 69.8504ZM375.508 78.9785C382.624 85.0619 386.23 93.1683 386.288 103.436L388.97 103.421C388.908 92.449 385.014 83.5759 377.25 76.9397L375.508 78.9785ZM386.288 103.428C386.288 110.1 384.667 115.902 381.461 120.882L383.717 122.334C387.231 116.874 388.97 110.556 388.97 103.428H386.288ZM381.465 120.876C378.259 125.8 373.635 129.694 367.532 132.542L368.666 134.973C375.163 131.941 380.199 127.736 383.713 122.34L381.465 120.876ZM367.542 132.538C361.459 135.319 354.07 136.736 345.33 136.736V139.418C354.35 139.418 362.14 137.956 368.657 134.977L367.542 132.538ZM345.33 136.736H297.811V139.418H345.33V136.736ZM299.152 138.077V37.4603H296.47V138.077H299.152ZM297.811 38.8013H324.361V36.1192H297.811V38.8013ZM323.019 37.4603V116.118H325.702V37.4603H323.019ZM324.361 117.459H345.33V114.777H324.361V117.459ZM345.33 117.459C350.183 117.459 354.302 116.226 357.584 113.666L355.935 111.551C353.218 113.67 349.717 114.777 345.33 114.777V117.459ZM357.584 113.666C360.889 111.088 362.623 107.714 362.69 103.63L360.009 103.586C359.956 106.823 358.63 109.449 355.935 111.551L357.584 113.666ZM362.69 103.588C362.624 99.2958 360.917 95.7432 357.61 93.0316L355.909 95.1056C358.602 97.3139 359.955 100.121 360.009 103.629L362.69 103.588ZM357.61 93.0316C354.321 90.3346 350.185 89.0645 345.313 89.1278L345.347 91.8097C349.714 91.753 353.198 92.8828 355.909 95.1056L357.61 93.0316ZM345.33 89.1276H315.181V91.8098H345.33V89.1276ZM316.522 90.4687V68.5094H313.84V90.4687H316.522ZM527.575 3.34238C534.319 3.34238 540.792 4.48542 547.001 6.76979L547.927 4.25261C541.416 1.85712 534.629 0.660229 527.575 0.660229V3.34238ZM547.015 6.77495C553.231 8.98237 558.789 12.5857 563.694 17.6079L565.613 15.7338C560.439 10.4363 554.537 6.5999 547.913 4.24746L547.015 6.77495ZM563.705 17.6192C568.632 22.5455 572.557 29.1368 575.446 37.4505L577.98 36.5701C574.989 27.9642 570.875 20.9959 565.602 15.7226L563.705 17.6192ZM575.447 37.4533C578.323 45.6689 579.782 55.7989 579.782 67.8794H582.464C582.464 55.6006 580.983 45.1511 577.979 36.5673L575.447 37.4533ZM579.782 67.8794C579.782 79.1199 578.503 89.1 575.965 97.8343L578.541 98.5827C581.163 89.5575 582.464 79.3182 582.464 67.8794H579.782ZM575.963 97.8424C573.482 106.586 569.89 113.986 565.211 120.07L567.336 121.706C572.256 115.31 575.985 107.59 578.543 98.5746L575.963 97.8424ZM565.206 120.077C560.586 126.158 555.017 130.79 548.493 133.994L549.675 136.401C556.591 133.005 562.481 128.097 567.341 121.699L565.206 120.077ZM548.497 133.991C542.041 137.132 534.775 138.716 526.675 138.716V141.398C535.133 141.398 542.808 139.742 549.671 136.403L548.497 133.991ZM526.675 138.716C517.973 138.716 510.296 137.012 503.609 133.64L502.401 136.035C509.515 139.622 517.617 141.398 526.675 141.398V138.716ZM503.618 133.644C496.902 130.199 491.556 125.572 487.55 119.766L485.342 121.289C489.616 127.483 495.309 132.396 502.393 136.031L503.618 133.644ZM487.55 119.766C483.535 113.948 481.092 107.465 480.217 100.296L477.555 100.621C478.481 108.211 481.076 115.108 485.342 121.289L487.55 119.766ZM478.886 101.8H506.785V99.1174H478.886V101.8ZM505.477 100.753C506.617 105.819 509.048 109.854 512.803 112.768L514.447 110.649C511.242 108.162 509.114 104.698 508.094 100.164L505.477 100.753ZM512.812 112.774C516.621 115.68 521.27 117.099 526.675 117.099V114.417C521.76 114.417 517.709 113.136 514.438 110.642L512.812 112.774ZM526.675 117.099C535.915 117.099 542.981 113.033 547.719 105.01L545.409 103.646C541.148 110.863 534.954 114.417 526.675 114.417V117.099ZM547.721 105.006C552.385 97.0463 554.655 86.4026 554.655 73.1892H551.973C551.973 86.135 549.743 96.2507 545.407 103.65L547.721 105.006ZM553.314 71.8481H552.504V74.5303H553.314V71.8481ZM551.308 72.5821C549.411 76.318 546.826 79.5665 543.54 82.3331L545.268 84.3847C548.822 81.3916 551.636 77.8602 553.7 73.7963L551.308 72.5821ZM543.551 82.3242C540.261 85.0371 536.504 87.1199 532.27 88.57L533.139 91.1075C537.664 89.5576 541.708 87.3206 545.257 84.3936L543.551 82.3242ZM532.27 88.57C528.039 90.0191 523.536 90.7476 518.755 90.7476V93.4298C523.813 93.4298 528.611 92.6583 533.139 91.1075L532.27 88.57ZM518.755 90.7476C511.054 90.7476 504.216 88.942 498.202 85.3569L496.829 87.6608C503.295 91.5155 510.616 93.4298 518.755 93.4298V90.7476ZM498.202 85.3569C492.172 81.7619 487.45 76.8394 484.023 70.5663L481.669 71.8522C485.322 78.5388 490.379 83.816 496.829 87.6608L498.202 85.3569ZM484.025 70.5709C480.603 64.2481 478.846 56.9993 478.787 48.7904L476.105 48.8095C476.166 57.4001 478.009 65.0908 481.667 71.8477L484.025 70.5709ZM478.787 48.8088C478.846 39.9621 480.923 32.1619 484.987 25.3692L482.685 23.9921C478.349 31.239 476.166 39.5183 476.105 48.7911L478.787 48.8088ZM484.989 25.3649C489.06 18.5026 494.727 13.1216 502.019 9.21312L500.752 6.84914C493.044 10.9804 487.011 16.6991 482.683 23.9964L484.989 25.3649ZM502.022 9.2113C509.356 5.25366 517.857 3.28351 527.566 3.34236L527.583 0.660253C517.493 0.599101 508.535 2.64884 500.748 6.85095L502.022 9.2113ZM527.755 23.1596C523.263 23.1596 519.151 24.27 515.452 26.5023L516.838 28.7988C520.098 26.8312 523.727 25.8417 527.755 25.8417V23.1596ZM515.467 26.4936C511.774 28.6582 508.874 31.6563 506.78 35.464L509.13 36.7566C510.996 33.3645 513.556 30.7228 516.823 28.8075L515.467 26.4936ZM506.785 35.4557C504.683 39.2142 503.644 43.4331 503.644 48.08H506.326C506.326 43.847 507.268 40.0862 509.126 36.765L506.785 35.4557ZM503.644 48.08C503.644 52.7198 504.649 56.9332 506.686 60.689L509.044 59.4102C507.241 56.0862 506.326 52.3199 506.326 48.08H503.644ZM506.695 60.7043C508.785 64.442 511.646 67.4309 515.263 69.6522L516.667 67.3665C513.444 65.3879 510.905 62.737 509.036 59.395L506.695 60.7043ZM515.278 69.6611C518.923 71.8354 523.034 72.9103 527.575 72.9103V70.2282C523.475 70.2282 519.847 69.2632 516.652 67.3576L515.278 69.6611ZM527.575 72.9103C532.179 72.9103 536.326 71.8035 539.976 69.5622L538.573 67.2765C535.383 69.2351 531.73 70.2282 527.575 70.2282V72.9103ZM539.982 69.5588C543.649 67.2825 546.565 64.2713 548.716 60.5392L546.392 59.2C544.463 62.5477 541.859 65.2364 538.567 67.2799L539.982 69.5588ZM548.721 60.5308C550.882 56.7174 551.955 52.4975 551.955 47.9H549.273C549.273 52.0621 548.306 55.8221 546.387 59.2084L548.721 60.5308ZM551.955 47.9C551.955 43.4228 550.912 39.2958 548.814 35.5457L546.474 36.855C548.336 40.1846 549.273 43.8573 549.273 47.9H551.955ZM548.819 35.554C546.73 31.7554 543.869 28.7323 540.246 26.5077L538.843 28.7934C542.059 30.7687 544.598 33.4454 546.469 36.8466L548.819 35.554ZM540.246 26.5077C536.593 24.2646 532.415 23.1596 527.755 23.1596V25.8417C531.974 25.8417 535.656 26.8366 538.843 28.7934L540.246 26.5077ZM647.721 138.536C636.54 138.536 627.06 135.891 619.216 130.662L617.728 132.893C626.084 138.464 636.103 141.218 647.721 141.218V138.536ZM619.225 130.668C611.428 125.373 605.401 117.761 601.167 107.765L598.698 108.811C603.104 119.215 609.436 127.263 617.719 132.887L619.225 130.668ZM601.171 107.774C596.996 97.7189 594.884 85.5139 594.884 71.1193H592.202C592.202 85.7638 594.349 98.3381 598.694 108.802L601.171 107.774ZM594.884 71.1193C594.884 56.7875 597.025 44.6145 601.258 34.5608L598.787 33.52C594.38 43.9857 592.202 56.532 592.202 71.1193H594.884ZM601.26 34.5582C605.495 24.4412 611.522 16.7731 619.315 11.4805L617.809 9.26163C609.523 14.8887 603.19 23.0001 598.785 33.5225L601.26 34.5582ZM619.312 11.4831C627.156 6.19542 636.604 3.52237 647.721 3.52237V0.840223C636.158 0.840223 626.168 3.62702 617.812 9.25903L619.312 11.4831ZM647.721 3.52237C658.9 3.52237 668.346 6.19629 676.127 11.4805L677.634 9.26163C669.335 3.62615 659.342 0.840223 647.721 0.840223V3.52237ZM676.131 11.4831C683.983 16.7764 690.008 24.4135 694.181 34.4646L696.658 33.4361C692.312 22.9679 685.977 14.8854 677.63 9.25903L676.131 11.4831ZM694.184 34.4708C698.417 44.5239 700.558 56.7266 700.558 71.1193H703.241C703.241 56.4728 701.063 43.8963 696.656 33.43L694.184 34.4708ZM700.558 71.1193C700.558 85.5139 698.446 97.7189 694.271 107.774L696.748 108.802C701.093 98.3381 703.241 85.7638 703.241 71.1193H700.558ZM694.272 107.771C690.1 117.762 684.075 125.371 676.221 130.665L677.72 132.89C686.065 127.265 692.4 119.214 696.747 108.805L694.272 107.771ZM676.223 130.664C668.442 135.89 658.964 138.536 647.721 138.536V141.218C659.397 141.218 669.419 138.465 677.718 132.891L676.223 130.664ZM647.721 117.819C653.494 117.819 658.42 115.967 662.407 112.237L660.575 110.279C657.122 113.509 652.868 115.137 647.721 115.137V117.819ZM662.407 112.237C666.418 108.481 669.367 103.077 671.331 96.144L668.75 95.4132C666.874 102.04 664.123 106.956 660.574 110.279L662.407 112.237ZM671.328 96.1545C673.354 89.2171 674.351 80.863 674.351 71.1193H671.669C671.669 80.695 670.687 88.7805 668.753 95.4026L671.328 96.1545ZM674.351 71.1193C674.351 61.3165 673.354 52.9321 671.328 45.9941L668.753 46.7459C670.687 53.3675 671.669 61.4827 671.669 71.1193H674.351ZM671.331 46.0046C669.367 39.0717 666.418 33.6679 662.407 29.9116L660.574 31.8693C664.123 35.1928 666.874 40.1087 668.75 46.7354L671.331 46.0046ZM662.423 29.9268C658.439 26.0706 653.508 24.1495 647.721 24.1495V26.8317C652.854 26.8317 657.103 28.5106 660.558 31.8542L662.423 29.9268ZM647.721 24.1495C639.062 24.1495 632.406 28.4708 627.826 36.815L630.177 38.1055C634.357 30.4902 640.18 26.8317 647.721 26.8317V24.1495ZM627.828 36.8113C623.291 45.0151 621.091 56.4959 621.091 71.1193H623.773C623.773 56.7035 625.952 45.745 630.175 38.1093L627.828 36.8113ZM621.091 71.1193C621.091 80.8603 622.058 89.2105 624.021 96.144L626.602 95.4132C624.726 88.787 623.773 80.6977 623.773 71.1193H621.091ZM624.024 96.1545C626.048 103.084 629.027 108.484 633.035 112.237L634.868 110.279C631.316 106.953 628.535 102.033 626.599 95.4026L624.024 96.1545ZM633.043 112.245C637.084 115.965 642.004 117.819 647.721 117.819V115.137C642.639 115.137 638.379 113.511 634.86 110.271L633.043 112.245ZM777.506 72.0193V94.1586H780.188V72.0193H777.506ZM778.847 92.8175H717.649V95.4997H778.847V92.8175ZM718.99 94.1586V72.0193H716.308V94.1586H718.99ZM717.649 73.3603H778.847V70.6782H717.649V73.3603Z" fill="#131313" mask="url(#path-1-outside-1_706_13011)"/>
</svg>
