<svg width="1322" height="663" viewBox="0 0 1322 663" fill="none" xmlns="http://www.w3.org/2000/svg">
<path d="M419.176 374.196C398.176 439.196 370.176 455.196 324.176 475.696C296.527 488.018 251.765 486.318 236.176 486.318C162.537 486.318 39.5415 464.739 16.676 394.696C-22.3246 318.196 18.1763 226.696 64.6761 181.696C82.6159 161.907 119.176 142.696 147.176 136.196M440.176 287.196C464.176 192.196 493.176 128.696 545.676 94.6964C598.176 60.6964 645.022 64.1965 685.176 64.1965C715.676 70.1965 711.676 71.6963 737.176 94.6964C764.176 131.696 752.676 175.696 744.676 194.696C726.339 238.247 710.176 267.196 688.176 301.696M657.176 373.196C645.402 408.828 589.449 543.512 625.676 596.696C649.175 631.196 674.176 648.197 728.676 659.197C786.176 662.197 855.175 661.796 922.675 649.697C975.675 640.197 1092.5 597.582 1154.18 508.696C1171.18 484.196 1207.68 414.196 1199.18 320.196C1199.18 234.196 1137.18 172.696 1112.68 114.696C1083.88 46.5253 1157.48 -13.4037 1220.68 4.19632C1283.88 21.7963 1304.51 41.8631 1316.68 64.1965" stroke="#131313" stroke-width="1.5" stroke-linecap="round"/>
<ellipse cx="202.97" cy="486.697" rx="4.29495" ry="4" fill="#131313"/>
<circle cx="514.176" cy="118.197" r="4.5" fill="#131313"/>
<ellipse cx="726.97" cy="658.697" rx="4.29495" ry="4" fill="#131313"/>
<ellipse cx="1088.97" cy="575.697" rx="4.29495" ry="4" fill="#131313"/>
<ellipse cx="1316.97" cy="66.6973" rx="4.29495" ry="4" fill="#131313"/>
</svg>
