<svg width="732" height="172" viewBox="0 0 732 172" fill="none" xmlns="http://www.w3.org/2000/svg">
<mask id="path-1-outside-1_385_4876" maskUnits="userSpaceOnUse" x="5" y="52" width="722" height="97" fill="black">
<rect fill="white" x="5" y="52" width="722" height="97"/>
<path d="M69.1929 90.5714V109.885H22.6653V90.5714H69.1929ZM30.8056 55.7754V145H7.26246V55.7754H30.8056ZM84.6755 55.7754V145H61.292V55.7754H84.6755ZM139.344 146.756C130.352 146.756 122.557 144.84 115.96 141.01C109.416 137.126 104.361 131.752 100.797 124.889C97.2851 117.972 95.5293 109.938 95.5293 100.787C95.5293 91.5291 97.2851 83.4686 100.797 76.6051C104.361 69.6885 109.416 64.3148 115.96 60.4841C122.557 56.6001 130.352 54.6581 139.344 54.6581C148.388 54.6581 156.183 56.6001 162.727 60.4841C169.324 64.3148 174.379 69.6885 177.89 76.6051C181.455 83.4686 183.238 91.5291 183.238 100.787C183.238 109.938 181.455 117.972 177.89 124.889C174.379 131.752 169.324 137.126 162.727 141.01C156.183 144.84 148.388 146.756 139.344 146.756ZM139.503 127.442C143.6 127.442 147.032 126.298 149.798 124.011C152.565 121.67 154.64 118.477 156.023 114.434C157.46 110.39 158.178 105.788 158.178 100.627C158.178 95.4131 157.46 90.8108 156.023 86.8205C154.64 82.8301 152.565 79.691 149.798 77.4032C147.032 75.1154 143.6 73.9715 139.503 73.9715C135.353 73.9715 131.868 75.1154 129.048 77.4032C126.282 79.691 124.18 82.8301 122.744 86.8205C121.36 90.8108 120.669 95.4131 120.669 100.627C120.669 105.788 121.36 110.39 122.744 114.434C124.18 118.477 126.282 121.67 129.048 124.011C131.868 126.298 135.353 127.442 139.503 127.442ZM234.314 146.756C225.216 146.756 217.395 144.814 210.851 140.93C204.307 136.993 199.279 131.592 195.767 124.729C192.256 117.812 190.5 109.832 190.5 100.787C190.5 91.6355 192.256 83.6016 195.767 76.685C199.332 69.7683 204.386 64.368 210.931 60.4841C217.475 56.6001 225.269 54.6581 234.314 54.6581C242.082 54.6581 248.866 56.0681 254.665 58.8879C260.518 61.7078 265.146 65.6715 268.552 70.7792C271.957 75.8869 273.819 81.899 274.138 88.8157H250.834C250.409 85.8362 249.504 83.2292 248.121 80.9945C246.738 78.7599 244.902 77.0308 242.614 75.8071C240.326 74.5834 237.666 73.9715 234.633 73.9715C230.803 73.9715 227.451 75.009 224.578 77.084C221.758 79.1058 219.55 82.1119 217.954 86.1022C216.411 90.0394 215.639 94.8278 215.639 100.468C215.639 106.107 216.411 110.949 217.954 114.992C219.55 119.036 221.758 122.122 224.578 124.25C227.451 126.378 230.803 127.442 234.633 127.442C238.89 127.442 242.481 126.112 245.407 123.452C248.334 120.739 250.143 117.014 250.834 112.279H274.138C273.766 119.089 271.93 125.101 268.631 130.315C265.333 135.476 260.784 139.52 254.984 142.446C249.185 145.319 242.295 146.756 234.314 146.756ZM308.375 112.359L340.458 55.7754H364.879V145H341.336V88.3368L309.333 145H284.832V55.7754H308.375V112.359ZM370.625 75.2484V55.7754H451.31V75.2484H422.659V145H399.116V75.2484H370.625ZM498.476 146.756C489.325 146.756 481.424 144.894 474.774 141.169C468.123 137.445 463.015 132.151 459.451 125.288C455.939 118.371 454.183 110.204 454.183 100.787C454.183 91.6355 455.939 83.6016 459.451 76.685C463.015 69.7683 468.017 64.368 474.454 60.4841C480.945 56.6001 488.554 54.6581 497.279 54.6581C503.185 54.6581 508.692 55.6158 513.799 57.5312C518.907 59.3934 523.376 62.2132 527.207 65.9908C531.038 69.7151 534.017 74.4237 536.145 80.1167C538.274 85.7564 539.338 92.3804 539.338 99.9887V106.692H464V91.4493H527.367L515.874 95.4397C515.874 90.9173 515.183 86.9801 513.799 83.6282C512.416 80.2763 510.341 77.6958 507.574 75.8869C504.861 74.0247 501.482 73.0936 497.439 73.0936C493.395 73.0936 489.964 74.0247 487.144 75.8869C484.377 77.7491 482.249 80.2763 480.759 83.4686C479.269 86.6609 478.525 90.332 478.525 94.482V105.256C478.525 110.098 479.376 114.248 481.078 117.706C482.781 121.111 485.149 123.745 488.181 125.607C491.267 127.416 494.805 128.32 498.796 128.32C501.562 128.32 504.063 127.921 506.297 127.123C508.532 126.325 510.447 125.155 512.044 123.612C513.693 122.069 514.917 120.207 515.715 118.025L538.54 119.541C537.422 125.022 535.081 129.81 531.517 133.907C528.005 137.95 523.456 141.116 517.87 143.404C512.283 145.638 505.819 146.756 498.476 146.756ZM544.605 145L544.525 125.447H547.478C550.298 125.394 552.586 124.436 554.341 122.574C556.15 120.712 557.507 117.599 558.412 113.237C559.369 108.821 559.981 102.862 560.247 95.3599L561.764 55.7754H629.52V145H605.977V75.2484H583.95L582.513 102.543C582.141 109.991 581.236 116.402 579.8 121.776C578.363 127.15 576.368 131.566 573.814 135.024C571.314 138.429 568.228 140.956 564.557 142.606C560.939 144.202 556.762 145 552.027 145H544.605ZM667.668 112.359L699.75 55.7754H724.171V145H700.628V88.3368L668.625 145H644.125V55.7754H667.668V112.359Z"/>
</mask>
<path d="M69.1929 90.5714H71.1929V88.5714H69.1929V90.5714ZM69.1929 109.885V111.885H71.1929V109.885H69.1929ZM22.6653 109.885H20.6653V111.885H22.6653V109.885ZM22.6653 90.5714V88.5714H20.6653V90.5714H22.6653ZM30.8056 55.7754H32.8056V53.7754H30.8056V55.7754ZM30.8056 145V147H32.8056V145H30.8056ZM7.26246 145H5.26246V147H7.26246V145ZM7.26246 55.7754V53.7754H5.26246V55.7754H7.26246ZM84.6755 55.7754H86.6755V53.7754H84.6755V55.7754ZM84.6755 145V147H86.6755V145H84.6755ZM61.292 145H59.292V147H61.292V145ZM61.292 55.7754V53.7754H59.292V55.7754H61.292ZM67.1929 90.5714V109.885H71.1929V90.5714H67.1929ZM69.1929 107.885H22.6653V111.885H69.1929V107.885ZM24.6653 109.885V90.5714H20.6653V109.885H24.6653ZM22.6653 92.5714H69.1929V88.5714H22.6653V92.5714ZM28.8056 55.7754V145H32.8056V55.7754H28.8056ZM30.8056 143H7.26246V147H30.8056V143ZM9.26246 145V55.7754H5.26246V145H9.26246ZM7.26246 57.7754H30.8056V53.7754H7.26246V57.7754ZM82.6755 55.7754V145H86.6755V55.7754H82.6755ZM84.6755 143H61.292V147H84.6755V143ZM63.292 145V55.7754H59.292V145H63.292ZM61.292 57.7754H84.6755V53.7754H61.292V57.7754ZM115.96 141.01L114.939 142.73L114.947 142.734L114.956 142.739L115.96 141.01ZM100.797 124.889L99.0133 125.794L99.0175 125.802L99.0217 125.81L100.797 124.889ZM100.797 76.6051L99.0188 75.6889L99.0161 75.6942L100.797 76.6051ZM115.96 60.4841L116.97 62.2101L116.975 62.2076L115.96 60.4841ZM162.727 60.4841L161.706 62.204L161.715 62.2089L161.723 62.2137L162.727 60.4841ZM177.89 76.6051L176.107 77.5105L176.111 77.5188L176.116 77.527L177.89 76.6051ZM177.89 124.889L176.113 123.972L176.11 123.978L177.89 124.889ZM162.727 141.01L163.737 142.736L163.742 142.733L162.727 141.01ZM149.798 124.011L151.073 125.552L151.082 125.545L151.09 125.537L149.798 124.011ZM156.023 114.434L154.139 113.764L154.135 113.775L154.131 113.786L156.023 114.434ZM156.023 86.8205L154.134 87.4756L154.137 87.4868L154.141 87.4979L156.023 86.8205ZM129.048 77.4032L127.788 75.8501L127.781 75.856L127.774 75.8619L129.048 77.4032ZM122.744 86.8205L120.862 86.143L120.858 86.1542L120.854 86.1654L122.744 86.8205ZM122.744 114.434L120.851 115.081L120.855 115.092L120.859 115.103L122.744 114.434ZM129.048 124.011L127.757 125.537L127.772 125.551L127.788 125.564L129.048 124.011ZM139.344 144.756C130.641 144.756 123.206 142.904 116.964 139.28L114.956 142.739C121.909 146.776 130.063 148.756 139.344 148.756V144.756ZM116.981 139.29C110.763 135.599 105.967 130.505 102.571 123.967L99.0217 125.81C102.755 132.999 108.069 138.652 114.939 142.73L116.981 139.29ZM102.58 123.983C99.2343 117.393 97.5293 109.68 97.5293 100.787H93.5293C93.5293 110.196 95.3358 118.551 99.0133 125.794L102.58 123.983ZM97.5293 100.787C97.5293 91.7828 99.2361 84.0463 102.577 77.5161L99.0161 75.6942C95.3341 82.8908 93.5293 91.2754 93.5293 100.787H97.5293ZM102.574 77.5214C105.97 70.9327 110.763 65.844 116.97 62.2101L114.95 58.758C108.069 62.7857 102.753 68.4443 99.0188 75.6889L102.574 77.5214ZM116.975 62.2076C123.215 58.5341 130.646 56.6581 139.344 56.6581V52.6581C130.058 52.6581 121.9 54.6662 114.945 58.7606L116.975 62.2076ZM139.344 56.6581C148.097 56.6581 155.525 58.5353 161.706 62.204L163.748 58.7642C156.841 54.665 148.679 52.6581 139.344 52.6581V56.6581ZM161.723 62.2137C167.981 65.8472 172.767 70.9319 176.107 77.5105L179.674 75.6998C175.991 68.4451 170.668 62.7825 163.731 58.7545L161.723 62.2137ZM176.116 77.527C179.506 84.0547 181.238 91.7872 181.238 100.787H185.238C185.238 91.271 183.404 82.8824 179.665 75.6833L176.116 77.527ZM181.238 100.787C181.238 109.675 179.508 117.385 176.113 123.972L179.668 125.805C183.403 118.559 185.238 110.201 185.238 100.787H181.238ZM176.11 123.978C172.77 130.505 167.98 135.596 161.712 139.286L163.742 142.733C170.669 138.655 175.988 132.998 179.671 125.8L176.11 123.978ZM161.717 139.284C155.533 142.903 148.102 144.756 139.344 144.756V148.756C148.675 148.756 156.832 146.778 163.737 142.736L161.717 139.284ZM139.503 129.442C143.996 129.442 147.898 128.178 151.073 125.552L148.524 122.469C146.166 124.419 143.204 125.442 139.503 125.442V129.442ZM151.09 125.537C154.179 122.924 156.436 119.405 157.916 115.081L154.131 113.786C152.843 117.55 150.951 120.415 148.506 122.484L151.09 125.537ZM157.908 115.103C159.434 110.806 160.178 105.971 160.178 100.627H156.178C156.178 105.605 155.485 109.974 154.139 113.764L157.908 115.103ZM160.178 100.627C160.178 95.2332 159.435 90.3941 157.905 86.143L154.141 87.4979C155.484 91.2276 156.178 95.5929 156.178 100.627H160.178ZM157.913 86.1654C156.431 81.8906 154.168 78.4216 151.073 75.8619L148.524 78.9445C150.962 80.9604 152.849 83.7696 154.134 87.4756L157.913 86.1654ZM151.073 75.8619C147.898 73.2362 143.996 71.9715 139.503 71.9715V75.9715C143.204 75.9715 146.166 76.9946 148.524 78.9445L151.073 75.8619ZM139.503 71.9715C134.963 71.9715 131.015 73.2325 127.788 75.8501L130.308 78.9563C132.722 76.9984 135.743 75.9715 139.503 75.9715V71.9715ZM127.774 75.8619C124.685 78.4165 122.398 81.8772 120.862 86.143L124.625 87.4979C125.963 83.7831 127.879 80.9656 130.323 78.9445L127.774 75.8619ZM120.854 86.1654C119.383 90.4092 118.669 95.2404 118.669 100.627H122.669C122.669 95.5857 123.338 91.2125 124.633 87.4756L120.854 86.1654ZM118.669 100.627C118.669 105.964 119.384 110.791 120.851 115.081L124.636 113.786C123.337 109.989 122.669 105.612 122.669 100.627H118.669ZM120.859 115.103C122.392 119.418 124.674 122.929 127.757 125.537L130.34 122.484C127.889 120.41 125.968 117.536 124.628 113.764L120.859 115.103ZM127.788 125.564C131.015 128.181 134.963 129.442 139.503 129.442V125.442C135.743 125.442 132.722 124.416 130.308 122.458L127.788 125.564ZM210.851 140.93L209.82 142.644L209.83 142.65L210.851 140.93ZM195.767 124.729L193.984 125.634L193.987 125.64L195.767 124.729ZM195.767 76.685L193.989 75.7687L193.984 75.7796L195.767 76.685ZM254.665 58.8879L253.791 60.6866L253.797 60.6897L254.665 58.8879ZM274.138 88.8157V90.8157H276.233L276.136 88.7235L274.138 88.8157ZM250.834 88.8157L248.854 89.0985L249.1 90.8157H250.834V88.8157ZM224.578 77.084L225.743 78.7094L225.749 78.7053L224.578 77.084ZM217.954 86.1022L216.097 85.3594L216.092 85.3725L217.954 86.1022ZM217.954 114.992L216.085 115.705L216.089 115.716L216.093 115.727L217.954 114.992ZM224.578 124.25L223.373 125.846L223.38 125.852L223.387 125.857L224.578 124.25ZM245.407 123.452L246.753 124.932L246.76 124.925L246.767 124.919L245.407 123.452ZM250.834 112.279V110.279H249.105L248.855 111.99L250.834 112.279ZM274.138 112.279L276.135 112.388L276.25 110.279H274.138V112.279ZM268.631 130.315L270.317 131.393L270.322 131.385L268.631 130.315ZM254.984 142.446L255.872 144.238L255.879 144.235L255.885 144.232L254.984 142.446ZM234.314 144.756C225.505 144.756 218.051 142.878 211.872 139.21L209.83 142.65C216.739 146.75 224.928 148.756 234.314 148.756V144.756ZM211.882 139.216C205.661 135.473 200.891 130.352 197.548 123.818L193.987 125.64C197.667 132.832 202.953 138.512 209.82 142.644L211.882 139.216ZM197.551 123.824C194.203 117.231 192.5 109.569 192.5 100.787H188.5C188.5 110.094 190.308 118.394 193.984 125.634L197.551 123.824ZM192.5 100.787C192.5 91.8938 194.205 84.1802 197.551 77.5903L193.984 75.7796C190.307 83.023 188.5 91.3772 188.5 100.787H192.5ZM197.545 77.6012C200.942 71.0103 205.738 65.8919 211.951 62.204L209.91 58.7642C203.035 62.8442 197.722 68.5264 193.99 75.7687L197.545 77.6012ZM211.951 62.204C218.133 58.5353 225.56 56.6581 234.314 56.6581V52.6581C224.978 52.6581 216.817 54.665 209.91 58.7642L211.951 62.204ZM234.314 56.6581C241.84 56.6581 248.314 58.0236 253.791 60.6866L255.54 57.0893C249.418 54.1125 242.324 52.6581 234.314 52.6581V56.6581ZM253.797 60.6897C259.347 63.3636 263.693 67.0964 266.887 71.8886L270.216 69.6698C266.6 64.2467 261.689 60.052 255.533 57.0862L253.797 60.6897ZM266.887 71.8886C270.066 76.6566 271.836 82.3068 272.14 88.9079L276.136 88.7235C275.802 81.4913 273.847 75.1172 270.216 69.6698L266.887 71.8886ZM274.138 86.8157H250.834V90.8157H274.138V86.8157ZM252.814 88.5328C252.355 85.3197 251.37 82.4427 249.821 79.9418L246.42 82.0473C247.639 84.0156 248.462 86.3527 248.854 89.0985L252.814 88.5328ZM249.821 79.9418C248.255 77.4118 246.16 75.4356 243.557 74.0435L241.671 77.5706C243.644 78.626 245.22 80.1081 246.42 82.0473L249.821 79.9418ZM243.557 74.0435C240.934 72.6403 237.939 71.9715 234.633 71.9715V75.9715C237.393 75.9715 239.719 76.5265 241.671 77.5706L243.557 74.0435ZM234.633 71.9715C230.418 71.9715 226.649 73.1213 223.407 75.4626L225.749 78.7053C228.253 76.8967 231.187 75.9715 234.633 75.9715V71.9715ZM223.412 75.4586C220.216 77.7503 217.801 81.0995 216.097 85.3594L219.811 86.845C221.299 83.1242 223.3 80.4612 225.743 78.7094L223.412 75.4586ZM216.092 85.3725C214.433 89.6055 213.639 94.6566 213.639 100.468H217.639C217.639 94.999 218.389 90.4733 219.816 86.832L216.092 85.3725ZM213.639 100.468C213.639 106.281 214.433 111.377 216.085 115.705L219.822 114.279C218.388 110.521 217.639 105.934 217.639 100.468H213.639ZM216.093 115.727C217.794 120.034 220.199 123.451 223.373 125.846L225.783 122.654C223.317 120.793 221.306 118.038 219.814 114.258L216.093 115.727ZM223.387 125.857C226.63 128.259 230.407 129.442 234.633 129.442V125.442C231.199 125.442 228.272 124.497 225.768 122.643L223.387 125.857ZM234.633 129.442C239.346 129.442 243.429 127.954 246.753 124.932L244.062 121.972C241.533 124.271 238.434 125.442 234.633 125.442V129.442ZM246.767 124.919C250.091 121.836 252.069 117.662 252.813 112.568L248.855 111.99C248.216 116.367 246.576 119.641 244.048 121.985L246.767 124.919ZM250.834 114.279H274.138V110.279H250.834V114.279ZM272.141 112.17C271.785 118.676 270.039 124.35 266.941 129.246L270.322 131.385C273.822 125.852 275.746 119.503 276.135 112.388L272.141 112.17ZM266.946 129.238C263.852 134.079 259.583 137.886 254.083 140.661L255.885 144.232C261.985 141.154 266.813 136.874 270.317 131.393L266.946 129.238ZM254.096 140.654C248.63 143.362 242.057 144.756 234.314 144.756V148.756C242.533 148.756 249.74 147.276 255.872 144.238L254.096 140.654ZM308.375 112.359H306.375V119.941L310.115 113.345L308.375 112.359ZM340.458 55.7754V53.7754H339.293L338.718 54.789L340.458 55.7754ZM364.879 55.7754H366.879V53.7754H364.879V55.7754ZM364.879 145V147H366.879V145H364.879ZM341.336 145H339.336V147H341.336V145ZM341.336 88.3368H343.336V80.7288L339.594 87.3533L341.336 88.3368ZM309.333 145V147H310.5L311.075 145.984L309.333 145ZM284.832 145H282.832V147H284.832V145ZM284.832 55.7754V53.7754H282.832V55.7754H284.832ZM308.375 55.7754H310.375V53.7754H308.375V55.7754ZM310.115 113.345L342.198 56.7619L338.718 54.789L306.636 111.372L310.115 113.345ZM340.458 57.7754H364.879V53.7754H340.458V57.7754ZM362.879 55.7754V145H366.879V55.7754H362.879ZM364.879 143H341.336V147H364.879V143ZM343.336 145V88.3368H339.336V145H343.336ZM339.594 87.3533L307.592 144.016L311.075 145.984L343.077 89.3204L339.594 87.3533ZM309.333 143H284.832V147H309.333V143ZM286.832 145V55.7754H282.832V145H286.832ZM284.832 57.7754H308.375V53.7754H284.832V57.7754ZM306.375 55.7754V112.359H310.375V55.7754H306.375ZM370.625 75.2484H368.625V77.2484H370.625V75.2484ZM370.625 55.7754V53.7754H368.625V55.7754H370.625ZM451.31 55.7754H453.31V53.7754H451.31V55.7754ZM451.31 75.2484V77.2484H453.31V75.2484H451.31ZM422.659 75.2484V73.2484H420.659V75.2484H422.659ZM422.659 145V147H424.659V145H422.659ZM399.116 145H397.116V147H399.116V145ZM399.116 75.2484H401.116V73.2484H399.116V75.2484ZM372.625 75.2484V55.7754H368.625V75.2484H372.625ZM370.625 57.7754H451.31V53.7754H370.625V57.7754ZM449.31 55.7754V75.2484H453.31V55.7754H449.31ZM451.31 73.2484H422.659V77.2484H451.31V73.2484ZM420.659 75.2484V145H424.659V75.2484H420.659ZM422.659 143H399.116V147H422.659V143ZM401.116 145V75.2484H397.116V145H401.116ZM399.116 73.2484H370.625V77.2484H399.116V73.2484ZM474.774 141.169L475.751 139.424L474.774 141.169ZM459.451 125.288L457.667 126.193L457.671 126.201L457.676 126.209L459.451 125.288ZM459.451 76.685L457.673 75.7687L457.667 75.7796L459.451 76.685ZM474.454 60.4841L473.427 58.7678L473.421 58.7716L474.454 60.4841ZM513.799 57.5312L513.097 59.4039L513.106 59.4071L513.114 59.4102L513.799 57.5312ZM527.207 65.9908L525.803 67.4148L525.808 67.4198L525.813 67.4248L527.207 65.9908ZM536.145 80.1167L534.272 80.817L534.274 80.8228L536.145 80.1167ZM539.338 106.692V108.692H541.338V106.692H539.338ZM464 106.692H462V108.692H464V106.692ZM464 91.4493V89.4493H462V91.4493H464ZM527.367 91.4493L528.023 93.3387L527.367 89.4493V91.4493ZM515.874 95.4397H513.874V98.2512L516.53 97.329L515.874 95.4397ZM507.574 75.8869L506.443 77.5359L506.461 77.5486L506.48 77.5608L507.574 75.8869ZM487.144 75.8869L486.042 74.218L486.034 74.2228L486.027 74.2277L487.144 75.8869ZM481.078 117.706L479.284 118.589L479.29 118.6L481.078 117.706ZM488.181 125.607L487.135 127.311L487.152 127.322L487.17 127.332L488.181 125.607ZM512.044 123.612L510.677 122.151L510.665 122.162L510.654 122.174L512.044 123.612ZM515.715 118.025L515.847 116.03L514.352 115.93L513.836 117.338L515.715 118.025ZM538.54 119.541L540.499 119.941L540.957 117.698L538.672 117.546L538.54 119.541ZM531.517 133.907L530.008 132.594L530.007 132.595L531.517 133.907ZM517.87 143.404L518.612 145.261L518.62 145.258L518.627 145.255L517.87 143.404ZM498.476 144.756C489.599 144.756 482.048 142.951 475.751 139.424L473.796 142.914C480.8 146.836 489.051 148.756 498.476 148.756V144.756ZM475.751 139.424C469.446 135.894 464.613 130.888 461.225 124.366L457.676 126.209C461.418 133.414 466.8 138.996 473.796 142.914L475.751 139.424ZM461.234 124.382C457.892 117.8 456.183 109.956 456.183 100.787H452.183C452.183 110.452 453.986 118.942 457.667 126.193L461.234 124.382ZM456.183 100.787C456.183 91.8938 457.888 84.1802 461.234 77.5903L457.667 75.7796C453.99 83.023 452.183 91.3772 452.183 100.787H456.183ZM461.228 77.6012C464.63 71.0017 469.378 65.8823 475.488 62.1966L473.421 58.7716C466.655 62.8538 461.401 68.5349 457.673 75.7687L461.228 77.6012ZM475.481 62.2003C481.617 58.529 488.859 56.6581 497.279 56.6581V52.6581C488.248 52.6581 480.274 54.6712 473.427 58.7678L475.481 62.2003ZM497.279 56.6581C502.965 56.6581 508.232 57.5794 513.097 59.4039L514.502 55.6585C509.151 53.6523 503.405 52.6581 497.279 52.6581V56.6581ZM513.114 59.4102C517.955 61.1752 522.178 63.841 525.803 67.4148L528.611 64.5667C524.574 60.5855 519.859 57.6116 514.484 55.6522L513.114 59.4102ZM525.813 67.4248C529.404 70.9163 532.233 75.3629 534.272 80.817L538.019 79.4163C535.801 73.4846 532.671 68.5139 528.601 64.5568L525.813 67.4248ZM534.274 80.8228C536.298 86.1863 537.338 92.561 537.338 99.9887H541.338C541.338 92.1998 540.249 85.3264 538.017 79.4106L534.274 80.8228ZM537.338 99.9887V106.692H541.338V99.9887H537.338ZM539.338 104.692H464V108.692H539.338V104.692ZM466 106.692V91.4493H462V106.692H466ZM464 93.4493H527.367V89.4493H464V93.4493ZM526.711 89.56L515.218 93.5503L516.53 97.329L528.023 93.3387L526.711 89.56ZM517.874 95.4397C517.874 90.718 517.153 86.5109 515.648 82.8652L511.951 84.3912C513.213 87.4493 513.874 91.1165 513.874 95.4397H517.874ZM515.648 82.8652C514.127 79.1783 511.806 76.2639 508.669 74.2129L506.48 77.5608C508.876 79.1278 510.706 81.3742 511.951 84.3912L515.648 82.8652ZM508.706 74.2379C505.59 72.0994 501.793 71.0936 497.439 71.0936V75.0936C501.172 75.0936 504.132 75.95 506.443 77.5359L508.706 74.2379ZM497.439 71.0936C493.082 71.0936 489.248 72.1004 486.042 74.218L488.246 77.5558C490.679 75.949 493.709 75.0936 497.439 75.0936V71.0936ZM486.027 74.2277C482.942 76.3044 480.581 79.1206 478.947 82.6228L482.572 84.3143C483.917 81.432 485.813 79.1937 488.26 77.5461L486.027 74.2277ZM478.947 82.6228C477.313 86.123 476.525 90.0913 476.525 94.482H480.525C480.525 90.5727 481.225 87.1988 482.572 84.3143L478.947 82.6228ZM476.525 94.482V105.256H480.525V94.482H476.525ZM476.525 105.256C476.525 110.328 477.416 114.795 479.284 118.589L482.873 116.823C481.336 113.7 480.525 109.868 480.525 105.256H476.525ZM479.29 118.6C481.147 122.315 483.761 125.24 487.135 127.311L489.228 123.902C486.536 122.249 484.415 119.907 482.867 116.811L479.29 118.6ZM487.17 127.332C490.597 129.341 494.492 130.32 498.796 130.32V126.32C495.119 126.32 491.937 125.49 489.193 123.881L487.17 127.332ZM498.796 130.32C501.754 130.32 504.487 129.893 506.97 129.007L505.625 125.24C503.639 125.949 501.37 126.32 498.796 126.32V130.32ZM506.97 129.007C509.454 128.12 511.619 126.804 513.434 125.05L510.654 122.174C509.276 123.505 507.61 124.531 505.625 125.24L506.97 129.007ZM513.41 125.072C515.295 123.309 516.69 121.179 517.593 118.712L513.836 117.338C513.143 119.234 512.091 120.828 510.677 122.151L513.41 125.072ZM515.582 120.021L538.407 121.537L538.672 117.546L515.847 116.03L515.582 120.021ZM536.58 119.142C535.529 124.294 533.339 128.766 530.008 132.594L533.025 135.22C536.824 130.854 539.315 125.749 540.499 119.941L536.58 119.142ZM530.007 132.595C526.725 136.374 522.446 139.369 517.112 141.553L518.627 145.255C524.466 142.864 529.285 139.526 533.027 135.218L530.007 132.595ZM517.127 141.547C511.822 143.669 505.619 144.756 498.476 144.756V148.756C506.019 148.756 512.744 147.608 518.612 145.261L517.127 141.547ZM544.605 145L542.605 145.008L542.613 147H544.605V145ZM544.525 125.447V123.447H542.517L542.525 125.455L544.525 125.447ZM547.478 125.447V127.447H547.497L547.516 127.447L547.478 125.447ZM554.341 122.574L552.907 121.181L552.896 121.191L552.886 121.202L554.341 122.574ZM558.412 113.237L556.457 112.813L556.455 112.822L556.453 112.831L558.412 113.237ZM560.247 95.3599L558.249 95.2833L558.248 95.289L560.247 95.3599ZM561.764 55.7754V53.7754H559.839L559.765 55.6989L561.764 55.7754ZM629.52 55.7754H631.52V53.7754H629.52V55.7754ZM629.52 145V147H631.52V145H629.52ZM605.977 145H603.977V147H605.977V145ZM605.977 75.2484H607.977V73.2484H605.977V75.2484ZM583.95 75.2484V73.2484H582.052L581.953 75.1433L583.95 75.2484ZM582.513 102.543L580.516 102.437L580.516 102.443L582.513 102.543ZM573.814 135.024L572.206 133.836L572.202 133.84L573.814 135.024ZM564.557 142.606L565.364 144.436L565.376 144.43L564.557 142.606ZM546.605 144.992L546.525 125.439L542.525 125.455L542.605 145.008L546.605 144.992ZM544.525 127.447H547.478V123.447H544.525V127.447ZM547.516 127.447C550.813 127.385 553.632 126.241 555.797 123.946L552.886 121.202C551.539 122.631 549.783 123.403 547.44 123.448L547.516 127.447ZM555.776 123.968C557.978 121.7 559.437 118.142 560.37 113.643L556.453 112.831C555.577 117.057 554.322 119.723 552.907 121.181L555.776 123.968ZM560.366 113.661C561.36 109.078 561.978 102.985 562.246 95.4307L558.248 95.289C557.984 102.739 557.379 108.564 556.457 112.813L560.366 113.661ZM562.246 95.4364L563.762 55.852L559.765 55.6989L558.249 95.2833L562.246 95.4364ZM561.764 57.7754H629.52V53.7754H561.764V57.7754ZM627.52 55.7754V145H631.52V55.7754H627.52ZM629.52 143H605.977V147H629.52V143ZM607.977 145V75.2484H603.977V145H607.977ZM605.977 73.2484H583.95V77.2484H605.977V73.2484ZM581.953 75.1433L580.516 102.437L584.511 102.648L585.947 75.3535L581.953 75.1433ZM580.516 102.443C580.148 109.795 579.258 116.059 577.868 121.26L581.732 122.293C583.215 116.746 584.134 110.188 584.511 102.642L580.516 102.443ZM577.868 121.26C576.478 126.459 574.574 130.629 572.206 133.836L575.423 136.212C578.163 132.503 580.249 127.841 581.732 122.293L577.868 121.26ZM572.202 133.84C569.896 136.981 567.077 139.281 563.737 140.781L565.376 144.43C569.378 142.632 572.732 139.877 575.426 136.208L572.202 133.84ZM563.749 140.776C560.431 142.24 556.538 143 552.027 143V147C556.986 147 561.447 146.164 565.364 144.436L563.749 140.776ZM552.027 143H544.605V147H552.027V143ZM667.668 112.359H665.668V119.941L669.408 113.345L667.668 112.359ZM699.75 55.7754V53.7754H698.585L698.011 54.789L699.75 55.7754ZM724.171 55.7754H726.171V53.7754H724.171V55.7754ZM724.171 145V147H726.171V145H724.171ZM700.628 145H698.628V147H700.628V145ZM700.628 88.3368H702.628V80.7288L698.887 87.3533L700.628 88.3368ZM668.625 145V147H669.793L670.367 145.984L668.625 145ZM644.125 145H642.125V147H644.125V145ZM644.125 55.7754V53.7754H642.125V55.7754H644.125ZM667.668 55.7754H669.668V53.7754H667.668V55.7754ZM669.408 113.345L701.49 56.7619L698.011 54.789L665.928 111.372L669.408 113.345ZM699.75 57.7754H724.171V53.7754H699.75V57.7754ZM722.171 55.7754V145H726.171V55.7754H722.171ZM724.171 143H700.628V147H724.171V143ZM702.628 145V88.3368H698.628V145H702.628ZM698.887 87.3533L666.884 144.016L670.367 145.984L702.37 89.3204L698.887 87.3533ZM668.625 143H644.125V147H668.625V143ZM646.125 145V55.7754H642.125V145H646.125ZM644.125 57.7754H667.668V53.7754H644.125V57.7754ZM665.668 55.7754V112.359H669.668V55.7754H665.668Z" fill="black" mask="url(#path-1-outside-1_385_4876)"/>
</svg>
