<svg width="1039" height="666" viewBox="0 0 1039 666" fill="none" xmlns="http://www.w3.org/2000/svg">
<path d="M1025.39 570.032C1023.11 570.032 1021.57 568.067 1021.57 564.707C1021.57 561.302 1023.11 559.322 1025.39 559.322C1027.67 559.322 1029.23 561.302 1029.23 564.707C1029.23 568.067 1027.67 570.032 1025.39 570.032ZM1022.93 564.707C1022.93 567.452 1023.92 568.892 1025.39 568.892C1026.86 568.892 1027.85 567.452 1027.85 564.707C1027.85 561.902 1026.86 560.462 1025.39 560.462C1023.92 560.462 1022.93 561.902 1022.93 564.707ZM1034.15 570.017C1031.82 570.017 1030.43 568.937 1030.43 567.107C1030.43 565.712 1031.4 564.707 1032.86 564.452C1031.72 564.212 1030.83 563.357 1030.83 562.052C1030.83 560.432 1032.11 559.322 1034.15 559.322C1036.19 559.322 1037.46 560.432 1037.46 562.052C1037.46 563.282 1036.64 564.212 1035.47 564.452C1036.89 564.707 1037.85 565.712 1037.85 567.017C1037.85 568.937 1036.47 570.017 1034.15 570.017ZM1031.81 567.017C1031.81 568.202 1032.71 568.892 1034.15 568.892C1035.57 568.892 1036.47 568.202 1036.47 566.927C1036.47 565.862 1035.57 565.007 1034.15 565.007C1032.71 565.007 1031.81 565.832 1031.81 567.017ZM1032.2 562.157C1032.2 563.237 1032.95 563.912 1034.15 563.912C1035.35 563.912 1036.1 563.237 1036.1 562.157C1036.1 561.152 1035.35 560.462 1034.15 560.462C1032.95 560.462 1032.2 561.152 1032.2 562.157Z" fill="#131313"/>
<path d="M28.5982 84.2143C67.0735 37.051 121.469 1 183.726 1C209.954 1 224.147 3.07798 241.385 24.3719C251.535 36.9095 266.684 50.6126 266.684 68.0337C266.684 117.687 236.639 174.113 199.136 206.724C174.47 228.173 155.218 254.703 129.02 274.528C97.5829 298.319 66.798 326.096 44.3936 358.385C17.9765 396.456 -8.67058 454.608 4.45582 502.34C22.6014 568.324 100.76 581.189 159.198 581.189C171.569 581.189 183.94 581.189 196.311 581.189C210.283 581.189 223.528 574.257 236.377 569.117C263.182 558.395 293.866 535.435 307.777 509.532C322.768 481.618 326.783 456.242 326.783 424.905C326.783 385.652 318.038 348.636 315.354 309.715C312.67 270.806 310.461 218.262 327.296 183.095C350.065 135.535 383.829 96.502 426.948 66.7496C454.418 47.7955 488.057 49.5417 519.922 49.5417C548.735 49.5417 561.704 58.3789 578.737 80.8754C602.983 112.898 600.378 150.243 599.541 188.746C599.228 203.113 590.025 213.274 585.8 226.372C579.062 247.261 563.024 263.706 553.311 283.132C532.283 325.188 500.469 361.293 471.124 397.68C441.463 434.46 414.005 477.118 401.265 522.887C391.922 556.454 382.951 613.061 413.85 638.976C447.118 666.879 490.222 666.377 531.223 664.274C567.861 662.396 599.865 637.896 629.719 619.457C646.422 609.14 660.099 599.948 673.766 585.426C694.588 563.303 701.585 536.08 711.521 507.862C733.544 445.315 739.073 379.705 746.322 314.466C751.292 269.728 754.514 220.861 769.565 178.216C783.974 137.391 794.107 89.5265 835.828 68.0337C871.463 49.6764 911.213 71.8838 939.333 92.433C989.932 129.409 1004.05 199.43 1004.05 257.577C1004.05 289.022 1002.22 321.352 987.874 350.038C973.181 379.423 958.665 408.41 946.267 438.902C925.796 489.251 896.719 548.299 913.906 603.79C927.634 648.113 969.806 639.896 1002.51 620.998C1015.31 613.604 1029.48 599.274 1029.48 583.5" stroke="#131313" stroke-width="1.5" stroke-linecap="round"/>
<path d="M278.566 563.032C276.286 563.032 274.741 561.067 274.741 557.707C274.741 554.302 276.286 552.322 278.566 552.322C280.846 552.322 282.406 554.302 282.406 557.707C282.406 561.067 280.846 563.032 278.566 563.032ZM276.106 557.707C276.106 560.452 277.096 561.892 278.566 561.892C280.036 561.892 281.026 560.452 281.026 557.707C281.026 554.902 280.036 553.462 278.566 553.462C277.096 553.462 276.106 554.902 276.106 557.707ZM283.198 559.147L287.878 552.427H289.453V559.147H291.028L290.833 560.227H289.453V562.927H288.133V560.227H283.198V559.147ZM284.503 559.147H288.133V553.867L284.503 559.147Z" fill="#131313"/>
<path d="M714.457 539.032C712.177 539.032 710.632 537.067 710.632 533.707C710.632 530.302 712.177 528.322 714.457 528.322C716.737 528.322 718.297 530.302 718.297 533.707C718.297 537.067 716.737 539.032 714.457 539.032ZM711.997 533.707C711.997 536.452 712.987 537.892 714.457 537.892C715.927 537.892 716.917 536.452 716.917 533.707C716.917 530.902 715.927 529.462 714.457 529.462C712.987 529.462 711.997 530.902 711.997 533.707ZM723.181 539.032C721.291 539.032 719.926 537.892 719.536 536.272L720.811 535.957C721.126 537.097 721.951 537.907 723.211 537.907C724.531 537.907 725.431 536.887 725.431 535.447C725.431 533.962 724.591 532.987 723.316 532.987C722.326 532.987 721.426 533.632 721.066 534.577H719.686L720.541 528.427H726.496L726.346 529.507H721.741L721.186 533.302C721.771 532.447 722.701 531.952 723.736 531.952C725.641 531.952 726.811 533.347 726.811 535.432C726.811 537.562 725.356 539.032 723.181 539.032Z" fill="#131313"/>
<path d="M756.332 148.918C754.052 148.918 752.507 146.953 752.507 143.593C752.507 140.188 754.052 138.208 756.332 138.208C758.612 138.208 760.172 140.188 760.172 143.593C760.172 146.953 758.612 148.918 756.332 148.918ZM753.872 143.593C753.872 146.338 754.862 147.778 756.332 147.778C757.802 147.778 758.792 146.338 758.792 143.593C758.792 140.788 757.802 139.348 756.332 139.348C754.862 139.348 753.872 140.788 753.872 143.593ZM765.385 148.918C763.33 148.918 761.53 147.403 761.53 144.208C761.53 140.578 762.925 138.208 765.52 138.208C767.23 138.208 768.355 139.168 768.76 140.638L767.485 140.938C767.155 139.903 766.48 139.348 765.445 139.348C763.855 139.348 762.895 140.863 762.745 144.238C763.21 142.948 764.38 142.123 765.685 142.123C767.575 142.123 768.865 143.353 768.865 145.378C768.865 147.463 767.53 148.918 765.385 148.918ZM763.015 145.438C763.015 146.818 764.125 147.778 765.34 147.778C766.63 147.778 767.485 146.863 767.485 145.438C767.485 144.028 766.675 143.143 765.34 143.143C764.14 143.143 763.015 144.028 763.015 145.438Z" fill="#131313"/>
<path d="M1012.44 325.032C1010.16 325.032 1008.61 323.067 1008.61 319.707C1008.61 316.302 1010.16 314.322 1012.44 314.322C1014.72 314.322 1016.28 316.302 1016.28 319.707C1016.28 323.067 1014.72 325.032 1012.44 325.032ZM1009.98 319.707C1009.98 322.452 1010.97 323.892 1012.44 323.892C1013.91 323.892 1014.9 322.452 1014.9 319.707C1014.9 316.902 1013.91 315.462 1012.44 315.462C1010.97 315.462 1009.98 316.902 1009.98 319.707ZM1017.02 324.927L1021.75 315.507H1016.78L1016.57 314.427H1023.11V315.507L1018.39 324.927H1017.02Z" fill="#131313"/>
<path d="M20.1143 105.631C17.8343 105.631 16.2893 103.666 16.2893 100.306C16.2893 96.9009 17.8343 94.9209 20.1143 94.9209C22.3943 94.9209 23.9543 96.9009 23.9543 100.306C23.9543 103.666 22.3943 105.631 20.1143 105.631ZM17.6543 100.306C17.6543 103.051 18.6443 104.491 20.1143 104.491C21.5843 104.491 22.5743 103.051 22.5743 100.306C22.5743 97.5009 21.5843 96.0609 20.1143 96.0609C18.6443 96.0609 17.6543 97.5009 17.6543 100.306ZM26.6677 105.526V96.9309C26.3827 97.7709 25.8277 98.2059 24.8977 98.2059V96.9759C26.1277 96.9759 26.6677 96.4809 26.6677 95.0259H28.0027V105.526H26.6677Z" fill="#131313"/>
<path d="M397.544 66.7615C395.264 66.7615 393.719 64.7965 393.719 61.4365C393.719 58.0315 395.264 56.0515 397.544 56.0515C399.824 56.0515 401.384 58.0315 401.384 61.4365C401.384 64.7965 399.824 66.7615 397.544 66.7615ZM395.084 61.4365C395.084 64.1815 396.074 65.6215 397.544 65.6215C399.014 65.6215 400.004 64.1815 400.004 61.4365C400.004 58.6315 399.014 57.1915 397.544 57.1915C396.074 57.1915 395.084 58.6315 395.084 61.4365ZM406.078 66.7615C404.098 66.7615 402.568 65.7565 402.148 64.0015L403.423 63.6865C403.753 64.8565 404.713 65.6215 406.093 65.6215C407.443 65.6215 408.283 64.9465 408.283 63.6715C408.283 62.5615 407.503 61.7215 405.913 61.7215H404.893L405.103 60.6715H405.973C407.098 60.6715 407.983 60.0265 407.983 58.8415C407.983 57.8365 407.203 57.1915 406.033 57.1915C404.833 57.1915 404.053 57.8665 403.828 58.9765L402.598 58.6615C402.868 57.1315 404.263 56.0515 406.093 56.0515C408.073 56.0515 409.333 57.0715 409.333 58.6765C409.333 59.9065 408.508 60.7615 407.368 61.0765C408.703 61.3465 409.663 62.3665 409.663 63.7165C409.663 65.5615 408.343 66.7615 406.078 66.7615Z" fill="#131313"/>
<path d="M70.3563 349.449C68.0763 349.449 66.5313 347.484 66.5313 344.124C66.5313 340.719 68.0763 338.739 70.3563 338.739C72.6363 338.739 74.1963 340.719 74.1963 344.124C74.1963 347.484 72.6363 349.449 70.3563 349.449ZM67.8963 344.124C67.8963 346.869 68.8863 348.309 70.3563 348.309C71.8263 348.309 72.8163 346.869 72.8163 344.124C72.8163 341.319 71.8263 339.879 70.3563 339.879C68.8863 339.879 67.8963 341.319 67.8963 344.124ZM75.14 349.014C75.14 343.869 80.825 344.769 80.825 341.679C80.825 340.584 80.015 339.879 78.845 339.879C77.525 339.879 76.775 340.764 76.505 341.799L75.245 341.484C75.68 339.939 76.925 338.739 79.01 338.739C80.825 338.739 82.19 339.744 82.19 341.634C82.19 345.324 77.12 344.634 76.475 348.234H82.43L82.13 349.344H75.14V349.014Z" fill="#131313"/>
</svg>
