<svg width="1298" height="707" viewBox="0 0 1298 707" fill="none" xmlns="http://www.w3.org/2000/svg">
<path d="M35.7768 89.3332C84.26 39.2687 152.804 1 231.255 1C264.305 1 282.19 3.2058 303.912 25.8096C316.702 39.1184 335.791 53.6645 335.791 72.1573C335.791 124.865 297.931 184.762 250.673 219.379C219.591 242.148 195.332 270.31 162.32 291.354C122.705 316.609 83.9127 346.094 55.6807 380.369C22.3923 420.783 -11.186 482.512 5.35472 533.18C28.2202 603.223 126.709 616.879 200.348 616.879C215.936 616.879 231.525 616.879 247.113 616.879C264.72 616.879 281.41 609.521 297.601 604.065C331.378 592.683 450.802 487.5 407.484 353C385.527 302 390.955 231.627 412.17 194.297C440.86 143.811 483.406 102.377 537.742 70.7941C572.357 50.6741 614.745 52.5277 654.899 52.5277C691.206 52.5277 707.549 61.9085 729.013 85.789C759.565 119.781 751.5 165.5 751.5 165.5C751.5 165.5 745 200.5 731 241C722.272 266.248 724.24 268.879 712 289.5C685.503 334.143 661.648 387.874 624.67 426.5C587.294 465.542 529.163 514.916 513.11 563.5C501.336 599.131 484.626 641 521.236 678.221C563.158 707.84 617.474 707.307 669.139 705.076C715.307 703.081 755.636 677.075 793.255 657.501C814.303 646.55 831.537 636.792 848.759 621.377C874.997 597.893 883.814 568.995 896.334 539.042C924.087 472.647 931.053 403.001 940.188 333.749C946.451 286.259 950.511 234.386 969.477 189.117C987.634 145.781 1000.4 94.9722 1052.98 72.1573C1097.88 52.6707 1147.97 76.2441 1183.4 98.0574C1247.16 137.309 1277.9 179 1288 247C1292.75 279 1294.48 348 1278.75 388.5C1264.96 424 1265.32 437 1232.58 479C1206.81 518 1129.7 581.966 1151.36 640.87C1168.66 687.92 1221.8 679.197 1263.02 659.137C1279.14 651.288 1297 636.076 1297 619.332" stroke="#131313" stroke-width="1.5" stroke-linecap="round"/>
<ellipse cx="35.8968" cy="90" rx="3.75808" ry="4" fill="#131313"/>
<ellipse cx="149.295" cy="615" rx="4.29495" ry="4" fill="#131313"/>
<ellipse cx="515.319" cy="84.5" rx="4.29495" ry="3.5" fill="#131313"/>
<ellipse cx="739.73" cy="685" rx="4.29495" ry="4" fill="#131313"/>
<ellipse cx="1076.29" cy="65" rx="4.29495" ry="4" fill="#131313"/>
<ellipse cx="1278.75" cy="389" rx="4.29495" ry="4" fill="#131313"/>
<ellipse cx="1283.04" cy="647" rx="4.29495" ry="4" fill="#131313"/>
</svg>
