<svg width="274" height="107" viewBox="0 0 274 107" fill="none" xmlns="http://www.w3.org/2000/svg">
<path d="M1.00391 35.3794C1.00391 31.5538 1.00391 27.7281 1.00391 23.9025C1.00391 13.7703 7.27043 7.676 16.3772 3.89065C25.0924 0.268091 34.9933 0.308736 42.2733 6.77977C48.8915 12.6627 47.2828 25.3569 47.2828 33.471C47.2828 41.4788 44.4324 48.454 42.9889 56.2129C42.0718 61.1423 40.5736 65.8989 39.1986 70.7115C37.8339 75.4879 37.3665 80.829 36.5215 85.7402C35.9784 88.8971 36.0061 92.474 37.0516 95.4943C38.0551 98.3933 41.7366 100.053 44.4997 100.954C47.3387 101.88 50.0392 102.174 52.9816 102.174C55.6114 102.174 58.2038 96.6514 59.1574 94.9642C61.5045 90.8116 63.3871 86.3485 65.1477 81.9234C66.498 78.5294 68.4606 74.8511 68.7259 71.1356C69.191 64.6244 68.5453 58.0195 68.7524 51.4949C68.9808 44.303 71.9079 37.0679 73.0729 30.0783C74.0664 24.117 76.6141 15.832 81.2631 11.7894C84.469 9.00162 86.7367 5.81993 90.9112 4.20872C95.7136 2.35515 102.108 2.6658 107.186 2.53886C109.51 2.48077 111.531 3.5415 113.362 4.92438C117.703 8.20465 121.062 14.5842 122.559 19.7411C124.373 25.9903 122.518 32.6813 121.605 38.8782C120.016 49.6617 116.543 60.0006 114.766 70.6585C114.121 74.5302 113.6 78.3038 113.6 82.2415C113.6 86.5856 112.974 91.4943 114.13 95.7064C115.995 102.499 118.573 106.097 126.27 105.991C131.126 105.923 133.518 103.499 136.13 99.6822C140.594 93.1574 143.643 86.3551 145.274 78.5837C146.338 73.5147 146.324 68.6386 146.547 63.5285C146.763 58.5537 147.666 53.66 148.323 48.7383C149.241 41.8527 151.508 35.0562 153.438 28.4084C154.756 23.8697 156.678 17.114 161.31 14.864C162.802 14.1395 164.825 14.2706 166.452 14.3869C168.937 14.5644 168.467 19.8317 168.467 21.3314C168.467 33.2029 167.997 44.4049 165.975 56.1599C164.271 66.071 159.741 75.5501 158.501 85.4752C157.963 89.7737 159.388 95.3032 163.325 97.4027C166.059 98.8609 170.093 98.8036 173.132 98.834C177.765 98.8804 182.549 99.2495 187.074 98.1184C191.104 97.1109 194.366 94.923 198.047 93.0823C202.318 90.9469 207.488 87.7619 210.823 84.3619C215.19 79.9091 218.931 72.441 218.351 66.126C217.704 59.0921 216.561 49.8599 211.539 44.5504C209.331 42.2171 207.259 39.7544 205.204 37.2878C203.884 35.7036 202.013 33.9722 201.413 31.9337C199.634 25.8837 200.277 20.3215 205.098 16.0303C209.39 12.2091 215.447 9.69106 220.683 7.49543C226.332 5.12641 232.077 3.87351 238.23 4.47378C246.584 5.28882 252.561 10.7884 257.446 17.1965C261.758 22.8524 264.938 29.5472 267.704 36.0686C269.952 41.3675 269.738 45.1956 266.909 50.2226C261.504 59.8259 250.922 67.8224 239.555 67.8224" stroke="black" stroke-width="0.871298" stroke-linecap="round"/>
<mask id="path-2-outside-1_1052_1528" maskUnits="userSpaceOnUse" x="13.4562" y="9.44043" width="225" height="84" fill="black">
<rect fill="white" x="13.4562" y="9.44043" width="225" height="84"/>
<path d="M14.2309 75.4404V29.0655H27.0483V47.0679H30.6985L43.2671 29.0655H58.3659L41.9812 52.1285L58.5318 75.4404H43.2671L31.8185 59.0142H27.0483V75.4404H14.2309ZM63.0183 92.7792C61.3867 92.8068 59.852 92.6962 58.414 92.4473C57.0037 92.1985 55.8422 91.8804 54.9297 91.4933L57.8333 81.9113L58.2481 81.9943C60.405 82.6303 62.244 82.7686 63.7649 82.4091C65.3135 82.0773 66.4888 80.8605 67.2908 78.7589L68.0374 76.7678L51.4453 29.0655H64.9264L74.5083 63.1208H75.0061L84.7125 29.0655H98.2765L80.2741 80.4595C79.4168 82.9484 78.2416 85.1192 76.7483 86.9719C75.2826 88.8247 73.4298 90.2489 71.1899 91.2444C68.95 92.2676 66.2261 92.7792 63.0183 92.7792ZM93.9642 75.4404L93.9228 65.2778H95.4575C96.9232 65.2501 98.1123 64.7523 99.0248 63.7845C99.965 62.8166 100.67 61.1989 101.14 58.9313C101.638 56.636 101.956 53.5389 102.094 49.6397L102.882 29.0655H138.099V75.4404H125.863V39.1867H114.414L113.667 53.3729C113.474 57.2444 113.004 60.5767 112.257 63.3697C111.51 66.1627 110.473 68.4579 109.146 70.2554C107.846 72.0252 106.242 73.3388 104.334 74.196C102.454 75.0256 100.283 75.4404 97.8219 75.4404H93.9642ZM166.804 76.353C162.047 76.353 157.941 75.3851 154.484 73.4494C151.027 71.5136 148.372 68.7621 146.52 65.1948C144.695 61.5999 143.782 57.355 143.782 52.4604C143.782 47.704 144.695 43.5283 146.52 39.9333C148.372 36.3384 150.972 33.5315 154.318 31.5128C157.692 29.4941 161.646 28.4848 166.181 28.4848C169.251 28.4848 172.113 28.9825 174.768 29.9781C177.423 30.9459 179.745 32.4116 181.736 34.375C183.728 36.3107 185.276 38.7581 186.382 41.717C187.488 44.6483 188.041 48.0911 188.041 52.0456V55.5299H148.884V47.6072H181.819L175.846 49.6812C175.846 47.3306 175.487 45.2843 174.768 43.5421C174.049 41.7999 172.97 40.4587 171.532 39.5185C170.122 38.5507 168.366 38.0667 166.264 38.0667C164.163 38.0667 162.379 38.5507 160.913 39.5185C159.475 40.4864 158.369 41.7999 157.595 43.4592C156.821 45.1184 156.433 47.0265 156.433 49.1834V54.7833C156.433 57.2997 156.876 59.4567 157.761 61.2542C158.646 63.024 159.876 64.3929 161.453 65.3607C163.057 66.3009 164.895 66.7711 166.969 66.7711C168.407 66.7711 169.707 66.5637 170.869 66.1489C172.03 65.734 173.026 65.1257 173.855 64.3237C174.712 63.5218 175.348 62.5539 175.763 61.4201L187.627 62.2082C187.046 65.0565 185.829 67.5454 183.976 69.6747C182.151 71.7763 179.787 73.4217 176.883 74.6108C173.98 75.7723 170.62 76.353 166.804 76.353ZM156.765 22.7605C154.996 22.7605 153.488 22.1521 152.244 20.9354C151 19.7186 150.391 18.2806 150.419 16.6214C150.391 14.9069 151 13.4689 152.244 12.3075C153.488 11.1184 154.996 10.51 156.765 10.4823C158.48 10.51 159.945 11.1184 161.162 12.3075C162.407 13.4689 163.029 14.9069 163.029 16.6214C163.029 18.2806 162.407 19.7186 161.162 20.9354C159.945 22.1521 158.48 22.7605 156.765 22.7605ZM175.183 22.7605C173.44 22.7605 171.947 22.1521 170.703 20.9354C169.458 19.7186 168.836 18.2806 168.836 16.6214C168.836 14.9069 169.458 13.4689 170.703 12.3075C171.947 11.1184 173.44 10.51 175.183 10.4823C176.925 10.51 178.404 11.1184 179.621 12.3075C180.838 13.4689 181.446 14.9069 181.446 16.6214C181.446 18.2806 180.838 19.7186 179.621 20.9354C178.404 22.1521 176.925 22.7605 175.183 22.7605ZM192.709 75.4404V29.0655H205.526V47.0679H209.176L221.745 29.0655H236.844L220.459 52.1285L237.01 75.4404H221.745L210.296 59.0142H205.526V75.4404H192.709Z"/>
</mask>
<path d="M14.2309 75.4404V29.0655H27.0483V47.0679H30.6985L43.2671 29.0655H58.3659L41.9812 52.1285L58.5318 75.4404H43.2671L31.8185 59.0142H27.0483V75.4404H14.2309ZM63.0183 92.7792C61.3867 92.8068 59.852 92.6962 58.414 92.4473C57.0037 92.1985 55.8422 91.8804 54.9297 91.4933L57.8333 81.9113L58.2481 81.9943C60.405 82.6303 62.244 82.7686 63.7649 82.4091C65.3135 82.0773 66.4888 80.8605 67.2908 78.7589L68.0374 76.7678L51.4453 29.0655H64.9264L74.5083 63.1208H75.0061L84.7125 29.0655H98.2765L80.2741 80.4595C79.4168 82.9484 78.2416 85.1192 76.7483 86.9719C75.2826 88.8247 73.4298 90.2489 71.1899 91.2444C68.95 92.2676 66.2261 92.7792 63.0183 92.7792ZM93.9642 75.4404L93.9228 65.2778H95.4575C96.9232 65.2501 98.1123 64.7523 99.0248 63.7845C99.965 62.8166 100.67 61.1989 101.14 58.9313C101.638 56.636 101.956 53.5389 102.094 49.6397L102.882 29.0655H138.099V75.4404H125.863V39.1867H114.414L113.667 53.3729C113.474 57.2444 113.004 60.5767 112.257 63.3697C111.51 66.1627 110.473 68.4579 109.146 70.2554C107.846 72.0252 106.242 73.3388 104.334 74.196C102.454 75.0256 100.283 75.4404 97.8219 75.4404H93.9642ZM166.804 76.353C162.047 76.353 157.941 75.3851 154.484 73.4494C151.027 71.5136 148.372 68.7621 146.52 65.1948C144.695 61.5999 143.782 57.355 143.782 52.4604C143.782 47.704 144.695 43.5283 146.52 39.9333C148.372 36.3384 150.972 33.5315 154.318 31.5128C157.692 29.4941 161.646 28.4848 166.181 28.4848C169.251 28.4848 172.113 28.9825 174.768 29.9781C177.423 30.9459 179.745 32.4116 181.736 34.375C183.728 36.3107 185.276 38.7581 186.382 41.717C187.488 44.6483 188.041 48.0911 188.041 52.0456V55.5299H148.884V47.6072H181.819L175.846 49.6812C175.846 47.3306 175.487 45.2843 174.768 43.5421C174.049 41.7999 172.97 40.4587 171.532 39.5185C170.122 38.5507 168.366 38.0667 166.264 38.0667C164.163 38.0667 162.379 38.5507 160.913 39.5185C159.475 40.4864 158.369 41.7999 157.595 43.4592C156.821 45.1184 156.433 47.0265 156.433 49.1834V54.7833C156.433 57.2997 156.876 59.4567 157.761 61.2542C158.646 63.024 159.876 64.3929 161.453 65.3607C163.057 66.3009 164.895 66.7711 166.969 66.7711C168.407 66.7711 169.707 66.5637 170.869 66.1489C172.03 65.734 173.026 65.1257 173.855 64.3237C174.712 63.5218 175.348 62.5539 175.763 61.4201L187.627 62.2082C187.046 65.0565 185.829 67.5454 183.976 69.6747C182.151 71.7763 179.787 73.4217 176.883 74.6108C173.98 75.7723 170.62 76.353 166.804 76.353ZM156.765 22.7605C154.996 22.7605 153.488 22.1521 152.244 20.9354C151 19.7186 150.391 18.2806 150.419 16.6214C150.391 14.9069 151 13.4689 152.244 12.3075C153.488 11.1184 154.996 10.51 156.765 10.4823C158.48 10.51 159.945 11.1184 161.162 12.3075C162.407 13.4689 163.029 14.9069 163.029 16.6214C163.029 18.2806 162.407 19.7186 161.162 20.9354C159.945 22.1521 158.48 22.7605 156.765 22.7605ZM175.183 22.7605C173.44 22.7605 171.947 22.1521 170.703 20.9354C169.458 19.7186 168.836 18.2806 168.836 16.6214C168.836 14.9069 169.458 13.4689 170.703 12.3075C171.947 11.1184 173.44 10.51 175.183 10.4823C176.925 10.51 178.404 11.1184 179.621 12.3075C180.838 13.4689 181.446 14.9069 181.446 16.6214C181.446 18.2806 180.838 19.7186 179.621 20.9354C178.404 22.1521 176.925 22.7605 175.183 22.7605ZM192.709 75.4404V29.0655H205.526V47.0679H209.176L221.745 29.0655H236.844L220.459 52.1285L237.01 75.4404H221.745L210.296 59.0142H205.526V75.4404H192.709Z" fill="white"/>
<path d="M14.2309 75.4404H13.8016V75.8697H14.2309V75.4404ZM14.2309 29.0655V28.6363H13.8016V29.0655H14.2309ZM27.0483 29.0655H27.4775V28.6363H27.0483V29.0655ZM27.0483 47.0679H26.619V47.4972H27.0483V47.0679ZM30.6985 47.0679V47.4972H30.9224L31.0505 47.3137L30.6985 47.0679ZM43.2671 29.0655V28.6363H43.0432L42.9151 28.8198L43.2671 29.0655ZM58.3659 29.0655L58.7158 29.3141L59.1974 28.6363H58.3659V29.0655ZM41.9812 52.1285L41.6312 51.8799L41.4547 52.1284L41.6312 52.377L41.9812 52.1285ZM58.5318 75.4404V75.8697H59.363L58.8818 75.1919L58.5318 75.4404ZM43.2671 75.4404L42.9149 75.6859L43.043 75.8697H43.2671V75.4404ZM31.8185 59.0142L32.1707 58.7688L32.0426 58.585H31.8185V59.0142ZM27.0483 59.0142V58.585H26.619V59.0142H27.0483ZM27.0483 75.4404V75.8697H27.4775V75.4404H27.0483ZM14.6601 75.4404V29.0655H13.8016V75.4404H14.6601ZM14.2309 29.4947H27.0483V28.6363H14.2309V29.4947ZM26.619 29.0655V47.0679H27.4775V29.0655H26.619ZM27.0483 47.4972H30.6985V46.6387H27.0483V47.4972ZM31.0505 47.3137L43.619 29.3112L42.9151 28.8198L30.3466 46.8222L31.0505 47.3137ZM43.2671 29.4947H58.3659V28.6363H43.2671V29.4947ZM58.0159 28.8169L41.6312 51.8799L42.3311 52.3771L58.7158 29.3141L58.0159 28.8169ZM41.6312 52.377L58.1818 75.6889L58.8818 75.1919L42.3312 51.88L41.6312 52.377ZM58.5318 75.0112H43.2671V75.8697H58.5318V75.0112ZM43.6192 75.195L32.1707 58.7688L31.4664 59.2597L42.9149 75.6859L43.6192 75.195ZM31.8185 58.585H27.0483V59.4435H31.8185V58.585ZM26.619 59.0142V75.4404H27.4775V59.0142H26.619ZM27.0483 75.0112H14.2309V75.8697H27.0483V75.0112ZM63.0183 92.7792V92.3499L63.011 92.35L63.0183 92.7792ZM58.414 92.4473L58.3394 92.87L58.3408 92.8703L58.414 92.4473ZM54.9297 91.4933L54.5189 91.3688L54.407 91.7378L54.762 91.8884L54.9297 91.4933ZM57.8333 81.9113L57.9175 81.4904L57.5355 81.414L57.4225 81.7869L57.8333 81.9113ZM58.2481 81.9943L58.3695 81.5826L58.3511 81.5772L58.3323 81.5734L58.2481 81.9943ZM63.7649 82.4091L63.675 81.9893L63.6662 81.9914L63.7649 82.4091ZM67.2908 78.7589L67.6918 78.9119L67.6927 78.9096L67.2908 78.7589ZM68.0374 76.7678L68.4393 76.9185L68.4938 76.7733L68.4428 76.6268L68.0374 76.7678ZM51.4453 29.0655V28.6363H50.8415L51.0399 29.2065L51.4453 29.0655ZM64.9264 29.0655L65.3396 28.9492L65.2515 28.6363H64.9264V29.0655ZM74.5083 63.1208L74.0951 63.2371L74.1832 63.55H74.5083V63.1208ZM75.0061 63.1208V63.55H75.3301L75.4189 63.2384L75.0061 63.1208ZM84.7125 29.0655V28.6363H84.3885L84.2997 28.9478L84.7125 29.0655ZM98.2765 29.0655L98.6816 29.2074L98.8817 28.6363H98.2765V29.0655ZM80.2741 80.4595L79.869 80.3176L79.8682 80.3197L80.2741 80.4595ZM76.7483 86.9719L76.414 86.7026L76.4116 86.7056L76.7483 86.9719ZM71.1899 91.2444L71.0156 90.8521L71.0116 90.854L71.1899 91.2444ZM63.011 92.35C61.4033 92.3772 59.8957 92.2682 58.4872 92.0244L58.3408 92.8703C59.8082 93.1243 61.3702 93.2364 63.0256 93.2084L63.011 92.35ZM58.4886 92.0246C57.0974 91.7791 55.97 91.4684 55.0973 91.0981L54.762 91.8884C55.7144 92.2925 56.9099 92.6178 58.3394 92.87L58.4886 92.0246ZM55.3404 91.6178L58.2441 82.0358L57.4225 81.7869L54.5189 91.3688L55.3404 91.6178ZM57.7491 82.3323L58.1639 82.4152L58.3323 81.5734L57.9175 81.4904L57.7491 82.3323ZM58.1267 82.406C60.3257 83.0545 62.2451 83.2094 63.8637 82.8268L63.6662 81.9914C62.2429 82.3278 60.4844 82.2062 58.3695 81.5826L58.1267 82.406ZM63.8549 82.8288C65.6003 82.4548 66.8617 81.0873 67.6918 78.9119L66.8897 78.6058C66.1159 80.6337 65.0268 81.6997 63.675 81.9894L63.8549 82.8288ZM67.6927 78.9096L68.4393 76.9185L67.6355 76.6171L66.8889 78.6081L67.6927 78.9096ZM68.4428 76.6268L51.8507 28.9245L51.0399 29.2065L67.632 76.9088L68.4428 76.6268ZM51.4453 29.4947H64.9264V28.6363H51.4453V29.4947ZM64.5132 29.1818L74.0951 63.2371L74.9215 63.0045L65.3396 28.9492L64.5132 29.1818ZM74.5083 63.55H75.0061V62.6916H74.5083V63.55ZM75.4189 63.2384L85.1253 29.1832L84.2997 28.9478L74.5933 63.0031L75.4189 63.2384ZM84.7125 29.4947H98.2765V28.6363H84.7125V29.4947ZM97.8714 28.9236L79.869 80.3176L80.6792 80.6014L98.6816 29.2074L97.8714 28.9236ZM79.8682 80.3197C79.0255 82.7665 77.873 84.8924 76.4141 86.7026L77.0825 87.2413C78.6101 85.3459 79.8082 83.1302 80.6799 80.5993L79.8682 80.3197ZM76.4116 86.7056C74.9907 88.5018 73.1945 89.8838 71.0156 90.8522L71.3642 91.6367C73.6652 90.614 75.5745 89.1476 77.0849 87.2382L76.4116 86.7056ZM71.0116 90.854C68.8418 91.8451 66.1824 92.3499 63.0183 92.3499V93.2084C66.2698 93.2084 69.0581 92.6901 71.3683 91.6348L71.0116 90.854ZM93.9642 75.4404L93.535 75.4422L93.5367 75.8697H93.9642V75.4404ZM93.9228 65.2778V64.8485H93.4918L93.4935 65.2795L93.9228 65.2778ZM95.4575 65.2778V65.7071L95.4656 65.7069L95.4575 65.2778ZM99.0248 63.7845L98.7169 63.4854L98.7125 63.49L99.0248 63.7845ZM101.14 58.9313L100.721 58.8403L100.72 58.8442L101.14 58.9313ZM102.094 49.6397L101.665 49.6233L101.665 49.6245L102.094 49.6397ZM102.882 29.0655V28.6363H102.469L102.454 29.0491L102.882 29.0655ZM138.099 29.0655H138.528V28.6363H138.099V29.0655ZM138.099 75.4404V75.8697H138.528V75.4404H138.099ZM125.863 75.4404H125.433V75.8697H125.863V75.4404ZM125.863 39.1867H126.292V38.7574H125.863V39.1867ZM114.414 39.1867V38.7574H114.007L113.985 39.1641L114.414 39.1867ZM113.667 53.3729L113.239 53.3504L113.239 53.3515L113.667 53.3729ZM112.257 63.3697L111.842 63.2588L112.257 63.3697ZM109.146 70.2554L108.801 70.0004L108.8 70.0013L109.146 70.2554ZM104.334 74.196L104.508 74.5888L104.51 74.5876L104.334 74.196ZM94.3935 75.4387L94.352 65.276L93.4935 65.2795L93.535 75.4422L94.3935 75.4387ZM93.9228 65.707H95.4575V64.8485H93.9228V65.707ZM95.4656 65.7069C97.0337 65.6773 98.3369 65.1398 99.3371 64.0789L98.7125 63.49C97.8876 64.3649 96.8126 64.8229 95.4494 64.8486L95.4656 65.7069ZM99.3327 64.0836C100.357 63.0288 101.084 61.3154 101.561 59.0184L100.72 58.8442C100.256 61.0824 99.5727 62.6045 98.7169 63.4854L99.3327 64.0836ZM101.56 59.0223C102.065 56.6912 102.385 53.5652 102.523 49.6549L101.665 49.6245C101.528 53.5125 101.211 56.5809 100.721 58.8403L101.56 59.0223ZM102.523 49.6561L103.311 29.0819L102.454 29.0491L101.665 49.6233L102.523 49.6561ZM102.882 29.4947H138.099V28.6363H102.882V29.4947ZM137.67 29.0655V75.4404H138.528V29.0655H137.67ZM138.099 75.0112H125.863V75.8697H138.099V75.0112ZM126.292 75.4404V39.1867H125.433V75.4404H126.292ZM125.863 38.7574H114.414V39.6159H125.863V38.7574ZM113.985 39.1641L113.239 53.3504L114.096 53.3955L114.843 39.2092L113.985 39.1641ZM113.239 53.3515C113.046 57.2023 112.579 60.503 111.842 63.2588L112.672 63.4805C113.428 60.6503 113.901 57.2866 114.096 53.3944L113.239 53.3515ZM111.842 63.2588C111.106 66.0144 110.088 68.2569 108.801 70.0004L109.491 70.5104C110.858 68.659 111.915 66.311 112.672 63.4805L111.842 63.2588ZM108.8 70.0013C107.542 71.7145 105.995 72.9791 104.158 73.8045L104.51 74.5876C106.489 73.6984 108.151 72.3359 109.492 70.5095L108.8 70.0013ZM104.161 73.8033C102.345 74.6046 100.235 75.0112 97.8219 75.0112V75.8697C100.331 75.8697 102.563 75.4467 104.508 74.5887L104.161 73.8033ZM97.8219 75.0112H93.9642V75.8697H97.8219V75.0112ZM146.52 65.1948L146.137 65.3891L146.139 65.3927L146.52 65.1948ZM146.52 39.9333L146.138 39.7367L146.137 39.739L146.52 39.9333ZM154.318 31.5128L154.098 31.1445L154.096 31.1453L154.318 31.5128ZM174.768 29.9781L174.617 30.38L174.621 30.3813L174.768 29.9781ZM181.736 34.375L181.435 34.6806L181.437 34.6827L181.736 34.375ZM186.382 41.717L185.98 41.8673L185.981 41.8685L186.382 41.717ZM188.041 55.5299V55.9591H188.471V55.5299H188.041ZM148.884 55.5299H148.455V55.9591H148.884V55.5299ZM148.884 47.6072V47.1779H148.455V47.6072H148.884ZM181.819 47.6072L181.96 48.0127L181.819 47.1779V47.6072ZM175.846 49.6812H175.417V50.2846L175.987 50.0867L175.846 49.6812ZM171.532 39.5185L171.289 39.8725L171.297 39.8778L171.532 39.5185ZM160.913 39.5185L160.677 39.1603L160.674 39.1624L160.913 39.5185ZM157.595 43.4592L157.206 43.2776L157.595 43.4592ZM157.761 61.2542L157.376 61.4438L157.377 61.4461L157.761 61.2542ZM161.453 65.3607L161.228 65.7266L161.236 65.731L161.453 65.3607ZM173.855 64.3237L173.562 64.0102L173.557 64.0151L173.855 64.3237ZM175.763 61.4201L175.792 60.9918L175.471 60.9705L175.36 61.2726L175.763 61.4201ZM187.627 62.2082L188.047 62.294L188.145 61.8125L187.655 61.7799L187.627 62.2082ZM183.976 69.6747L183.653 69.3929L183.652 69.3932L183.976 69.6747ZM176.883 74.6108L177.043 75.0094L177.046 75.008L176.883 74.6108ZM150.419 16.6214L150.848 16.6286L150.848 16.6145L150.419 16.6214ZM152.244 12.3075L152.537 12.6213L152.541 12.6178L152.244 12.3075ZM156.765 10.4823L156.772 10.0529L156.759 10.0532L156.765 10.4823ZM161.162 12.3075L160.862 12.6145L160.869 12.6213L161.162 12.3075ZM161.162 20.9354L160.862 20.6284L160.859 20.6319L161.162 20.9354ZM170.703 12.3075L170.996 12.6213L170.999 12.6178L170.703 12.3075ZM175.183 10.4823L175.189 10.0529L175.176 10.0532L175.183 10.4823ZM179.621 12.3075L179.321 12.6145L179.325 12.618L179.621 12.3075ZM166.804 75.9238C162.106 75.9238 158.075 74.9682 154.694 73.0749L154.274 73.8239C157.807 75.8021 161.988 76.7822 166.804 76.7822V75.9238ZM154.694 73.0749C151.311 71.1807 148.715 68.4911 146.901 64.997L146.139 65.3927C148.03 69.0331 150.743 71.8466 154.274 73.8239L154.694 73.0749ZM146.902 65.0005C145.114 61.4773 144.211 57.3018 144.211 52.4604H143.353C143.353 57.4083 144.275 61.7224 146.137 65.3891L146.902 65.0005ZM144.211 52.4604C144.211 47.7594 145.113 43.6525 146.902 40.1276L146.137 39.739C144.276 43.4041 143.353 47.6485 143.353 52.4604H144.211ZM146.901 40.13C148.719 36.6031 151.264 33.8565 154.54 31.8804L154.096 31.1453C150.68 33.2066 148.026 36.0737 146.138 39.7367L146.901 40.13ZM154.538 31.8812C157.836 29.9081 161.712 28.914 166.181 28.914V28.0555C161.581 28.0555 157.548 29.0801 154.098 31.1445L154.538 31.8812ZM166.181 28.914C169.204 28.914 172.014 29.404 174.617 30.38L174.918 29.5762C172.212 28.5611 169.298 28.0555 166.181 28.0555V28.914ZM174.621 30.3813C177.218 31.3283 179.488 32.7609 181.435 34.6806L182.038 34.0693C180.002 32.0622 177.627 30.5635 174.915 29.5748L174.621 30.3813ZM181.437 34.6827C183.377 36.5685 184.893 38.9596 185.98 41.8673L186.784 41.5667C185.659 38.5565 184.078 36.0529 182.036 34.0672L181.437 34.6827ZM185.981 41.8685C187.064 44.7405 187.612 48.1299 187.612 52.0456H188.471C188.471 48.0524 187.912 44.556 186.784 41.5654L185.981 41.8685ZM187.612 52.0456V55.5299H188.471V52.0456H187.612ZM188.041 55.1007H148.884V55.9591H188.041V55.1007ZM149.313 55.5299V47.6072H148.455V55.5299H149.313ZM148.884 48.0364H181.819V47.1779H148.884V48.0364ZM181.679 47.2017L175.705 49.2757L175.987 50.0867L181.96 48.0127L181.679 47.2017ZM176.275 49.6812C176.275 47.2879 175.91 45.1836 175.165 43.3784L174.371 43.7059C175.064 45.385 175.417 47.3734 175.417 49.6812H176.275ZM175.165 43.3784C174.416 41.5643 173.285 40.1514 171.767 39.1593L171.297 39.8778C172.656 40.7661 173.682 42.0356 174.371 43.7059L175.165 43.3784ZM171.775 39.1646C170.278 38.1374 168.433 37.6375 166.264 37.6375V38.496C168.299 38.496 169.965 38.9639 171.289 39.8724L171.775 39.1646ZM166.264 37.6375C164.095 37.6375 162.225 38.1377 160.677 39.1603L161.15 39.8767C162.533 38.9636 164.23 38.496 166.264 38.496V37.6375ZM160.674 39.1624C159.167 40.1763 158.011 41.5519 157.206 43.2776L157.984 43.6407C158.727 42.048 159.783 40.7965 161.153 39.8746L160.674 39.1624ZM157.206 43.2776C156.401 45.0029 156.004 46.9748 156.004 49.1834H156.863C156.863 47.0781 157.24 45.2338 157.984 43.6407L157.206 43.2776ZM156.004 49.1834V54.7833H156.863V49.1834H156.004ZM156.004 54.7833C156.004 57.3491 156.455 59.5742 157.376 61.4438L158.146 61.0646C157.297 59.3392 156.863 57.2504 156.863 54.7833H156.004ZM157.377 61.4461C158.295 63.2824 159.579 64.7138 161.228 65.7265L161.677 64.9949C160.174 64.0719 158.996 62.7656 158.145 61.0622L157.377 61.4461ZM161.236 65.731C162.913 66.7142 164.828 67.2003 166.969 67.2003V66.3418C164.963 66.3418 163.2 65.8877 161.67 64.9904L161.236 65.731ZM166.969 67.2003C168.449 67.2003 169.798 66.9869 171.013 66.5531L170.724 65.7446C169.616 66.1404 168.366 66.3418 166.969 66.3418V67.2003ZM171.013 66.5531C172.228 66.1192 173.277 65.4796 174.154 64.6323L173.557 64.0151C172.774 64.7717 171.832 65.3489 170.724 65.7446L171.013 66.5531ZM174.148 64.6372C175.056 63.7879 175.729 62.7627 176.166 61.5676L175.36 61.2726C174.968 62.3451 174.369 63.2556 173.562 64.0103L174.148 64.6372ZM175.735 61.8484L187.598 62.6365L187.655 61.7799L175.792 60.9918L175.735 61.8484ZM187.206 62.1225C186.64 64.9005 185.455 67.3212 183.653 69.3929L184.3 69.9564C186.203 67.7695 187.452 65.2126 188.047 62.294L187.206 62.1225ZM183.652 69.3932C181.876 71.4381 179.57 73.0467 176.721 74.2136L177.046 75.008C180.004 73.7968 182.426 72.1146 184.3 69.9561L183.652 69.3932ZM176.724 74.2123C173.881 75.3495 170.577 75.9238 166.804 75.9238V76.7822C170.663 76.7822 174.079 76.195 177.043 75.0094L176.724 74.2123ZM156.765 22.3313C155.106 22.3313 153.707 21.7653 152.544 20.6285L151.944 21.2423C153.27 22.5389 154.885 23.1897 156.765 23.1897V22.3313ZM152.544 20.6285C151.379 19.4897 150.822 18.1635 150.848 16.6286L149.99 16.6143C149.96 18.3978 150.62 19.9476 151.944 21.2423L152.544 20.6285ZM150.848 16.6145C150.822 15.0203 151.382 13.6992 152.537 12.6213L151.951 11.9937C150.617 13.2386 149.96 14.7935 149.99 16.6283L150.848 16.6145ZM152.541 12.6178C153.704 11.5057 155.107 10.9376 156.772 10.9115L156.759 10.0532C154.884 10.0824 153.272 10.731 151.947 11.9971L152.541 12.6178ZM156.758 10.9115C158.364 10.9374 159.725 11.5027 160.862 12.6145L161.462 12.0005C160.166 10.734 158.596 10.0826 156.772 10.0532L156.758 10.9115ZM160.869 12.6213C162.026 13.7009 162.6 15.0249 162.6 16.6214H163.458C163.458 14.7889 162.787 13.237 161.455 11.9937L160.869 12.6213ZM162.6 16.6214C162.6 18.159 162.028 19.488 160.862 20.6285L161.462 21.2423C162.785 19.9492 163.458 18.4023 163.458 16.6214H162.6ZM160.859 20.6319C159.722 21.7684 158.366 22.3313 156.765 22.3313V23.1897C158.594 23.1897 160.169 22.5358 161.466 21.2389L160.859 20.6319ZM175.183 22.3313C173.552 22.3313 172.167 21.7667 171.003 20.6285L170.403 21.2423C171.727 22.5375 173.328 23.1897 175.183 23.1897V22.3313ZM171.003 20.6285C169.836 19.488 169.265 18.159 169.265 16.6214H168.407C168.407 18.4023 169.08 19.9492 170.403 21.2423L171.003 20.6285ZM169.265 16.6214C169.265 15.0249 169.839 13.7009 170.996 12.6213L170.41 11.9937C169.078 13.237 168.407 14.7889 168.407 16.6214H169.265ZM170.999 12.6178C172.164 11.5044 173.554 10.9375 175.189 10.9115L175.176 10.0532C173.327 10.0825 171.73 10.7323 170.406 11.9971L170.999 12.6178ZM175.176 10.9115C176.811 10.9375 178.185 11.5041 179.321 12.6145L179.921 12.0005C178.624 10.7326 177.038 10.0825 175.189 10.0532L175.176 10.9115ZM179.325 12.618C180.455 13.6967 181.017 15.0217 181.017 16.6214H181.875C181.875 14.7922 181.221 13.2412 179.917 11.997L179.325 12.618ZM181.017 16.6214C181.017 18.1622 180.457 19.4923 179.317 20.6319L179.924 21.2389C181.218 19.945 181.875 18.3991 181.875 16.6214H181.017ZM179.317 20.6319C178.182 21.767 176.812 22.3313 175.183 22.3313V23.1897C177.037 23.1897 178.626 22.5373 179.924 21.2389L179.317 20.6319ZM192.709 75.4404H192.28V75.8697H192.709V75.4404ZM192.709 29.0655V28.6363H192.28V29.0655H192.709ZM205.526 29.0655H205.955V28.6363H205.526V29.0655ZM205.526 47.0679H205.097V47.4972H205.526V47.0679ZM209.176 47.0679V47.4972H209.4L209.528 47.3137L209.176 47.0679ZM221.745 29.0655V28.6363H221.521L221.393 28.8198L221.745 29.0655ZM236.844 29.0655L237.194 29.3141L237.675 28.6363H236.844V29.0655ZM220.459 52.1285L220.109 51.8799L219.933 52.1284L220.109 52.377L220.459 52.1285ZM237.01 75.4404V75.8697H237.841L237.36 75.1919L237.01 75.4404ZM221.745 75.4404L221.393 75.6859L221.521 75.8697H221.745V75.4404ZM210.296 59.0142L210.649 58.7688L210.52 58.585H210.296V59.0142ZM205.526 59.0142V58.585H205.097V59.0142H205.526ZM205.526 75.4404V75.8697H205.955V75.4404H205.526ZM193.138 75.4404V29.0655H192.28V75.4404H193.138ZM192.709 29.4947H205.526V28.6363H192.709V29.4947ZM205.097 29.0655V47.0679H205.955V29.0655H205.097ZM205.526 47.4972H209.176V46.6387H205.526V47.4972ZM209.528 47.3137L222.097 29.3112L221.393 28.8198L208.825 46.8222L209.528 47.3137ZM221.745 29.4947H236.844V28.6363H221.745V29.4947ZM236.494 28.8169L220.109 51.8799L220.809 52.3771L237.194 29.3141L236.494 28.8169ZM220.109 52.377L236.66 75.6889L237.36 75.1919L220.809 51.88L220.109 52.377ZM237.01 75.0112H221.745V75.8697H237.01V75.0112ZM222.097 75.195L210.649 58.7688L209.944 59.2597L221.393 75.6859L222.097 75.195ZM210.296 58.585H205.526V59.4435H210.296V58.585ZM205.097 59.0142V75.4404H205.955V59.0142H205.097ZM205.526 75.0112H192.709V75.8697H205.526V75.0112Z" fill="white" mask="url(#path-2-outside-1_1052_1528)"/>
<path fill-rule="evenodd" clip-rule="evenodd" d="M192.795 75.178H205.354V59.0831H210.028L221.246 75.178H236.203L219.986 52.3362L236.04 29.7383H221.246L208.931 47.3777H205.354V29.7383H192.795V75.178ZM206.225 46.5064V28.867H191.924V76.0493H206.225V59.9544H209.573L220.791 76.0493H237.89L221.054 52.3364L237.207 29.7383H220.217L208.476 46.5064H206.225Z" fill="black"/>
<path fill-rule="evenodd" clip-rule="evenodd" d="M145.931 65.537L145.929 65.5334C144.067 61.8653 143.152 57.5654 143.152 52.6614C143.152 47.8883 144.068 43.6573 145.929 39.9925L145.931 39.9878C147.818 36.3272 150.475 33.4546 153.897 31.3902L153.899 31.3886C157.36 29.318 161.394 28.298 165.971 28.298C169.073 28.298 171.981 28.8012 174.687 29.8154C177.401 30.8058 179.783 32.3077 181.822 34.3182C183.876 36.316 185.458 38.8274 186.58 41.8295C187.709 44.8214 188.261 48.3026 188.261 52.2549V56.5403H157.359C157.507 58.2101 157.893 59.6558 158.501 60.8908C159.299 62.4858 160.394 63.6979 161.786 64.5544C163.207 65.3855 164.851 65.8121 166.743 65.8121C168.068 65.8121 169.241 65.621 170.271 65.2532C171.3 64.8856 172.167 64.3527 172.884 63.659L172.89 63.654L172.895 63.6492C173.632 62.9594 174.18 62.1275 174.541 61.141L174.437 61.4094L187.837 62.2671V62.3867C187.239 65.32 185.982 67.8966 184.065 70.0998C182.176 72.2744 179.742 73.9613 176.787 75.1714L176.784 75.1728L176.781 75.1741C173.813 76.3612 170.407 76.9434 166.581 76.9434C161.801 76.9434 157.624 75.9701 154.084 73.9873C150.546 72.0062 147.825 69.1845 145.933 65.5406L145.931 65.537ZM157.72 61.2778C157.047 59.9108 156.635 58.3317 156.485 56.5403C156.461 56.2552 156.443 55.9648 156.433 55.669H187.39V52.2549C187.39 48.3802 186.848 45.0068 185.764 42.1346C184.681 39.2354 183.163 36.8374 181.212 34.9407C179.261 33.0169 176.985 31.5808 174.384 30.6325C171.783 29.657 168.979 29.1693 165.971 29.1693C161.527 29.1693 157.652 30.1583 154.347 32.1363C151.068 34.1143 148.521 36.8645 146.706 40.387C144.917 43.9094 144.023 48.0009 144.023 52.6614C144.023 57.4573 144.917 61.6165 146.706 65.139C148.521 68.6343 151.122 71.3304 154.509 73.2271C157.896 75.1238 161.92 76.0721 166.581 76.0721C170.32 76.0721 173.612 75.5031 176.457 74.3651C179.302 73.2 181.619 71.5878 183.407 69.5285C185.033 67.6593 186.16 65.5074 186.786 63.0727C186.858 62.7898 186.924 62.5031 186.984 62.2126L175.347 61.4676C174.94 62.5785 174.33 63.4997 173.49 64.2855C172.677 65.0712 171.702 65.6673 170.564 66.0738C169.426 66.4802 168.152 66.6834 166.743 66.6834C164.711 66.6834 162.909 66.2228 161.337 65.3015C159.793 64.3532 158.587 63.012 157.72 61.2778ZM175.342 47.906C175.312 47.6098 175.275 47.3194 175.231 47.0347C175.057 45.906 174.774 44.8687 174.384 43.923C173.68 42.2159 172.623 40.9018 171.214 39.9805C169.832 39.0322 168.111 38.558 166.052 38.558C163.993 38.558 162.245 39.0322 160.809 39.9805C159.4 40.9289 158.316 42.2159 157.558 43.8417C157.102 44.8181 156.783 45.8824 156.601 47.0347C156.556 47.3198 156.519 47.6102 156.491 47.906H175.342ZM157.484 47.0347H174.349C174.183 46.0193 173.925 45.0938 173.579 44.2553C172.934 42.6942 171.985 41.5256 170.737 40.7098L170.729 40.7044L170.721 40.6989C169.514 39.8709 167.976 39.4293 166.052 39.4293C164.131 39.4293 162.559 39.8698 161.292 40.7057C160.024 41.5604 159.042 42.7208 158.347 44.2101C157.947 45.0682 157.657 46.0084 157.484 47.0347ZM156.745 10.6585L156.759 10.6587C158.656 10.6893 160.303 11.3704 161.655 12.6879C163.047 13.991 163.753 15.6289 163.753 17.5452C163.753 19.4165 163.041 21.0455 161.665 22.3921C160.311 23.7445 158.655 24.4318 156.745 24.4318C154.787 24.4318 153.091 23.7495 151.705 22.3951C150.328 21.0481 149.627 19.4171 149.655 17.5452C149.627 15.6288 150.321 13.9888 151.716 12.685C153.098 11.3657 154.786 10.6891 156.731 10.6587L156.745 10.6585ZM152.315 13.3182C151.095 14.4563 150.499 15.8652 150.526 17.5452C150.499 19.1709 151.095 20.5799 152.315 21.7721C153.534 22.9643 155.011 23.5605 156.745 23.5605C158.425 23.5605 159.861 22.9643 161.053 21.7721C162.272 20.5799 162.882 19.1709 162.882 17.5452C162.882 15.8652 162.272 14.4563 161.053 13.3182C159.861 12.1531 158.425 11.557 156.745 11.5299C155.011 11.557 153.534 12.1531 152.315 13.3182ZM174.791 10.6585L174.804 10.6587C176.726 10.6892 178.389 11.3688 179.745 12.6914C181.11 13.9968 181.799 15.634 181.799 17.5452C181.799 19.4114 181.104 21.0394 179.756 22.3882C178.398 23.7461 176.725 24.4318 174.791 24.4318C172.856 24.4318 171.174 23.7467 169.792 22.3951C168.414 21.0479 167.701 19.4179 167.701 17.5452C167.701 15.6273 168.408 13.9881 169.803 12.6844C171.183 11.3682 172.855 10.6892 174.777 10.6587L174.791 10.6585ZM179.139 13.3182C177.947 12.1531 176.498 11.557 174.791 11.5299C173.084 11.557 171.62 12.1531 170.401 13.3182C169.182 14.4563 168.572 15.8652 168.572 17.5452C168.572 19.1709 169.182 20.5799 170.401 21.7721C171.62 22.9643 173.084 23.5605 174.791 23.5605C176.498 23.5605 177.947 22.9643 179.139 21.7721C180.332 20.5799 180.928 19.1709 180.928 17.5452C180.928 15.8652 180.332 14.4563 179.139 13.3182Z" fill="black"/>
<path fill-rule="evenodd" clip-rule="evenodd" d="M95.2116 75.178H98.9915C101.403 75.178 103.53 74.7715 105.373 73.9587C107.242 73.1187 108.814 71.8316 110.087 70.0975C111.388 68.3363 112.404 66.0873 113.135 63.3506C113.867 60.614 114.328 57.3489 114.517 53.5555L115.249 39.6554H126.467V75.178H138.457V29.7383H103.95L103.178 49.8976C103.042 53.7181 102.731 56.7528 102.243 59.0018C101.782 61.2236 101.091 62.8087 100.17 63.7571C99.276 64.7054 98.1109 65.1932 96.6748 65.2203H95.171L95.2116 75.178ZM96.6662 64.349H95.1711L95.1702 76.0493H98.9915C101.501 76.0493 103.751 75.6262 105.724 74.7558L105.73 74.7534C107.743 73.8487 109.432 72.4624 110.789 70.6132C112.17 68.7429 113.226 66.3874 113.977 63.5757C114.729 60.7641 115.196 57.4358 115.387 53.6013M115.388 53.599L116.076 40.5267H125.595V76.0493H139.328V28.867H103.111L102.307 49.8642L102.307 49.8667C102.172 53.6645 101.863 56.6409 101.391 58.8171L101.391 58.821L101.39 58.8249C100.942 60.9872 100.295 62.3781 99.5452 63.15L99.5406 63.1546L99.5362 63.1594C98.8215 63.9174 97.8905 64.3242 96.6662 64.349" fill="black"/>
<path fill-rule="evenodd" clip-rule="evenodd" d="M53.2203 36.2312L67.2155 76.4674L66.5962 78.1188C66.5959 78.1197 66.5956 78.1206 66.5952 78.1214C65.8667 80.0292 64.8904 80.9147 63.773 81.1542L63.764 81.1561L63.7551 81.1582C62.4631 81.4636 60.8244 81.362 58.7964 80.764L58.759 80.7529L57.539 80.5089L54.2376 91.4035L54.9582 91.7092C55.9332 92.1228 57.1403 92.4492 58.5611 92.6999L58.5639 92.7004C60.0305 92.9543 61.587 93.0658 63.2313 93.0383C66.4583 93.0376 69.2542 92.5232 71.589 91.4575C73.9045 90.4276 75.8324 88.9481 77.358 87.0205C78.8892 85.1199 80.086 82.9035 80.9548 80.3818L80.9555 80.3796L98.9995 28.867H84.4806L84.4721 29.7682L75.0683 62.7619L65.7536 28.867H50.6588L50.9619 29.7383H65.0936L74.4823 63.1068H74.97L84.4806 29.7383H97.7711L80.1318 80.0959C79.2918 82.5345 78.1402 84.6615 76.677 86.4769C75.241 88.2923 73.4255 89.6878 71.2308 90.6632C69.036 91.6658 66.3671 92.167 63.224 92.167C61.6253 92.1941 60.1215 92.0858 58.7125 91.8419C57.3306 91.598 56.1926 91.2864 55.2984 90.9071L58.1435 81.5184L58.5499 81.5997C60.6634 82.2229 62.4653 82.3584 63.9556 82.0061C65.4729 81.681 66.6245 80.4887 67.4103 78.4295L68.1419 76.4786L53.8396 35.3594L53.2203 36.2312Z" fill="black"/>
<path d="M43.0385 75.178L31.8208 59.0831H27.1468V75.178H14.5879V76.0493H28.0181V59.9544H31.3661L42.5837 76.0493H59.6825L42.8472 52.3364L54.1907 36.3694L53.8394 35.3594L41.7785 52.3362L57.9954 75.178H43.0385Z" fill="black"/>
<path d="M30.2691 46.5064H28.0181V28.867H14.5879V29.7383H27.1468V47.3777H30.7234L43.0385 29.7383H58.9016L59.5206 28.867H42.5842L30.2691 46.5064Z" fill="black"/>
<path d="M7.44029 78.0571C7.11061 78.0571 6.82788 77.9708 6.59212 77.7983C6.35828 77.6258 6.17906 77.3766 6.05447 77.0508C5.9318 76.723 5.87046 76.3262 5.87046 75.8605C5.87046 75.3966 5.93276 75.0008 6.05735 74.673C6.18194 74.3434 6.36115 74.0923 6.595 73.9198C6.83076 73.7453 7.11252 73.6581 7.44029 73.6581C7.76997 73.6581 8.05173 73.7453 8.28558 73.9198C8.52134 74.0923 8.70056 74.3434 8.82323 74.673C8.94782 75.0008 9.01011 75.3966 9.01011 75.8605C9.01011 76.3262 8.94878 76.723 8.8261 77.0508C8.70343 77.3766 8.52517 77.6258 8.29133 77.7983C8.05748 77.9708 7.7738 78.0571 7.44029 78.0571ZM7.44029 77.505C7.64155 77.505 7.81118 77.4408 7.94919 77.3124C8.08719 77.184 8.19262 76.9971 8.26545 76.7518C8.33829 76.5045 8.37471 76.2074 8.37471 75.8605C8.37471 75.5116 8.33829 75.2145 8.26545 74.9692C8.19262 74.7219 8.08719 74.5341 7.94919 74.4056C7.81118 74.2753 7.64155 74.2101 7.44029 74.2101C7.14319 74.2101 6.91318 74.3549 6.75025 74.6443C6.58925 74.9318 6.50874 75.3372 6.50874 75.8605C6.50874 76.2074 6.54516 76.5045 6.618 76.7518C6.69083 76.9971 6.79626 77.184 6.93426 77.3124C7.07419 77.4408 7.24286 77.505 7.44029 77.505ZM9.51039 77.9996V77.5338L10.9595 76.0272C11.1128 75.8662 11.2393 75.7244 11.339 75.6017C11.4406 75.4771 11.5163 75.3592 11.5661 75.2481C11.6179 75.1369 11.6437 75.019 11.6437 74.8944C11.6437 74.7507 11.6102 74.627 11.5431 74.5235C11.476 74.42 11.385 74.3405 11.27 74.2849C11.155 74.2293 11.0246 74.2015 10.879 74.2015C10.7256 74.2015 10.5924 74.2331 10.4793 74.2964C10.3662 74.3577 10.278 74.4459 10.2148 74.5609C10.1535 74.674 10.1228 74.8072 10.1228 74.9606H9.50751C9.50751 74.6999 9.56693 74.4718 9.68577 74.2763C9.80653 74.0808 9.97137 73.9293 10.1803 73.822C10.3911 73.7127 10.6288 73.6581 10.8933 73.6581C11.1636 73.6581 11.4013 73.7118 11.6064 73.8191C11.8115 73.9265 11.9715 74.0721 12.0865 74.2561C12.2015 74.4382 12.259 74.6443 12.259 74.8743C12.259 75.0334 12.2293 75.1886 12.1699 75.3401C12.1124 75.4915 12.0098 75.6611 11.8623 75.849C11.7166 76.0349 11.5134 76.2592 11.2527 76.5218L10.4017 77.413V77.4475H12.328V77.9996H9.51039Z" fill="black"/>
<path d="M73.6614 71.0866C73.3317 71.0866 73.049 71.0003 72.8132 70.8278C72.5793 70.6553 72.4001 70.4061 72.2755 70.0803C72.1529 69.7525 72.0915 69.3557 72.0915 68.8899C72.0915 68.4261 72.1538 68.0303 72.2784 67.7025C72.403 67.3728 72.5822 67.1217 72.8161 66.9492C73.0518 66.7748 73.3336 66.6876 73.6614 66.6876C73.991 66.6876 74.2728 66.7748 74.5066 66.9492C74.7424 67.1217 74.9216 67.3728 75.0443 67.7025C75.1689 68.0303 75.2312 68.4261 75.2312 68.8899C75.2312 69.3557 75.1698 69.7525 75.0472 70.0803C74.9245 70.4061 74.7462 70.6553 74.5124 70.8278C74.2786 71.0003 73.9949 71.0866 73.6614 71.0866ZM73.6614 70.5345C73.8626 70.5345 74.0322 70.4703 74.1703 70.3419C74.3083 70.2135 74.4137 70.0266 74.4865 69.7812C74.5594 69.534 74.5958 69.2369 74.5958 68.8899C74.5958 68.5411 74.5594 68.244 74.4865 67.9987C74.4137 67.7514 74.3083 67.5636 74.1703 67.4351C74.0322 67.3048 73.8626 67.2396 73.6614 67.2396C73.3643 67.2396 73.1342 67.3843 72.9713 67.6738C72.8103 67.9613 72.7298 68.3667 72.7298 68.8899C72.7298 69.2369 72.7662 69.534 72.8391 69.7812C72.9119 70.0266 73.0173 70.2135 73.1553 70.3419C73.2953 70.4703 73.4639 70.5345 73.6614 70.5345ZM77.2237 71.0866C76.9342 71.0866 76.6774 71.0377 76.4531 70.9399C76.2289 70.8403 76.0516 70.7022 75.9212 70.5259C75.7909 70.3496 75.7219 70.1454 75.7142 69.9135H76.364C76.3736 70.04 76.4167 70.1493 76.4934 70.2413C76.57 70.3333 76.6707 70.4051 76.7953 70.4569C76.9218 70.5067 77.0626 70.5317 77.2179 70.5317C77.3866 70.5317 77.5361 70.5019 77.6664 70.4425C77.7968 70.3831 77.8984 70.3016 77.9712 70.1981C78.0459 70.0927 78.0833 69.971 78.0833 69.833C78.0833 69.6892 78.0469 69.5627 77.9741 69.4535C77.9012 69.3423 77.7948 69.2561 77.6549 69.1947C77.515 69.1334 77.3463 69.1027 77.1489 69.1027H76.7838V68.5737H77.1489C77.3061 68.5737 77.445 68.5449 77.5658 68.4874C77.6866 68.4299 77.7805 68.3504 77.8476 68.2488C77.9166 68.1472 77.9511 68.0274 77.9511 67.8894C77.9511 67.7571 77.9214 67.6421 77.8619 67.5444C77.8025 67.4447 77.7191 67.368 77.6118 67.3144C77.5045 67.2588 77.378 67.231 77.2323 67.231C77.0924 67.231 76.962 67.2559 76.8413 67.3057C76.7205 67.3556 76.6218 67.4275 76.5451 67.5214C76.4704 67.6134 76.4311 67.7255 76.4272 67.8578H75.8033C75.8091 67.6258 75.8762 67.4227 76.0046 67.2482C76.1349 67.0719 76.3074 66.9349 76.5221 66.8371C76.7387 66.7374 76.9783 66.6876 77.2409 66.6876C77.515 66.6876 77.7517 66.7413 77.9511 66.8486C78.1523 66.954 78.3076 67.0959 78.4168 67.2741C78.5261 67.4505 78.5807 67.6431 78.5807 67.852C78.5807 68.0955 78.5136 68.3005 78.3795 68.4673C78.2453 68.6321 78.0661 68.7443 77.8418 68.8037V68.8353C78.1255 68.8794 78.345 68.9925 78.5002 69.1746C78.6574 69.3567 78.736 69.5829 78.736 69.8531C78.736 70.0889 78.6698 70.2997 78.5376 70.4857C78.4073 70.6716 78.228 70.8182 77.9999 70.9255C77.7738 71.0329 77.515 71.0866 77.2237 71.0866Z" fill="black"/>
<path d="M76.7077 31.007C76.378 31.007 76.0953 30.9207 75.8595 30.7482C75.6257 30.5757 75.4465 30.3265 75.3219 30.0007C75.1992 29.6729 75.1379 29.2761 75.1379 28.8104C75.1379 28.3465 75.2002 27.9507 75.3247 27.6229C75.4493 27.2932 75.6285 27.0421 75.8624 26.8696C76.0982 26.6952 76.3799 26.608 76.7077 26.608C77.0374 26.608 77.3191 26.6952 77.553 26.8696C77.7887 27.0421 77.968 27.2932 78.0906 27.6229C78.2152 27.9507 78.2775 28.3465 78.2775 28.8104C78.2775 29.2761 78.2162 29.6729 78.0935 30.0007C77.9708 30.3265 77.7926 30.5757 77.5587 30.7482C77.3249 30.9207 77.0412 31.007 76.7077 31.007ZM76.7077 30.4549C76.9089 30.4549 77.0786 30.3907 77.2166 30.2623C77.3546 30.1339 77.46 29.947 77.5328 29.7017C77.6057 29.4544 77.6421 29.1573 77.6421 28.8104C77.6421 28.4615 77.6057 28.1644 77.5328 27.9191C77.46 27.6718 77.3546 27.484 77.2166 27.3555C77.0786 27.2252 76.9089 27.16 76.7077 27.16C76.4106 27.16 76.1806 27.3047 76.0176 27.5942C75.8566 27.8817 75.7761 28.2871 75.7761 28.8104C75.7761 29.1573 75.8126 29.4544 75.8854 29.7017C75.9582 29.947 76.0637 30.1339 76.2017 30.2623C76.3416 30.3907 76.5103 30.4549 76.7077 30.4549ZM78.6915 30.1128V29.5924L80.5402 26.6655H80.9514V27.436H80.6869L79.3643 29.5291V29.5636H81.9031V30.1128H78.6915ZM80.7156 30.9495V29.9547L80.7214 29.716V26.6655H81.3367V30.9495H80.7156Z" fill="black"/>
<path d="M92.8263 59.7598C92.4967 59.7598 92.2139 59.6736 91.9782 59.5011C91.7443 59.3286 91.5651 59.0794 91.4405 58.7535C91.3178 58.4258 91.2565 58.029 91.2565 57.5632C91.2565 57.0994 91.3188 56.7036 91.4434 56.3758C91.568 56.0461 91.7472 55.795 91.981 55.6225C92.2168 55.4481 92.4986 55.3609 92.8263 55.3609C93.156 55.3609 93.4378 55.4481 93.6716 55.6225C93.9074 55.795 94.0866 56.0461 94.2093 56.3758C94.3339 56.7036 94.3962 57.0994 94.3962 57.5632C94.3962 58.029 94.3348 58.4258 94.2122 58.7535C94.0895 59.0794 93.9112 59.3286 93.6774 59.5011C93.4435 59.6736 93.1599 59.7598 92.8263 59.7598ZM92.8263 59.2078C93.0276 59.2078 93.1972 59.1436 93.3352 59.0152C93.4732 58.8868 93.5787 58.6999 93.6515 58.4545C93.7243 58.2073 93.7608 57.9102 93.7608 57.5632C93.7608 57.2144 93.7243 56.9173 93.6515 56.6719C93.5787 56.4247 93.4732 56.2368 93.3352 56.1084C93.1972 55.9781 93.0276 55.9129 92.8263 55.9129C92.5292 55.9129 92.2992 56.0576 92.1363 56.347C91.9753 56.6346 91.8948 57.04 91.8948 57.5632C91.8948 57.9102 91.9312 58.2073 92.004 58.4545C92.0769 58.6999 92.1823 58.8868 92.3203 59.0152C92.4602 59.1436 92.6289 59.2078 92.8263 59.2078ZM96.311 59.7598C96.0484 59.7598 95.8126 59.71 95.6037 59.6103C95.3967 59.5087 95.2309 59.3698 95.1063 59.1934C94.9817 59.0152 94.9156 58.813 94.9079 58.5868H95.5347C95.55 58.7689 95.6315 58.9193 95.7791 59.0382C95.9267 59.157 96.104 59.2164 96.311 59.2164C96.4758 59.2164 96.6215 59.1781 96.748 59.1014C96.8745 59.0248 96.9742 58.9203 97.047 58.788C97.1199 58.6539 97.1563 58.5005 97.1563 58.328C97.1563 58.1555 97.1189 58.0012 97.0442 57.8651C96.9694 57.7271 96.8659 57.6188 96.7336 57.5402C96.6033 57.4616 96.4528 57.4223 96.2823 57.4223C96.1519 57.4223 96.0216 57.4453 95.8912 57.4914C95.7609 57.5354 95.6555 57.5929 95.575 57.6639L94.9798 57.5776L95.2213 55.4184H97.5761V55.9733H95.7619L95.6267 57.1722H95.6497C95.7321 57.0898 95.8424 57.0227 95.9804 56.971C96.1203 56.9173 96.2708 56.8904 96.4318 56.8904C96.6924 56.8904 96.9244 56.9527 97.1275 57.0773C97.3326 57.2 97.4936 57.3687 97.6106 57.5834C97.7275 57.7961 97.7859 58.0405 97.7859 58.3165C97.7859 58.5944 97.7227 58.8427 97.5962 59.0612C97.4697 59.2778 97.2953 59.4484 97.0729 59.573C96.8525 59.6975 96.5985 59.7598 96.311 59.7598Z" fill="black"/>
<path d="M92.8263 84.5917C92.4967 84.5917 92.2139 84.5054 91.9782 84.3329C91.7443 84.1604 91.5651 83.9112 91.4405 83.5854C91.3178 83.2576 91.2565 82.8608 91.2565 82.3951C91.2565 81.9312 91.3188 81.5354 91.4434 81.2076C91.568 80.878 91.7472 80.6269 91.981 80.4544C92.2168 80.2799 92.4986 80.1927 92.8263 80.1927C93.156 80.1927 93.4378 80.2799 93.6716 80.4544C93.9074 80.6269 94.0866 80.878 94.2093 81.2076C94.3339 81.5354 94.3962 81.9312 94.3962 82.3951C94.3962 82.8608 94.3348 83.2576 94.2122 83.5854C94.0895 83.9112 93.9112 84.1604 93.6774 84.3329C93.4435 84.5054 93.1599 84.5917 92.8263 84.5917ZM92.8263 84.0397C93.0276 84.0397 93.1972 83.9754 93.3352 83.847C93.4732 83.7186 93.5787 83.5317 93.6515 83.2864C93.7243 83.0391 93.7608 82.742 93.7608 82.3951C93.7608 82.0462 93.7243 81.7491 93.6515 81.5038C93.5787 81.2565 93.4732 81.0687 93.3352 80.9403C93.1972 80.8099 93.0276 80.7447 92.8263 80.7447C92.5292 80.7447 92.2992 80.8895 92.1363 81.1789C91.9753 81.4664 91.8948 81.8718 91.8948 82.3951C91.8948 82.742 91.9312 83.0391 92.004 83.2864C92.0769 83.5317 92.1823 83.7186 92.3203 83.847C92.4602 83.9754 92.6289 84.0397 92.8263 84.0397ZM96.38 84.5917C96.1902 84.5917 96.0024 84.5581 95.8165 84.4911C95.6306 84.424 95.4628 84.3128 95.3133 84.1575C95.1638 84.0004 95.0431 83.7895 94.9511 83.525C94.861 83.2605 94.8159 82.9318 94.8159 82.5388C94.8159 82.1651 94.8533 81.8335 94.9281 81.544C95.0047 81.2527 95.113 81.0073 95.253 80.808C95.3948 80.6067 95.5654 80.4544 95.7647 80.3509C95.9641 80.2454 96.1883 80.1927 96.4375 80.1927C96.6924 80.1927 96.9186 80.2435 97.116 80.3451C97.3135 80.4448 97.4735 80.5828 97.5962 80.7591C97.7208 80.9355 97.7984 81.1367 97.8291 81.3629H97.1965C97.1525 81.1846 97.0662 81.0399 96.9378 80.9288C96.8094 80.8157 96.6426 80.7591 96.4375 80.7591C96.1232 80.7591 95.8778 80.8962 95.7015 81.1703C95.527 81.4424 95.4398 81.822 95.4398 82.3088H95.4715C95.5462 82.1881 95.6373 82.0846 95.7446 81.9983C95.8519 81.9101 95.9717 81.8431 96.104 81.797C96.2382 81.751 96.381 81.728 96.5324 81.728C96.7797 81.728 97.0039 81.7884 97.2052 81.9092C97.4083 82.0299 97.5694 82.1967 97.6882 82.4095C97.8089 82.6203 97.8693 82.8628 97.8693 83.1369C97.8693 83.409 97.807 83.6553 97.6824 83.8758C97.5598 84.0962 97.3863 84.2706 97.162 84.399C96.9397 84.5275 96.679 84.5917 96.38 84.5917ZM96.3771 84.0483C96.542 84.0483 96.6886 84.008 96.817 83.9275C96.9474 83.847 97.0509 83.7387 97.1275 83.6026C97.2042 83.4646 97.2425 83.3113 97.2425 83.1426C97.2425 82.9778 97.2052 82.8283 97.1304 82.6941C97.0576 82.5599 96.957 82.4535 96.8285 82.375C96.702 82.2944 96.5563 82.2542 96.3915 82.2542C96.2286 82.2542 96.081 82.2954 95.9487 82.3778C95.8165 82.4602 95.7111 82.5695 95.6325 82.7056C95.5558 82.8417 95.5175 82.9893 95.5175 83.1484C95.5175 83.3075 95.5548 83.456 95.6296 83.594C95.7043 83.732 95.8059 83.8422 95.9344 83.9247C96.0647 84.0071 96.2123 84.0483 96.3771 84.0483Z" fill="black"/>
<path d="M172.987 84.1561C172.658 84.1561 172.375 84.0699 172.139 83.8974C171.905 83.7249 171.726 83.4757 171.601 83.1498C171.479 82.8221 171.417 82.4253 171.417 81.9595C171.417 81.4957 171.48 81.0999 171.604 80.7721C171.729 80.4424 171.908 80.1913 172.142 80.0188C172.378 79.8444 172.66 79.7572 172.987 79.7572C173.317 79.7572 173.599 79.8444 173.833 80.0188C174.068 80.1913 174.248 80.4424 174.37 80.7721C174.495 81.0999 174.557 81.4957 174.557 81.9595C174.557 82.4253 174.496 82.8221 174.373 83.1498C174.25 83.4757 174.072 83.7249 173.838 83.8974C173.604 84.0699 173.321 84.1561 172.987 84.1561ZM172.987 83.6041C173.189 83.6041 173.358 83.5399 173.496 83.4115C173.634 83.2831 173.74 83.0962 173.812 82.8508C173.885 82.6036 173.922 82.3065 173.922 81.9595C173.922 81.6107 173.885 81.3136 173.812 81.0682C173.74 80.821 173.634 80.6331 173.496 80.5047C173.358 80.3744 173.189 80.3092 172.987 80.3092C172.69 80.3092 172.46 80.4539 172.297 80.7433C172.136 81.0309 172.056 81.4363 172.056 81.9595C172.056 82.3065 172.092 82.6036 172.165 82.8508C172.238 83.0962 172.343 83.2831 172.481 83.4115C172.621 83.5399 172.79 83.6041 172.987 83.6041ZM175.086 84.0986L176.955 80.4012V80.3696H174.793V79.8147H177.628V80.3926L175.762 84.0986H175.086Z" fill="black"/>
<path d="M185.184 84.1561C184.854 84.1561 184.571 84.0699 184.336 83.8974C184.102 83.7249 183.922 83.4757 183.798 83.1498C183.675 82.8221 183.614 82.4253 183.614 81.9595C183.614 81.4957 183.676 81.0999 183.801 80.7721C183.925 80.4424 184.105 80.1913 184.338 80.0188C184.574 79.8444 184.856 79.7572 185.184 79.7572C185.513 79.7572 185.795 79.8444 186.029 80.0188C186.265 80.1913 186.444 80.4424 186.567 80.7721C186.691 81.0999 186.754 81.4957 186.754 81.9595C186.754 82.4253 186.692 82.8221 186.57 83.1498C186.447 83.4757 186.269 83.7249 186.035 83.8974C185.801 84.0699 185.517 84.1561 185.184 84.1561ZM185.184 83.6041C185.385 83.6041 185.555 83.5399 185.693 83.4115C185.831 83.2831 185.936 83.0962 186.009 82.8508C186.082 82.6036 186.118 82.3065 186.118 81.9595C186.118 81.6107 186.082 81.3136 186.009 81.0682C185.936 80.821 185.831 80.6331 185.693 80.5047C185.555 80.3744 185.385 80.3092 185.184 80.3092C184.887 80.3092 184.657 80.4539 184.494 80.7433C184.333 81.0309 184.252 81.4363 184.252 81.9595C184.252 82.3065 184.289 82.6036 184.361 82.8508C184.434 83.0962 184.54 83.2831 184.678 83.4115C184.818 83.5399 184.986 83.6041 185.184 83.6041ZM188.697 84.1561C188.398 84.1561 188.134 84.1044 187.904 84.0009C187.675 83.8974 187.496 83.7555 187.366 83.5754C187.238 83.3933 187.173 83.1863 187.173 82.9543C187.173 82.7761 187.211 82.6103 187.285 82.4569C187.362 82.3036 187.466 82.1761 187.596 82.0745C187.726 81.9729 187.873 81.9078 188.036 81.879V81.8531C187.823 81.8014 187.652 81.6874 187.521 81.511C187.393 81.3327 187.329 81.1296 187.329 80.9015C187.329 80.6811 187.387 80.4846 187.504 80.3121C187.623 80.1396 187.785 80.0044 187.99 79.9067C188.197 79.807 188.433 79.7572 188.697 79.7572C188.958 79.7572 189.191 79.807 189.396 79.9067C189.603 80.0044 189.765 80.1396 189.882 80.3121C190.001 80.4846 190.06 80.6811 190.06 80.9015C190.06 81.1296 189.995 81.3327 189.864 81.511C189.736 81.6874 189.567 81.8014 189.358 81.8531V81.879C189.519 81.9078 189.665 81.9729 189.795 82.0745C189.926 82.1761 190.029 82.3036 190.106 82.4569C190.183 82.6103 190.221 82.7761 190.221 82.9543C190.221 83.1863 190.156 83.3933 190.025 83.5754C189.895 83.7555 189.715 83.8974 189.485 84.0009C189.257 84.1044 188.994 84.1561 188.697 84.1561ZM188.697 83.6271C188.873 83.6271 189.027 83.5984 189.157 83.5409C189.287 83.4814 189.388 83.3981 189.459 83.2907C189.53 83.1834 189.565 83.0588 189.565 82.917C189.565 82.7674 189.527 82.6361 189.45 82.5231C189.376 82.4081 189.273 82.318 189.143 82.2528C189.012 82.1857 188.864 82.1522 188.697 82.1522C188.528 82.1522 188.378 82.1847 188.246 82.2499C188.115 82.3151 188.013 82.4052 187.938 82.5202C187.863 82.6352 187.826 82.7674 187.826 82.917C187.826 83.0588 187.861 83.1834 187.932 83.2907C188.003 83.3981 188.104 83.4814 188.234 83.5409C188.365 83.5984 188.519 83.6271 188.697 83.6271ZM188.697 81.6375C188.839 81.6375 188.965 81.6088 189.074 81.5513C189.185 81.4938 189.272 81.4142 189.335 81.3126C189.401 81.211 189.433 81.0922 189.433 80.9561C189.433 80.8219 189.402 80.705 189.338 80.6053C189.277 80.5057 189.191 80.428 189.08 80.3725C188.97 80.3169 188.843 80.2891 188.697 80.2891C188.55 80.2891 188.42 80.3169 188.309 80.3725C188.198 80.428 188.112 80.5057 188.05 80.6053C187.989 80.705 187.958 80.8219 187.958 80.9561C187.958 81.0922 187.99 81.211 188.053 81.3126C188.116 81.4142 188.203 81.4938 188.312 81.5513C188.423 81.6088 188.551 81.6375 188.697 81.6375Z" fill="black"/>
<path d="M219.165 24.9079C218.835 24.9079 218.552 24.8217 218.316 24.6491C218.083 24.4766 217.903 24.2275 217.779 23.9016C217.656 23.5738 217.595 23.1771 217.595 22.7113C217.595 22.2474 217.657 21.8516 217.782 21.5239C217.906 21.1942 218.085 20.9431 218.319 20.7706C218.555 20.5962 218.837 20.5089 219.165 20.5089C219.494 20.5089 219.776 20.5962 220.01 20.7706C220.246 20.9431 220.425 21.1942 220.548 21.5239C220.672 21.8516 220.734 22.2474 220.734 22.7113C220.734 23.1771 220.673 23.5738 220.55 23.9016C220.428 24.2275 220.249 24.4766 220.016 24.6491C219.782 24.8217 219.498 24.9079 219.165 24.9079ZM219.165 24.3559C219.366 24.3559 219.535 24.2917 219.673 24.1632C219.811 24.0348 219.917 23.8479 219.99 23.6026C220.063 23.3553 220.099 23.0582 220.099 22.7113C220.099 22.3624 220.063 22.0654 219.99 21.82C219.917 21.5727 219.811 21.3849 219.673 21.2565C219.535 21.1261 219.366 21.061 219.165 21.061C218.867 21.061 218.637 21.2057 218.475 21.4951C218.314 21.7826 218.233 22.188 218.233 22.7113C218.233 23.0582 218.269 23.3553 218.342 23.6026C218.415 23.8479 218.521 24.0348 218.659 24.1632C218.798 24.2917 218.967 24.3559 219.165 24.3559ZM222.644 20.5061C222.835 20.508 223.023 20.5434 223.207 20.6124C223.393 20.6795 223.561 20.7907 223.71 20.946C223.862 21.1012 223.982 21.3111 224.072 21.5756C224.163 21.8382 224.208 22.166 224.208 22.5589C224.208 22.9327 224.17 23.2652 224.095 23.5566C224.021 23.8479 223.912 24.0942 223.771 24.2955C223.631 24.4968 223.461 24.6501 223.262 24.7555C223.062 24.859 222.839 24.9108 222.592 24.9108C222.337 24.9108 222.11 24.86 221.91 24.7584C221.711 24.6568 221.55 24.5178 221.427 24.3415C221.305 24.1632 221.227 23.9591 221.194 23.7291H221.833C221.875 23.9112 221.96 24.0597 222.089 24.1747C222.219 24.2878 222.387 24.3444 222.592 24.3444C222.904 24.3444 223.148 24.2073 223.322 23.9332C223.498 23.6591 223.588 23.2767 223.589 22.7861H223.558C223.483 22.9068 223.392 23.0113 223.285 23.0994C223.177 23.1857 223.057 23.2518 222.922 23.2978C222.788 23.3438 222.646 23.3668 222.497 23.3668C222.248 23.3668 222.022 23.3065 221.818 23.1857C221.615 23.0649 221.454 22.8991 221.335 22.6883C221.216 22.4755 221.156 22.2331 221.154 21.9609C221.156 21.6887 221.218 21.4424 221.341 21.222C221.466 21.0016 221.639 20.8271 221.861 20.6987C222.084 20.5684 222.344 20.5042 222.644 20.5061ZM222.646 21.0523C222.483 21.0523 222.337 21.0926 222.206 21.1731C222.076 21.2536 221.974 21.3619 221.899 21.498C221.824 21.6341 221.787 21.7855 221.787 21.9523C221.787 22.119 221.822 22.2695 221.893 22.4037C221.966 22.5378 222.067 22.6452 222.195 22.7257C222.323 22.8043 222.469 22.8436 222.632 22.8436C222.797 22.8436 222.944 22.8023 223.075 22.7199C223.207 22.6356 223.312 22.5254 223.391 22.3893C223.47 22.2513 223.509 22.1027 223.509 21.9436C223.509 21.7865 223.472 21.6398 223.397 21.5037C223.322 21.3677 223.219 21.2584 223.089 21.176C222.961 21.0936 222.813 21.0523 222.646 21.0523Z" fill="black"/>
<path d="M235.341 20.5664V24.8504H234.702V21.2162H234.674L233.656 21.8861V21.2651L234.72 20.5664H235.341ZM237.463 24.9079C237.133 24.9079 236.85 24.8217 236.614 24.6491C236.381 24.4766 236.201 24.2275 236.077 23.9016C235.954 23.5738 235.893 23.1771 235.893 22.7113C235.893 22.2474 235.955 21.8516 236.08 21.5239C236.204 21.1942 236.383 20.9431 236.617 20.7706C236.853 20.5962 237.135 20.5089 237.463 20.5089C237.792 20.5089 238.074 20.5962 238.308 20.7706C238.544 20.9431 238.723 21.1942 238.846 21.5239C238.97 21.8516 239.032 22.2474 239.032 22.7113C239.032 23.1771 238.971 23.5738 238.848 23.9016C238.726 24.2275 238.547 24.4766 238.314 24.6491C238.08 24.8217 237.796 24.9079 237.463 24.9079ZM237.463 24.3559C237.664 24.3559 237.833 24.2917 237.971 24.1632C238.11 24.0348 238.215 23.8479 238.288 23.6026C238.361 23.3553 238.397 23.0582 238.397 22.7113C238.397 22.3624 238.361 22.0654 238.288 21.82C238.215 21.5727 238.11 21.3849 237.971 21.2565C237.833 21.1261 237.664 21.061 237.463 21.061C237.166 21.061 236.935 21.2057 236.773 21.4951C236.612 21.7826 236.531 22.188 236.531 22.7113C236.531 23.0582 236.567 23.3553 236.64 23.6026C236.713 23.8479 236.819 24.0348 236.957 24.1632C237.096 24.2917 237.265 24.3559 237.463 24.3559Z" fill="black"/>
<path d="M8.31346 31.007C7.98377 31.007 7.70105 30.9207 7.46529 30.7482C7.23145 30.5757 7.05223 30.3265 6.92764 30.0007C6.80497 29.6729 6.74363 29.2761 6.74363 28.8104C6.74363 28.3465 6.80593 27.9507 6.93052 27.6229C7.0551 27.2932 7.23432 27.0421 7.46817 26.8696C7.70393 26.6952 7.98569 26.608 8.31346 26.608C8.64314 26.608 8.9249 26.6952 9.15875 26.8696C9.39451 27.0421 9.57373 27.2932 9.6964 27.6229C9.82099 27.9507 9.88328 28.3465 9.88328 28.8104C9.88328 29.2761 9.82195 29.6729 9.69927 30.0007C9.5766 30.3265 9.39834 30.5757 9.1645 30.7482C8.93065 30.9207 8.64697 31.007 8.31346 31.007ZM8.31346 30.4549C8.51472 30.4549 8.68435 30.3907 8.82236 30.2623C8.96036 30.1339 9.06578 29.947 9.13862 29.7017C9.21146 29.4544 9.24788 29.1573 9.24788 28.8104C9.24788 28.4615 9.21146 28.1644 9.13862 27.9191C9.06578 27.6718 8.96036 27.484 8.82236 27.3555C8.68435 27.2252 8.51472 27.16 8.31346 27.16C8.01636 27.16 7.78635 27.3047 7.62342 27.5942C7.46242 27.8817 7.38191 28.2871 7.38191 28.8104C7.38191 29.1573 7.41833 29.4544 7.49117 29.7017C7.564 29.947 7.66943 30.1339 7.80743 30.2623C7.94736 30.3907 8.11603 30.4549 8.31346 30.4549ZM11.9304 26.6655V30.9495H11.2921V27.3153H11.2633L10.2455 27.9852V27.3642L11.3094 26.6655H11.9304Z" fill="black"/>
<circle cx="15.6826" cy="29.4346" r="1.30695" fill="black"/>
<circle cx="15.6826" cy="75.6133" r="1.30695" fill="black"/>
<circle cx="75.3674" cy="63.4152" r="1.30695" fill="black"/>
<circle cx="84.5147" cy="29.4346" r="1.30695" fill="black"/>
<circle cx="94.9703" cy="64.7221" r="1.30695" fill="black"/>
<circle cx="94.9703" cy="75.6133" r="1.30695" fill="black"/>
<circle cx="174.696" cy="62.1084" r="1.30695" fill="black"/>
<circle cx="187.328" cy="62.1084" r="1.30695" fill="black"/>
<circle cx="220.435" cy="30.306" r="1.30695" fill="black"/>
<circle cx="236.557" cy="29.4346" r="1.30695" fill="black"/>
</svg>
