<svg width="1339" height="553" viewBox="0 0 1339 553" fill="none" xmlns="http://www.w3.org/2000/svg">
<path d="M23.3365 69.0259C69.0046 75.1127 89.584 102.58 144.475 144.157C190.17 178.767 210.481 210.069 244.06 223.069C277.639 236.069 304.512 238.41 343.997 238.409C351.497 238.409 371.984 238.409 396.497 234.183C431.185 228.202 425.497 227.183 444.997 223.069C464.077 219.044 520.805 205.69 571.497 152.33C599.497 122.856 630.497 65.1827 663.496 59.7425C722.237 50.0585 838.997 75.6826 914.474 152.33C954.072 192.541 1135.28 211.913 1161.45 185.395C1187.63 158.877 1191.4 98.4868 1143.33 110.231C1105.22 119.539 1105.87 198.841 1146.21 213.279C1227.17 242.257 1331.72 239.495 1379.86 195.155C1418.38 159.683 1484.06 80.6312 1509 48.6651" stroke="#131313" stroke-width="1.5" stroke-linecap="round"/>
<ellipse cx="420.594" cy="228.509" rx="4.29495" ry="4" transform="rotate(4.52461 420.594 228.509)" fill="#131313"/>
<ellipse cx="156.594" cy="152.509" rx="4.29495" ry="4" transform="rotate(4.52461 156.594 152.509)" fill="#131313"/>
<ellipse cx="844.065" cy="95.0968" rx="4.29495" ry="4" transform="rotate(4.52461 844.065 95.0968)" fill="#131313"/>
<ellipse cx="1228.47" cy="231.848" rx="4.29495" ry="4" transform="rotate(4.52461 1228.47 231.848)" fill="#131313"/>
</svg>
