<svg width="1298" height="758" viewBox="0 0 1298 758" fill="none" xmlns="http://www.w3.org/2000/svg">
<ellipse cx="79.5586" cy="346.577" rx="3.5" ry="4" fill="#131313"/>
<path d="M35.8368 89.9099C84.3199 39.8454 152.864 1.57666 231.315 1.57666C264.365 1.57666 293.838 4.47282 315.56 27.0767C328.349 40.3854 335.851 54.2412 335.851 72.734C338.758 146.265 296.06 152.577 215.56 212.077C165.06 245.577 83.2916 339.802 55.0596 374.077C21.7712 414.49 -11.126 483.088 5.41468 533.757C28.2802 603.8 126.769 617.455 200.407 617.455C215.996 617.455 231.585 617.455 247.173 617.455C264.78 617.455 281.47 610.097 297.661 604.641C410.239 559.595 463.06 511.577 455.06 364.577M448.56 303.577C443.06 218.577 483.466 102.953 537.802 71.3708C572.416 51.2508 614.805 53.1044 654.959 53.1044C691.266 53.1044 707.609 62.4852 729.073 86.3656C759.625 120.358 745.56 160.577 745.56 160.577C745.56 160.577 729.073 223.077 706.06 254.077M548.56 498.077C502.56 554.077 484.686 641.577 521.296 678.798C563.218 708.417 617.534 707.884 669.199 705.652C715.367 703.658 755.696 677.651 793.315 658.078C814.363 647.126 829.838 623.991 847.06 608.577C873.298 585.092 871.54 590.53 884.06 560.577C941.56 479.577 938.56 412.077 938.56 346.077M1297.06 619.909C1297.06 636.653 1279.2 651.865 1263.08 659.713C1221.86 679.774 1168.72 688.497 1151.42 641.447C1129.76 582.543 1206.87 518.577 1232.64 479.577C1265.38 437.577 1265.02 424.577 1278.81 389.077C1294.53 348.577 1292.81 279.577 1288.06 247.577C1277.96 179.577 1247.32 134.328 1183.56 95.0767C1148.13 73.2633 1125.06 64.5767 1075.56 64.5767C993.584 78.2083 942.06 136.577 938.56 242.577M608.56 401.577C647.823 359.725 649.56 355.577 678.06 309.577" stroke="#131313" stroke-width="1.5" stroke-linecap="round"/>
<ellipse cx="35.9573" cy="90.5767" rx="3.75808" ry="4" fill="#131313"/>
<ellipse cx="149.355" cy="615.577" rx="4.29495" ry="4" fill="#131313"/>
<circle cx="515.061" cy="86.5767" r="4" fill="#131313"/>
<ellipse cx="739.791" cy="685.577" rx="4.29495" ry="4" fill="#131313"/>
<ellipse cx="1076.36" cy="65.5767" rx="4.29495" ry="4" fill="#131313"/>
<ellipse cx="1278.81" cy="389.577" rx="4.29495" ry="4" fill="#131313"/>
<ellipse cx="1283.1" cy="647.577" rx="4.29495" ry="4" fill="#131313"/>
</svg>
