<svg width="752" height="208" viewBox="0 0 752 208" fill="none" xmlns="http://www.w3.org/2000/svg">
<path fill-rule="evenodd" clip-rule="evenodd" d="M188.262 70.6478C188.581 71.5534 188.658 72.4405 188.535 73.2752C188.885 73.5259 189.17 73.9892 189.286 74.6847C189.315 74.8542 189.342 75.0248 189.367 75.1963L189.373 75.237C189.456 75.7981 189.524 76.3692 189.576 76.9492C189.66 77.8819 188.906 78.6609 187.97 78.6609C187.083 78.6609 186.353 77.96 186.337 77.0732L186.335 76.9795C185.053 78.0224 183.343 78.661 181.516 78.661H165.78C163.25 78.661 161.193 76.5181 161.742 74.049C162.012 72.8352 162.36 71.7003 162.78 70.6478C164.555 66.194 167.612 63.2142 171.475 61.9545C172.818 61.5167 174.258 61.2867 175.776 61.2748C175.817 61.2744 175.859 61.2743 175.9 61.2743C177.491 61.2743 178.936 61.5113 180.24 61.9545C184.143 63.281 186.781 66.4546 188.262 70.6478ZM170.391 87.3543H195.368L196.122 90.6256L176.968 102.886C172.001 101.991 167.607 99.4568 164.786 95.3675C162.193 91.61 165.826 87.3543 170.391 87.3543ZM198.147 99.403L196.122 90.6256L201.233 87.3543H201.774C202.367 87.3543 202.899 87.0703 203.239 86.6277C203.412 86.4024 203.535 86.136 203.591 85.845L203.883 85.6582C205.99 97.4564 211.906 106.421 220.558 111.229C222.035 112.05 223.593 112.75 225.225 113.322C228.682 114.533 232.474 115.172 236.548 115.173L236.562 115.173C236.853 115.173 237.143 115.17 237.432 115.164C238.032 115.151 238.626 115.125 239.213 115.086L239.357 115.076C243.887 114.759 248.054 113.67 251.744 111.912C252.09 111.747 252.432 111.576 252.77 111.4L252.866 111.349L252.902 111.33C260.331 107.398 265.669 100.644 267.917 91.9848C268.135 91.1463 268.443 90.3354 268.831 89.5726C268.747 88.684 268.751 87.7934 268.849 86.9224C269.033 85.2964 270.363 84.001 271.999 84.001H298.521C300.158 84.001 301.49 85.2954 301.674 86.9224C301.773 87.7935 301.777 88.683 301.694 89.5697C302.077 90.3296 302.381 91.1373 302.594 91.9729C306.175 106.01 317.635 115.173 332.961 115.173C333.377 115.173 333.791 115.166 334.203 115.152C340.11 114.955 345.637 113.335 350.669 110.179L350.691 110.165L350.712 110.152C350.753 110.126 350.794 110.1 350.835 110.074C350.875 110.049 350.914 110.024 350.953 109.999C351.016 109.959 351.078 109.918 351.14 109.878C352.891 108.739 353.591 106.575 353.088 104.552L352.474 102.203C351.813 99.6745 348.715 98.6792 346.41 99.9036C342.867 101.831 339.264 103.001 335.471 103.215C335.051 103.239 334.628 103.251 334.203 103.251C333.784 103.251 333.37 103.239 332.961 103.216C329.5 103.021 326.42 102.009 323.842 100.315L323.827 100.305C323.446 100.054 323.076 99.7886 322.718 99.5084C318.432 96.1591 315.765 90.7424 315.375 84.001C315.342 83.4308 315.325 82.8511 315.325 82.2624C315.325 77.6088 316.368 73.5193 318.257 70.2159C318.273 70.1884 318.289 70.1612 318.304 70.1342C321.325 64.9118 326.472 61.6743 332.961 61.3089C333.37 61.2859 333.784 61.2743 334.203 61.2743C334.628 61.2743 335.051 61.2863 335.471 61.31C339.254 61.5237 342.847 62.688 346.381 64.6058C348.7 65.8349 351.817 64.835 352.481 62.2926L353.088 59.973C353.591 57.9498 352.891 55.7856 351.14 54.6471C345.983 51.2927 340.295 49.5767 334.203 49.3727C333.791 49.3589 333.377 49.352 332.961 49.352C320.829 49.352 311.12 55.0403 305.824 64.3933L305.784 64.4637C305.272 65.3735 304.801 66.3177 304.374 67.2945C303.627 69.0047 301.999 70.2159 300.132 70.2159H296.941L296.889 70.216L296.836 70.2159H274.298L274.253 70.216L274.209 70.2159H270.664C268.856 70.2159 267.297 68.9937 266.678 67.2945C266.26 66.1439 265.789 65.0436 265.269 63.995C264.721 62.8901 264.118 61.8427 263.461 60.8546C263.336 60.6673 263.21 60.4821 263.082 60.299L263.073 60.287C259.549 55.2623 254.599 51.8527 248.548 50.3032C247.14 49.9427 245.673 49.6829 244.151 49.5268L244.094 49.521C242.978 49.4087 241.834 49.3519 240.661 49.3519C239.56 49.3519 238.484 49.4038 237.432 49.5081C232.076 50.0393 227.352 51.9316 223.26 55.2742C221.403 56.7916 218.284 55.3301 219.155 53.0956C219.658 51.8076 220.226 50.5856 220.859 49.429C224.906 42.032 231.588 37.3072 240.537 35.07L258.673 30.6057C262.059 29.7721 264.169 26.3963 263.433 22.9871C262.662 19.4129 259.076 17.1948 255.534 18.1009L240.661 21.9058C239.592 22.1813 238.544 22.479 237.516 22.7992L237.472 22.8128C224.896 26.7393 215.388 34.0243 209.581 45.133C207.997 48.1626 206.689 51.4766 205.668 55.0844C205.144 56.9377 204.696 58.8685 204.326 60.8781C204.269 61.1874 204.214 61.4986 204.161 61.8117L204.158 61.8251C204.015 62.6707 203.884 63.5299 203.768 64.4028C203.499 66.4114 203.303 68.4927 203.18 70.6478C203.16 70.9939 202.573 71.048 202.483 70.7133L202.465 70.6478C199.071 58.1596 189.593 49.4048 175.9 49.3522L175.776 49.352C162.502 49.352 152.296 57.6362 148.535 70.6478C147.878 72.9198 147.418 75.336 147.172 77.8773C147.034 79.3009 146.964 80.7637 146.964 82.2625C146.964 84.754 147.159 87.1308 147.539 89.3833C147.634 89.9416 147.739 90.4923 147.856 91.0352C147.877 91.1323 147.898 91.229 147.92 91.3256C148.233 92.7262 148.621 94.0743 149.081 95.3675C149.162 95.5969 149.246 95.8246 149.332 96.0506C149.601 96.7571 149.893 97.4465 150.205 98.1184C152.993 104.109 157.488 108.709 163.333 111.613L176.968 102.886C177.878 103.05 178.807 103.159 179.75 103.212C180.202 103.238 180.658 103.251 181.116 103.251C182.425 103.251 183.8 103.135 185.209 102.915C188.467 102.406 191.909 101.342 195.151 99.8638L195.162 99.8586C196.121 99.4212 197.159 99.2819 198.147 99.403ZM123.499 126.518H136.991C137.01 126.518 137.03 126.518 137.049 126.518H145.503C155.389 126.518 163.403 134.532 163.403 144.418V181.224C163.403 185.237 160.15 188.489 156.138 188.489C152.125 188.489 148.873 185.237 148.873 181.224V155.268C148.873 147.346 142.451 140.924 134.529 140.924C126.607 140.924 120.185 147.346 120.185 155.268V181.224C120.185 185.237 116.932 188.489 112.92 188.489C108.907 188.489 105.654 185.237 105.654 181.224V144.418C105.654 134.55 113.639 126.548 123.499 126.518ZM72.7751 113.405V52.4081C72.7751 42.5223 80.7891 34.5083 90.6749 34.5083H120.529C129.54 34.5083 138.815 36.6766 146.256 42.3744C146.52 42.5765 146.78 42.7818 147.036 42.9904C154.88 36.3247 164.868 32.6455 175.776 32.6455C182.78 32.6455 189.278 34.1467 195.031 36.9055C196.386 34.3682 197.909 31.9359 199.606 29.6157C208.747 17.1191 221.728 9.53539 236.489 5.7286L236.504 5.72453L256.68 0.563303C266.516 -1.95284 276.473 4.20638 278.614 14.1307L283.525 36.8994C284.071 39.4346 282.503 41.945 279.984 42.5649L274.897 43.8172C273.459 44.1713 272.959 45.9826 273.933 47.0979C275.688 49.1051 277.231 51.2497 278.575 53.5094H292.903C294.438 51.1738 296.188 48.9715 298.15 46.9271C307.117 37.5843 319.485 32.6455 332.961 32.6455C342.541 32.6455 351.705 35.1833 359.893 40.4127C367.147 35.3828 375.872 32.6455 385.28 32.6455C392.728 32.6455 399.604 34.3432 405.62 37.4455C407.848 35.6104 410.702 34.5083 413.813 34.5083H439.387C441.181 34.5083 442.958 34.2107 444.703 33.7934C447.838 33.0436 451.118 32.6455 454.511 32.6455C462.585 32.6455 469.777 34.7495 475.89 38.4037C478.497 35.9862 481.988 34.5083 485.824 34.5083H518.963C524.357 34.5083 529.846 35.2852 534.979 37.131C536.963 35.4926 539.508 34.5083 542.282 34.5083H577.123C578.019 34.5083 578.746 35.2349 578.746 36.1311C578.746 37.7367 580.828 38.3672 581.719 37.0313L582.752 35.482C583.157 34.8737 583.84 34.5083 584.571 34.5083H591.661C593.834 34.5083 590.163 34.5083 591.661 34.5083C596.529 34.5083 588.288 34.5083 591.661 34.5083C594.23 34.5083 611.209 34.5083 613.874 34.5083H616.313C618.791 34.5083 620.979 35.7487 622.29 37.6424C628.973 34.3472 636.502 32.6455 644.412 32.6455C655.786 32.6455 666.573 36.2224 675.837 43.6336C680.988 47.7547 683.232 54.5213 681.564 60.9038L677.165 77.7362C676.389 80.7039 676.389 83.8211 677.165 86.7888L681.564 103.621C682.091 105.637 682.227 107.691 682.006 109.688H690.936H701.801C702.856 109.688 703.828 110.257 704.345 111.177C705.459 113.164 708.318 113.164 709.432 111.177C709.948 110.257 710.921 109.688 711.976 109.688H732.379C746.2 109.688 754.807 124.685 747.834 136.618L741.614 147.262C738.309 152.918 738.357 159.928 741.741 165.538L749.288 178.052C756.483 189.982 747.892 205.196 733.96 205.196H712.606C711.398 205.196 710.287 204.537 709.707 203.478C708.457 201.193 705.169 201.199 703.91 203.48C703.326 204.536 702.213 205.196 701.006 205.196H690.74H658.856H622.991L622.941 205.196H584.989C584.085 205.196 583.351 204.462 583.351 203.558C583.351 201.942 581.26 201.302 580.355 202.64L579.288 204.218C578.875 204.83 578.186 205.196 577.448 205.196H570.12C567.978 205.196 551.028 205.196 548.293 205.196C543.126 205.196 543.361 205.196 548.293 205.196C543.69 205.196 550.919 205.196 548.293 205.196H545.783L545.737 205.196H479.647C477.773 205.196 476.017 204.689 474.509 203.804C468.288 205.948 461.659 207.059 455.33 207.059C446.392 207.059 437.809 205.148 430.308 201.155C427.771 203.654 424.29 205.196 420.448 205.196H390.211C388.192 205.196 386.556 203.56 386.556 201.542V199.519C386.556 196.537 382.227 195.006 379.898 196.867C372.082 203.113 362.401 205.196 353.09 205.196H344.967C343.848 205.196 342.778 204.998 341.789 204.638L403.283 181.766C403.56 185.526 406.698 188.489 410.528 188.489C414.523 188.489 417.765 185.265 417.793 181.276V176.37L425.825 173.382C426.819 175.502 428.029 177.447 429.436 179.204L429.496 179.278C435.212 186.361 444.175 190.352 455.33 190.352C455.784 190.352 456.239 190.344 456.696 190.328C463.013 190.105 469.488 188.358 474.711 185.555L474.746 185.537C475.218 185.282 475.68 185.02 476.131 184.749L476.189 184.713L476.262 184.669L476.323 184.632C478.014 183.599 478.747 181.604 478.406 179.671C478.395 179.611 478.384 179.552 478.371 179.493C478.364 179.457 478.356 179.422 478.348 179.387C478.34 179.353 478.331 179.319 478.323 179.285L477.572 176.316C477.023 174.146 474.47 173.171 472.479 174.196C468.749 176.115 464.639 177.493 460.789 178.094C459.379 178.314 458.004 178.43 456.696 178.43C456.238 178.43 455.782 178.417 455.33 178.392C449.244 178.046 443.704 175.385 440.365 170.547C439.851 169.802 439.582 169.037 439.516 168.29L454.993 162.534H474.397L474.436 162.534H477.354C478.19 162.534 478.905 161.968 479.131 161.19C479.163 161.078 479.186 160.963 479.197 160.844C479.302 159.732 479.408 158.605 479.421 157.429C479.422 157.351 479.423 157.272 479.423 157.193C479.44 155.938 479.405 154.701 479.32 153.486L486.186 150.932V181.224C486.186 185.237 489.439 188.489 493.451 188.489C497.464 188.489 500.717 185.237 500.717 181.224V174.89C500.717 167.38 506.805 161.292 514.315 161.292H518.29C525.8 161.292 531.888 167.38 531.888 174.89V181.224C531.888 185.237 535.141 188.489 539.154 188.489C543.166 188.489 546.419 185.237 546.419 181.224V134.309V133.659C546.419 131.942 545.823 130.365 544.828 129.121L545.615 128.829C544.69 127.366 543.058 126.394 541.2 126.394H539.18C541.465 126.402 543.501 127.465 544.828 129.121L531.888 133.934V133.659C531.888 129.655 535.127 126.408 539.128 126.394H533.7C532.699 126.394 531.888 127.205 531.888 128.205V129.474C531.888 129.774 531.645 130.017 531.345 130.017C531.045 130.017 530.802 129.774 530.802 129.474V129.102C527.637 129.73 524.405 130.017 521.199 130.017H502.528C501.527 130.017 500.716 129.206 500.716 128.205C500.716 127.205 499.906 126.394 498.905 126.394H493.451H487.997C486.997 126.394 486.186 127.205 486.186 128.205C486.186 129.206 485.375 130.017 484.375 130.017H478.698C476.509 130.017 474.539 129.078 473.17 127.58C469.839 129.193 465.984 128.267 462.581 126.779C467.589 128.969 471.608 132.652 474.463 137.362C476.007 139.909 477.21 142.755 478.045 145.827L478.063 145.892C478.417 147.205 478.704 148.559 478.922 149.948C478.968 150.241 479.01 150.535 479.05 150.83C479.081 151.063 479.111 151.296 479.138 151.531C479.197 152.031 479.246 152.536 479.287 153.045C479.294 153.13 479.3 153.215 479.307 153.3L479.313 153.385L479.32 153.486L454.993 162.534H445.971C442.311 162.534 439.25 165.269 439.516 168.29L425.825 173.382C425.396 172.469 425.008 171.524 424.66 170.547C423.991 168.666 423.475 166.669 423.119 164.563C422.74 162.318 422.545 159.951 422.543 157.469C422.529 158.418 421.768 159.202 420.816 159.202H420.139C418.844 159.202 417.793 158.151 417.793 156.855L417.793 145.507V176.37L403.283 181.766C403.27 181.587 403.263 181.407 403.263 181.224V158.04C403.258 158.682 402.735 159.202 402.092 159.202C401.445 159.202 400.92 158.677 400.92 158.03V142.315C398.706 139.288 395.127 137.323 391.09 137.323H379.752C379.429 137.323 379.164 137.582 379.158 137.905C379.121 139.648 379.084 141.43 379.038 143.225C378.808 152.26 378.367 161.616 376.761 167.829C376.365 169.363 376.035 170.916 375.768 172.477C375.008 176.91 373.182 180.452 370.341 183.067C367.291 185.875 363.071 187.612 357.747 188.232L357.735 188.234L357.628 188.246C357.17 188.298 356.703 188.341 356.228 188.377C354.551 188.501 353.227 187.053 353.365 185.379L353.367 185.361L353.765 180.854C354.057 177.557 356.912 175.243 359.54 173.112L359.543 173.109C359.687 172.993 359.83 172.876 359.973 172.76C360.085 172.669 360.197 172.578 360.307 172.487C361.379 171.605 362.262 170.442 362.987 169.03C363.478 168.075 363.896 167.006 364.254 165.833C364.982 163.442 365.455 160.617 365.76 157.442L365.774 157.301C366.165 153.144 366.272 148.391 366.288 143.225C366.294 141.225 366.286 139.164 366.276 137.051L366.27 135.759L431.039 127.76V116.61L431.039 116.562L431.039 116.513V113.715L431.039 113.697L431.039 113.679V111.542L431.039 111.53V106.353C431.039 104.801 433.351 104.147 434.333 105.349C436.444 107.93 438.931 110.077 441.69 111.699C443.591 112.816 445.621 113.684 447.746 114.272L447.765 114.278C447.8 114.288 447.835 114.297 447.87 114.307C448.49 114.475 449.118 114.62 449.753 114.74L449.792 114.747L449.807 114.75L449.859 114.76L449.912 114.77C450.389 114.857 450.871 114.93 451.355 114.989C452.352 115.111 453.363 115.173 454.387 115.173L454.519 115.173L454.598 115.172L454.724 115.171C456.405 115.15 458.044 114.97 459.632 114.64C463.387 113.861 466.849 112.244 469.868 109.912L469.879 109.903L469.89 109.894C472.006 108.255 473.903 106.263 475.53 103.96L475.579 103.89C479.502 98.301 481.833 90.8946 481.833 82.2625C481.833 73.6158 479.494 66.199 475.57 60.6072L475.53 60.5493C470.549 53.4868 463.032 49.352 454.511 49.352C452.902 49.352 451.325 49.5019 449.792 49.7916C449.101 49.9223 448.418 50.0814 447.746 50.268C446.801 50.5302 445.876 50.8466 444.973 51.2148C440.88 52.8843 437.246 55.6176 434.333 59.1773C433.35 60.3788 431.039 59.7251 431.039 58.1727V53.8011C431.039 52.3728 429.881 51.2148 428.453 51.2148H424.333C420.629 51.2148 417.627 54.2173 417.627 57.9211L417.627 116.098V118.165L417.626 118.24V121.275C417.626 122.635 417.134 123.931 416.253 124.895C416.793 124.48 417.627 124.866 417.627 125.623C417.627 126.115 417.228 126.518 416.735 126.518C416.013 126.518 415.595 125.708 416.032 125.133L416.068 125.087C415.698 125.45 415.268 125.758 414.784 125.995C414.065 126.347 413.268 126.518 412.468 126.518H408.36H372.012C368.824 126.539 366.243 129.122 366.254 132.315C366.258 133.474 366.264 134.62 366.27 135.753L366.269 135.655C366.266 135.086 366.263 134.513 366.261 133.937C366.248 131.145 365.643 128.362 364.258 125.99C362.962 125.301 361.699 124.551 360.471 123.737C358.089 125.305 355.622 126.642 353.084 127.751C348.273 129.855 342.886 128.36 337.947 126.578C336.36 126.005 334.696 125.548 332.961 125.212C330.644 124.763 328.201 124.531 325.646 124.531C323.46 124.531 321.354 124.701 319.338 125.031C319.142 125.063 318.945 125.094 318.748 125.125C318.651 125.147 318.554 125.168 318.457 125.186C312.443 126.325 307.266 128.914 303.202 132.688C300.335 135.35 298.022 138.601 296.361 142.348C296.25 142.596 296.143 142.847 296.038 143.101C294.722 146.287 293.865 149.815 293.523 153.63C293.49 154.002 293.338 154.354 293.085 154.629L293.058 154.659C292.516 155.249 292.488 156.146 292.993 156.768L293.214 157.04C293.306 157.154 293.356 157.296 293.356 157.442C293.356 162.738 294.294 167.561 296.038 171.783C296.401 172.661 296.799 173.513 297.23 174.338C298.977 177.679 301.276 180.576 304.05 182.952C307.611 186.003 311.955 188.196 316.913 189.369C318.837 189.824 320.624 190.797 321.87 192.331C325.98 197.393 322.521 204.912 316.11 205.188C315.989 205.193 315.867 205.196 315.745 205.196H273.843C273.32 205.196 272.826 204.954 272.505 204.54L271.561 203.319C270.882 202.442 269.476 202.922 269.476 204.032C269.476 204.675 268.955 205.196 268.312 205.196H237.472C233.297 205.196 229.525 203.47 226.831 200.692C219.358 204.929 210.709 207.059 201.605 207.059C192.338 207.059 183.533 204.853 175.956 200.469C173.196 203.38 169.291 205.196 164.962 205.196H106.848C96.9687 205.196 88.9589 197.193 88.9479 187.316C87.5451 189.315 85.9756 191.211 84.2387 192.986C75.0821 202.344 62.543 207.059 48.9961 207.059C35.4555 207.059 22.9038 202.35 13.7235 193.018C4.56326 183.708 0 171.061 0 157.442C0 143.822 4.56326 131.176 13.7235 121.865C22.9038 112.534 35.4555 107.825 48.9961 107.825C57.5184 107.825 65.6418 109.691 72.7751 113.405ZM107.33 113.31C97.4677 113.282 89.4816 105.279 89.4816 95.4103V69.1146C89.4816 59.2288 97.4956 51.2148 107.381 51.2148H120.529C132.85 51.2148 140.958 56.8693 141.815 65.9783C141.865 66.5099 141.89 67.0533 141.89 67.608C141.89 67.9441 141.881 68.2753 141.862 68.6015C141.683 71.7071 140.656 74.3587 138.891 76.4839C138.886 76.4897 138.881 76.4956 138.876 76.5015C138.252 77.2501 137.536 77.9333 136.733 78.5477C135.598 79.4158 135.655 81.4979 136.862 82.2625C137.717 82.8046 138.507 83.4104 139.225 84.0767C139.227 84.0788 139.23 84.081 139.232 84.0832M139.232 84.0832C139.35 84.1931 139.467 84.3046 139.581 84.4178C139.583 84.4199 139.585 84.422 139.588 84.4241M139.588 84.4241C141.578 86.3952 142.974 88.8589 143.654 91.7339C143.79 92.3076 143.897 92.8977 143.974 93.5035C143.986 93.5927 143.997 93.6822 144.007 93.772M144.077 94.5406C144.101 94.873 144.116 95.2098 144.122 95.5509C144.124 95.6745 144.126 95.7987 144.126 95.9235C144.126 97.1971 144.007 98.4143 143.777 99.5703C142.581 105.567 138.365 109.918 131.982 111.977C132.168 111.917 132.355 111.856 132.542 111.796C135.498 110.838 138.497 109.868 141.592 109.814C141.796 107.169 142.536 104.379 143.235 101.745L143.236 101.742C143.345 101.33 143.454 100.923 143.559 100.52C143.64 100.208 143.713 99.8914 143.777 99.5703C144.007 98.4143 144.126 97.1971 144.126 95.9235C144.126 95.7369 144.123 95.5516 144.118 95.3675C144.11 95.089 144.097 94.8133 144.077 94.5406ZM502.288 144.943L486.186 150.932V133.659C486.186 129.647 489.439 126.394 493.451 126.394C497.464 126.394 500.717 129.647 500.717 133.659V138.875C500.717 141.078 501.287 143.147 502.288 144.943ZM502.288 144.943C504.421 148.769 508.507 151.356 513.198 151.356H519.407C526.3 151.356 531.888 145.768 531.888 138.875V133.934L502.288 144.943ZM203.613 85.7053L195.368 87.3543L195.393 87.3543H201.233L203.591 85.845C203.6 85.799 203.607 85.7524 203.613 85.7053ZM203.613 85.7053L203.882 85.6515C203.853 85.5085 203.631 85.5177 203.617 85.6645C203.616 85.6781 203.614 85.6917 203.613 85.7053ZM198.147 99.403L200.5 109.6C200.581 109.551 200.663 109.502 200.743 109.453C202.547 108.351 203.261 106.155 202.743 104.106L202.472 103.032L202.463 103C201.929 100.949 200.139 99.647 198.147 99.403ZM176.447 135.587C177.611 134.156 178.905 132.847 180.317 131.672C184.514 128.178 189.763 125.854 195.801 124.952C197.663 124.674 199.6 124.531 201.605 124.531L201.674 124.531C206.028 124.538 210.056 125.219 213.684 126.498C215.323 127.076 216.88 127.776 218.348 128.591C221.189 130.167 223.697 132.175 225.821 134.561L225.872 134.619C230.909 140.31 233.77 148.147 233.77 157.442C233.77 163.447 232.576 168.843 230.372 173.445C230.259 173.682 230.143 173.916 230.025 174.148C229.273 175.62 228.416 177.007 227.459 178.302L227.405 178.375C221.785 185.933 212.758 190.352 201.605 190.352C189.574 190.352 179.969 185.21 174.457 176.532C171.149 171.326 169.316 164.847 169.316 157.442C169.316 156.825 169.328 156.214 169.354 155.61C169.688 147.621 172.213 140.792 176.447 135.587ZM246.074 126.394L246.063 126.394L246.052 126.394C242.376 126.4 239.393 129.364 239.357 133.033V181.85C239.393 185.523 242.382 188.489 246.063 188.489C249.767 188.489 252.77 185.487 252.77 181.783V177.251C252.77 175.055 253.599 172.94 255.091 171.328C258.751 167.375 265.086 167.655 268.383 171.916L279.353 186.09C280.524 187.603 282.329 188.489 284.243 188.489C289.449 188.489 292.325 182.449 289.043 178.408L272.479 158.008C272.188 157.65 271.751 157.442 271.289 157.442C269.954 157.442 269.258 155.854 270.161 154.871L286.511 137.1C290.276 133.008 287.373 126.394 281.813 126.394C280.006 126.394 278.283 127.16 277.072 128.503L266.828 139.864C261.879 145.352 252.77 141.851 252.77 134.461V133.1C252.77 129.4 249.773 126.4 246.074 126.394ZM278.332 109.688C280.088 106.866 281.541 103.859 282.683 100.708H287.813C288.938 103.854 290.366 106.861 292.095 109.688H278.332ZM220.058 88.5516L220.059 88.5548C222.108 96.6132 228.165 102.131 236.562 102.487C236.849 102.499 237.139 102.506 237.432 102.506C248.322 102.506 255.389 93.9971 255.439 82.3867L255.439 82.2625C255.439 77.6776 254.347 73.5714 252.359 70.2754C249.803 66.0376 245.765 63.1387 240.661 62.2824C239.627 62.109 238.549 62.0194 237.432 62.0194C236.162 62.0194 234.943 62.1351 233.779 62.3578C232.003 62.6978 230.357 63.2872 228.86 64.0957C227.185 65 225.698 66.1783 224.424 67.5879C224.021 68.0331 223.64 68.5014 223.282 68.9914C221.58 71.3147 220.378 74.1266 219.765 77.2839C219.475 78.7801 219.317 80.3539 219.301 81.9901L219.301 82.0141C219.301 82.0424 219.3 82.0707 219.3 82.0989C219.3 82.1407 219.3 82.1826 219.3 82.2244L219.3 82.2625C219.3 84.4791 219.559 86.5837 220.055 88.539L220.058 88.5516ZM238.222 85.2866C238.082 85.6021 237.777 85.7991 237.432 85.7991C237.09 85.7991 236.9 85.7581 236.823 85.7358C236.821 85.7351 236.818 85.7339 236.816 85.7324L236.814 85.7298C236.745 85.6514 236.006 84.7171 236.006 82.2625C236.006 79.8078 236.745 78.8735 236.814 78.7951C236.816 78.7923 236.819 78.7902 236.823 78.7891C236.9 78.7668 237.09 78.7259 237.432 78.7259C237.777 78.7259 238.082 78.9229 238.222 79.2383C238.451 79.7581 238.733 80.713 238.733 82.2625C238.733 83.812 238.451 84.7668 238.222 85.2866ZM236.79 85.7252C236.779 85.7212 236.779 85.7202 236.788 85.7243L236.79 85.7252ZM562.49 126.394C558.477 126.394 555.225 129.647 555.225 133.659V134.309V178.999C555.225 184.241 559.474 188.49 564.715 188.49C567.866 188.49 570.812 186.925 572.577 184.314L580.838 172.092C586.642 163.505 600.057 167.613 600.057 177.978V181.224C600.057 185.237 603.31 188.49 607.323 188.49C611.316 188.49 614.557 185.268 614.588 181.281V135.794C614.553 130.597 610.329 126.394 605.123 126.394H603.954C601.52 126.394 599.248 127.612 597.881 129.626C596.156 132.169 594.148 135.091 591.996 138.208C590.776 139.973 589.511 141.8 588.224 143.657C587.64 144.499 587.052 145.346 586.461 146.197L584.906 148.438L583.351 150.679C579.162 156.716 575.076 162.614 571.931 167.25C571.276 168.216 569.755 167.753 569.755 166.585V133.659C569.755 129.647 566.502 126.394 562.49 126.394ZM371.083 110.668L371.055 110.651C368.5 109.155 366.238 107.308 364.303 105.14C361.762 102.29 359.786 98.8858 358.454 94.993C358.255 94.4118 358.071 93.8198 357.901 93.217C356.96 89.8797 356.468 86.2156 356.468 82.2625C356.468 78.3618 356.945 74.7046 357.844 71.3497C358.01 70.7274 358.191 70.1155 358.387 69.5144C359.654 65.6134 361.518 62.1661 363.88 59.2747C366.057 56.6094 368.658 54.4165 371.607 52.7763L371.63 52.7632C375.61 50.5546 380.222 49.352 385.28 49.352L385.404 49.3522C399.096 49.4048 408.575 58.1596 411.969 70.6478C412.332 71.9811 412.624 73.3569 412.846 74.7692C412.892 75.0615 412.934 75.3555 412.974 75.6509C413.083 76.4632 413.169 77.2869 413.231 78.1209C413.326 79.3959 413.365 80.695 413.347 82.0141C413.347 83.275 413.233 84.479 413.121 85.6646C413.076 86.1402 412.854 86.5628 412.524 86.8663C412.194 87.1698 411.756 87.3543 411.278 87.3543H406.752H379.895C375.33 87.3543 371.697 91.61 374.29 95.3675C377.628 100.206 383.168 102.867 389.254 103.212C389.706 103.238 390.162 103.251 390.62 103.251C391.929 103.251 393.303 103.135 394.713 102.915C398.339 102.349 402.195 101.093 405.748 99.3461L405.78 99.3305C408.091 98.1912 410.999 99.3158 411.662 101.795L411.668 101.818L411.676 101.847L412.247 104.106C412.765 106.155 412.051 108.351 410.247 109.453C409.576 109.863 408.879 110.254 408.16 110.626C403.022 113.282 396.746 114.933 390.62 115.149C390.163 115.165 389.708 115.173 389.254 115.173C388.909 115.173 388.567 115.169 388.227 115.162C384.661 115.082 381.329 114.587 378.265 113.708C376.942 113.329 375.668 112.877 374.448 112.356L374.352 112.315C373.215 111.826 372.125 111.276 371.083 110.668ZM339.797 80.1109C336.939 78.2745 335.256 77.9808 334.203 77.9808C333.478 77.9808 333.148 78.1106 333.079 78.1401C333.02 78.1656 332.999 78.1798 332.952 78.232C332.891 78.2996 332.032 79.3175 332.032 82.2625C332.032 85.2076 332.891 86.2254 332.952 86.293C332.999 86.3453 333.02 86.3595 333.079 86.3849C333.148 86.4144 333.478 86.5443 334.203 86.5443C335.256 86.5443 336.939 86.2505 339.798 84.4139C339.773 83.6997 339.761 82.9824 339.761 82.2625C339.761 81.5429 339.773 80.8256 339.797 80.1109ZM505.815 113.31C495.959 113.31 487.964 105.344 487.916 95.4997V69.0252C487.964 59.1805 495.959 51.2148 505.815 51.2148H518.963C526.966 51.2148 533.192 53.6004 536.807 57.7689L520.156 87.6102C519.968 87.6052 519.777 87.6027 519.584 87.6027H507.227C502.872 87.6027 499.341 91.1334 499.341 95.4888C499.341 99.8442 502.872 103.375 507.227 103.375H511.359L505.815 113.31ZM505.815 113.31L542.441 93.772L542.437 93.7383C542.441 93.7756 542.445 93.8129 542.449 93.8502C542.51 94.4044 542.545 94.9716 542.556 95.5509C542.558 95.6745 542.56 95.7987 542.56 95.9235C542.56 100.981 540.694 105.147 537.345 108.132C536.061 109.277 534.558 110.248 532.858 111.029C532.542 111.175 532.218 111.314 531.888 111.446C528.854 112.661 525.255 113.31 521.199 113.31H505.815ZM511.359 103.375H519.584C520.141 103.375 520.679 103.354 521.199 103.312C526.229 102.908 529.472 100.531 529.637 95.9235C529.642 95.8008 529.644 95.6767 529.644 95.5509C529.644 93.6022 529.131 92.0174 528.178 90.7903C528.128 90.7254 528.076 90.6616 528.023 90.5987C526.422 88.6929 523.7 87.705 520.156 87.6102L511.359 103.375ZM540.296 68.6015C540.315 68.2753 540.324 67.9441 540.324 67.608C540.324 73.5764 541.049 86.4622 542.215 92.3157C541.592 89.1903 540.145 86.5269 538.022 84.4241C537.905 84.3088 537.787 84.1951 537.666 84.0832C535.827 82.3745 535.721 78.4152 537.325 76.4839C539.09 74.3587 540.117 71.7071 540.296 68.6015ZM618.974 61.7279C624.516 53.9709 633.48 49.352 644.412 49.352C644.828 49.352 645.242 49.3589 645.654 49.3727C651.746 49.5767 657.434 51.2927 662.592 54.6471C664.36 55.7972 665.057 57.9939 664.523 60.0347L663.712 63.1383C663.151 65.2866 660.602 66.191 658.68 65.0802C654.872 62.8803 651.008 61.5408 646.922 61.31C646.502 61.2863 646.079 61.2743 645.654 61.2743C645.235 61.2743 644.821 61.2859 644.412 61.3089C633.801 61.9064 626.777 70.1845 626.777 82.2625C626.777 94.3406 633.801 102.619 644.412 103.216C644.821 103.239 645.235 103.251 645.654 103.251C646.079 103.251 646.502 103.239 646.922 103.215C651.008 102.984 654.872 101.645 658.68 99.4448C660.602 98.334 663.151 99.2384 663.712 101.387L664.523 104.49C665.057 106.531 664.36 108.728 662.592 109.878C662.109 110.191 661.623 110.491 661.131 110.776L661.106 110.79L661.077 110.808C660.107 111.367 659.121 111.872 658.117 112.322C656.026 113.26 653.861 113.962 651.631 114.434C651.502 114.462 651.373 114.488 651.243 114.514C649.422 114.877 647.558 115.089 645.654 115.152C645.242 115.166 644.828 115.173 644.412 115.173C641.861 115.173 639.417 114.919 637.099 114.431L637.042 114.419C633.612 113.691 630.458 112.45 627.64 110.76L627.61 110.742L627.579 110.723C624.189 108.679 621.287 105.984 618.978 102.75L618.922 102.671C615.053 97.2128 612.868 90.2314 612.868 82.2625C612.868 74.2453 615.052 67.257 618.918 61.8068L618.974 61.7279ZM606.872 60.6001C606.829 55.4095 602.608 51.2148 597.407 51.2148H596.238C593.804 51.2148 591.532 52.4326 590.166 54.447C588.44 56.9893 586.433 59.9116 584.28 63.0283C583.061 64.7935 581.795 66.6211 580.508 68.4773L579.665 69.6921L578.746 71.0177L577.19 73.2587L575.635 75.4997C571.446 81.5368 567.36 87.4351 564.215 92.0703C563.56 93.0363 562.039 92.5733 562.039 91.406V58.48C562.039 54.4676 558.786 51.2148 554.774 51.2148C550.762 51.2148 547.509 54.4676 547.509 58.48V103.82C547.509 107.82 549.983 111.242 553.485 112.638L562.548 111.519C563.441 110.875 564.228 110.072 564.862 109.134L573.122 96.913C578.926 88.3253 592.342 92.4338 592.342 102.799V106.045C592.342 106.655 592.417 107.247 592.558 107.813L606.872 106.045L594.107 110.793C595.44 112.335 597.409 113.31 599.607 113.31C603.369 113.31 606.462 110.451 606.834 106.788C606.857 106.566 606.87 106.342 606.872 106.115V106.045V60.6001ZM624.881 135.23C627.519 131.69 631.731 129.248 637.483 127.843L637.538 127.829C639.627 127.322 641.919 126.951 644.412 126.714C646.656 126.5 649.063 126.394 651.631 126.394H663.035L663.081 126.394H664.236H664.706C672.073 126.394 678.05 132.35 678.084 139.709V156.502L678.084 156.556V157.834C678.084 166.296 689.22 169.395 693.59 162.148C693.701 161.965 693.804 161.779 693.899 161.589C694.03 161.403 694.157 161.209 694.278 161.008C695.927 158.274 695.951 154.857 694.34 152.101L693.007 149.82L692.977 149.768L684.758 135.703C682.499 131.836 684.972 127.038 689.226 126.453C689.51 126.414 689.802 126.394 690.1 126.394C692.338 126.394 694.402 127.603 695.497 129.555L696.979 132.198C701.319 139.936 712.457 139.936 716.797 132.198L718.28 129.555C719.375 127.603 721.438 126.394 723.676 126.394C728.454 126.394 731.429 131.578 729.019 135.703L721.305 148.903C718.542 153.631 718.583 159.49 721.411 164.178L730.066 178.529C732.706 182.907 729.554 188.489 724.442 188.489C722.042 188.489 719.833 187.18 718.68 185.075L717.192 182.355C712.725 174.193 700.986 174.216 696.488 182.36C694.405 186.133 690.428 188.489 686.118 188.489H675.786C669.785 188.489 664.92 183.624 664.92 177.623V171.696C664.92 168.968 662.708 166.756 659.979 166.756C657.942 166.756 656.113 168.007 655.375 169.907L651.864 178.942C649.627 184.698 644.086 188.489 637.912 188.489H628.408C625.406 188.489 622.97 186.07 622.943 183.074V182.976C622.97 179.98 625.406 177.561 628.408 177.561H633.913C636.612 177.561 639.064 175.987 640.189 173.533L641.965 169.658C642.907 167.602 641.687 165.214 639.506 164.62C639.112 164.513 638.724 164.403 638.343 164.29C635.152 163.347 632.4 162.213 630.101 160.854C629.427 160.456 628.793 160.038 628.197 159.601C627.543 159.12 626.936 158.615 626.377 158.084L626.355 158.063C623.198 155.055 621.577 151.232 621.577 146.389C621.577 146.11 621.582 145.834 621.59 145.561C621.701 141.994 622.537 138.947 624.089 136.403C624.318 136.026 624.564 135.661 624.825 135.306L624.881 135.23ZM651.631 136.214C650.419 136.237 649.28 136.302 648.213 136.408C640.038 137.228 636.108 140.529 636.108 146.389C636.108 150.843 638.566 153.822 643.081 155.419C643.904 155.71 644.795 155.955 645.753 156.155C646.53 156.317 647.35 156.449 648.213 156.552C649.723 156.732 651.361 156.821 653.122 156.821H654.612C660.305 156.821 664.92 152.206 664.92 146.513C664.92 140.82 660.305 136.205 654.612 136.205H652.625C652.288 136.205 651.957 136.208 651.631 136.214ZM441.36 153.84H457.096C461.556 153.84 465.326 150.033 463.841 145.827C462.361 141.634 459.723 138.46 455.82 137.134C454.516 136.691 453.07 136.454 451.48 136.454C451.438 136.454 451.397 136.454 451.355 136.454C449.838 136.466 448.397 136.696 447.055 137.134C444.157 138.079 441.714 139.991 439.924 142.767C439.954 142.721 439.984 142.674 440.015 142.628L440.07 142.545L440.103 142.495L440.161 142.411C442.884 138.425 447.746 141.666 447.746 146.494V148.473C447.746 151.437 445.343 153.84 442.379 153.84C439.296 153.84 436.768 151.217 437.564 148.239C437.478 148.563 437.397 148.892 437.322 149.228C436.772 151.697 438.83 153.84 441.36 153.84ZM338.523 173.062C335.354 176.446 330.947 178.43 325.646 178.43C314.468 178.43 307.265 169.612 307.265 157.442C307.265 145.271 314.468 136.453 325.646 136.453C336.823 136.453 344.026 145.271 344.026 157.442C344.026 158.432 343.978 159.4 343.884 160.343L343.883 160.361C343.369 165.5 341.49 169.891 338.528 173.057L338.523 173.062ZM324.948 161.642C324.936 161.638 324.936 161.637 324.946 161.641L324.948 161.642ZM219.986 157.442C219.986 145.271 212.782 136.453 201.605 136.453C190.428 136.453 183.225 145.271 183.225 157.442C183.225 169.612 190.428 178.43 201.605 178.43C212.782 178.43 219.986 169.612 219.986 157.442ZM202.31 161.619C202.292 161.639 202.269 161.654 202.243 161.661C202.146 161.686 201.945 161.723 201.605 161.723C201.265 161.723 201.064 161.686 200.968 161.661C200.942 161.654 200.918 161.639 200.901 161.619C200.77 161.466 199.932 160.316 199.932 157.442C199.932 154.568 200.77 153.417 200.901 153.265C200.918 153.244 200.942 153.229 200.968 153.222C201.064 153.197 201.265 153.16 201.605 153.16C201.945 153.16 202.146 153.197 202.243 153.222C202.269 153.229 202.292 153.244 202.31 153.265C202.441 153.417 203.279 154.568 203.279 157.442C203.279 160.316 202.441 161.466 202.31 161.619ZM202.309 161.64L202.305 161.641C202.309 161.639 202.312 161.638 202.312 161.638L202.309 161.64ZM202.305 153.242L202.303 153.241C202.315 153.245 202.315 153.246 202.305 153.242ZM200.908 161.642C200.896 161.638 200.896 161.637 200.905 161.641L200.908 161.642ZM48.9961 190.352C29.7465 190.352 16.7065 177.188 16.7065 157.442C16.7065 137.695 29.7465 124.531 48.9961 124.531C68.2456 124.531 81.1615 137.695 81.1615 157.442C81.1615 177.188 68.2456 190.352 48.9961 190.352ZM48.9961 178.43C60.1732 178.43 67.3763 169.612 67.3763 157.442C67.3763 145.271 60.1732 136.454 48.9961 136.454C37.8189 136.454 30.6159 145.271 30.6159 157.442C30.6159 169.612 37.8189 178.43 48.9961 178.43ZM50.6698 157.442C50.6698 160.316 49.8315 161.466 49.7006 161.619C49.6829 161.639 49.6596 161.654 49.6333 161.661C49.5373 161.686 49.3363 161.723 48.9961 161.723C48.6559 161.723 48.4549 161.686 48.3589 161.661C48.3326 161.654 48.3093 161.639 48.2916 161.619C48.1606 161.466 47.3223 160.316 47.3223 157.442C47.3223 154.568 48.1607 153.417 48.2916 153.265C48.3093 153.244 48.3326 153.229 48.3589 153.223C48.4549 153.197 48.6559 153.16 48.9961 153.16C49.3362 153.16 49.5373 153.197 49.6333 153.223C49.6595 153.229 49.6829 153.244 49.7006 153.265C49.8315 153.417 50.6698 154.568 50.6698 157.442ZM48.2893 161.639L48.2907 161.639L48.2962 161.641L48.2988 161.643C48.2921 161.64 48.2893 161.639 48.2893 161.639ZM48.2903 153.244C48.2879 153.246 48.29 153.245 48.2962 153.242L48.2903 153.244ZM49.6935 153.241C49.7054 153.245 49.7057 153.247 49.6959 153.242L49.6935 153.241ZM526.754 71.6321C526.982 71.1658 527.153 70.6615 527.262 70.1197C527.359 69.6426 527.408 69.1364 527.408 68.6015C527.408 68.2591 527.389 67.9279 527.351 67.608C526.9 63.8087 523.811 61.6035 518.963 61.2129C518.483 61.1742 517.986 61.1533 517.473 61.1504L517.349 61.15H506.668C502.622 61.15 499.341 64.4306 499.341 68.4773C499.341 72.524 502.622 75.8046 506.668 75.8046H517.473C518.211 75.8046 518.915 75.7681 519.584 75.6955C523.099 75.3145 525.628 73.9387 526.754 71.6321ZM447.746 103.143C444.852 102.835 442.228 101.874 439.961 100.394C438.7 99.5707 437.549 98.5863 436.524 97.4641C435.901 96.782 435.325 96.0489 434.799 95.2702C434.639 95.0338 434.484 94.7931 434.333 94.5484C432.225 91.1198 431.039 86.8919 431.039 82.2625C431.039 77.5844 432.225 73.3461 434.333 69.9227C434.474 69.6938 434.619 69.4687 434.768 69.2473C435.295 68.465 435.872 67.7297 436.496 67.0461C437.516 65.9288 438.662 64.9498 439.918 64.1307C442.195 62.6464 444.834 61.6869 447.746 61.3805C448.414 61.3102 449.096 61.2743 449.792 61.2743C451.452 61.2743 453.03 61.4824 454.511 61.8787C462.675 64.0625 467.924 71.9615 467.924 82.2625C467.924 92.6157 462.622 100.542 454.387 102.679C452.942 103.054 451.406 103.251 449.792 103.251C449.096 103.251 448.414 103.214 447.746 103.143ZM447.746 82.2625C447.746 79.8616 448.505 78.6843 448.812 78.3355C448.965 78.1607 449.07 78.1055 449.121 78.0822C449.163 78.0632 449.349 77.9808 449.792 77.9808C449.938 77.9808 450.041 77.9905 450.109 78.0009C450.147 78.0067 450.182 78.0259 450.207 78.055C450.386 78.2652 451.218 79.4586 451.218 82.2625C451.218 85.0665 450.386 86.2599 450.207 86.47C450.182 86.4992 450.147 86.5183 450.109 86.5241C450.041 86.5345 449.938 86.5443 449.792 86.5443C449.383 86.5443 449.214 86.4681 449.175 86.4499C449.123 86.426 449.005 86.3632 448.834 86.1687C448.486 85.7718 447.746 84.5692 447.746 82.2625ZM450.218 86.4996C450.218 86.4996 450.214 86.5017 450.202 86.5051C450.211 86.5014 450.218 86.4996 450.218 86.4996ZM375.284 78.661C372.754 78.661 370.696 76.5181 371.246 74.049C371.516 72.8352 371.864 71.7003 372.284 70.6478C374.059 66.194 377.115 63.2142 380.979 61.9545C382.321 61.5167 383.762 61.2867 385.28 61.2748C385.321 61.2744 385.362 61.2743 385.404 61.2743C386.994 61.2743 388.44 61.5113 389.744 61.9545C393.647 63.281 396.285 66.4546 397.766 70.6478C399.25 74.8533 395.48 78.661 391.02 78.661H375.284ZM217.18 61.8601C217.127 61.7184 216.924 61.7417 216.902 61.8912C216.88 62.0432 217.079 62.1266 217.166 62.0002C217.193 61.9613 217.199 61.9121 217.182 61.8678L217.18 61.8601ZM128.828 70.1197C128.719 70.6615 128.548 71.1658 128.32 71.6321C127.194 73.9386 124.665 75.3145 121.15 75.6955C120.481 75.7681 119.777 75.8046 119.039 75.8046H108.234C104.188 75.8046 100.907 72.524 100.907 68.4773C100.907 64.4306 104.188 61.15 108.234 61.15H118.915L119.039 61.1504C119.552 61.1533 120.049 61.1742 120.529 61.2129C125.376 61.6035 128.466 63.8087 128.917 67.608C128.955 67.9279 128.974 68.2591 128.974 68.6015C128.974 69.1364 128.925 69.6426 128.828 70.1197ZM49.6959 161.641C49.7057 161.637 49.7053 161.638 49.6935 161.642L49.6959 161.641ZM100.907 95.4888C100.907 91.1334 104.438 87.6027 108.793 87.6027H121.15C124.974 87.6027 127.903 88.5917 129.589 90.5988C129.642 90.6616 129.694 90.7254 129.744 90.7903C130.047 91.18 130.305 91.6058 130.517 92.0678C130.971 93.0607 131.21 94.2211 131.21 95.5509C131.21 95.6767 131.207 95.8008 131.203 95.9235C131.038 100.531 127.795 102.908 122.765 103.312C122.245 103.354 121.707 103.375 121.15 103.375H118.174H108.793C104.438 103.375 100.907 99.8442 100.907 95.4888Z" fill="black"/>
<path fill-rule="evenodd" clip-rule="evenodd" d="M341.789 204.638L403.283 181.766C403.27 181.587 403.263 181.407 403.263 181.224V158.04C403.258 158.682 402.735 159.202 402.092 159.202C401.445 159.202 400.92 158.677 400.92 158.03V142.315C398.706 139.288 395.127 137.323 391.09 137.323H379.752C379.429 137.323 379.164 137.582 379.158 137.905C379.121 139.648 379.084 141.43 379.038 143.225C378.808 152.26 378.367 161.616 376.761 167.829C376.365 169.363 376.035 170.916 375.768 172.477C375.008 176.91 373.182 180.452 370.341 183.067C367.291 185.875 363.071 187.612 357.747 188.232L357.735 188.234L357.628 188.246C357.17 188.298 356.703 188.341 356.228 188.377C354.551 188.501 353.227 187.053 353.365 185.379L353.367 185.361L353.765 180.854C354.057 177.557 356.912 175.243 359.54 173.112L359.543 173.109C359.687 172.993 359.83 172.876 359.973 172.76C360.085 172.669 360.197 172.578 360.307 172.487C361.379 171.605 362.262 170.442 362.987 169.03C363.478 168.075 363.896 167.006 364.254 165.833C364.982 163.442 365.455 160.617 365.76 157.442L365.774 157.301C366.165 153.144 366.272 148.391 366.288 143.225C366.294 141.225 366.286 139.164 366.276 137.051L366.27 135.759L431.039 127.76V116.61L431.039 116.562L431.039 116.513V113.715L431.039 113.697L431.039 113.679V111.542L431.039 111.53V106.353C431.039 104.801 433.351 104.147 434.333 105.349C436.444 107.93 438.931 110.077 441.69 111.699C443.591 112.816 445.621 113.684 447.746 114.272L447.765 114.278C447.8 114.288 447.835 114.297 447.87 114.307C448.49 114.475 449.118 114.62 449.753 114.74L449.792 114.747L449.807 114.75L449.859 114.76L449.912 114.77C450.389 114.857 450.871 114.93 451.355 114.989C452.352 115.111 453.363 115.173 454.387 115.173L454.519 115.173L454.598 115.172L454.724 115.171C456.405 115.15 458.044 114.97 459.632 114.64C463.387 113.861 466.849 112.244 469.868 109.912L469.879 109.903L469.89 109.894C472.006 108.255 473.903 106.263 475.53 103.96L475.579 103.89C479.502 98.301 481.833 90.8946 481.833 82.2625C481.833 73.6158 479.494 66.199 475.57 60.6072L475.53 60.5493C470.549 53.4868 463.032 49.352 454.511 49.352C452.902 49.352 451.325 49.5019 449.792 49.7916C449.101 49.9223 448.418 50.0814 447.746 50.268C446.801 50.5302 445.876 50.8466 444.973 51.2148C440.88 52.8843 437.246 55.6176 434.333 59.1773C433.35 60.3788 431.039 59.7251 431.039 58.1727V53.8011C431.039 52.3728 429.881 51.2148 428.453 51.2148H424.333C420.629 51.2148 417.627 54.2173 417.627 57.9211L417.627 116.098V118.165L417.626 118.24V121.275C417.626 122.635 417.134 123.931 416.253 124.895C416.793 124.48 417.627 124.866 417.627 125.623C417.627 126.115 417.228 126.518 416.735 126.518C416.013 126.518 415.595 125.708 416.032 125.133L416.068 125.087C415.698 125.45 415.268 125.758 414.784 125.995C414.065 126.347 413.268 126.518 412.468 126.518H408.36H372.012C368.824 126.539 366.243 129.122 366.254 132.315C366.258 133.474 366.264 134.62 366.27 135.753L366.269 135.655C366.266 135.086 366.263 134.513 366.261 133.937C366.248 131.145 365.643 128.362 364.258 125.99C362.962 125.301 361.699 124.551 360.471 123.737C358.089 125.305 355.622 126.642 353.084 127.751C348.273 129.855 342.886 128.36 337.947 126.578C336.36 126.005 334.696 125.548 332.961 125.212C330.644 124.763 328.201 124.531 325.646 124.531C323.46 124.531 321.354 124.701 319.338 125.031C319.142 125.063 318.945 125.094 318.748 125.125C318.651 125.147 318.554 125.168 318.457 125.186C312.443 126.325 307.266 128.914 303.202 132.688C300.335 135.35 298.022 138.601 296.361 142.348C296.25 142.596 296.143 142.847 296.038 143.101C294.722 146.287 293.865 149.815 293.523 153.63C293.49 154.002 293.338 154.354 293.085 154.629L293.058 154.659C292.516 155.249 292.488 156.146 292.993 156.768L293.214 157.04C293.306 157.154 293.356 157.296 293.356 157.442C293.356 162.738 294.294 167.561 296.038 171.783C296.401 172.661 296.799 173.513 297.23 174.338C298.977 177.679 301.276 180.576 304.05 182.952C307.611 186.003 311.955 188.196 316.913 189.369C318.837 189.824 320.624 190.797 321.87 192.331C325.98 197.393 322.521 204.912 316.11 205.188L341.789 204.638ZM338.523 173.062C335.354 176.446 330.947 178.43 325.646 178.43C314.468 178.43 307.265 169.612 307.265 157.442C307.265 145.271 314.468 136.453 325.646 136.453C336.823 136.453 344.026 145.271 344.026 157.442C344.026 158.432 343.978 159.4 343.884 160.343L343.883 160.361C343.369 165.5 341.49 169.891 338.528 173.057L338.523 173.062ZM447.746 103.143C444.852 102.835 442.228 101.874 439.961 100.394C438.7 99.5707 437.549 98.5863 436.524 97.4641C435.901 96.782 435.325 96.0489 434.799 95.2702C434.639 95.0338 434.484 94.7931 434.333 94.5484C432.225 91.1198 431.039 86.8919 431.039 82.2625C431.039 77.5844 432.225 73.3461 434.333 69.9227C434.474 69.6938 434.619 69.4687 434.768 69.2473C435.295 68.465 435.872 67.7297 436.496 67.0461C437.516 65.9288 438.662 64.9498 439.918 64.1307C442.195 62.6464 444.834 61.6869 447.746 61.3805C448.414 61.3102 449.096 61.2743 449.792 61.2743C451.452 61.2743 453.03 61.4824 454.511 61.8787C462.675 64.0625 467.924 71.9615 467.924 82.2625C467.924 92.6157 462.622 100.542 454.387 102.679C452.942 103.054 451.406 103.251 449.792 103.251C449.096 103.251 448.414 103.214 447.746 103.143Z" fill="black"/>
<path d="M417.793 176.37L425.825 173.382C425.396 172.469 425.008 171.524 424.66 170.547C423.991 168.666 423.475 166.669 423.119 164.563C422.74 162.318 422.545 159.951 422.543 157.469C422.529 158.418 421.768 159.202 420.816 159.202H420.139C418.844 159.202 417.793 158.151 417.793 156.855L417.793 145.507V176.37Z" fill="black"/>
<path d="M403.283 181.766C403.56 185.526 406.698 188.489 410.528 188.489C414.523 188.489 417.765 185.265 417.793 181.276V176.37L403.283 181.766Z" fill="black"/>
<path d="M425.825 173.382C426.819 175.502 428.029 177.447 429.436 179.204L429.496 179.278C435.212 186.361 444.175 190.352 455.33 190.352C455.784 190.352 456.239 190.344 456.696 190.328C463.013 190.105 469.488 188.358 474.711 185.555L474.746 185.537C475.218 185.282 475.68 185.02 476.131 184.749L476.189 184.713L476.262 184.669L476.323 184.632C478.014 183.599 478.747 181.604 478.406 179.671C478.395 179.611 478.384 179.552 478.371 179.493C478.364 179.457 478.356 179.422 478.348 179.387C478.34 179.353 478.331 179.319 478.323 179.285L477.572 176.316C477.023 174.146 474.47 173.171 472.479 174.196C468.749 176.115 464.639 177.493 460.789 178.094C459.379 178.314 458.004 178.43 456.696 178.43C456.238 178.43 455.782 178.417 455.33 178.392C449.244 178.046 443.704 175.385 440.365 170.547C439.851 169.802 439.582 169.037 439.516 168.29L425.825 173.382Z" fill="black"/>
<path d="M479.32 153.486L486.186 150.932V133.659C486.186 129.647 489.439 126.394 493.451 126.394H487.997C486.997 126.394 486.186 127.205 486.186 128.205C486.186 129.206 485.375 130.017 484.375 130.017H478.698C476.509 130.017 474.539 129.078 473.17 127.58C469.839 129.193 465.984 128.267 462.581 126.779C467.589 128.969 471.608 132.652 474.463 137.362C476.007 139.909 477.21 142.755 478.045 145.827L478.063 145.892C478.417 147.205 478.704 148.559 478.922 149.948C478.968 150.241 479.01 150.535 479.05 150.83C479.081 151.063 479.111 151.296 479.138 151.531C479.197 152.031 479.246 152.536 479.287 153.045C479.294 153.13 479.3 153.215 479.307 153.3L479.313 153.385L479.32 153.486Z" fill="black"/>
<path d="M457.096 153.84H441.36C438.83 153.84 436.772 151.697 437.322 149.228C437.397 148.892 437.478 148.563 437.564 148.239C436.768 151.217 439.296 153.84 442.379 153.84C445.343 153.84 447.746 151.437 447.746 148.473V146.494C447.746 141.666 442.884 138.425 440.161 142.411L440.103 142.495L440.07 142.545L440.015 142.628C439.984 142.674 439.954 142.721 439.924 142.767C441.714 139.991 444.157 138.079 447.055 137.134C448.397 136.696 449.838 136.466 451.355 136.454C451.397 136.454 451.438 136.454 451.48 136.454C453.07 136.454 454.516 136.691 455.82 137.134C459.723 138.46 462.361 141.634 463.841 145.827C465.326 150.033 461.556 153.84 457.096 153.84Z" fill="black"/>
<path d="M454.993 162.534H474.397L474.436 162.534H477.354C478.19 162.534 478.905 161.968 479.131 161.19C479.163 161.078 479.186 160.963 479.197 160.844C479.302 159.732 479.408 158.605 479.421 157.429C479.422 157.351 479.423 157.272 479.423 157.193C479.44 155.938 479.405 154.701 479.32 153.486L454.993 162.534Z" fill="black"/>
<path d="M439.516 168.29L454.993 162.534H445.971C442.311 162.534 439.25 165.269 439.516 168.29Z" fill="black"/>
<path d="M486.186 150.932V181.224C486.186 185.237 489.439 188.489 493.451 188.489C497.464 188.489 500.717 185.237 500.717 181.224V174.89C500.717 167.38 506.805 161.292 514.315 161.292H518.29C525.8 161.292 531.888 167.38 531.888 174.89V181.224C531.888 185.237 535.141 188.489 539.154 188.489C543.166 188.489 546.419 185.237 546.419 181.224V134.309V133.659C546.419 131.942 545.823 130.365 544.828 129.121L531.888 133.934V138.875C531.888 145.768 526.3 151.356 519.407 151.356H513.198C508.507 151.356 504.421 148.769 502.288 144.943L486.186 150.932Z" fill="black"/>
<path d="M531.888 133.934V133.659C531.888 129.655 535.127 126.408 539.128 126.394H533.7C532.699 126.394 531.888 127.205 531.888 128.205V129.474C531.888 129.774 531.645 130.017 531.345 130.017C531.045 130.017 530.802 129.774 530.802 129.474V129.102C527.637 129.73 524.405 130.017 521.199 130.017H502.528C501.527 130.017 500.716 129.206 500.716 128.205C500.716 127.205 499.906 126.394 498.905 126.394H493.451C497.464 126.394 500.717 129.647 500.717 133.659V138.875C500.717 141.078 501.287 143.147 502.288 144.943L531.888 133.934Z" fill="black"/>
<path d="M555.225 133.659C555.225 129.647 558.477 126.394 562.49 126.394C566.502 126.394 569.755 129.647 569.755 133.659V166.585C569.755 167.753 571.276 168.216 571.931 167.25C575.076 162.614 579.162 156.716 583.351 150.679L584.906 148.438L586.461 146.197C587.052 145.346 587.64 144.499 588.224 143.657C589.511 141.8 590.776 139.973 591.996 138.208C594.148 135.091 596.156 132.169 597.881 129.626C599.248 127.612 601.52 126.394 603.954 126.394H605.123C610.329 126.394 614.553 130.597 614.588 135.794V181.281C614.557 185.268 611.316 188.49 607.323 188.49C603.31 188.49 600.057 185.237 600.057 181.224V177.978C600.057 167.613 586.642 163.505 580.838 172.092L572.577 184.314C570.812 186.925 567.866 188.49 564.715 188.49C559.474 188.49 555.225 184.241 555.225 178.999V134.309V133.659Z" fill="black"/>
<path fill-rule="evenodd" clip-rule="evenodd" d="M637.483 127.843C631.731 129.248 627.519 131.69 624.881 135.23L624.825 135.306C624.564 135.661 624.318 136.026 624.089 136.403C622.537 138.947 621.701 141.994 621.59 145.561C621.582 145.834 621.577 146.11 621.577 146.389C621.577 151.232 623.198 155.055 626.355 158.063L626.377 158.084C626.936 158.615 627.543 159.12 628.197 159.601C628.793 160.038 629.427 160.456 630.101 160.854C632.4 162.213 635.152 163.347 638.343 164.29C638.724 164.403 639.112 164.513 639.506 164.62C641.687 165.214 642.907 167.602 641.965 169.658L640.189 173.533C639.064 175.987 636.612 177.561 633.913 177.561H628.408C625.406 177.561 622.97 179.98 622.943 182.976V183.074C622.97 186.07 625.406 188.489 628.408 188.489H637.912C644.086 188.489 649.627 184.698 651.864 178.942L655.375 169.907C656.113 168.007 657.942 166.756 659.979 166.756C662.708 166.756 664.92 168.968 664.92 171.696V177.623C664.92 183.624 669.785 188.489 675.786 188.489H686.118C690.428 188.489 694.405 186.133 696.488 182.36C700.986 174.216 712.725 174.193 717.192 182.355L718.68 185.075C719.833 187.18 722.042 188.489 724.442 188.489C729.554 188.489 732.706 182.907 730.066 178.529L721.411 164.178C718.583 159.49 718.542 153.631 721.305 148.903L729.019 135.703C731.429 131.578 728.454 126.394 723.676 126.394C721.438 126.394 719.375 127.603 718.28 129.555L716.797 132.198C712.457 139.936 701.319 139.936 696.979 132.198L695.497 129.555C694.402 127.603 692.338 126.394 690.1 126.394C689.802 126.394 689.51 126.414 689.226 126.453C684.972 127.038 682.499 131.836 684.758 135.703L692.977 149.768L693.007 149.82L694.34 152.101C695.951 154.857 695.927 158.274 694.278 161.008C694.157 161.209 694.03 161.403 693.899 161.589C693.804 161.779 693.701 161.965 693.59 162.148C689.22 169.395 678.084 166.296 678.084 157.834V156.556L678.084 156.502V139.709C678.05 132.35 672.073 126.394 664.706 126.394H664.236H663.081L663.035 126.394H651.631C649.063 126.394 646.656 126.5 644.412 126.714C641.919 126.951 639.627 127.322 637.538 127.829L637.483 127.843ZM651.631 136.214C650.419 136.237 649.28 136.302 648.213 136.408C640.038 137.228 636.108 140.529 636.108 146.389C636.108 150.843 638.566 153.822 643.081 155.419C643.904 155.71 644.795 155.955 645.753 156.155C646.53 156.317 647.35 156.449 648.213 156.552C649.723 156.732 651.361 156.821 653.122 156.821H654.612C660.305 156.821 664.92 152.206 664.92 146.513C664.92 140.82 660.305 136.205 654.612 136.205H652.625C652.288 136.205 651.957 136.208 651.631 136.214Z" fill="black"/>
<path d="M606.872 60.6001C606.829 55.4095 602.608 51.2148 597.407 51.2148H596.238C593.804 51.2148 591.532 52.4326 590.166 54.447C588.44 56.9893 586.433 59.9116 584.28 63.0283C583.061 64.7935 581.795 66.6211 580.508 68.4773L579.665 69.6921L578.746 71.0177L577.19 73.2587L575.635 75.4997C571.446 81.5368 567.36 87.4351 564.215 92.0703C563.56 93.0363 562.039 92.5733 562.039 91.406V58.48C562.039 54.4676 558.786 51.2148 554.774 51.2148C550.762 51.2148 547.509 54.4676 547.509 58.48V103.82C547.509 107.82 549.983 111.242 553.485 112.638L562.548 111.519C563.441 110.875 564.228 110.072 564.862 109.134L573.122 96.913C578.926 88.3253 592.342 92.4338 592.342 102.799V106.045C592.342 106.655 592.417 107.247 592.558 107.813L606.872 106.045V60.6001Z" fill="black"/>
<path d="M644.412 49.352C633.48 49.352 624.516 53.9709 618.974 61.7279L618.918 61.8068C615.052 67.257 612.868 74.2453 612.868 82.2625C612.868 90.2314 615.053 97.2128 618.922 102.671L618.978 102.75C621.287 105.984 624.189 108.679 627.579 110.723L627.61 110.742L627.64 110.76C630.458 112.45 633.612 113.691 637.042 114.419L637.099 114.431C639.417 114.919 641.861 115.173 644.412 115.173C644.828 115.173 645.242 115.166 645.654 115.152C647.558 115.089 649.422 114.877 651.243 114.514C651.373 114.488 651.502 114.462 651.631 114.434C653.861 113.962 656.026 113.26 658.117 112.322C659.121 111.872 660.107 111.367 661.077 110.808L661.106 110.79L661.131 110.776C661.623 110.491 662.109 110.191 662.592 109.878C664.36 108.728 665.057 106.531 664.523 104.49L663.712 101.387C663.151 99.2384 660.602 98.334 658.68 99.4448C654.872 101.645 651.008 102.984 646.922 103.215C646.502 103.239 646.079 103.251 645.654 103.251C645.235 103.251 644.821 103.239 644.412 103.216C633.801 102.619 626.777 94.3406 626.777 82.2625C626.777 70.1845 633.801 61.9064 644.412 61.3089C644.821 61.2859 645.235 61.2743 645.654 61.2743C646.079 61.2743 646.502 61.2863 646.922 61.31C651.008 61.5408 654.872 62.8803 658.68 65.0802C660.602 66.191 663.151 65.2866 663.712 63.1383L664.523 60.0347C665.057 57.9939 664.36 55.7972 662.592 54.6471C657.434 51.2927 651.746 49.5767 645.654 49.3727C645.242 49.3589 644.828 49.352 644.412 49.352Z" fill="black"/>
<path d="M542.441 93.772L505.815 113.31H521.199C525.255 113.31 528.854 112.661 531.888 111.446C532.218 111.314 532.542 111.175 532.858 111.029C534.558 110.248 536.061 109.277 537.345 108.132C540.694 105.147 542.56 100.981 542.56 95.9235C542.56 95.7987 542.558 95.6745 542.556 95.5509C542.545 94.9716 542.51 94.4044 542.449 93.8502C542.445 93.8129 542.441 93.7756 542.437 93.7383L542.441 93.772Z" fill="black"/>
<path fill-rule="evenodd" clip-rule="evenodd" d="M487.916 95.4997C487.964 105.344 495.959 113.31 505.815 113.31L511.359 103.375H507.227C502.872 103.375 499.341 99.8442 499.341 95.4888C499.341 91.1334 502.872 87.6027 507.227 87.6027H519.584C519.777 87.6027 519.968 87.6052 520.156 87.6102L536.807 57.7689C533.192 53.6004 526.966 51.2148 518.963 51.2148H505.815C495.959 51.2148 487.964 59.1805 487.916 69.0252V95.4997ZM526.754 71.6321C526.982 71.1658 527.153 70.6615 527.262 70.1197C527.359 69.6426 527.408 69.1364 527.408 68.6015C527.408 68.2591 527.389 67.9279 527.351 67.608C526.9 63.8087 523.811 61.6035 518.963 61.2129C518.483 61.1742 517.986 61.1533 517.473 61.1504L517.349 61.15H506.668C502.622 61.15 499.341 64.4306 499.341 68.4773C499.341 72.524 502.622 75.8046 506.668 75.8046H517.473C518.211 75.8046 518.915 75.7681 519.584 75.6955C523.099 75.3145 525.628 73.9387 526.754 71.6321Z" fill="black"/>
<path d="M511.359 103.375H519.584C520.141 103.375 520.679 103.354 521.199 103.312C526.229 102.908 529.472 100.531 529.637 95.9235C529.642 95.8008 529.644 95.6767 529.644 95.5509C529.644 93.6022 529.131 92.0174 528.178 90.7903C528.128 90.7254 528.076 90.6616 528.023 90.5987C526.422 88.6929 523.7 87.705 520.156 87.6102L511.359 103.375Z" fill="black"/>
<path d="M540.324 67.608C540.324 67.9441 540.315 68.2753 540.296 68.6015C540.117 71.7071 539.09 74.3587 537.325 76.4839C535.721 78.4152 535.827 82.3745 537.666 84.0832C537.787 84.1951 537.905 84.3088 538.022 84.4241C540.145 86.5269 541.592 89.1903 542.215 92.3157C541.049 86.4622 540.324 73.5764 540.324 67.608Z" fill="black"/>
<path d="M606.872 106.045L594.107 110.793C595.44 112.335 597.409 113.31 599.607 113.31C603.369 113.31 606.462 110.451 606.834 106.788C606.857 106.566 606.87 106.342 606.872 106.115V106.045Z" fill="black"/>
<path fill-rule="evenodd" clip-rule="evenodd" d="M170.391 87.3543H195.368L203.613 85.7053C203.614 85.6917 203.616 85.6781 203.617 85.6645C203.631 85.5177 203.853 85.5085 203.882 85.6515L203.613 85.7053C203.607 85.7524 203.6 85.799 203.591 85.845L203.883 85.6582C205.99 97.4564 211.906 106.421 220.558 111.229C222.035 112.05 223.593 112.75 225.225 113.322C228.682 114.533 232.474 115.172 236.548 115.173L236.562 115.173C236.853 115.173 237.143 115.17 237.432 115.164C238.032 115.151 238.626 115.125 239.213 115.086L239.357 115.076C243.887 114.759 248.054 113.67 251.744 111.912C252.09 111.747 252.432 111.576 252.77 111.4L252.866 111.349L252.902 111.33C260.331 107.398 265.669 100.644 267.917 91.9848C268.135 91.1463 268.443 90.3354 268.831 89.5726C268.747 88.684 268.751 87.7934 268.849 86.9224C269.033 85.2964 270.363 84.001 271.999 84.001H298.521C300.158 84.001 301.49 85.2954 301.674 86.9224C301.773 87.7935 301.777 88.683 301.694 89.5697C302.077 90.3296 302.381 91.1373 302.594 91.9729C306.175 106.01 317.635 115.173 332.961 115.173C333.377 115.173 333.791 115.166 334.203 115.152C340.11 114.955 345.637 113.335 350.669 110.179L350.691 110.165L350.712 110.152L350.835 110.074L350.953 109.999C351.016 109.959 351.078 109.918 351.14 109.878C352.891 108.739 353.591 106.575 353.088 104.552L352.474 102.203C351.813 99.6745 348.715 98.6792 346.41 99.9036C342.867 101.831 339.264 103.001 335.471 103.215C335.051 103.239 334.628 103.251 334.203 103.251C333.784 103.251 333.37 103.239 332.961 103.216C329.5 103.021 326.42 102.009 323.842 100.315L323.827 100.305C323.446 100.054 323.076 99.7886 322.718 99.5084C318.432 96.1591 315.765 90.7424 315.375 84.001C315.342 83.4308 315.325 82.8511 315.325 82.2624C315.325 77.6088 316.368 73.5193 318.257 70.2159C318.273 70.1884 318.289 70.1612 318.304 70.1342C321.325 64.9118 326.472 61.6743 332.961 61.3089C333.37 61.2859 333.784 61.2743 334.203 61.2743C334.628 61.2743 335.051 61.2863 335.471 61.31C339.254 61.5237 342.847 62.688 346.381 64.6058C348.7 65.8349 351.817 64.835 352.481 62.2926L353.088 59.973C353.591 57.9498 352.891 55.7856 351.14 54.6471C345.983 51.2927 340.295 49.5767 334.203 49.3727C333.791 49.3589 333.377 49.352 332.961 49.352C320.829 49.352 311.12 55.0403 305.824 64.3933L305.784 64.4637C305.272 65.3735 304.801 66.3177 304.374 67.2945C303.627 69.0047 301.999 70.2159 300.132 70.2159H296.941L296.889 70.216L296.836 70.2159H274.298L274.253 70.216L274.209 70.2159H270.664C268.856 70.2159 267.297 68.9937 266.678 67.2945C266.26 66.1439 265.789 65.0436 265.269 63.995C264.721 62.8901 264.118 61.8427 263.461 60.8546C263.336 60.6673 263.21 60.4821 263.082 60.299L263.073 60.287C259.549 55.2623 254.599 51.8527 248.548 50.3032C247.14 49.9427 245.673 49.6829 244.151 49.5268L244.094 49.521C242.978 49.4087 241.834 49.3519 240.661 49.3519C239.56 49.3519 238.484 49.4038 237.432 49.5081C232.076 50.0393 227.352 51.9316 223.26 55.2742C221.403 56.7916 218.284 55.3301 219.155 53.0956C219.658 51.8076 220.226 50.5856 220.859 49.429C224.906 42.032 231.588 37.3072 240.537 35.07L258.673 30.6057C262.059 29.7721 264.169 26.3963 263.433 22.9871C262.662 19.4129 259.076 17.1948 255.534 18.1009L240.661 21.9058C239.592 22.1813 238.544 22.479 237.516 22.7992L237.472 22.8128C224.896 26.7393 215.388 34.0243 209.581 45.133C207.997 48.1626 206.689 51.4766 205.668 55.0844C205.144 56.9377 204.696 58.8685 204.326 60.8781C204.269 61.1874 204.214 61.4986 204.161 61.8117L204.158 61.8251C204.015 62.6707 203.884 63.5299 203.768 64.4028C203.499 66.4114 203.303 68.4927 203.18 70.6478C203.16 70.9939 202.573 71.048 202.483 70.7133L202.465 70.6478C199.071 58.1596 189.593 49.4048 175.9 49.3522L175.776 49.352C162.502 49.352 152.296 57.6362 148.535 70.6478C147.878 72.9198 147.418 75.336 147.172 77.8773C147.034 79.3009 146.964 80.7637 146.964 82.2625C146.964 84.754 147.159 87.1308 147.539 89.3833C147.634 89.9416 147.739 90.4923 147.856 91.0352C147.877 91.1323 147.898 91.229 147.92 91.3256C148.233 92.7262 148.621 94.0743 149.081 95.3675C149.162 95.5969 149.246 95.8246 149.332 96.0506C149.601 96.7571 149.893 97.4465 150.205 98.1184C152.993 104.109 157.488 108.709 163.333 111.613L176.968 102.886C172.001 101.991 167.607 99.4568 164.786 95.3675C162.193 91.61 165.826 87.3543 170.391 87.3543ZM188.262 70.6478C188.581 71.5534 188.658 72.4405 188.535 73.2752C188.885 73.5259 189.17 73.9892 189.286 74.6847C189.315 74.8542 189.342 75.0248 189.367 75.1963L189.373 75.237C189.456 75.7981 189.524 76.3692 189.576 76.9492C189.66 77.8819 188.906 78.6609 187.97 78.6609C187.083 78.6609 186.353 77.96 186.337 77.0732L186.335 76.9795C185.053 78.0224 183.343 78.661 181.516 78.661H165.78C163.25 78.661 161.193 76.5181 161.742 74.049C162.012 72.8352 162.36 71.7003 162.78 70.6478C164.555 66.194 167.612 63.2142 171.475 61.9545C172.818 61.5167 174.258 61.2867 175.776 61.2748C175.817 61.2744 175.859 61.2743 175.9 61.2743C177.491 61.2743 178.936 61.5113 180.24 61.9545C184.143 63.281 186.781 66.4546 188.262 70.6478ZM220.058 88.5516L220.059 88.5548C222.108 96.6132 228.165 102.131 236.562 102.487C236.849 102.499 237.139 102.506 237.432 102.506C248.322 102.506 255.389 93.9971 255.439 82.3867L255.439 82.2625C255.439 77.6776 254.347 73.5714 252.359 70.2754C249.803 66.0376 245.765 63.1387 240.661 62.2824C239.627 62.109 238.549 62.0194 237.432 62.0194C236.162 62.0194 234.943 62.1351 233.779 62.3578C232.003 62.6978 230.357 63.2872 228.86 64.0957C227.185 65 225.698 66.1783 224.424 67.5879C224.021 68.0331 223.64 68.5014 223.282 68.9914C221.58 71.3147 220.378 74.1266 219.765 77.2839C219.475 78.7801 219.317 80.3539 219.301 81.9901L219.301 82.0141L219.3 82.0989L219.3 82.2244L219.3 82.2625C219.3 84.4791 219.559 86.5837 220.055 88.539L220.058 88.5516ZM217.18 61.8601C217.127 61.7184 216.924 61.7417 216.902 61.8912C216.88 62.0432 217.079 62.1266 217.166 62.0002C217.193 61.9613 217.199 61.9121 217.182 61.8678L217.18 61.8601Z" fill="black"/>
<path fill-rule="evenodd" clip-rule="evenodd" d="M371.055 110.651L371.083 110.668C372.125 111.276 373.215 111.826 374.352 112.315L374.448 112.356C375.668 112.877 376.942 113.329 378.265 113.708C381.329 114.587 384.661 115.082 388.227 115.162C388.567 115.169 388.909 115.173 389.254 115.173C389.708 115.173 390.163 115.165 390.62 115.149C396.746 114.933 403.022 113.282 408.16 110.626C408.879 110.254 409.576 109.863 410.247 109.453C412.051 108.351 412.765 106.155 412.247 104.106L411.676 101.847L411.668 101.818L411.662 101.795C410.999 99.3158 408.091 98.1912 405.78 99.3305L405.748 99.3461C402.195 101.093 398.339 102.349 394.713 102.915C393.303 103.135 391.929 103.251 390.62 103.251C390.162 103.251 389.706 103.238 389.254 103.212C383.168 102.867 377.628 100.206 374.29 95.3675C371.697 91.61 375.33 87.3543 379.895 87.3543H406.752H411.278C411.756 87.3543 412.194 87.1698 412.524 86.8663C412.854 86.5628 413.076 86.1402 413.121 85.6646C413.233 84.479 413.347 83.275 413.347 82.0141C413.365 80.695 413.326 79.3959 413.231 78.1209C413.169 77.2869 413.083 76.4632 412.974 75.6509C412.934 75.3555 412.892 75.0615 412.846 74.7692C412.624 73.3569 412.332 71.9811 411.969 70.6478C408.575 58.1596 399.096 49.4048 385.404 49.3522L385.28 49.352C380.222 49.352 375.61 50.5546 371.63 52.7632L371.607 52.7763C368.658 54.4165 366.057 56.6094 363.88 59.2747C361.518 62.1661 359.654 65.6134 358.387 69.5144C358.191 70.1155 358.01 70.7274 357.844 71.3497C356.945 74.7046 356.468 78.3618 356.468 82.2625C356.468 86.2156 356.96 89.8797 357.901 93.217C358.071 93.8198 358.255 94.4118 358.454 94.993C359.786 98.8858 361.762 102.29 364.303 105.14C366.238 107.308 368.5 109.155 371.055 110.651ZM375.284 78.661C372.754 78.661 370.696 76.5181 371.246 74.049C371.516 72.8352 371.864 71.7003 372.284 70.6478C374.059 66.194 377.115 63.2142 380.979 61.9545C382.321 61.5167 383.762 61.2867 385.28 61.2748C385.321 61.2744 385.362 61.2743 385.404 61.2743C386.994 61.2743 388.44 61.5113 389.744 61.9545C393.647 63.281 396.285 66.4546 397.766 70.6478C399.25 74.8533 395.48 78.661 391.02 78.661H375.284Z" fill="black"/>
<path d="M334.203 77.9808C335.256 77.9808 336.939 78.2745 339.797 80.1109C339.773 80.8256 339.761 81.5429 339.761 82.2625C339.761 82.9824 339.773 83.6997 339.798 84.4139C336.939 86.2505 335.256 86.5443 334.203 86.5443C333.478 86.5443 333.148 86.4144 333.079 86.3849C333.02 86.3595 332.999 86.3453 332.952 86.293C332.891 86.2254 332.032 85.2076 332.032 82.2625C332.032 79.3175 332.891 78.2996 332.952 78.232C332.999 78.1798 333.02 78.1656 333.079 78.1401C333.148 78.1106 333.478 77.9808 334.203 77.9808Z" fill="black"/>
<path d="M282.683 100.708C281.541 103.859 280.088 106.866 278.332 109.688H292.095C290.366 106.861 288.938 103.854 287.813 100.708H282.683Z" fill="black"/>
<path d="M246.063 126.394L246.074 126.394C249.773 126.4 252.77 129.4 252.77 133.1V134.461C252.77 141.851 261.879 145.352 266.828 139.864L277.072 128.503C278.283 127.16 280.006 126.394 281.813 126.394C287.373 126.394 290.276 133.008 286.511 137.1L270.161 154.871C269.258 155.854 269.954 157.442 271.289 157.442C271.751 157.442 272.188 157.65 272.479 158.008L289.043 178.408C292.325 182.449 289.449 188.489 284.243 188.489C282.329 188.489 280.524 187.603 279.353 186.09L268.383 171.916C265.086 167.655 258.751 167.375 255.091 171.328C253.599 172.94 252.77 175.055 252.77 177.251V181.783C252.77 185.487 249.767 188.489 246.063 188.489C242.382 188.489 239.393 185.523 239.357 181.85V133.033C239.393 129.364 242.376 126.4 246.052 126.394L246.063 126.394Z" fill="black"/>
<path fill-rule="evenodd" clip-rule="evenodd" d="M180.317 131.672C178.905 132.847 177.611 134.156 176.447 135.587C172.213 140.792 169.688 147.621 169.354 155.61C169.328 156.214 169.316 156.825 169.316 157.442C169.316 164.847 171.149 171.326 174.457 176.532C179.969 185.21 189.574 190.352 201.605 190.352C212.758 190.352 221.785 185.933 227.405 178.375L227.459 178.302C228.416 177.007 229.273 175.62 230.025 174.148C230.143 173.916 230.259 173.682 230.372 173.445C232.576 168.843 233.77 163.447 233.77 157.442C233.77 148.147 230.909 140.31 225.872 134.619L225.821 134.561C223.697 132.175 221.189 130.167 218.348 128.591C216.88 127.776 215.323 127.076 213.684 126.498C210.056 125.219 206.028 124.538 201.674 124.531L201.605 124.531C199.6 124.531 197.663 124.674 195.801 124.952C189.763 125.854 184.514 128.178 180.317 131.672ZM219.986 157.442C219.986 145.271 212.782 136.453 201.605 136.453C190.428 136.453 183.225 145.271 183.225 157.442C183.225 169.612 190.428 178.43 201.605 178.43C212.782 178.43 219.986 169.612 219.986 157.442Z" fill="black"/>
<path d="M136.991 126.518H123.499C113.639 126.548 105.654 134.55 105.654 144.418V181.224C105.654 185.237 108.907 188.489 112.92 188.489C116.932 188.489 120.185 185.237 120.185 181.224V155.268C120.185 147.346 126.607 140.924 134.529 140.924C142.451 140.924 148.873 147.346 148.873 155.268V181.224C148.873 185.237 152.125 188.489 156.138 188.489C160.15 188.489 163.403 185.237 163.403 181.224V144.418C163.403 134.532 155.389 126.518 145.503 126.518H137.049L136.991 126.518Z" fill="black"/>
<path fill-rule="evenodd" clip-rule="evenodd" d="M16.7065 157.442C16.7065 177.188 29.7465 190.352 48.9961 190.352C68.2456 190.352 81.1615 177.188 81.1615 157.442C81.1615 137.695 68.2456 124.531 48.9961 124.531C29.7465 124.531 16.7065 137.695 16.7065 157.442ZM48.9961 178.43C60.1732 178.43 67.3763 169.612 67.3763 157.442C67.3763 145.271 60.1732 136.454 48.9961 136.454C37.8189 136.454 30.6159 145.271 30.6159 157.442C30.6159 169.612 37.8189 178.43 48.9961 178.43Z" fill="black"/>
<path fill-rule="evenodd" clip-rule="evenodd" d="M89.4816 95.4103C89.4816 105.279 97.4677 113.282 107.33 113.31L118.174 103.375H108.793C104.438 103.375 100.907 99.8442 100.907 95.4888C100.907 91.1334 104.438 87.6027 108.793 87.6027H121.15C124.974 87.6027 127.903 88.5917 129.589 90.5988C129.642 90.6616 129.694 90.7254 129.744 90.7903C130.047 91.18 130.305 91.6058 130.517 92.0678L139.232 84.0832L139.225 84.0767C138.507 83.4104 137.717 82.8046 136.862 82.2625C135.655 81.4979 135.598 79.4158 136.733 78.5477C137.536 77.9333 138.252 77.2501 138.876 76.5015L138.891 76.4839C140.656 74.3587 141.683 71.7071 141.862 68.6015C141.881 68.2753 141.89 67.9441 141.89 67.608C141.89 67.0533 141.865 66.5099 141.815 65.9783C140.958 56.8693 132.85 51.2148 120.529 51.2148H107.381C97.4956 51.2148 89.4816 59.2288 89.4816 69.1146V95.4103ZM128.828 70.1197C128.719 70.6615 128.548 71.1658 128.32 71.6321C127.194 73.9386 124.665 75.3145 121.15 75.6955C120.481 75.7681 119.777 75.8046 119.039 75.8046H108.234C104.188 75.8046 100.907 72.524 100.907 68.4773C100.907 64.4306 104.188 61.15 108.234 61.15H118.915L119.039 61.1504C119.552 61.1533 120.049 61.1742 120.529 61.2129C125.376 61.6035 128.466 63.8087 128.917 67.608C128.955 67.9279 128.974 68.2591 128.974 68.6015C128.974 69.1364 128.925 69.6426 128.828 70.1197Z" fill="black"/>
<path d="M49.7006 161.619C49.8315 161.466 50.6698 160.316 50.6698 157.442C50.6698 154.568 49.8315 153.417 49.7006 153.265C49.6829 153.244 49.6595 153.229 49.6333 153.223C49.5373 153.197 49.3362 153.16 48.9961 153.16C48.6559 153.16 48.4549 153.197 48.3589 153.223C48.3326 153.229 48.3093 153.244 48.2916 153.265C48.1607 153.417 47.3223 154.568 47.3223 157.442C47.3223 160.316 48.1606 161.466 48.2916 161.619C48.3093 161.639 48.3326 161.654 48.3589 161.661C48.4549 161.686 48.6559 161.723 48.9961 161.723C49.3363 161.723 49.5373 161.686 49.6333 161.661C49.6596 161.654 49.6829 161.639 49.7006 161.619Z" fill="black"/>
<path d="M202.243 161.661C202.269 161.654 202.292 161.639 202.31 161.619C202.441 161.466 203.279 160.316 203.279 157.442C203.279 154.568 202.441 153.417 202.31 153.265C202.292 153.244 202.269 153.229 202.243 153.222C202.146 153.197 201.945 153.16 201.605 153.16C201.265 153.16 201.064 153.197 200.968 153.222C200.942 153.229 200.918 153.244 200.901 153.265C200.77 153.417 199.932 154.568 199.932 157.442C199.932 160.316 200.77 161.466 200.901 161.619C200.918 161.639 200.942 161.654 200.968 161.661C201.064 161.686 201.265 161.723 201.605 161.723C201.945 161.723 202.146 161.686 202.243 161.661Z" fill="black"/>
<path d="M196.122 90.6256L176.968 102.886C177.878 103.05 178.807 103.159 179.75 103.212C180.202 103.238 180.658 103.251 181.116 103.251C182.425 103.251 183.8 103.135 185.209 102.915C188.467 102.406 191.909 101.342 195.151 99.8638L195.162 99.8586C196.121 99.4212 197.159 99.2819 198.147 99.403L196.122 90.6256Z" fill="black"/>
<path d="M198.147 99.403L200.5 109.6C200.581 109.551 200.663 109.502 200.743 109.453C202.547 108.351 203.261 106.155 202.743 104.106L202.472 103.032L202.463 103C201.929 100.949 200.139 99.647 198.147 99.403Z" fill="black"/>
<path d="M195.368 87.3543L196.122 90.6256L201.233 87.3543H195.393L195.368 87.3543Z" fill="black"/>
<path d="M201.233 87.3543H201.774C202.367 87.3543 202.899 87.0703 203.239 86.6277C203.412 86.4024 203.535 86.136 203.591 85.845L201.233 87.3543Z" fill="black"/>
<path d="M131.203 95.9235C131.207 95.8008 131.21 95.6767 131.21 95.5509C131.21 94.2211 130.971 93.0607 130.517 92.0678L118.174 103.375H121.15C121.707 103.375 122.245 103.354 122.765 103.312C127.795 102.908 131.038 100.531 131.203 95.9235Z" fill="black"/>
<path d="M143.777 99.5703C142.581 105.567 138.365 109.918 131.982 111.977C132.168 111.917 132.355 111.856 132.542 111.796C135.498 110.838 138.497 109.868 141.592 109.814C141.796 107.169 142.536 104.379 143.235 101.745L143.236 101.742C143.345 101.33 143.454 100.923 143.559 100.52C143.64 100.208 143.713 99.8914 143.777 99.5703Z" fill="black"/>
<path d="M143.654 91.7339C142.974 88.8589 141.578 86.3952 139.588 84.4241L144.007 93.772C143.997 93.6822 143.986 93.5927 143.974 93.5035C143.897 92.8977 143.79 92.3076 143.654 91.7339Z" fill="black"/>
<path d="M237.432 85.7991C237.777 85.7991 238.082 85.6021 238.222 85.2866C238.451 84.7668 238.733 83.812 238.733 82.2625C238.733 80.713 238.451 79.7581 238.222 79.2383C238.082 78.9229 237.777 78.7259 237.432 78.7259C237.09 78.7259 236.9 78.7668 236.823 78.7891C236.819 78.7902 236.816 78.7923 236.814 78.7951C236.745 78.8735 236.006 79.8078 236.006 82.2625C236.006 84.7171 236.745 85.6514 236.814 85.7298L236.816 85.7324C236.818 85.7339 236.821 85.7351 236.823 85.7358C236.9 85.7581 237.09 85.7991 237.432 85.7991Z" fill="black"/>
<path d="M448.812 78.3355C448.505 78.6843 447.746 79.8616 447.746 82.2625C447.746 84.5692 448.486 85.7718 448.834 86.1687C449.005 86.3632 449.123 86.426 449.175 86.4499C449.214 86.4681 449.383 86.5443 449.792 86.5443C449.938 86.5443 450.041 86.5345 450.109 86.5241C450.147 86.5183 450.182 86.4992 450.207 86.47C450.386 86.2599 451.218 85.0665 451.218 82.2625C451.218 79.4586 450.386 78.2652 450.207 78.055C450.182 78.0259 450.147 78.0067 450.109 78.0009C450.041 77.9905 449.938 77.9808 449.792 77.9808C449.349 77.9808 449.163 78.0632 449.121 78.0822C449.07 78.1055 448.965 78.1607 448.812 78.3355Z" fill="black"/>
<path d="M544.828 129.121L545.615 128.829C544.69 127.366 543.058 126.394 541.2 126.394H539.18C541.465 126.402 543.501 127.465 544.828 129.121Z" fill="black"/>
<path d="M89.2119 51.1959H120.26C133.3 51.1959 141.62 57.5296 141.62 67.5891C141.62 73.6744 138.516 78.1453 133.051 80.5049C139.758 82.9887 143.856 88.4531 143.856 95.9046C143.856 106.585 135.535 113.291 122.495 113.291H89.2119V51.1959ZM118.645 61.1312H100.637V75.7857H118.769C124.855 75.7857 128.705 73.3018 128.705 68.5826C128.705 63.7392 124.855 61.1312 118.645 61.1312ZM120.881 87.5838H100.637V103.356H120.881C126.966 103.356 130.94 100.872 130.94 95.532C130.94 90.1918 127.09 87.5838 120.881 87.5838ZM146.694 82.2436C146.694 62.7456 158.616 49.333 175.506 49.333C193.141 49.333 203.821 63.7392 203.573 81.9952C203.573 83.8581 203.325 85.5967 203.201 87.3354H161.472C162.963 97.7674 171.408 103.232 180.846 103.232C187.056 103.232 194.756 100.624 200.593 96.6497L203.325 107.454C197.364 112.174 188.173 115.154 179.48 115.154C159.61 115.154 146.694 102.487 146.694 82.2436ZM160.851 78.642H189.415C189.043 68.9552 184.696 61.2553 175.63 61.2553C167.434 61.2553 161.472 67.5891 160.851 78.642ZM236.292 115.154C215.925 115.154 202.637 99.2577 202.761 75.2889C203.009 44.8622 216.795 27.9722 240.391 21.8869L261.752 16.4225L264.484 29.0899L240.267 35.0511C226.854 38.4043 218.533 47.346 216.546 62.4973C222.507 53.5555 230.456 49.333 240.391 49.333C257.653 49.333 268.83 61.6279 268.83 82.3678C268.83 101.866 255.418 115.154 236.292 115.154ZM237.162 102.487C248.091 102.487 255.169 93.9175 255.169 82.2436C255.169 70.5697 248.091 62.0005 237.162 62.0005C226.233 62.0005 219.03 70.5697 219.03 82.2436C219.03 93.9175 226.233 102.487 237.162 102.487ZM310.998 70.1971V83.9822H262.812V70.1971H310.998ZM332.691 49.333C340.39 49.333 347.469 51.6927 353.679 56.6603L350.823 67.5891C345.358 63.615 339.894 61.2553 333.933 61.2553C322.631 61.2553 315.056 69.7003 315.056 82.2436C315.056 94.7868 322.631 103.232 333.933 103.232C339.894 103.232 345.358 100.872 350.823 96.8981L353.679 107.827C347.469 112.794 340.39 115.154 332.691 115.154C314.062 115.154 301.146 101.617 301.146 82.2436C301.146 62.7456 314.062 49.333 332.691 49.333ZM356.198 82.2436C356.198 62.7456 368.12 49.333 385.01 49.333C402.645 49.333 413.325 63.7392 413.077 81.9952C413.077 83.8581 412.829 85.5967 412.704 87.3354H370.976C372.467 97.7674 380.912 103.232 390.35 103.232C396.56 103.232 404.259 100.624 410.096 96.6497L412.829 107.454C406.867 112.174 397.677 115.154 388.984 115.154C369.113 115.154 356.198 102.487 356.198 82.2436ZM370.355 78.642H398.919C398.547 68.9552 394.2 61.2553 385.134 61.2553C376.937 61.2553 370.976 67.5891 370.355 78.642ZM417.357 142.476V51.1959H430.769V64.1117C435.613 55.0458 444.306 49.333 454.241 49.333C469.517 49.333 481.563 62.6214 481.563 82.2436C481.563 101.866 469.517 115.154 454.117 115.154C444.306 115.154 435.613 109.441 430.769 100.375V142.476H417.357ZM449.522 61.2553C438.469 61.2553 430.769 70.3213 430.769 82.2436C430.769 94.0417 438.469 103.232 449.522 103.232C460.327 103.232 467.654 94.4143 467.654 82.2436C467.654 70.0729 460.327 61.2553 449.522 61.2553ZM487.646 51.1959H518.693C531.733 51.1959 540.054 57.5296 540.054 67.5891C540.054 73.6744 536.949 78.1453 531.485 80.5049C538.191 82.9887 542.29 88.4531 542.29 95.9046C542.29 106.585 533.969 113.291 520.929 113.291H487.646V51.1959ZM517.079 61.1312H499.071V75.7857H517.203C523.289 75.7857 527.138 73.3018 527.138 68.5826C527.138 63.7392 523.289 61.1312 517.079 61.1312ZM519.314 87.5838H499.071V103.356H519.314C525.4 103.356 529.374 100.872 529.374 95.532C529.374 90.1918 525.524 87.5838 519.314 87.5838ZM606.602 113.291H592.072V68.4584L561.769 113.291H547.239V51.1959H561.769V95.2836C568.972 84.479 584.869 62.0005 592.072 51.1959H606.602V113.291ZM644.143 49.333C651.842 49.333 658.921 51.6927 665.131 56.6603L662.274 67.5891C656.81 63.615 651.346 61.2553 645.384 61.2553C634.083 61.2553 626.507 69.7003 626.507 82.2436C626.507 94.7868 634.083 103.232 645.384 103.232C651.346 103.232 656.81 100.872 662.274 96.8981L665.131 107.827C658.921 112.794 651.842 115.154 644.143 115.154C625.514 115.154 612.598 101.617 612.598 82.2436C612.598 62.7456 625.514 49.333 644.143 49.333ZM48.7262 190.154C29.4766 190.154 16.4366 176.99 16.4366 157.244C16.4366 137.497 29.4766 124.333 48.7262 124.333C67.9757 124.333 80.8916 137.497 80.8916 157.244C80.8916 176.99 67.9757 190.154 48.7262 190.154ZM48.7262 178.232C59.9034 178.232 67.1064 169.414 67.1064 157.244C67.1064 145.073 59.9034 136.255 48.7262 136.255C37.549 136.255 30.346 145.073 30.346 157.244C30.346 169.414 37.549 178.232 48.7262 178.232ZM148.603 140.726H119.915V188.291H105.384V126.32H163.133V188.291H148.603V140.726ZM201.335 190.154C182.086 190.154 169.046 176.99 169.046 157.244C169.046 137.497 182.086 124.333 201.335 124.333C220.585 124.333 233.501 137.497 233.501 157.244C233.501 176.99 220.585 190.154 201.335 190.154ZM201.335 178.232C212.512 178.232 219.715 169.414 219.715 157.244C219.715 145.073 212.512 136.255 201.335 136.255C190.158 136.255 182.955 145.073 182.955 157.244C182.955 169.414 190.158 178.232 201.335 178.232ZM252.5 188.291H239.087V126.196H252.5V155.257L278.704 126.196H296.091L267.527 157.244H271.749L296.96 188.291H280.94L261.814 163.577L252.5 173.637V188.291ZM325.376 190.154C306.126 190.154 293.086 176.99 293.086 157.244C293.086 137.497 306.126 124.333 325.376 124.333C344.625 124.333 357.541 137.497 357.541 157.244C357.541 176.99 344.625 190.154 325.376 190.154ZM325.376 178.232C336.553 178.232 343.756 169.414 343.756 157.244C343.756 145.073 336.553 136.255 325.376 136.255C314.198 136.255 306.995 145.073 306.995 157.244C306.995 169.414 314.198 178.232 325.376 178.232ZM352.82 188.291L354.062 174.258C367.847 174.258 365.86 152.649 365.984 126.32H417.523V188.291H402.993V137.125H378.9C378.651 148.923 378.403 162.708 375.795 169.911C374.802 181.958 366.853 188.291 352.82 188.291ZM422.273 157.244C422.273 137.746 434.196 124.333 451.086 124.333C468.721 124.333 479.401 138.739 479.153 156.995C479.153 158.858 478.904 160.597 478.78 162.335H437.052C438.542 172.767 446.987 178.232 456.426 178.232C462.635 178.232 470.335 175.624 476.172 171.65L478.904 182.454C472.943 187.174 463.753 190.154 455.06 190.154C435.189 190.154 422.273 177.487 422.273 157.244ZM436.431 153.642H464.995C464.622 143.955 460.276 136.255 451.21 136.255C443.013 136.255 437.052 142.589 436.431 153.642ZM485.916 126.196H500.447V151.158H531.618V126.196H546.149V188.291H531.618V161.093H500.447V188.291H485.916V126.196ZM614.318 188.291H599.788V143.458L569.485 188.291H554.955V126.196H569.485V170.284C576.688 159.479 592.585 137 599.788 126.196H614.318V188.291ZM656.329 166.558L647.884 188.291H622.674V177.362H638.073L643.538 165.44C629.007 162.46 621.307 156.747 621.307 146.191C621.307 132.53 631.491 126.196 651.362 126.196H677.814V188.291H664.65V166.558H656.329ZM635.838 146.191C635.838 153.269 642.047 156.623 652.852 156.623H664.65V136.007H652.355C641.178 136.007 635.838 139.36 635.838 146.191ZM677.434 188.291L696.684 156.374L679.048 126.196H693.455L706.619 149.668L719.783 126.196H734.189L716.554 156.374L735.804 188.291H720.28L706.619 163.329L692.834 188.291H677.434Z" fill="white"/>
</svg>
