<svg width="1031" height="666" viewBox="0 0 1031 666" fill="none" xmlns="http://www.w3.org/2000/svg">
<path d="M28.5982 84.2143C67.0735 37.051 121.469 1 183.726 1C209.954 1 224.147 3.07798 241.385 24.3719C251.535 36.9095 266.684 50.6126 266.684 68.0337C266.684 117.687 236.639 174.113 199.136 206.724C174.47 228.173 155.218 254.703 129.02 274.528C97.5829 298.319 66.798 326.096 44.3936 358.385C17.9765 396.456 -8.67057 454.608 4.45582 502.34C22.6014 568.324 100.76 581.189 159.198 581.189C171.569 581.189 183.94 581.189 196.311 581.189C210.283 581.189 223.528 574.257 236.377 569.117C263.182 558.395 293.866 535.435 307.777 509.532C322.768 481.618 326.783 456.242 326.783 424.905C326.783 385.652 318.038 348.636 315.354 309.715C312.67 270.806 310.461 218.262 327.297 183.095M357.5 123.5C399 46 488.057 49.5417 519.922 49.5417C548.735 49.5417 585.3 69.5 594 126.5M599.5 171C599.5 211.5 591 217 585.8 226.372C579.062 247.261 563.024 263.706 553.311 283.132C532.283 325.188 483.345 357.112 454 393.5M397.5 533C388.157 566.566 382.951 613.061 413.85 638.976C447.118 666.879 490.222 666.377 531.223 664.274C567.861 662.396 599.865 637.896 629.719 619.457C646.422 609.14 660.099 599.948 673.766 585.426C694.588 563.303 701.585 536.08 711.521 507.862C733.544 445.315 739.073 379.705 746.322 314.466C751.292 269.728 754.514 220.861 769.565 178.216C783.974 137.391 794.107 89.5265 835.828 68.0337C871.463 49.6764 911.213 71.8838 939.333 92.433C989.932 129.409 1004.05 199.43 1004.05 257.577C1004.05 289.022 1002.22 321.352 987.874 350.038C973.181 379.423 958.665 408.41 946.267 438.902C925.796 489.251 896.719 548.299 913.906 603.79C927.634 648.113 969.806 639.896 1002.51 620.998C1015.31 613.604 1029.48 599.274 1029.48 583.5" stroke="black" stroke-width="1.5" stroke-linecap="round"/>
<circle cx="600.89" cy="637.848" r="3.68084" fill="black"/>
<circle cx="813.79" cy="84.839" r="3.68084" fill="black"/>
<circle cx="134.681" cy="268.681" r="3.68084" fill="black"/>
<circle cx="202.681" cy="580.681" r="3.68084" fill="black"/>
<circle cx="453.681" cy="394.681" r="3.68084" fill="black"/>
<circle cx="396.681" cy="534.681" r="3.68084" fill="black"/>
<circle cx="938.681" cy="456.681" r="3.68084" fill="black"/>
</svg>
