<svg width="1299" height="708" viewBox="0 0 1299 708" fill="none" xmlns="http://www.w3.org/2000/svg">
<path d="M36.0932 89.9335C84.5764 39.869 153.121 1.60034 231.572 1.60034C264.622 1.60034 282.507 3.80614 304.229 26.41C317.018 39.7188 336.107 54.2648 336.107 72.7576C336.107 125.466 298.248 185.362 250.99 219.98C219.907 242.748 195.648 270.91 162.636 291.955C123.021 317.209 84.2291 346.695 55.9971 380.97C22.7087 421.383 -10.8696 483.112 5.67112 533.781C28.5366 603.824 127.025 617.479 200.664 617.479C216.253 617.479 231.841 617.479 247.43 617.479C265.036 617.479 281.726 610.121 297.918 604.665C331.694 593.284 451.119 488.1 407.8 353.6C385.844 302.6 391.272 232.228 412.486 194.897C441.177 144.411 483.723 102.977 538.058 71.3945C572.673 51.2745 615.062 53.128 655.216 53.128C691.523 53.128 707.865 62.5089 729.329 86.3893C759.881 120.382 751.816 166.1 751.816 166.1C751.816 166.1 745.316 201.1 731.316 241.6C722.589 266.848 724.556 269.479 712.316 290.1C685.819 334.743 661.965 388.474 624.987 427.1C587.61 466.143 529.48 515.516 513.426 564.1C501.653 599.732 484.943 641.6 521.553 678.821C563.475 708.441 617.79 707.908 669.456 705.676C715.624 703.681 755.952 677.675 793.572 658.101C814.619 647.15 831.854 637.392 849.076 621.977C875.314 598.493 884.131 569.596 896.651 539.642C924.403 473.247 931.37 403.602 940.504 334.349C946.768 286.859 950.827 234.986 969.793 189.717C987.95 146.381 1000.72 95.5725 1053.29 72.7576C1098.2 53.2711 1148.28 76.8445 1183.72 98.6578C1247.48 137.909 1278.22 179.6 1288.32 247.6C1293.07 279.6 1294.79 348.6 1279.06 389.1C1265.28 424.6 1265.64 437.6 1232.89 479.6C1207.12 518.6 1130.02 582.567 1151.68 641.471C1168.98 688.52 1222.12 679.798 1263.33 659.737C1279.46 651.888 1297.32 636.677 1297.32 619.933" stroke="#131313" stroke-width="1.5" stroke-linecap="round"/>
<ellipse cx="36.2127" cy="90.6003" rx="3.75808" ry="4" fill="#131313"/>
<ellipse cx="149.611" cy="615.6" rx="4.29495" ry="4" fill="#131313"/>
<ellipse cx="515.636" cy="85.1003" rx="4.29495" ry="3.5" fill="#131313"/>
<ellipse cx="740.047" cy="685.6" rx="4.29495" ry="4" fill="#131313"/>
<ellipse cx="1076.61" cy="65.6003" rx="4.29495" ry="4" fill="#131313"/>
<ellipse cx="1279.06" cy="389.6" rx="4.29495" ry="4" fill="#131313"/>
<ellipse cx="1283.36" cy="647.6" rx="4.29495" ry="4" fill="#131313"/>
</svg>
