<svg width="1280" height="695" viewBox="0 0 1280 695" fill="none" xmlns="http://www.w3.org/2000/svg">
<path d="M1296 387.997C1268.2 381.403 1156.63 318.418 1141.06 305.869C1125.42 297.018 1105 288.633 1088.19 282.575C1072.13 276.788 1053.35 273.758 1036.94 273.758C1015.05 273.758 974.005 276.495 964.884 277.863C955.762 279.231 906.891 287.897 878.684 318.454C850.477 349.012 854.055 357.677 854.055 357.677M1005.93 461.208C1013.39 465.502 1110.39 507.433 1134.09 535.094C1147.64 546.818 1160.65 560.201 1160.65 589.73C1160.65 605.301 1155.8 626.572 1146.17 636.344C1128.06 654.722 1109.51 660.839 1088.19 665.864C967.426 681.46 982.671 614.58 913.346 604.875C898.144 602.746 860.258 603.78 830.339 624.942C800.42 646.104 803.582 642.121 797.957 645.466M975.374 449.35L948.009 438.86M918.819 429.739L902.856 421.985" stroke="#131313" stroke-width="1.36825" stroke-linecap="round"/>
<circle cx="3.80069" cy="3.80069" r="3.80069" transform="matrix(-1 0 0 1 1192.01 330.312)" fill="#131313"/>
<circle cx="3.80069" cy="3.80069" r="3.80069" transform="matrix(-1 0 0 1 914.715 291.089)" fill="#131313"/>
<path d="M765.961 643.966C765.206 643.966 764.558 643.768 764.017 643.373C763.481 642.977 763.07 642.406 762.785 641.659C762.504 640.908 762.363 639.999 762.363 638.931C762.363 637.868 762.506 636.961 762.791 636.209C763.077 635.454 763.488 634.878 764.024 634.483C764.564 634.083 765.21 633.883 765.961 633.883C766.717 633.883 767.363 634.083 767.899 634.483C768.439 634.878 768.85 635.454 769.131 636.209C769.417 636.961 769.559 637.868 769.559 638.931C769.559 639.999 769.419 640.908 769.138 641.659C768.856 642.406 768.448 642.977 767.912 643.373C767.376 643.768 766.726 643.966 765.961 643.966ZM765.961 642.7C766.423 642.7 766.811 642.553 767.128 642.259C767.444 641.965 767.686 641.536 767.853 640.974C768.02 640.407 768.103 639.726 768.103 638.931C768.103 638.131 768.02 637.45 767.853 636.888C767.686 636.321 767.444 635.891 767.128 635.597C766.811 635.298 766.423 635.148 765.961 635.148C765.28 635.148 764.753 635.48 764.38 636.143C764.011 636.802 763.826 637.732 763.826 638.931C763.826 639.726 763.91 640.407 764.077 640.974C764.243 641.536 764.485 641.965 764.801 642.259C765.122 642.553 765.509 642.7 765.961 642.7ZM770.706 643.834V642.766L774.027 639.313C774.379 638.944 774.669 638.619 774.897 638.338C775.13 638.052 775.304 637.782 775.418 637.527C775.536 637.273 775.596 637.002 775.596 636.717C775.596 636.387 775.519 636.104 775.365 635.867C775.211 635.629 775.003 635.447 774.739 635.32C774.475 635.192 774.177 635.129 773.843 635.129C773.491 635.129 773.186 635.201 772.927 635.346C772.668 635.487 772.466 635.689 772.321 635.952C772.18 636.212 772.11 636.517 772.11 636.868H770.699C770.699 636.271 770.836 635.748 771.108 635.3C771.385 634.852 771.763 634.505 772.241 634.259C772.725 634.008 773.269 633.883 773.876 633.883C774.495 633.883 775.04 634.006 775.51 634.252C775.98 634.498 776.347 634.832 776.611 635.254C776.874 635.671 777.006 636.143 777.006 636.671C777.006 637.035 776.938 637.391 776.802 637.738C776.67 638.085 776.435 638.474 776.097 638.905C775.763 639.331 775.297 639.845 774.7 640.447L772.749 642.49V642.569H777.164V643.834H770.706Z" fill="#131313"/>
<path d="M617.804 85.3961C608.145 99.994 569.675 151.27 561.592 162.872C551.488 177.374 431.593 284.226 376.817 272.457C309.931 258.087 299.389 184.487 286.952 163.117C269.576 133.26 238.015 111.531 216.451 110.025C190.713 108.227 184.835 108.481 171.298 110.025C124.489 115.362 102.444 136.593 87.3791 150.616C72.3139 164.639 58.2346 182.083 55.4836 191.755C47.8558 218.572 46.8073 235.415 48.3362 251.432C51.8617 288.362 74.1314 307.809 96.6416 304.159C106.778 302.515 115.245 291.204 118.446 274.324C122.387 253.542 119.331 246.843 112.066 232.368C98.3182 204.974 56.6577 179.879 33.4496 174.892C10.5756 169.978 -32.0595 171.495 -54.316 188.223C-71.7204 201.304 -74.6965 200.56 -92.5621 211.399C-114.064 224.445 -133.38 234.127 -157.526 256.657C-191.926 288.753 -208.092 365.021 -205.149 407.699C-201.978 453.672 -152.322 562.019 -71.4452 544.629C-37.9099 537.418 -28.4465 532.454 -7.14231 544.029C23.3519 560.596 22.1662 596.835 55.547 601.814C112.066 610.246 156.572 561.849 179.508 536.918C221.468 491.31 283.951 485.381 315.421 516.851C340.034 541.464 384.745 557.898 401.164 565.195" stroke="#131313" stroke-width="1.36825" stroke-linecap="round"/>
<circle cx="3.80069" cy="3.80069" r="3.80069" transform="matrix(-0.977688 -0.210061 -0.210061 0.977688 113.739 295.423)" fill="#131313"/>
<circle cx="3.80069" cy="3.80069" r="3.80069" transform="matrix(-0.977688 -0.210061 -0.210061 0.977688 406.544 563.599)" fill="#131313"/>
<circle cx="3.80069" cy="3.80069" r="3.80069" transform="matrix(-0.977688 -0.210061 -0.210061 0.977688 623.028 80.7367)" fill="#131313"/>
</svg>
