<svg width="1303" height="663" viewBox="0 0 1303 663" fill="none" xmlns="http://www.w3.org/2000/svg">
<path d="M141.052 227.144C140.223 227.144 139.513 226.928 138.92 226.494C138.333 226.061 137.883 225.435 137.569 224.616C137.261 223.792 137.107 222.795 137.107 221.625C137.107 220.459 137.264 219.465 137.577 218.641C137.89 217.813 138.34 217.182 138.928 216.748C139.52 216.31 140.228 216.091 141.052 216.091C141.88 216.091 142.588 216.31 143.176 216.748C143.768 217.182 144.218 217.813 144.527 218.641C144.84 219.465 144.996 220.459 144.996 221.625C144.996 222.795 144.842 223.792 144.534 224.616C144.226 225.435 143.778 226.061 143.19 226.494C142.603 226.928 141.89 227.144 141.052 227.144ZM141.052 225.757C141.557 225.757 141.984 225.596 142.33 225.273C142.677 224.951 142.942 224.481 143.125 223.865C143.308 223.243 143.4 222.497 143.4 221.625C143.4 220.748 143.308 220.002 143.125 219.385C142.942 218.764 142.677 218.292 142.33 217.969C141.984 217.642 141.557 217.478 141.052 217.478C140.305 217.478 139.727 217.842 139.318 218.569C138.913 219.291 138.711 220.31 138.711 221.625C138.711 222.497 138.802 223.243 138.985 223.865C139.168 224.481 139.433 224.951 139.78 225.273C140.132 225.596 140.556 225.757 141.052 225.757ZM150.14 216.236V227H148.536V217.868H148.464L145.907 219.552V217.991L148.58 216.236H150.14Z" fill="#131313"/>
<path d="M375.086 355C350.586 408.5 294.587 439.846 256.586 462.5C230.586 478 204.675 486.622 189.086 486.622C115.447 486.622 32.4519 477.543 9.58644 407.5C-6.95427 356.831 -0.913181 311 45.5866 266C63.5264 246.21 97.5866 239 125.586 232.5M395.087 270C427.477 185.617 474.087 129 526.587 95.0001C579.087 61.0001 625.933 64.5001 666.086 64.5001C696.586 70.5001 717.135 83.1197 738.599 107C764.587 141 760.587 183.5 760.587 183.5C760.587 183.5 759.086 212.5 735.586 267.5M1219.59 369.5C1217.59 413.5 1184.82 481.516 1158.59 505C1082.09 581.5 956.586 640.5 903.586 650C836.086 662.099 767.086 662.5 709.586 659.5C655.086 648.5 649.008 643.119 607.086 613.5C570.476 576.279 572.813 524.132 584.586 488.5L678.586 372.5M1229.59 268.5C1245.37 199.612 1114.25 179.755 1093.59 115C1071.09 44.5 1138.39 -13.1 1201.59 4.49998C1264.79 22.1 1285.42 42.1668 1297.59 64.5001" stroke="#131313" stroke-width="1.5" stroke-linecap="round"/>
<ellipse cx="183.881" cy="487" rx="4.29495" ry="4" fill="#131313"/>
<circle cx="495.087" cy="118.5" r="4.5" fill="#131313"/>
<ellipse cx="707.881" cy="659" rx="4.29495" ry="4" fill="#131313"/>
<ellipse cx="1069.88" cy="576" rx="4.29495" ry="4" fill="#131313"/>
<ellipse cx="1297.88" cy="67" rx="4.29495" ry="4" fill="#131313"/>
</svg>
