<svg width="1686" height="840" viewBox="0 0 1686 840" fill="none" xmlns="http://www.w3.org/2000/svg">
<path d="M1685 503.195C1654.52 495.966 1532.21 426.916 1515.13 413.159C1498 403.456 1475.61 394.263 1457.18 387.622C1439.58 381.277 1418.98 377.956 1401 377.956C1377 377.956 1332 380.956 1322 382.456C1312 383.956 1258.42 393.456 1227.5 426.956C1196.58 460.456 1200.5 469.956 1200.5 469.956M1367 583.456C1375.18 588.163 1481.52 634.132 1507.5 664.456C1522.36 677.309 1536.62 691.98 1536.62 724.353C1536.62 741.423 1531.3 764.743 1520.74 775.456C1500.89 795.603 1480.55 802.31 1457.18 807.818C1324.79 824.916 1341.5 751.596 1265.5 740.956C1248.83 738.622 1207.3 739.756 1174.5 762.956C1141.7 786.156 1145.17 781.789 1139 785.456M1333.5 570.456L1303.5 558.956M1271.5 548.956L1254 540.456" stroke="#131313" stroke-width="1.5" stroke-linecap="round"/>
<circle cx="4.16667" cy="4.16667" r="4.16667" transform="matrix(-1 0 0 1 1571 439.956)" fill="#131313"/>
<circle cx="4.16667" cy="4.16667" r="4.16667" transform="matrix(-1 0 0 1 1267 396.956)" fill="#131313"/>
<path d="M1121.46 800.1C1120.64 800.1 1119.93 799.884 1119.33 799.45C1118.75 799.017 1118.3 798.39 1117.98 797.572C1117.67 796.748 1117.52 795.751 1117.52 794.581C1117.52 793.415 1117.68 792.421 1117.99 791.597C1118.3 790.769 1118.75 790.138 1119.34 789.704C1119.93 789.266 1120.64 789.047 1121.46 789.047C1122.29 789.047 1123 789.266 1123.59 789.704C1124.18 790.138 1124.63 790.769 1124.94 791.597C1125.25 792.421 1125.41 793.415 1125.41 794.581C1125.41 795.751 1125.25 796.748 1124.95 797.572C1124.64 798.39 1124.19 799.017 1123.6 799.45C1123.02 799.884 1122.3 800.1 1121.46 800.1ZM1121.46 798.713C1121.97 798.713 1122.4 798.552 1122.74 798.229C1123.09 797.906 1123.35 797.437 1123.54 796.82C1123.72 796.199 1123.81 795.452 1123.81 794.581C1123.81 793.704 1123.72 792.958 1123.54 792.341C1123.35 791.72 1123.09 791.248 1122.74 790.925C1122.4 790.598 1121.97 790.434 1121.46 790.434C1120.72 790.434 1120.14 790.798 1119.73 791.525C1119.33 792.247 1119.12 793.266 1119.12 794.581C1119.12 795.452 1119.22 796.199 1119.4 796.82C1119.58 797.437 1119.85 797.906 1120.19 798.229C1120.54 798.552 1120.97 798.713 1121.46 798.713ZM1126.67 799.956V798.785L1130.31 795C1130.69 794.595 1131.01 794.239 1131.26 793.931C1131.52 793.617 1131.71 793.321 1131.83 793.042C1131.96 792.763 1132.03 792.466 1132.03 792.153C1132.03 791.792 1131.94 791.481 1131.77 791.221C1131.61 790.961 1131.38 790.761 1131.09 790.622C1130.8 790.482 1130.47 790.412 1130.1 790.412C1129.72 790.412 1129.38 790.492 1129.1 790.651C1128.82 790.805 1128.59 791.026 1128.44 791.315C1128.28 791.599 1128.2 791.934 1128.2 792.319H1126.66C1126.66 791.664 1126.81 791.091 1127.11 790.6C1127.41 790.109 1127.82 789.728 1128.35 789.459C1128.88 789.184 1129.48 789.047 1130.14 789.047C1130.82 789.047 1131.42 789.182 1131.93 789.451C1132.45 789.721 1132.85 790.087 1133.14 790.549C1133.43 791.007 1133.57 791.525 1133.57 792.103C1133.57 792.502 1133.5 792.893 1133.35 793.273C1133.2 793.654 1132.95 794.08 1132.58 794.552C1132.21 795.019 1131.7 795.583 1131.04 796.242L1128.91 798.482V798.569H1133.75V799.956H1126.67Z" fill="#131313"/>
<path d="M941.5 171.456C930.911 187.459 888.737 243.673 879.875 256.392C868.798 272.291 737.358 389.432 677.308 376.529C603.981 360.775 592.424 280.089 578.789 256.66C559.74 223.928 525.14 200.107 501.5 198.456C473.284 196.485 466.839 196.764 452 198.456C400.683 204.307 376.515 227.582 360 242.956C343.484 258.329 328.049 277.453 325.033 288.056C316.671 317.456 315.521 335.921 317.197 353.479C321.062 393.966 345.476 415.285 370.154 411.284C381.267 409.482 390.549 397.081 394.058 378.575C398.378 355.793 395.028 348.449 387.064 332.58C371.992 302.548 326.32 275.036 300.877 269.57C275.801 264.182 229.06 265.846 204.66 284.184C185.58 298.525 182.317 297.709 162.732 309.592C139.159 323.894 117.983 334.508 91.5118 359.208C53.8002 394.394 36.0766 478.006 39.3038 524.793C42.7801 575.194 97.2173 693.973 185.882 674.909C222.646 667.004 233.021 661.562 256.377 674.251C289.807 692.414 288.507 732.142 325.102 737.601C387.064 746.844 435.855 693.787 461 666.456C507 616.456 575.5 609.956 610 644.456C636.983 671.44 686 689.456 704 697.456" stroke="#131313" stroke-width="1.5" stroke-linecap="round"/>
<circle cx="4.16667" cy="4.16667" r="4.16667" transform="matrix(-0.977688 -0.210061 -0.210061 0.977688 388.897 401.706)" fill="#131313"/>
<circle cx="4.16667" cy="4.16667" r="4.16667" transform="matrix(-0.977688 -0.210061 -0.210061 0.977688 709.897 695.706)" fill="#131313"/>
<circle cx="4.16667" cy="4.16667" r="4.16667" transform="matrix(-0.977688 -0.210061 -0.210061 0.977688 583.897 255.706)" fill="#131313"/>
</svg>
