<svg width="76" height="34" viewBox="0 0 76 34" fill="none" xmlns="http://www.w3.org/2000/svg">
<g clip-path="url(#clip0_760_14327)">
<path d="M0 0.233032H2.06928V6.8708H4.28906V0.233032H6.35833V16.5363H4.28906V9.19986H2.06928V16.5363H0V0.233032Z" fill="#A2A19D"/>
<path d="M9.74293 16.7691C8.73966 16.7691 7.9809 16.4197 7.46673 15.721C6.95255 15.0068 6.69547 13.9898 6.69547 12.67V11.7384H8.65188V12.8563C8.65188 13.9121 9.00929 14.4401 9.72413 14.4401C10.0753 14.4401 10.3386 14.3158 10.5142 14.0674C10.7023 13.8035 10.7964 13.3842 10.7964 12.8097C10.7964 12.1266 10.671 11.5288 10.4202 11.0164C10.1693 10.4884 9.70531 9.85962 9.02811 9.12985C8.17529 8.19822 7.57962 7.35977 7.24101 6.61449C6.90239 5.85366 6.73309 4.99966 6.73309 4.05253C6.73309 2.7638 6.99646 1.77007 7.52317 1.07136C8.04989 0.357121 8.8149 0 9.81817 0C10.8089 0 11.5551 0.357121 12.0567 1.07136C12.571 1.77007 12.828 2.77932 12.828 4.09913V4.77453H10.8716V3.93607C10.8716 3.37711 10.7839 2.97341 10.6083 2.72498C10.4327 2.46102 10.1756 2.32904 9.83699 2.32904C9.14723 2.32904 8.80236 2.8492 8.80236 3.88951C8.80236 4.47951 8.92776 5.03072 9.17859 5.54313C9.44197 6.05551 9.91223 6.6766 10.5895 7.40634C11.4548 8.33796 12.0505 9.18419 12.3766 9.94501C12.7026 10.7058 12.8657 11.5986 12.8657 12.6234C12.8657 13.9587 12.596 14.9835 12.0567 15.6977C11.53 16.412 10.7588 16.7691 9.74293 16.7691Z" fill="#A2A19D"/>
<path d="M13.2056 0.233032H18.8491V2.56207H15.2749V6.8708H18.1154V9.19986H15.2749V14.2073H18.8491V16.5363H13.2056V0.233032Z" fill="#A2A19D"/>
<path d="M22.9582 0.233032H25.7611L27.9057 16.5363H25.8364L25.4602 13.299V13.3456H23.1087L22.7325 16.5363H20.8137L22.9582 0.233032ZM25.2156 11.133L24.2939 3.07446H24.2562L23.3533 11.133H25.2156Z" fill="#A2A19D"/>
<path d="M28.0631 0.233032H31.1294C32.1954 0.233032 32.973 0.54357 33.462 1.16465C33.9511 1.7702 34.1957 2.70958 34.1957 3.9828V4.98428C34.1957 6.67673 33.7442 7.74809 32.8413 8.19835V8.24492C33.3429 8.43126 33.6941 8.81167 33.8947 9.38616C34.1079 9.96065 34.2145 10.7293 34.2145 11.6919V14.5567C34.2145 15.0225 34.2271 15.4029 34.2521 15.6979C34.2772 15.9774 34.3399 16.2568 34.4402 16.5363H32.3333C32.2581 16.2724 32.2079 16.0239 32.1829 15.791C32.1578 15.5581 32.1452 15.1389 32.1452 14.5334V11.5522C32.1452 10.8069 32.0449 10.2867 31.8443 9.99171C31.6561 9.69669 31.3238 9.54918 30.8472 9.54918H30.1324V16.5363H28.0631V0.233032ZM30.8849 7.22016C31.2987 7.22016 31.606 7.08816 31.8066 6.82424C32.0198 6.56028 32.1264 6.11775 32.1264 5.49666V4.23899C32.1264 3.64896 32.0386 3.22197 31.863 2.95801C31.7 2.69406 31.4366 2.56207 31.073 2.56207H30.1324V7.22016H30.8849Z" fill="#A2A19D"/>
<path d="M36.3846 2.56207H34.2214V0.233032H40.6172V2.56207H38.4539V16.5363H36.3846V2.56207Z" fill="#A2A19D"/>
<path d="M44.5381 0.233032H47.3408L49.4854 16.5363H47.4161L47.0399 13.299V13.3456H44.6884L44.3122 16.5363H42.3935L44.5381 0.233032ZM46.7953 11.133L45.8736 3.07446H45.836L44.933 11.133H46.7953Z" fill="#A2A19D"/>
<path d="M49.6429 0.233032H52.2386L54.2516 9.99171H54.2892V0.233032H56.1329V16.5363H54.007L51.5239 4.63492H51.4862V16.5363H49.6429V0.233032Z" fill="#A2A19D"/>
<path d="M56.8242 0.233032H59.9848C61.0128 0.233032 61.7842 0.574626 62.2983 1.25781C62.8126 1.941 63.0697 2.94249 63.0697 4.26228V12.5071C63.0697 13.8269 62.8126 14.8284 62.2983 15.5116C61.7842 16.1947 61.0128 16.5363 59.9848 16.5363H56.8242V0.233032ZM59.9471 14.2073C60.2856 14.2073 60.5427 14.0831 60.7182 13.8347C60.9064 13.5862 61.0004 13.1825 61.0004 12.6235V4.14582C61.0004 3.58684 60.9064 3.18315 60.7182 2.93472C60.5427 2.68629 60.2856 2.56207 59.9471 2.56207H58.8935V14.2073H59.9471Z" fill="#A2A19D"/>
<path d="M0 16.9729H3.16035C4.18871 16.9729 4.96 17.3145 5.47418 17.9977C5.98835 18.6809 6.24544 19.6823 6.24544 21.0021V29.2469C6.24544 30.5667 5.98835 31.5682 5.47418 32.2514C4.96 32.9346 4.18871 33.2762 3.16035 33.2762H0V16.9729ZM3.12272 30.9471C3.46132 30.9471 3.71844 30.8229 3.894 30.5745C4.0821 30.3261 4.17617 29.9224 4.17617 29.3634V20.8857C4.17617 20.3267 4.0821 19.923 3.894 19.6746C3.71844 19.4261 3.46132 19.3019 3.12272 19.3019H2.06928V30.9471H3.12272Z" fill="#A2A19D"/>
<path d="M6.79568 16.9729H12.4392V19.3019H8.86496V23.6106H11.7055V25.9397H8.86496V30.9471H12.4392V33.2762H6.79568V16.9729Z" fill="#A2A19D"/>
<path d="M15.5099 33.5092C14.5066 33.5092 13.7478 33.1598 13.2337 32.4611C12.7195 31.7469 12.4624 30.7299 12.4624 29.4101V28.4785H14.4188V29.5964C14.4188 30.6523 14.7762 31.1801 15.491 31.1801C15.8422 31.1801 16.1056 31.056 16.2811 30.8075C16.4693 30.5435 16.5633 30.1243 16.5633 29.5498C16.5633 28.8666 16.4379 28.2689 16.1871 27.7565C15.9363 27.2286 15.4722 26.5997 14.795 25.87C13.9422 24.9383 13.3465 24.0999 13.0079 23.3546C12.6693 22.5938 12.5 21.7398 12.5 20.7926C12.5 19.5039 12.7634 18.5102 13.2901 17.8115C13.8168 17.0972 14.5818 16.7401 15.5851 16.7401C16.5758 16.7401 17.3221 17.0972 17.8237 17.8115C18.3379 18.5102 18.595 19.5194 18.595 20.8392V21.5146H16.6385V20.6762C16.6385 20.1172 16.5508 19.7135 16.3752 19.4651C16.1996 19.2011 15.9425 19.0691 15.6039 19.0691C14.9142 19.0691 14.5693 19.5893 14.5693 20.6296C14.5693 21.2196 14.6947 21.7708 14.9455 22.2832C15.2089 22.7956 15.6792 23.4167 16.3564 24.1465C17.2217 25.0781 17.8174 25.9243 18.1435 26.6851C18.4696 27.4459 18.6326 28.3387 18.6326 29.3635C18.6326 30.6988 18.3629 31.7236 17.8237 32.4378C17.297 33.1521 16.5257 33.5092 15.5099 33.5092Z" fill="#A2A19D"/>
<path d="M18.9725 16.9729H21.0418V33.2762H18.9725V16.9729Z" fill="#A2A19D"/>
<path d="M24.6796 33.5092C23.6764 33.5092 22.9113 33.1598 22.3846 32.4611C21.8579 31.7469 21.5945 30.7299 21.5945 29.4101V20.8392C21.5945 19.5194 21.8579 18.5102 22.3846 17.8115C22.9113 17.0972 23.6764 16.7401 24.6796 16.7401C25.6829 16.7401 26.4479 17.0972 26.9747 17.8115C27.5014 18.5102 27.7647 19.5194 27.7647 20.8392V22.2366H25.8083V20.6762C25.8083 19.6048 25.4509 19.0691 24.7361 19.0691C24.0212 19.0691 23.6638 19.6048 23.6638 20.6762V29.5964C23.6638 30.6523 24.0212 31.1801 24.7361 31.1801C25.4509 31.1801 25.8083 30.6523 25.8083 29.5964V26.4056H24.7737V24.0766H27.7647V29.4101C27.7647 30.7299 27.5014 31.7469 26.9747 32.4611C26.4479 33.1598 25.6829 33.5092 24.6796 33.5092Z" fill="#A2A19D"/>
<path d="M28.2468 16.9729H30.8428L32.8556 26.7316H32.8933V16.9729H34.7369V33.2762H32.6111L30.1279 21.3748H30.0903V33.2762H28.2468V16.9729Z" fill="#A2A19D"/>
<path d="M40.2845 33.5092C39.2813 33.5092 38.5227 33.1598 38.0083 32.4611C37.4943 31.7469 37.2372 30.7299 37.2372 29.4101V28.4785H39.1936V29.5964C39.1936 30.6523 39.5511 31.1801 40.2658 31.1801C40.6168 31.1801 40.8804 31.056 41.0559 30.8075C41.2438 30.5435 41.3381 30.1243 41.3381 29.5498C41.3381 28.8666 41.2127 28.2689 40.9619 27.7565C40.7111 27.2286 40.2468 26.5997 39.5698 25.87C38.7168 24.9383 38.1213 24.0999 37.7827 23.3546C37.4442 22.5938 37.2749 21.7398 37.2749 20.7926C37.2749 19.5039 37.5381 18.5102 38.065 17.8115C38.5914 17.0972 39.3566 16.7401 40.3598 16.7401C41.3506 16.7401 42.0968 17.0972 42.5984 17.8115C43.1127 18.5102 43.3698 19.5194 43.3698 20.8392V21.5146H41.4134V20.6762C41.4134 20.1172 41.3254 19.7135 41.1499 19.4651C40.9744 19.2011 40.7174 19.0691 40.3788 19.0691C39.6889 19.0691 39.3442 19.5893 39.3442 20.6296C39.3442 21.2196 39.4696 21.7708 39.7204 22.2832C39.9836 22.7956 40.4538 23.4167 41.1312 24.1465C41.9966 25.0781 42.5921 25.9243 42.9182 26.6851C43.2444 27.4459 43.4074 28.3387 43.4074 29.3635C43.4074 30.6988 43.1376 31.7236 42.5984 32.4378C42.0715 33.1521 41.3005 33.5092 40.2845 33.5092Z" fill="#A2A19D"/>
<path d="M46.663 33.5092C45.6722 33.5092 44.9136 33.1598 44.3868 32.4611C43.8727 31.7624 43.6157 30.7764 43.6157 29.5032V20.746C43.6157 19.4728 43.8727 18.4869 44.3868 17.7882C44.9136 17.0895 45.6722 16.7401 46.663 16.7401C47.6537 16.7401 48.4061 17.0895 48.9205 17.7882C49.447 18.4869 49.7106 19.4728 49.7106 20.746V22.4695H47.7543V20.583C47.7543 19.5738 47.4092 19.0691 46.7196 19.0691C46.0298 19.0691 45.685 19.5738 45.685 20.583V29.6896C45.685 30.6833 46.0298 31.1801 46.7196 31.1801C47.4092 31.1801 47.7543 30.6833 47.7543 29.6896V27.1975H49.7106V29.5032C49.7106 30.7764 49.447 31.7624 48.9205 32.4611C48.4061 33.1598 47.6537 33.5092 46.663 33.5092Z" fill="#A2A19D"/>
<path d="M50.102 16.9729H52.1712V23.6106H54.3911V16.9729H56.4604V33.2762H54.3911V25.9397H52.1712V33.2762H50.102V16.9729Z" fill="#A2A19D"/>
<path d="M60.1461 33.5092C59.1301 33.5092 58.3525 33.1521 57.8132 32.4378C57.274 31.7236 57.0045 30.7143 57.0045 29.4101V20.8392C57.0045 19.5349 57.274 18.5257 57.8132 17.8115C58.3525 17.0972 59.1301 16.7401 60.1461 16.7401C61.1617 16.7401 61.9393 17.0972 62.4786 17.8115C63.0178 18.5257 63.2876 19.5349 63.2876 20.8392V29.4101C63.2876 30.7143 63.0178 31.7236 62.4786 32.4378C61.9393 33.1521 61.1617 33.5092 60.1461 33.5092ZM60.1461 31.1801C60.8608 31.1801 61.2184 30.6445 61.2184 29.5731V20.6762C61.2184 19.6048 60.8608 19.0691 60.1461 19.0691C59.431 19.0691 59.0738 19.6048 59.0738 20.6762V29.5731C59.0738 30.6445 59.431 31.1801 60.1461 31.1801Z" fill="#A2A19D"/>
<path d="M66.8313 33.5092C65.8157 33.5092 65.038 33.1521 64.4988 32.4378C63.9595 31.7236 63.6897 30.7143 63.6897 29.4101V20.8392C63.6897 19.5349 63.9595 18.5257 64.4988 17.8115C65.038 17.0972 65.8157 16.7401 66.8313 16.7401C67.8473 16.7401 68.6249 17.0972 69.1641 17.8115C69.7034 18.5257 69.9729 19.5349 69.9729 20.8392V29.4101C69.9729 30.7143 69.7034 31.7236 69.1641 32.4378C68.6249 33.1521 67.8473 33.5092 66.8313 33.5092ZM66.8313 31.1801C67.5464 31.1801 67.9036 30.6445 67.9036 29.5731V20.6762C67.9036 19.6048 67.5464 19.0691 66.8313 19.0691C66.1165 19.0691 65.759 19.6048 65.759 20.6762V29.5731C65.759 30.6445 66.1165 31.1801 66.8313 31.1801Z" fill="#A2A19D"/>
<path d="M70.5259 16.9729H72.5952V30.9471H76V33.2762H70.5259V16.9729Z" fill="#A2A19D"/>
</g>
<defs>
<clipPath id="clip0_760_14327">
<rect width="76" height="33.5091" fill="white"/>
</clipPath>
</defs>
</svg>
