<svg width="311" height="318" viewBox="0 0 311 318" fill="none" xmlns="http://www.w3.org/2000/svg">
<path d="M26.6967 101.792C34.458 92.4044 42.5871 85.6738 50.9171 76.823C60.6248 66.5081 79.1613 53.2216 90.9773 46.4212C106.019 37.7642 115.284 33.2239 130.068 24.1683C144.51 15.3226 161.605 9.75955 177.559 5.38809C192.801 1.21189 207.104 1.0002 222.676 1.0002C240.409 1.0002 258.303 0.886205 275.549 6.09015C297.47 12.7049 328.574 22.6877 335.071 50.8466C340.025 72.3206 333.567 96.0363 315.758 107.626C304.427 115 291.258 120.167 278.477 123.422C260.459 128.012 241.71 133.024 223.467 136.147C202.038 139.816 178.787 141.448 158.246 149.486C130.189 160.466 102.36 172.526 74.3459 183.361C65.2196 186.891 57.0838 192.087 48.1468 195.998C41.0672 199.096 30.4757 206.284 24.7921 212.101C10.5132 226.714 1 238.376 1 259.685C1 270.92 5.60221 286.27 14.7449 293.321C31.9386 306.583 49.5481 310.997 69.7807 314.623C112.693 322.312 164.874 305.618 199.009 276.735C207.515 269.539 217.266 263.537 225.367 255.937C233.407 248.394 238.642 240.07 248.242 234.611C255.537 230.463 262.827 223.673 269.533 218.289C273.349 215.225 278.613 212.96 281.723 209.513" stroke="#202020" stroke-width="1.29775" stroke-linecap="round"/>
<path d="M49.0391 295.171C48.3125 295.171 47.6894 294.981 47.1698 294.601C46.6544 294.221 46.2594 293.671 45.9848 292.953C45.7145 292.231 45.5793 291.356 45.5793 290.33C45.5793 289.307 45.7166 288.435 45.9912 287.713C46.2658 286.986 46.6607 286.433 47.1761 286.053C47.6957 285.668 48.3167 285.476 49.0391 285.476C49.7657 285.476 50.3867 285.668 50.9021 286.053C51.4217 286.433 51.8167 286.986 52.087 287.713C52.3616 288.435 52.4989 289.307 52.4989 290.33C52.4989 291.356 52.3637 292.231 52.0934 292.953C51.823 293.671 51.4301 294.221 50.9148 294.601C50.3994 294.981 49.7742 295.171 49.0391 295.171ZM49.0391 293.954C49.4827 293.954 49.8565 293.813 50.1607 293.53C50.4649 293.247 50.6972 292.835 50.8577 292.294C51.0183 291.749 51.0985 291.094 51.0985 290.33C51.0985 289.561 51.0183 288.906 50.8577 288.365C50.6972 287.82 50.4649 287.406 50.1607 287.123C49.8565 286.836 49.4827 286.693 49.0391 286.693C48.3843 286.693 47.8774 287.011 47.5183 287.649C47.1635 288.283 46.986 289.177 46.986 290.33C46.986 291.094 47.0663 291.749 47.2268 292.294C47.3873 292.835 47.6197 293.247 47.9239 293.53C48.2322 293.813 48.604 293.954 49.0391 293.954ZM53.6015 295.044V294.018L56.7952 290.697C57.1331 290.342 57.412 290.03 57.6316 289.76C57.8555 289.485 58.0224 289.225 58.1322 288.98C58.2463 288.735 58.3033 288.475 58.3033 288.201C58.3033 287.884 58.2294 287.611 58.0815 287.383C57.9337 287.155 57.733 286.98 57.4795 286.857C57.2261 286.735 56.9388 286.674 56.6178 286.674C56.2798 286.674 55.9862 286.743 55.737 286.883C55.4877 287.018 55.2934 287.212 55.154 287.466C55.0188 287.715 54.9512 288.008 54.9512 288.346H53.5952C53.5952 287.772 53.7261 287.269 53.988 286.838C54.2542 286.407 54.6175 286.074 55.078 285.837C55.5426 285.596 56.0665 285.476 56.6494 285.476C57.2451 285.476 57.7689 285.594 58.2209 285.831C58.673 286.067 59.0257 286.388 59.2792 286.794C59.5326 287.195 59.6594 287.649 59.6594 288.156C59.6594 288.507 59.5939 288.849 59.4629 289.183C59.3362 289.517 59.1102 289.89 58.7849 290.304C58.4638 290.714 58.0161 291.208 57.4415 291.787L55.5659 293.752V293.828H59.8114V295.044H53.6015Z" fill="#202020"/>
<path d="M23.0831 120.407C22.3564 120.407 21.7333 120.217 21.2137 119.837C20.6984 119.457 20.3034 118.908 20.0288 118.19C19.7584 117.467 19.6232 116.593 19.6232 115.566C19.6232 114.544 19.7605 113.672 20.0351 112.949C20.3097 112.223 20.7047 111.669 21.2201 111.289C21.7397 110.905 22.3607 110.712 23.0831 110.712C23.8097 110.712 24.4307 110.905 24.946 111.289C25.4656 111.669 25.8606 112.223 26.131 112.949C26.4056 113.672 26.5429 114.544 26.5429 115.566C26.5429 116.593 26.4077 117.467 26.1373 118.19C25.867 118.908 25.4741 119.457 24.9587 119.837C24.4433 120.217 23.8181 120.407 23.0831 120.407ZM23.0831 119.191C23.5266 119.191 23.9005 119.049 24.2046 118.766C24.5088 118.483 24.7411 118.071 24.9017 117.531C25.0622 116.986 25.1425 116.331 25.1425 115.566C25.1425 114.797 25.0622 114.143 24.9017 113.602C24.7411 113.057 24.5088 112.643 24.2046 112.36C23.9005 112.073 23.5266 111.929 23.0831 111.929C22.4283 111.929 21.9213 112.248 21.5623 112.886C21.2074 113.519 21.03 114.413 21.03 115.566C21.03 116.331 21.1102 116.986 21.2708 117.531C21.4313 118.071 21.6636 118.483 21.9678 118.766C22.2762 119.049 22.6479 119.191 23.0831 119.191ZM31.0546 110.839V120.281H29.6478V112.271H29.5845L27.3413 113.748V112.379L29.6859 110.839H31.0546Z" fill="#202020"/>
</svg>
