<svg width="1325" height="168" viewBox="0 0 1325 168" fill="none" xmlns="http://www.w3.org/2000/svg">
<mask id="path-1-outside-1_1036_14125" maskUnits="userSpaceOnUse" x="0" y="0" width="1325" height="167" fill="black">
<rect fill="white" width="1325" height="167"/>
<path d="M60.8443 106.295L87.8108 37.003H108.973L70.1308 136.833H51.7363L13.6974 37.003H34.6813L60.8443 106.295ZM28.3415 37.003V136.833H2V37.003H28.3415ZM94.7757 136.833V37.003H120.76V136.833H94.7757ZM181.926 138.797C171.866 138.797 163.145 136.654 155.763 132.368C148.441 128.023 142.786 122.01 138.797 114.331C134.868 106.592 132.904 97.6033 132.904 87.3643C132.904 77.0063 134.868 67.9877 138.797 60.3085C142.786 52.5697 148.441 46.5573 155.763 42.2713C163.145 37.9257 171.866 35.7528 181.926 35.7528C192.046 35.7528 200.767 37.9257 208.089 42.2713C215.47 46.5573 221.126 52.5697 225.055 60.3085C229.043 67.9877 231.037 77.0063 231.037 87.3643C231.037 97.6033 229.043 106.592 225.055 114.331C221.126 122.01 215.47 128.023 208.089 132.368C200.767 136.654 192.046 138.797 181.926 138.797ZM182.104 117.188C186.688 117.188 190.528 115.908 193.623 113.349C196.719 110.729 199.04 107.158 200.588 102.633C202.195 98.1093 202.999 92.9601 202.999 87.1858C202.999 81.3519 202.195 76.2027 200.588 71.738C199.04 67.2734 196.719 63.7612 193.623 61.2014C190.528 58.6417 186.688 57.3618 182.104 57.3618C177.461 57.3618 173.562 58.6417 170.407 61.2014C167.312 63.7612 164.96 67.2734 163.353 71.738C161.805 76.2027 161.031 81.3519 161.031 87.1858C161.031 92.9601 161.805 98.1093 163.353 102.633C164.96 107.158 167.312 110.729 170.407 113.349C173.562 115.908 177.461 117.188 182.104 117.188ZM393.551 138.797C383.491 138.797 374.77 136.654 367.388 132.368C360.066 128.023 354.411 122.01 350.422 114.331C346.493 106.592 344.529 97.6033 344.529 87.3643C344.529 77.0063 346.493 67.9877 350.422 60.3085C354.411 52.5697 360.066 46.5573 367.388 42.2713C374.77 37.9257 383.491 35.7528 393.551 35.7528C403.671 35.7528 412.392 37.9257 419.714 42.2713C427.095 46.5573 432.751 52.5697 436.68 60.3085C440.668 67.9877 442.662 77.0063 442.662 87.3643C442.662 97.6033 440.668 106.592 436.68 114.331C432.751 122.01 427.095 128.023 419.714 132.368C412.392 136.654 403.671 138.797 393.551 138.797ZM393.73 117.188C398.313 117.188 402.153 115.908 405.248 113.349C408.344 110.729 410.665 107.158 412.213 102.633C413.82 98.1093 414.624 92.9601 414.624 87.1858C414.624 81.3519 413.82 76.2027 412.213 71.738C410.665 67.2734 408.344 63.7612 405.248 61.2014C402.153 58.6417 398.313 57.3618 393.73 57.3618C389.086 57.3618 385.187 58.6417 382.032 61.2014C378.937 63.7612 376.585 67.2734 374.978 71.738C373.43 76.2027 372.656 81.3519 372.656 87.1858C372.656 92.9601 373.43 98.1093 374.978 102.633C376.585 107.158 378.937 110.729 382.032 113.349C385.187 115.908 389.086 117.188 393.73 117.188ZM482.219 114.956H519.812V58.344H492.934L491.863 69.7736C491.148 80.4292 490.107 89.4776 488.738 96.9187C487.368 104.3 485.196 110.313 482.219 114.956ZM617.141 138.797C606.902 138.797 598.062 136.714 590.621 132.547C583.18 128.38 577.465 122.457 573.477 114.777C569.548 107.039 567.583 97.901 567.583 87.3643C567.583 77.1254 569.548 68.1365 573.477 60.3978C577.465 52.659 583.061 46.6169 590.264 42.2713C597.526 37.9257 606.039 35.7528 615.802 35.7528C622.41 35.7528 628.571 36.8244 634.286 38.9674C640 41.0509 645.001 44.2059 649.287 48.4325C653.573 52.5995 656.906 57.8678 659.288 64.2374C661.669 70.5475 662.859 77.9588 662.859 86.4714V93.9721H578.567V76.917H649.465L636.607 81.3817C636.607 76.3218 635.833 71.9166 634.286 68.1663C632.738 64.416 630.416 61.5288 627.321 59.5049C624.285 57.4213 620.505 56.3796 615.98 56.3796C611.456 56.3796 607.617 57.4213 604.462 59.5049C601.366 61.5884 598.985 64.416 597.318 67.9877C595.651 71.5594 594.818 75.6669 594.818 80.3102V92.3648C594.818 97.7819 595.77 102.425 597.675 106.295C599.58 110.104 602.229 113.051 605.622 115.135C609.075 117.159 613.034 118.171 617.498 118.171C620.594 118.171 623.392 117.724 625.892 116.831C628.392 115.938 630.535 114.629 632.321 112.902C634.167 111.176 635.536 109.092 636.429 106.652L661.966 108.348C660.716 114.48 658.097 119.837 654.109 124.421C650.18 128.945 645.09 132.487 638.839 135.047C632.589 137.547 625.356 138.797 617.141 138.797ZM844.839 67.8091H874.752C887.968 67.7496 898.236 70.8749 905.558 77.1849C912.94 83.495 916.661 91.9183 916.72 102.455C916.72 109.301 915.053 115.313 911.72 120.492C908.386 125.612 903.594 129.63 897.343 132.547C891.093 135.404 883.562 136.833 874.752 136.833H827.605V37.003H853.947V115.045H874.752C879.336 115.045 883.116 113.884 886.092 111.563C889.069 109.241 890.587 106.265 890.646 102.633C890.587 98.7641 889.069 95.6091 886.092 93.1684C883.116 90.7277 879.336 89.5372 874.752 89.5967H844.839V67.8091ZM1090.13 138.619C1078.82 138.619 1069.14 135.94 1061.11 130.582C1053.13 125.165 1047 117.397 1042.71 107.277C1038.49 97.0973 1036.37 84.8046 1036.37 70.3986C1036.37 56.0522 1038.52 43.7892 1042.8 33.6098C1047.09 23.3709 1053.22 15.5428 1061.2 10.1257C1069.23 4.70856 1078.88 2 1090.13 2C1101.44 2 1111.08 4.70856 1119.06 10.1257C1127.09 15.5428 1133.23 23.3411 1137.45 33.5205C1141.74 43.7 1143.88 55.9927 1143.88 70.3986C1143.88 84.8046 1141.77 97.0973 1137.54 107.277C1133.32 117.397 1127.18 125.165 1119.15 130.582C1111.17 135.94 1101.5 138.619 1090.13 138.619ZM1090.13 115.402C1095.54 115.402 1100.1 113.676 1103.79 110.223C1107.54 106.711 1110.37 101.592 1112.27 94.865C1114.24 88.1382 1115.22 79.9828 1115.22 70.3986C1115.22 60.755 1114.24 52.5697 1112.27 45.843C1110.37 39.1162 1107.54 33.9967 1103.79 30.4845C1100.1 26.9128 1095.54 25.127 1090.13 25.127C1082.09 25.127 1075.9 29.0856 1071.55 37.003C1067.21 44.8608 1065.04 55.9927 1065.04 70.3986C1065.04 79.9828 1065.99 88.1382 1067.89 94.865C1069.86 101.592 1072.72 106.711 1076.47 110.223C1080.22 113.676 1084.77 115.402 1090.13 115.402ZM1220.23 71.2916V93.2577H1159.51V71.2916H1220.23Z"/>
</mask>
<path d="M237.288 136.833L236.622 136.836L236.625 137.498H237.288V136.833ZM237.198 114.956V114.291H236.53L236.533 114.959L237.198 114.956ZM240.502 114.956V115.621L240.515 115.621L240.502 114.956ZM248.182 111.741L247.704 111.278L247.697 111.285L248.182 111.741ZM252.735 101.294L252.085 101.153L252.084 101.159L252.735 101.294ZM254.789 81.2924L254.124 81.2669L254.124 81.2688L254.789 81.2924ZM256.486 37.003V36.3377H255.845L255.821 36.9775L256.486 37.003ZM332.296 37.003H332.961V36.3377H332.296V37.003ZM305.954 58.7905H306.62V58.1252H305.954V58.7905ZM281.309 58.7905V58.1252H280.678L280.645 58.7555L281.309 58.7905ZM279.702 89.3288L279.038 89.2938L279.038 89.2956L279.702 89.3288ZM269.969 125.671L269.434 125.276L269.433 125.277L269.969 125.671ZM259.611 134.154L259.88 134.763L259.884 134.761L259.611 134.154ZM446.948 114.956V114.291H446.283V114.956H446.948ZM454.628 114.956V115.621H454.829L454.997 115.51L454.628 114.956ZM459.985 108.348L460.585 108.636L460.587 108.632L459.985 108.348ZM463.378 97.6331L462.728 97.4937L462.726 97.5008L463.378 97.6331ZM465.432 84.2391L464.771 84.1647L464.77 84.1729L465.432 84.2391ZM466.771 69.7736L466.108 69.7194L466.108 69.725L466.771 69.7736ZM469.45 37.003V36.3377H468.837L468.787 36.9488L469.45 37.003ZM545.885 37.003H546.55V36.3377H545.885V37.003ZM545.885 114.956H545.22V115.621H545.885V114.956ZM561.422 114.956H562.088V114.291H561.422V114.956ZM534.991 136.833H535.657V136.168H534.991V136.833ZM474.004 136.833V136.168H473.339V136.833H474.004ZM701.345 84.9534L701.896 85.3255L702.156 84.9399L701.884 84.5631L701.345 84.9534ZM666.61 37.003V36.3377H665.306L666.071 37.3932L666.61 37.003ZM698.13 37.003L698.684 36.6348L698.487 36.3377H698.13V37.003ZM724.115 76.1134L723.56 76.4816L723.758 76.7787H724.115V76.1134ZM728.401 76.1134V76.7787H729.066V76.1134H728.401ZM728.401 37.003V36.3377H727.735V37.003H728.401ZM755.903 37.003H756.568V36.3377H755.903V37.003ZM755.903 76.1134H755.238V76.7787H755.903V76.1134ZM760.1 76.1134V76.7787H760.456L760.654 76.4816L760.1 76.1134ZM786.084 37.003V36.3377H785.727L785.53 36.6348L786.084 37.003ZM817.694 37.003L818.233 37.3932L818.997 36.3377H817.694V37.003ZM782.959 84.9534L782.42 84.5631L782.147 84.9394L782.407 85.3249L782.959 84.9534ZM759.921 97.8117L760.474 97.4412L760.276 97.1464H759.921V97.8117ZM755.903 97.8117V97.1464H755.238V97.8117H755.903ZM755.903 136.833V137.498H756.568V136.833H755.903ZM728.401 136.833H727.735V137.498H728.401V136.833ZM728.401 97.8117H729.066V97.1464H728.401V97.8117ZM724.382 97.8117V97.1464H724.003L723.81 97.4734L724.382 97.8117ZM1021.64 3.78587H1022.3V3.12057H1021.64V3.78587ZM993.602 30.4845H994.267V29.8193H993.602V30.4845ZM992.798 30.4845V29.8193H992.605L992.442 29.9222L992.798 30.4845ZM962.438 49.6826H961.773V50.8904L962.794 50.2449L962.438 49.6826ZM962.438 24.6805L962.081 24.1191L961.773 24.3151V24.6805H962.438ZM995.298 3.78587V3.12057H995.105L994.941 3.22446L995.298 3.78587ZM1256.84 37.003L1257.43 36.697L1257.24 36.3377H1256.84V37.003ZM1274.96 72.0059L1274.37 72.3119L1274.95 73.4307L1275.55 72.3212L1274.96 72.0059ZM1293.81 37.003V36.3377H1293.41L1293.22 36.6876L1293.81 37.003ZM1322.29 37.003L1322.87 37.3361L1323.44 36.3377H1322.29V37.003ZM1293.36 87.0072L1292.78 86.674L1292.59 87.0119L1292.79 87.3474L1293.36 87.0072ZM1323 136.833V137.498H1324.17L1323.58 136.493L1323 136.833ZM1294.7 136.833L1294.12 137.163L1294.31 137.498H1294.7V136.833ZM1274.96 102.366L1275.54 102.035L1274.94 100.983L1274.38 102.056L1274.96 102.366ZM1256.84 87.0072L1257.41 87.3481L1257.61 87.0139L1257.42 86.6763L1256.84 87.0072ZM1228.18 37.003V36.3377H1227.03L1227.6 37.3338L1228.18 37.003ZM237.953 136.83L237.864 114.953L236.533 114.959L236.622 136.836L237.953 136.83ZM237.198 115.621H240.502V114.291H237.198V115.621ZM240.515 115.621C243.829 115.559 246.565 114.425 248.666 112.198L247.697 111.285C245.869 113.224 243.486 114.234 240.49 114.291L240.515 115.621ZM248.659 112.205C250.814 109.987 252.365 106.356 253.387 101.429L252.084 101.159C251.081 105.995 249.597 109.329 247.704 111.278L248.659 112.205ZM253.386 101.435C254.469 96.4387 255.156 89.7269 255.454 81.316L254.124 81.2688C253.827 89.6451 253.145 96.2677 252.085 101.153L253.386 101.435ZM255.454 81.3179L257.151 37.0284L255.821 36.9775L254.124 81.2669L255.454 81.3179ZM256.486 37.6682H332.296V36.3377H256.486V37.6682ZM331.63 37.003V136.833H332.961V37.003H331.63ZM305.954 58.1252H281.309V59.4558H305.954V58.1252ZM280.645 58.7555L279.038 89.2938L280.366 89.3638L281.974 58.8255L280.645 58.7555ZM279.038 89.2956C278.622 97.5975 277.615 104.722 276.023 110.677L277.309 111.02C278.931 104.95 279.948 97.7281 280.366 89.362L279.038 89.2956ZM276.023 110.677C274.432 116.631 272.23 121.49 269.434 125.276L270.504 126.066C273.423 122.113 275.686 117.091 277.309 111.02L276.023 110.677ZM269.433 125.277C266.699 128.999 263.336 131.751 259.338 133.547L259.884 134.761C264.101 132.866 267.643 129.963 270.505 126.065L269.433 125.277ZM259.342 133.545C255.394 135.287 250.816 136.168 245.592 136.168V137.498C250.965 137.498 255.732 136.593 259.88 134.763L259.342 133.545ZM245.592 136.168H237.288V137.498H245.592V136.168ZM446.948 115.621H454.628V114.291H446.948V115.621ZM454.997 115.51C457.263 113.998 459.119 111.69 460.585 108.636L459.385 108.06C457.994 110.959 456.278 113.056 454.258 114.402L454.997 115.51ZM460.587 108.632C462.043 105.537 463.189 101.913 464.03 97.7654L462.726 97.5008C461.901 101.568 460.784 105.087 459.383 108.065L460.587 108.632ZM464.029 97.7725C464.927 93.5786 465.616 89.0892 466.094 84.3053L464.77 84.1729C464.296 88.9135 463.615 93.3536 462.728 97.4937L464.029 97.7725ZM466.093 84.3135C466.63 79.5424 467.077 74.7119 467.435 69.8221L466.108 69.725C465.751 74.598 465.306 79.4112 464.771 84.1647L466.093 84.3135ZM467.434 69.8278L470.113 37.0572L468.787 36.9488L466.108 69.7194L467.434 69.8278ZM469.45 37.6682H545.885V36.3377H469.45V37.6682ZM545.22 37.003V114.956H546.55V37.003H545.22ZM545.885 115.621H561.422V114.291H545.885V115.621ZM560.757 114.956V166.032H562.088V114.956H560.757ZM534.991 136.168H474.004V137.498H534.991V136.168ZM473.339 136.833V166.032H474.669V136.833H473.339ZM666.893 137.205L701.896 85.3255L700.793 84.5813L665.79 136.461L666.893 137.205ZM701.884 84.5631L667.148 36.6127L666.071 37.3932L700.806 85.3437L701.884 84.5631ZM666.61 37.6682H698.13V36.3377H666.61V37.6682ZM697.576 37.3711L723.56 76.4816L724.669 75.7452L698.684 36.6348L697.576 37.3711ZM724.115 76.7787H728.401V75.4481H724.115V76.7787ZM729.066 76.1134V37.003H727.735V76.1134H729.066ZM728.401 37.6682H755.903V36.3377H728.401V37.6682ZM755.238 37.003V76.1134H756.568V37.003H755.238ZM755.903 76.7787H760.1V75.4481H755.903V76.7787ZM760.654 76.4816L786.638 37.3711L785.53 36.6348L759.546 75.7452L760.654 76.4816ZM786.084 37.6682H817.694V36.3377H786.084V37.6682ZM817.155 36.6127L782.42 84.5631L783.498 85.3437L818.233 37.3932L817.155 36.6127ZM782.407 85.3249L817.321 137.204L818.424 136.461L783.511 84.582L782.407 85.3249ZM759.921 97.1464H755.903V98.477H759.921V97.1464ZM755.238 97.8117V136.833H756.568V97.8117H755.238ZM755.903 136.168H728.401V137.498H755.903V136.168ZM729.066 136.833V97.8117H727.735V136.833H729.066ZM728.401 97.1464H724.382V98.477H728.401V97.1464ZM994.267 136.833V30.4845H992.936V136.833H994.267ZM993.602 29.8193H992.798V31.1498H993.602V29.8193ZM992.442 29.9222L962.083 49.1203L962.794 50.2449L993.154 31.0468L992.442 29.9222ZM963.104 49.6826V24.6805H961.773V49.6826H963.104ZM962.795 25.2419L995.655 4.34727L994.941 3.22446L962.081 24.1191L962.795 25.2419ZM995.298 4.45116H1021.64V3.12057H995.298V4.45116ZM1256.25 37.3089L1274.37 72.3119L1275.56 71.7L1257.43 36.697L1256.25 37.3089ZM1275.55 72.3212L1294.39 37.3183L1293.22 36.6876L1274.38 71.6906L1275.55 72.3212ZM1293.81 37.6682H1322.29V36.3377H1293.81V37.6682ZM1321.71 36.6698L1292.78 86.674L1293.93 87.3404L1322.87 37.3361L1321.71 36.6698ZM1292.79 87.3474L1322.43 137.173L1323.58 136.493L1293.93 86.667L1292.79 87.3474ZM1323 136.168H1294.7V137.498H1323V136.168ZM1295.28 136.502L1275.54 102.035L1274.39 102.696L1294.12 137.163L1295.28 136.502ZM1227.67 137.174L1257.41 87.3481L1256.27 86.6662L1226.53 136.492L1227.67 137.174ZM1257.42 86.6763L1228.75 36.6721L1227.6 37.3338L1256.26 87.338L1257.42 86.6763ZM1228.18 37.6682H1256.84V36.3377H1228.18V37.6682ZM305.289 58.7905V136.833H306.62V58.7905H305.289ZM446.283 114.956V166.032H447.614V114.956H446.283ZM534.326 136.833V166.032H535.657V136.833H534.326ZM723.81 97.4734L700.772 136.495L701.918 137.171L724.955 98.1499L723.81 97.4734ZM759.369 98.1822L785.532 137.203L786.637 136.462L760.474 97.4412L759.369 98.1822ZM1020.97 3.78587V136.833H1022.3V3.78587H1020.97ZM1274.38 102.056L1256.25 136.523L1257.43 137.142L1275.55 102.675L1274.38 102.056ZM60.8443 106.295L59.5995 106.765L60.8255 110.012L62.0842 106.777L60.8443 106.295ZM87.8108 37.003V35.6724H86.9009L86.5708 36.5204L87.8108 37.003ZM108.973 37.003L110.213 37.4854L110.919 35.6724H108.973V37.003ZM70.1308 136.833V138.163H71.0408L71.3708 137.315L70.1308 136.833ZM51.7363 136.833L50.493 137.307L50.8194 138.163H51.7363V136.833ZM13.6974 37.003V35.6724H11.7665L12.454 37.4767L13.6974 37.003ZM34.6813 37.003L35.9261 36.5329L35.6012 35.6724H34.6813V37.003ZM28.3415 37.003H29.6721V35.6724H28.3415V37.003ZM28.3415 136.833V138.163H29.6721V136.833H28.3415ZM2 136.833H0.669417V138.163H2V136.833ZM2 37.003V35.6724H0.669417V37.003H2ZM94.7757 136.833H93.4451V138.163H94.7757V136.833ZM94.7757 37.003V35.6724H93.4451V37.003H94.7757ZM120.76 37.003H122.091V35.6724H120.76V37.003ZM120.76 136.833V138.163H122.091V136.833H120.76ZM155.763 132.368L155.084 133.512L155.095 133.519L155.763 132.368ZM138.797 114.331L137.611 114.933L137.616 114.944L138.797 114.331ZM138.797 60.3085L137.615 59.6989L137.613 59.7024L138.797 60.3085ZM155.763 42.2713L156.435 43.4196L156.438 43.4179L155.763 42.2713ZM208.089 42.2713L207.41 43.4155L207.421 43.4219L208.089 42.2713ZM225.055 60.3085L223.868 60.9109L223.874 60.9218L225.055 60.3085ZM225.055 114.331L223.872 113.721L223.87 113.725L225.055 114.331ZM208.089 132.368L208.761 133.516L208.764 133.515L208.089 132.368ZM193.623 113.349L194.471 114.374L194.477 114.369L194.483 114.364L193.623 113.349ZM200.588 102.633L199.334 102.188L199.332 102.195L199.329 102.203L200.588 102.633ZM200.588 71.738L199.331 72.1739L199.334 72.1813L199.336 72.1887L200.588 71.738ZM170.407 61.2014L169.569 60.1681L169.559 60.176L170.407 61.2014ZM163.353 71.738L162.101 71.2873L162.098 71.2948L162.096 71.3022L163.353 71.738ZM163.353 102.633L162.094 103.064L162.096 103.072L162.099 103.079L163.353 102.633ZM170.407 113.349L169.548 114.364L169.558 114.373L169.569 114.382L170.407 113.349ZM367.388 132.368L366.709 133.512L366.72 133.519L367.388 132.368ZM350.422 114.331L349.236 114.933L349.241 114.944L350.422 114.331ZM350.422 60.3085L349.24 59.6989L349.238 59.7024L350.422 60.3085ZM367.388 42.2713L368.06 43.4196L368.063 43.4179L367.388 42.2713ZM419.714 42.2713L419.035 43.4155L419.046 43.4219L419.714 42.2713ZM436.68 60.3085L435.493 60.9109L435.499 60.9218L436.68 60.3085ZM436.68 114.331L435.497 113.721L435.495 113.725L436.68 114.331ZM419.714 132.368L420.386 133.516L420.389 133.515L419.714 132.368ZM405.248 113.349L406.096 114.374L406.102 114.369L406.108 114.364L405.248 113.349ZM412.213 102.633L410.959 102.188L410.957 102.195L410.954 102.203L412.213 102.633ZM412.213 71.738L410.956 72.1739L410.959 72.1813L410.961 72.1887L412.213 71.738ZM382.032 61.2014L381.194 60.1681L381.184 60.176L382.032 61.2014ZM374.978 71.738L373.726 71.2873L373.723 71.2948L373.721 71.3022L374.978 71.738ZM374.978 102.633L373.719 103.064L373.722 103.072L373.724 103.079L374.978 102.633ZM382.032 113.349L381.173 114.364L381.183 114.373L381.194 114.382L382.032 113.349ZM482.219 114.956L481.099 114.238L479.786 116.287H482.219V114.956ZM519.812 114.956V116.287H521.142V114.956H519.812ZM519.812 58.344H521.142V57.0135H519.812V58.344ZM492.934 58.344V57.0135H491.723L491.61 58.2198L492.934 58.344ZM491.863 69.7736L490.538 69.6494L490.536 69.667L490.535 69.6846L491.863 69.7736ZM488.738 96.9187L490.046 97.1614L490.046 97.1595L488.738 96.9187ZM573.477 114.777L572.29 115.38L572.296 115.391L573.477 114.777ZM573.477 60.3978L572.294 59.7882L572.29 59.7954L573.477 60.3978ZM590.264 42.2713L589.581 41.1295L589.577 41.132L590.264 42.2713ZM634.286 38.9674L633.818 40.2133L633.83 40.2175L634.286 38.9674ZM649.287 48.4325L648.353 49.3799L648.359 49.3865L649.287 48.4325ZM659.288 64.2374L658.041 64.7033L658.043 64.7072L659.288 64.2374ZM662.859 93.9721V95.3026H664.19V93.9721H662.859ZM578.567 93.9721H577.236V95.3026H578.567V93.9721ZM578.567 76.917V75.5865H577.236V76.917H578.567ZM649.465 76.917L649.902 78.174L649.465 75.5865V76.917ZM636.607 81.3817H635.277V83.2522L637.044 82.6387L636.607 81.3817ZM627.321 59.5049L626.568 60.6019L626.58 60.6104L626.593 60.6185L627.321 59.5049ZM604.462 59.5049L603.728 58.3945L603.719 58.401L604.462 59.5049ZM597.675 106.295L596.482 106.882L596.485 106.89L597.675 106.295ZM605.622 115.135L604.926 116.268L604.938 116.276L604.95 116.282L605.622 115.135ZM632.321 112.902L631.412 111.931L631.404 111.938L631.396 111.946L632.321 112.902ZM636.429 106.652L636.517 105.324L635.522 105.258L635.179 106.195L636.429 106.652ZM661.966 108.348L663.27 108.614L663.575 107.122L662.055 107.021L661.966 108.348ZM654.109 124.421L653.105 123.548L653.104 123.549L654.109 124.421ZM638.839 135.047L639.334 136.282L639.344 136.278L638.839 135.047ZM844.839 67.8091V66.4785H843.508V67.8091H844.839ZM874.752 67.8091V69.1397L874.758 69.1397L874.752 67.8091ZM905.558 77.1849L904.69 78.1929L904.694 78.1963L905.558 77.1849ZM916.72 102.455H918.051L918.051 102.447L916.72 102.455ZM911.72 120.492L912.835 121.218L912.839 121.212L911.72 120.492ZM897.343 132.547L897.897 133.757L897.906 133.752L897.343 132.547ZM827.605 136.833H826.275V138.163H827.605V136.833ZM827.605 37.003V35.6724H826.275V37.003H827.605ZM853.947 37.003H855.277V35.6724H853.947V37.003ZM853.947 115.045H852.616V116.376H853.947V115.045ZM890.646 102.633L891.977 102.655L891.977 102.634L891.977 102.613L890.646 102.633ZM874.752 89.5967V90.9273H874.761L874.77 90.9272L874.752 89.5967ZM844.839 89.5967H843.508V90.9273H844.839V89.5967ZM1061.11 130.582L1060.36 131.683L1060.37 131.689L1061.11 130.582ZM1042.71 107.277L1041.48 107.787L1041.49 107.796L1042.71 107.277ZM1042.8 33.6098L1044.03 34.1262L1044.03 34.1236L1042.8 33.6098ZM1061.2 10.1257L1060.45 9.02235L1060.45 9.02493L1061.2 10.1257ZM1119.06 10.1257L1118.31 11.2264L1118.31 11.229L1119.06 10.1257ZM1137.45 33.5205L1136.22 34.0308L1136.23 34.0369L1137.45 33.5205ZM1137.54 107.277L1138.77 107.79L1138.77 107.787L1137.54 107.277ZM1119.15 130.582L1119.89 131.687L1119.89 131.686L1119.15 130.582ZM1103.79 110.223L1104.7 111.195L1104.7 111.195L1103.79 110.223ZM1112.27 94.865L1111 94.492L1110.99 94.5024L1112.27 94.865ZM1112.27 45.843L1110.99 46.2055L1111 46.216L1112.27 45.843ZM1103.79 30.4845L1102.86 31.4407L1102.87 31.4483L1102.88 31.4557L1103.79 30.4845ZM1071.55 37.003L1072.72 37.6469L1072.72 37.6432L1071.55 37.003ZM1067.89 94.865L1066.61 95.2275L1066.62 95.238L1067.89 94.865ZM1076.47 110.223L1075.56 111.195L1075.56 111.202L1076.47 110.223ZM1220.23 71.2916H1221.56V69.961H1220.23V71.2916ZM1220.23 93.2577V94.5883H1221.56V93.2577H1220.23ZM1159.51 93.2577H1158.18V94.5883H1159.51V93.2577ZM1159.51 71.2916V69.961H1158.18V71.2916H1159.51ZM62.0842 106.777L89.0508 37.4855L86.5708 36.5204L59.6043 105.812L62.0842 106.777ZM87.8108 38.3335H108.973V35.6724H87.8108V38.3335ZM107.733 36.5205L68.8907 136.35L71.3708 137.315L110.213 37.4854L107.733 36.5205ZM70.1308 135.502H51.7363V138.163H70.1308V135.502ZM52.9797 136.359L14.9408 36.5292L12.454 37.4767L50.493 137.307L52.9797 136.359ZM13.6974 38.3335H34.6813V35.6724H13.6974V38.3335ZM33.4365 37.473L59.5995 106.765L62.0891 105.825L35.9261 36.5329L33.4365 37.473ZM27.0109 37.003V136.833H29.6721V37.003H27.0109ZM28.3415 135.502H2V138.163H28.3415V135.502ZM3.33058 136.833V37.003H0.669417V136.833H3.33058ZM2 38.3335H28.3415V35.6724H2V38.3335ZM96.1063 136.833V37.003H93.4451V136.833H96.1063ZM94.7757 38.3335H120.76V35.6724H94.7757V38.3335ZM119.429 37.003V136.833H122.091V37.003H119.429ZM120.76 135.502H94.7757V138.163H120.76V135.502ZM181.926 137.467C172.058 137.467 163.576 135.366 156.431 131.217L155.095 133.519C162.713 137.942 171.673 140.128 181.926 140.128V137.467ZM156.442 131.224C149.337 127.007 143.854 121.18 139.978 113.718L137.616 114.944C141.717 122.84 147.545 129.038 155.084 133.512L156.442 131.224ZM139.984 113.729C136.165 106.207 134.234 97.4315 134.234 87.3643H131.573C131.573 97.7752 133.572 106.977 137.611 114.933L139.984 113.729ZM134.234 87.3643C134.234 77.1751 136.166 68.3721 139.982 60.9145L137.613 59.7024C133.57 67.6033 131.573 76.8375 131.573 87.3643H134.234ZM139.98 60.9181C143.856 53.3975 149.337 47.5747 156.435 43.4196L155.091 41.1229C147.545 45.54 141.715 51.742 137.615 59.6989L139.98 60.9181ZM156.438 43.4179C163.582 39.2123 172.061 37.0834 181.926 37.0834V34.4223C171.67 34.4223 162.707 36.639 155.088 41.1246L156.438 43.4179ZM181.926 37.0834C191.852 37.0834 200.329 39.2131 207.41 43.4155L208.768 41.127C201.205 36.6382 192.239 34.4223 181.926 34.4223V37.0834ZM207.421 43.4219C214.576 47.5768 220.053 53.397 223.868 60.9108L226.241 59.7062C222.198 51.7425 216.365 45.5379 208.757 41.1206L207.421 43.4219ZM223.874 60.9218C227.746 68.3777 229.707 77.178 229.707 87.3643H232.368C232.368 76.8346 230.34 67.5978 226.235 59.6952L223.874 60.9218ZM229.707 87.3643C229.707 97.4285 227.747 106.202 223.872 113.721L226.237 114.94C230.339 106.983 232.368 97.7781 232.368 87.3643H229.707ZM223.87 113.725C220.055 121.181 214.576 127.005 207.414 131.222L208.764 133.515C216.365 129.04 222.196 122.839 226.239 114.937L223.87 113.725ZM207.417 131.22C200.335 135.365 191.855 137.467 181.926 137.467V140.128C192.236 140.128 201.199 137.943 208.761 133.516L207.417 131.22ZM182.104 118.519C186.952 118.519 191.104 117.159 194.471 114.374L192.775 112.323C189.952 114.658 186.425 115.858 182.104 115.858V118.519ZM194.483 114.364C197.792 111.564 200.236 107.775 201.847 103.064L199.329 102.203C197.845 106.541 195.645 109.895 192.764 112.333L194.483 114.364ZM201.842 103.079C203.509 98.3861 204.33 93.082 204.33 87.1858H201.669C201.669 92.8382 200.882 97.8326 199.334 102.188L201.842 103.079ZM204.33 87.1858C204.33 81.2323 203.51 75.9254 201.84 71.2873L199.336 72.1887C200.881 76.48 201.669 81.4716 201.669 87.1858H204.33ZM201.845 71.3022C200.232 66.6483 197.786 62.9167 194.471 60.176L192.775 62.2268C195.652 64.6057 197.849 67.8984 199.331 72.1739L201.845 71.3022ZM194.471 60.176C191.104 57.3915 186.952 56.0312 182.104 56.0312V58.6924C186.425 58.6924 189.952 59.8919 192.775 62.2268L194.471 60.176ZM182.104 56.0312C177.202 56.0312 172.994 57.389 169.569 60.1681L171.245 62.2347C174.13 59.8944 177.721 58.6924 182.104 58.6924V56.0312ZM169.559 60.176C166.249 62.9132 163.774 66.6394 162.101 71.2873L164.605 72.1887C166.146 67.9074 168.374 64.6091 171.255 62.2268L169.559 60.176ZM162.096 71.3022C160.49 75.9355 159.701 81.2371 159.701 87.1858H162.362C162.362 81.4668 163.121 76.4699 164.61 72.1739L162.096 71.3022ZM159.701 87.1858C159.701 93.0771 160.49 98.376 162.094 103.064L164.612 102.203C163.12 97.8426 162.362 92.843 162.362 87.1858H159.701ZM162.099 103.079C163.771 107.784 166.242 111.567 169.548 114.364L171.267 112.333C168.381 109.891 166.15 106.532 164.607 102.188L162.099 103.079ZM169.569 114.382C172.994 117.161 177.202 118.519 182.104 118.519V115.858C177.721 115.858 174.13 114.656 171.245 112.315L169.569 114.382ZM393.551 137.467C383.683 137.467 375.201 135.366 368.056 131.217L366.72 133.519C374.338 137.942 383.298 140.128 393.551 140.128V137.467ZM368.067 131.224C360.962 127.007 355.479 121.18 351.603 113.718L349.241 114.944C353.342 122.84 359.17 129.038 366.709 133.512L368.067 131.224ZM351.609 113.729C347.79 106.207 345.86 97.4315 345.86 87.3643H343.198C343.198 97.7752 345.197 106.977 349.236 114.933L351.609 113.729ZM345.86 87.3643C345.86 77.1751 347.791 68.3721 351.607 60.9145L349.238 59.7024C345.195 67.6033 343.198 76.8375 343.198 87.3643H345.86ZM351.605 60.9181C355.481 53.3975 360.962 47.5747 368.06 43.4196L366.716 41.1229C359.17 45.54 353.34 51.742 349.24 59.6989L351.605 60.9181ZM368.063 43.4179C375.207 39.2123 383.686 37.0834 393.551 37.0834V34.4223C383.295 34.4223 374.332 36.639 366.713 41.1246L368.063 43.4179ZM393.551 37.0834C403.477 37.0834 411.954 39.2131 419.035 43.4155L420.393 41.127C412.83 36.6382 403.864 34.4223 393.551 34.4223V37.0834ZM419.046 43.4219C426.201 47.5768 431.678 53.397 435.493 60.9108L437.866 59.7062C433.823 51.7425 427.99 45.5379 420.382 41.1206L419.046 43.4219ZM435.499 60.9218C439.371 68.3777 441.332 77.178 441.332 87.3643H443.993C443.993 76.8346 441.965 67.5978 437.86 59.6952L435.499 60.9218ZM441.332 87.3643C441.332 97.4285 439.372 106.202 435.497 113.721L437.862 114.94C441.964 106.983 443.993 97.7781 443.993 87.3643H441.332ZM435.495 113.725C431.68 121.181 426.201 127.005 419.039 131.222L420.389 133.515C427.99 129.04 433.821 122.839 437.864 114.937L435.495 113.725ZM419.042 131.22C411.96 135.365 403.48 137.467 393.551 137.467V140.128C403.861 140.128 412.824 137.943 420.386 133.516L419.042 131.22ZM393.73 118.519C398.577 118.519 402.729 117.159 406.096 114.374L404.4 112.323C401.577 114.658 398.05 115.858 393.73 115.858V118.519ZM406.108 114.364C409.418 111.564 411.861 107.775 413.472 103.064L410.954 102.203C409.47 106.541 407.27 109.895 404.389 112.333L406.108 114.364ZM413.467 103.079C415.134 98.3861 415.955 93.082 415.955 87.1858H413.294C413.294 92.8382 412.507 97.8326 410.959 102.188L413.467 103.079ZM415.955 87.1858C415.955 81.2323 415.135 75.9254 413.465 71.2873L410.961 72.1887C412.506 76.48 413.294 81.4716 413.294 87.1858H415.955ZM413.47 71.3022C411.857 66.6483 409.411 62.9167 406.096 60.176L404.4 62.2268C407.277 64.6057 409.474 67.8984 410.956 72.1739L413.47 71.3022ZM406.096 60.176C402.729 57.3915 398.577 56.0312 393.73 56.0312V58.6924C398.05 58.6924 401.577 59.8919 404.4 62.2268L406.096 60.176ZM393.73 56.0312C388.827 56.0312 384.619 57.389 381.194 60.1681L382.87 62.2347C385.755 59.8944 389.346 58.6924 393.73 58.6924V56.0312ZM381.184 60.176C377.874 62.9132 375.399 66.6394 373.726 71.2873L376.23 72.1887C377.771 67.9074 379.999 64.6091 382.88 62.2268L381.184 60.176ZM373.721 71.3022C372.115 75.9355 371.326 81.2371 371.326 87.1858H373.987C373.987 81.4668 374.746 76.4699 376.235 72.1739L373.721 71.3022ZM371.326 87.1858C371.326 93.0771 372.115 98.376 373.719 103.064L376.237 102.203C374.745 97.8426 373.987 92.843 373.987 87.1858H371.326ZM373.724 103.079C375.396 107.784 377.867 111.567 381.173 114.364L382.892 112.333C380.006 109.891 377.775 106.532 376.232 102.188L373.724 103.079ZM381.194 114.382C384.619 117.161 388.827 118.519 393.73 118.519V115.858C389.346 115.858 385.755 114.656 382.87 112.315L381.194 114.382ZM482.219 116.287H519.812V113.625H482.219V116.287ZM521.142 114.956V58.344H518.481V114.956H521.142ZM519.812 57.0135H492.934V59.6746H519.812V57.0135ZM491.61 58.2198L490.538 69.6494L493.188 69.8978L494.259 58.4682L491.61 58.2198ZM490.535 69.6846C489.823 80.3082 488.786 89.3027 487.429 96.6779L490.046 97.1595C491.427 89.6525 492.474 80.5503 493.19 69.8626L490.535 69.6846ZM487.429 96.6761C486.081 103.946 483.956 109.782 481.099 114.238L483.339 115.674C486.436 110.844 488.656 104.655 490.046 97.1614L487.429 96.6761ZM617.141 137.467C607.084 137.467 598.477 135.421 591.271 131.386L589.971 133.708C597.647 138.006 606.72 140.128 617.141 140.128V137.467ZM591.271 131.386C584.06 127.348 578.528 121.616 574.658 114.164L572.296 115.391C576.402 123.297 582.3 129.412 589.971 133.708L591.271 131.386ZM574.663 114.175C570.847 106.659 568.914 97.7359 568.914 87.3643H566.253C566.253 98.066 568.249 107.419 572.29 115.38L574.663 114.175ZM568.914 87.3643C568.914 77.2972 570.845 68.5215 574.663 61.0001L572.29 59.7954C568.251 67.7516 566.253 76.9535 566.253 87.3643H568.914ZM574.66 61.0074C578.539 53.4796 583.967 47.6243 590.951 43.4106L589.577 41.132C582.155 45.6095 576.391 51.8385 572.294 59.7882L574.66 61.0074ZM590.947 43.4131C597.973 39.2089 606.242 37.0834 615.802 37.0834V34.4223C605.836 34.4223 597.08 36.6424 589.581 41.1295L590.947 43.4131ZM615.802 37.0834C622.263 37.0834 628.265 38.1307 633.818 40.2133L634.753 37.7215C628.877 35.518 622.556 34.4223 615.802 34.4223V37.0834ZM633.83 40.2175C639.367 42.2363 644.204 45.2889 648.353 49.3799L650.221 47.4851C645.798 43.123 640.633 39.8655 634.741 37.7173L633.83 40.2175ZM648.359 49.3865C652.486 53.3987 655.72 58.4926 658.041 64.7033L660.534 63.7715C658.093 57.243 654.66 51.8003 650.214 47.4785L648.359 49.3865ZM658.043 64.7072C660.355 70.8335 661.529 78.0789 661.529 86.4714H664.19C664.19 77.8386 662.983 70.2614 660.533 63.7676L658.043 64.7072ZM661.529 86.4714V93.9721H664.19V86.4714H661.529ZM662.859 92.6415H578.567V95.3026H662.859V92.6415ZM579.897 93.9721V76.917H577.236V93.9721H579.897ZM578.567 78.2476H649.465V75.5865H578.567V78.2476ZM649.029 75.6601L636.171 80.1247L637.044 82.6387L649.902 78.174L649.029 75.6601ZM637.938 81.3817C637.938 76.1892 637.144 71.6044 635.516 67.6587L633.056 68.6739C634.523 72.2288 635.277 76.4543 635.277 81.3817H637.938ZM635.516 67.6587C633.876 63.6855 631.391 60.5762 628.049 58.3912L626.593 60.6185C629.442 62.4815 631.6 65.1464 633.056 68.6739L635.516 67.6587ZM628.074 58.4078C624.77 56.1405 620.711 55.049 615.98 55.049V57.7102C620.298 57.7102 623.8 58.7022 626.568 60.6019L628.074 58.4078ZM615.98 55.049C611.247 55.049 607.141 56.1411 603.728 58.3945L605.195 60.6152C608.093 58.7015 611.665 57.7102 615.98 57.7102V55.049ZM603.719 58.401C600.411 60.6272 597.875 63.6471 596.112 67.425L598.524 68.5504C600.094 65.1849 602.321 62.5495 605.205 60.6087L603.719 58.401ZM596.112 67.425C594.35 71.2016 593.487 75.5068 593.487 80.3102H596.148C596.148 75.8271 596.953 71.9173 598.524 68.5504L596.112 67.425ZM593.487 80.3102V92.3648H596.148V80.3102H593.487ZM593.487 92.3648C593.487 97.9348 594.467 102.789 596.482 106.882L598.869 105.707C597.074 102.061 596.148 97.629 596.148 92.3648H593.487ZM596.485 106.89C598.493 110.905 601.306 114.046 604.926 116.268L606.319 114.001C603.152 112.056 600.667 109.303 598.865 105.699L596.485 106.89ZM604.95 116.282C608.629 118.439 612.825 119.501 617.498 119.501V116.84C613.242 116.84 609.521 115.878 606.295 113.987L604.95 116.282ZM617.498 119.501C620.722 119.501 623.674 119.036 626.339 118.084L625.444 115.578C623.109 116.412 620.466 116.84 617.498 116.84V119.501ZM626.339 118.084C629.006 117.132 631.315 115.726 633.246 113.859L631.396 111.946C629.756 113.531 627.779 114.744 625.444 115.578L626.339 118.084ZM633.23 113.874C635.232 112.001 636.716 109.74 637.678 107.109L635.179 106.195C634.356 108.445 633.101 110.351 631.412 111.931L633.23 113.874ZM636.34 107.979L661.878 109.676L662.055 107.021L636.517 105.324L636.34 107.979ZM660.663 108.082C659.457 113.996 656.938 119.142 653.105 123.548L655.112 125.294C659.256 120.532 661.976 114.964 663.27 108.614L660.663 108.082ZM653.104 123.549C649.328 127.897 644.418 131.325 638.335 133.816L639.344 136.278C645.762 133.65 651.031 129.994 655.113 125.293L653.104 123.549ZM638.345 133.812C632.282 136.237 625.223 137.467 617.141 137.467V140.128C625.489 140.128 632.896 138.858 639.334 136.282L638.345 133.812ZM844.839 69.1397H874.752V66.4785H844.839V69.1397ZM874.758 69.1397C887.771 69.0811 897.688 72.1584 904.69 78.1929L906.427 76.177C898.785 69.5914 888.164 66.4181 874.746 66.4786L874.758 69.1397ZM904.694 78.1963C911.755 84.2321 915.332 92.2751 915.39 102.462L918.051 102.447C917.989 91.5615 914.125 82.7578 906.423 76.1735L904.694 78.1963ZM915.39 102.455C915.39 109.075 913.781 114.831 910.601 119.772L912.839 121.212C916.326 115.795 918.051 109.527 918.051 102.455H915.39ZM910.605 119.766C907.424 124.651 902.836 128.515 896.781 131.341L897.906 133.752C904.352 130.744 909.348 126.572 912.835 121.218L910.605 119.766ZM896.79 131.337C890.755 134.096 883.423 135.502 874.752 135.502V138.163C883.702 138.163 891.431 136.713 897.897 133.757L896.79 131.337ZM874.752 135.502H827.605V138.163H874.752V135.502ZM828.936 136.833V37.003H826.275V136.833H828.936ZM827.605 38.3335H853.947V35.6724H827.605V38.3335ZM852.616 37.003V115.045H855.277V37.003H852.616ZM853.947 116.376H874.752V113.715H853.947V116.376ZM874.752 116.376C879.567 116.376 883.654 115.153 886.911 112.612L885.274 110.514C882.578 112.616 879.105 113.715 874.752 113.715V116.376ZM886.911 112.612C890.19 110.054 891.91 106.707 891.977 102.655L889.316 102.612C889.263 105.823 887.948 108.428 885.274 110.514L886.911 112.612ZM891.977 102.613C891.911 98.3547 890.217 94.8299 886.936 92.1395L885.249 94.1973C887.921 96.3883 889.262 99.1735 889.316 102.654L891.977 102.613ZM886.936 92.1395C883.673 89.4636 879.57 88.2034 874.735 88.2662L874.77 90.9272C879.102 90.8709 882.559 91.9919 885.249 94.1973L886.936 92.1395ZM874.752 88.2661H844.839V90.9273H874.752V88.2661ZM846.17 89.5967V67.8091H843.508V89.5967H846.17ZM1090.13 137.288C1079.03 137.288 1069.63 134.664 1061.85 129.475L1060.37 131.689C1068.66 137.216 1078.6 139.949 1090.13 139.949V137.288ZM1061.85 129.482C1054.12 124.228 1048.14 116.676 1043.94 106.758L1041.49 107.796C1045.86 118.118 1052.14 126.103 1060.36 131.683L1061.85 129.482ZM1043.94 106.767C1039.8 96.7902 1037.7 84.6807 1037.7 70.3986H1035.04C1035.04 84.9286 1037.17 97.4045 1041.48 107.787L1043.94 106.767ZM1037.7 70.3986C1037.7 56.1789 1039.83 44.1012 1044.03 34.1262L1041.58 33.0935C1037.2 43.4773 1035.04 55.9254 1035.04 70.3986H1037.7ZM1044.03 34.1236C1048.23 24.0858 1054.21 16.4776 1061.94 11.2264L1060.45 9.02493C1052.23 14.608 1045.95 22.6559 1041.57 33.096L1044.03 34.1236ZM1061.94 11.229C1069.72 5.98272 1079.1 3.33058 1090.13 3.33058V0.669417C1078.66 0.669417 1068.74 3.43441 1060.45 9.02236L1061.94 11.229ZM1090.13 3.33058C1101.22 3.33058 1110.59 5.98358 1118.31 11.2264L1119.81 9.02493C1111.57 3.43355 1101.66 0.669417 1090.13 0.669417V3.33058ZM1118.31 11.229C1126.11 16.4809 1132.08 24.0582 1136.22 34.0308L1138.68 33.0103C1134.37 22.624 1128.08 14.6047 1119.8 9.02236L1118.31 11.229ZM1136.23 34.0369C1140.43 44.0113 1142.55 56.1186 1142.55 70.3986H1145.21C1145.21 55.8667 1143.05 43.3886 1138.68 33.0042L1136.23 34.0369ZM1142.55 70.3986C1142.55 84.6807 1140.46 96.7902 1136.31 106.767L1138.77 107.787C1143.08 97.4045 1145.21 84.9286 1145.21 70.3986H1142.55ZM1136.31 106.764C1132.17 116.677 1126.2 124.226 1118.4 129.479L1119.89 131.686C1128.17 126.105 1134.46 118.117 1138.77 107.79L1136.31 106.764ZM1118.41 129.478C1110.69 134.663 1101.28 137.288 1090.13 137.288V139.949C1101.71 139.949 1111.66 137.217 1119.89 131.687L1118.41 129.478ZM1090.13 116.733C1095.86 116.733 1100.74 114.896 1104.7 111.195L1102.88 109.252C1099.45 112.456 1095.23 114.072 1090.13 114.072V116.733ZM1104.7 111.195C1108.68 107.468 1111.6 102.106 1113.55 95.2275L1110.99 94.5024C1109.13 101.077 1106.4 105.955 1102.88 109.252L1104.7 111.195ZM1113.55 95.238C1115.56 88.3548 1116.55 80.0661 1116.55 70.3986H1113.89C1113.89 79.8994 1112.91 87.9216 1111 94.492L1113.55 95.238ZM1116.55 70.3986C1116.55 60.6725 1115.56 52.3538 1113.55 45.47L1111 46.216C1112.91 52.7857 1113.89 60.8374 1113.89 70.3986H1116.55ZM1113.55 45.4804C1111.6 38.6018 1108.68 33.2403 1104.7 29.5134L1102.88 31.4557C1106.4 34.7532 1109.13 39.6307 1110.99 46.2055L1113.55 45.4804ZM1104.71 29.5284C1100.76 25.7024 1095.87 23.7964 1090.13 23.7964V26.4575C1095.22 26.4575 1099.44 28.1233 1102.86 31.4407L1104.71 29.5284ZM1090.13 23.7964C1081.54 23.7964 1074.93 28.0838 1070.39 36.3627L1072.72 37.6432C1076.87 30.0875 1082.65 26.4575 1090.13 26.4575V23.7964ZM1070.39 36.359C1065.89 44.4987 1063.71 55.8896 1063.71 70.3986H1066.37C1066.37 56.0957 1068.53 45.2228 1072.72 37.6469L1070.39 36.359ZM1063.71 70.3986C1063.71 80.0634 1064.67 88.3483 1066.61 95.2275L1069.17 94.5024C1067.31 87.9281 1066.37 79.9021 1066.37 70.3986H1063.71ZM1066.62 95.238C1068.62 102.113 1071.58 107.471 1075.56 111.195L1077.38 109.252C1073.85 105.952 1071.09 101.07 1069.17 94.492L1066.62 95.238ZM1075.56 111.202C1079.57 114.894 1084.45 116.733 1090.13 116.733V114.072C1085.09 114.072 1080.86 112.459 1077.37 109.245L1075.56 111.202ZM1218.9 71.2916V93.2577H1221.56V71.2916H1218.9ZM1220.23 91.9271H1159.51V94.5883H1220.23V91.9271ZM1160.84 93.2577V71.2916H1158.18V93.2577H1160.84ZM1159.51 72.6221H1220.23V69.961H1159.51V72.6221Z" fill="black" mask="url(#path-1-outside-1_1036_14125)"/>
<circle cx="305.608" cy="134.566" r="2.7332" fill="#131313"/>
<circle cx="447.608" cy="164.566" r="2.7332" fill="#131313"/>
<circle cx="534.608" cy="164.566" r="2.7332" fill="#131313"/>
<circle cx="666.608" cy="136.566" r="2.7332" fill="#131313"/>
<circle cx="785.608" cy="136.566" r="2.7332" fill="#131313"/>
<circle cx="993.608" cy="136.566" r="2.7332" fill="#131313"/>
<circle cx="1227.61" cy="136.566" r="2.7332" fill="#131313"/>
<circle cx="332.075" cy="134.566" r="2.7332" fill="#131313"/>
<circle cx="474.075" cy="164.566" r="2.7332" fill="#131313"/>
<circle cx="561.075" cy="164.566" r="2.7332" fill="#131313"/>
<circle cx="701.608" cy="136.566" r="2.7332" fill="#131313"/>
<circle cx="817.608" cy="136.566" r="2.7332" fill="#131313"/>
<circle cx="1021.61" cy="136.566" r="2.7332" fill="#131313"/>
<circle cx="1257.61" cy="136.566" r="2.7332" fill="#131313"/>
</svg>
