<svg width="324" height="177" viewBox="0 0 324 177" fill="none" xmlns="http://www.w3.org/2000/svg">
<path d="M9.43231 22.9902C21.502 10.5268 38.5658 1 58.0958 1C66.3235 1 73.6606 1.72099 79.0682 7.34811C82.252 10.6613 84.2961 22.2849 74.6123 30.2511L32.9992 61.5M20 80.5C11.713 90.5608 -2.71042 109.291 1.85886 133.484C7.55112 150.921 32.0694 154.32 50.4015 154.32C54.2822 154.32 58.1629 154.32 62.0437 154.32C66.4267 154.32 70.5815 152.489 74.6123 151.13C102.638 139.916 111.491 119.595 109.499 83M108.07 67.593C106.701 46.4326 120.868 26.2373 134.394 18.3749C143.011 13.3662 153.564 13.8276 163.56 13.8276C172.599 13.8276 176.667 16.1629 182.01 22.1078C189.616 30.5701 186.115 40.5824 186.115 40.5824C186.115 40.5824 184.229 61.2827 178.5 69M137.072 124.602C125.621 138.542 121.171 160.325 130.285 169.591C140.722 176.965 154.243 176.832 167.105 176.277C178.598 175.78 188.638 169.306 198.003 164.433C203.243 161.707 207.095 155.947 211.383 152.11C217.915 146.264 217.477 147.617 220.594 140.161C234.908 119.996 234 101.43 234 85M323.408 154.931C323.408 159.1 318.963 162.886 314.949 164.84C304.688 169.834 291.459 172.006 287.153 160.293C281.761 145.629 300.955 129.705 307.37 119.996C315.523 109.54 315.432 106.304 318.864 97.4665C322.78 87.3842 322.351 70.2069 321.168 62.2406C318.653 45.3123 311.026 34.0478 295.153 24.2764C286.332 18.8461 280.59 16.6836 268.267 16.6836C247.859 20.0771 234.871 36.6118 234 63M144.914 115.017C154.689 104.598 165.905 98.4515 173 87" stroke="#131313" stroke-width="0.373419" stroke-linecap="round"/>
<ellipse cx="9.4629" cy="23.1562" rx="0.935557" ry="0.995783" fill="#131313"/>
<ellipse cx="37.6903" cy="153.853" rx="1.06921" ry="0.995783" fill="#131313"/>
<circle cx="128.734" cy="22.1604" r="0.995783" fill="#131313"/>
<ellipse cx="184.679" cy="171.279" rx="1.06921" ry="0.995783" fill="#131313"/>
<ellipse cx="268.464" cy="16.9326" rx="1.06921" ry="0.995783" fill="#131313"/>
<ellipse cx="318.866" cy="97.5909" rx="1.06921" ry="0.995783" fill="#131313"/>
<ellipse cx="319.932" cy="161.819" rx="1.06921" ry="0.995783" fill="#131313"/>
</svg>
