<svg width="360" height="243" viewBox="0 0 360 243" fill="none" xmlns="http://www.w3.org/2000/svg">
<path d="M-18.3279 86.8155C0.154057 89.9396 8.13107 101.4 29.8586 119.086C47.946 133.808 55.7595 146.824 69.2278 152.587C82.6962 158.35 93.6946 162.165 109.644 160.245C126.991 158.157 135.61 138.966 149.838 140.594C164.067 142.222 169.796 152.327 183.441 150.87C198.512 149.261 211.535 121.577 223.397 116.864C233.426 111.528 258.366 91.8317 277.68 93.3864C301.823 95.3297 339.272 88.3532 378.411 134.6C394.747 153.903 446.616 161.241 457.635 150.831C468.654 140.421 471.048 115.92 451.334 120.012C435.709 123.255 434.843 155.508 451.039 161.952C483.548 174.885 526.095 175.249 546.302 157.905C562.468 144.03 587.693 115.275 598.285 102.632" stroke="#131313" stroke-width="0.610269" stroke-linecap="round"/>
<ellipse cx="176.86" cy="150.647" rx="1.74738" ry="1.62739" transform="rotate(6.5272 176.86 150.647)" fill="#131313"/>
<ellipse cx="61.6722" cy="148.114" rx="1.74738" ry="1.62739" transform="rotate(6.5272 61.6722 148.114)" fill="#131313"/>
<ellipse cx="350.598" cy="110.329" rx="1.74738" ry="1.62739" transform="rotate(6.5272 350.598 110.329)" fill="#131313"/>
</svg>
