<svg width="168" height="165" viewBox="0 0 168 165" fill="none" xmlns="http://www.w3.org/2000/svg">
<path d="M115.954 152.494L81.421 102.947H67.0323V152.494H28.3706V155.176H69.7146V105.629H80.021L114.554 155.176H167.191L115.365 82.1775L167.774 13.0378L166.693 9.92871L112.075 82.177L161.998 152.494H115.954Z" fill="white"/>
<path d="M76.6441 64.2303H69.7146V9.92871H28.3706V12.6109H67.0323V66.9125H78.0428L115.954 12.6109H164.787L166.693 9.92871H114.555L76.6441 64.2303Z" fill="white"/>
<path d="M6.35658 161.965C5.34168 161.965 4.47134 161.7 3.74556 161.169C3.02569 160.637 2.47398 159.87 2.09044 158.867C1.7128 157.858 1.52398 156.637 1.52398 155.203C1.52398 153.775 1.71575 152.557 2.09929 151.548C2.48283 150.533 3.03454 149.76 3.75441 149.229C4.48019 148.692 5.34758 148.423 6.35658 148.423C7.37149 148.423 8.23888 148.692 8.95875 149.229C9.68453 149.76 10.2362 150.533 10.6139 151.548C10.9974 152.557 11.1892 153.775 11.1892 155.203C11.1892 156.637 11.0004 157.858 10.6227 158.867C10.2451 159.87 9.69633 160.637 8.97645 161.169C8.25658 161.7 7.38329 161.965 6.35658 161.965ZM6.35658 160.266C6.97615 160.266 7.49835 160.068 7.92319 159.673C8.34804 159.277 8.67257 158.702 8.8968 157.947C9.12102 157.186 9.23313 156.271 9.23313 155.203C9.23313 154.129 9.12102 153.215 8.8968 152.459C8.67257 151.698 8.34804 151.12 7.92319 150.724C7.49835 150.323 6.97615 150.123 6.35658 150.123C5.44199 150.123 4.73392 150.568 4.23236 151.459C3.73671 152.344 3.48889 153.592 3.48889 155.203C3.48889 156.271 3.601 157.186 3.82522 157.947C4.04945 158.702 4.37398 159.277 4.79882 159.673C5.22957 160.068 5.74882 160.266 6.35658 160.266ZM12.7292 161.788V160.354L17.1901 155.716C17.6622 155.221 18.0516 154.784 18.3584 154.406C18.6712 154.023 18.9042 153.66 19.0576 153.318C19.217 152.976 19.2966 152.613 19.2966 152.229C19.2966 151.787 19.1934 151.406 18.9868 151.087C18.7803 150.769 18.5 150.524 18.146 150.353C17.792 150.182 17.3907 150.096 16.9423 150.096C16.4702 150.096 16.0601 150.193 15.712 150.388C15.3639 150.577 15.0924 150.848 14.8977 151.202C14.7089 151.551 14.6145 151.961 14.6145 152.433H12.7204C12.7204 151.63 12.9033 150.928 13.2691 150.326C13.6409 149.724 14.1483 149.258 14.7915 148.928C15.4406 148.591 16.1722 148.423 16.9865 148.423C17.8185 148.423 18.5502 148.588 19.1816 148.919C19.8129 149.249 20.3056 149.698 20.6597 150.264C21.0137 150.825 21.1907 151.459 21.1907 152.167C21.1907 152.657 21.0993 153.135 20.9163 153.601C20.7393 154.067 20.4236 154.589 19.9693 155.168C19.5208 155.74 18.8954 156.43 18.0929 157.239L15.473 159.982V160.089H21.4031V161.788H12.7292Z" fill="white"/>
<path d="M9.03529 17.1248C8.02039 17.1248 7.15005 16.8592 6.42427 16.3282C5.7044 15.7971 5.15269 15.0301 4.76915 14.027C4.39151 13.0179 4.2027 11.7965 4.2027 10.3627C4.2027 8.93473 4.39447 7.71625 4.778 6.70725C5.16154 5.69234 5.71325 4.91936 6.43313 4.38831C7.1589 3.85135 8.02629 3.58287 9.03529 3.58287C10.0502 3.58287 10.9176 3.85135 11.6375 4.38831C12.3632 4.91936 12.9149 5.69234 13.2926 6.70725C13.6761 7.71625 13.8679 8.93473 13.8679 10.3627C13.8679 11.7965 13.6791 13.0179 13.3014 14.027C12.9238 15.0301 12.375 15.7971 11.6552 16.3282C10.9353 16.8592 10.062 17.1248 9.03529 17.1248ZM9.03529 15.4254C9.65486 15.4254 10.1771 15.2277 10.6019 14.8324C11.0267 14.437 11.3513 13.8617 11.5755 13.1065C11.7997 12.3453 11.9118 11.4307 11.9118 10.3627C11.9118 9.28876 11.7997 8.37417 11.5755 7.61889C11.3513 6.85771 11.0267 6.27945 10.6019 5.88411C10.1771 5.48287 9.65486 5.28225 9.03529 5.28225C8.1207 5.28225 7.41263 5.72775 6.91107 6.61874C6.41542 7.50383 6.1676 8.75181 6.1676 10.3627C6.1676 11.4307 6.27971 12.3453 6.50393 13.1065C6.72816 13.8617 7.05269 14.437 7.47753 14.8324C7.90828 15.2277 8.42753 15.4254 9.03529 15.4254ZM20.1697 3.75989V16.9478H18.2048V5.7602H18.1163L14.9831 7.82246V5.91066L18.2579 3.75989H20.1697Z" fill="white"/>
<circle cx="31.7299" cy="11.6767" r="4.02334" fill="white"/>
<circle cx="31.7299" cy="153.835" r="4.02334" fill="white"/>
</svg>
