<svg width="659" height="179" viewBox="0 0 659 179" fill="none" xmlns="http://www.w3.org/2000/svg">
<mask id="path-1-outside-1_385_4978" maskUnits="userSpaceOnUse" x="5" y="24" width="648" height="157" fill="black">
<rect fill="white" x="5" y="24" width="648" height="157"/>
<path d="M68.1554 55.7754V75.2484H31.1248V145H7.26246V55.7754H68.1554ZM78.1313 178.359V55.7754H102.393V70.859H103.51C104.627 68.4116 106.224 65.9376 108.299 63.4369C110.373 60.9363 113.087 58.8613 116.439 57.212C119.791 55.5094 123.941 54.6581 128.889 54.6581C135.433 54.6581 141.419 56.3607 146.845 59.7658C152.326 63.1177 156.715 68.1988 160.014 75.009C163.312 81.8192 164.962 90.332 164.962 100.547C164.962 110.443 163.366 118.823 160.173 125.687C156.981 132.497 152.645 137.658 147.165 141.169C141.738 144.681 135.619 146.437 128.809 146.437C124.021 146.437 119.95 145.638 116.598 144.042C113.247 142.446 110.507 140.451 108.378 138.057C106.303 135.609 104.681 133.162 103.51 130.714H102.792V178.359H78.1313ZM120.988 126.804C125.031 126.804 128.437 125.687 131.203 123.452C133.97 121.217 136.071 118.132 137.508 114.194C138.945 110.204 139.663 105.628 139.663 100.468C139.663 95.3067 138.945 90.7842 137.508 86.9003C136.125 82.9631 134.05 79.8772 131.283 77.6426C128.516 75.408 125.085 74.2907 120.988 74.2907C116.997 74.2907 113.592 75.3814 110.773 77.5628C108.006 79.691 105.878 82.7237 104.388 86.6609C102.951 90.5448 102.233 95.147 102.233 100.468C102.233 105.735 102.978 110.337 104.468 114.274C105.957 118.211 108.086 121.297 110.852 123.532C113.672 125.713 117.051 126.804 120.988 126.804ZM201.194 146.676C195.554 146.676 190.473 145.692 185.951 143.723C181.482 141.701 177.97 138.722 175.416 134.785C172.863 130.848 171.586 125.953 171.586 120.1C171.586 115.099 172.49 110.949 174.299 107.65C176.108 104.298 178.582 101.585 181.721 99.5098C184.86 97.4349 188.425 95.8653 192.415 94.8012C196.406 93.7371 200.636 92.9922 205.105 92.5666C210.266 92.0878 214.416 91.6089 217.555 91.1301C220.694 90.6512 222.982 89.933 224.418 88.9753C225.908 87.9644 226.653 86.5279 226.653 84.6657V84.2666C226.653 80.5955 225.482 77.7491 223.141 75.7273C220.853 73.7055 217.608 72.6946 213.405 72.6946C208.989 72.6946 205.451 73.6789 202.79 75.6475C200.183 77.5628 198.454 80.0103 197.603 82.9897L174.698 81.1542C175.869 75.7273 178.156 71.0452 181.562 67.1081C184.967 63.1177 189.356 60.0584 194.73 57.9302C200.157 55.7488 206.435 54.6581 213.564 54.6581C218.512 54.6581 223.248 55.2434 227.77 56.4139C232.292 57.5844 236.309 59.3934 239.821 61.8408C243.386 64.235 246.206 67.3475 248.28 71.1783C250.355 75.009 251.393 79.558 251.393 84.8253V145H227.85V132.55H227.211C225.775 135.37 223.859 137.844 221.465 139.972C219.071 142.047 216.198 143.696 212.846 144.92C209.494 146.091 205.61 146.676 201.194 146.676ZM208.297 129.597C211.915 129.597 215.107 128.879 217.874 127.442C220.694 125.953 222.875 123.984 224.418 121.537C226.014 119.036 226.812 116.243 226.812 113.157V103.66C226.067 104.139 225.003 104.591 223.62 105.017C222.29 105.442 220.8 105.815 219.151 106.134C217.501 106.453 215.852 106.746 214.203 107.012C212.553 107.225 211.064 107.437 209.734 107.65C206.807 108.076 204.253 108.767 202.072 109.725C199.891 110.63 198.188 111.88 196.964 113.476C195.794 115.019 195.209 116.961 195.209 119.302C195.209 122.654 196.432 125.208 198.88 126.964C201.327 128.719 204.466 129.597 208.297 129.597ZM308.375 175.327V26.0871H333.036V175.327H308.375ZM308.375 146.756C301.565 146.756 295.314 145.638 289.621 143.404C283.981 141.169 279.113 138.03 275.016 133.987C270.919 129.89 267.753 125.022 265.519 119.382C263.284 113.742 262.167 107.544 262.167 100.787C262.167 93.9765 263.284 87.7516 265.519 82.1119C267.753 76.4189 270.919 71.5241 275.016 67.4273C279.113 63.3305 283.981 60.1914 289.621 58.01C295.314 55.7754 301.565 54.6581 308.375 54.6581H313.004V146.756H308.375ZM308.375 127.442H311.169V73.9715H308.375C304.013 73.9715 300.262 75.1686 297.123 77.5628C294.037 79.9571 291.669 83.1759 290.02 87.2195C288.424 91.2631 287.625 95.7855 287.625 100.787C287.625 104.511 288.078 107.996 288.982 111.242C289.887 114.434 291.243 117.254 293.052 119.701C294.861 122.095 297.043 123.984 299.597 125.367C302.15 126.751 305.077 127.442 308.375 127.442ZM333.036 146.756H328.487V54.6581H333.036C339.899 54.6581 346.151 55.7754 351.791 58.01C357.483 60.1914 362.378 63.3305 366.475 67.4273C370.572 71.5241 373.738 76.4189 375.972 82.1119C378.26 87.7516 379.404 93.9765 379.404 100.787C379.404 107.544 378.26 113.742 375.972 119.382C373.738 125.022 370.572 129.89 366.475 133.987C362.378 138.03 357.483 141.169 351.791 143.404C346.151 145.638 339.899 146.756 333.036 146.756ZM333.036 127.442C336.388 127.442 339.341 126.751 341.894 125.367C344.501 123.984 346.683 122.095 348.439 119.701C350.248 117.254 351.631 114.434 352.589 111.242C353.546 107.996 354.025 104.511 354.025 100.787C354.025 95.7855 353.2 91.2631 351.551 87.2195C349.902 83.1759 347.508 79.9571 344.368 77.5628C341.283 75.1686 337.505 73.9715 333.036 73.9715H330.402V127.442H333.036ZM413.881 112.359L445.963 55.7754H470.384V145H446.841V88.3368L414.838 145H390.337V55.7754H413.881V112.359ZM484.989 145V55.7754H509.649V90.4118H516.672L540.854 55.7754H569.904L538.38 100.148L570.223 145H540.854L518.827 113.396H509.649V145H484.989ZM600.71 146.676C595.07 146.676 589.989 145.692 585.466 143.723C580.997 141.701 577.486 138.722 574.932 134.785C572.378 130.848 571.101 125.953 571.101 120.1C571.101 115.099 572.006 110.949 573.814 107.65C575.623 104.298 578.097 101.585 581.237 99.5098C584.376 97.4349 587.94 95.8653 591.931 94.8012C595.921 93.7371 600.151 92.9922 604.62 92.5666C609.781 92.0878 613.931 91.6089 617.07 91.1301C620.209 90.6512 622.497 89.933 623.933 88.9753C625.423 87.9644 626.168 86.5279 626.168 84.6657V84.2666C626.168 80.5955 624.998 77.7491 622.657 75.7273C620.369 73.7055 617.123 72.6946 612.92 72.6946C608.504 72.6946 604.966 73.6789 602.306 75.6475C599.699 77.5628 597.969 80.0103 597.118 82.9897L574.214 81.1542C575.384 75.7273 577.672 71.0452 581.077 67.1081C584.482 63.1177 588.871 60.0584 594.245 57.9302C599.672 55.7488 605.95 54.6581 613.08 54.6581C618.028 54.6581 622.763 55.2434 627.285 56.4139C631.808 57.5844 635.825 59.3934 639.336 61.8408C642.901 64.235 645.721 67.3475 647.796 71.1783C649.871 75.009 650.908 79.558 650.908 84.8253V145H627.365V132.55H626.727C625.29 135.37 623.375 137.844 620.981 139.972C618.586 142.047 615.713 143.696 612.361 144.92C609.01 146.091 605.126 146.676 600.71 146.676ZM607.812 129.597C611.43 129.597 614.623 128.879 617.389 127.442C620.209 125.953 622.391 123.984 623.933 121.537C625.53 119.036 626.328 116.243 626.328 113.157V103.66C625.583 104.139 624.519 104.591 623.135 105.017C621.805 105.442 620.316 105.815 618.666 106.134C617.017 106.453 615.367 106.746 613.718 107.012C612.069 107.225 610.579 107.437 609.249 107.65C606.323 108.076 603.769 108.767 601.587 109.725C599.406 110.63 597.703 111.88 596.48 113.476C595.309 115.019 594.724 116.961 594.724 119.302C594.724 122.654 595.948 125.208 598.395 126.964C600.843 128.719 603.982 129.597 607.812 129.597Z"/>
</mask>
<path d="M68.1554 55.7754H70.1554V53.7754H68.1554V55.7754ZM68.1554 75.2484V77.2484H70.1554V75.2484H68.1554ZM31.1248 75.2484V73.2484H29.1248V75.2484H31.1248ZM31.1248 145V147H33.1248V145H31.1248ZM7.26246 145H5.26246V147H7.26246V145ZM7.26246 55.7754V53.7754H5.26246V55.7754H7.26246ZM66.1554 55.7754V75.2484H70.1554V55.7754H66.1554ZM68.1554 73.2484H31.1248V77.2484H68.1554V73.2484ZM29.1248 75.2484V145H33.1248V75.2484H29.1248ZM31.1248 143H7.26246V147H31.1248V143ZM9.26246 145V55.7754H5.26246V145H9.26246ZM7.26246 57.7754H68.1554V53.7754H7.26246V57.7754ZM78.1313 178.359H76.1313V180.359H78.1313V178.359ZM78.1313 55.7754V53.7754H76.1313V55.7754H78.1313ZM102.393 55.7754H104.393V53.7754H102.393V55.7754ZM102.393 70.859H100.393V72.859H102.393V70.859ZM103.51 70.859V72.859H104.796L105.329 71.6896L103.51 70.859ZM116.439 57.212L117.322 59.0065L117.333 59.0009L117.345 58.9951L116.439 57.212ZM146.845 59.7658L145.782 61.4599L145.792 61.466L145.802 61.472L146.845 59.7658ZM160.173 125.687L161.984 126.536L161.987 126.53L160.173 125.687ZM147.165 141.169L146.086 139.485L146.078 139.49L147.165 141.169ZM108.378 138.057L106.853 139.35L106.868 139.368L106.883 139.385L108.378 138.057ZM103.51 130.714L105.314 129.852L104.771 128.714H103.51V130.714ZM102.792 130.714V128.714H100.792V130.714H102.792ZM102.792 178.359V180.359H104.792V178.359H102.792ZM137.508 114.194L139.387 114.88L139.39 114.872L137.508 114.194ZM137.508 86.9003L135.621 87.5633L135.626 87.5787L135.632 87.5941L137.508 86.9003ZM110.773 77.5628L111.992 79.1481L111.996 79.1447L110.773 77.5628ZM104.388 86.6609L102.517 85.9531L102.515 85.9601L102.512 85.9671L104.388 86.6609ZM110.852 123.532L109.596 125.088L109.612 125.101L109.629 125.114L110.852 123.532ZM80.1313 178.359V55.7754H76.1313V178.359H80.1313ZM78.1313 57.7754H102.393V53.7754H78.1313V57.7754ZM100.393 55.7754V70.859H104.393V55.7754H100.393ZM102.393 72.859H103.51V68.859H102.393V72.859ZM105.329 71.6896C106.36 69.4319 107.853 67.106 109.838 64.7141L106.759 62.1598C104.594 64.7691 102.895 67.3913 101.691 70.0284L105.329 71.6896ZM109.838 64.7141C111.708 62.4603 114.185 60.55 117.322 59.0065L115.556 55.4175C111.989 57.1726 109.039 59.4123 106.759 62.1598L109.838 64.7141ZM117.345 58.9951C120.341 57.4729 124.16 56.6581 128.889 56.6581V52.6581C123.722 52.6581 119.24 53.5459 115.533 55.4288L117.345 58.9951ZM128.889 56.6581C135.065 56.6581 140.681 58.2592 145.782 61.4599L147.908 58.0717C142.156 54.4622 135.8 52.6581 128.889 52.6581V56.6581ZM145.802 61.472C150.901 64.5906 155.052 69.3531 158.214 75.8809L161.814 74.1371C158.378 67.0445 153.75 61.6448 147.889 58.0597L145.802 61.472ZM158.214 75.8809C161.343 82.3415 162.962 90.5336 162.962 100.547H166.962C166.962 90.1304 165.282 81.297 161.814 74.1371L158.214 75.8809ZM162.962 100.547C162.962 110.238 161.398 118.312 158.36 124.843L161.987 126.53C165.334 119.334 166.962 110.649 166.962 100.547H162.962ZM158.362 124.838C155.305 131.36 151.201 136.208 146.086 139.485L148.244 142.853C154.089 139.108 158.657 133.633 161.984 126.536L158.362 124.838ZM146.078 139.49C140.993 142.781 135.255 144.437 128.809 144.437V148.437C135.983 148.437 142.483 146.581 148.251 142.848L146.078 139.49ZM128.809 144.437C124.235 144.437 120.476 143.673 117.458 142.237L115.739 145.848C119.425 147.604 123.806 148.437 128.809 148.437V144.437ZM117.458 142.237C114.31 140.737 111.798 138.893 109.873 136.728L106.883 139.385C109.215 142.009 112.183 144.155 115.739 145.848L117.458 142.237ZM109.904 136.763C107.92 134.424 106.399 132.119 105.314 129.852L101.706 131.577C102.962 134.205 104.686 136.795 106.853 139.35L109.904 136.763ZM103.51 128.714H102.792V132.714H103.51V128.714ZM100.792 130.714V178.359H104.792V130.714H100.792ZM102.792 176.359H78.1313V180.359H102.792V176.359ZM120.988 128.804C125.423 128.804 129.289 127.569 132.46 125.008L129.947 121.896C127.584 123.804 124.64 124.804 120.988 124.804V128.804ZM132.46 125.008C135.556 122.507 137.848 119.097 139.387 114.88L135.629 113.509C134.295 117.166 132.384 119.928 129.947 121.896L132.46 125.008ZM139.39 114.872C140.919 110.623 141.663 105.811 141.663 100.468H137.663C137.663 105.446 136.97 109.785 135.626 113.517L139.39 114.872ZM141.663 100.468C141.663 95.1259 140.92 90.3597 139.384 86.2065L135.632 87.5941C136.969 91.2088 137.663 95.4874 137.663 100.468H141.663ZM139.395 86.2373C137.91 82.0114 135.642 78.5926 132.54 76.0868L130.026 79.1985C132.457 81.1619 134.339 83.9149 135.621 87.5633L139.395 86.2373ZM132.54 76.0868C129.364 73.522 125.469 72.2907 120.988 72.2907V76.2907C124.7 76.2907 127.668 77.2941 130.026 79.1985L132.54 76.0868ZM120.988 72.2907C116.61 72.2907 112.761 73.4963 109.549 75.9809L111.996 79.1447C114.424 77.2666 117.385 76.2907 120.988 76.2907V72.2907ZM109.553 75.9776C106.437 78.3749 104.111 81.7406 102.517 85.9531L106.259 87.3687C107.644 83.7068 109.575 81.0072 111.992 79.1481L109.553 75.9776ZM102.512 85.9671C100.974 90.1263 100.233 94.9744 100.233 100.468H104.233C104.233 95.3196 104.929 90.9634 106.264 87.3547L102.512 85.9671ZM100.233 100.468C100.233 105.918 101.003 110.77 102.597 114.982L106.338 113.566C104.953 109.904 104.233 105.551 104.233 100.468H100.233ZM102.597 114.982C104.189 119.19 106.506 122.592 109.596 125.088L112.109 121.976C109.666 120.002 107.726 117.233 106.338 113.566L102.597 114.982ZM109.629 125.114C112.836 127.595 116.657 128.804 120.988 128.804V124.804C117.445 124.804 114.509 123.832 112.076 121.95L109.629 125.114ZM185.951 143.723L185.127 145.545L185.14 145.551L185.153 145.557L185.951 143.723ZM174.299 107.65L176.053 108.612L176.059 108.6L174.299 107.65ZM205.105 92.5666L204.92 90.5752L204.915 90.5756L205.105 92.5666ZM224.418 88.9753L225.528 90.6394L225.534 90.6348L225.541 90.6302L224.418 88.9753ZM223.141 75.7273L221.817 77.2259L221.825 77.2335L221.834 77.2409L223.141 75.7273ZM202.79 75.6475L203.974 77.2592L203.98 77.2551L202.79 75.6475ZM197.603 82.9897L197.443 84.9833L199.076 85.1142L199.526 83.5392L197.603 82.9897ZM174.698 81.1542L172.743 80.7325L172.262 82.9653L174.538 83.1478L174.698 81.1542ZM181.562 67.1081L183.074 68.4164L183.083 68.4063L181.562 67.1081ZM194.73 57.9302L195.466 59.7897L195.476 59.7859L194.73 57.9302ZM239.821 61.8408L238.677 63.4816L238.691 63.4915L238.706 63.5011L239.821 61.8408ZM251.393 145V147H253.393V145H251.393ZM227.85 145H225.85V147H227.85V145ZM227.85 132.55H229.85V130.55H227.85V132.55ZM227.211 132.55V130.55H225.986L225.429 131.642L227.211 132.55ZM221.465 139.972L222.775 141.484L222.785 141.475L222.794 141.467L221.465 139.972ZM212.846 144.92L213.505 146.808L213.519 146.804L213.532 146.799L212.846 144.92ZM217.874 127.442L218.796 129.217L218.802 129.214L218.808 129.211L217.874 127.442ZM224.418 121.537L222.732 120.461L222.726 120.47L224.418 121.537ZM226.812 103.66H228.812V99.9965L225.731 101.977L226.812 103.66ZM223.62 105.017L223.032 103.105L223.021 103.108L223.01 103.112L223.62 105.017ZM214.203 107.012L214.459 108.995L214.49 108.991L214.521 108.986L214.203 107.012ZM209.734 107.65L210.021 109.629L210.036 109.627L210.05 109.625L209.734 107.65ZM202.072 109.725L202.838 111.573L202.857 111.565L202.876 111.556L202.072 109.725ZM196.964 113.476L195.377 112.259L195.371 112.267L196.964 113.476ZM201.194 144.676C195.79 144.676 190.986 143.734 186.749 141.889L185.153 145.557C189.961 147.65 195.319 148.676 201.194 148.676V144.676ZM186.775 141.901C182.638 140.029 179.43 137.297 177.094 133.696L173.739 135.873C176.51 140.146 180.325 143.373 185.127 145.545L186.775 141.901ZM177.094 133.696C174.797 130.155 173.586 125.662 173.586 120.1H169.586C169.586 126.244 170.928 131.54 173.739 135.873L177.094 133.696ZM173.586 120.1C173.586 115.328 174.45 111.535 176.053 108.612L172.546 106.689C170.53 110.363 169.586 114.869 169.586 120.1H173.586ZM176.059 108.6C177.714 105.534 179.963 103.069 182.824 101.178L180.618 97.8414C177.201 100.1 174.503 103.062 172.539 106.7L176.059 108.6ZM182.824 101.178C185.766 99.2335 189.129 97.7475 192.931 96.7337L191.9 92.8687C187.721 93.9831 183.954 95.6362 180.618 97.8414L182.824 101.178ZM192.931 96.7337C196.806 95.7004 200.926 94.9737 205.294 94.5576L204.915 90.5756C200.345 91.0108 196.006 91.7738 191.9 92.8687L192.931 96.7337ZM205.29 94.5581C210.468 94.0775 214.662 93.5945 217.856 93.1072L217.253 89.1529C214.169 89.6234 210.063 90.098 204.92 90.5752L205.29 94.5581ZM217.856 93.1072C221.082 92.6152 223.721 91.8437 225.528 90.6394L223.309 87.3112C222.242 88.0222 220.306 88.6872 217.253 89.1529L217.856 93.1072ZM225.541 90.6302C227.602 89.2321 228.653 87.1635 228.653 84.6657H224.653C224.653 85.8922 224.214 86.6967 223.295 87.3203L225.541 90.6302ZM228.653 84.6657V84.2666H224.653V84.6657H228.653ZM228.653 84.2666C228.653 80.1337 227.312 76.687 224.448 74.2136L221.834 77.2409C223.652 78.8111 224.653 81.0573 224.653 84.2666H228.653ZM224.466 74.2286C221.694 71.7797 217.911 70.6946 213.405 70.6946V74.6946C217.304 74.6946 220.012 75.6313 221.817 77.2259L224.466 74.2286ZM213.405 70.6946C208.702 70.6946 204.704 71.7432 201.601 74.0398L203.98 77.2551C206.197 75.6145 209.275 74.6946 213.405 74.6946V70.6946ZM201.606 74.0357C198.659 76.2011 196.659 79.0149 195.68 82.4403L199.526 83.5392C200.25 81.0056 201.708 78.9246 203.974 77.2592L201.606 74.0357ZM197.763 80.9961L174.858 79.1606L174.538 83.1478L197.443 84.9833L197.763 80.9961ZM176.653 81.5758C177.758 76.4544 179.903 72.0829 183.074 68.4164L180.049 65.7998C176.41 70.0076 173.98 75.0001 172.743 80.7325L176.653 81.5758ZM183.083 68.4063C186.255 64.6889 190.365 61.8102 195.466 59.7897L193.993 56.0708C188.348 58.3067 183.678 61.5466 180.04 65.8098L183.083 68.4063ZM195.476 59.7859C200.62 57.7182 206.636 56.6581 213.564 56.6581V52.6581C206.234 52.6581 199.694 53.7794 193.984 56.0745L195.476 59.7859ZM213.564 56.6581C218.353 56.6581 222.92 57.2244 227.269 58.3501L228.271 54.4777C223.576 53.2624 218.671 52.6581 213.564 52.6581V56.6581ZM227.269 58.3501C231.582 59.4665 235.378 61.1819 238.677 63.4816L240.965 60.2C237.241 57.6048 233.003 55.7023 228.271 54.4777L227.269 58.3501ZM238.706 63.5011C241.998 65.7122 244.599 68.5802 246.522 72.1308L250.039 70.2257C247.812 66.1148 244.773 62.7578 240.936 60.1805L238.706 63.5011ZM246.522 72.1308C248.409 75.6138 249.393 79.8216 249.393 84.8253H253.393C253.393 79.2944 252.302 74.4042 250.039 70.2257L246.522 72.1308ZM249.393 84.8253V145H253.393V84.8253H249.393ZM251.393 143H227.85V147H251.393V143ZM229.85 145V132.55H225.85V145H229.85ZM227.85 130.55H227.211V134.55H227.85V130.55ZM225.429 131.642C224.107 134.237 222.347 136.513 220.137 138.477L222.794 141.467C225.372 139.175 227.442 136.503 228.993 133.458L225.429 131.642ZM220.155 138.461C217.967 140.358 215.312 141.891 212.16 143.041L213.532 146.799C217.084 145.502 220.175 143.737 222.775 141.484L220.155 138.461ZM212.187 143.032C209.091 144.113 205.438 144.676 201.194 144.676V148.676C205.782 148.676 209.897 148.068 213.505 146.808L212.187 143.032ZM208.297 131.597C212.184 131.597 215.702 130.824 218.796 129.217L216.952 125.667C214.513 126.934 211.646 127.597 208.297 127.597V131.597ZM218.808 129.211C221.905 127.575 224.362 125.377 226.11 122.603L222.726 120.47C221.389 122.592 219.482 124.331 216.94 125.674L218.808 129.211ZM226.104 122.613C227.914 119.777 228.812 116.608 228.812 113.157H224.812C224.812 115.878 224.115 118.295 222.732 120.461L226.104 122.613ZM228.812 113.157V103.66H224.812V113.157H228.812ZM225.731 101.977C225.205 102.315 224.336 102.704 223.032 103.105L224.208 106.928C225.67 106.478 226.93 105.962 227.894 105.342L225.731 101.977ZM223.01 103.112C221.769 103.509 220.358 103.863 218.771 104.17L219.531 108.097C221.243 107.766 222.811 107.375 224.23 106.921L223.01 103.112ZM218.771 104.17C217.142 104.486 215.513 104.775 213.884 105.037L214.521 108.986C216.191 108.717 217.861 108.421 219.531 108.097L218.771 104.17ZM213.947 105.028C212.282 105.243 210.772 105.459 209.418 105.675L210.05 109.625C211.356 109.416 212.825 109.206 214.459 108.995L213.947 105.028ZM209.446 105.671C206.382 106.117 203.648 106.849 201.268 107.894L202.876 111.556C204.859 110.686 207.232 110.035 210.021 109.629L209.446 105.671ZM201.306 107.878C198.857 108.893 196.849 110.339 195.377 112.259L198.552 114.693C199.527 113.421 200.924 112.366 202.838 111.573L201.306 107.878ZM195.371 112.267C193.885 114.226 193.209 116.618 193.209 119.302H197.209C197.209 117.304 197.703 115.812 198.558 114.685L195.371 112.267ZM193.209 119.302C193.209 123.214 194.678 126.411 197.714 128.589L200.046 125.338C198.187 124.005 197.209 122.094 197.209 119.302H193.209ZM197.714 128.589C200.584 130.647 204.162 131.597 208.297 131.597V127.597C204.77 127.597 202.071 126.791 200.046 125.338L197.714 128.589ZM308.375 175.327H306.375V177.327H308.375V175.327ZM308.375 26.0871V24.0871H306.375V26.0871H308.375ZM333.036 26.0871H335.036V24.0871H333.036V26.0871ZM333.036 175.327V177.327H335.036V175.327H333.036ZM289.621 143.404L288.884 145.263L288.89 145.266L289.621 143.404ZM275.016 133.987L273.602 135.401L273.611 135.41L275.016 133.987ZM265.519 82.1119L267.378 82.8486L267.381 82.8426L265.519 82.1119ZM289.621 58.01L290.342 59.8754L290.351 59.8718L289.621 58.01ZM313.004 54.6581H315.004V52.6581H313.004V54.6581ZM313.004 146.756V148.756H315.004V146.756H313.004ZM311.169 127.442V129.442H313.169V127.442H311.169ZM311.169 73.9715H313.169V71.9715H311.169V73.9715ZM297.123 77.5628L295.91 75.9726L295.903 75.9776L295.897 75.9827L297.123 77.5628ZM290.02 87.2195L288.168 86.4641L288.164 86.4746L288.159 86.4852L290.02 87.2195ZM288.982 111.242L287.056 111.778L287.058 111.787L288.982 111.242ZM293.052 119.701L291.444 120.89L291.45 120.898L291.457 120.907L293.052 119.701ZM328.487 146.756H326.487V148.756H328.487V146.756ZM328.487 54.6581V52.6581H326.487V54.6581H328.487ZM351.791 58.01L351.054 59.8694L351.064 59.8736L351.075 59.8776L351.791 58.01ZM375.972 82.1119L374.11 82.8426L374.115 82.8532L374.119 82.8637L375.972 82.1119ZM375.972 119.382L374.119 118.63L374.116 118.638L374.113 118.645L375.972 119.382ZM366.475 133.987L367.88 135.41L367.889 135.401L366.475 133.987ZM351.791 143.404L351.06 141.542L351.054 141.544L351.791 143.404ZM341.894 125.367L340.957 123.601L340.949 123.605L340.942 123.609L341.894 125.367ZM348.439 119.701L346.83 118.512L346.826 118.518L348.439 119.701ZM352.589 111.242L354.504 111.816L354.507 111.808L352.589 111.242ZM344.368 77.5628L343.142 79.143L343.149 79.1481L343.156 79.1531L344.368 77.5628ZM330.402 73.9715V71.9715H328.402V73.9715H330.402ZM330.402 127.442H328.402V129.442H330.402V127.442ZM310.375 175.327V26.0871H306.375V175.327H310.375ZM308.375 28.0871H333.036V24.0871H308.375V28.0871ZM331.036 26.0871V175.327H335.036V26.0871H331.036ZM333.036 173.327H308.375V177.327H333.036V173.327ZM308.375 144.756C301.787 144.756 295.787 143.676 290.351 141.542L288.89 145.266C294.841 147.601 301.343 148.756 308.375 148.756V144.756ZM290.357 141.544C284.954 139.403 280.316 136.408 276.421 132.563L273.611 135.41C277.909 139.652 283.008 142.935 288.884 145.263L290.357 141.544ZM276.43 132.572C272.535 128.678 269.517 124.043 267.378 118.645L263.659 120.119C265.99 126 269.303 131.102 273.602 135.401L276.43 132.572ZM267.378 118.645C265.247 113.265 264.167 107.32 264.167 100.787H260.167C260.167 107.767 261.322 114.219 263.659 120.119L267.378 118.645ZM264.167 100.787C264.167 94.198 265.247 88.2268 267.378 82.8486L263.659 81.3751C261.321 87.2764 260.167 93.7551 260.167 100.787H264.167ZM267.381 82.8426C269.52 77.3914 272.539 72.733 276.43 68.8415L273.602 66.0131C269.3 70.3152 265.987 75.4465 263.657 81.3811L267.381 82.8426ZM276.43 68.8415C280.321 64.9503 284.951 61.9608 290.342 59.8754L288.899 56.1447C283.011 58.4221 277.904 61.7107 273.602 66.0131L276.43 68.8415ZM290.351 59.8718C295.787 57.7383 301.787 56.6581 308.375 56.6581V52.6581C301.343 52.6581 294.841 53.8125 288.89 56.1483L290.351 59.8718ZM308.375 56.6581H313.004V52.6581H308.375V56.6581ZM311.004 54.6581V146.756H315.004V54.6581H311.004ZM313.004 144.756H308.375V148.756H313.004V144.756ZM308.375 129.442H311.169V125.442H308.375V129.442ZM313.169 127.442V73.9715H309.169V127.442H313.169ZM311.169 71.9715H308.375V75.9715H311.169V71.9715ZM308.375 71.9715C303.623 71.9715 299.434 73.2845 295.91 75.9726L298.335 79.1531C301.089 77.0527 304.402 75.9715 308.375 75.9715V71.9715ZM295.897 75.9827C292.502 78.6167 289.934 82.1347 288.168 86.4641L291.872 87.9749C293.404 84.2172 295.572 81.2974 298.349 79.143L295.897 75.9827ZM288.159 86.4852C286.458 90.795 285.625 95.5715 285.625 100.787H289.625C289.625 95.9995 290.389 91.7312 291.88 87.9539L288.159 86.4852ZM285.625 100.787C285.625 104.674 286.098 108.341 287.056 111.778L290.909 110.705C290.058 107.651 289.625 104.349 289.625 100.787H285.625ZM287.058 111.787C288.022 115.19 289.479 118.232 291.444 120.89L294.661 118.512C293.007 116.275 291.751 113.678 290.906 110.696L287.058 111.787ZM291.457 120.907C293.432 123.521 295.83 125.602 298.644 127.126L300.549 123.609C298.255 122.366 296.291 120.669 294.648 118.495L291.457 120.907ZM298.644 127.126C301.528 128.688 304.79 129.442 308.375 129.442V125.442C305.364 125.442 302.773 124.813 300.549 123.609L298.644 127.126ZM333.036 144.756H328.487V148.756H333.036V144.756ZM330.487 146.756V54.6581H326.487V146.756H330.487ZM328.487 56.6581H333.036V52.6581H328.487V56.6581ZM333.036 56.6581C339.68 56.6581 345.677 57.7391 351.054 59.8694L352.527 56.1507C346.624 53.8118 340.119 52.6581 333.036 52.6581V56.6581ZM351.075 59.8776C356.52 61.964 361.173 64.9535 365.061 68.8415L367.889 66.0131C363.584 61.7075 358.447 58.4189 352.506 56.1425L351.075 59.8776ZM365.061 68.8415C368.952 72.733 371.971 77.3914 374.11 82.8426L377.834 81.3811C375.504 75.4465 372.191 70.3152 367.889 66.0131L365.061 68.8415ZM374.119 82.8637C376.299 88.2378 377.404 94.2037 377.404 100.787H381.404C381.404 93.7494 380.221 87.2654 377.825 81.36L374.119 82.8637ZM377.404 100.787C377.404 107.314 376.3 113.254 374.119 118.63L377.825 120.134C380.22 114.23 381.404 107.773 381.404 100.787H377.404ZM374.113 118.645C371.974 124.043 368.956 128.678 365.061 132.572L367.889 135.401C372.188 131.102 375.501 126 377.832 120.119L374.113 118.645ZM365.07 132.563C361.178 136.405 356.517 139.4 351.06 141.542L352.521 145.266C358.45 142.938 363.579 139.656 367.88 135.41L365.07 132.563ZM351.054 141.544C345.677 143.675 339.68 144.756 333.036 144.756V148.756C340.119 148.756 346.624 147.602 352.527 145.263L351.054 141.544ZM333.036 129.442C336.669 129.442 339.958 128.691 342.847 127.126L340.942 123.609C338.723 124.811 336.107 125.442 333.036 125.442V129.442ZM342.832 127.134C345.707 125.609 348.119 123.52 350.051 120.884L346.826 118.518C345.247 120.671 343.296 122.36 340.957 123.601L342.832 127.134ZM350.047 120.89C352.005 118.24 353.487 115.208 354.504 111.816L350.673 110.667C349.775 113.659 348.49 116.267 346.83 118.512L350.047 120.89ZM354.507 111.808C355.524 108.361 356.025 104.684 356.025 100.787H352.025C352.025 104.339 351.569 107.631 350.67 110.675L354.507 111.808ZM356.025 100.787C356.025 95.5638 355.163 90.7798 353.403 86.4641L349.699 87.9749C351.238 91.7464 352.025 96.0072 352.025 100.787H356.025ZM353.403 86.4641C351.634 82.1263 349.033 78.6056 345.581 75.9726L343.156 79.1531C345.982 81.3085 348.17 84.2256 349.699 87.9749L353.403 86.4641ZM345.594 75.9827C342.108 73.2779 337.882 71.9715 333.036 71.9715V75.9715C337.128 75.9715 340.457 77.0594 343.142 79.143L345.594 75.9827ZM333.036 71.9715H330.402V75.9715H333.036V71.9715ZM328.402 73.9715V127.442H332.402V73.9715H328.402ZM330.402 129.442H333.036V125.442H330.402V129.442ZM413.881 112.359H411.881V119.941L415.62 113.345L413.881 112.359ZM445.963 55.7754V53.7754H444.798L444.223 54.789L445.963 55.7754ZM470.384 55.7754H472.384V53.7754H470.384V55.7754ZM470.384 145V147H472.384V145H470.384ZM446.841 145H444.841V147H446.841V145ZM446.841 88.3368H448.841V80.7288L445.1 87.3533L446.841 88.3368ZM414.838 145V147H416.006L416.58 145.984L414.838 145ZM390.337 145H388.337V147H390.337V145ZM390.337 55.7754V53.7754H388.337V55.7754H390.337ZM413.881 55.7754H415.881V53.7754H413.881V55.7754ZM415.62 113.345L447.703 56.7619L444.223 54.789L412.141 111.372L415.62 113.345ZM445.963 57.7754H470.384V53.7754H445.963V57.7754ZM468.384 55.7754V145H472.384V55.7754H468.384ZM470.384 143H446.841V147H470.384V143ZM448.841 145V88.3368H444.841V145H448.841ZM445.1 87.3533L413.097 144.016L416.58 145.984L448.582 89.3204L445.1 87.3533ZM414.838 143H390.337V147H414.838V143ZM392.337 145V55.7754H388.337V145H392.337ZM390.337 57.7754H413.881V53.7754H390.337V57.7754ZM411.881 55.7754V112.359H415.881V55.7754H411.881ZM484.989 145H482.989V147H484.989V145ZM484.989 55.7754V53.7754H482.989V55.7754H484.989ZM509.649 55.7754H511.649V53.7754H509.649V55.7754ZM509.649 90.4118H507.649V92.4118H509.649V90.4118ZM516.672 90.4118V92.4118H517.715L518.312 91.5567L516.672 90.4118ZM540.854 55.7754V53.7754H539.811L539.214 54.6305L540.854 55.7754ZM569.904 55.7754L571.534 56.9338L573.778 53.7754H569.904V55.7754ZM538.38 100.148L536.75 98.99L535.927 100.148L536.749 101.306L538.38 100.148ZM570.223 145V147H574.096L571.854 143.842L570.223 145ZM540.854 145L539.213 146.144L539.81 147H540.854V145ZM518.827 113.396L520.468 112.253L519.871 111.396H518.827V113.396ZM509.649 113.396V111.396H507.649V113.396H509.649ZM509.649 145V147H511.649V145H509.649ZM486.989 145V55.7754H482.989V145H486.989ZM484.989 57.7754H509.649V53.7754H484.989V57.7754ZM507.649 55.7754V90.4118H511.649V55.7754H507.649ZM509.649 92.4118H516.672V88.4118H509.649V92.4118ZM518.312 91.5567L542.494 56.9203L539.214 54.6305L515.033 89.2669L518.312 91.5567ZM540.854 57.7754H569.904V53.7754H540.854V57.7754ZM568.273 54.6171L536.75 98.99L540.01 101.307L571.534 56.9338L568.273 54.6171ZM536.749 101.306L568.592 146.158L571.854 143.842L540.011 98.9905L536.749 101.306ZM570.223 143H540.854V147H570.223V143ZM542.495 143.856L520.468 112.253L517.186 114.54L539.213 146.144L542.495 143.856ZM518.827 111.396H509.649V115.396H518.827V111.396ZM507.649 113.396V145H511.649V113.396H507.649ZM509.649 143H484.989V147H509.649V143ZM585.466 143.723L584.642 145.545L584.655 145.551L584.668 145.557L585.466 143.723ZM573.814 107.65L575.568 108.612L575.575 108.6L573.814 107.65ZM604.62 92.5666L604.435 90.5752L604.43 90.5756L604.62 92.5666ZM623.933 88.9753L625.043 90.6394L625.05 90.6348L625.056 90.6302L623.933 88.9753ZM622.657 75.7273L621.332 77.2259L621.341 77.2335L621.349 77.2409L622.657 75.7273ZM602.306 75.6475L603.49 77.2592L603.495 77.2551L602.306 75.6475ZM597.118 82.9897L596.958 84.9833L598.591 85.1142L599.041 83.5392L597.118 82.9897ZM574.214 81.1542L572.258 80.7325L571.777 82.9653L574.054 83.1478L574.214 81.1542ZM581.077 67.1081L582.59 68.4164L582.598 68.4063L581.077 67.1081ZM594.245 57.9302L594.982 59.7897L594.991 59.7859L594.245 57.9302ZM639.336 61.8408L638.193 63.4816L638.207 63.4915L638.221 63.5011L639.336 61.8408ZM650.908 145V147H652.908V145H650.908ZM627.365 145H625.365V147H627.365V145ZM627.365 132.55H629.365V130.55H627.365V132.55ZM626.727 132.55V130.55H625.501L624.945 131.642L626.727 132.55ZM620.981 139.972L622.29 141.484L622.3 141.475L622.309 141.467L620.981 139.972ZM612.361 144.92L613.021 146.808L613.034 146.804L613.047 146.799L612.361 144.92ZM617.389 127.442L618.311 129.217L618.317 129.214L618.324 129.211L617.389 127.442ZM623.933 121.537L622.248 120.461L622.242 120.47L623.933 121.537ZM626.328 103.66H628.328V99.9965L625.246 101.977L626.328 103.66ZM623.135 105.017L622.547 103.105L622.537 103.108L622.526 103.112L623.135 105.017ZM613.718 107.012L613.974 108.995L614.005 108.991L614.037 108.986L613.718 107.012ZM609.249 107.65L609.537 109.629L609.551 109.627L609.565 109.625L609.249 107.65ZM601.587 109.725L602.353 111.573L602.373 111.565L602.391 111.556L601.587 109.725ZM596.48 113.476L594.893 112.259L594.886 112.267L596.48 113.476ZM600.71 144.676C595.305 144.676 590.502 143.734 586.265 141.889L584.668 145.557C589.476 147.65 594.834 148.676 600.71 148.676V144.676ZM586.291 141.901C582.154 140.029 578.945 137.297 576.61 133.696L573.254 135.873C576.026 140.146 579.84 143.373 584.642 145.545L586.291 141.901ZM576.61 133.696C574.313 130.155 573.101 125.662 573.101 120.1H569.101C569.101 126.244 570.443 131.54 573.254 135.873L576.61 133.696ZM573.101 120.1C573.101 115.328 573.965 111.535 575.568 108.612L572.061 106.689C570.046 110.363 569.101 114.869 569.101 120.1H573.101ZM575.575 108.6C577.229 105.534 579.479 103.069 582.339 101.178L580.134 97.8414C576.716 100.1 574.018 103.062 572.054 106.7L575.575 108.6ZM582.339 101.178C585.282 99.2335 588.644 97.7475 592.446 96.7337L591.415 92.8687C587.236 93.9831 583.47 95.6362 580.134 97.8414L582.339 101.178ZM592.446 96.7337C596.321 95.7004 600.441 94.9737 604.81 94.5576L604.43 90.5756C599.861 91.0108 595.521 91.7738 591.415 92.8687L592.446 96.7337ZM604.805 94.5581C609.984 94.0775 614.177 93.5945 617.372 93.1072L616.768 89.1529C613.685 89.6234 609.578 90.098 604.435 90.5752L604.805 94.5581ZM617.372 93.1072C620.597 92.6152 623.236 91.8437 625.043 90.6394L622.824 87.3112C621.757 88.0222 619.821 88.6872 616.768 89.1529L617.372 93.1072ZM625.056 90.6302C627.117 89.2321 628.168 87.1635 628.168 84.6657H624.168C624.168 85.8922 623.73 86.6967 622.81 87.3203L625.056 90.6302ZM628.168 84.6657V84.2666H624.168V84.6657H628.168ZM628.168 84.2666C628.168 80.1337 626.828 76.687 623.964 74.2136L621.349 77.2409C623.167 78.8111 624.168 81.0573 624.168 84.2666H628.168ZM623.981 74.2286C621.21 71.7797 617.427 70.6946 612.92 70.6946V74.6946C616.82 74.6946 619.528 75.6313 621.332 77.2259L623.981 74.2286ZM612.92 70.6946C608.218 70.6946 604.219 71.7432 601.116 74.0398L603.495 77.2551C605.712 75.6145 608.79 74.6946 612.92 74.6946V70.6946ZM601.122 74.0357C598.174 76.2011 596.174 79.0149 595.195 82.4403L599.041 83.5392C599.765 81.0056 601.223 78.9246 603.49 77.2592L601.122 74.0357ZM597.278 80.9961L574.373 79.1606L574.054 83.1478L596.958 84.9833L597.278 80.9961ZM576.169 81.5758C577.273 76.4544 579.419 72.0829 582.59 68.4164L579.564 65.7998C575.925 70.0076 573.495 75.0001 572.258 80.7325L576.169 81.5758ZM582.598 68.4063C585.771 64.6889 589.88 61.8102 594.982 59.7897L593.509 56.0708C587.863 58.3067 583.194 61.5466 579.556 65.8098L582.598 68.4063ZM594.991 59.7859C600.135 57.7182 606.151 56.6581 613.08 56.6581V52.6581C605.749 52.6581 599.209 53.7794 593.499 56.0745L594.991 59.7859ZM613.08 56.6581C617.869 56.6581 622.435 57.2244 626.784 58.3501L627.787 54.4777C623.091 53.2624 618.187 52.6581 613.08 52.6581V56.6581ZM626.784 58.3501C631.098 59.4665 634.893 61.1819 638.193 63.4816L640.48 60.2C636.756 57.6048 632.518 55.7023 627.787 54.4777L626.784 58.3501ZM638.221 63.5011C641.513 65.7122 644.114 68.5802 646.037 72.1308L649.554 70.2257C647.328 66.1148 644.289 62.7578 640.451 60.1805L638.221 63.5011ZM646.037 72.1308C647.924 75.6138 648.908 79.8216 648.908 84.8253H652.908C652.908 79.2944 651.818 74.4042 649.554 70.2257L646.037 72.1308ZM648.908 84.8253V145H652.908V84.8253H648.908ZM650.908 143H627.365V147H650.908V143ZM629.365 145V132.55H625.365V145H629.365ZM627.365 130.55H626.727V134.55H627.365V130.55ZM624.945 131.642C623.623 134.237 621.862 136.513 619.652 138.477L622.309 141.467C624.888 139.175 626.958 136.503 628.509 133.458L624.945 131.642ZM619.671 138.461C617.482 140.358 614.827 141.891 611.676 143.041L613.047 146.799C616.599 145.502 619.691 143.737 622.29 141.484L619.671 138.461ZM611.702 143.032C608.607 144.113 604.954 144.676 600.71 144.676V148.676C605.298 148.676 609.412 148.068 613.021 146.808L611.702 143.032ZM607.812 131.597C611.699 131.597 615.217 130.824 618.311 129.217L616.468 125.667C614.028 126.934 611.161 127.597 607.812 127.597V131.597ZM618.324 129.211C621.42 127.575 623.877 125.377 625.625 122.603L622.242 120.47C620.904 122.592 618.998 124.331 616.455 125.674L618.324 129.211ZM625.619 122.613C627.429 119.777 628.328 116.608 628.328 113.157H624.328C624.328 115.878 623.63 118.295 622.248 120.461L625.619 122.613ZM628.328 113.157V103.66H624.328V113.157H628.328ZM625.246 101.977C624.72 102.315 623.852 102.704 622.547 103.105L623.724 106.928C625.186 106.478 626.445 105.962 627.409 105.342L625.246 101.977ZM622.526 103.112C621.284 103.509 619.873 103.863 618.286 104.17L619.046 108.097C620.758 107.766 622.326 107.375 623.745 106.921L622.526 103.112ZM618.286 104.17C616.657 104.486 615.028 104.775 613.4 105.037L614.037 108.986C615.707 108.717 617.377 108.421 619.046 108.097L618.286 104.17ZM613.462 105.028C611.797 105.243 610.287 105.459 608.933 105.675L609.565 109.625C610.871 109.416 612.34 109.206 613.974 108.995L613.462 105.028ZM608.961 105.671C605.898 106.117 603.163 106.849 600.783 107.894L602.391 111.556C604.374 110.686 606.748 110.035 609.537 109.629L608.961 105.671ZM600.821 107.878C598.373 108.893 596.364 110.339 594.893 112.259L598.067 114.693C599.042 113.421 600.439 112.366 602.353 111.573L600.821 107.878ZM594.886 112.267C593.401 114.226 592.724 116.618 592.724 119.302H596.724C596.724 117.304 597.218 115.812 598.073 114.685L594.886 112.267ZM592.724 119.302C592.724 123.214 594.193 126.411 597.229 128.589L599.561 125.338C597.702 124.005 596.724 122.094 596.724 119.302H592.724ZM597.229 128.589C600.099 130.647 603.678 131.597 607.812 131.597V127.597C604.286 127.597 601.586 126.791 599.561 125.338L597.229 128.589Z" fill="black" mask="url(#path-1-outside-1_385_4978)"/>
</svg>
