<svg width="360" height="551" viewBox="0 0 360 551" fill="none" xmlns="http://www.w3.org/2000/svg">
<path d="M131.035 549.805C131.035 543.195 128.09 537.002 127.028 530.514C125.487 521.098 126.003 511.409 126.003 501.904C126.003 489.359 125.358 477.931 129.358 465.933C134.328 451.021 144.454 440.729 156.942 431.452C168.674 422.737 182.664 423.996 196.456 423.996C236.765 423.996 265.187 455.868 305.489 455.868C326.618 455.868 343.025 452.861 359.54 438.348C377.857 422.251 389.074 394.686 396.164 371.996C403.309 349.134 409.491 328.017 409.491 303.966C409.491 281.879 402.39 263.244 394.301 243.019C388.895 229.505 381.091 211.105 369.232 202.481C356.841 193.469 343.024 190.868 327.669 192.882C317.735 194.185 306.241 197.309 297.475 202.201C289.051 206.903 280.764 212.421 271.94 216.832C258.166 223.72 244.811 237.8 227.954 237.8C215.08 237.8 203.465 240.586 196.456 227.736C189.155 214.351 188.598 197.708 180.427 184.868C160.085 152.902 132.628 127.089 91.6153 127.089C71.0701 127.089 47.5092 124.911 32.9048 142.093C19.2597 158.146 -2.36004 166.457 -17.5116 180.767C-26.3684 189.132 -44.3773 195.864 -56.8384 195.864C-68.3795 195.864 -82 182.249 -82 170.703" stroke="black" stroke-width="0.5" stroke-linecap="round"/>
<circle cx="22" cy="152" r="2" fill="black"/>
<circle cx="206" cy="237" r="2" fill="black"/>
<circle cx="173" cy="425" r="2" fill="black"/>
<circle cx="131" cy="548" r="2" fill="black"/>
<path d="M185 -27C185 -7.87369 196.695 7.35104 211.214 19.3534C222.62 28.7823 232.229 40.2254 245.419 47.645C257.822 54.6215 271.482 50.8298 284.9 52.2804C310.493 55.0472 343.836 71.9809 357.547 93.9185C364.348 104.8 371.7 117.769 376.328 129.802C379.089 136.983 386.306 141.242 392.152 145.627" stroke="black" stroke-width="0.5" stroke-linecap="round"/>
</svg>
