<svg width="281" height="55" viewBox="0 0 281 55" fill="none" xmlns="http://www.w3.org/2000/svg">
<mask id="path-1-outside-1_1107_32593" maskUnits="userSpaceOnUse" x="0" y="0" width="281" height="55" fill="black">
<rect fill="white" width="281" height="55"/>
<path d="M27.5001 1L30.0928 6.54018C29.2376 7.24976 28.2824 7.7774 27.2271 8.12309C26.1901 8.45059 24.9438 8.66892 23.4882 8.77808C22.0509 8.88725 20.286 8.96003 18.1937 8.99642C15.8466 9.01461 13.9271 9.39669 12.4351 10.1427C10.9614 10.8704 9.84245 12.0076 9.07829 13.5541C8.31413 15.1006 7.80469 17.1202 7.54996 19.6128H7.87746C8.76899 17.757 10.0426 16.3287 11.6983 15.328C13.3722 14.3092 15.4281 13.7997 17.8662 13.7997C20.468 13.7997 22.7422 14.3728 24.689 15.5191C26.6358 16.6471 28.1551 18.2755 29.2467 20.4043C30.3384 22.533 30.8751 25.0802 30.8569 28.0459C30.8751 31.1389 30.2838 33.8317 29.083 36.1242C27.8821 38.4167 26.1628 40.1815 23.9249 41.4187C21.7052 42.656 19.0579 43.2837 15.983 43.3019C11.3617 43.2837 7.71371 41.8281 5.03914 38.9352C2.36458 36.0241 1.01819 31.803 1 26.2719V23.7884C1.01819 16.4379 2.45555 10.9887 5.31206 7.4408C8.16857 3.8929 12.3806 2.09166 17.948 2.03708C19.44 2.01888 20.7954 2.01888 22.0145 2.03708C23.2335 2.03708 24.2979 1.9734 25.2076 1.84604C26.1355 1.71868 26.8997 1.43666 27.5001 1ZM16.0103 36.7519C17.3203 36.7519 18.4393 36.4153 19.3672 35.7421C20.2951 35.0507 21.0138 34.0773 21.5232 32.8219C22.0327 31.5665 22.2783 30.0746 22.2601 28.3461C22.2783 26.5994 22.0327 25.1257 21.5232 23.9249C21.0138 22.7059 20.286 21.7779 19.3399 21.1411C18.412 20.5043 17.293 20.1859 15.983 20.1859C15.0005 20.1859 14.1181 20.3679 13.3358 20.7318C12.5534 21.0957 11.8893 21.6324 11.3435 22.342C10.7977 23.0334 10.3792 23.8794 10.0881 24.8801C9.79697 25.8808 9.64232 27.0361 9.62412 28.3461C9.62412 30.9297 10.1881 32.9766 11.3162 34.4867C12.4624 35.9968 14.0272 36.7519 16.0103 36.7519ZM45.6762 37.4342C46.9134 37.4342 48.0051 37.1886 48.9512 36.6973C49.9155 36.1879 50.6615 35.5147 51.1891 34.6777C51.7349 33.8226 52.0079 32.8674 52.0079 31.8121V28.5644C51.7531 28.7282 51.3892 28.8828 50.9162 29.0284C50.4613 29.1739 49.9519 29.3013 49.3879 29.4105C48.8238 29.5196 48.2598 29.6197 47.6958 29.7107C47.1318 29.7835 46.6223 29.8562 46.1675 29.929C45.1668 30.0746 44.2934 30.3111 43.5475 30.6386C42.8015 30.9479 42.2193 31.3755 41.8008 31.9213C41.4005 32.4489 41.2004 33.113 41.2004 33.9136C41.2004 35.0598 41.6189 35.9331 42.4558 36.5336C43.2928 37.134 44.3662 37.4342 45.6762 37.4342ZM65.3534 54.1093V12.1895H73.65V17.3476H74.0321C74.4142 16.5107 74.96 15.6646 75.6696 14.8095C76.3792 13.9544 77.3071 13.2448 78.4533 12.6808C79.5996 12.0986 81.0187 11.8074 82.7108 11.8074C84.9487 11.8074 86.9956 12.3897 88.8514 13.5541C90.7254 14.7003 92.2265 16.4379 93.3545 18.7668C94.4826 21.0957 95.0466 24.0068 95.0466 27.5001C95.0466 30.8842 94.5008 33.7498 93.4091 36.0969C92.3174 38.4258 90.8346 40.1906 88.9606 41.3915C87.1048 42.5923 85.0124 43.1927 82.6835 43.1927C81.046 43.1927 79.6542 42.9198 78.5079 42.3739C77.3617 41.8281 76.4247 41.1458 75.6969 40.3271C74.9873 39.4901 74.4324 38.6532 74.0321 37.8163H73.7865V54.1093H65.3534ZM80.0089 36.479C81.3917 36.479 82.5562 36.0969 83.5023 35.3327C84.4484 34.5686 85.1671 33.5133 85.6583 32.1669C86.1495 30.8023 86.3952 29.2376 86.3952 27.4728C86.3952 25.7079 86.1495 24.1614 85.6583 22.8332C85.1852 21.4868 84.4757 20.4316 83.5296 19.6674C82.5835 18.9032 81.4099 18.5212 80.0089 18.5212C78.6444 18.5212 77.4799 18.8941 76.5156 19.6401C75.5695 20.3679 74.8418 21.405 74.3323 22.7513C73.8411 24.0795 73.5954 25.6533 73.5954 27.4728C73.5954 29.274 73.8502 30.8478 74.3596 32.1942C74.8691 33.5406 75.5968 34.5959 76.5429 35.36C77.5072 36.106 78.6626 36.479 80.0089 36.479ZM109.866 37.4342C111.103 37.4342 112.195 37.1886 113.141 36.6973C114.105 36.1879 114.851 35.5147 115.379 34.6777C115.925 33.8226 116.198 32.8674 116.198 31.8121V28.5644C115.943 28.7282 115.579 28.8828 115.106 29.0284C114.651 29.1739 114.142 29.3013 113.578 29.4105C113.013 29.5196 112.449 29.6197 111.885 29.7107C111.321 29.7835 110.812 29.8562 110.357 29.929C109.356 30.0746 108.483 30.3111 107.737 30.6386C106.991 30.9479 106.409 31.3755 105.99 31.9213C105.59 32.4489 105.39 33.113 105.39 33.9136C105.39 35.0598 105.809 35.9331 106.645 36.5336C107.482 37.134 108.556 37.4342 109.866 37.4342ZM136.612 12.1895L142.152 22.8878L147.91 12.1895H156.616L147.774 27.4728L156.835 42.7014H148.183L142.152 32.1669L136.284 42.7014H127.523L136.612 27.4728L127.851 12.1895H136.612ZM172.418 43.3019C169.343 43.3019 166.678 42.6469 164.422 41.3369C162.184 40.0087 160.455 38.1711 159.236 35.824C158.035 33.4587 157.435 30.7114 157.435 27.5819C157.435 24.4161 158.035 21.6597 159.236 19.3126C160.455 16.9473 162.184 15.1097 164.422 13.7997C166.678 12.4715 169.343 11.8074 172.418 11.8074C175.511 11.8074 178.177 12.4715 180.414 13.7997C182.671 15.1097 184.399 16.9473 185.6 19.3126C186.819 21.6597 187.428 24.4161 187.428 27.5819C187.428 30.7114 186.819 33.4587 185.6 35.824C184.399 38.1711 182.671 40.0087 180.414 41.3369C178.177 42.6469 175.511 43.3019 172.418 43.3019ZM172.473 36.6973C173.874 36.6973 175.047 36.3061 175.993 35.5238C176.939 34.7232 177.649 33.6316 178.122 32.2488C178.613 30.866 178.859 29.2922 178.859 27.5274C178.859 25.7443 178.613 24.1705 178.122 22.8059C177.649 21.4414 176.939 20.3679 175.993 19.5855C175.047 18.8032 173.874 18.412 172.473 18.412C171.053 18.412 169.862 18.8032 168.897 19.5855C167.951 20.3679 167.233 21.4414 166.741 22.8059C166.268 24.1705 166.032 25.7443 166.032 27.5274C166.032 29.2922 166.268 30.866 166.741 32.2488C167.233 33.6316 167.951 34.7232 168.897 35.5238C169.862 36.3061 171.053 36.6973 172.473 36.6973ZM265.373 37.4342C266.61 37.4342 267.702 37.1886 268.648 36.6973C269.612 36.1879 270.358 35.5147 270.886 34.6777C271.432 33.8226 271.705 32.8674 271.705 31.8121V28.5644C271.45 28.7282 271.086 28.8828 270.613 29.0284C270.158 29.1739 269.649 29.3013 269.085 29.4105C268.521 29.5196 267.957 29.6197 267.393 29.7107C266.828 29.7835 266.319 29.8562 265.864 29.929C264.864 30.0746 263.99 30.3111 263.244 30.6386C262.498 30.9479 261.916 31.3755 261.498 31.9213C261.097 32.4489 260.897 33.113 260.897 33.9136C260.897 35.0598 261.316 35.9331 262.153 36.5336C262.989 37.134 264.063 37.4342 265.373 37.4342Z"/>
</mask>
<path d="M38.0346 42.2648L37.9235 42.5104L37.927 42.512L38.0346 42.2648ZM34.05 29.929L34.2864 30.0586L34.2873 30.0571L34.05 29.929ZM44.5846 24.7709L44.5596 24.5025L44.559 24.5025L44.5846 24.7709ZM51.1891 23.5428L51.3387 23.7671L51.3405 23.7659L51.1891 23.5428ZM50.7524 19.0124L50.5739 19.2144L50.5762 19.2164L50.7524 19.0124ZM43.7931 18.9851L43.9527 19.2024L43.9535 19.2018L43.7931 18.9851ZM42.0192 21.4959L41.9976 21.7647L42.2177 21.7823L42.2784 21.57L42.0192 21.4959ZM34.1865 20.8682L33.923 20.8114L33.858 21.1124L34.165 21.137L34.1865 20.8682ZM36.5336 16.0649L36.7375 16.2413L36.7386 16.2399L36.5336 16.0649ZM41.0367 12.9264L41.1359 13.177L41.1372 13.1765L41.0367 12.9264ZM56.4564 14.2637L56.3022 14.4849L56.3061 14.4875L56.4564 14.2637ZM52.3626 38.444H52.6322V38.1744H52.3626V38.444ZM52.1443 38.444V38.1744H51.9791L51.9041 38.3216L52.1443 38.444ZM50.1793 40.9821L50.3559 41.1858L50.3584 41.1836L50.1793 40.9821ZM47.2318 42.6742L47.3207 42.9287L47.3243 42.9274L47.2318 42.6742ZM102.224 42.2648L102.113 42.5104L102.117 42.512L102.224 42.2648ZM98.2397 29.929L98.4761 30.0586L98.4769 30.0571L98.2397 29.929ZM108.774 24.7709L108.749 24.5025L108.749 24.5025L108.774 24.7709ZM115.379 23.5428L115.528 23.7671L115.53 23.7659L115.379 23.5428ZM114.942 19.0124L114.764 19.2144L114.766 19.2164L114.942 19.0124ZM107.983 18.9851L108.142 19.2024L108.143 19.2018L107.983 18.9851ZM106.209 21.4959L106.187 21.7647L106.407 21.7823L106.468 21.57L106.209 21.4959ZM98.3761 20.8682L98.1126 20.8114L98.0477 21.1124L98.3546 21.137L98.3761 20.8682ZM100.723 16.0649L100.927 16.2413L100.928 16.2399L100.723 16.0649ZM105.226 12.9264L105.326 13.177L105.327 13.1765L105.226 12.9264ZM120.646 14.2637L120.492 14.4849L120.496 14.4875L120.646 14.2637ZM116.552 38.444H116.822V38.1744H116.552V38.444ZM116.334 38.444V38.1744H116.169L116.094 38.3216L116.334 38.444ZM114.369 40.9821L114.546 41.1858L114.548 41.1836L114.369 40.9821ZM111.421 42.6742L111.51 42.9287L111.514 42.9274L111.421 42.6742ZM189.339 42.7014L189.069 42.7025L189.07 42.971H189.339V42.7014ZM189.311 36.015V35.7454H189.041L189.042 36.0161L189.311 36.015ZM190.321 36.015V36.2847L190.326 36.2846L190.321 36.015ZM192.668 35.0325L192.475 34.8447L192.472 34.8476L192.668 35.0325ZM194.06 31.8394L193.797 31.7823L193.796 31.7847L194.06 31.8394ZM194.688 25.7261L194.419 25.7158L194.418 25.7166L194.688 25.7261ZM195.206 12.1895V11.9199H194.947L194.937 12.1792L195.206 12.1895ZM218.377 12.1895H218.647V11.9199H218.377V12.1895ZM210.326 18.8487H210.596V18.5791H210.326V18.8487ZM202.794 18.8487V18.5791H202.538L202.524 18.8345L202.794 18.8487ZM202.302 28.1824L202.033 28.1682L202.033 28.1689L202.302 28.1824ZM199.327 39.29L199.111 39.1299L199.11 39.1304L199.327 39.29ZM196.162 41.8827L196.27 42.1294L196.272 42.1286L196.162 41.8827ZM223.371 12.1895V11.9199H223.102V12.1895H223.371ZM231.804 12.1895H232.074V11.9199H231.804V12.1895ZM231.804 24.034H231.535V24.3036H231.804V24.034ZM234.206 24.034V24.3036H234.347L234.427 24.1884L234.206 24.034ZM242.475 12.1895V11.9199H242.335L242.254 12.0352L242.475 12.1895ZM252.41 12.1895L252.629 12.3457L252.932 11.9199H252.41V12.1895ZM241.629 27.3636L241.41 27.2075L241.299 27.3636L241.41 27.5197L241.629 27.3636ZM252.519 42.7014V42.971H253.041L252.738 42.5454L252.519 42.7014ZM242.475 42.7014L242.254 42.8556L242.335 42.971H242.475V42.7014ZM234.943 31.894L235.164 31.7399L235.084 31.6244H234.943V31.894ZM231.804 31.894V31.6244H231.535V31.894H231.804ZM257.731 42.2648L257.62 42.5104L257.624 42.512L257.731 42.2648ZM253.747 29.929L253.983 30.0586L253.984 30.0571L253.747 29.929ZM264.281 24.7709L264.256 24.5025L264.256 24.5025L264.281 24.7709ZM270.886 23.5428L271.035 23.7671L271.037 23.7659L270.886 23.5428ZM270.449 19.0124L270.271 19.2144L270.273 19.2164L270.449 19.0124ZM263.49 18.9851L263.649 19.2024L263.65 19.2018L263.49 18.9851ZM261.716 21.4959L261.694 21.7647L261.914 21.7823L261.975 21.57L261.716 21.4959ZM253.883 20.8682L253.62 20.8114L253.555 21.1124L253.862 21.137L253.883 20.8682ZM256.23 16.0649L256.434 16.2413L256.435 16.2399L256.23 16.0649ZM260.733 12.9264L260.833 13.177L260.834 13.1765L260.733 12.9264ZM276.153 14.2637L275.999 14.4849L276.003 14.4875L276.153 14.2637ZM272.059 38.444H272.329V38.1744H272.059V38.444ZM271.841 38.444V38.1744H271.676L271.601 38.3216L271.841 38.444ZM269.876 40.9821L270.053 41.1858L270.055 41.1836L269.876 40.9821ZM266.929 42.6742L267.017 42.9287L267.021 42.9274L266.929 42.6742ZM43.2473 43.005C41.3504 43.005 39.6502 42.674 38.1422 42.0176L37.927 42.512C39.512 43.2019 41.2869 43.5442 43.2473 43.5442V43.005ZM38.1457 42.0192C36.6622 41.348 35.5022 40.3625 34.6583 39.0614L34.2059 39.3548C35.1087 40.7465 36.3504 41.7988 37.9235 42.5104L38.1457 42.0192ZM34.6583 39.0614C33.8196 37.7684 33.3917 36.1487 33.3917 34.1865H32.8525C32.8525 36.2271 33.298 37.9551 34.2059 39.3548L34.6583 39.0614ZM33.3917 34.1865C33.3917 32.5072 33.6956 31.136 34.2864 30.0586L33.8137 29.7994C33.1673 30.9781 32.8525 32.4453 32.8525 34.1865H33.3917ZM34.2873 30.0571C34.8851 28.9494 35.7009 28.0549 36.7368 27.3702L36.4395 26.9204C35.3285 27.6548 34.4522 28.6161 33.8128 29.801L34.2873 30.0571ZM36.7368 27.3702C37.7837 26.6781 38.9755 26.1527 40.3147 25.7956L40.1757 25.2746C38.7857 25.6453 37.5395 26.1932 36.4395 26.9204L36.7368 27.3702ZM40.3147 25.7956C41.6637 25.4358 43.0953 25.1836 44.6101 25.0393L44.559 24.5025C43.0171 24.6494 41.5559 24.9066 40.1757 25.2746L40.3147 25.7956ZM44.6095 25.0394C46.3767 24.8754 47.8018 24.7111 48.8827 24.5462L48.8014 24.0132C47.7354 24.1758 46.3221 24.339 44.5597 24.5025L44.6095 25.0394ZM48.8827 24.5462C49.9678 24.3807 50.7975 24.1279 51.3386 23.7671L51.0396 23.3185C50.5982 23.6127 49.8632 23.8512 48.8014 24.0132L48.8827 24.5462ZM51.3405 23.7659C51.9268 23.368 52.2229 22.7915 52.2229 22.0691H51.6837C51.6837 22.6202 51.4702 23.0262 51.0377 23.3197L51.3405 23.7659ZM52.2229 22.0691V21.9326H51.6837V22.0691H52.2229ZM52.2229 21.9326C52.2229 20.6149 51.7997 19.5606 50.9287 18.8084L50.5762 19.2164C51.3063 19.8469 51.6837 20.7394 51.6837 21.9326H52.2229ZM50.931 18.8104C50.0835 18.0614 48.9011 17.7057 47.4229 17.7057V18.2449C48.8193 18.2449 49.8567 18.5806 50.5739 19.2144L50.931 18.8104ZM47.4229 17.7057C45.8741 17.7057 44.6022 18.051 43.6327 18.7684L43.9535 19.2018C44.8034 18.5728 45.9513 18.2449 47.4229 18.2449V17.7057ZM43.6335 18.7679C42.6961 19.4566 42.0682 20.3429 41.7599 21.4219L42.2784 21.57C42.5523 20.6112 43.1071 19.8237 43.9527 19.2024L43.6335 18.7679ZM42.0407 21.2272L34.208 20.5995L34.165 21.137L41.9976 21.7647L42.0407 21.2272ZM34.45 20.9251C34.8414 19.1104 35.6046 17.5512 36.7375 16.2413L36.3296 15.8886C35.1337 17.2714 34.3321 18.9144 33.923 20.8114L34.45 20.9251ZM36.7386 16.2399C37.8717 14.9121 39.335 13.8903 41.1359 13.177L40.9374 12.6757C39.0631 13.418 37.5243 14.4886 36.3285 15.8899L36.7386 16.2399ZM41.1372 13.1765C42.9549 12.4459 45.0665 12.077 47.4775 12.077V11.5379C45.0123 11.5379 42.8301 11.915 40.9361 12.6763L41.1372 13.1765ZM47.4775 12.077C49.1481 12.077 50.7446 12.2746 52.2678 12.6688L52.4029 12.1469C50.8331 11.7406 49.191 11.5379 47.4775 11.5379V12.077ZM52.2678 12.6688C53.7862 13.0618 55.13 13.6678 56.3022 14.4849L56.6105 14.0425C55.3811 13.1857 53.9776 12.5544 52.4029 12.1469L52.2678 12.6688ZM56.3061 14.4875C57.4883 15.2815 58.4231 16.313 59.1122 17.5852L59.5863 17.3284C58.8563 15.9806 57.8625 14.8833 56.6067 14.0399L56.3061 14.4875ZM59.1122 17.5852C59.7964 18.8483 60.1441 20.3579 60.1441 22.1236H60.6832C60.6832 20.2869 60.3213 18.6853 59.5863 17.3284L59.1122 17.5852ZM60.1441 22.1236V42.7014H60.6832V22.1236H60.1441ZM52.3626 38.1744H52.1443V38.7136H52.3626V38.1744ZM51.9041 38.3216C51.4283 39.2556 50.7942 40.0749 50.0002 40.7806L50.3584 41.1836C51.202 40.4337 51.8778 39.561 52.3845 38.5663L51.9041 38.3216ZM50.0028 40.7784C49.2117 41.4639 48.2587 42.0123 47.1394 42.4209L47.3243 42.9274C48.4975 42.4991 49.5094 41.9194 50.3559 41.1858L50.0028 40.7784ZM47.143 42.4196C46.0313 42.8078 44.7342 43.005 43.2473 43.005V43.5442C44.7806 43.5442 46.1399 43.341 47.3207 42.9287L47.143 42.4196ZM107.437 43.005C105.54 43.005 103.84 42.674 102.332 42.0176L102.117 42.512C103.702 43.2019 105.477 43.5442 107.437 43.5442V43.005ZM102.335 42.0192C100.852 41.348 99.6919 40.3625 98.8479 39.0614L98.3956 39.3548C99.2983 40.7465 100.54 41.7988 102.113 42.5104L102.335 42.0192ZM98.8479 39.0614C98.0092 37.7684 97.5814 36.1487 97.5814 34.1865H97.0422C97.0422 36.2271 97.4877 37.9551 98.3956 39.3548L98.8479 39.0614ZM97.5814 34.1865C97.5814 32.5072 97.8852 31.136 98.4761 30.0586L98.0033 29.7994C97.3569 30.9781 97.0422 32.4453 97.0422 34.1865H97.5814ZM98.4769 30.0571C99.0747 28.9494 99.8905 28.0549 100.926 27.3702L100.629 26.9204C99.5181 27.6548 98.6419 28.6161 98.0024 29.801L98.4769 30.0571ZM100.926 27.3702C101.973 26.6781 103.165 26.1527 104.504 25.7956L104.365 25.2746C102.975 25.6453 101.729 26.1932 100.629 26.9204L100.926 27.3702ZM104.504 25.7956C105.853 25.4358 107.285 25.1836 108.8 25.0393L108.749 24.5025C107.207 24.6494 105.746 24.9066 104.365 25.2746L104.504 25.7956ZM108.799 25.0394C110.566 24.8754 111.991 24.7111 113.072 24.5462L112.991 24.0132C111.925 24.1758 110.512 24.339 108.749 24.5025L108.799 25.0394ZM113.072 24.5462C114.157 24.3807 114.987 24.1279 115.528 23.7671L115.229 23.3185C114.788 23.6127 114.053 23.8512 112.991 24.0132L113.072 24.5462ZM115.53 23.7659C116.117 23.368 116.413 22.7915 116.413 22.0691H115.873C115.873 22.6202 115.66 23.0262 115.227 23.3197L115.53 23.7659ZM116.413 22.0691V21.9326H115.873V22.0691H116.413ZM116.413 21.9326C116.413 20.6149 115.989 19.5606 115.118 18.8084L114.766 19.2164C115.496 19.8469 115.873 20.7394 115.873 21.9326H116.413ZM115.121 18.8104C114.273 18.0614 113.091 17.7057 111.613 17.7057V18.2449C113.009 18.2449 114.046 18.5806 114.764 19.2144L115.121 18.8104ZM111.613 17.7057C110.064 17.7057 108.792 18.051 107.822 18.7684L108.143 19.2018C108.993 18.5728 110.141 18.2449 111.613 18.2449V17.7057ZM107.823 18.7679C106.886 19.4566 106.258 20.3429 105.95 21.4219L106.468 21.57C106.742 20.6112 107.297 19.8237 108.142 19.2024L107.823 18.7679ZM106.23 21.2272L98.3977 20.5995L98.3546 21.137L106.187 21.7647L106.23 21.2272ZM98.6397 20.9251C99.0311 19.1104 99.7942 17.5512 100.927 16.2413L100.519 15.8886C99.3233 17.2714 98.5218 18.9144 98.1126 20.8114L98.6397 20.9251ZM100.928 16.2399C102.061 14.9121 103.525 13.8903 105.326 13.177L105.127 12.6757C103.253 13.418 101.714 14.4886 100.518 15.8899L100.928 16.2399ZM105.327 13.1765C107.145 12.4459 109.256 12.077 111.667 12.077V11.5379C109.202 11.5379 107.02 11.915 105.126 12.6763L105.327 13.1765ZM111.667 12.077C113.338 12.077 114.934 12.2746 116.457 12.6688L116.593 12.1469C115.023 11.7406 113.381 11.5379 111.667 11.5379V12.077ZM116.457 12.6688C117.976 13.0618 119.32 13.6678 120.492 14.4849L120.8 14.0425C119.571 13.1857 118.167 12.5544 116.593 12.1469L116.457 12.6688ZM120.496 14.4875C121.678 15.2815 122.613 16.313 123.302 17.5852L123.776 17.3284C123.046 15.9806 122.052 14.8833 120.796 14.0399L120.496 14.4875ZM123.302 17.5852C123.986 18.8483 124.334 20.3579 124.334 22.1236H124.873C124.873 20.2869 124.511 18.6853 123.776 17.3284L123.302 17.5852ZM124.334 22.1236V42.7014H124.873V22.1236H124.334ZM116.552 38.1744H116.334V38.7136H116.552V38.1744ZM116.094 38.3216C115.618 39.2556 114.984 40.0749 114.19 40.7806L114.548 41.1836C115.392 40.4337 116.067 39.561 116.574 38.5663L116.094 38.3216ZM114.192 40.7784C113.401 41.4639 112.448 42.0123 111.329 42.4209L111.514 42.9274C112.687 42.4991 113.699 41.9194 114.546 41.1858L114.192 40.7784ZM111.333 42.4196C110.221 42.8078 108.924 43.005 107.437 43.005V43.5442C108.97 43.5442 110.33 43.341 111.51 42.9287L111.333 42.4196ZM189.608 42.7003L189.581 36.0139L189.042 36.0161L189.069 42.7025L189.608 42.7003ZM189.311 36.2846H190.321V35.7454H189.311V36.2846ZM190.326 36.2846C191.355 36.2652 192.209 35.9127 192.865 35.2175L192.472 34.8476C191.927 35.426 191.216 35.7285 190.316 35.7455L190.326 36.2846ZM192.862 35.2204C193.533 34.529 194.011 33.4045 194.324 31.8941L193.796 31.7847C193.491 33.2582 193.041 34.2625 192.475 34.8447L192.862 35.2204ZM194.324 31.8966C194.656 30.3639 194.866 28.3081 194.957 25.7357L194.418 25.7166C194.328 28.275 194.119 30.2947 193.797 31.7823L194.324 31.8966ZM194.957 25.7364L195.476 12.1998L194.937 12.1792L194.419 25.7158L194.957 25.7364ZM195.206 12.4591H218.377V11.9199H195.206V12.4591ZM218.107 12.1895V42.7014H218.647V12.1895H218.107ZM210.326 18.5791H202.794V19.1182H210.326V18.5791ZM202.524 18.8345L202.033 28.1682L202.571 28.1965L203.063 18.8628L202.524 18.8345ZM202.033 28.1689C201.906 30.7031 201.599 32.8757 201.114 34.69L201.635 34.8292C202.132 32.9683 202.444 30.756 202.572 28.1958L202.033 28.1689ZM201.114 34.69C200.629 36.5041 199.959 37.9811 199.111 39.1299L199.544 39.4502C200.443 38.2337 201.137 36.6904 201.635 34.8292L201.114 34.69ZM199.11 39.1304C198.281 40.2593 197.262 41.0928 196.051 41.6368L196.272 42.1286C197.572 41.5446 198.663 40.6496 199.545 39.4496L199.11 39.1304ZM196.053 41.636C194.856 42.1641 193.466 42.4319 191.877 42.4319V42.971C193.526 42.971 194.993 42.693 196.27 42.1294L196.053 41.636ZM191.877 42.4319H189.339V42.971H191.877V42.4319ZM223.371 12.4591H231.804V11.9199H223.371V12.4591ZM231.535 12.1895V24.034H232.074V12.1895H231.535ZM231.804 24.3036H234.206V23.7645H231.804V24.3036ZM234.427 24.1884L242.696 12.3439L242.254 12.0352L233.985 23.8797L234.427 24.1884ZM242.475 12.4591H252.41V11.9199H242.475V12.4591ZM252.19 12.0334L241.41 27.2075L241.849 27.5197L252.629 12.3457L252.19 12.0334ZM241.41 27.5197L252.299 42.8575L252.738 42.5454L241.849 27.2075L241.41 27.5197ZM252.519 42.4319H242.475V42.971H252.519V42.4319ZM242.697 42.5473L235.164 31.7399L234.722 32.0482L242.254 42.8556L242.697 42.5473ZM234.943 31.6244H231.804V32.1636H234.943V31.6244ZM231.535 31.894V42.7014H232.074V31.894H231.535ZM262.944 43.005C261.047 43.005 259.347 42.674 257.839 42.0176L257.624 42.512C259.209 43.2019 260.984 43.5442 262.944 43.5442V43.005ZM257.842 42.0192C256.359 41.348 255.199 40.3625 254.355 39.0614L253.903 39.3548C254.805 40.7465 256.047 41.7988 257.62 42.5104L257.842 42.0192ZM254.355 39.0614C253.516 37.7684 253.088 36.1487 253.088 34.1865H252.549C252.549 36.2271 252.995 37.9551 253.903 39.3548L254.355 39.0614ZM253.088 34.1865C253.088 32.5072 253.392 31.136 253.983 30.0586L253.51 29.7994C252.864 30.9781 252.549 32.4453 252.549 34.1865H253.088ZM253.984 30.0571C254.582 28.9494 255.398 28.0549 256.434 27.3702L256.136 26.9204C255.025 27.6548 254.149 28.6161 253.51 29.801L253.984 30.0571ZM256.434 27.3702C257.48 26.6781 258.672 26.1527 260.011 25.7956L259.872 25.2746C258.483 25.6453 257.236 26.1932 256.136 26.9204L256.434 27.3702ZM260.011 25.7956C261.36 25.4358 262.792 25.1836 264.307 25.0393L264.256 24.5025C262.714 24.6494 261.253 24.9066 259.872 25.2746L260.011 25.7956ZM264.306 25.0394C266.073 24.8754 267.499 24.7111 268.579 24.5462L268.498 24.0132C267.432 24.1758 266.019 24.339 264.256 24.5025L264.306 25.0394ZM268.579 24.5462C269.664 24.3807 270.494 24.1279 271.035 23.7671L270.736 23.3185C270.295 23.6127 269.56 23.8512 268.498 24.0132L268.579 24.5462ZM271.037 23.7659C271.624 23.368 271.92 22.7915 271.92 22.0691H271.38C271.38 22.6202 271.167 23.0262 270.734 23.3197L271.037 23.7659ZM271.92 22.0691V21.9326H271.38V22.0691H271.92ZM271.92 21.9326C271.92 20.6149 271.496 19.5606 270.625 18.8084L270.273 19.2164C271.003 19.8469 271.38 20.7394 271.38 21.9326H271.92ZM270.628 18.8104C269.78 18.0614 268.598 17.7057 267.12 17.7057V18.2449C268.516 18.2449 269.553 18.5806 270.271 19.2144L270.628 18.8104ZM267.12 17.7057C265.571 17.7057 264.299 18.051 263.329 18.7684L263.65 19.2018C264.5 18.5728 265.648 18.2449 267.12 18.2449V17.7057ZM263.33 18.7679C262.393 19.4566 261.765 20.3429 261.457 21.4219L261.975 21.57C262.249 20.6112 262.804 19.8237 263.649 19.2024L263.33 18.7679ZM261.737 21.2272L253.905 20.5995L253.862 21.137L261.694 21.7647L261.737 21.2272ZM254.147 20.9251C254.538 19.1104 255.301 17.5512 256.434 16.2413L256.026 15.8886C254.83 17.2714 254.029 18.9144 253.62 20.8114L254.147 20.9251ZM256.435 16.2399C257.568 14.9121 259.032 13.8903 260.833 13.177L260.634 12.6757C258.76 13.418 257.221 14.4886 256.025 15.8899L256.435 16.2399ZM260.834 13.1765C262.652 12.4459 264.763 12.077 267.174 12.077V11.5379C264.709 11.5379 262.527 11.915 260.633 12.6763L260.834 13.1765ZM267.174 12.077C268.845 12.077 270.441 12.2746 271.965 12.6688L272.1 12.1469C270.53 11.7406 268.888 11.5379 267.174 11.5379V12.077ZM271.965 12.6688C273.483 13.0618 274.827 13.6678 275.999 14.4849L276.307 14.0425C275.078 13.1857 273.674 12.5544 272.1 12.1469L271.965 12.6688ZM276.003 14.4875C277.185 15.2815 278.12 16.313 278.809 17.5852L279.283 17.3284C278.553 15.9806 277.559 14.8833 276.303 14.0399L276.003 14.4875ZM278.809 17.5852C279.493 18.8483 279.841 20.3579 279.841 22.1236H280.38C280.38 20.2869 280.018 18.6853 279.283 17.3284L278.809 17.5852ZM279.841 22.1236V42.7014H280.38V22.1236H279.841ZM272.059 38.1744H271.841V38.7136H272.059V38.1744ZM271.601 38.3216C271.125 39.2556 270.491 40.0749 269.697 40.7806L270.055 41.1836C270.899 40.4337 271.575 39.561 272.081 38.5663L271.601 38.3216ZM269.699 40.7784C268.908 41.4639 267.955 42.0123 266.836 42.4209L267.021 42.9274C268.194 42.4991 269.206 41.9194 270.053 41.1858L269.699 40.7784ZM266.84 42.4196C265.728 42.8078 264.431 43.005 262.944 43.005V43.5442C264.477 43.5442 265.837 43.341 267.017 42.9287L266.84 42.4196ZM52.0931 38.444V42.7014H52.6322V38.444H52.0931ZM116.283 38.444V42.7014H116.822V38.444H116.283ZM210.056 18.8487V42.7014H210.596V18.8487H210.056ZM223.102 12.1895V42.7014H223.641V12.1895H223.102ZM271.79 38.444V42.7014H272.329V38.444H271.79ZM27.5001 1L27.9884 0.771462L27.7114 0.179585L27.1829 0.563945L27.5001 1ZM30.0928 6.54018L30.4371 6.95511L30.7577 6.68903L30.5811 6.31164L30.0928 6.54018ZM27.2271 8.12309L27.3895 8.63727L27.395 8.63548L27.2271 8.12309ZM23.4882 8.77808L23.4479 8.24041L23.4474 8.24045L23.4882 8.77808ZM18.1937 8.99642L18.1978 9.53561L18.203 9.53552L18.1937 8.99642ZM12.4351 10.1427L12.6739 10.6261L12.6763 10.6249L12.4351 10.1427ZM7.54996 19.6128L7.01358 19.558L6.95288 20.152H7.54996V19.6128ZM7.87746 19.6128V20.152H8.21661L8.36347 19.8463L7.87746 19.6128ZM11.6983 15.328L11.9772 15.7895L11.9786 15.7886L11.6983 15.328ZM24.689 15.5191L24.4155 15.9837L24.4187 15.9856L24.689 15.5191ZM30.8569 28.0459L30.3177 28.0426L30.3178 28.0491L30.8569 28.0459ZM23.9249 41.4187L23.664 40.9469L23.6624 40.9478L23.9249 41.4187ZM15.983 43.3019L15.9809 43.8411L15.9862 43.841L15.983 43.3019ZM5.03914 38.9352L4.6421 39.3L4.64324 39.3012L5.03914 38.9352ZM1 26.2719L0.460816 26.2719L0.460822 26.2737L1 26.2719ZM1 23.7884L0.460819 23.7871V23.7884H1ZM17.948 2.03708L17.9533 2.57623L17.9546 2.57622L17.948 2.03708ZM22.0145 2.03708L22.0064 2.57626H22.0145V2.03708ZM25.2076 1.84604L25.1343 1.31186L25.1328 1.31206L25.2076 1.84604ZM19.3672 35.7421L19.6838 36.1786L19.6893 36.1745L19.3672 35.7421ZM22.2601 28.3461L21.7208 28.3405L21.7209 28.3518L22.2601 28.3461ZM21.5232 23.9249L21.0257 24.1328L21.0269 24.1355L21.5232 23.9249ZM19.3399 21.1411L19.0348 21.5857L19.0388 21.5884L19.3399 21.1411ZM11.3435 22.342L11.7667 22.6761L11.7709 22.6707L11.3435 22.342ZM9.62412 28.3461L9.08494 28.3386V28.3461H9.62412ZM11.3162 34.4867L10.8842 34.8094L10.8867 34.8127L11.3162 34.4867ZM48.9512 36.6973L49.1997 37.1758L49.2031 37.1741L48.9512 36.6973ZM51.1891 34.6777L50.7346 34.3876L50.733 34.3902L51.1891 34.6777ZM52.0079 28.5644H52.547V27.5768L51.7163 28.1109L52.0079 28.5644ZM50.9162 29.0284L50.7576 28.513L50.7519 28.5149L50.9162 29.0284ZM47.6958 29.7107L47.7648 30.2454L47.7732 30.2443L47.7816 30.243L47.6958 29.7107ZM46.1675 29.929L46.2451 30.4626L46.2527 30.4614L46.1675 29.929ZM43.5475 30.6386L43.754 31.1368L43.7642 31.1323L43.5475 30.6386ZM41.8008 31.9213L41.3729 31.5932L41.3713 31.5954L41.8008 31.9213ZM65.3534 54.1093H64.8142V54.6485H65.3534V54.1093ZM65.3534 12.1895V11.6503H64.8142V12.1895H65.3534ZM73.65 12.1895H74.1892V11.6503H73.65V12.1895ZM73.65 17.3476H73.1108V17.8868H73.65V17.3476ZM74.0321 17.3476V17.8868H74.3787L74.5226 17.5715L74.0321 17.3476ZM78.4533 12.6808L78.6914 13.1646L78.6975 13.1615L78.4533 12.6808ZM88.8514 13.5541L88.5648 14.0109L88.5701 14.0141L88.8514 13.5541ZM93.4091 36.0969L93.8973 36.3257L93.898 36.3243L93.4091 36.0969ZM88.9606 41.3915L88.6697 40.9375L88.6677 40.9388L88.9606 41.3915ZM75.6969 40.3271L75.2855 40.6759L75.2939 40.6853L75.6969 40.3271ZM74.0321 37.8163L74.5185 37.5836L74.3719 37.2771H74.0321V37.8163ZM73.7865 37.8163V37.2771H73.2473V37.8163H73.7865ZM73.7865 54.1093V54.6485H74.3257V54.1093H73.7865ZM85.6583 32.1669L86.1648 32.3517L86.1656 32.3495L85.6583 32.1669ZM85.6583 22.8332L85.1495 23.012L85.1526 23.0203L85.6583 22.8332ZM76.5156 19.6401L76.8444 20.0675L76.8455 20.0666L76.5156 19.6401ZM74.3323 22.7513L73.828 22.5605L73.8266 22.5643L74.3323 22.7513ZM76.5429 35.36L76.2041 35.7796L76.213 35.7865L76.5429 35.36ZM113.141 36.6973L113.389 37.1758L113.393 37.1741L113.141 36.6973ZM115.379 34.6777L114.924 34.3876L114.923 34.3902L115.379 34.6777ZM116.198 28.5644H116.737V27.5768L115.906 28.1109L116.198 28.5644ZM115.106 29.0284L114.947 28.513L114.942 28.5149L115.106 29.0284ZM111.885 29.7107L111.954 30.2454L111.963 30.2443L111.971 30.243L111.885 29.7107ZM110.357 29.929L110.435 30.4626L110.442 30.4614L110.357 29.929ZM107.737 30.6386L107.944 31.1368L107.954 31.1323L107.737 30.6386ZM105.99 31.9213L105.563 31.5932L105.561 31.5954L105.99 31.9213ZM136.612 12.1895L137.09 11.9416L136.94 11.6503H136.612V12.1895ZM142.152 22.8878L141.673 23.1357L142.143 24.0425L142.627 23.1434L142.152 22.8878ZM147.91 12.1895V11.6503H147.588L147.435 11.934L147.91 12.1895ZM156.616 12.1895L157.083 12.4595L157.551 11.6503H156.616V12.1895ZM147.774 27.4728L147.307 27.2028L147.149 27.4766L147.31 27.7485L147.774 27.4728ZM156.835 42.7014V43.2406H157.783L157.298 42.4258L156.835 42.7014ZM148.183 42.7014L147.715 42.9693L147.871 43.2406H148.183V42.7014ZM142.152 32.1669L142.62 31.899L142.145 31.0705L141.681 31.9046L142.152 32.1669ZM136.284 42.7014V43.2406H136.601L136.755 42.9638L136.284 42.7014ZM127.523 42.7014L127.06 42.4251L126.574 43.2406H127.523V42.7014ZM136.612 27.4728L137.075 27.7491L137.236 27.4783L137.079 27.2046L136.612 27.4728ZM127.851 12.1895V11.6503H126.92L127.383 12.4577L127.851 12.1895ZM164.422 41.3369L164.146 41.8006L164.151 41.8031L164.422 41.3369ZM159.236 35.824L158.755 36.0681L158.758 36.0725L159.236 35.824ZM159.236 19.3126L158.757 19.0656L158.756 19.067L159.236 19.3126ZM164.422 13.7997L164.694 14.265L164.695 14.2644L164.422 13.7997ZM180.414 13.7997L180.139 14.2634L180.144 14.266L180.414 13.7997ZM185.6 19.3126L185.119 19.5567L185.121 19.5611L185.6 19.3126ZM185.6 35.824L185.121 35.577L185.12 35.5784L185.6 35.824ZM180.414 41.3369L180.687 41.8022L180.688 41.8015L180.414 41.3369ZM175.993 35.5238L176.337 35.9393L176.342 35.9354L175.993 35.5238ZM178.122 32.2488L177.614 32.0683L177.612 32.0743L178.122 32.2488ZM178.122 22.8059L177.612 22.9825L177.615 22.9886L178.122 22.8059ZM168.897 19.5855L168.558 19.1668L168.554 19.17L168.897 19.5855ZM166.741 22.8059L166.234 22.6233L166.232 22.6293L166.741 22.8059ZM166.741 32.2488L166.231 32.4233L166.233 32.4293L166.741 32.2488ZM168.897 35.5238L168.549 35.9355L168.558 35.9425L168.897 35.5238ZM268.648 36.6973L268.896 37.1758L268.9 37.1741L268.648 36.6973ZM270.886 34.6777L270.431 34.3876L270.43 34.3902L270.886 34.6777ZM271.705 28.5644H272.244V27.5768L271.413 28.1109L271.705 28.5644ZM270.613 29.0284L270.454 28.513L270.449 28.5149L270.613 29.0284ZM267.393 29.7107L267.462 30.2454L267.47 30.2443L267.478 30.243L267.393 29.7107ZM265.864 29.929L265.942 30.4626L265.949 30.4614L265.864 29.929ZM263.244 30.6386L263.451 31.1368L263.461 31.1323L263.244 30.6386ZM261.498 31.9213L261.07 31.5932L261.068 31.5954L261.498 31.9213ZM27.0117 1.22854L29.6044 6.76872L30.5811 6.31164L27.9884 0.771462L27.0117 1.22854ZM29.7485 6.12525C28.9455 6.79157 28.0501 7.28613 27.0593 7.6107L27.395 8.63548C28.5147 8.26867 29.5298 7.70795 30.4371 6.95511L29.7485 6.12525ZM27.0648 7.60893C26.0782 7.92049 24.8751 8.13337 23.4479 8.24041L23.5285 9.31575C25.0124 9.20446 26.302 8.98068 27.3895 8.63724L27.0648 7.60893ZM23.4474 8.24045C22.024 8.34856 20.2704 8.42104 18.1843 8.45732L18.203 9.53552C20.3017 9.49902 22.0777 9.42594 23.529 9.31572L23.4474 8.24045ZM18.1895 8.45725C15.7915 8.47584 13.7833 8.86579 12.194 9.6604L12.6763 10.6249C14.0709 9.9276 15.9017 9.55338 18.1978 9.53558L18.1895 8.45725ZM12.1964 9.65921C10.611 10.4422 9.40875 11.6682 8.5949 13.3152L9.56168 13.793C10.2762 12.347 11.3118 11.2987 12.6739 10.6261L12.1964 9.65921ZM8.5949 13.3152C7.79245 14.9392 7.27214 17.0278 7.01358 19.558L8.08635 19.6676C8.33723 17.2126 8.8358 15.262 9.56168 13.793L8.5949 13.3152ZM7.54996 20.152H7.87746V19.0736H7.54996V20.152ZM8.36347 19.8463C9.21265 18.0786 10.4171 16.7324 11.9772 15.7895L11.4194 14.8666C9.6681 15.9251 8.32532 17.4354 7.39145 19.3793L8.36347 19.8463ZM11.9786 15.7886C13.5496 14.8323 15.503 14.3389 17.8662 14.3389V13.2605C15.3532 13.2605 13.1947 13.786 11.4179 14.8675L11.9786 15.7886ZM17.8662 14.3389C20.3866 14.3389 22.5635 14.8933 24.4155 15.9837L24.9626 15.0545C22.921 13.8524 20.5493 13.2605 17.8662 13.2605V14.3389ZM24.4187 15.9856C26.2702 17.0585 27.7194 18.6075 28.767 20.6503L29.7265 20.1582C28.5907 17.9435 27.0014 16.2358 24.9594 15.0526L24.4187 15.9856ZM28.767 20.6503C29.8107 22.6856 30.3355 25.1432 30.3178 28.0426L31.3961 28.0492C31.4147 25.0173 30.8661 22.3804 29.7265 20.1582L28.767 20.6503ZM30.3178 28.0491C30.3355 31.071 29.758 33.6736 28.6054 35.874L29.5606 36.3744C30.8096 33.9899 31.4147 31.2068 31.3961 28.0427L30.3178 28.0491ZM28.6054 35.874C27.4529 38.0742 25.8083 39.7614 23.664 40.9469L24.1857 41.8906C26.5172 40.6017 28.3114 38.7592 29.5606 36.3744L28.6054 35.874ZM23.6624 40.9478C21.537 42.1324 18.9829 42.7449 15.9799 42.7627L15.9862 43.841C19.1329 43.8224 21.8733 43.1795 24.1874 41.8897L23.6624 40.9478ZM15.9852 42.7627C11.4852 42.745 7.99038 41.3331 5.43505 38.5692L4.64324 39.3012C7.43705 42.3231 11.2382 43.8224 15.9809 43.841L15.9852 42.7627ZM5.43619 38.5704C2.88341 35.7919 1.55711 31.7205 1.53918 26.2702L0.460822 26.2737C0.479282 31.8855 1.84574 36.2563 4.6421 39.3L5.43619 38.5704ZM1.53918 26.2719V23.7884H0.460819V26.2719H1.53918ZM1.53918 23.7898C1.55724 16.4918 2.98704 11.1883 5.73204 7.77893L4.89208 7.10266C1.92405 10.7891 0.479145 16.384 0.460821 23.7871L1.53918 23.7898ZM5.73204 7.77893C8.46498 4.38452 12.5078 2.62962 17.9533 2.57623L17.9427 1.49792C12.2534 1.5537 7.87217 3.40129 4.89208 7.10266L5.73204 7.77893ZM17.9546 2.57622C19.4427 2.55807 20.7932 2.55809 22.0064 2.5762L22.0225 1.49796C20.7977 1.47968 19.4372 1.4797 17.9415 1.49794L17.9546 2.57622ZM22.0145 2.57626C23.251 2.57626 24.3414 2.51175 25.2823 2.38001L25.1328 1.31206C24.2544 1.43505 23.216 1.4979 22.0145 1.4979V2.57626ZM25.2809 2.38021C26.2744 2.24385 27.1284 1.93697 27.8172 1.43605L27.1829 0.563945C26.6709 0.936359 25.9966 1.1935 25.1343 1.31186L25.2809 2.38021ZM16.0103 37.2911C17.4172 37.2911 18.6511 36.9278 19.6838 36.1785L19.0506 35.3057C18.2275 35.9028 17.2235 36.2127 16.0103 36.2127V37.2911ZM19.6893 36.1745C20.7089 35.4148 21.4827 34.3556 22.0228 33.0247L21.0236 32.6192C20.5448 33.7991 19.8813 34.6867 19.045 35.3097L19.6893 36.1745ZM22.0228 33.0247C22.5654 31.6876 22.818 30.1214 22.7992 28.3404L21.7209 28.3518C21.7386 30.0277 21.4999 31.4455 21.0236 32.6192L22.0228 33.0247ZM22.7992 28.3517C22.818 26.5546 22.5661 25.0024 22.0196 23.7143L21.0269 24.1355C21.4993 25.249 21.7386 26.6442 21.7209 28.3405L22.7992 28.3517ZM22.0207 23.717C21.4772 22.4165 20.6877 21.3984 19.641 20.6938L19.0388 21.5884C19.8843 22.1575 20.5503 22.9953 21.0257 24.1328L22.0207 23.717ZM19.645 20.6966C18.6132 19.9885 17.3836 19.6468 15.983 19.6468V20.7251C17.2025 20.7251 18.2107 21.0202 19.0348 21.5857L19.645 20.6966ZM15.983 19.6468C14.9329 19.6468 13.9712 19.8416 13.1084 20.2429L13.5632 21.2207C14.265 20.8942 15.0682 20.7251 15.983 20.7251V19.6468ZM13.1084 20.2429C12.2445 20.6447 11.5127 21.2376 10.9161 22.0132L11.7709 22.6707C12.2659 22.0271 12.8624 21.5466 13.5632 21.2207L13.1084 20.2429ZM10.9203 22.0079C10.3243 22.7628 9.87738 23.6741 9.57036 24.7295L10.6058 25.0307C10.881 24.0847 11.271 23.3039 11.7667 22.6761L10.9203 22.0079ZM9.57036 24.7295C9.26277 25.7868 9.1037 26.992 9.08499 28.3386L10.1632 28.3536C10.1809 27.0802 10.3312 25.9747 10.6058 25.0307L9.57036 24.7295ZM9.08494 28.3461C9.08494 31.0036 9.66489 33.177 10.8842 34.8094L11.7482 34.164C10.7114 32.7761 10.1633 30.8558 10.1633 28.3461H9.08494ZM10.8867 34.8127C12.1403 36.4642 13.8676 37.2911 16.0103 37.2911V36.2127C14.1867 36.2127 12.7846 35.5295 11.7457 34.1607L10.8867 34.8127ZM45.6762 37.9734C46.986 37.9734 48.1653 37.7129 49.1997 37.1758L48.7027 36.2188C47.8449 36.6642 46.8409 36.895 45.6762 36.895V37.9734ZM49.2031 37.1741C50.2421 36.6251 51.0622 35.8901 51.6452 34.9653L50.733 34.3902C50.2607 35.1393 49.5889 35.7506 48.6993 36.2206L49.2031 37.1741ZM51.6436 34.9678C52.247 34.0225 52.547 32.9658 52.547 31.8121H51.4687C51.4687 32.769 51.2228 33.6228 50.7346 34.3876L51.6436 34.9678ZM52.547 31.8121V28.5644H51.4687V31.8121H52.547ZM51.7163 28.1109C51.5206 28.2367 51.2094 28.374 50.7576 28.5131L51.0748 29.5437C51.5691 29.3916 51.9856 29.2197 52.2994 29.018L51.7163 28.1109ZM50.7519 28.5149C50.3209 28.6528 49.8326 28.7752 49.2854 28.8811L49.4903 29.9398C50.0712 29.8274 50.6018 29.6951 51.0805 29.5419L50.7519 28.5149ZM49.2854 28.8811C48.7269 28.9892 48.1684 29.0883 47.6099 29.1784L47.7816 30.243C48.3512 30.1511 48.9208 30.0501 49.4903 29.9398L49.2854 28.8811ZM47.6268 29.1759C47.0586 29.2493 46.5436 29.3228 46.0823 29.3966L46.2527 30.4614C46.7011 30.3897 47.205 30.3177 47.7648 30.2454L47.6268 29.1759ZM46.0899 29.3954C45.0522 29.5464 44.1302 29.7939 43.3307 30.1449L43.7642 31.1323C44.4567 30.8283 45.2813 30.6028 46.2451 30.4626L46.0899 29.3954ZM43.341 30.1405C42.5229 30.4797 41.8583 30.9601 41.3729 31.5932L42.2287 32.2493C42.5803 31.7908 43.0801 31.4161 43.754 31.1367L43.341 30.1405ZM41.3713 31.5954C40.886 32.2351 40.6612 33.0206 40.6612 33.9136H41.7396C41.7396 33.2055 41.9151 32.6628 42.2304 32.2472L41.3713 31.5954ZM40.6612 33.9136C40.6612 35.2108 41.1459 36.2574 42.1415 36.9717L42.7701 36.0955C42.0919 35.6089 41.7396 34.9088 41.7396 33.9136H40.6612ZM42.1415 36.9717C43.0923 37.6537 44.2842 37.9734 45.6762 37.9734V36.895C44.4482 36.895 43.4933 36.6142 42.7701 36.0955L42.1415 36.9717ZM65.8926 54.1093V12.1895H64.8142V54.1093H65.8926ZM65.3534 12.7287H73.65V11.6503H65.3534V12.7287ZM73.1108 12.1895V17.3476H74.1892V12.1895H73.1108ZM73.65 17.8868H74.0321V16.8084H73.65V17.8868ZM74.5226 17.5715C74.8813 16.7858 75.3993 15.9796 76.0845 15.1538L75.2547 14.4652C74.5208 15.3496 73.9471 16.2356 73.5416 17.1237L74.5226 17.5715ZM76.0845 15.1538C76.7389 14.3652 77.6031 13.7001 78.6914 13.1646L78.2153 12.197C77.0111 12.7895 76.0195 13.5435 75.2547 14.4652L76.0845 15.1538ZM78.6975 13.1615C79.748 12.6279 81.0778 12.3466 82.7108 12.3466V11.2683C80.9597 11.2683 79.4511 11.5692 78.2092 12.2L78.6975 13.1615ZM82.7108 12.3466C84.8496 12.3466 86.7968 12.9015 88.5648 14.0108L89.138 13.0974C87.1944 11.8779 85.0478 11.2683 82.7108 11.2683V12.3466ZM88.5701 14.0141C90.3413 15.0974 91.7781 16.7491 92.8693 19.0018L93.8398 18.5317C92.6748 16.1267 91.1096 14.3033 89.1327 13.0941L88.5701 14.0141ZM92.8693 19.0018C93.9517 21.2364 94.5074 24.0611 94.5074 27.5001H95.5858C95.5858 23.9524 95.0135 20.9549 93.8398 18.5317L92.8693 19.0018ZM94.5074 27.5001C94.5074 30.8288 93.9702 33.612 92.9202 35.8695L93.898 36.3243C95.0313 33.8876 95.5858 30.9396 95.5858 27.5001H94.5074ZM92.9209 35.8681C91.8656 38.1194 90.4453 39.7997 88.6697 40.9375L89.2515 41.8454C91.2239 40.5816 92.7693 38.7321 93.8973 36.3257L92.9209 35.8681ZM88.6677 40.9388C86.9039 42.08 84.9143 42.6535 82.6835 42.6535V43.7319C85.1105 43.7319 87.3056 43.1045 89.2535 41.8441L88.6677 40.9388ZM82.6835 42.6535C81.1038 42.6535 79.7957 42.39 78.7397 41.8871L78.2761 42.8608C79.5126 43.4495 80.9882 43.7319 82.6835 43.7319V42.6535ZM78.7397 41.8871C77.6483 41.3674 76.7728 40.7259 76.0999 39.9689L75.2939 40.6853C76.0766 41.5658 77.075 42.2888 78.2761 42.8608L78.7397 41.8871ZM76.1082 39.9784C75.4232 39.1705 74.8956 38.372 74.5185 37.5836L73.5457 38.0489C73.9692 38.9344 74.5514 39.8098 75.2856 40.6758L76.1082 39.9784ZM74.0321 37.2771H73.7865V38.3554H74.0321V37.2771ZM73.2473 37.8163V54.1093H74.3257V37.8163H73.2473ZM73.7865 53.5701H65.3534V54.6485H73.7865V53.5701ZM80.0089 37.0182C81.4972 37.0182 82.786 36.6043 83.8411 35.7522L83.1635 34.9133C82.3263 35.5895 81.2862 35.9398 80.0089 35.9398V37.0182ZM83.8411 35.7522C84.876 34.9163 85.6461 33.7735 86.1648 32.3517L85.1518 31.9821C84.6881 33.2531 84.0208 34.2209 83.1635 34.9133L83.8411 35.7522ZM86.1656 32.3495C86.682 30.9152 86.9343 29.2868 86.9343 27.4728H85.856C85.856 29.1884 85.6171 30.6894 85.151 31.9843L86.1656 32.3495ZM86.9343 27.4728C86.9343 25.6592 86.6821 24.0469 86.164 22.6462L85.1526 23.0203C85.617 24.2759 85.856 25.7566 85.856 27.4728H86.9343ZM86.167 22.6545C85.6666 21.2303 84.905 20.0852 83.8684 19.248L83.1908 20.0869C84.0463 20.7779 84.7039 21.7434 85.1496 23.0119L86.167 22.6545ZM83.8684 19.248C82.8121 18.3948 81.5135 17.982 80.0089 17.982V19.0603C81.3063 19.0603 82.3549 19.4117 83.1908 20.0869L83.8684 19.248ZM80.0089 17.982C78.54 17.982 77.2557 18.3859 76.1857 19.2136L76.8455 20.0666C77.7042 19.4024 78.7488 19.0603 80.0089 19.0603V17.982ZM76.1869 19.2127C75.1465 20.0131 74.3656 21.1399 73.828 22.5605L74.8366 22.9422C75.318 21.67 75.9926 20.7227 76.8444 20.0675L76.1869 19.2127ZM73.8266 22.5643C73.3079 23.9667 73.0563 25.6068 73.0563 27.4728H74.1346C74.1346 25.6999 74.3742 24.1924 74.838 22.9384L73.8266 22.5643ZM73.0563 27.4728C73.0563 29.3235 73.3178 30.9645 73.8553 32.385L74.8639 32.0034C74.3825 30.7312 74.1346 29.2246 74.1346 27.4728H73.0563ZM73.8553 32.385C74.3924 33.8044 75.1709 34.9449 76.2041 35.7795L76.8817 34.9406C76.0228 34.2468 75.3457 33.2768 74.8639 32.0034L73.8553 32.385ZM76.213 35.7865C77.2817 36.6132 78.5563 37.0182 80.0089 37.0182V35.9398C78.7688 35.9398 77.7328 35.5988 76.8728 34.9336L76.213 35.7865ZM109.866 37.9734C111.176 37.9734 112.355 37.7129 113.389 37.1758L112.892 36.2188C112.035 36.6642 111.031 36.895 109.866 36.895V37.9734ZM113.393 37.1741C114.432 36.6251 115.252 35.8901 115.835 34.9653L114.923 34.3902C114.45 35.1393 113.779 35.7506 112.889 36.2206L113.393 37.1741ZM115.833 34.9678C116.437 34.0225 116.737 32.9658 116.737 31.8121H115.658C115.658 32.769 115.413 33.6228 114.924 34.3876L115.833 34.9678ZM116.737 31.8121V28.5644H115.658V31.8121H116.737ZM115.906 28.1109C115.71 28.2367 115.399 28.374 114.947 28.5131L115.264 29.5437C115.759 29.3916 116.175 29.2197 116.489 29.018L115.906 28.1109ZM114.942 28.5149C114.511 28.6528 114.022 28.7752 113.475 28.8811L113.68 29.9398C114.261 29.8274 114.791 29.6951 115.27 29.5419L114.942 28.5149ZM113.475 28.8811C112.917 28.9892 112.358 29.0883 111.8 29.1784L111.971 30.243C112.541 30.1511 113.11 30.0501 113.68 29.9398L113.475 28.8811ZM111.816 29.1759C111.248 29.2493 110.733 29.3228 110.272 29.3966L110.442 30.4614C110.891 30.3897 111.395 30.3177 111.954 30.2454L111.816 29.1759ZM110.28 29.3954C109.242 29.5464 108.32 29.7939 107.52 30.1449L107.954 31.1323C108.646 30.8283 109.471 30.6028 110.435 30.4626L110.28 29.3954ZM107.531 30.1405C106.713 30.4797 106.048 30.9601 105.563 31.5932L106.418 32.2493C106.77 31.7908 107.27 31.4161 107.944 31.1367L107.531 30.1405ZM105.561 31.5954C105.076 32.2351 104.851 33.0206 104.851 33.9136H105.929C105.929 33.2055 106.105 32.6628 106.42 32.2472L105.561 31.5954ZM104.851 33.9136C104.851 35.2108 105.336 36.2574 106.331 36.9717L106.96 36.0955C106.282 35.6089 105.929 34.9088 105.929 33.9136H104.851ZM106.331 36.9717C107.282 37.6537 108.474 37.9734 109.866 37.9734V36.895C108.638 36.895 107.683 36.6142 106.96 36.0955L106.331 36.9717ZM136.133 12.4375L141.673 23.1357L142.631 22.6399L137.09 11.9416L136.133 12.4375ZM142.627 23.1434L148.385 12.4451L147.435 11.934L141.677 22.6322L142.627 23.1434ZM147.91 12.7287H156.616V11.6503H147.91V12.7287ZM156.15 11.9195L147.307 27.2028L148.241 27.7428L157.083 12.4595L156.15 11.9195ZM147.31 27.7485L156.371 42.9771L157.298 42.4258L148.237 27.1971L147.31 27.7485ZM156.835 42.1623H148.183V43.2406H156.835V42.1623ZM148.651 42.4335L142.62 31.899L141.684 32.4348L147.715 42.9693L148.651 42.4335ZM141.681 31.9046L135.813 42.4391L136.755 42.9638L142.623 32.4293L141.681 31.9046ZM136.284 42.1623H127.523V43.2406H136.284V42.1623ZM127.986 42.9778L137.075 27.7491L136.149 27.1965L127.06 42.4251L127.986 42.9778ZM137.079 27.2046L128.319 11.9214L127.383 12.4577L136.144 27.7409L137.079 27.2046ZM127.851 12.7287H136.612V11.6503H127.851V12.7287ZM172.418 42.7627C169.421 42.7627 166.853 42.1249 164.692 40.8706L164.151 41.8031C166.503 43.1688 169.265 43.841 172.418 43.841V42.7627ZM164.697 40.8732C162.547 39.5972 160.888 37.8348 159.715 35.5755L158.758 36.0725C160.022 38.5073 161.821 40.4201 164.146 41.8005L164.697 40.8732ZM159.717 35.5799C158.561 33.3027 157.974 30.6417 157.974 27.5819H156.896C156.896 30.781 157.51 33.6147 158.755 36.0681L159.717 35.5799ZM157.974 27.5819C157.974 24.4845 158.561 21.8154 159.716 19.5582L158.756 19.067C157.509 21.5039 156.896 24.3477 156.896 27.5819H157.974ZM159.715 19.5596C160.889 17.2828 162.547 15.522 164.694 14.265L164.149 13.3344C161.821 14.6975 160.022 16.6119 158.757 19.0656L159.715 19.5596ZM164.695 14.2644C166.855 12.9929 169.422 12.3466 172.418 12.3466V11.2683C169.264 11.2683 166.501 11.9502 164.148 13.3351L164.695 14.2644ZM172.418 12.3466C175.433 12.3466 177.999 12.9932 180.139 14.2634L180.69 13.3361C178.354 11.9498 175.59 11.2683 172.418 11.2683V12.3466ZM180.144 14.266C182.308 15.5228 183.965 17.2826 185.119 19.5567L186.081 19.0685C184.834 16.6121 183.033 14.6966 180.685 13.3334L180.144 14.266ZM185.121 19.5611C186.293 21.8177 186.889 24.4857 186.889 27.5819H187.968C187.968 24.3465 187.344 21.5017 186.078 19.0641L185.121 19.5611ZM186.889 27.5819C186.889 30.6405 186.294 33.3005 185.121 35.577L186.079 36.071C187.344 33.617 187.968 30.7822 187.968 27.5819H186.889ZM185.12 35.5784C183.965 37.835 182.308 39.5964 180.141 40.8722L180.688 41.8015C183.033 40.421 184.833 38.5071 186.08 36.0696L185.12 35.5784ZM180.142 40.8716C178.001 42.1246 175.434 42.7627 172.418 42.7627V43.841C175.588 43.841 178.352 43.1691 180.687 41.8022L180.142 40.8716ZM172.473 37.2365C173.98 37.2365 175.281 36.8128 176.337 35.9393L175.65 35.1083C174.814 35.7995 173.767 36.1581 172.473 36.1581V37.2365ZM176.342 35.9354C177.374 35.0614 178.133 33.8816 178.632 32.4233L177.612 32.0743C177.165 33.3815 176.504 34.3851 175.645 35.1122L176.342 35.9354ZM178.63 32.4293C179.146 30.9782 179.398 29.3416 179.398 27.5274H178.32C178.32 29.2428 178.081 30.7539 177.614 32.0683L178.63 32.4293ZM179.398 27.5274C179.398 25.6958 179.146 24.0581 178.629 22.6233L177.615 22.9886C178.081 24.2829 178.32 25.7928 178.32 27.5274H179.398ZM178.631 22.6293C178.132 21.1881 177.372 20.0257 176.337 19.17L175.65 20.001C176.507 20.7101 177.166 21.6946 177.613 22.9825L178.631 22.6293ZM176.337 19.17C175.281 18.2966 173.98 17.8728 172.473 17.8728V18.9512C173.767 18.9512 174.814 19.3098 175.65 20.001L176.337 19.17ZM172.473 17.8728C170.948 17.8728 169.632 18.2955 168.558 19.1668L169.237 20.0042C170.092 19.3108 171.159 18.9512 172.473 18.9512V17.8728ZM168.554 19.17C167.521 20.0243 166.752 21.1844 166.234 22.6233L167.249 22.9886C167.713 21.6983 168.382 20.7115 169.241 20.001L168.554 19.17ZM166.232 22.6293C165.735 24.0622 165.493 25.6978 165.493 27.5274H166.571C166.571 25.7909 166.801 24.2788 167.251 22.9825L166.232 22.6293ZM165.493 27.5274C165.493 29.3397 165.735 30.9741 166.231 32.4233L167.252 32.0743C166.801 30.758 166.571 29.2448 166.571 27.5274H165.493ZM166.233 32.4293C166.751 33.8852 167.518 35.0628 168.549 35.9354L169.246 35.1122C168.385 34.3837 167.715 33.3779 167.249 32.0683L166.233 32.4293ZM168.558 35.9425C169.632 36.8138 170.948 37.2365 172.473 37.2365V36.1581C171.159 36.1581 170.092 35.7985 169.237 35.1051L168.558 35.9425ZM265.373 37.9734C266.683 37.9734 267.862 37.7129 268.896 37.1758L268.399 36.2188C267.542 36.6642 266.538 36.895 265.373 36.895V37.9734ZM268.9 37.1741C269.939 36.6251 270.759 35.8901 271.342 34.9653L270.43 34.3902C269.957 35.1393 269.286 35.7506 268.396 36.2206L268.9 37.1741ZM271.34 34.9678C271.944 34.0225 272.244 32.9659 272.244 31.8121H271.165C271.165 32.769 270.92 33.6227 270.431 34.3876L271.34 34.9678ZM272.244 31.8121V28.5644H271.165V31.8121H272.244ZM271.413 28.1109C271.217 28.2367 270.906 28.374 270.454 28.5131L270.772 29.5437C271.266 29.3916 271.682 29.2197 271.996 29.018L271.413 28.1109ZM270.449 28.5149C270.018 28.6528 269.529 28.7752 268.982 28.8811L269.187 29.9398C269.768 29.8274 270.299 29.6951 270.777 29.5419L270.449 28.5149ZM268.982 28.8811C268.424 28.9892 267.865 29.0883 267.307 29.1784L267.478 30.243C268.048 30.1511 268.618 30.0501 269.187 29.9398L268.982 28.8811ZM267.324 29.1759C266.755 29.2493 266.24 29.3228 265.779 29.3966L265.949 30.4614C266.398 30.3897 266.902 30.3177 267.462 30.2454L267.324 29.1759ZM265.787 29.3954C264.749 29.5464 263.827 29.7939 263.027 30.1449L263.461 31.1323C264.153 30.8283 264.978 30.6028 265.942 30.4626L265.787 29.3954ZM263.038 30.1405C262.22 30.4797 261.555 30.9601 261.07 31.5932L261.925 32.2493C262.277 31.7908 262.777 31.4161 263.451 31.1367L263.038 30.1405ZM261.068 31.5954C260.583 32.2351 260.358 33.0206 260.358 33.9136H261.436C261.436 33.2055 261.612 32.6628 261.927 32.2472L261.068 31.5954ZM260.358 33.9136C260.358 35.2108 260.843 36.2574 261.838 36.9717L262.467 36.0955C261.789 35.6089 261.436 34.9088 261.436 33.9136H260.358ZM261.838 36.9717C262.789 37.6537 263.981 37.9734 265.373 37.9734V36.895C264.145 36.895 263.19 36.6142 262.467 36.0955L261.838 36.9717Z" fill="#131313" mask="url(#path-1-outside-1_1107_32593)"/>
<circle cx="52.4412" cy="42.2996" r="0.818137" fill="#131313"/>
<circle cx="116.494" cy="42.2996" r="0.818137" fill="#131313"/>
<circle cx="210.233" cy="42.2996" r="0.818137" fill="#131313"/>
<circle cx="223.449" cy="42.2996" r="0.818137" fill="#131313"/>
<circle cx="272.047" cy="42.2996" r="0.818137" fill="#131313"/>
<circle cx="60.3718" cy="42.2996" r="0.818137" fill="#131313"/>
<circle cx="124.424" cy="42.2996" r="0.818137" fill="#131313"/>
<circle cx="218.366" cy="42.2996" r="0.818137" fill="#131313"/>
<circle cx="231.584" cy="42.2996" r="0.818137" fill="#131313"/>
<circle cx="280.181" cy="42.2996" r="0.818137" fill="#131313"/>
</svg>
