<svg width="1041" height="203" viewBox="0 0 1041 203" fill="none" xmlns="http://www.w3.org/2000/svg">
<mask id="path-1-outside-1_788_18509" maskUnits="userSpaceOnUse" x="0" y="0" width="1039" height="203" fill="black">
<rect fill="white" width="1039" height="203"/>
<path d="M100.298 4L109.915 24.5504C106.743 27.1824 103.2 29.1396 99.2852 30.4219C95.4383 31.6367 90.8153 32.4466 85.4162 32.8515C80.0846 33.2564 73.5382 33.5264 65.777 33.6614C57.0709 33.7288 49.9508 35.1461 44.4168 37.9132C38.9502 40.6127 34.7996 44.8308 31.9651 50.5673C29.1305 56.3039 27.2408 63.7951 26.296 73.0411H27.5108C30.8177 66.1572 35.542 60.8594 41.6835 57.1475C47.8924 53.3681 55.5187 51.4784 64.5622 51.4784C74.2131 51.4784 82.6492 53.6043 89.8705 57.8561C97.0918 62.0404 102.727 68.0807 106.776 75.9769C110.826 83.8731 112.817 93.3215 112.749 104.322C112.817 115.795 110.623 125.784 106.169 134.287C101.715 142.791 95.3371 149.337 87.036 153.927C78.8023 158.516 68.9827 160.844 57.5771 160.912C40.4349 160.844 26.9034 155.445 16.9825 144.714C7.06166 133.916 2.06749 118.259 2 97.742V88.5298C2.06749 61.2643 7.39911 41.0514 17.9949 27.8911C28.5906 14.7307 44.2143 8.04933 64.8659 7.84687C70.4 7.77938 75.4279 7.77938 79.9496 7.84687C84.4714 7.84687 88.4195 7.61065 91.7939 7.13823C95.2359 6.66581 98.0704 5.61973 100.298 4ZM57.6783 136.616C62.5375 136.616 66.6881 135.367 70.13 132.87C73.5719 130.305 76.2377 126.695 78.1274 122.038C80.0171 117.381 80.9282 111.847 80.8607 105.436C80.9282 98.9568 80.0171 93.4902 78.1274 89.036C76.2377 84.5142 73.5382 81.0723 70.0288 78.7102C66.5868 76.3481 62.4363 75.167 57.5771 75.167C53.9327 75.167 50.6595 75.8419 47.7574 77.1917C44.8554 78.5415 42.3921 80.5324 40.3674 83.1644C38.3428 85.729 36.7905 88.8672 35.7107 92.5791C34.6309 96.291 34.0572 100.577 33.9897 105.436C33.9897 115.019 36.0819 122.612 40.2662 128.213C44.518 133.815 50.322 136.616 57.6783 136.616ZM167.719 139.146C172.308 139.146 176.357 138.235 179.867 136.413C183.444 134.523 186.211 132.026 188.168 128.922C190.193 125.75 191.205 122.207 191.205 118.292V106.246C190.26 106.853 188.91 107.427 187.156 107.967C185.468 108.507 183.579 108.979 181.487 109.384C179.394 109.789 177.302 110.16 175.21 110.497C173.118 110.767 171.228 111.037 169.541 111.307C165.829 111.847 162.59 112.725 159.823 113.939C157.056 115.087 154.896 116.673 153.344 118.697C151.859 120.655 151.117 123.118 151.117 126.087C151.117 130.339 152.669 133.579 155.773 135.806C158.878 138.033 162.86 139.146 167.719 139.146ZM240.708 201V45.5057H271.483V64.6387H272.9C274.318 61.5343 276.342 58.396 278.974 55.224C281.606 52.0521 285.048 49.42 289.3 47.3278C293.552 45.1682 298.816 44.0884 305.093 44.0884C313.394 44.0884 320.986 46.248 327.87 50.5673C334.821 54.8191 340.389 61.2643 344.573 69.9029C348.758 78.5414 350.85 89.3397 350.85 102.298C350.85 114.85 348.825 125.48 344.776 134.186C340.727 142.825 335.226 149.371 328.275 153.825C321.391 158.28 313.63 160.507 304.991 160.507C298.917 160.507 293.754 159.494 289.503 157.47C285.251 155.445 281.775 152.914 279.076 149.877C276.443 146.773 274.385 143.668 272.9 140.564H271.989V201H240.708ZM295.07 135.603C300.2 135.603 304.519 134.186 308.028 131.351C311.538 128.517 314.203 124.603 316.026 119.608C317.848 114.547 318.759 108.743 318.759 102.196C318.759 95.6499 317.848 89.9133 316.026 84.9866C314.271 79.9925 311.639 76.0781 308.129 73.2436C304.62 70.409 300.267 68.9918 295.07 68.9918C290.009 68.9918 285.689 70.3753 282.113 73.1423C278.603 75.8419 275.904 79.6888 274.014 84.6829C272.192 89.6096 271.281 95.4474 271.281 102.196C271.281 108.878 272.225 114.715 274.115 119.71C276.005 124.704 278.704 128.618 282.214 131.453C285.791 134.22 290.076 135.603 295.07 135.603ZM405.82 139.146C410.409 139.146 414.458 138.235 417.968 136.413C421.545 134.523 424.312 132.026 426.269 128.922C428.293 125.75 429.306 122.207 429.306 118.292V106.246C428.361 106.853 427.011 107.427 425.256 107.967C423.569 108.507 421.679 108.979 419.587 109.384C417.495 109.789 415.403 110.16 413.311 110.497C411.219 110.767 409.329 111.037 407.642 111.307C403.93 111.847 400.69 112.725 397.923 113.939C395.156 115.087 392.997 116.673 391.444 118.697C389.96 120.655 389.217 123.118 389.217 126.087C389.217 130.339 390.77 133.579 393.874 135.806C396.979 138.033 400.96 139.146 405.82 139.146ZM505.028 45.5057L525.579 85.1891L546.939 45.5057H579.232L546.433 102.196L580.042 158.684H547.951L525.579 119.608L503.813 158.684H471.318L505.028 102.196L472.532 45.5057H505.028ZM637.846 160.912C626.441 160.912 616.554 158.482 608.185 153.623C599.884 148.696 593.472 141.88 588.951 133.174C584.496 124.4 582.269 114.209 582.269 102.601C582.269 90.8582 584.496 80.6336 588.951 71.9275C593.472 63.154 599.884 56.3376 608.185 51.4784C616.554 46.5517 626.441 44.0884 637.846 44.0884C649.319 44.0884 659.207 46.5517 667.508 51.4784C675.876 56.3376 682.288 63.154 686.742 71.9275C691.264 80.6336 693.525 90.8582 693.525 102.601C693.525 114.209 691.264 124.4 686.742 133.174C682.288 141.88 675.876 148.696 667.508 153.623C659.207 158.482 649.319 160.912 637.846 160.912ZM638.049 136.413C643.245 136.413 647.598 134.962 651.108 132.06C654.617 129.091 657.249 125.041 659.004 119.912C660.826 114.783 661.737 108.945 661.737 102.399C661.737 95.7849 660.826 89.9471 659.004 84.8854C657.249 79.8237 654.617 75.8419 651.108 72.9399C647.598 70.0379 643.245 68.5868 638.049 68.5868C632.785 68.5868 628.364 70.0379 624.787 72.9399C621.278 75.8419 618.612 79.8237 616.79 84.8854C615.035 89.9471 614.158 95.7849 614.158 102.399C614.158 108.945 615.035 114.783 616.79 119.912C618.612 125.041 621.278 129.091 624.787 132.06C628.364 134.962 632.785 136.413 638.049 136.413ZM982.647 139.146C987.236 139.146 991.285 138.235 994.795 136.413C998.372 134.523 1001.14 132.026 1003.1 128.922C1005.12 125.75 1006.13 122.207 1006.13 118.292V106.246C1005.19 106.853 1003.84 107.427 1002.08 107.967C1000.4 108.507 998.507 108.979 996.415 109.384C994.322 109.789 992.23 110.16 990.138 110.497C988.046 110.767 986.156 111.037 984.469 111.307C980.757 111.847 977.518 112.725 974.751 113.939C971.984 115.087 969.824 116.673 968.272 118.697C966.787 120.655 966.045 123.118 966.045 126.087C966.045 130.339 967.597 133.579 970.701 135.806C973.806 138.033 977.788 139.146 982.647 139.146Z"/>
</mask>
<path d="M139.374 157.065L138.961 157.976L138.968 157.979L138.974 157.982L139.374 157.065ZM124.594 111.307L125.47 111.788L125.474 111.782L124.594 111.307ZM163.67 92.1742L163.577 91.1785L163.575 91.1787L163.67 92.1742ZM188.168 87.6187L188.723 88.4508L188.73 88.4462L188.168 87.6187ZM186.548 70.814L185.886 71.5634L185.895 71.5708L186.548 70.814ZM160.734 70.7127L161.326 71.5186L161.329 71.5166L160.734 70.7127ZM154.154 80.0262L154.074 81.023L154.89 81.0884L155.115 80.3009L154.154 80.0262ZM125.1 77.6978L124.122 77.487L123.881 78.6034L125.02 78.6946L125.1 77.6978ZM133.806 59.8808L134.562 60.5349L134.566 60.5299L133.806 59.8808ZM150.509 48.2389L150.877 49.1687L150.882 49.1668L150.509 48.2389ZM207.706 53.1994L207.134 54.0198L207.141 54.0247L207.149 54.0295L207.706 53.1994ZM192.521 142.892H193.521V141.892H192.521V142.892ZM191.711 142.892V141.892H191.098L190.82 142.438L191.711 142.892ZM184.422 152.307L185.077 153.063L185.087 153.054L184.422 152.307ZM173.489 158.583L173.819 159.527L173.832 159.523L173.489 158.583ZM377.474 157.065L377.062 157.976L377.069 157.979L377.075 157.982L377.474 157.065ZM362.694 111.307L363.571 111.788L363.574 111.782L362.694 111.307ZM401.77 92.1742L401.678 91.1785L401.675 91.1787L401.77 92.1742ZM426.269 87.6187L426.823 88.4508L426.83 88.4462L426.269 87.6187ZM424.649 70.814L423.987 71.5634L423.995 71.5708L424.649 70.814ZM398.835 70.7127L399.427 71.5186L399.429 71.5166L398.835 70.7127ZM392.254 80.0262L392.174 81.023L392.991 81.0884L393.216 80.3009L392.254 80.0262ZM363.2 77.6978L362.223 77.487L361.982 78.6034L363.121 78.6946L363.2 77.6978ZM371.906 59.8808L372.663 60.5349L372.667 60.5299L371.906 59.8808ZM388.61 48.2389L388.978 49.1687L388.983 49.1668L388.61 48.2389ZM445.807 53.1994L445.235 54.0198L445.242 54.0247L445.249 54.0295L445.807 53.1994ZM430.622 142.892H431.622V141.892H430.622V142.892ZM429.812 142.892V141.892H429.199L428.921 142.438L429.812 142.892ZM422.523 152.307L423.178 153.063L423.187 153.054L422.523 152.307ZM411.59 158.583L411.92 159.527L411.933 159.523L411.59 158.583ZM700.611 158.684L699.611 158.689L699.615 159.684H700.611V158.684ZM700.51 133.882V132.882H699.506L699.51 133.886L700.51 133.882ZM704.255 133.882V134.882H704.265L704.274 134.882L704.255 133.882ZM712.961 130.238L712.244 129.541L712.239 129.546L712.234 129.552L712.961 130.238ZM718.124 118.394L717.147 118.182L717.145 118.191L718.124 118.394ZM720.453 95.7174L719.453 95.6791L719.453 95.6819L720.453 95.7174ZM722.376 45.5057V44.5057H721.414L721.377 45.4674L722.376 45.5057ZM808.323 45.5057H809.323V44.5057H808.323V45.5057ZM778.459 70.2066H779.459V69.2066H778.459V70.2066ZM750.519 70.2066V69.2066H749.57L749.52 70.154L750.519 70.2066ZM748.697 104.828L747.698 104.776L747.698 104.778L748.697 104.828ZM737.662 146.03L736.858 145.436L736.856 145.438L737.662 146.03ZM725.919 155.647L726.323 156.562L726.329 156.56L725.919 155.647ZM826.849 45.5057V44.5057H825.849V45.5057H826.849ZM858.13 45.5057H859.13V44.5057H858.13V45.5057ZM858.13 89.4409H857.13V90.4409H858.13V89.4409ZM867.039 89.4409V90.4409H867.56L867.858 90.0133L867.039 89.4409ZM897.712 45.5057V44.5057H897.191L896.892 44.9332L897.712 45.5057ZM934.561 45.5057L935.376 46.0848L936.498 44.5057H934.561V45.5057ZM894.574 101.791L893.759 101.212L893.347 101.791L893.759 102.37L894.574 101.791ZM934.966 158.684V159.684H936.902L935.781 158.106L934.966 158.684ZM897.712 158.684L896.892 159.256L897.19 159.684H897.712V158.684ZM869.772 118.596L870.592 118.024L870.294 117.596H869.772V118.596ZM858.13 118.596V117.596H857.13V118.596H858.13ZM954.302 157.065L953.889 157.976L953.896 157.979L953.902 157.982L954.302 157.065ZM939.522 111.307L940.398 111.788L940.402 111.782L939.522 111.307ZM978.598 92.1742L978.505 91.1785L978.503 91.1787L978.598 92.1742ZM1003.1 87.6187L1003.65 88.4508L1003.66 88.4462L1003.1 87.6187ZM1001.48 70.814L1000.81 71.5634L1000.82 71.5708L1001.48 70.814ZM975.662 70.7127L976.254 71.5186L976.257 71.5166L975.662 70.7127ZM969.082 80.0262L969.002 81.023L969.818 81.0884L970.043 80.3009L969.082 80.0262ZM940.028 77.6978L939.05 77.487L938.809 78.6034L939.948 78.6946L940.028 77.6978ZM948.734 59.8808L949.49 60.5349L949.494 60.5299L948.734 59.8808ZM965.437 48.2389L965.805 49.1687L965.81 49.1668L965.437 48.2389ZM1022.63 53.1994L1022.06 54.0198L1022.07 54.0247L1022.08 54.0295L1022.63 53.1994ZM1007.45 142.892H1008.45V141.892H1007.45V142.892ZM1006.64 142.892V141.892H1006.03L1005.75 142.438L1006.64 142.892ZM999.35 152.307L1000.01 153.063L1000.01 153.054L999.35 152.307ZM988.417 158.583L988.747 159.527L988.76 159.523L988.417 158.583ZM158.709 159.81C151.673 159.81 145.367 158.583 139.773 156.148L138.974 157.982C144.854 160.541 151.438 161.81 158.709 161.81V159.81ZM139.786 156.154C134.283 153.664 129.98 150.008 126.85 145.182L125.172 146.271C128.52 151.433 133.126 155.336 138.961 157.976L139.786 156.154ZM126.85 145.182C123.739 140.386 122.152 134.378 122.152 127.1H120.152C120.152 134.669 121.804 141.079 125.172 146.271L126.85 145.182ZM122.152 127.1C122.152 120.87 123.279 115.784 125.47 111.788L123.717 110.826C121.319 115.199 120.152 120.641 120.152 127.1H122.152ZM125.474 111.782C127.691 107.674 130.717 104.356 134.56 101.816L133.457 100.147C129.336 102.871 126.085 106.437 123.713 110.832L125.474 111.782ZM134.56 101.816C138.443 99.2488 142.864 97.2996 147.831 95.975L147.316 94.0425C142.16 95.4174 137.537 97.4501 133.457 100.147L134.56 101.816ZM147.831 95.975C152.835 94.6406 158.146 93.7048 163.764 93.1697L163.575 91.1787C157.855 91.7234 152.435 92.6773 147.316 94.0425L147.831 95.975ZM163.762 93.1699C170.317 92.5617 175.603 91.9522 179.613 91.3406L179.311 89.3634C175.357 89.9666 170.115 90.5719 163.577 91.1785L163.762 93.1699ZM179.613 91.3406C183.638 90.7266 186.716 89.7889 188.723 88.4508L187.613 86.7867C185.976 87.8781 183.25 88.7626 179.311 89.3634L179.613 91.3406ZM188.73 88.4462C190.905 86.9703 192.003 84.832 192.003 82.1521H190.003C190.003 84.1964 189.211 85.7026 187.607 86.7912L188.73 88.4462ZM192.003 82.1521V81.6459H190.003V82.1521H192.003ZM192.003 81.6459C192.003 76.7583 190.433 72.8475 187.202 70.0572L185.895 71.5708C188.603 73.9096 190.003 77.2201 190.003 81.6459H192.003ZM187.21 70.0646C184.067 67.2865 179.681 65.9671 174.198 65.9671V67.9671C179.378 67.9671 183.226 69.2123 185.886 71.5633L187.21 70.0646ZM174.198 65.9671C168.453 65.9671 163.735 67.2478 160.139 69.9089L161.329 71.5166C164.481 69.1835 168.739 67.9671 174.198 67.9671V65.9671ZM160.142 69.9069C156.665 72.4615 154.336 75.7491 153.192 79.7515L155.115 80.3009C156.131 76.7445 158.189 73.8232 161.326 71.5186L160.142 69.9069ZM154.234 79.0294L125.18 76.701L125.02 78.6946L154.074 81.023L154.234 79.0294ZM126.077 77.9087C127.529 71.1775 130.36 65.3938 134.562 60.5349L133.049 59.2266C128.613 64.3561 125.64 70.4504 124.122 77.487L126.077 77.9087ZM134.566 60.5299C138.769 55.6047 144.197 51.8144 150.877 49.1687L150.141 47.3092C143.189 50.0626 137.481 54.0335 133.045 59.2317L134.566 60.5299ZM150.882 49.1668C157.625 46.4566 165.457 45.0884 174.4 45.0884V43.0884C165.256 43.0884 157.162 44.4872 150.136 47.3111L150.882 49.1668ZM174.4 45.0884C180.597 45.0884 186.519 45.8213 192.169 47.2836L192.67 45.3474C186.847 43.8403 180.756 43.0884 174.4 43.0884V45.0884ZM192.169 47.2836C197.801 48.7413 202.786 50.9892 207.134 54.0198L208.278 52.379C203.718 49.2006 198.511 46.8592 192.67 45.3474L192.169 47.2836ZM207.149 54.0295C211.534 56.975 215.001 60.8008 217.557 65.52L219.316 64.5674C216.608 59.5681 212.922 55.4978 208.264 52.3692L207.149 54.0295ZM217.557 65.52C220.095 70.2053 221.385 75.805 221.385 82.3546H223.385C223.385 75.5414 222.042 69.6005 219.316 64.5674L217.557 65.52ZM221.385 82.3546V158.684H223.385V82.3546H221.385ZM192.521 141.892H191.711V143.892H192.521V141.892ZM190.82 142.438C189.055 145.903 186.703 148.942 183.758 151.559L185.087 153.054C188.216 150.273 190.723 147.035 192.602 143.346L190.82 142.438ZM183.767 151.551C180.833 154.094 177.298 156.128 173.146 157.644L173.832 159.523C178.184 157.934 181.938 155.784 185.077 153.062L183.767 151.551ZM173.16 157.639C169.036 159.079 164.225 159.81 158.709 159.81V161.81C164.397 161.81 169.439 161.057 173.819 159.527L173.16 157.639ZM396.81 159.81C389.774 159.81 383.467 158.583 377.873 156.148L377.075 157.982C382.954 160.541 389.538 161.81 396.81 161.81V159.81ZM377.886 156.154C372.384 153.664 368.081 150.008 364.95 145.182L363.273 146.271C366.621 151.433 371.227 155.336 377.062 157.976L377.886 156.154ZM364.95 145.182C361.839 140.386 360.252 134.378 360.252 127.1H358.252C358.252 134.669 359.905 141.079 363.273 146.271L364.95 145.182ZM360.252 127.1C360.252 120.87 361.379 115.784 363.571 111.788L361.817 110.826C359.42 115.199 358.252 120.641 358.252 127.1H360.252ZM363.574 111.782C365.792 107.674 368.818 104.356 372.66 101.816L371.558 100.147C367.436 102.871 364.186 106.437 361.814 110.832L363.574 111.782ZM372.66 101.816C376.544 99.2488 380.964 97.2996 385.932 95.975L385.417 94.0425C380.261 95.4174 375.638 97.4501 371.558 100.147L372.66 101.816ZM385.932 95.975C390.936 94.6406 396.246 93.7048 401.865 93.1697L401.675 91.1787C395.956 91.7234 390.536 92.6773 385.417 94.0425L385.932 95.975ZM401.863 93.1699C408.418 92.5617 413.704 91.9522 417.713 91.3406L417.412 89.3634C413.458 89.9666 408.215 90.5719 401.678 91.1785L401.863 93.1699ZM417.713 91.3406C421.738 90.7266 424.816 89.7889 426.823 88.4508L425.714 86.7867C424.077 87.8781 421.351 88.7626 417.412 89.3634L417.713 91.3406ZM426.83 88.4462C429.005 86.9703 430.103 84.832 430.103 82.1521H428.103C428.103 84.1964 427.312 85.7026 425.707 86.7912L426.83 88.4462ZM430.103 82.1521V81.6459H428.103V82.1521H430.103ZM430.103 81.6459C430.103 76.7583 428.534 72.8475 425.303 70.0572L423.995 71.5708C426.703 73.9096 428.103 77.2201 428.103 81.6459H430.103ZM425.311 70.0646C422.168 67.2865 417.782 65.9671 412.299 65.9671V67.9671C417.478 67.9671 421.326 69.2123 423.987 71.5633L425.311 70.0646ZM412.299 65.9671C406.554 65.9671 401.836 67.2478 398.24 69.9089L399.429 71.5166C402.582 69.1835 406.84 67.9671 412.299 67.9671V65.9671ZM398.242 69.9069C394.765 72.4615 392.436 75.7491 391.293 79.7515L393.216 80.3009C394.232 76.7445 396.29 73.8232 399.427 71.5186L398.242 69.9069ZM392.334 79.0294L363.28 76.701L363.121 78.6946L392.174 81.023L392.334 79.0294ZM364.178 77.9087C365.63 71.1775 368.461 65.3938 372.663 60.5349L371.15 59.2266C366.714 64.3561 363.741 70.4504 362.223 77.487L364.178 77.9087ZM372.667 60.5299C376.87 55.6047 382.298 51.8144 388.978 49.1687L388.242 47.3092C381.289 50.0626 375.581 54.0335 371.146 59.2317L372.667 60.5299ZM388.983 49.1668C395.725 46.4566 403.558 45.0884 412.501 45.0884V43.0884C403.357 43.0884 395.262 44.4872 388.237 47.3111L388.983 49.1668ZM412.501 45.0884C418.698 45.0884 424.62 45.8213 430.27 47.2836L430.771 45.3474C424.948 43.8403 418.857 43.0884 412.501 43.0884V45.0884ZM430.27 47.2836C435.902 48.7413 440.887 50.9892 445.235 54.0198L446.379 52.379C441.818 49.2006 436.612 46.8592 430.771 45.3474L430.27 47.2836ZM445.249 54.0295C449.635 56.975 453.102 60.8008 455.658 65.52L457.417 64.5674C454.709 59.5681 451.022 55.4978 446.364 52.3692L445.249 54.0295ZM455.658 65.52C458.196 70.2053 459.486 75.805 459.486 82.3546H461.486C461.486 75.5414 460.143 69.6005 457.417 64.5674L455.658 65.52ZM459.486 82.3546V158.684H461.486V82.3546H459.486ZM430.622 141.892H429.812V143.892H430.622V141.892ZM428.921 142.438C427.156 145.903 424.804 148.942 421.859 151.559L423.187 153.054C426.316 150.273 428.823 147.035 430.703 143.346L428.921 142.438ZM421.868 151.551C418.934 154.094 415.399 156.128 411.247 157.644L411.933 159.523C416.285 157.934 420.038 155.784 423.178 153.062L421.868 151.551ZM411.26 157.639C407.137 159.079 402.325 159.81 396.81 159.81V161.81C402.497 161.81 407.54 161.057 411.92 159.527L411.26 157.639ZM701.611 158.68L701.51 133.878L699.51 133.886L699.611 158.689L701.611 158.68ZM700.51 134.882H704.255V132.882H700.51V134.882ZM704.274 134.882C708.09 134.81 711.258 133.503 713.689 130.924L712.234 129.552C710.211 131.697 707.575 132.82 704.236 132.882L704.274 134.882ZM713.679 130.935C716.17 128.37 717.942 124.199 719.104 118.597L717.145 118.191C716.012 123.656 714.342 127.382 712.244 129.541L713.679 130.935ZM719.102 118.606C720.335 112.921 721.114 105.295 721.452 95.7528L719.453 95.6819C719.117 105.172 718.344 112.664 717.147 118.182L719.102 118.606ZM721.452 95.7556L723.375 45.5439L721.377 45.4674L719.453 95.6791L721.452 95.7556ZM722.376 46.5057H808.323V44.5057H722.376V46.5057ZM807.323 45.5057V158.684H809.323V45.5057H807.323ZM778.459 69.2066H750.519V71.2066H778.459V69.2066ZM749.52 70.154L747.698 104.776L749.695 104.881L751.518 70.2591L749.52 70.154ZM747.698 104.778C747.228 114.179 746.088 122.238 744.289 128.967L746.221 129.484C748.066 122.581 749.221 114.375 749.696 104.878L747.698 104.778ZM744.289 128.967C742.49 135.697 740.005 141.175 736.858 145.436L738.467 146.624C741.799 142.112 744.375 136.387 746.221 129.484L744.289 128.967ZM736.856 145.438C733.781 149.626 730.001 152.717 725.509 154.735L726.329 156.56C731.151 154.393 735.199 151.073 738.468 146.622L736.856 145.438ZM725.516 154.733C721.076 156.691 715.92 157.684 710.026 157.684V159.684C716.144 159.684 721.584 158.653 726.323 156.562L725.516 154.733ZM710.026 157.684H700.611V159.684H710.026V157.684ZM826.849 46.5057H858.13V44.5057H826.849V46.5057ZM857.13 45.5057V89.4409H859.13V45.5057H857.13ZM858.13 90.4409H867.039V88.4409H858.13V90.4409ZM867.858 90.0133L898.532 46.0781L896.892 44.9332L866.219 88.8685L867.858 90.0133ZM897.712 46.5057H934.561V44.5057H897.712V46.5057ZM933.746 44.9265L893.759 101.212L895.389 102.371L935.376 46.0848L933.746 44.9265ZM893.759 102.37L934.151 159.263L935.781 158.106L895.389 101.212L893.759 102.37ZM934.966 157.684H897.712V159.684H934.966V157.684ZM898.533 158.113L870.592 118.024L868.951 119.168L896.892 159.256L898.533 158.113ZM869.772 117.596H858.13V119.596H869.772V117.596ZM857.13 118.596V158.684H859.13V118.596H857.13ZM973.637 159.81C966.601 159.81 960.294 158.583 954.701 156.148L953.902 157.982C959.782 160.541 966.366 161.81 973.637 161.81V159.81ZM954.714 156.154C949.211 153.664 944.908 150.008 941.778 145.182L940.1 146.271C943.448 151.433 948.054 155.336 953.889 157.976L954.714 156.154ZM941.778 145.182C938.667 140.386 937.08 134.378 937.08 127.1H935.08C935.08 134.669 936.732 141.079 940.1 146.271L941.778 145.182ZM937.08 127.1C937.08 120.87 938.207 115.784 940.398 111.788L938.645 110.826C936.247 115.199 935.08 120.641 935.08 127.1H937.08ZM940.402 111.782C942.619 107.674 945.645 104.356 949.488 101.816L948.385 100.147C944.264 102.871 941.013 106.437 938.642 110.832L940.402 111.782ZM949.488 101.816C953.371 99.2488 957.792 97.2996 962.759 95.975L962.244 94.0425C957.088 95.4174 952.465 97.4501 948.385 100.147L949.488 101.816ZM962.759 95.975C967.763 94.6406 973.074 93.7048 978.692 93.1697L978.503 91.1787C972.783 91.7234 967.363 92.6773 962.244 94.0425L962.759 95.975ZM978.69 93.1699C985.245 92.5617 990.531 91.9522 994.541 91.3406L994.239 89.3634C990.285 89.9666 985.043 90.5719 978.505 91.1785L978.69 93.1699ZM994.541 91.3406C998.566 90.7266 1001.64 89.7889 1003.65 88.4508L1002.54 86.7867C1000.9 87.8781 998.178 88.7626 994.239 89.3634L994.541 91.3406ZM1003.66 88.4462C1005.83 86.9703 1006.93 84.832 1006.93 82.1521H1004.93C1004.93 84.1964 1004.14 85.7026 1002.53 86.7912L1003.66 88.4462ZM1006.93 82.1521V81.6459H1004.93V82.1521H1006.93ZM1006.93 81.6459C1006.93 76.7583 1005.36 72.8475 1002.13 70.0572L1000.82 71.5708C1003.53 73.9096 1004.93 77.2201 1004.93 81.6459H1006.93ZM1002.14 70.0646C998.995 67.2865 994.609 65.9671 989.126 65.9671V67.9671C994.306 67.9671 998.154 69.2123 1000.81 71.5633L1002.14 70.0646ZM989.126 65.9671C983.381 65.9671 978.663 67.2478 975.067 69.9089L976.257 71.5166C979.409 69.1835 983.667 67.9671 989.126 67.9671V65.9671ZM975.07 69.9069C971.593 72.4615 969.264 75.7492 968.12 79.7515L970.043 80.3009C971.059 76.7445 973.117 73.8232 976.254 71.5186L975.07 69.9069ZM969.162 79.0294L940.108 76.701L939.948 78.6946L969.002 81.023L969.162 79.0294ZM941.005 77.9087C942.457 71.1775 945.288 65.3938 949.49 60.5349L947.977 59.2266C943.541 64.3561 940.568 70.4504 939.05 77.487L941.005 77.9087ZM949.494 60.5299C953.697 55.6047 959.125 51.8144 965.805 49.1687L965.069 47.3092C958.117 50.0626 952.409 54.0335 947.973 59.2317L949.494 60.5299ZM965.81 49.1668C972.553 46.4566 980.385 45.0884 989.328 45.0884V43.0884C980.184 43.0884 972.09 44.4872 965.064 47.3111L965.81 49.1668ZM989.328 45.0884C995.525 45.0884 1001.45 45.8213 1007.1 47.2836L1007.6 45.3474C1001.78 43.8403 995.684 43.0884 989.328 43.0884V45.0884ZM1007.1 47.2836C1012.73 48.7413 1017.71 50.9892 1022.06 54.0198L1023.21 52.379C1018.65 49.2006 1013.44 46.8592 1007.6 45.3474L1007.1 47.2836ZM1022.08 54.0295C1026.46 56.975 1029.93 60.8008 1032.49 65.52L1034.24 64.5674C1031.54 59.5681 1027.85 55.4978 1023.19 52.3692L1022.08 54.0295ZM1032.49 65.52C1035.02 70.2053 1036.31 75.805 1036.31 82.3546H1038.31C1038.31 75.5414 1036.97 69.6005 1034.24 64.5674L1032.49 65.52ZM1036.31 82.3546V158.684H1038.31V82.3546H1036.31ZM1007.45 141.892H1006.64V143.892H1007.45V141.892ZM1005.75 142.438C1003.98 145.903 1001.63 148.942 998.686 151.559L1000.01 153.054C1003.14 150.273 1005.65 147.035 1007.53 143.346L1005.75 142.438ZM998.695 151.551C995.761 154.094 992.226 156.128 988.074 157.644L988.76 159.523C993.112 157.934 996.865 155.784 1000.01 153.062L998.695 151.551ZM988.088 157.639C983.964 159.079 979.153 159.81 973.637 159.81V161.81C979.325 161.81 984.367 161.057 988.747 159.527L988.088 157.639ZM191.521 142.892V158.684H193.521V142.892H191.521ZM429.622 142.892V158.684H431.622V142.892H429.622ZM777.459 70.2066V158.684H779.459V70.2066H777.459ZM825.849 45.5057V158.684H827.849V45.5057H825.849ZM1006.45 142.892V158.684H1008.45V142.892H1006.45ZM100.298 4L102.109 3.15228L101.082 0.95681L99.1212 2.38253L100.298 4ZM109.915 24.5504L111.192 26.0895L112.381 25.1025L111.726 23.7026L109.915 24.5504ZM99.2852 30.4219L99.8875 32.3291L99.8976 32.3258L99.9078 32.3225L99.2852 30.4219ZM85.4162 32.8515L85.2667 30.8571L85.2648 30.8572L85.4162 32.8515ZM65.777 33.6614L65.7925 35.6613L65.8021 35.6612L65.8118 35.6611L65.777 33.6614ZM44.4168 37.9132L45.3023 39.7064L45.3112 39.702L44.4168 37.9132ZM26.296 73.0411L24.3064 72.8378L24.0812 75.0411H26.296V73.0411ZM27.5108 73.0411V75.0411H28.7688L29.3136 73.9071L27.5108 73.0411ZM41.6835 57.1475L42.718 58.8591L42.7233 58.8559L41.6835 57.1475ZM89.8705 57.8561L88.8557 59.5796L88.8678 59.5866L89.8705 57.8561ZM112.749 104.322L110.749 104.31L110.749 104.322L110.749 104.334L112.749 104.322ZM87.036 153.927L86.0683 152.176L86.0623 152.18L87.036 153.927ZM57.5771 160.912L57.5692 162.912L57.5791 162.912L57.5889 162.912L57.5771 160.912ZM16.9825 144.714L15.5097 146.067L15.514 146.072L16.9825 144.714ZM2 97.742L-1.08206e-05 97.742L1.08206e-05 97.7486L2 97.742ZM2 88.5298L0 88.5248V88.5298H2ZM64.8659 7.84687L64.8855 9.84677L64.8903 9.84672L64.8659 7.84687ZM79.9496 7.84687L79.9198 9.84664L79.9347 9.84687H79.9496V7.84687ZM91.7939 7.13823L91.522 5.1568L91.5166 5.15755L91.7939 7.13823ZM70.13 132.87L71.3045 134.489L71.3148 134.481L71.325 134.474L70.13 132.87ZM80.8607 105.436L78.8608 105.415L78.8606 105.436L78.8608 105.457L80.8607 105.436ZM78.1274 89.036L76.2821 89.8072L76.2863 89.8171L78.1274 89.036ZM70.0288 78.7102L68.8971 80.3592L68.9045 80.3643L68.912 80.3693L70.0288 78.7102ZM40.3674 83.1644L41.9372 84.4037L41.945 84.3938L41.9527 84.3839L40.3674 83.1644ZM33.9897 105.436L31.9899 105.408L31.9897 105.422V105.436H33.9897ZM40.2662 128.213L38.6639 129.41L38.6685 129.416L38.6731 129.422L40.2662 128.213ZM179.867 136.413L180.789 138.188L180.795 138.185L180.801 138.182L179.867 136.413ZM188.168 128.922L186.482 127.846L186.476 127.855L188.168 128.922ZM191.205 106.246H193.205V102.582L190.124 104.563L191.205 106.246ZM187.156 107.967L186.568 106.055L186.557 106.058L186.546 106.062L187.156 107.967ZM175.21 110.497L175.466 112.481L175.497 112.477L175.529 112.472L175.21 110.497ZM169.541 111.307L169.829 113.286L169.843 113.284L169.857 113.282L169.541 111.307ZM159.823 113.939L160.589 115.787L160.608 115.779L160.627 115.771L159.823 113.939ZM153.344 118.697L151.757 117.48L151.75 117.489L153.344 118.697ZM240.708 201H238.708V203H240.708V201ZM240.708 45.5057V43.5057H238.708V45.5057H240.708ZM271.483 45.5057H273.483V43.5057H271.483V45.5057ZM271.483 64.6387H269.483V66.6387H271.483V64.6387ZM272.9 64.6387V66.6387H274.186L274.72 65.4693L272.9 64.6387ZM289.3 47.3278L290.183 49.1224L290.195 49.1168L290.206 49.111L289.3 47.3278ZM327.87 50.5673L326.807 52.2614L326.817 52.2675L326.826 52.2735L327.87 50.5673ZM344.776 134.186L346.587 135.035L346.589 135.029L344.776 134.186ZM328.275 153.825L327.196 152.141L327.188 152.146L328.275 153.825ZM279.076 149.877L277.55 151.171L277.565 151.188L277.581 151.206L279.076 149.877ZM272.9 140.564L274.705 139.701L274.161 138.564H272.9V140.564ZM271.989 140.564V138.564H269.989V140.564H271.989ZM271.989 201V203H273.989V201H271.989ZM316.026 119.608L317.905 120.294L317.907 120.286L316.026 119.608ZM316.026 84.9866L314.139 85.6496L314.144 85.6651L314.15 85.6804L316.026 84.9866ZM282.113 73.1423L283.332 74.7276L283.336 74.7243L282.113 73.1423ZM274.014 84.6829L272.143 83.9751L272.141 83.9821L272.138 83.9891L274.014 84.6829ZM282.214 131.453L280.957 133.009L280.973 133.022L280.99 133.035L282.214 131.453ZM417.968 136.413L418.889 138.188L418.896 138.185L418.902 138.182L417.968 136.413ZM426.269 128.922L424.583 127.846L424.577 127.855L426.269 128.922ZM429.306 106.246H431.306V102.582L428.224 104.563L429.306 106.246ZM425.256 107.967L424.668 106.055L424.658 106.058L424.647 106.062L425.256 107.967ZM413.311 110.497L413.567 112.481L413.598 112.477L413.629 112.472L413.311 110.497ZM407.642 111.307L407.93 113.286L407.944 113.284L407.958 113.282L407.642 111.307ZM397.923 113.939L398.689 115.787L398.709 115.779L398.727 115.771L397.923 113.939ZM391.444 118.697L389.857 117.48L389.851 117.489L391.444 118.697ZM505.028 45.5057L506.804 44.5859L506.245 43.5057H505.028V45.5057ZM525.579 85.1891L523.803 86.1088L525.544 89.4723L527.34 86.137L525.579 85.1891ZM546.939 45.5057V43.5057H545.744L545.178 44.5577L546.939 45.5057ZM579.232 45.5057L580.963 46.5072L582.7 43.5057H579.232V45.5057ZM546.433 102.196L544.702 101.195L544.114 102.21L544.714 103.219L546.433 102.196ZM580.042 158.684V160.684H583.559L581.761 157.662L580.042 158.684ZM547.951 158.684L546.216 159.678L546.792 160.684H547.951V158.684ZM525.579 119.608L527.314 118.615L525.555 115.541L523.831 118.635L525.579 119.608ZM503.813 158.684V160.684H504.989L505.561 159.658L503.813 158.684ZM471.318 158.684L469.6 157.66L467.795 160.684H471.318V158.684ZM505.028 102.196L506.746 103.221L507.345 102.217L506.763 101.202L505.028 102.196ZM472.532 45.5057V43.5057H469.081L470.797 46.5003L472.532 45.5057ZM608.185 153.623L607.164 155.343L607.172 155.348L607.181 155.352L608.185 153.623ZM588.951 133.174L587.167 134.079L587.171 134.087L587.176 134.096L588.951 133.174ZM588.951 71.9275L587.173 71.0113L587.17 71.0166L588.951 71.9275ZM608.185 51.4784L609.195 53.2045L609.2 53.2019L608.185 51.4784ZM667.508 51.4784L666.487 53.1983L666.495 53.2032L666.503 53.208L667.508 51.4784ZM686.742 71.9275L684.959 72.8329L684.963 72.8412L684.967 72.8494L686.742 71.9275ZM686.742 133.174L684.964 132.257L684.962 132.263L686.742 133.174ZM667.508 153.623L668.518 155.349L668.522 155.346L667.508 153.623ZM651.108 132.06L652.382 133.601L652.391 133.594L652.4 133.587L651.108 132.06ZM659.004 119.912L657.119 119.243L657.116 119.254L657.112 119.265L659.004 119.912ZM659.004 84.8854L657.114 85.5405L657.118 85.5517L657.122 85.5628L659.004 84.8854ZM624.787 72.9399L623.527 71.3868L623.52 71.3926L623.513 71.3986L624.787 72.9399ZM616.79 84.8854L614.908 84.208L614.904 84.2191L614.9 84.2303L616.79 84.8854ZM616.79 119.912L614.897 120.559L614.901 120.571L614.905 120.582L616.79 119.912ZM624.787 132.06L623.495 133.587L623.511 133.6L623.527 133.613L624.787 132.06ZM994.795 136.413L995.716 138.188L995.723 138.185L995.729 138.182L994.795 136.413ZM1003.1 128.922L1001.41 127.846L1001.4 127.855L1003.1 128.922ZM1006.13 106.246H1008.13V102.582L1005.05 104.563L1006.13 106.246ZM1002.08 107.967L1001.5 106.055L1001.48 106.058L1001.47 106.062L1002.08 107.967ZM990.138 110.497L990.394 112.481L990.425 112.477L990.457 112.472L990.138 110.497ZM984.469 111.307L984.757 113.286L984.771 113.284L984.785 113.282L984.469 111.307ZM974.751 113.939L975.517 115.787L975.536 115.779L975.555 115.771L974.751 113.939ZM968.272 118.697L966.684 117.48L966.678 117.489L968.272 118.697ZM98.4861 4.84772L108.103 25.3981L111.726 23.7026L102.109 3.15228L98.4861 4.84772ZM108.638 23.0112C105.659 25.4828 102.338 27.3173 98.6626 28.5213L99.9078 32.3225C104.061 30.9619 107.826 28.882 111.192 26.0895L108.638 23.0112ZM98.6829 28.5147C95.0233 29.6704 90.5607 30.46 85.2667 30.8571L85.5658 34.8459C91.07 34.4331 95.8533 33.603 99.8875 32.3291L98.6829 28.5147ZM85.2648 30.8572C79.985 31.2582 73.4802 31.5271 65.7422 31.6617L65.8118 35.6611C73.5962 35.5257 80.1842 35.2546 85.5677 34.8457L85.2648 30.8572ZM65.7615 31.6614C56.8666 31.7304 49.4173 33.1768 43.5223 36.1243L45.3112 39.702C50.4844 37.1154 57.2753 35.7273 65.7925 35.6613L65.7615 31.6614ZM43.5312 36.1199C37.6502 39.0241 33.1908 43.5718 30.172 49.6813L33.7581 51.4533C36.4083 46.0897 40.2501 42.2014 45.3023 39.7064L43.5312 36.1199ZM30.172 49.6813C27.1955 55.7053 25.2654 63.4523 24.3064 72.8378L28.2856 73.2444C29.2162 64.1379 31.0656 56.9025 33.7581 51.4533L30.172 49.6813ZM26.296 75.0411H27.5108V71.0411H26.296V75.0411ZM29.3136 73.9071C32.4634 67.3502 36.9311 62.3567 42.718 58.8591L40.6489 55.4358C34.1528 59.362 29.172 64.9643 25.708 72.1751L29.3136 73.9071ZM42.7233 58.8559C48.5508 55.3087 55.7964 53.4784 64.5622 53.4784V49.4784C55.2409 49.4784 47.2341 51.4275 40.6436 55.4391L42.7233 58.8559ZM64.5622 53.4784C73.9112 53.4784 81.9861 55.5348 88.8558 59.5796L90.8852 56.1327C83.3123 51.6738 74.515 49.4784 64.5622 49.4784V53.4784ZM88.8678 59.5866C95.7357 63.5661 101.111 69.3122 104.997 76.8895L108.556 75.0642C104.343 66.8492 98.4479 60.5147 90.8732 56.1256L88.8678 59.5866ZM104.997 76.8895C108.868 84.4391 110.815 93.5551 110.749 104.31L114.749 104.334C114.818 93.088 112.783 83.3071 108.556 75.0642L104.997 76.8895ZM110.749 104.334C110.815 115.543 108.673 125.197 104.397 133.359L107.941 135.215C112.574 126.37 114.818 116.047 114.749 104.31L110.749 104.334ZM104.397 133.359C100.123 141.52 94.0223 147.779 86.0683 152.176L88.0036 155.677C96.6519 150.896 103.307 144.061 107.941 135.215L104.397 133.359ZM86.0623 152.18C78.1787 156.574 68.7044 158.846 57.5652 158.912L57.5889 162.912C69.261 162.843 79.426 160.458 88.0097 155.673L86.0623 152.18ZM57.585 158.912C40.893 158.846 27.9296 153.609 18.4511 143.357L15.514 146.072C25.8772 157.281 39.9768 162.842 57.5692 162.912L57.585 158.912ZM18.4553 143.361C8.98619 133.055 4.06649 117.953 3.99999 97.7355L1.08206e-05 97.7486C0.0684848 118.565 5.13714 134.777 15.5097 146.067L18.4553 143.361ZM4 97.742V88.5298H0V97.742H4ZM3.99999 88.5347C4.067 61.4644 9.3706 41.7919 19.5527 29.1453L16.437 26.6368C5.42761 40.3109 0.0679779 61.0642 6.12682e-06 88.5248L3.99999 88.5347ZM19.5527 29.1453C29.6901 16.5543 44.6861 10.0448 64.8855 9.84677L64.8463 5.84696C43.7425 6.05386 27.4911 12.9072 16.437 26.6368L19.5527 29.1453ZM64.8903 9.84672C70.4101 9.7794 75.4196 9.77948 79.9198 9.84664L79.9795 5.84709C75.4362 5.77928 70.3898 5.77935 64.8415 5.84701L64.8903 9.84672ZM79.9496 9.84687C84.5361 9.84687 88.5808 9.60757 92.0712 9.11892L91.5166 5.15755C88.2582 5.61374 84.4066 5.84687 79.9496 5.84687V9.84687ZM92.0659 9.11966C95.751 8.61386 98.919 7.47553 101.474 5.61747L99.1212 2.38253C97.2218 3.76394 94.7208 4.71776 91.522 5.15681L92.0659 9.11966ZM57.6783 138.616C62.8968 138.616 67.4736 137.268 71.3045 134.489L68.9556 131.251C65.9025 133.466 62.1782 134.616 57.6783 134.616V138.616ZM71.325 134.474C75.1069 131.656 77.9773 127.727 79.9807 122.79L76.2742 121.286C74.4982 125.663 72.037 128.955 68.935 131.266L71.325 134.474ZM79.9807 122.79C81.9933 117.83 82.9302 112.021 82.8606 105.415L78.8608 105.457C78.9263 111.674 78.0409 116.932 76.2742 121.286L79.9807 122.79ZM82.8606 105.457C82.9301 98.7906 81.9957 93.033 79.9686 88.2549L76.2863 89.8171C78.0385 93.9474 78.9264 99.123 78.8608 105.415L82.8606 105.457ZM79.9728 88.2648C77.9568 83.4408 75.0284 79.6644 71.1455 77.051L68.912 80.3693C72.048 82.4801 74.5187 85.5877 76.2821 89.8072L79.9728 88.2648ZM71.1605 77.0611C67.3334 74.4347 62.7722 73.167 57.5771 73.167V77.167C62.1004 77.167 65.8403 78.2614 68.8971 80.3592L71.1605 77.0611ZM57.5771 73.167C53.6817 73.167 50.1146 73.8896 46.914 75.3782L48.6009 79.0051C51.2044 77.7942 54.1836 77.167 57.5771 77.167V73.167ZM46.914 75.3782C43.7095 76.8687 40.9952 79.0681 38.7822 81.945L41.9527 84.3839C43.789 81.9966 46.0014 80.2142 48.6009 79.0051L46.914 75.3782ZM38.7977 81.9251C36.587 84.7253 34.9291 88.1057 33.7903 92.0205L37.6311 93.1378C38.6519 89.6288 40.0985 86.7327 41.9372 84.4037L38.7977 81.9251ZM33.7903 92.0205C32.6493 95.9425 32.0593 100.413 31.9899 105.408L35.9895 105.464C36.0551 100.74 36.6124 96.6395 37.6311 93.1378L33.7903 92.0205ZM31.9897 105.436C31.9897 115.293 34.1409 123.355 38.6639 129.41L41.8685 127.016C38.0228 121.868 35.9897 114.745 35.9897 105.436H31.9897ZM38.6731 129.422C43.323 135.548 49.7302 138.616 57.6783 138.616V134.616C50.9139 134.616 45.713 132.081 41.8592 127.004L38.6731 129.422ZM167.719 141.146C172.577 141.146 176.952 140.18 180.789 138.188L178.945 134.638C175.763 136.29 172.039 137.146 167.719 137.146V141.146ZM180.801 138.182C184.655 136.145 187.697 133.419 189.86 129.988L186.476 127.855C184.724 130.634 182.232 132.901 178.933 134.645L180.801 138.182ZM189.854 129.998C192.092 126.491 193.205 122.572 193.205 118.292H189.205C189.205 121.842 188.293 125.009 186.482 127.846L189.854 129.998ZM193.205 118.292V106.246H189.205V118.292H193.205ZM190.124 104.563C189.398 105.03 188.243 105.539 186.568 106.055L187.744 109.878C189.577 109.314 191.123 108.676 192.287 107.928L190.124 104.563ZM186.546 106.062C184.947 106.573 183.136 107.027 181.107 107.42L181.867 111.347C184.021 110.93 185.989 110.44 187.765 109.871L186.546 106.062ZM181.107 107.42C179.035 107.821 176.963 108.189 174.892 108.523L175.529 112.472C177.641 112.131 179.754 111.756 181.867 111.347L181.107 107.42ZM174.954 108.514C172.846 108.786 170.936 109.059 169.225 109.332L169.857 113.282C171.52 113.016 173.39 112.749 175.466 112.481L174.954 108.514ZM169.253 109.328C165.404 109.888 161.984 110.806 159.019 112.108L160.627 115.771C163.195 114.643 166.254 113.806 169.829 113.286L169.253 109.328ZM159.057 112.092C156.022 113.35 153.557 115.132 151.757 117.48L154.931 119.914C156.235 118.213 158.089 116.823 160.589 115.787L159.057 112.092ZM151.75 117.489C149.95 119.861 149.117 122.775 149.117 126.087H153.117C153.117 123.461 153.768 121.448 154.937 119.906L151.75 117.489ZM149.117 126.087C149.117 130.899 150.914 134.781 154.608 137.431L156.939 134.181C154.423 132.376 153.117 129.779 153.117 126.087H149.117ZM154.608 137.431C158.134 139.961 162.556 141.146 167.719 141.146V137.146C163.164 137.146 159.622 136.105 156.939 134.181L154.608 137.431ZM242.708 201V45.5057H238.708V201H242.708ZM240.708 47.5057H271.483V43.5057H240.708V47.5057ZM269.483 45.5057V64.6387H273.483V45.5057H269.483ZM271.483 66.6387H272.9V62.6387H271.483V66.6387ZM274.72 65.4693C276.05 62.5546 277.972 59.5645 280.513 56.5012L277.435 53.9469C274.713 57.2276 272.585 60.5139 271.081 63.8082L274.72 65.4693ZM280.513 56.5012C282.941 53.5761 286.146 51.1087 290.183 49.1224L288.417 45.5333C283.95 47.7313 280.272 50.5281 277.435 53.9469L280.513 56.5012ZM290.206 49.111C294.103 47.1317 299.035 46.0884 305.093 46.0884V42.0884C298.597 42.0884 293.001 43.2047 288.394 45.5447L290.206 49.111ZM305.093 46.0884C313.026 46.0884 320.249 48.1465 326.807 52.2614L328.933 48.8732C321.723 44.3496 313.761 42.0884 305.093 42.0884V46.0884ZM326.826 52.2735C333.396 56.292 338.726 62.4186 342.774 70.7747L346.373 69.031C342.052 60.11 336.246 53.3462 328.914 48.8612L326.826 52.2735ZM342.774 70.7747C346.788 79.0637 348.85 89.5413 348.85 102.298H352.85C352.85 89.1381 350.727 78.0192 346.373 69.031L342.774 70.7747ZM348.85 102.298C348.85 114.645 346.857 124.969 342.963 133.343L346.589 135.029C350.793 125.991 352.85 115.056 352.85 102.298H348.85ZM342.965 133.337C339.051 141.688 333.782 147.921 327.196 152.141L329.354 155.509C336.67 150.821 342.403 143.961 346.587 135.035L342.965 133.337ZM327.188 152.146C320.646 156.379 313.266 158.507 304.991 158.507V162.507C313.994 162.507 322.136 160.18 329.361 155.504L327.188 152.146ZM304.991 158.507C299.132 158.507 294.28 157.529 290.362 155.664L288.643 159.275C293.229 161.459 298.703 162.507 304.991 162.507V158.507ZM290.362 155.664C286.314 153.736 283.066 151.356 280.57 148.548L277.581 151.206C280.484 154.472 284.187 157.154 288.643 159.275L290.362 155.664ZM280.601 148.584C278.06 145.587 276.103 142.625 274.705 139.701L271.096 141.427C272.667 144.711 274.827 147.958 277.55 151.171L280.601 148.584ZM272.9 138.564H271.989V142.564H272.9V138.564ZM269.989 140.564V201H273.989V140.564H269.989ZM271.989 199H240.708V203H271.989V199ZM295.07 137.603C300.591 137.603 305.371 136.068 309.285 132.907L306.772 129.796C303.666 132.304 299.808 133.603 295.07 133.603V137.603ZM309.285 132.907C313.124 129.807 315.98 125.568 317.905 120.294L314.147 118.923C312.427 123.637 309.951 127.227 306.772 129.796L309.285 132.907ZM317.907 120.286C319.823 114.966 320.759 108.925 320.759 102.196H316.759C316.759 108.56 315.873 114.128 314.144 118.931L317.907 120.286ZM320.759 102.196C320.759 95.4692 319.823 89.4887 317.901 84.2928L314.15 85.6804C315.873 90.3379 316.759 95.8306 316.759 102.196H320.759ZM317.913 84.3237C316.056 79.0407 313.231 74.7935 309.386 71.6877L306.873 74.7995C310.046 77.3627 312.486 80.9442 314.139 85.6496L317.913 84.3237ZM309.386 71.6877C305.468 68.523 300.651 66.9918 295.07 66.9918V70.9918C299.883 70.9918 303.772 72.2951 306.873 74.7995L309.386 71.6877ZM295.07 66.9918C289.621 66.9918 284.858 68.4901 280.889 71.5604L283.336 74.7243C286.521 72.2605 290.396 70.9918 295.07 70.9918V66.9918ZM280.893 71.5571C277.034 74.5257 274.137 78.7057 272.143 83.9751L275.884 85.3907C277.67 80.6719 280.172 77.1581 283.332 74.7276L280.893 71.5571ZM272.138 83.9891C270.214 89.1911 269.281 95.2748 269.281 102.196H273.281C273.281 95.62 274.169 90.0282 275.89 85.3767L272.138 83.9891ZM269.281 102.196C269.281 109.061 270.251 115.148 272.245 120.417L275.986 119.002C274.2 114.283 273.281 108.694 273.281 102.196H269.281ZM272.245 120.417C274.237 125.682 277.124 129.913 280.957 133.009L283.47 129.897C280.284 127.323 277.773 123.725 275.986 119.002L272.245 120.417ZM280.99 133.035C284.954 136.101 289.682 137.603 295.07 137.603V133.603C290.47 133.603 286.627 132.338 283.438 129.871L280.99 133.035ZM405.82 141.146C410.678 141.146 415.053 140.18 418.889 138.188L417.046 134.638C413.864 136.29 410.14 137.146 405.82 137.146V141.146ZM418.902 138.182C422.756 136.145 425.798 133.419 427.961 129.988L424.577 127.855C422.825 130.634 420.333 132.901 417.033 134.645L418.902 138.182ZM427.955 129.998C430.193 126.491 431.306 122.572 431.306 118.292H427.306C427.306 121.842 426.394 125.009 424.583 127.846L427.955 129.998ZM431.306 118.292V106.246H427.306V118.292H431.306ZM428.224 104.563C427.498 105.03 426.344 105.539 424.668 106.055L425.845 109.878C427.678 109.314 429.223 108.676 430.387 107.928L428.224 104.563ZM424.647 106.062C423.048 106.573 421.237 107.027 419.207 107.42L419.967 111.347C422.122 110.93 424.09 110.44 425.866 109.871L424.647 106.062ZM419.207 107.42C417.135 107.821 415.064 108.189 412.992 108.523L413.629 112.472C415.742 112.131 417.855 111.756 419.967 111.347L419.207 107.42ZM413.055 108.514C410.947 108.786 409.037 109.059 407.326 109.332L407.958 113.282C409.621 113.016 411.49 112.749 413.567 112.481L413.055 108.514ZM407.354 109.328C403.505 109.888 400.085 110.806 397.119 112.108L398.727 115.771C401.296 114.643 404.355 113.806 407.93 113.286L407.354 109.328ZM397.157 112.092C394.123 113.35 391.658 115.132 389.857 117.48L393.032 119.914C394.336 118.213 396.19 116.823 398.689 115.787L397.157 112.092ZM389.851 117.489C388.051 119.861 387.217 122.775 387.217 126.087H391.217C391.217 123.461 391.868 121.448 393.038 119.906L389.851 117.489ZM387.217 126.087C387.217 130.899 389.015 134.781 392.708 137.431L395.04 134.181C392.524 132.376 391.217 129.779 391.217 126.087H387.217ZM392.708 137.431C396.235 139.961 400.656 141.146 405.82 141.146V137.146C401.265 137.146 397.722 136.105 395.04 134.181L392.708 137.431ZM503.252 46.4254L523.803 86.1088L527.355 84.2694L506.804 44.5859L503.252 46.4254ZM527.34 86.137L548.7 46.4536L545.178 44.5577L523.818 84.2412L527.34 86.137ZM546.939 47.5057H579.232V43.5057H546.939V47.5057ZM577.501 44.5041L544.702 101.195L548.164 103.198L580.963 46.5072L577.501 44.5041ZM544.714 103.219L578.323 159.707L581.761 157.662L548.151 101.174L544.714 103.219ZM580.042 156.684H547.951V160.684H580.042V156.684ZM549.687 157.691L527.314 118.615L523.843 120.602L546.216 159.678L549.687 157.691ZM523.831 118.635L502.066 157.711L505.561 159.658L527.326 120.582L523.831 118.635ZM503.813 156.684H471.318V160.684H503.813V156.684ZM473.035 159.709L506.746 103.221L503.311 101.171L469.6 157.66L473.035 159.709ZM506.763 101.202L474.268 44.511L470.797 46.5003L503.293 103.191L506.763 101.202ZM472.532 47.5057H505.028V43.5057H472.532V47.5057ZM637.846 158.912C626.73 158.912 617.202 156.546 609.189 151.893L607.181 155.352C615.905 160.418 626.151 162.912 637.846 162.912V158.912ZM609.206 151.903C601.231 147.17 595.078 140.632 590.725 132.252L587.176 134.096C591.867 143.127 598.537 150.222 607.164 155.343L609.206 151.903ZM590.734 132.268C586.446 123.822 584.269 113.951 584.269 102.601H580.269C580.269 114.468 582.547 124.979 587.167 134.079L590.734 132.268ZM584.269 102.601C584.269 91.1119 586.447 81.2113 590.731 72.8385L587.17 71.0166C582.545 80.0559 580.269 90.6045 580.269 102.601H584.269ZM590.728 72.8438C595.081 64.3982 601.231 57.8667 609.195 53.2044L607.175 49.7524C598.537 54.8085 591.864 61.9098 587.173 71.0113L590.728 72.8438ZM609.2 53.2019C617.211 48.4857 626.735 46.0884 637.846 46.0884V42.0884C626.147 42.0884 615.896 44.6178 607.17 49.7549L609.2 53.2019ZM637.846 46.0884C649.028 46.0884 658.548 48.4869 666.487 53.1983L668.528 49.7585C659.865 44.6166 649.61 42.0884 637.846 42.0884V46.0884ZM666.503 53.208C674.532 57.87 680.676 64.3974 684.959 72.8329L688.525 71.0222C683.899 61.9106 677.22 54.8053 668.512 49.7488L666.503 53.208ZM684.967 72.8494C689.315 81.2197 691.525 91.1163 691.525 102.601H695.525C695.525 90.6001 693.213 80.0475 688.517 71.0057L684.967 72.8494ZM691.525 102.601C691.525 113.947 689.316 123.813 684.964 132.257L688.52 134.09C693.211 124.987 695.525 114.472 695.525 102.601H691.525ZM684.962 132.263C680.679 140.633 674.532 147.167 666.493 151.899L668.522 155.346C677.221 150.226 683.897 143.126 688.522 134.085L684.962 132.263ZM666.497 151.897C658.557 156.545 649.033 158.912 637.846 158.912V162.912C649.606 162.912 659.856 160.419 668.518 155.349L666.497 151.897ZM638.049 138.413C643.641 138.413 648.464 136.841 652.382 133.601L649.833 130.519C646.733 133.083 642.85 134.413 638.049 134.413V138.413ZM652.4 133.587C656.231 130.345 659.046 125.969 660.896 120.559L657.112 119.265C655.453 124.114 653.003 127.836 649.816 130.533L652.4 133.587ZM660.889 120.582C662.801 115.199 663.737 109.128 663.737 102.399H659.737C659.737 108.762 658.852 114.367 657.119 119.243L660.889 120.582ZM663.737 102.399C663.737 95.605 662.802 89.5303 660.886 84.208L657.122 85.5628C658.851 90.3638 659.737 95.9647 659.737 102.399H663.737ZM660.894 84.2303C659.04 78.8843 656.221 74.5725 652.382 71.3986L649.833 74.4812C653.014 77.1113 655.458 80.7632 657.114 85.5405L660.894 84.2303ZM652.382 71.3986C648.464 68.1586 643.641 66.5868 638.049 66.5868V70.5868C642.85 70.5868 646.733 71.9171 649.833 74.4812L652.382 71.3986ZM638.049 66.5868C632.395 66.5868 627.511 68.1549 623.527 71.3868L626.047 74.493C629.218 71.9208 633.174 70.5868 638.049 70.5868V66.5868ZM623.513 71.3986C619.681 74.5674 616.829 78.8708 614.908 84.208L618.672 85.5628C620.395 80.7767 622.875 77.1164 626.062 74.4812L623.513 71.3986ZM614.9 84.2303C613.058 89.5455 612.158 95.6122 612.158 102.399H616.158C616.158 95.9575 617.013 90.3487 618.679 85.5405L614.9 84.2303ZM612.158 102.399C612.158 109.121 613.058 115.184 614.897 120.559L618.682 119.265C617.012 114.382 616.158 108.769 616.158 102.399H612.158ZM614.905 120.582C616.824 125.982 619.67 130.35 623.495 133.587L626.079 130.533C622.885 127.831 620.4 124.1 618.674 119.243L614.905 120.582ZM623.527 133.613C627.511 136.845 632.395 138.413 638.049 138.413V134.413C633.174 134.413 629.218 133.079 626.047 130.507L623.527 133.613ZM982.647 141.146C987.505 141.146 991.88 140.18 995.716 138.188L993.873 134.638C990.691 136.29 986.967 137.146 982.647 137.146V141.146ZM995.729 138.182C999.583 136.145 1002.63 133.419 1004.79 129.988L1001.4 127.855C999.652 130.634 997.16 132.901 993.861 134.645L995.729 138.182ZM1004.78 129.998C1007.02 126.491 1008.13 122.572 1008.13 118.292H1004.13C1004.13 121.842 1003.22 125.009 1001.41 127.846L1004.78 129.998ZM1008.13 118.292V106.246H1004.13V118.292H1008.13ZM1005.05 104.563C1004.33 105.03 1003.17 105.539 1001.5 106.055L1002.67 109.878C1004.51 109.314 1006.05 108.676 1007.21 107.928L1005.05 104.563ZM1001.47 106.062C999.876 106.573 998.064 107.027 996.035 107.42L996.795 111.347C998.949 110.93 1000.92 110.44 1002.69 109.871L1001.47 106.062ZM996.035 107.42C993.963 107.821 991.891 108.189 989.82 108.523L990.457 112.472C992.569 112.131 994.682 111.756 996.795 111.347L996.035 107.42ZM989.882 108.514C987.774 108.786 985.864 109.059 984.153 109.332L984.785 113.282C986.448 113.016 988.318 112.749 990.394 112.481L989.882 108.514ZM984.181 109.328C980.332 109.888 976.912 110.806 973.947 112.108L975.555 115.771C978.123 114.643 981.182 113.806 984.757 113.286L984.181 109.328ZM973.985 112.092C970.95 113.35 968.485 115.132 966.685 117.48L969.859 119.914C971.163 118.213 973.017 116.823 975.517 115.787L973.985 112.092ZM966.678 117.489C964.878 119.861 964.045 122.775 964.045 126.087H968.045C968.045 123.461 968.696 121.448 969.865 119.906L966.678 117.489ZM964.045 126.087C964.045 130.899 965.843 134.781 969.536 137.431L971.867 134.181C969.351 132.376 968.045 129.779 968.045 126.087H964.045ZM969.536 137.431C973.062 139.961 977.484 141.146 982.647 141.146V137.146C978.092 137.146 974.55 136.105 971.867 134.181L969.536 137.431Z" fill="#131313" mask="url(#path-1-outside-1_788_18509)"/>
<circle cx="192.814" cy="157.194" r="3.03474" fill="#131313"/>
<circle cx="430.403" cy="157.194" r="3.03474" fill="#131313"/>
<circle cx="778.114" cy="157.194" r="3.03474" fill="#131313"/>
<circle cx="827.14" cy="157.194" r="3.03474" fill="#131313"/>
<circle cx="1007.41" cy="157.194" r="3.03474" fill="#131313"/>
<circle cx="222.23" cy="157.194" r="3.03474" fill="#131313"/>
<circle cx="459.819" cy="157.194" r="3.03474" fill="#131313"/>
<circle cx="808.284" cy="157.194" r="3.03474" fill="#131313"/>
<circle cx="857.311" cy="157.194" r="3.03474" fill="#131313"/>
<circle cx="1037.58" cy="157.194" r="3.03474" fill="#131313"/>
</svg>
