<svg width="1280" height="524" viewBox="0 0 1280 524" fill="none" xmlns="http://www.w3.org/2000/svg">
<path d="M-48.6252 187.538C-8.70064 194.287 8.5312 219.044 55.4668 257.248C94.5389 289.051 111.417 317.167 140.512 329.617C169.606 342.067 193.364 350.306 227.817 346.16C265.291 341.65 283.91 300.192 314.646 303.709C345.381 307.226 357.757 329.056 387.233 325.908C419.788 322.431 447.922 262.63 473.546 252.449C495.211 240.921 549.085 198.374 590.808 201.732C642.961 205.93 723.857 190.86 808.406 290.762C843.694 332.46 955.741 348.311 979.544 325.824C1003.35 303.336 1008.52 250.41 965.931 259.248C932.178 266.253 930.308 335.927 965.296 349.846C1035.52 377.785 1127.43 378.57 1171.08 341.104C1206 311.131 1260.49 249.016 1283.37 221.705" stroke="#131313" stroke-width="1.3183" stroke-linecap="round"/>
<ellipse cx="373.017" cy="325.425" rx="3.77467" ry="3.51546" transform="rotate(6.5272 373.017 325.425)" fill="#131313"/>
<ellipse cx="124.187" cy="319.954" rx="3.77467" ry="3.51546" transform="rotate(6.5272 124.187 319.954)" fill="#131313"/>
<ellipse cx="748.32" cy="238.33" rx="3.77467" ry="3.51546" transform="rotate(6.5272 748.32 238.33)" fill="#131313"/>
<ellipse cx="1081.76" cy="370.248" rx="3.77467" ry="3.51546" transform="rotate(6.5272 1081.76 370.248)" fill="#131313"/>
<ellipse cx="1248.75" cy="263.742" rx="3.77467" ry="3.51546" transform="rotate(6.5272 1248.75 263.742)" fill="#131313"/>
</svg>
