<svg width="754" height="741" viewBox="0 0 754 741" fill="none" xmlns="http://www.w3.org/2000/svg">
<ellipse cx="91.876" cy="268.546" rx="4.29495" ry="4" fill="#131313"/>
<ellipse cx="554.876" cy="99.5464" rx="4.29495" ry="4" fill="#131313"/>
<ellipse cx="701.876" cy="637.546" rx="4.29495" ry="4" fill="#131313"/>
<ellipse cx="20.876" cy="590.546" rx="4.29495" ry="4" fill="#131313"/>
<ellipse cx="142.876" cy="559.546" rx="4.29495" ry="4" fill="#131313"/>
<path d="M791.561 564.772C782.311 577.428 776.081 588.046 759.081 599.546C742.027 607.844 748.081 622.546 667.081 650.046C630.081 658.546 629.081 662.08 569.081 662.08C545.581 659.046 554.581 665.576 494.081 650.046C449.581 639.042 450.169 638.184 419.081 609.546C393.25 585.752 341.473 565.466 317.954 539.423C287.878 506.119 257.484 479.544 212.157 470.415C166.168 461.153 113.161 457.645 69.9803 479.907C47.1625 491.67 15.5079 516.904 9.212 543.032C4.0978 564.257 4.69312 589.333 30.5806 594.546C71.0807 601.046 75.5807 602.546 122.581 577.546C144.78 565.739 147.081 556.546 163.581 529.546C181.156 497.546 157.785 453.624 144.081 435.189C140.18 423.746 111.392 399.498 98.0807 372.046C89.6165 354.59 84.2969 341.769 81.5807 325.19C70.5807 258.046 145.657 201.046 212.157 170.046C278.657 139.046 381.581 139.046 505.581 160.046C522.248 164.046 641.831 171.796 660.581 154.546C685.581 131.546 661.581 94.0465 566.081 98.0463C521.581 99.9101 485.299 154.363 494.081 193.546C500.581 222.546 561.551 275.349 611.081 287.546C678.081 304.046 752.081 257.213 776.081 251.046" stroke="#131313" stroke-width="1.5" stroke-linecap="round"/>
</svg>
