<svg width="1280" height="1500" viewBox="0 0 1280 1500" fill="none" xmlns="http://www.w3.org/2000/svg">
<ellipse cx="900.669" cy="846.859" rx="3.77467" ry="3.51546" transform="rotate(160.752 900.669 846.859)" fill="#131313"/>
<path d="M1282.38 1070.42C1270.95 1054.6 1192.97 920.533 1188.14 856.815C1184.27 805.841 1233.4 735.239 1240.87 710.484C1268.11 655.995 1269.07 555.555 1231.75 520.276C1224.7 507.306 1216.57 498.209 1204.49 486.177C1185.49 467.256 1154.58 455.478 1148.02 447.113C1131.31 435.787 1099.2 406.115 1104.51 374.471C1110.38 347.288 1109.62 338.994 1124.62 322.765C1156.37 288.405 1160.54 288.345 1196.03 282.005C1219.02 278.83 1226.78 299.464 1228.69 318.557C1231.03 342.06 1212.08 372.169 1196.55 388.54C1167.17 419.522 1122.18 431.969 1081.33 437.608C1041.08 443.166 1008.16 429.922 973.557 411.002C946.497 396.207 897.658 335.024 869.332 322.764C835.24 308.01 835.479 307.127 795.368 310.89C740.67 315.533 750.029 318.343 729.652 322.635C679.867 340.018 680.061 343.24 651.824 361.012C592.583 407.298 601.865 417.743 590.119 429.569C579.346 444.036 577.253 454.652 573.245 467.832C566.177 526.036 550.549 663.883 544.573 749.63C537.102 856.815 262.157 1070.87 146.471 1044.42C37.0522 1019.41 -1.17844 1165.89 -16.998 1153.88" stroke="#131313" stroke-width="1.3183" stroke-linecap="round"/>
</svg>
