<svg width="1440" height="427" viewBox="0 0 1440 427" fill="none" xmlns="http://www.w3.org/2000/svg">
<path d="M-66.9312 213.97C-20.9253 216.435 1.75681 242.194 59.7568 279.31C108.04 310.208 130.757 339.81 165.257 350.121C199.757 360.432 227.681 366.673 266.092 357.529C307.871 347.584 323.557 298.31 358.757 298.31C393.957 298.31 410.771 321.387 443.685 314.016C480.038 305.875 504.107 234.633 531.757 219.81C554.757 203.976 610.157 148.91 657.757 147.31C717.257 145.31 806.757 117.81 915.257 219.81C960.543 262.383 1089.26 265.81 1113.26 237.31C1137.26 208.81 1136.26 148.31 1089.26 163.81C1052.01 176.094 1058.9 255.099 1100.26 266.309C1183.26 288.81 1287.26 277.81 1331.76 229.81C1367.36 191.41 1420.92 114.143 1443.26 80.3098" stroke="#131313" stroke-width="1.5" stroke-linecap="round"/>
<circle cx="6.70124" cy="6.70124" r="6.70124" transform="matrix(0.998567 0.0535088 0.0535088 -0.998567 191.764 209.246)" fill="#131313"/>
<ellipse cx="427.552" cy="315.31" rx="4.29495" ry="4" fill="#131313"/>
<ellipse cx="145.552" cy="341.31" rx="4.29495" ry="4" fill="#131313"/>
<ellipse cx="840.552" cy="168.31" rx="4.29495" ry="4" fill="#131313"/>
<ellipse cx="1234.55" cy="274.31" rx="4.29495" ry="4" fill="#131313"/>
<ellipse cx="1409.55" cy="132.31" rx="4.29495" ry="4" fill="#131313"/>
</svg>
