<svg width="1440" height="1688" viewBox="0 0 1440 1688" fill="none" xmlns="http://www.w3.org/2000/svg">
<ellipse cx="1017.08" cy="956.846" rx="4.29495" ry="4" transform="rotate(160.752 1017.08 956.846)" fill="#131313"/>
<path d="M1451.4 1211.22C1438.4 1193.22 1349.67 1040.67 1344.17 968.175C1339.77 910.175 1395.67 829.841 1404.17 801.675C1435.17 739.675 1436.25 625.391 1393.8 585.249C1385.77 570.492 1376.52 560.141 1362.77 546.451C1341.16 524.922 1305.98 511.52 1298.53 502.002C1279.51 489.115 1242.97 455.353 1249.01 419.348C1255.69 388.418 1254.83 378.981 1271.9 360.515C1308.03 321.418 1312.77 321.351 1353.15 314.136C1379.31 310.525 1388.14 334.003 1390.31 355.726C1392.98 382.47 1371.41 416.728 1353.75 435.356C1320.32 470.609 1269.12 484.77 1222.65 491.187C1176.84 497.511 1139.39 482.441 1100.01 460.914C1069.22 444.079 1013.65 374.463 981.423 360.514C942.632 343.726 942.905 342.722 897.265 347.003C835.027 352.286 845.677 355.483 822.49 360.367C765.844 380.146 766.065 383.812 733.935 404.034C666.529 456.699 677.091 468.584 663.726 482.04C651.467 498.501 649.086 510.58 644.525 525.577C636.484 591.804 618.701 748.65 611.901 846.216C603.401 968.175 288.533 932.763 156.901 902.675C32.4014 874.216 -11.0986 1040.88 -29.0986 1027.22" stroke="#131313" stroke-width="1.5" stroke-linecap="round"/>
<ellipse cx="674.196" cy="467.216" rx="4.29495" ry="4" fill="#131313"/>
<ellipse cx="809.196" cy="364.216" rx="4.29495" ry="4" fill="#131313"/>
<ellipse cx="1068.2" cy="436.216" rx="4.29495" ry="4" fill="#131313"/>
<ellipse cx="1263.2" cy="372.216" rx="4.29495" ry="4" fill="#131313"/>
<ellipse cx="1359.2" cy="900.216" rx="4.29495" ry="4" fill="#131313"/>
<ellipse cx="24.1958" cy="959.216" rx="4.29495" ry="4" fill="#131313"/>
</svg>
