<svg width="687" height="635" viewBox="0 0 687 635" fill="none" xmlns="http://www.w3.org/2000/svg">
<ellipse cx="80.7454" cy="236.016" rx="3.77467" ry="3.51546" fill="#131313"/>
<ellipse cx="487.66" cy="87.4878" rx="3.77467" ry="3.51546" fill="#131313"/>
<ellipse cx="18.3469" cy="519.01" rx="3.77467" ry="3.51546" fill="#131313"/>
<ellipse cx="125.569" cy="491.765" rx="3.77467" ry="3.51546" fill="#131313"/>
<path d="M602 535.708C580.56 563.5 552.876 581.878 500.144 581.878C479.491 579.212 487.401 584.95 434.23 571.302C395.12 561.631 395.637 560.877 368.315 535.708C345.613 514.796 300.108 496.968 279.438 474.079C253.005 444.81 226.293 421.454 186.457 413.431C146.039 405.291 99.4534 402.208 61.5031 421.773C41.4493 432.111 13.6293 454.288 8.09602 477.252C3.60133 495.905 4.12454 517.943 26.8761 522.525C62.4701 528.238 66.425 529.556 107.732 507.585C127.242 497.207 129.264 489.128 143.765 465.399C159.212 437.275 138.671 398.674 126.627 382.472C123.199 372.415 97.898 351.104 86.1995 326.978C78.7606 311.636 74.0854 300.368 71.6983 285.798C62.0307 226.788 128.012 176.692 186.457 149.448C244.901 122.203 335.357 122.203 444.337 140.659C458.984 144.174 564.082 150.986 580.56 135.825C602.532 115.611 581.439 82.6541 497.508 86.1694C458.398 87.8074 426.511 135.664 434.23 170.101C439.942 195.588 493.526 241.994 537.057 252.714" stroke="#131313" stroke-width="1.3183" stroke-linecap="round"/>
</svg>
