<svg width="1322" height="663" viewBox="0 0 1322 663" fill="none" xmlns="http://www.w3.org/2000/svg">
<path d="M394.175 354.462C369.675 407.962 313.676 439.308 275.675 461.962C249.675 477.462 223.764 486.084 208.175 486.084C134.536 486.084 39.5413 464.505 16.6758 394.462C-22.3248 317.962 18.1761 226.462 64.6759 181.462C82.6156 161.672 119.176 142.462 147.176 135.962M414.176 269.462C446.566 185.079 493.175 128.462 545.676 94.462C598.176 60.462 645.022 63.962 685.175 63.962C715.675 69.962 736.224 82.5816 757.688 106.462C783.676 140.462 751.175 194.462 751.175 194.462C751.175 194.462 713 251.5 691 283M1239.67 325.962C1237.67 369.962 1213.18 466.462 1170.18 509.462C1093.68 585.962 975.675 639.962 922.675 649.462C855.175 661.561 786.175 661.962 728.675 658.962C674.175 647.962 668.097 642.581 626.175 612.962C589.565 575.741 591.902 523.593 603.675 487.962L658.675 370.962M1239.67 301.962C1239.68 238.462 1133.34 179.217 1112.68 114.462C1090.18 43.9619 1157.48 -13.6381 1220.68 3.9619C1283.88 21.5619 1304.51 41.6287 1316.68 63.962" stroke="#131313" stroke-width="1.5" stroke-linecap="round"/>
<ellipse cx="202.97" cy="486.462" rx="4.29495" ry="4" fill="#131313"/>
<circle cx="514.176" cy="117.962" r="4.5" fill="#131313"/>
<ellipse cx="726.97" cy="658.462" rx="4.29495" ry="4" fill="#131313"/>
<ellipse cx="1088.97" cy="575.463" rx="4.29495" ry="4" fill="#131313"/>
<ellipse cx="1316.97" cy="66.4619" rx="4.29495" ry="4" fill="#131313"/>
</svg>
